<svg width="5404" height="2001" viewBox="0 0 5404 2001" fill="none" xmlns="http://www.w3.org/2000/svg">
<g clip-path="url(#clip0)">
<rect x="0.722656" y="0.5" width="5403" height="2000" rx="100" fill="white"/>
<rect x="0.722656" y="0.5" width="5403" height="2000" fill="#1977F3" fill-opacity="0.2"/>
<path d="M5211.73 442.5H5004.71C4959.41 442.5 4922.72 405.698 4922.72 360.26V0.5H5293.72V360.26C5293.72 405.656 5256.99 442.5 5211.73 442.5Z" fill="white"/>
<g clip-path="url(#clip1)">
<path d="M5132.08 374.5H5083.68V252.767H5050.72V213.123H5083.68V184.898C5083.68 151.459 5098.28 127.5 5146.51 127.5C5156.71 127.5 5172.72 129.568 5172.72 129.568V166.368H5155.9C5138.74 166.368 5132.04 171.626 5132.04 186.191V213.08H5172.08L5168.5 252.724H5132.04L5132.08 374.5Z" fill="#1877F2"/>
</g>
<path opacity="0.3" fill-rule="evenodd" clip-rule="evenodd" d="M2453.87 334.918C2453.87 334.918 3130.43 712.523 2940.96 1178.58C2456.67 1101.52 2453.87 334.918 2453.87 334.918Z" fill="#1877F2"/>
<path opacity="0.3" fill-rule="evenodd" clip-rule="evenodd" d="M3337.66 334.918C3337.66 334.918 2661.11 712.523 2850.57 1178.58C3334.87 1101.52 3337.66 334.918 3337.66 334.918Z" fill="#1877F2"/>
<path opacity="0.3" fill-rule="evenodd" clip-rule="evenodd" d="M2899.44 268.5C2899.44 268.5 2502.32 932.988 2899.44 1241.5C3280.32 932.988 2899.44 268.5 2899.44 268.5Z" fill="#1877F2"/>
<path d="M2485.6 1047.5C2485.6 1046.95 2486.05 1046.5 2486.6 1046.5H3313.6C3314.15 1046.5 3314.6 1046.95 3314.6 1047.5V1694.5C3314.6 1695.6 3313.7 1696.5 3312.6 1696.5H2487.6C2486.49 1696.5 2485.6 1695.6 2485.6 1694.5V1047.5Z" fill="#1877F2"/>
<path opacity="0.3" fill-rule="evenodd" clip-rule="evenodd" d="M3577.24 753.005C3577.24 753.005 4046.05 1014.66 3914.76 1337.61C3579.18 1284.21 3577.24 753.005 3577.24 753.005Z" fill="#1877F2"/>
<path opacity="0.3" fill-rule="evenodd" clip-rule="evenodd" d="M4189.65 753.005C4189.65 753.005 3720.84 1014.66 3852.13 1337.61C4187.72 1284.21 4189.65 753.005 4189.65 753.005Z" fill="#1877F2"/>
<path opacity="0.3" fill-rule="evenodd" clip-rule="evenodd" d="M3885.99 706.981C3885.99 706.981 3610.81 1167.43 3885.99 1381.21C4149.92 1167.43 3885.99 706.981 3885.99 706.981Z" fill="#1877F2"/>
<path d="M3599.22 1247.09C3599.22 1246.54 3599.67 1246.09 3600.22 1246.09H4172.67C4173.22 1246.09 4173.67 1246.54 4173.67 1247.09V1694.5C4173.67 1695.6 4172.78 1696.5 4171.67 1696.5H3601.22C3600.12 1696.5 3599.22 1695.6 3599.22 1694.5V1247.09Z" fill="#1877F2"/>
<path opacity="0.3" fill-rule="evenodd" clip-rule="evenodd" d="M4406.67 1081.5C4406.67 1081.5 4712.26 1252.06 4626.68 1462.57C4407.94 1427.76 4406.67 1081.5 4406.67 1081.5Z" fill="#1877F2"/>
<path opacity="0.3" fill-rule="evenodd" clip-rule="evenodd" d="M4805.86 1081.5C4805.86 1081.5 4500.27 1252.06 4585.85 1462.57C4804.6 1427.76 4805.86 1081.5 4805.86 1081.5Z" fill="#1877F2"/>
<path opacity="0.3" fill-rule="evenodd" clip-rule="evenodd" d="M4607.92 1051.5C4607.92 1051.5 4428.55 1351.64 4607.92 1490.99C4779.96 1351.64 4607.92 1051.5 4607.92 1051.5Z" fill="#1877F2"/>
<path d="M4421 1403.91C4421 1403.36 4421.45 1402.91 4422 1402.91H4794.44C4795 1402.91 4795.44 1403.36 4795.44 1403.91V1694.5C4795.44 1695.6 4794.55 1696.5 4793.44 1696.5H4423C4421.9 1696.5 4421 1695.6 4421 1694.5V1403.91Z" fill="#1877F2"/>
<rect x="585.723" y="852.5" width="1311" height="97" fill="#ACCEFA"/>
<rect x="585.723" y="1261.5" width="1311" height="97" fill="#ACCEFA"/>
<rect x="585.723" y="1054.5" width="1311" height="98" fill="#ACCEFA"/>
<rect x="989.723" y="643.5" width="501.34" height="96.8416" fill="#ACCEFA"/>
</g>
<defs>
<clipPath id="clip0">
<rect x="0.722656" y="0.5" width="5403" height="2000" rx="100" fill="white"/>
</clipPath>
<clipPath id="clip1">
<rect width="122" height="247" fill="white" transform="translate(5050.72 127.5)"/>
</clipPath>
</defs>
</svg>