<svg width="2001" height="2000" viewBox="0 0 2001 2000" fill="none" xmlns="http://www.w3.org/2000/svg">
<g clip-path="url(#clip0)">
<rect x="0.222656" width="2000" height="2000" rx="100" fill="white"/>
<rect x="0.222656" width="2000" height="2000" fill="#DE2C7C" fill-opacity="0.2"/>
<path d="M1808.23 442H1601.21C1555.91 442 1519.22 405.198 1519.22 359.76V0H1890.22V359.76C1890.22 405.156 1853.49 442 1808.23 442Z" fill="white"/>
<g clip-path="url(#clip1)">
<path d="M1761.67 374H1654.82C1615.91 374 1584.22 342.358 1584.22 303.442V196.602C1584.22 157.686 1615.91 126 1654.82 126H1761.67C1800.58 126 1832.27 157.686 1832.27 196.602V303.442C1832.22 342.358 1800.58 374 1761.67 374ZM1654.82 147.243C1627.6 147.243 1605.51 169.379 1605.51 196.557V303.398C1605.51 330.621 1627.65 352.712 1654.82 352.712H1761.67C1788.89 352.712 1810.98 330.577 1810.98 303.398V196.602C1810.98 169.379 1788.84 147.288 1761.67 147.288H1654.82V147.243Z" fill="url(#paint0_radial)"/>
<path d="M1708.24 313.528C1673.21 313.528 1644.74 285.055 1644.74 250.022C1644.74 214.989 1673.21 186.516 1708.24 186.516C1743.28 186.516 1771.75 214.989 1771.75 250.022C1771.75 285.01 1743.23 313.528 1708.24 313.528ZM1708.24 207.759C1684.95 207.759 1665.98 226.726 1665.98 250.022C1665.98 273.318 1684.95 292.285 1708.24 292.285C1731.54 292.285 1750.51 273.318 1750.51 250.022C1750.51 226.726 1731.54 207.759 1708.24 207.759Z" fill="url(#paint1_radial)"/>
<path d="M1789.74 182.857C1789.74 191.291 1782.91 198.12 1774.47 198.12C1766.04 198.12 1759.21 191.291 1759.21 182.857C1759.21 174.422 1766.04 167.594 1774.47 167.594C1782.91 167.594 1789.74 174.422 1789.74 182.857Z" fill="url(#paint2_radial)"/>
</g>
<path fill-rule="evenodd" clip-rule="evenodd" d="M508.145 1303.45V1560.01H508.146L508.146 1560.01C508.146 1645.03 623.013 1713.95 764.708 1713.95C866.256 1713.95 954.025 1678.55 995.609 1627.2C1037.19 1678.55 1124.96 1713.95 1226.51 1713.95C1368.21 1713.95 1483.07 1645.03 1483.07 1560.02C1483.07 1560.02 1483.07 1560.01 1483.07 1560.01H1483.08V1303.45C1483.08 1218.43 1368.21 1149.51 1226.52 1149.51C1124.96 1149.51 1037.19 1184.92 995.612 1236.27C954.03 1184.92 866.258 1149.51 764.706 1149.51C623.011 1149.51 508.145 1218.43 508.145 1303.45ZM969.957 1302.91C969.316 1253.36 881.328 1200.83 764.711 1200.83C647.668 1200.83 559.462 1253.75 559.462 1303.45C559.462 1353.15 647.668 1406.08 764.711 1406.08C881.241 1406.08 969.185 1353.62 969.955 1304.11V1303.45C969.955 1303.27 969.956 1303.09 969.957 1302.91ZM1226.52 1406.08C1343.56 1406.08 1431.77 1353.15 1431.77 1303.45C1431.77 1253.75 1343.56 1200.83 1226.52 1200.83C1109.48 1200.83 1021.27 1253.75 1021.27 1303.45C1021.27 1353.15 1109.48 1406.08 1226.52 1406.08Z" fill="#DE2C7C"/>
<path fill-rule="evenodd" clip-rule="evenodd" d="M508.023 396.66C526.132 375.828 557.7 373.62 578.533 391.73C578.863 392.017 579.19 392.309 579.513 392.605L1241.73 999.576C1252.26 1009.22 1253.18 1025.5 1243.82 1036.27C1234.45 1047.05 1218.2 1048.4 1207.18 1039.32L513.957 468.02C492.655 450.465 489.618 418.965 507.173 397.664C507.452 397.326 507.735 396.991 508.023 396.66ZM675.736 222.198C696.881 204.455 728.406 207.213 746.149 228.358C746.431 228.694 746.708 229.033 746.981 229.376L1306.1 932.469C1314.98 943.643 1313.35 959.864 1302.41 969.041C1291.47 978.218 1275.22 977.011 1265.76 966.319L670.434 293.607C652.141 272.936 654.069 241.349 674.74 223.056C675.068 222.766 675.4 222.479 675.736 222.198Z" fill="#DE2C7C" fill-opacity="0.4"/>
<path fill-rule="evenodd" clip-rule="evenodd" d="M1226.5 1354.77C1269.01 1354.77 1303.47 1331.79 1303.47 1303.45C1303.47 1275.11 1269.01 1252.14 1226.5 1252.14C1183.99 1252.14 1149.53 1275.11 1149.53 1303.45C1149.53 1331.79 1183.99 1354.77 1226.5 1354.77Z" fill="#DE2C7C" fill-opacity="0.4"/>
<path fill-rule="evenodd" clip-rule="evenodd" d="M764.691 1354.77C807.2 1354.77 841.66 1331.79 841.66 1303.45C841.66 1275.11 807.2 1252.14 764.691 1252.14C722.183 1252.14 687.723 1275.11 687.723 1303.45C687.723 1331.79 722.183 1354.77 764.691 1354.77Z" fill="#DE2C7C" fill-opacity="0.4"/>
</g>
<defs>
<radialGradient id="paint0_radial" cx="0" cy="0" r="1" gradientUnits="userSpaceOnUse" gradientTransform="translate(1585.62 398.103) scale(354.673)">
<stop stop-color="#FEC053"/>
<stop offset="0.3273" stop-color="#F2203E"/>
<stop offset="0.6485" stop-color="#B729A8"/>
<stop offset="1" stop-color="#5342D6"/>
</radialGradient>
<radialGradient id="paint1_radial" cx="0" cy="0" r="1" gradientUnits="userSpaceOnUse" gradientTransform="translate(1585.62 398.103) scale(354.674)">
<stop stop-color="#FEC053"/>
<stop offset="0.3273" stop-color="#F2203E"/>
<stop offset="0.6485" stop-color="#B729A8"/>
<stop offset="1" stop-color="#5342D6"/>
</radialGradient>
<radialGradient id="paint2_radial" cx="0" cy="0" r="1" gradientUnits="userSpaceOnUse" gradientTransform="translate(1585.62 398.097) scale(354.67)">
<stop stop-color="#FEC053"/>
<stop offset="0.3273" stop-color="#F2203E"/>
<stop offset="0.6485" stop-color="#B729A8"/>
<stop offset="1" stop-color="#5342D6"/>
</radialGradient>
<clipPath id="clip0">
<rect x="0.222656" width="2000" height="2000" rx="100" fill="white"/>
</clipPath>
<clipPath id="clip1">
<rect width="248" height="248" fill="white" transform="translate(1584.22 126)"/>
</clipPath>
</defs>
</svg>