<svg width="941" height="2000" viewBox="0 0 941 2000" fill="none" xmlns="http://www.w3.org/2000/svg">
<g clip-path="url(#clip0)">
<rect x="0.222656" width="940" height="2000" rx="100" fill="white"/>
<rect x="0.222656" width="940" height="2000" fill="#EE2D34" fill-opacity="0.2"/>
<path d="M748.234 442H541.212C495.913 442 459.223 405.198 459.223 359.76V0H830.223V359.76C830.223 405.156 793.492 442 748.234 442Z" fill="white"/>
<g clip-path="url(#clip1)">
<path d="M521.223 250.396C521.275 182.225 576.761 126.896 644.931 127C713.154 127.105 768.327 182.486 768.223 250.813C768.171 319.036 712.58 374.157 643.992 374.052C576.396 373.896 521.17 318.305 521.223 250.396Z" fill="#EE2D34"/>
<path d="M609.175 348.319C611.577 332.399 614.134 316.531 615.648 300.506C617.527 279.94 618.153 259.374 614.5 238.913C613.821 235.05 613.612 231.135 614.552 227.168C616.431 219.182 620.868 214.954 628.854 213.649C636.631 212.396 645.714 216.207 649.211 222.157C653.596 229.674 649.785 240.792 641.381 244.393C639.137 245.333 638.458 246.429 638.563 248.726C638.719 253.006 638.563 257.286 638.615 261.566C638.876 276.443 649.159 284.116 663.618 280.566C670.769 278.844 676.145 274.72 679.381 268.457C688.359 251.075 691.23 232.91 683.923 214.223C677.45 197.624 663.774 188.698 645.87 188.75C631.203 188.803 618.206 193.083 608.392 204.462C599.049 215.267 594.978 228.055 595.708 242.305C595.813 244.132 595.969 246.011 596.126 247.838C596.387 251.701 596.961 254.833 601.502 256.608C606.566 258.591 607.818 264.333 605.417 269.657C603.538 273.781 598.162 275.816 593.203 274.094C587.409 272.11 584.016 267.674 581.615 262.297C577.752 253.528 576.969 244.132 576.969 234.737C576.917 221.479 580.153 209.055 588.296 198.25C598.788 184.314 612.881 176.014 629.689 172.256C650.62 167.558 670.299 170.533 687.838 183.27C704.697 195.484 712.736 212.553 712.631 233.171C712.527 254.937 705.115 273.833 688.046 288.031C676.615 297.583 663.618 302.646 648.48 298.105C642.008 296.174 636.892 291.998 632.247 286.256C630.42 310.058 621.024 330.52 610.115 350.511C608.288 350.407 609.071 349.259 609.175 348.319Z" fill="#FEFEFE"/>
</g>
<path opacity="0.3" d="M470.225 800.815L331.573 967.448C319.988 981.37 299.328 983.251 285.427 971.649C271.525 960.048 269.647 939.356 281.232 925.434L445.055 728.552C458.154 712.809 482.297 712.809 495.396 728.552L659.219 925.434C670.803 939.356 668.925 960.048 655.024 971.649C641.123 983.251 620.462 981.37 608.878 967.448L470.225 800.815Z" fill="#EE2D34"/>
<path fill-rule="evenodd" clip-rule="evenodd" d="M153.711 946C153.159 946 152.711 946.448 152.711 947V1335C152.711 1336.66 154.054 1338 155.711 1338H784.708C786.365 1338 787.708 1336.66 787.708 1335V947C787.708 946.448 787.26 946 786.708 946H153.711ZM438.552 1044C437.999 1044 437.552 1044.45 437.552 1045V1239C437.552 1239.55 437.999 1240 438.552 1240H501.885C502.437 1240 502.885 1239.55 502.885 1239V1045C502.885 1044.45 502.437 1044 501.885 1044H438.552ZM274.418 1057.87C274.275 1057.34 274.591 1056.79 275.125 1056.65L336.3 1040.25C336.834 1040.11 337.382 1040.43 337.525 1040.96L387.736 1228.35C387.879 1228.88 387.562 1229.43 387.029 1229.58L325.853 1245.97C325.32 1246.11 324.771 1245.79 324.629 1245.26L274.418 1057.87ZM604.12 1040.25C603.587 1040.11 603.038 1040.43 602.895 1040.96L552.685 1228.35C552.542 1228.88 552.858 1229.43 553.392 1229.58L614.567 1245.97C615.1 1246.11 615.649 1245.79 615.792 1245.26L666.003 1057.87C666.146 1057.34 665.829 1056.79 665.296 1056.65L604.12 1040.25Z" fill="#EE2D34"/>
<rect x="152.223" y="1620" width="635" height="220" fill="#EE2D34" fill-opacity="0.6"/>
</g>
<defs>
<clipPath id="clip0">
<rect x="0.222656" width="940" height="2000" rx="100" fill="white"/>
</clipPath>
<clipPath id="clip1">
<rect width="247" height="247" fill="white" transform="translate(521.223 127)"/>
</clipPath>
</defs>
</svg>