<svg width="2000" height="2000" viewBox="0 0 2000 2000" fill="none" xmlns="http://www.w3.org/2000/svg">
<rect width="2000" height="2000" rx="100" fill="white"/>
<rect width="2000" height="2000" fill="#95BF46" rx="100" fill-opacity="0.2"/>
<path d="M1808.01 442H1600.99C1555.69 442 1519 405.198 1519 359.76V0H1890V359.76C1890 405.156 1853.27 442 1808.01 442Z" fill="white"/>
<path d="M1043.61 1771.9C1378.01 1771.9 1649.11 1728.7 1649.11 1675.4C1649.11 1622.11 1378.01 1578.9 1043.61 1578.9C709.197 1578.9 438.105 1622.11 438.105 1675.4C438.105 1728.7 709.197 1771.9 1043.61 1771.9Z" fill="#95BF46" fill-opacity="0.2"/>
<g clip-path="url(#clip0)">
<path opacity="0.7" d="M964.398 1180.2C934.827 1143.41 906.903 1103.83 871.293 1073.68C790.855 999.824 690.533 947.092 605.429 879.205C543.738 829.969 491.812 771.151 453.025 698.16C392.393 726.705 382.667 767.971 382 804.801C380.235 902.528 530.403 1006.07 623.94 1036.77C735.478 1080.59 832.152 1142.78 895.961 1249.62C1063.54 1494.82 1433.69 1557.02 1644.53 1369.92C1447.22 1469.69 1102.84 1398.98 964.398 1180.2Z" fill="#95BF46"/>
<path d="M609.351 830.089C473.732 701.854 473.732 649.986 597.389 523.871C597.546 523.714 683.749 446.6 711.358 404.47C733.399 370.821 755.833 372.274 769.99 375.729C777.599 377.574 789.953 385.741 789.443 406.355C789.051 423.788 789.639 434.114 792.306 459.4C805.091 580.411 825.603 640.327 962.358 688.229C1001.34 701.893 1026.52 725.962 1046.76 745.986L1016.05 696.16C1000.83 668.872 975.418 625.407 985.968 595.449C1001.26 552.22 1097.66 518.217 1146.33 550.57C1161.75 560.818 1165.75 596.745 1169.86 615.002C1181.63 667.459 1188.34 714.732 1200.14 756.587C1182.81 757.687 1170.14 761.063 1151.82 767.621C1110.64 782.384 1082.09 805.589 1080.88 806.57C1075.58 810.889 1074.8 818.742 1079.15 824.043C1081.54 826.987 1085.11 828.636 1088.92 828.597C1091.7 828.558 1094.45 827.576 1096.64 825.809C1096.92 825.613 1123.55 804.018 1160.77 790.825C1178.81 784.425 1192.96 781.127 1209.4 780.695C1216.06 803.233 1225.75 824.121 1232.26 843.596C1219.71 845.52 1206.93 848.739 1193.91 853.412C1152.61 868.214 1124.17 891.38 1123 892.362C1117.7 896.681 1116.92 904.533 1121.27 909.834C1123.66 912.779 1127.23 914.428 1131.04 914.388C1133.82 914.349 1136.57 913.368 1138.76 911.561C1139.04 911.326 1165.47 889.849 1202.89 876.577C1215.83 871.984 1228.34 868.96 1240.5 867.468C1248.22 889.534 1255.79 909.52 1263.09 927.542C1253.24 929.505 1243.28 932.253 1233.16 935.905C1191.98 950.668 1163.43 973.873 1162.22 974.855C1156.92 979.213 1156.14 987.026 1160.49 992.327C1162.88 995.272 1166.45 996.921 1170.26 996.882C1173.04 996.842 1175.79 995.861 1177.98 994.094C1178.26 993.858 1204.93 972.303 1242.11 959.11C1252.66 955.38 1262.89 952.71 1272.89 951.022C1282.89 974.305 1292.31 993.78 1300.78 1009.96C1290.23 1011.92 1279.52 1014.83 1268.66 1018.71C1227.36 1033.51 1198.93 1056.68 1197.75 1057.66C1192.45 1062.02 1191.67 1069.83 1196.02 1075.13C1198.42 1078.08 1201.98 1079.73 1205.79 1079.69C1208.57 1079.65 1211.32 1078.67 1213.52 1076.9C1213.79 1076.67 1240.46 1055.11 1277.64 1041.92C1289.99 1037.52 1301.95 1034.57 1313.56 1032.97C1333.99 1068.03 1394.51 1127 1394.51 1127C1406.24 1134.38 1418.32 1146.56 1436.28 1161.87C1530.52 1242.04 1665.55 1293.87 1647.51 1327.64C1634.76 1351.47 1589.27 1363.57 1549.38 1373.15C1347.17 1421.68 1183.67 1350.96 1039.23 1213.22C1039.31 1213.26 1039.42 1213.26 1039.5 1213.3C1007.93 1183.86 982.595 1138.23 955.377 1106.51C859.056 994.172 754.813 933.549 647.432 857.574C647.275 857.613 617.861 838.138 609.351 830.089Z" fill="#95BF46"/>
</g>
<path d="M1747.63 162.742C1748.86 162.742 1748.86 162.742 1750.09 163.971C1748.86 162.742 1747.63 162.742 1747.63 162.742Z" fill="#95BF46"/>
<path d="M1736.53 378.99L1747.62 162.756C1746.38 162.756 1745.15 162.756 1743.92 162.756C1743.92 162.756 1741.46 163.985 1736.53 165.213C1731.6 152.927 1724.21 140.641 1710.66 140.641H1709.43C1705.73 135.727 1700.8 133.27 1697.11 133.27C1665.08 133.27 1650.3 172.585 1645.37 193.471C1633.05 197.157 1624.43 199.614 1623.2 199.614C1615.8 202.071 1615.8 202.071 1614.57 208.214C1614.57 213.129 1596.09 353.189 1596.09 353.189L1736.53 378.99L1812.91 363.018L1736.53 378.99ZM1708.2 172.585V173.813C1700.8 176.271 1692.18 178.728 1683.56 181.185C1688.49 162.756 1697.11 154.156 1704.5 150.47C1706.96 155.384 1708.2 162.756 1708.2 172.585ZM1695.88 141.87C1697.11 141.87 1698.34 141.87 1699.57 143.098C1689.72 148.013 1678.63 160.299 1673.7 183.642C1667.54 186.099 1661.38 188.557 1655.22 189.785C1660.15 171.356 1672.47 141.87 1695.88 141.87ZM1700.8 248.758C1700.8 248.758 1692.18 243.844 1682.33 243.844C1667.54 243.844 1666.31 253.673 1666.31 254.901C1666.31 267.187 1699.57 272.102 1699.57 302.817C1699.57 326.16 1684.79 340.903 1665.08 340.903C1640.44 340.903 1628.12 326.16 1628.12 326.16L1635.51 305.274C1635.51 305.274 1647.83 316.331 1658.92 316.331C1666.31 316.331 1668.78 311.417 1668.78 306.503C1668.78 289.302 1641.67 289.302 1641.67 262.273C1641.67 238.929 1657.69 216.815 1690.95 216.815C1703.27 216.815 1710.66 220.5 1710.66 220.5L1700.8 248.758ZM1716.82 171.356C1716.82 170.128 1716.82 170.128 1716.82 168.899C1716.82 161.527 1715.59 154.156 1714.36 149.241C1721.75 150.47 1726.67 157.842 1729.14 167.67C1725.44 167.67 1721.75 168.899 1716.82 171.356Z" fill="#95BF46"/>
<path d="M1812.89 363.03C1812.89 363.03 1785.79 182.425 1785.79 181.197C1785.79 179.968 1784.56 178.74 1783.32 178.74C1782.09 178.74 1763.61 177.511 1763.61 177.511C1763.61 177.511 1750.06 163.996 1748.83 162.768C1748.83 162.768 1747.6 161.539 1746.37 161.539L1736.51 379.002L1812.89 363.03Z" fill="#5E8E3E"/>
<defs>
<clipPath id="clip0">
<rect width="1267" height="1105" fill="white" transform="translate(382 374)"/>
</clipPath>
</defs>
</svg>