<svg width="3557" height="2001" viewBox="0 0 3557 2001" fill="none" xmlns="http://www.w3.org/2000/svg">
<g clip-path="url(#clip0)">
<rect x="0.222656" y="0.00390625" width="3556" height="2000" rx="100" fill="white"/>
<rect x="0.222656" y="0.00390625" width="3556" height="2000" fill="#95BF46" fill-opacity="0.2"/>
<path d="M3364.23 442.004H3157.21C3111.91 442.004 3075.22 405.201 3075.22 359.764V0.00390625H3446.22V359.764C3446.22 405.16 3409.49 442.004 3364.23 442.004Z" fill="white"/>
<rect x="1626.22" y="810.004" width="1038" height="97" fill="#95BF46" fill-opacity="0.3"/>
<rect x="1626.22" y="1012" width="1038" height="98" fill="#95BF46" fill-opacity="0.3"/>
<rect x="1626.22" y="601.004" width="435.785" height="96.8416" fill="#95BF46" fill-opacity="0.3"/>
<rect x="1626.22" y="1206" width="552" height="194" fill="#95BF46" fill-opacity="0.6"/>
<path fill-rule="evenodd" clip-rule="evenodd" d="M1020.22 625.004H650.223C548.05 625.004 465.223 707.831 465.223 810.004V1180C465.223 1282.18 548.05 1365 650.223 1365H1020.22C1122.4 1365 1205.22 1282.18 1205.22 1180V810.004C1205.22 707.831 1122.4 625.004 1020.22 625.004ZM588.558 810.004C588.558 775.946 616.167 748.337 650.225 748.337H1020.22C1054.28 748.337 1081.89 775.946 1081.89 810.004V1180C1081.89 1214.06 1054.28 1241.67 1020.22 1241.67H650.225C616.167 1241.67 588.558 1214.06 588.558 1180V810.004Z" fill="#95BF46"/>
<path opacity="0.3" d="M650.223 1365H1020.22V1561.67C1020.22 1589.28 997.837 1611.67 970.223 1611.67H700.223C672.608 1611.67 650.223 1589.28 650.223 1561.67V1365Z" fill="#95BF46" fill-opacity="0.5"/>
<path opacity="0.3" d="M650.223 428.338C650.223 400.724 672.608 378.338 700.223 378.338H970.223C997.837 378.338 1020.22 400.724 1020.22 428.338V625.005H650.223V428.338Z" fill="#95BF46" fill-opacity="0.5"/>
<circle cx="3024.22" cy="1790" r="55" fill="#95BF46"/>
<circle cx="3186.22" cy="1790" r="55" fill="#95BF46"/>
<circle cx="3348.22" cy="1790" r="55" fill="#95BF46"/>
<path d="M3300.04 169.869C3301.16 169.869 3301.16 169.869 3302.28 170.989C3301.16 169.869 3300.04 169.869 3300.04 169.869Z" fill="#95BF46"/>
<path d="M3289.92 366.995L3300.03 169.883C3298.9 169.883 3297.78 169.883 3296.66 169.883C3296.66 169.883 3294.41 171.003 3289.92 172.123C3285.43 160.923 3278.69 149.724 3266.34 149.724H3265.21C3261.84 145.244 3257.35 143.004 3253.98 143.004C3224.79 143.004 3211.31 178.842 3206.82 197.882C3195.59 201.242 3187.73 203.482 3186.61 203.482C3179.87 205.721 3179.87 205.721 3178.75 211.321C3178.75 215.801 3161.9 343.476 3161.9 343.476L3289.92 366.995L3359.54 352.436L3289.92 366.995ZM3264.09 178.842V179.962C3257.35 182.202 3249.49 184.442 3241.63 186.682C3246.12 169.883 3253.98 162.043 3260.72 158.683C3262.97 163.163 3264.09 169.883 3264.09 178.842ZM3252.86 150.844C3253.98 150.844 3255.11 150.844 3256.23 151.964C3247.25 156.443 3237.14 167.643 3232.65 188.922C3227.03 191.162 3221.42 193.402 3215.8 194.522C3220.3 177.723 3231.53 150.844 3252.86 150.844ZM3257.35 248.28C3257.35 248.28 3249.49 243.8 3240.51 243.8C3227.03 243.8 3225.91 252.76 3225.91 253.88C3225.91 265.079 3256.23 269.559 3256.23 297.558C3256.23 318.837 3242.75 332.276 3224.79 332.276C3202.33 332.276 3191.1 318.837 3191.1 318.837L3197.84 299.798C3197.84 299.798 3209.07 309.877 3219.17 309.877C3225.91 309.877 3228.16 305.398 3228.16 300.918C3228.16 285.238 3203.45 285.238 3203.45 260.599C3203.45 239.32 3218.05 219.161 3248.37 219.161C3259.6 219.161 3266.34 222.521 3266.34 222.521L3257.35 248.28ZM3271.95 177.723C3271.95 176.603 3271.95 176.603 3271.95 175.483C3271.95 168.763 3270.83 162.043 3269.71 157.563C3276.44 158.683 3280.94 165.403 3283.18 174.363C3279.81 174.363 3276.44 175.483 3271.95 177.723Z" fill="#95BF46"/>
<path d="M3359.53 352.446C3359.53 352.446 3334.82 187.813 3334.82 186.693C3334.82 185.573 3333.7 184.453 3332.57 184.453C3331.45 184.453 3314.61 183.333 3314.61 183.333C3314.61 183.333 3302.25 171.013 3301.13 169.893C3301.13 169.893 3300.01 168.773 3298.89 168.773L3289.9 367.006L3359.53 352.446Z" fill="#5E8E3E"/>
</g>
<defs>
<clipPath id="clip0">
<rect x="0.222656" y="0.00390625" width="3556" height="2000" rx="100" fill="white"/>
</clipPath>
</defs>
</svg>