<svg xmlns="http://www.w3.org/2000/svg" width="888.813" height="999.906" viewBox="0 0 888.813 999.906">
  <defs>
    <style>
      .cls-1 {
        fill: #a6b4bf;
        fill-rule: evenodd;
      }
    </style>
  </defs>
  <path class="cls-1" d="M510.773-.211L802.712,174.922,514.978,347.349c-5.6-38.345-9.72-66.609-15.119-103.623C389.031,242.6,306.4,289.512,246.1,375.59,175.153,476.856,166.7,586.413,222.015,697.7c60.241,121.18,183.1,184.875,321.811,170.564,125.036-12.9,232.44-110.073,264.135-240.12,5.725-23.484,1.326-52.161,13.4-70.714,16.374-25.148,44.136-42.839,67.013-63.729,19.413,24.516,53.718,47.793,55.861,73.743C960.026,758.605,784.3,962.953,583.574,993.97,328.35,1033.41,102.12,873.064,62.165,624.409,23.179,381.781,186.117,157.882,439.821,118.235,511,107.111,507.957,64.609,510.773-.211Z" transform="translate(-56.406)"/>
</svg>
