<svg xmlns="http://www.w3.org/2000/svg" width="1000" height="800.719" viewBox="0 0 1000 800.719">
  <defs>
    <style>
      .cls-1 {
        fill: #a6b4bf;
        fill-rule: evenodd;
      }
    </style>
  </defs>
  <path class="cls-1" d="M311.594,507.733C257.378,597.84,208.107,679.726,154.477,768.858c-53.3-88.732-102.3-170.289-155.557-258.942l91.455-13.634c6.778-34.624,11.5-68.262,20.051-100.9,63.517-242.355,345.43-368.7,564.1-253.362,56.306,29.7,71.172,86.7,25.091,107.475-23.712,10.69-61.766,2.229-88.712-8.822C422.377,163.353,219.041,291.9,217.952,496.384Zm689.206-6.055c-96.873-28.92-102.557,23-115.745,82.548C830.017,832.734,571.4,965,340.112,867.294c-7.9-3.338-15.721-6.9-23.377-10.761-35.439-17.868-64.694-41.76-44.12-85.426,20.3-43.088,56.842-38.857,93.433-20.906,73.085,35.856,148.323,41.822,225.194,14.948,111.854-39.106,186.145-145.625,182.4-264.918-26.335-2.619-53.436-5.312-92.547-9.2,51.936-86.611,100.7-167.927,156.345-260.723Z" transform="translate(0 -98.875)"/>
</svg>
