<svg xmlns="http://www.w3.org/2000/svg" width="531.938" height="998" viewBox="0 0 531.938 998">
  <defs>
    <style>
      .cls-1 {
        fill: #a6b4bf;
        fill-rule: evenodd;
      }
    </style>
  </defs>
  <path class="cls-1" d="M287.2-.993a52.074,52.074,0,1,0,52.188,52.073A52.129,52.129,0,0,0,287.2-.993Zm0,149.137a52.075,52.075,0,1,0,52.188,52.074A52.13,52.13,0,0,0,287.2,148.144Zm0,149.141a52.074,52.074,0,1,0,52.188,52.072A52.129,52.129,0,0,0,287.2,297.285Zm0,149.139A52.074,52.074,0,1,0,339.388,498.5,52.129,52.129,0,0,0,287.2,446.424Zm0,149.139a52.074,52.074,0,1,0,52.188,52.073A52.129,52.129,0,0,0,287.2,595.563Zm0,149.139a52.074,52.074,0,1,0,52.188,52.074A52.129,52.129,0,0,0,287.2,744.7Zm0,149.139a52.074,52.074,0,1,0,52.188,52.074A52.129,52.129,0,0,0,287.2,893.841Zm142.519-745.7a52.075,52.075,0,1,0,52.187,52.074A52.132,52.132,0,0,0,429.719,148.144Zm0,149.141a52.074,52.074,0,1,0,52.187,52.072A52.13,52.13,0,0,0,429.719,297.285Zm0,149.139A52.074,52.074,0,1,0,481.906,498.5,52.13,52.13,0,0,0,429.719,446.424Zm0,149.139a52.074,52.074,0,1,0,52.187,52.073A52.13,52.13,0,0,0,429.719,595.563Zm0,149.139a52.074,52.074,0,1,0,52.187,52.074A52.131,52.131,0,0,0,429.719,744.7ZM572.236,297.285a52.074,52.074,0,1,0,52.188,52.072A52.132,52.132,0,0,0,572.236,297.285Zm0,149.139A52.074,52.074,0,1,0,624.424,498.5,52.132,52.132,0,0,0,572.236,446.424Zm0,149.139a52.074,52.074,0,1,0,52.188,52.073A52.132,52.132,0,0,0,572.236,595.563ZM714.755,446.424A52.074,52.074,0,1,0,766.941,498.5,52.13,52.13,0,0,0,714.755,446.424Z" transform="translate(-235)"/>
</svg>
