<svg xmlns="http://www.w3.org/2000/svg" width="994.969" height="567.125" viewBox="0 0 994.969 567.125">
  <defs>
    <style>
      .cls-1 {
        fill: #a6b4bf;
        fill-rule: evenodd;
      }
    </style>
  </defs>
  <path class="cls-1" d="M50.3,216.85a48.992,48.992,0,1,0,49.3,48.99A49.145,49.145,0,0,0,50.3,216.85Zm224.091,0a48.992,48.992,0,1,0,49.3,48.99A49.146,49.146,0,0,0,274.392,216.85Zm224.089,0a48.992,48.992,0,1,0,49.3,48.99A49.145,49.145,0,0,0,498.481,216.85Zm224.09,0a48.992,48.992,0,1,0,49.3,48.99A49.145,49.145,0,0,0,722.571,216.85ZM160.853,335.616a48.991,48.991,0,1,0,49.3,48.991A49.146,49.146,0,0,0,160.853,335.616Zm224.09,0a48.991,48.991,0,1,0,49.3,48.991A49.147,49.147,0,0,0,384.943,335.616Zm224.089,0a48.991,48.991,0,1,0,49.3,48.991A49.146,49.146,0,0,0,609.032,335.616Zm224.09,0a48.991,48.991,0,1,0,49.3,48.991A49.146,49.146,0,0,0,833.122,335.616Zm-558.73,115.8a48.992,48.992,0,1,0,49.3,48.991A49.147,49.147,0,0,0,274.392,451.412Zm224.089,0a48.992,48.992,0,1,0,49.3,48.991A49.146,49.146,0,0,0,498.481,451.412Zm224.09,0a48.992,48.992,0,1,0,49.3,48.991A49.146,49.146,0,0,0,722.571,451.412Zm224.09,0a48.992,48.992,0,1,0,49.3,48.991A49.147,49.147,0,0,0,946.661,451.412ZM160.853,570.179a48.99,48.99,0,1,0,49.3,48.99A49.145,49.145,0,0,0,160.853,570.179Zm224.09,0a48.99,48.99,0,1,0,49.3,48.99A49.146,49.146,0,0,0,384.943,570.179Zm224.089,0a48.99,48.99,0,1,0,49.3,48.99A49.145,49.145,0,0,0,609.032,570.179Zm224.09,0a48.99,48.99,0,1,0,49.3,48.99A49.145,49.145,0,0,0,833.122,570.179ZM50.3,685.974a48.992,48.992,0,1,0,49.3,48.991A49.145,49.145,0,0,0,50.3,685.974Zm224.091,0a48.992,48.992,0,1,0,49.3,48.991A49.146,49.146,0,0,0,274.392,685.974Zm224.089,0a48.992,48.992,0,1,0,49.3,48.991A49.145,49.145,0,0,0,498.481,685.974Zm224.09,0a48.992,48.992,0,1,0,49.3,48.991A49.145,49.145,0,0,0,722.571,685.974Z" transform="translate(-1 -216.844)"/>
</svg>
