<svg xmlns="http://www.w3.org/2000/svg" width="612.906" height="997.906" viewBox="0 0 612.906 997.906">
  <defs>
    <style>
      .cls-1 {
        fill: #a6b4bf;
        fill-rule: evenodd;
      }
    </style>
  </defs>
  <path class="cls-1" d="M804.87,501.056c-0.011-1.947.055-3.9-.037-5.84A139.643,139.643,0,0,0,767.7,405.062L437.144,47.491c-52.831-57.147-142.179-60.827-199.57-8.226a140.216,140.216,0,0,0-8.261,198.719l243.2,263.073-243.2,263.075a140.215,140.215,0,0,0,8.261,198.717c57.391,52.6,146.739,48.922,199.57-8.227L767.7,597.052A139.652,139.652,0,0,0,804.833,506.9C804.925,504.952,804.859,503.005,804.87,501.056Z" transform="translate(-192 -2.094)"/>
</svg>
