<svg xmlns="http://www.w3.org/2000/svg" viewBox="0 0 108.63 107.15"><defs><style>.cls-1{fill:#66757f;}.cls-2{fill:#a6b4bf;}.cls-3{fill:#f1c40f;}</style></defs><title>Asset 355</title><g id="Layer_2" data-name="Layer 2"><g id="Layer_1-2" data-name="Layer 1"><polygon class="cls-1" points="108.64 62.29 21.59 104.7 21.59 77.45 108.64 35.04 108.64 62.29"/><polygon class="cls-1" points="71.01 79.89 98.26 77.48 89.94 91.84 98.26 104.73 71.01 107.14 71.01 79.89"/><polygon class="cls-2" points="84.63 99.12 71.01 107.15 71.01 79.9 84.63 71.87 84.63 99.12"/><polygon class="cls-2" points="84.63 99.12 21.59 104.7 21.59 77.45 84.63 71.87 84.63 99.12"/><polygon class="cls-1" points="35.22 27.25 7.97 29.66 16.28 15.3 7.97 2.41 35.22 0 35.22 27.25"/><polygon class="cls-1" points="92.19 29.03 0 71.9 0 44.65 92.19 1.78 92.19 29.03"/><polygon class="cls-2" points="35.22 27.25 21.59 35.28 21.59 8.03 35.22 0 35.22 27.25"/><polygon class="cls-2" points="92.19 29.03 21.59 35.28 21.59 8.03 92.19 1.78 92.19 29.03"/><polygon class="cls-3" points="108.64 62.29 0 71.9 0 44.65 108.64 35.04 108.64 62.29"/><polygon class="cls-2" points="108.64 62.29 0 71.9 0 44.65 108.64 35.04 108.64 62.29"/></g></g></svg>