<svg xmlns="http://www.w3.org/2000/svg" viewBox="0 0 155.06 70.8"><defs><style>.cls-1{fill:#66757f;}.cls-2{fill:#a6b4bf;}</style></defs><title>Asset 356</title><g id="Layer_2" data-name="Layer 2"><g id="Layer_1-2" data-name="Layer 1"><polygon class="cls-1" points="128.83 41.1 155.06 38.83 147.06 52.63 155.06 65.06 128.83 67.33 128.83 41.1"/><polygon class="cls-1" points="26.23 29.69 0 31.96 8.01 18.16 0 5.73 26.23 3.46 26.23 29.69"/><polygon class="cls-1" points="141.94 26.23 13.12 70.8 13.12 44.57 141.94 0 141.94 26.23"/><polygon class="cls-2" points="26.23 29.69 13.12 37.39 13.12 11.16 26.23 3.46 26.23 29.69"/><polygon class="cls-2" points="141.94 59.64 128.83 67.34 128.83 41.11 141.94 33.41 141.94 59.64"/><polygon class="cls-2" points="141.94 26.23 13.12 37.39 13.12 11.16 141.94 0 141.94 26.23"/><polygon class="cls-2" points="141.94 59.64 13.12 70.8 13.12 44.57 141.94 33.41 141.94 59.64"/></g></g></svg>