<svg xmlns="http://www.w3.org/2000/svg" viewBox="0 0 126.46 86.26"><defs><style>.cls-1{fill:#a6b4bf;}</style></defs><title>BR1</title><g id="Layer_2" data-name="Layer 2"><g id="Layer_1-2" data-name="Layer 1"><path class="cls-1" d="M118.58,59.34a4.63,4.63,0,0,0,.84-.17,9.85,9.85,0,0,1,4.17-.57c.17-.49.55-.63,1-.73l1.66-.35c.72-3.9-.7-7.89-2.73-11.59-.46-.84-1-1.66-1.53-2.48-.25-.07-.5-.16-.75-.22-.42,0-.93.17-.92-.59,0-.12-.55-.24-.84-.36l0-.05-1-.29-2.2-.39,0-.29h1.9l.67,0c.38-.14.93-.06,1-.7l-.33-.31-1-1.45,1-.36c.3-.28.36-.54,0-.81l-.65-.5L117.53,36l-.81-.61c-.69-1-1.71-.65-2.63-.71-.67,0-1.39.15-1.73-.67a6.56,6.56,0,0,1-1.28.29c-.87,0-1.31-.47-1.37-1.48,0,0,.18-.11.27-.17L112.5,32c-1.18-1-2.42-.59-3.74-.85a8.85,8.85,0,0,0,.88-.44,2.37,2.37,0,0,0,.83-.73c.13-.25,0-.64,0-1a1.34,1.34,0,0,0,.36-.09c.22-.12.57-.23.62-.41a.91.91,0,0,0-.31-.68c-.93-.82-1.89-1.6-2.83-2.39l-.85-1,.67-1.19-1.18-.11-.69.95c-.06.24,0,.59-.18.69a1.3,1.3,0,0,1-1.9-.35h-.66c-.2.16-.41.45-.61.45a8.53,8.53,0,0,1-1.42-.29c.2-.77-.09-1.65,1-1.86l1.64-.68-.3-.33-.29-.05a3.6,3.6,0,0,1-.66,0c-.6-.13-.72-.46-.37-1l2-.29.35,0,.33,0c.71-.3,1.2-1.09,2.11-.94h.66l2.59-.48L114,18l.69,0,1.53-.55A3.33,3.33,0,0,1,117.44,16v-.25l1.38-.55c.2-.33.52-.63.69-1-.25-.25-.51-.46-.76-.68a2.66,2.66,0,0,1-1.69-.35l-1.28-1-1-.76a19.11,19.11,0,0,0-2.14.19,5.47,5.47,0,0,1-3.25-.21,3.47,3.47,0,0,1-.7-.44c-.48-.51-.92-1.06-1.46-1.7l1.14-.11c.62,0,1.23-.06,1.84-.13l-1-.42c-.22-.09-.42-.19-.63-.29l-.62.07-1.75.05-1.29-.08c-.85.21-1.74.74-2.42-.31-.47-.1-1.08,0-.95-.9l.95-.1c.06-.11.13-.21.2-.32l-.86-.32c-1,.18-2.09.63-3.13,0l0,0a1.33,1.33,0,0,1-1.64,0c.18-.34.36-.7.54-1-.3-.26-.61-.51-.89-.78a1,1,0,0,1,0-1.58l.81-.54c-.75-.33-1.65,0-2-.8-.61.1-.95-.14-1-.79a3.43,3.43,0,0,0-1-.06,2.7,2.7,0,0,0-.73.42l.43.64-3.15.48c-1.09.27-1.33.17-1.8-.73l.43-.68a5.71,5.71,0,0,0-.38-.54A19.7,19.7,0,0,1,85.19,0L82,.51l-.33.05a3,3,0,0,1-2,.38l-.5.21-1.56.13-2.81.46a1.78,1.78,0,0,1,.9-1.09c-5.06-.09-9.88.78-15,1.51a31,31,0,0,1-8.39.44.73.73,0,0,1-.37.21c-2,.34-4,.67-6.05.95-.48.07-1.09.16-1.15-.62A13.23,13.23,0,0,0,46,2c.52-.57.38-.82-.58-1.19A3.87,3.87,0,0,1,43,.49a1.36,1.36,0,0,0-.29.06c-1.18.85-1.41.85-2.42,0h-.92l-.43,1a2.14,2.14,0,0,1-1.77.32c-.52-.13-.94-.6-1.57-.36-.2.07-.51-.18-.77-.29a.31.31,0,0,1-.28,0,2.66,2.66,0,0,1-1.68,1A35.79,35.79,0,0,1,27,3.29a14.21,14.21,0,0,1-5.2,1l-1,.26L19,4.93l-3,.4-1.36,1A1.51,1.51,0,0,0,16,7a2.85,2.85,0,0,1,2.76,0c.16-.07.32-.2.46-.18,2.16.15,4.15-.87,6.29-.82l1.7-.43,1.09-.25c.83-.62,1.79-.42,2.79-.33L30,5.6a7.12,7.12,0,0,1-3.73,1.07,14.51,14.51,0,0,0-1.61.23,3.62,3.62,0,0,0-.8.42c.11.54.14,1.06-.54,1.21a6,6,0,0,1-3.15.22c0,.08-.07.16-.1.25l-1.67.38-2,.41c.09.1.17.21.25.31l1.4.67,1.46.33a1,1,0,0,1-.78,1.05c-.8.59-1.4,0-2-.35,0,.23,0,.45,0,.67-.28.3-.57.56-1,.34l-.33,0a3.4,3.4,0,0,1-2.75,1c-.72,0-1.45,0-1.68.95.31.28.63.45,1,.11a13.62,13.62,0,0,1,1.73-.6,1.14,1.14,0,0,1,1.44.52c0,.49-.21.89-.74,1-1.15.16-2.3.29-3.45.44l-.67.37v1l1.34,0,1.11-.31c-.07.55-.12,1-.19,1.47-.71.09-1.37.19-2,.24-.42,0-.56-.29-.61-.65l-.37-.14,0,.05-.33.7c.1,1.07.1,1.08-1,1.41l.33.64c.77.26.77.26.35.69-.12.22-.23.45-.35.68l1.59.47c.27.49.16.84-.34.93-.78.13-1.57.18-2.35.26L6.77,24l-.35.45.69,1.1-.17.25c-.33-.1-.76-.11-1-.33s-.4-.68-.89-.65l-2.81.29h0c.07.47,0,.85-.54,1S1,25.67.59,25.42l-.14,0c-.15.38-.31.76-.45,1.14.56.92,1.32,1.82,1.71,2.45a13.41,13.41,0,0,1,1.7,3.88l.6.15c0,.27,0,.59.08.9L6,34.84,4,35.36l-.27.1,0,.95,0,.13c.8.67,1.59,1.34,2.42,2l.09.07.91-.13.27,0,2.51.05.88,0a2.49,2.49,0,0,1,.67,0,2.43,2.43,0,0,1,.52.36,6.51,6.51,0,0,1-.54.51h-.09a8,8,0,0,1,2.07,1.29l.19-.13a.84.84,0,0,1,1.1-.32c-.07.44-.12.86-.18,1.28l0,.37a12.59,12.59,0,0,1,2,4c.25-.12.51-.28.72-.23a1.21,1.21,0,0,1,.64.69,3.48,3.48,0,0,1,.16,1l.26.11,1.43-.08h1.33v1l.06.38a4.8,4.8,0,0,1,.13,1c0,.16-.24.32-.37.48a4.47,4.47,0,0,1-.44-.43c-.06-.07,0-.21-.06-.32a.93.93,0,0,1-1-1.07.88.88,0,0,0-1.05-.67l-.7.65a.23.23,0,0,1-.22.1l.85,1c.45.25.78.5.25,1-.13.12-.11.4-.16.6.57.28.56.69.27,1.16l1.91,1.11-1.17.53.33,1.37,0,0c.74,0,1.48.07,2.21,0a2.58,2.58,0,0,1,1.87.68c.43-.3.81-.34,1.11.17-.73.73-.73.73-1.48.22l-.6,0c0,.26.13.69,0,.77-.95.63-1.87,1.46-3.17.89h-.24c.35,1.29.71,2.58,1.06,3.87l.58-.16c.2-.85.2-.85,1.36-.71l.35-.89c.93.4,1,.43.55.91a2.16,2.16,0,0,1-.55.35c-.09.6-.52.67-1,.65-.36.19-.72.39-1.08.56.23.87.45,1.73.68,2.59h.32l.73.24a2.45,2.45,0,0,1,0-.27,1.88,1.88,0,0,1,2.14-.06c.09.71-.42.83-.78,1.06l.34.35a1,1,0,0,1,.66,1.08c-.08,1-.2,2-.31,3,.1.7.21,1.4.31,2.1a.77.77,0,0,0,.07.27,10.26,10.26,0,0,1,1.64-.38c.25,0,.52.24.8.38-.58.85-1.42.5-2.07.73,0,.11-.06.21-.1.32s0,.22,0,.34A.9.9,0,0,1,26,75.4a5.29,5.29,0,0,0,.08,1l.65-.55c.15.75.26,1.3.38,1.92h-1c-.13.6-.14,1.11.61,1.42a3.53,3.53,0,0,1,.85.71,2.28,2.28,0,0,1,0,.26,1.6,1.6,0,0,1,2.21.84c.11.23.39.36.6.54l.66.22c.92,0,.92,0,1.11,1l.37-.19c.2-1.08.3-1.2,1.1-1.3.38-.05.77-.05,1.15-.07l1.07-.06c.52-.14,1-.47,1.7,0l-.67,1.24c.48.47,1.33.58,1.44,1.42l.86-.63,1,.87-1.58,1.17.37.37,1.71,0,1.87,0,3.26-.33.33,0,4.38-.37,2.07-.39a1.89,1.89,0,0,1,2.47.75l1.33-.33c.34-.82,1.07-.65,1.72-.7a3.44,3.44,0,0,1,1.1-.58c.52-.06.83.26.63.84l.63.36.67-.31.38-.67a1.35,1.35,0,0,1,2-.17,4.65,4.65,0,0,0,1.05.51l.75.71,3.39-.31a9.1,9.1,0,0,1,1.12-.2c.32,0,.7,0,.54.55.5.29.91.63.68,1.3l.67-.06c1.09-.14,2.18-.3,3.28-.46l.92-.77a.48.48,0,0,0,.22-.12,4.42,4.42,0,0,1-.22-.79c-.09-.8.17-1.22.94-1.22a10.82,10.82,0,0,1,2.06.39l1-.1a1.23,1.23,0,0,1,0-.27,12.47,12.47,0,0,1,.55-1.17c.33-.56.59-.31.79.12l1,0c.09-.13.19-.25.29-.37.13.14.33.26.36.42a6.5,6.5,0,0,1,.07,1l1.31-1a.59.59,0,0,0,0-.32c-.07-.26-.13-.52-.23-.88,1.38-.42,2.61-1.2,4.06-.5a2.88,2.88,0,0,1,2-.7l.41,0c.49-.09,1-.17,1.47-.28a.94.94,0,0,1,1.23.6.69.69,0,0,1,.32,0L95,79.44c.08-.18.16-.53.23-.53.92,0,1.88-.28,2.77.2.51-.67,1.08-.18,1.63-.1.18-.58.66-.49,1.09-.51a18.32,18.32,0,0,1,1.93-.39,20,20,0,0,1,2.19,0l3.71-.21a1,1,0,0,1,1.3-.45,4,4,0,0,0,1.1,0c.09-.14.17-.39.26-.39.69,0,1.39,0,2.09,0a.86.86,0,0,1,.1-.32c.07-.81.68-.92,1.29-1l2.12-.31.91.22c.29-.61.44-.7,1.16-.47a2.32,2.32,0,0,1,.31-.19c.08-.25.3-.3.58-.26a3.65,3.65,0,0,1,1.18-.18h.1l4-1.19c.06-.07.12-.16.19-.23a1.32,1.32,0,0,0-1.19-1.2c-.32-.22-.35-.45,0-.58s1.08-.28,1.62-.42L123.61,69c-1.09-1.35-2.59-1.23-4.07-1.15l-1.38.07-1.36-.18c-.27-.78.17-1,.61-1.3l0,0c.57-.61,1.36-.51,2.08-.65l.89-.43.44-.59-1.22-1.1,2-.63-1.83-1.69-1.61-1.09-1.4-.42A2.22,2.22,0,0,1,118.58,59.34Z"/></g></g></svg>