<svg xmlns="http://www.w3.org/2000/svg" viewBox="0 0 152.15 54.14"><defs><style>.cls-1{fill:#a6b4bf;}</style></defs><title>BR10</title><g id="Layer_2" data-name="Layer 2"><g id="Layer_1-2" data-name="Layer 1"><path class="cls-1" d="M151.74,5.34c-.27,0-.36,0-.23-.09.38-.29-3.9-1.43-7.5-2-5-.78-6.94-.95-19.65-1.8L113,.7c-1-.08-1.26,0-1.17.14s0,.24-.19.23a.25.25,0,0,1-.25-.28c0-.17-.12-.23-.5-.19s-1.81,0-3.34-.12a25.31,25.31,0,0,0-3.52,0,5.19,5.19,0,0,1-1,.08c-.12,0-.2.19-.18.46s-.06.45-.2.39-.17-.17-.06-.25,0-.15-.13-.16-.13-.15.22-.41l.54-.39-1.06,0c-1.3.06-1.55.12-1.38.33s0,.15-.09.13-.4,0-.63-.05-.34,0-.12.13-.5.09-1.51,0C96.56.59,95.72.6,95.68.79a4.64,4.64,0,0,0,1.4.22c.79.05,2.48.22,3.77.37,2,.23,2.37.24,2.54,0a.87.87,0,0,1,.64-.21c.29,0,.4-.06.33-.23-.15-.36.25-.28.56.12s.22.33-.11.23-.4,0-.43.14.17.33.75.16a.35.35,0,0,0,.28-.46c-.09-.25.06-.39.55-.51s.64-.14.16.13-.28.7.65.78c.12,0,0,.07-.23.14s-.32.14.17.18c.71.05.73.18.08.58-.41.25-.51.26-.69,0s-.22-.22-.27,0-.15.27-.25.23l-.92-.35c-.47-.19-.8-.23-.94-.14a29,29,0,0,1-4.43-.15C94.37,1.77,93,1.75,93.16,2s-.16.05-.52-.13-.68-.28-.7-.2-1.83.12-5.7-.13a13,13,0,0,0-2.54,0c0,.06-.23.1-.49.08a18.9,18.9,0,0,0-3.66,0,13.45,13.45,0,0,1-3.73-.24,2.47,2.47,0,0,0-1.7,0,4.26,4.26,0,0,1-1.4.13,45.55,45.55,0,0,0-6,0,23.26,23.26,0,0,1-3.31,0c-2.94-.13-4.51-.16-7-.14l-2.07,0c-.45,0-2.11,0-3.7-.09S47,1.2,46,1.19c-2.2,0-2.75-.08-3.08-.4S42.28.56,41.18.57c-1.35,0-1.46,0-1.29-.27S40,0,39.83,0a.33.33,0,0,0-.31.29c-.07.41-1.43.44-1.89.05-.28-.24-.3-.24-.15,0s.1.22-.25,0-.44-.2-.46-.08-.44.16-.93.13A3.61,3.61,0,0,0,34.58.5c-.28.14-.35.13-.32,0s-.12-.17-.68,0a4.1,4.1,0,0,1-1,.19,1.67,1.67,0,0,0-.75.24c-.41.25-.42.25-.19,0s.13-.29-.14-.25c-.56.07-.66.36-.23.69s.32.34,0,.52-.42.19-.59-.05a.43.43,0,0,0-.77.09c0,.11.18.37.45.59s.36.39.18.38-.26.08-.2.23-.13.58-.42,1-.46.81-.3,1c.34.31,0,1.16-.43,1.07s-.4.07-.45.54c0,.07.25.12.59.11.53,0,.55,0,.18.23s-.35.27.13.37c.32.08.48.21.37.34a.66.66,0,0,1-.62.07c-.35-.11-.35,0,0,.27s.36.43.14.5a.77.77,0,0,0-.4.58c-.08.47-.06.48.26.15a1,1,0,0,1,.58-.33c.24,0-.08.46-.53.73-.19.12-.1.22.28.31s.53.22.5.32.09.12.35,0c.59-.23.76,0,.37.44-.26.3-.25.48,0,.7s.25.37,0,.56-.27.34-.2.42,0,.2-.17.25c-.61.17-.31.38.48.34.53,0,.84,0,.81.14-.06.27.83.91,1.3.94a2.27,2.27,0,0,0,.86-.2,1,1,0,0,1,1,0c.42.17.61.18.71,0,.25-.32.88-.14.66.19s-.07.32.24.35.42.13.4.24.06.23,3.12.18a12.67,12.67,0,0,1,2.36.15c.58.14.74.12.9-.13.26-.42.92-.33,1.66.22s.73.62.23.59a1.13,1.13,0,0,0-1.27.69c-.13.47-.11.48.64.38.44-.06.81-.18.83-.27s.36-.12.77-.06c.57.08.77,0,.9-.21.24-.47.74-.55,1.4-.22a1.35,1.35,0,0,0,.92.17,4.32,4.32,0,0,1,2.29,0,1.14,1.14,0,0,0,.75.12l1.16-.12c.32,0,1.93-.09,3.62-.14s3.39-.11,3.82-.15c.59-.05.76,0,.73.19s-.4.26-.95.29c-1.49.07-2.43.26-2.34.47s-.17.27-.5.37c-.5.15-.58.13-.54-.11s0-.29-.38,0a1.57,1.57,0,0,1-.7.24c-.16,0-.26.15-.23.36s0,.31-.15.14-2-.25-1.83.08-.73.36-1.79.3a3.91,3.91,0,0,0-1.28.22,14.32,14.32,0,0,1-2.46.44,6.37,6.37,0,0,0-1.78.32c0,.18.44.2.67,0a1.05,1.05,0,0,1,.68,0,1,1,0,0,0,.68,0c.21-.16,1.57,0,1.53.23A11.66,11.66,0,0,1,47,20.71c-1.2.09-1.58.31-1.06.61.24.14.28.24.1.23a1.58,1.58,0,0,1-.7-.31c-.34-.25-.41-.26-.6,0s-.29.21-.55.05-.62-.15-1.58.05a9,9,0,0,1-1.7.24,1.26,1.26,0,0,0-.64.12,1.36,1.36,0,0,1-.75.12c-.33,0-.48,0-.38.16s0,.14-.13.06a1.67,1.67,0,0,0-1.77.47c-.29.3-.52.41-.56.28s.09-.28.31-.35c.71-.23-1.43-.06-2.72.21-.76.16-1.17.34-1.1.49s-.1.22-.36.2-.36-.09-.25-.18.14-.15.07-.16-2.14.35-4.32.79a63.74,63.74,0,0,1-10.43.43c-3-.1-3.83-.08-4.2.09s-.83.2-.6-.07S13,24,11.87,23.93c-.78,0-1.26-.09-1.06-.15s.28-.13.1-.21-.72.12-.54.35a2.33,2.33,0,0,0,1.08.24c.52,0,.92.14.9.24s-.14.12-.26.06a.42.42,0,0,0-.44.14c-.28.33.37.71,1.56.93.79.15.85.19.42.34s-.41.23-.3.32-.26-.1-.81-.4c-.95-.53-1-.54-.89-.17.06.2,0,.32-.14.26s-.28.38,0,.68c.09.11,0,.32-.27.48s-.36.35-.19.51.16.23-.08.21-.32.07-.32.18a1.9,1.9,0,0,1-.07.45c-.07.21-.09.21-.29,0s-.32-.14-.74.3a2.22,2.22,0,0,1-1,.63c-.48.08-.7.56-.27.59.16,0,.28.09.26.16s-.33.1-.69.05c-.76-.11-.85,0-.38.48.31.3.34.31.24.05s0-.29.16-.28.3.25.33.52.19.48.53.43.41,0,.21.31-.1.44.68.73.88.38.57.65-.29.29.42.18c.89-.14,1.29,0,.53.24-.34.09-.49.24-.42.45.13.4-.16.39-.74,0-.42-.29-.45-.28-.52.12a.51.51,0,0,0,.17.55c.14.07.17.19.06.27a.48.48,0,0,1-.53-.06c-.49-.31-.83-.13-.44.22a1.24,1.24,0,0,0,.82.25c.51,0,.7.17.26.28-.12,0,0,0,.17,0a3.76,3.76,0,0,1,1.1.22c.64.22.68.29.38.66s-1.32.7-3.33,1c-.48.08-.71.16-.5.19s.27.1.16.19,0,.16.15.18.09.13-.31.29-.63.4-.61.6-.06.31-.51.2a1.24,1.24,0,0,0-1,.15c-.33.21-.49.23-.7.07A.94.94,0,0,0,4,39.19a2.62,2.62,0,0,1-1,0c-.35-.08-.45,0-.37.15s0,.21-.18.12-.32,0-.36.21.07.31.23.27a1,1,0,0,1,.57,0c.19.09.18.16,0,.22s-.19.29.1.71.35.64,0,.69c-.61.1-.57.38,0,.33a1,1,0,0,1,.68.14c.08.12,0,.18-.3.16s-.38.05-.31.14,0,.2-.18.25-.27,0-.24-.18-.09-.23-.26-.18-.25.14-.17.19-.08.16-.36.26-.41.18.22.32c.91.2.89.51,0,.35s-1.47,0-1,.2c.19.09.25.2.14.25a.82.82,0,0,1-.63-.16c-.23-.14-.15.06.19.45.68.78.76,1.48.13,1.08-.29-.17-.39-.19-.42,0s.14.25.36.32c.54.17.36.76-.2.66a.73.73,0,0,0-.57.1c-.1.12.16.18.82.17,1,0,1,0,.74.49s.11.69.54.36c.13-.1.34-.06.62.13a.84.84,0,0,0,.62.19c.12-.06.19,0,.17.09a.29.29,0,0,1-.31.17c-.15,0-.28.06-.3.15s1.16.11,1.34-.09a.8.8,0,0,1,.53-.11c.8.06.11.42-1.13.6-1.41.21-1.81.5-1,.69.42.1.47.18.21.33s-.27.28-.18.39.27.12.52,0a2.63,2.63,0,0,1,1.19-.2c1.41,0,1.54.09,1.29.42s-.06.45.26.69c.63.45.95.49,1.21.11.11-.15.13-.09.06.14a.48.48,0,0,1-.59.35c-.26,0-.46,0-.46.06,0,.35-.19.51-.59.48s-.4.06-.32.24a1,1,0,0,1,.07.54c-.05.23,0,.24.27,0s.34-.2.55,0,.22.18.15-.1a.36.36,0,0,1,.22-.45c.16,0,.28,0,.25.18s.1.25.59.19.56,0,.26.13-.15.22.86.32c1.21.12,1.22.12,1.2-.37s.06-.48.39-.42a.36.36,0,0,1,.31.5c-.05.24,0,.44.05.44.61,0,.81.12.63.37s-.13.22.11.06a.61.61,0,0,1,.56-.08c.37.17.73-.13.5-.41a.69.69,0,0,1-.16-.33c0-.07-.07-.12-.2-.13-.32,0-.93-.52-.88-.74s.1-.16.39,0a1.55,1.55,0,0,0,.88.16c.45-.06.53,0,.45.41-.13.7.31,1,1.44,1,.52,0,.92,0,.88.11a.63.63,0,0,0,.08.41c.13.24.29.22,1.21-.21,1.18-.54,1.58-.59,1.5-.17,0,.24,0,.25.26.06a1.07,1.07,0,0,1,.51-.23A2.55,2.55,0,0,0,20.34,53c.31-.42.81-.22.9.35.06.4.12.44.33.23a.91.91,0,0,1,.65-.24.39.39,0,0,0,.43-.27c0-.24,0-.25-.26-.06s-.3.16-.27,0,.9-.39,1.11-.13a.41.41,0,0,1,0,.48c-.11.13-.1.2,0,.15a.67.67,0,0,0,.33-.31c.15-.32.87-.84.84-.6s.08.18.23.14.29,0,.32.1a1.94,1.94,0,0,0,1,.33,4.64,4.64,0,0,1,1.22.33.45.45,0,0,0,.53,0c.13-.11,0-.29-.18-.42s-.36-.24,0-.3a.64.64,0,0,1,.55.1c.21.26.92.25,1,0s.19-.19.44-.12.41,0,.43-.06.18-.13.55,0,.52.16.61-.29.15-.45.42-.27.3.3.28.4c-.12.57,0,.72.38.66.25,0,.41-.18.36-.3s.07-.21.3-.2a.42.42,0,0,0,.46-.26c0-.21.1-.23.24,0s2.5.26,3.33-.1,1.59-.18,1.08.26-.46.47.4.53c.49,0,.76.13.73.28a.17.17,0,0,1-.24.14c-.12-.06-.22,0-.24.08s.24.18.58.17.64-.13.68-.33.27-.33.82-.33.78-.06.79-.14.24-.13.5-.11a7.15,7.15,0,0,0,1.11,0c.48-.06.63,0,.59.19s.17.33,1.17.19a11.48,11.48,0,0,1,1.72-.08c1,0,1.59-.25,1.41-.69-.1-.25.73-.62,1.33-.58a.31.31,0,0,1,.3.36c-.1.5.73.4,1.56-.19.39-.27.75-.45.82-.4a2.16,2.16,0,0,0,.87,0c.49-.07.74,0,.72,0s-.23.15-.49.13-.39,0-.3.08a2.6,2.6,0,0,0,1,0c1-.14,2.28.23,2,.57-.1.12,0,.18.12.13s.27,0,.24.18.09.22.24.18.24-.15.17-.25c-.21-.27.68-.69,1.38-.64.54,0,.68,0,.7-.36l0-.41.24.39c.24.41,1.08.6.91.21-.08-.17,0-.22.35-.18a1.9,1.9,0,0,0,.83-.07c.42-.16.91.07.76.36a.19.19,0,0,0,.15.28c.15,0,.38-.15.51-.41.25-.48.33-.43.59.37.14.42.65.33.73-.12s.17-.39.78-.28a2.78,2.78,0,0,0,1.46-.16,2.5,2.5,0,0,1,1.34-.15c.38.09.65,0,.78-.1a1.07,1.07,0,0,1,.76-.19c.31,0,.57,0,.59-.15s.2-.13.42-.06a3.24,3.24,0,0,0,1.09,0c.43-.06.75,0,.83.07s1.18.27,1.22.05.15-.11.41,0,.35.19.26,0,.06-.26.79-.23.82,0,.39-.13-.43-.17,0-.15a.94.94,0,0,1,.65.27c.13.17.43.22,1.14.18s1,0,1.23.39.26.37.26.11,1.28-.46,1.71-.07,1.19.27,1,0c-.08-.1.14-.11.51,0a1.46,1.46,0,0,0,1-.09,1.67,1.67,0,0,1,.71-.2c.2,0,.16.07-.09.14s-.3.16-.14.23a.5.5,0,0,0,.48,0,.42.42,0,0,1,.5,0c.27.17.37-.05.36-.79a5.25,5.25,0,0,0-1.51-.21A9.41,9.41,0,0,1,81,50.33c-.49-.68-.6-.91-.47-1s.23,0,.29.19c.16.37,1.14.42,1.65.1.33-.22.45-.22.71,0s.24.22,0,.12-.33-.07-.35,0,.2.18.51.2c.6,0,.71-.12.29-.43s-.21-.23,1-.35c.47,0,1.05.31,1,.61,0,.09-.16.16-.3.15s-.26-.09-.24-.18-.16-.14-.41-.1c-.43.07-.66.36-.27.35.55,0,.72.09.33.2s-.36.19-.25.28a.46.46,0,0,0,.48-.1,1.52,1.52,0,0,1,1.89.44,1.72,1.72,0,0,1,.19.75c-.05.48.73.71,1.64.5l.77-.18-.85-.17c-.45-.1-.83-.24-.82-.3s1.15-.25,2-.09.77.13.55-.21.19-.69.46-.35.65.27.7,0,.22-.24.45-.22.42-.09.45-.23.16-.21.34-.12.06.23-.42.42l-.71.28.66-.08c.56-.07.62,0,.42.24s-.11.38,0,.44.28.05.3-.06.34-.14.9,0c.84.15.84.15.17-.06-1-.31-.59-.63.56-.47.69.09.93.06,1-.13a.37.37,0,0,0-.22-.38c-.37-.18.05-.4.5-.27.2.07.26.2.14.29s-.13.14.21,0a3.94,3.94,0,0,1,1.12-.17,2.44,2.44,0,0,0,.86-.12c.3-.19,1.08.13,1,.39s0,.29.25.35.34,0,.26-.17,0-.27.11-.26a.35.35,0,0,1,.3.17c0,.09.29.19.6.24a1.74,1.74,0,0,1,.71.27c.09.1.22,0,.27-.31.08-.44.18-.48.87-.44.52,0,.72.12.61.26s0,.21.14.22.32,0,.34-.13.37-.25.79-.38.66-.15.54,0c-.33.25.85.27,1.37,0a2.27,2.27,0,0,1,1-.19,1.74,1.74,0,0,0,.82-.16c.26-.15-.17-.22-2-.33s-2.27-.19-2.24-.35.23-.24.74-.16a.66.66,0,0,0,.42-.17c.2-.15.33-.14.66.06a.67.67,0,0,0,.62.12,2.47,2.47,0,0,1,1-.12,2.23,2.23,0,0,0,1.06-.17c.4-.3.14-.35-.81-.14-.8.17-.9.16-1.13-.11s-.23-.26-.14,0-.14.31-1.33-.08c-.37-.12-.45-.11-.31.07s.08.18-.09.1-.16-.29,0-.47.11-.33-.4-.28c-.72.06-1-.19-.39-.3s1.83,0,1.64.16.07.19.35.25a1.09,1.09,0,0,0,.71,0,7.91,7.91,0,0,1,2.82.3c.23.11.41-.09.39-.43s.48-.11.58.12.11.17.16,0,.62-.22.57.07.37.37.67.14a1.6,1.6,0,0,1,.79-.11c.34,0,.48,0,.31-.11s-.25-.74.06-.59c.12.06.12.18,0,.26s0,.14.43.09.56,0,.41.09,0,.22.21.29.36.16,0,.24-.31.16-.22.23c.26.2,1.13-.19,1-.45s0-.22.19-.21.22-.06.15-.15.21-.25.62-.33c.69-.13.81-.11,1.19.25a1.78,1.78,0,0,0,.9.43c.45,0,.45,0,0-.25s-.44-.27.5-.21,3,.72,2.64.89c-.11.06-.06.11.12.12s.34-.05.36-.14.21-.15.44-.14.4.14.37.28.07.22.22.17a.44.44,0,0,1,.42.13c.1.14,0,.16-.13.07s-.3-.07-.32,0c0,.24.68.4,1.36.3s1.88.08,1.83.31-.27.26-.55.36c-.45.16-.46.19-.08.22a1.8,1.8,0,0,0,1-.31q.51-.34.3-.06c-.13.16-.06.29.15.31a12.77,12.77,0,0,1,3.12.59c.29.18.33.14.22-.19s-.07-.4.48-.27a2.08,2.08,0,0,0,1,0c.29-.12.38-.11.35,0s.44.25,1.12-.1c.51-.26.68-.28.84-.09s.25.19.52,0,.4-.24.72,0a1.87,1.87,0,0,0,1.92-.15c.14-.23.06-.29-.34-.26-.64.05-.63-.11,0-.42.43-.21.52-.21.74,0s1.7.51,1.81.32.13-.37.23-.7c.26-.91.56-1.17,1-.89.21.13.4.19.42.13l.14-.25a2.4,2.4,0,0,0,.18-.42c0-.14.5-.33,1-.42l.92-.18-.87-.06a2.51,2.51,0,0,0-1.06.1c-.13.1-.37.08-.69-.06-.61-.25-.58-.53,0-.49s1.67-.65,1.52-1,0-.22.23-.06.71.14.76-.14c0-.08-.1-.1-.26-.06s-.28,0-.25-.16-.13-.29-.35-.36-.41,0-.44.08-.11.11-.25-.05-.1-.29.09-.35.16-.14-.09-.21a.57.57,0,0,0-.58.11.66.66,0,0,1-.5.21c-.17,0-.23-.13-.13-.25s.11-.28,0-.34c-.28-.21-.18-.92.12-.9s.08-.14-.2-.35-.46-.5-.42-.69,0-.33-.19-.34a5.38,5.38,0,0,1-1.16-.5,2.91,2.91,0,0,0-1.2-.4,2.12,2.12,0,0,1-1-.21c-.66-.27-.66-.28-.06-.35.34,0,.63-.15.65-.26s.19,0,.4.16.37.34.29-.1,0-.46.29-.44a1.76,1.76,0,0,0,.79-.21c.34-.19.35-.25,0-.39s-.2-.2.35-.29c.38-.06.55-.13.37-.15s-.32-.13-.3-.26-.49-.46-1.37-.52c-.44,0-.48-.08-.19-.21a.87.87,0,0,0,.43-.47c0-.2.27-.28.79-.25s.63,0,.49-.09a.54.54,0,0,1-.21-.48c0-.27.16-.33.53-.24s.48.19.47.3.13,0,.31-.19a.79.79,0,0,0-.07-1.17,1,1,0,0,1-.29-.52c-.06-.22,0-.33.08-.23.33.34,1.1.49,1.15.24a.37.37,0,0,0-.22-.36c-.15-.06-.2-.17-.12-.23a2.15,2.15,0,0,1,1.45.15.73.73,0,0,0,.52.07c.11,0,.05-.1-.13-.11a.83.83,0,0,1-.53-.5c-.17-.4-.25-.43-.57-.22-.52.33-1,.13-.94-.37s-.19-.43-.4,0a.51.51,0,0,1-.57.21c-.23,0-.45,0-.47.11s-.19.07-.4-.09c-.39-.29-.46-.55-.11-.38s.67-.26.45-.48,0,0,.24.16c.47.38.81.44.68.11-.06-.13.05-.26.22-.28.48-.07-.66-.84-1.63-1.11s-1.48-.55-1.25-.72.05-.14-.11-.15-.3.05-.31.13-.18.11-.38.05c-.42-.12-.4-.61,0-.77.21-.08.15-.1-.14-.06s-.47,0-.46-.11-.07-.14-.2-.1-.33-.16-.45-.45c-.19-.44-.17-.48.13-.29s.36.17.38,0-.18-.27-.47-.4-.5-.29-.48-.4.12-.11.25.06a.4.4,0,0,0,.41.17c.1,0-.12-.25-.47-.44s-1-.54-1.37-.78c-.77-.47-1-.53-1.05-.27,0,.09.17.23.42.31a4,4,0,0,1,1,.52c.51.36.51.38,0,.35-.29,0-.51-.1-.49-.18s-.1-.1-.27-.06-.2,0-.09-.15.05-.25-.21-.27a1,1,0,0,1-.63-.33c-.2-.28-.27-.28-.78,0a1.56,1.56,0,0,1-1,.2c-.26-.07-.23,0,.08.17s.45.28,0,.36a11.43,11.43,0,0,1-2.14-.21l-2.53-.43q-.89-.15-.75,0c.22.28-.44.16-.86-.15-.2-.16-.32-.29-.26-.3l1-.25c1.19-.3,1.39-.28,2,.2s.46.38.38,0-.42-.42-1-.56-.74-.22-.47-.21.44-.06.37-.15-.38-.14-.79-.07-.65,0-.58-.17-.14-.29-.53-.33c-.57-.06-.57-.06,0,0s.5.13-.24.3-1.87.19-1.34,0a1,1,0,0,0,.44-.62c.14-.43.08-.53-.35-.56s-.54-.16-.56-.31-.15-.22-.75,0c-.86.35-1,.36-1.38.06s-.3-.48.32-.44c.31,0,.53.12.51.23s0,.16.34,0,.3-.21,0-.35-.26-.27-.15-.41.1-.25,0-.26-.28.12-.32.31c-.09.46-.41.36-.86-.26l-.4-.56.81-.31c.45-.17.73-.4.64-.51a.81.81,0,0,0-1.07,0c-.27.32-1.28,0-1.21-.33a.32.32,0,0,1,.62-.09c.05.14.23.15.68,0a1,1,0,0,1,1,.07c.21.13.41.19.42.12s-.15-.22-.39-.36-.33-.33-.19-.5.26-.24.58,0a1.4,1.4,0,0,1,.44.7.43.43,0,0,0,.5.37c.21,0,.42-.13.43-.22s-.11-.11-.27-.07c-.51.15.2-1.1.74-1.3s.43-.19,0-.21c-.57,0-.8-.32-.48-.57a2,2,0,0,0,.64-1c.11-.29.19-.31.48-.13s.34.16.26-.19a.6.6,0,0,1,.24-.61c.22-.13.26-.35.12-.72a1.8,1.8,0,0,1-.12-.87c.07-.34.07-.34.25,0s.33.05.11-.48c-.15-.36-.1-.43.37-.49.29,0,.57-.19.6-.34s0-.23-.22-.07-.29.17-.4,0-.18-.18-.32-.06c-.36.35-1,0-.73-.45.11-.23.28-.59.35-.77.19-.45,1.11-.9,1.24-.6.07.14.12.13.17,0,.08-.34.86-.53,2.7-.64a5.82,5.82,0,0,0,1.62-.23c0-.07.25-.08.5,0s.52,0,.62-.33a1.08,1.08,0,0,1,.45-.58c.22-.1.24-.06.07.13-.3.36-.19.36,1.38,0a14.15,14.15,0,0,1,2.5-.32c1.92,0,3-.1,3-.25s.47-.16,1-.18a2,2,0,0,0,1-.19c0-.09.14-.1.28,0s.28,0,.32-.21.34-.4.67-.48.52-.09.43,0,.17.15.61.18c.81.06,1.09-.08.52-.25-.25-.07-.24-.14.06-.29s.36-.14.34,0,.08.2.23.21a.28.28,0,0,0,.31-.18,8,8,0,0,1,2.6-.68c.48,0,.89-.27.94-.54s.24-.3.56-.28c.8,0,1.87-.47,1.78-.87s0-.32.56-.19c.4.09.65.07.68,0s.14-.14.29-.07a.2.2,0,0,0,.3-.15C152.18,5.35,152.05,5.29,151.74,5.34Z"/></g></g></svg>