<svg xmlns="http://www.w3.org/2000/svg" viewBox="0 0 172.87 58.66"><defs><style>.cls-1{fill:#a6b4bf;}</style></defs><title>BR14</title><g id="Layer_2" data-name="Layer 2"><g id="Layer_1-2" data-name="Layer 1"><path class="cls-1" d="M71.58,2.13c.1-.55.56-.65.8-.31s.74.19.93.55a.28.28,0,0,1,0,.28c-.12.14-.29.25-.34.43.45.12.75-.65,1.24-.21s1.06.84,1.68.14a.7.7,0,0,1,.57-.37,6.59,6.59,0,0,0,4-1.22A5.5,5.5,0,0,1,82.9.93a2.41,2.41,0,0,1,1.6.25c.16.17.33.33.5.5.2.32-.45.55-.2.69.78.43.22-.44.47-.56s.57,0,.84-.12a1,1,0,0,1,.34.07.73.73,0,0,1,.26.92,9.83,9.83,0,0,0,.13,1.09c0-.3,0-.6,0-.89a.7.7,0,0,1,.49-.6.8.8,0,0,1,.31,0,2.78,2.78,0,0,0,.91,0,.78.78,0,0,1,.69.39,1.07,1.07,0,0,1,0,.66c0,.22-.26.49-.11.61s.2-.21.32-.32a.9.9,0,0,1,.26-.17,1.75,1.75,0,0,1,.6,0,.41.41,0,0,0,.34-.22A.35.35,0,0,1,90.93,3a1,1,0,0,1,.78.38c.18.18.45.25.58.49-.12,1.26-.12,1.26,1.33,1.72l.28.63c.15.24,0,.7.56.63.73-.06,1.06,1.08,1.9.65-.11-.11-.18,0-.28,0-1.24-.21-.82-.87-.41-1.52.25-.21.62,0,.86-.25h0c.36-.27.84.06,1.2-.24l.06-.05,0-.07c.38-.29.76.39,1.13,0a7.1,7.1,0,0,0,1-.32l.26-.27c.45-.36.83-.21,1.18.17s.39,0,.54-.08l0,0-.07,0a.36.36,0,0,1-.23,0c-.28-.16-.51-.35-.38-.72.31-.38.66.1,1,0a6.27,6.27,0,0,1,3.34-1.38c.39,0,.78,0,1-.34s.81-.15,1.14-.43c.28-.51.8-.35,1.24-.46,1.65-.43,3.28-.95,4.94-1.37a2.43,2.43,0,0,1,2,.66c.33.41-.21,1.27.71,1.38a1.49,1.49,0,0,1,.3.09c.37,0,.18.62.61.58.57.13.68.71,1,1.05.75,0,.38-.88.89-1a1.08,1.08,0,0,1,.3-.16c.54-.14.92-.34.33-.91s-.55-.85.33-.77l.31.26c.2.2.61.1.72.45h0c.1.6,1,.86.67,1.65a.76.76,0,0,1-.19.25,1.66,1.66,0,0,0-1,1.54c0,.56.32.18.5.19.32.19.05-.3.27-.23a1.13,1.13,0,0,1,1,.42c.42.42.68,1.17,1.51.76a.75.75,0,0,0,.62-.07c.35-.12.77-.06,1-.42l.4,0a1.23,1.23,0,0,1,.8-.1c.71,0,.78,0,.95-.57l.44,0c.37-.42.78.2,1.16,0,.08-.27.3-.21.49-.2.37.35.23.74.09,1.13a.31.31,0,0,0,.09.49,2.32,2.32,0,0,1,.49.67c-.1-.46-.68-.85-.39-1.33s.77-.52,1.17-.77c.65.14.43.67.45,1.07.05.81.44.37.75.21s.3-.68.77-.66a.66.66,0,0,1,.61.44l0,0c.22.25.09.51,0,.76s-.15.4-.23.6-.28.64-.43,1c.23-.06.2-.31.34-.42s.58-.2.83-.39c.5-.07.21-.26.05-.42a.76.76,0,0,1-.21-.6.43.43,0,0,1,.17-.28l.47,0c.43.11.54.59.9.8a.33.33,0,0,1,.17.24,1,1,0,0,0,.38.83c.42.57.6,1.06-.46,1.12a3.94,3.94,0,0,1,.92,1.1,3.19,3.19,0,0,0,.51.7c.1-.34-.16-.5-.32-.7-.49-.6-.57-1.09.38-1.25a1,1,0,0,1,.34.07c.4.19.58.59.85,1,.2-.33.45-.58.87-.48a1.38,1.38,0,0,1,.72.67.58.58,0,0,1,0,.85c-.32.57-.24,1,.5,1l.46.12c.26.1.35.43.65.5.1.12,0-.12,0-.12-.35,0-.29-.29-.27-.52a.67.67,0,0,1,.13-.3c1.13-.44,1.38.58,1.91,1.15.19.21.35.46.68.46a.56.56,0,0,1,.35.27,2.77,2.77,0,0,1,0,.95,1,1,0,0,1-.07.23c.07,0,0-.07.07-.1a1.48,1.48,0,0,0-.21-1.28c-.11-.43-.24-.91.2-1.16s.69.23,1,.46c.8.42.19-.67.65-.61a1.61,1.61,0,0,1,1.34.94c.16.48.48.24.74.28a1,1,0,0,1,.68.09,1.53,1.53,0,0,1,1,1.65c0,.71.6,1.53-.38,2.05-.1.13-.22,0-.33,0s0,.06.05.07a.41.41,0,0,0,.4-.15c.2-.07.44.15.61-.1a1.69,1.69,0,0,1,.92.09,3.44,3.44,0,0,1,2.58,0,2.7,2.7,0,0,1,1.35-.14c.34.5.67.25,1.11.1s1.21-.91,1.84-.07c0,.15.12.51.18.33.35-1.14.81-.35,1.25-.13a1.19,1.19,0,0,1,.81.64.44.44,0,0,1,0,.2c.07-.12,0-.23,0-.35a9.63,9.63,0,0,1-.08-1.08.77.77,0,0,1,.52-.61l1.15-.24c.28-.38.71-.09,1-.22l2,1.44a.89.89,0,0,1,.44.2c.24.34.62.59.67,1.06s.4.38.71.37a1,1,0,0,1,.51.13c.17.18.37.36,0,.58-.89.61-.34.87.27,1.12,0,.69,0,1.39.69,1.85a.69.69,0,0,1,.09,1c.55-.54,1.38-.76,2-1.32.45-.25.25-1.14,1-1.07.08.43.86.23.76.83.49.39.23.92.26,1.39a1.23,1.23,0,0,1-.49.71,1.09,1.09,0,0,0-.3.49c-.27.65.5,1.24.08,1.89-.26.44-.33,1.08-1,1.11-.14-.07.05,0-.09,0s0,0,0,.05c.32.21.59.44.43.88a.83.83,0,0,1-.26.19,1.32,1.32,0,0,0-1.31,1,3.65,3.65,0,0,1-.23.92,2.37,2.37,0,0,1-.63.74c-.17.15-.54.28-.39.52.7,1.09-.26,1.24-.83,1.67.39-.14.74-.59,1.22-.3s.94.41.61,1.07a1.47,1.47,0,0,0-.65,1.27,1.83,1.83,0,0,1-.89.44c-.27,0-.53.14-.8.19s-.7,0-1,.09-.2.41-.34.59c-1.24.08-1.81-.27-1.93-1.2a.85.85,0,0,1,.14-.19,1.84,1.84,0,0,1,.48-.27c-.74.11-1.25.22-1.52.78,0,.29.1.64-.27.82a9.93,9.93,0,0,1-1.22,0,2.39,2.39,0,0,1-.43-.2,2.4,2.4,0,0,0-2.54-.06,1.12,1.12,0,0,1-.47.11c-.68-.11-1.12-.45-1-1.2s.44-.9,1.21-.69c-1-.89-1-.88-1.45.1-.29.62-.67,1-1.18.17-.17-.26-.4-.21-.64-.18-1.33.11-1.53.43-1,1.59.12.26.26.49.07.77a.75.75,0,0,1-.65.1,2.14,2.14,0,0,1-1-1.28c-.28.32-.14.89-.63,1a6,6,0,0,1-1,0,.5.5,0,0,1-.28-.14,1.89,1.89,0,0,1-.5-1.14c-.06.59.58,1.15,0,1.72-.31.17-.63,0-1,0-.51-.08-.81.26-1.14.54s-1.07.25-1.37.79c-.15.24-.09.63-.5.68a3.32,3.32,0,0,1-1.13-.2.92.92,0,0,1-.28-.19c-.2-.74.5-.93.81-1.37.25-.21.53-.39.77-.61.5-.92,1.63-.28,2.24-.9-.14-.07-.24,0-.35.07-.78.32-1.65,0-2.42.4a3.17,3.17,0,0,0-.76.11,4.2,4.2,0,0,0-1.12,1.86,1,1,0,0,1-.52.38,1.44,1.44,0,0,0-1.18.57c-.3.2-.73-.13-1,.26a2.8,2.8,0,0,0-1.73,1c-.25.19-.43.47-.69.67a.64.64,0,0,1-.6,0c-.26-.17-.23-.54-.5-.71s-.43-.26-.68-.11-.36.59-.63.82c-.56.11-.47.57-.52,1a.88.88,0,0,1-.59.44c-.24-.32-.45,0-.68,0a3.7,3.7,0,0,0-.74.06c-.39,0-.77.39-1.18,0s-.53-.63-.83-.92a.53.53,0,0,0-.64-.08c.22,0,.46-.12.65.09s.46.51.09.83a1.9,1.9,0,0,0-.74.58.67.67,0,0,1-.78.12c-.14,0-.11-.66-.42-.1-.1.17-.34.15-.53,0-.55-.3.19-.83-.2-1.15,0,0,0,0,0,.06s0,.1,0,.11c-.62.52-.14.8.23,1.1,0,1.12-.4,1.48-1.87,1.66-.22-.08-.32-.29-.21-.45.31-.45-.12-.58-.3-.82s.22-.44-.06-.48-.46.26-.56.53-.13.93-.79.8c-.28-.15-.35-.57-.72-.61-.11.42.33.79.09,1.2-.48.38-.91.55-1.14-.25,0-.14,0,0,0-.11s-.47-.44-.55-.3c-.57,1-1.64-.71-2.15.42a.82.82,0,0,1-.17.47,1.61,1.61,0,0,1-.78.26,3.07,3.07,0,0,0-1.61.72,1.08,1.08,0,0,1-.29-.13c-.17,0-.51-.81-.52.12a.86.86,0,0,1-.47.74.7.7,0,0,1-.77-.21c-.15-.17-.26-.36-.39-.53-.87-.48-.83.48-1,.79s-.53.85-1.11.9-1.31.73-1.82-.2c-.3-.23,0-.89-.67-.88a2.16,2.16,0,0,1-.33.27c-.37.37.42.82-.08,1.17-.56-.1-1-.37-1.55.32-.35.46-1.21.48-1.6,1.07-.17.33-.35.19-.52,0s.24-.38-.09-.32a4.53,4.53,0,0,0-2.23,1,3.92,3.92,0,0,1-1.13-.08c-.29,0-.59-.14-.77.2a1.72,1.72,0,0,1-.8.66,4.41,4.41,0,0,0-.58.47,1.56,1.56,0,0,1-.35.33c-.18.08-.47.21-.54.09-.41-.73-1.05-.42-1.62-.41a1.62,1.62,0,0,0-.79.06h0c-.21,0-.26-.54-.6-.21-.48,0,0,.65-.44.73-.71.17-1-.69-1.7-.62-1-.12-1.78.71-2.74.82-.18,0-.34,0-.4.2-.52.48-.94-.13-1.41-.12-.29-.18-.34-.36,0-.55.52-.29,1.18-.22,1.62-.67-.45,0-.92.43-1.39,0-.63-.17-1.16-.7-1.89-.51-.21.17-.41.39-.73.22-.07-.18-.15-.36-.23-.55a1.23,1.23,0,0,0-1.33,0c-.68.51-1,.08-1.31-.4-.4-.67-.95-.44-1.42-.17s-.3.67.13.92c.59.94-.31.71-.69.89a7.19,7.19,0,0,0-2.36,1.76c-.62-.06-.24-.55-.35-.82,0-.44.29-.81.27-1.43-.1.61-.17,1-.62,1.26v0c-.44,0-.59.36-.77.67-.49.27-1.1.29-1.36,1-.2.51-.64.08-.71-.13-.47-1.38-1.22-.76-2-.31a1,1,0,0,1-.52.11c-.33-.11-.42-.39-.5-.67-.16-.92-.73-.34-1.15-.32a2.26,2.26,0,0,1-1-.24c-.18,0-.22-.59-.52-.11a4.82,4.82,0,0,0-.11.85.65.65,0,0,1-.66.32.49.49,0,0,0-.67.08.31.31,0,0,1-.32-.23c-.06-.18-.12-.35-.37-.3-.39-.18-1.05.31-1.2-.47-.11-.47-.7-.79-.44-1.37a.59.59,0,0,1,.26-.21.55.55,0,0,1,.45.07c.11.25.2.54.58.4.15,0,0,.13.07,0s0-.12-.1-.08c-.34.1-.44-.11-.48-.38s-.37-.29-.63-.29c-1.21,0-2.41-.21-3.62-.1-.44-.07-.86,0-.86.52s.63.06.81.4c-1,.74-1.11.73-1.58-.17-.12-.52-.13-1.15-1-.75a.34.34,0,0,1-.22,0,1.13,1.13,0,0,1-.87-.36c-.37-.19-.51-.79-1.09-.58a1.89,1.89,0,0,0-.48.74,2.54,2.54,0,0,1-.16.28c-.49.43-.26,1.41-1.16,1.54-.36.08-.65.36-1,.36-.65,0-1.38-.69-1.9.25-.09.09-.23.08-.31.13s-.68-.66-.44.2c-.81.77.47.83.45,1.33a.27.27,0,0,1-.44,0c-.31,0-.53-.39-.89-.28-.21-.07-.45,0-.65-.12-.41-.24-.4-.75-.67-1.07-.81.07,0,1.26-.91,1.24-.44,0-.54.41-.73.7a.29.29,0,0,1-.25.14.58.58,0,0,1-.35-.24c-.46-.25-.41.07-.4.35,0,.5-.27.74-.75.64a.89.89,0,0,1-.7-1,1.4,1.4,0,0,1-.93,1.47l0,.07.07,0c-.47.17-.31.76-.69,1a.41.41,0,0,1-.42-.12,2.06,2.06,0,0,1-.33-.62c-.16-.15-.17.06-.25.11a1.51,1.51,0,0,1-.71.51,3.13,3.13,0,0,0-1.29.5c-.28.13-.49.46-.86.27h0c-.37-.1-.75-.19-.86-.63s-.34-.63-.78-.38c-.27.25,0,.45.05.67a.44.44,0,0,1-.51.51c-.43-.1-.74-.46-1.18-.52-.73.14-1.23-.45-1.86-.61l-.64.52c-.71.64-1,0-1.35-.43a3.13,3.13,0,0,1,.07-.86,1.51,1.51,0,0,1,.21-.65,2.09,2.09,0,0,1,.87-.43c.45-.18.51-.38,0-.62-.54.27-1.07.51-1.62,0a1.61,1.61,0,0,1-.31-.38,4.56,4.56,0,0,1-.51-1,.5.5,0,0,1,.32-.53c.31-.32,1.12.92,1.12-.35-.26-.33-.69-.18-1-.37s-.45-.53-.72-.05c-.11.24-.2.5-.51.53l-.48-.22c-.43-.39-.84-.44-1.21.07h0c-.56.09-.3-.75-.81-.71-.94-.7-1.46.11-2.08.56a1.09,1.09,0,0,1-1.3-.84c-.06,0,0-.19-.11-.15s0,.17.06.27a1.45,1.45,0,0,0,.09.22c.2.43.4,1,.06,1.31a1.15,1.15,0,0,1-1.37,0l-.27,0a.46.46,0,0,1-.15-.28,5.47,5.47,0,0,1,.09-.65c-.18.48-.57.68-.73,1a1.57,1.57,0,0,1-.12.3,3.33,3.33,0,0,1-1.2,1.07c-.45.13-1,0-1.34.41-.63.27-1.22,0-1.82-.15-.28.3-.2,1.12-1,.71-.3-.21-.26-.69-.64-.83-.63-.12-1,.42-1.51.58-.71-.48-1.44.23-2.15-.06a1,1,0,0,1-.38-.64,1.71,1.71,0,0,1,0-.31c0-.39,0-.81-.39-1a1.25,1.25,0,0,0-.43,0c-.4.11-.79.25-1.19.35l-.24.08a13.17,13.17,0,0,1-1.26-.72c-.11-1.11,0-1.35,1-1.28.46,0,.95-.16,1.37.16a.55.55,0,0,0,.5,0c-.14,0-.28,0-.42,0a3.69,3.69,0,0,0-2.41-.07c-.54.14-.94.17-1-.51.42-.49.12-1.29.74-1.71-.69.27-.24,1.42-1.18,1.46a1.11,1.11,0,0,1-.93-.42l-.23-.11a1.75,1.75,0,0,1-.28-.47c-.63,0,.93-.26,0-.3-.64,0-1.33.2-1.93-.21a.68.68,0,0,1,.14-.68.88.88,0,0,1,1.25-.2c.22.15.29.12.44-.07s0-.29-.1-.44c-.69-.72-.87-.69-1.55.31-.31.23-.57.58-1,.4v0c-.14-.09-.3-.14-.39-.29a1.21,1.21,0,0,1-.11-.32,1.24,1.24,0,0,1,.14-.8c.24-.24.85-.18.66-.78.44-.7-.45-.54-.56-.89-.53.15-.6-.68-1.13-.53-.29-.17-.24-.42-.16-.67s0-.32-.23-.37-.4-.27-.62-.35c-.53.12-.84.66-1.4.69l-.08.24c-.58-.17-.89-1-.46-1.14.8-.25-.1-.59.15-.79-.09-.52-.36-.71-.87-.47a.61.61,0,0,1,.07-.61,2.91,2.91,0,0,0,.67-1.2c.16-.65,0-1.33.28-2,.2-.41-.19-.52-.55-.5a.91.91,0,0,1-1-.54,1.6,1.6,0,0,0-.23-.45.46.46,0,0,1,0-.7c-.1-.72.31-1.17.93-1.08,1,.15,1-.36.8-1a4.32,4.32,0,0,1,0-1c-.07-.13-.13-.25,0-.35-.19.07-.13.19-.06.32.08.47-.42.69-.46,1.11a.53.53,0,0,1-.42.21.66.66,0,0,1-.6-.64,1.44,1.44,0,0,0-.93-1.12.22.22,0,0,1,0-.3l.22-.27c.09-.53.47-.71.93-.8s.26-.57.29-.89a1.12,1.12,0,0,1,.1-.48,1.39,1.39,0,0,1,.71-.62c.36-.23.09-.49,0-.7-.17-.39-.24-.74.16-1l0-.1c.23-.36.69-.2,1-.42A.45.45,0,0,1,4,27.13c.54.17.6-.29.82-.55.62.17.57-.52.93-.7A3.53,3.53,0,0,0,7,25.06c.15-.18.39-.48.52-.45,1.17.31,1.72-.78,2.6-1.12a1.12,1.12,0,0,0,1.14-.36,1.89,1.89,0,0,1,1.2-.31c.58.06.52-.39.6-.74a.88.88,0,0,1,.16-.28c.22-.34.45-.58.92-.34s.56.05.5-.38.54-.41.71-.72a2.55,2.55,0,0,0,1-.87c.64-.23,1.21-.61,2-.24.39.19.93.08.56-.64-.1-.19-.28-.39-.15-.65a.4.4,0,0,0,.09-.22.35.35,0,0,1,.26-.34c.22-.27.56.73.72-.07a1.09,1.09,0,0,1,1-.9c.57.14.86-.37,1.28-.56a1.4,1.4,0,0,1,.3-.15,1.13,1.13,0,0,1,.32,0c.63.24,1.05-.33,1.59-.44.2-.09.24-.29.29-.47a.43.43,0,0,1,.34-.28c.2,0,.38,0,.39-.3a.38.38,0,0,1-.47.24c-.46-.28-1-.52-.57-1.21l.45-.59a6,6,0,0,1,1.64-.09,8.88,8.88,0,0,0,2.18.18,3.07,3.07,0,0,0,1.21-.64c.83,0,.91-.89,1.39-1.33a.67.67,0,0,1,.73.09.83.83,0,0,0,.21.06c-.05-.12-.2-.11-.27-.22,0-1.22,1.12-1.17,1.79-1.64.38-.57,1-.59,1.59-.67.48.18.59-.33.89-.49h.07c.42.16.89,0,1.3.22L38,7.41c.75-.35,1,0,.89.7.4,0,.34-.61.74-.67C40.77,7.56,42,7.06,43,8c.29.13,0,.49.27.66.66.55.92-.45,1.51-.39a3.94,3.94,0,0,0,1.38-.41c.51.12.34.46.26.78.07.81.07.81,1.2.27.69,0,.9-.75,1.5-.86a2.61,2.61,0,0,1,1.11.1c.48-.14.66-.74,1.21-.77.38-.16.82.1,1.18-.18h0c.4,0,.8.38,1.2,0h0c.2-.13.44-.21.5-.49a23.16,23.16,0,0,1,6-2.36c.19.08.46,0,.53.31,0,.1,0,0,.07,0,.41-.88,1.5-.71,2-1.36.08-.12.15-.25.23-.38.45-.31,1,.06,1.47-.24a.55.55,0,0,0,.64-.18c.48-.8,1.12-.55,1.71-.25s.83.4,1.23,0a.91.91,0,0,1,.58.14c.29.19.63.28.91.5s.21.33.4.41A.62.62,0,0,0,70.73,3,7.5,7.5,0,0,1,71.58,2.13Z"/></g></g></svg>