<svg xmlns="http://www.w3.org/2000/svg" viewBox="0 0 183.5 68.1"><defs><style>.cls-1{fill:#a6b4bf;}</style></defs><title>BR16</title><g id="Layer_2" data-name="Layer 2"><g id="Layer_1-2" data-name="Layer 1"><path class="cls-1" d="M81.47,59.5c-.5,0-.82.74-1.41.31-.14-.06-.36-.21-.28-.29.51-.58-.18-.57-.37-.79s-.41-.76-.94-.41a1.07,1.07,0,0,1-.79.4,1.42,1.42,0,0,0-.29.1l-.46.11a.27.27,0,0,1-.31,0,.74.74,0,0,0-.78-.68c-.58,0-1-.35-1-1.14-.6.86-1.59.6-2.25,1.11a.37.37,0,0,1,0,.23c-.46.35-.79-.15-1.19-.19-.24.06-.37-.51-.66-.1s-.17.79,0,1.19.52.68,0,1c-.28.15-.45-.12-.68-.17-.33.25,0,.66-.23.94-.36.15-.52-.09-.68-.34a3,3,0,0,1-.1-.32c-.08-.33,0-.79-.53-.78A4.81,4.81,0,0,1,66.6,60l-1.19.09c-.17-.19-.11-.42-.12-.63,0-.73-.08-1.39-1-1.55a6,6,0,0,0-.94-.1.65.65,0,0,1-.34-.33,1.1,1.1,0,0,0-1.57-.19c-.6.34-.88.13-1.16-.32,0,0,0,0,0,0a1,1,0,0,1,0,1.08.61.61,0,0,1-.37.3,1.22,1.22,0,0,1-.33,0c-1.18.1-1.58-1-2.33-1.55-.56-.4,0-.9.43-1.22a.57.57,0,0,1,.56-.35c-.58-.42-.4.31-.63.42a3.85,3.85,0,0,1-1.75.47s-.08-.05-.08-.08c-.45-1.69-.45-1.69-2.37-1.56a1.62,1.62,0,0,1-1.2-.36c-.57-.65-1.21-.52-1.89-.37A.63.63,0,0,1,50,53.4c0-.76-.32-.85-.91-.53a1.14,1.14,0,0,1-.54.34c-.7-.13-.38-.74-.42-1.12-.53-.15-.67.29-1,.43a2.67,2.67,0,0,0-.31.36c-.23.38-.44.8-1,.61s-.52-.48-.42-1c-.47.84-1,1.48-.78,2.39a.47.47,0,0,1-.14.3,1,1,0,0,1-.58,0c-.77-.1-.75-.1-.47.61.14.36.3.76-.18,1s-.82.13-1.23,0a.53.53,0,0,1-.32-.35.9.9,0,0,1,0-.46c0-.1.13-.21,0-.3s-.11.09-.17.15a1,1,0,0,0-.27.7,1.9,1.9,0,0,0-.26,1,1.47,1.47,0,0,1-1.08.89c-.76.17-.66.66-.74,1.14a.6.6,0,0,1-.23.72c-.61-.38-.73.45-1.18.49l-.47-.23c-.89-.17-1.07-1-1.4-1.64-.37.25-.17.91-.74,1-.93-.36-.68-1.19-.77-1.89a5.48,5.48,0,0,0-.23-.79.68.68,0,0,1,.14-.72c-.61,0-1.23,1.34-1.77,0-.15-.37-.16,0-.21.07-.48.54-1,.08-1-.21.2-1-.7-1.64-.79-2.52a1,1,0,0,1,.15-.59c-.25.28-.27.83-.8.67a.89.89,0,0,1-.57-.85c-.05-.35-.17-.72.08-1a.84.84,0,0,0,0-1c-1.27-1.24.13-1.29.73-1.64.27-.16.6-.18.61-.65-.68.46-1.19,1.22-2.12,1.09-.08,0-.16-.12-.27-.06a.75.75,0,0,1,.23.27c.09.19,0,.49.09.57,1.27,1.06.47,1.75-.4,2.44-.09.07-.12.21-.17.31-.14.32-.44.39-.73.47s-.18.35-.23.54a.63.63,0,0,1-.25.38c-.17.1-.44,0-.5.29-1-.15-.62.5-.59.95-.12.61.56.9.58,1.46a2,2,0,0,1-.21,1l0,.14c-.63-.11-1.06.49-1.66.49a.31.31,0,0,1-.08-.3c.6-.85-.41-.52-.59-.79a2.37,2.37,0,0,1-2-.3c-.19.41.18.71.12,1.06-.37,1.29-.82,1.48-2,.85-.34-.67-.65.24-1,0-.2.17-.28.52-.65.43-.08-.11-.15-.25-.33-.2a.8.8,0,0,1-1.11-.3c-.31-.79-1-1.07-1.56-1.6-.29-.12-.34.52-.69.2-.5-.4.27-1-.25-1.43a.55.55,0,0,0-.64-.17c.09.4.33,0,.47.09a.36.36,0,0,1,.24.18c.26.77-.25.92-.83,1-.26,0-.59-.3-.79.13a4.28,4.28,0,0,0,0,.62c-.09.44,0,1-.58,1.14a1.25,1.25,0,0,1-1.2-.58c-.9-.74-1.87-1.39-2.77-2.13a.66.66,0,0,0-.77-.13c-.43.23-.83.35-1-.29-.07-.25-.19-.23-.43-.15-1,.31-1.06.21-.86-.77,0-.26.24-.51,0-.78a1,1,0,0,1-.11-.29A7.69,7.69,0,0,1,5,52.88c0-.24.21-.69-.17-.67-1.81.08-.56-.73-.39-1.22h0c.49-.18,1-.33,1.38.16,0,0,0,0,.06.09l-.12-.18c-.19-.47-.29-1,.15-1.3s.57,0,.91.46c-.3-.47-.56-.76-.28-1.11A.42.42,0,0,1,7.19,49c.47.44.77-.11,1.15-.15a.76.76,0,0,0,.76-.56c.07-.32-.18-.55-.24-.83a1.67,1.67,0,0,1,.26-1.57c-1-.11-.65-.62-.37-1.13a.17.17,0,0,0-.09-.07l-.12,0a.94.94,0,0,1-.57.09,4.29,4.29,0,0,0-1-1.91c-.35-.32-.08-.9-.09-1.39-.12.27-.26.44-.56.31s-.2-.3-.22-.49c-.2-.51-1.25-.32-1-1.21-.3-.33-.6-.65-.91-1a.75.75,0,0,1-.46-.46c.27-.89-.15-1.4-.95-1.69a7.7,7.7,0,0,1-1.11-1.65C1.41,34.83,1.19,34.22.43,34,0,33.9-.13,33.43.18,33a.6.6,0,0,1,.48-.72,2.38,2.38,0,0,0,.27.18c1.09-1.21,1-.26,1,.53,0,.07.24.14.37.21a1.65,1.65,0,0,1,.58.1c.28.09.19.43.39.58l.93.38c1.11,1,2.47,1.62,3.36,2.84.68.49,1.2,1.27,2.17,1.27.32.23.6.74,1,.14s.48.63.84.12A5.8,5.8,0,0,1,12.64,38c.23-.11.38-.27.32-.54-.24-.37-.63-.08-.93-.22a.67.67,0,0,1-.26-.19,2,2,0,0,1-.26-.77.43.43,0,0,1,.2-.42c.3,0,.5.18.75.27s.72.29,1-.06-.31-.43-.43-.68A7.11,7.11,0,0,1,12.45,34c-.06-.52.62-.92.07-1.59-.26-.32.7-.62.81-1.14A1.56,1.56,0,0,0,13.4,30c.12-.59.51-1.22-.48-1.5-.3-.09-.35-.57-.14-.85.49-.66.07-1.11-.28-1.59a.88.88,0,0,1,.16-.61c.32-.3.2-.75.39-1.1.71,0,.1-.46.21-.67a2.47,2.47,0,0,0-.1-.29c-.58-.8.48-1.16.48-1.82,0-1.15,1-.36,1.42-.73.22,0,.45-.11.63.12s.11.23.27.2a1.73,1.73,0,0,0,1.4,1.26c.49.13.88.27,1.1-.39.09-.27.5-.64.69-.19.46,1,.93.26,1.2,0,.62-.6,1.13-.66,1.67,0,.39.18.26-.21.37-.34a1.39,1.39,0,0,1,.17-.44c.1-.13.26-.24.4-.13a2.34,2.34,0,0,0,1.95.64c.43-.06,1,.19.47.88a.5.5,0,0,1-.32,0s0,.05,0,.05a.56.56,0,0,0,.49-.16c.41-.49.85-1.25,1.15.07.07.31.39.21.53.4.33.62.67,0,1,0s.37.31.46.54c-.11.1-.3.27-.17.37a1.68,1.68,0,0,0,.65.08.53.53,0,0,1-.05.52c.13.45.24-.09.36,0,.4-.2.74-.2.94.27s.2.79.73.81c.78,0,1,.6,1.19,1.21a3.08,3.08,0,0,1-.48.47c.52,0,.33-.33.47-.46.47-.46.39-1.79,1.63-1,.11.07.16-.11.21-.21.45-.74.85-1.18,1.82-.48.36.26,1-.68,1.75-.8-.88.06-1.94.51-1.89-1A12,12,0,0,0,35.51,21a1.16,1.16,0,0,1,.61-.77c.6,0,.67.43.71.9.32-.44.4-1.08,1-1.22a.72.72,0,0,1,.8.43c-.1-.59,0-1.28-.6-1.88-.27-.26.38-1,.72-.68a4.16,4.16,0,0,0,2.87,1.06h0a.48.48,0,0,0,.74,0c1-1.17,2.15-1,3.43-.47.22-.49,0-1,.06-1.49.25-.45.55-.28.85-.06a1.36,1.36,0,0,1,.36.89c.08.5.45.52.84.49a2.59,2.59,0,0,1,.73.12c.18.05.34.06.36-.2a1.19,1.19,0,0,1,.24-.36.93.93,0,0,1,.4-.22c.5,0,.68.47,1,.67s.89.18,1,.75c.37,1,1.1.47,1.72.41.19,0,.25.35.51.19a.68.68,0,0,1,.48-.13c.61.33,1.24-.11,1.92.05-.31-.25-.83-.37-.49-.86s.8,0,1.2,0c0-.64.56-.88,1-1.18.24-.4.43-.39.58.06,0,.25.27.24.44.31s.4.23.66.32c.15-.51-.71-.83-.25-1.37.19-.32-.2-.56-.19-.87.66-.05.63.52.89.81.36.5,1.06.29,1.45.72h0c.1.12.19.3.07.4-.45.38.06.24.16.33l.22.06c.25.06.55-.11.77.15l.19.27c.05.15.15.38.26.37,1.05-.15,1.32.61,1.63,1.35.16.17-.27.78.48.54a1.79,1.79,0,0,1,1.39.11.87.87,0,0,0,1-.05c.26-.18.6-.37.87-.11.68.66,1.4.27,2.22.15-.23-.79-.56-1.6.14-2.31a1.55,1.55,0,0,1,2.4-.42.83.83,0,0,1,.21,1.11c-.5.81.29,1.47.28,2.21a.2.2,0,0,1-.11.18c.06.1,0,.08.06-.05s0,.06.06-.1.46-.48.37-.56c-1.07-.88,0-1.08.45-1.17.74-.16,1,.42,1,1.09,0,.14-.21.42.17.43.24-.17-.13-.18-.09-.29a1.52,1.52,0,0,1,0-.92c.37-.37.11-.72,0-1.08a2.77,2.77,0,0,1-.42-1.57c.09-.52-.33-.77-.67-1a1.26,1.26,0,0,1-.22-.24c-.09-.46-.09-.88.39-1.14.78-.2,1,.38,1.3.91-.43-1-1.08-1.89,0-2.81.15-.37.41-.62.82-.49s.81-.21,1.21-.35a.72.72,0,0,1,.64,0v0a1.74,1.74,0,0,1,.67.62,1.06,1.06,0,0,0,1.67.26c.85-.19,1,.65,1.5,1h0c.81-.51,1.9-.51,2.5-1.4.26-.16.45-.64.84-.19.07.36.33.16.51.16.36-.14.66-.3.28-.72.2-.32.13-.72.88-.59s1.14-.91,1.53-1.57c.07-.09.14-.09.2,0l.73.06A2.85,2.85,0,0,0,91,9.16c.16-.18.43-.23.58-.44a2.44,2.44,0,0,1,.77-.61c.36-.22.89-1.25,1.43,0,.16.39.14-.4.43-.34a4.15,4.15,0,0,0,1,.25,1.44,1.44,0,0,0,1.41.23c.94-.34,1.19.55,1.71,1h0c.43.39.93.13,1.4.16a1.21,1.21,0,0,1,.62.18,1.32,1.32,0,0,0,1.37,0,.79.79,0,0,1,.48.05c.8.95.8.95,2.55-.05a1.25,1.25,0,0,1,.51,0,1,1,0,0,1,.67.5,2.43,2.43,0,0,1,.22.46,13.18,13.18,0,0,1,.61,1.87c0-.39-.27-.73-.13-1.13.2-.16.66-.16.35-.62,0-.32-.08-.72.23-.85.69-.31.44-.92.54-1.41.23-.65.64-.68,1.16-.36.33,0,.33,0,.08-.48,0-.61.54-.89.73-1.38a2.59,2.59,0,0,1,.35-.31c.49-.43.5-1.55,1.59-1.12a.68.68,0,0,1,.18.26c0,.36-.31.48-.51.66,0,0,0,0,.06,0A1.29,1.29,0,0,1,113,5.29a8.44,8.44,0,0,1,2.1.61c.15.11.09,0,.08-.1.19-.55.72-.23,1-.44A1.41,1.41,0,0,1,116.7,5c.28-.12.59-.15.88-.26l.15,0c.55.12,1.12-.56,1.66,0,.87.54,1.74,1.06,2.65,1.52.68.06,1.47-.14,1.84.72.53,1.29.78-.13,1.17-.12a.89.89,0,0,1,.49-.18c.49,0,.47.45.56.77-.13.7-.87.79-1.5,1.5a2.58,2.58,0,0,1,2.76.76c.33.43.61-.31.93-.05s.52.4.65.71a2.83,2.83,0,0,1,.11.31c.17.87.44,1.62,1.59,1.35.26-.16.16.58.52.19.15-.19.4-.27.51-.51,0-.27-.24-.52-.14-.82a1,1,0,0,1,.91-.78c.3,0,.27-.21.2-.41,0,0,.05-.1.06-.1.63.2,1.18.34,1.15-.67,0-.21.36-.35.68-.17s.76.13.72-.46c0-.86.95-.41,1.21-.9s.56-.8.77-1.2c.5-1,.9-.78,1.43.12.34-.67.12-1.45.75-1.83,0-.25-.06-.6.39-.54,1.13.38.72-1.08,1.44-1.24,0,0,0-.37.38-.42s1.72.79,1.1-.81a4.13,4.13,0,0,0,1.64-.67c.23-.13.5-.71,1-.36.2,0,.43,0,.57.2.16.4-.32.78,0,1.17,0,.27-.17.46-.27.67a.11.11,0,0,1-.15.06c.11.1.09-.07.15-.08a.9.9,0,0,0,.24-.93c0-.61.48-.42.82-.45a2.16,2.16,0,0,0,.5-.26,4.45,4.45,0,0,0,.51-.19,1.57,1.57,0,0,1,.73-.39c.23.14.4.08.5-.18a.23.23,0,0,1,.26.05.62.62,0,0,0,.72.22,2,2,0,0,1,1.46,0c.27.07.25.4.46.52.3-.07.48.18.72.27.34.38.35.95.77,1.29,0,.09.13.17.17.26,0-.14-.12-.22-.1-.36.16-.43.58-.58.87-.87.73.81.66,1.62-.16,2.07-.1.06-.11.29-.16.45a10.88,10.88,0,0,1-.74,1.92c-.14.68.89.79.7,1.49a.48.48,0,0,1-.18.26c-.39,0-.39.25-.23.54s.11.64.56.37a2.84,2.84,0,0,1,.5-.06,1.63,1.63,0,0,1,.84.17,1.46,1.46,0,0,1,.36.55c.06.51-.47.64-.65,1s.19.57,0,.9.09.36.35.27.35-.55.65-.7c.52-.11,1.09-.36,1.2.5l.25.49c.06.26.37.05.46.25l.49-.25a.54.54,0,0,1,.15.61c-.1.27-.4.33-.53.56,0,.26.23.23.4.25,1-.94,2.07-.3,3.12-.26a1,1,0,0,1,0,1.25c-.1.4.48.2.45.61-.57-.19-.78.36-1.17.58-1.13.7-1.24,1.27-.43,2.4,0,.68-.71,1.35,0,2.05-.08.29,0,.49.33.55s0,.58.49.43a.69.69,0,0,1,.85.57l-.06.23a2.05,2.05,0,0,0-.91,1.21c-.06.26-.31.2-.47.28a1.42,1.42,0,0,0-.68.75c0,.09-.07.18-.1.27a1.27,1.27,0,0,0,.07.86v.71c0,1,0,1-1.23.5-.26-.14-.49-.46-.82-.11a.43.43,0,0,0,.11.71c.34.24,0,.39,0,.58-.41,0-.92-.31-1.11.35a2.85,2.85,0,0,0-.28.55.78.78,0,0,1-.27.37c-.39.07-.56-.38-.92-.37h-.29a1,1,0,0,1-.29-.05.72.72,0,0,0-.67,0l-.23.17c-.28.21-.3.38.09.48a1,1,0,0,1,.28.14.63.63,0,0,1-.09,1.11c-1.06.22-1.55,1.12-2.18,1.84h0c-.17.2-.35.4-.62.14s-.24-.26-.44-.13-.22.41-.39.57c-.32.19-.19.43-.08.68s.34.54.07.84l-1.74.28a1.28,1.28,0,0,1-.87,1c.08.27-.61-.41-.26.21a1.41,1.41,0,0,1,.16.54.66.66,0,0,1-.15.45,1.23,1.23,0,0,1-1,0,1.19,1.19,0,0,0,1.29-.17.68.68,0,0,1,.62.52,1.32,1.32,0,0,1-.08.83c-.1.43-.23.85.49.83.41,0,.72.3,1.09.45l.3,0c1-.85,1.17-.81,1.6.3.3-.67-1.31-1.53.22-2a.51.51,0,0,1,.3.06c.06,0,.07.12.1.18s.08.06.13,0c.21-.35.57-.61.64-1a.93.93,0,0,1,.46-.67c.23-.09.54-.16.67,0,.74.88,1.45.29,2.16,0,.22-.28-.22-.31-.2-.51-.26-.48-.13-.72.43-.75a2.26,2.26,0,0,0,1.87-1.27,1,1,0,0,1-.22-.68c.06-.53-.15-1.35.89-.84.32.08.73.56.88-.19a2.4,2.4,0,0,1,.79-.55c.78.08.8-.48.83-1a1,1,0,0,1,.27-.42,1.07,1.07,0,0,1,.55-.3c.29-.06.58.14.87,0a1.51,1.51,0,0,1,.47-.05c.6,0,.85.72,1.51.76-.11-.56-.71-1.21.21-1.62a.7.7,0,0,1,.32,0,.25.25,0,0,1,.08.18c0,.07,0,.1,0,.1-.22.33.12.46.23.67-.08-.21-.39-.32-.26-.62s.85-.18.88-.73-.56-.69-.39-1.18c0-.17,0-.33,0-.49-.2-.35,0-.56.29-.69.94.57,1.77.13,2.6-.28a.33.33,0,0,1,.26-.11.59.59,0,0,0,.51-.13c.19-.2.19-.53.46-.68l0-.07c.49-.3.82.42,1.3.2s.54-.6.9-.78h1.43c.41-.06.74.47,1.18.17l.22,0c.53-.21.23-.63.25-1,.61-.19,1.12.2,1.69.3.65.57,1.28.18,1.91-.06.27-.36.38-.28.49.12s.05.93.71.84c.4-.14.74-.54,1.22-.23h0c.74.55.22,1-.13,1.42-.39.14-.46.5-.57.84a1.32,1.32,0,0,1-1.11.5,6.87,6.87,0,0,1,.63.44c.23.21.53.45.53.74,0,.85.64.62,1.07.77.18-.07,0,.55.36.18.23-.21.59-.45.66.18h0a10,10,0,0,0-.41,2.3c-.06.59-.13,1.21-.89,1.39s-.83-.53-1.3-1.11c.2.68,1.07,1.23,0,1.63a.77.77,0,0,1-.34,0c-.68-.32-1.08-1.06-1.89-1.18a.31.31,0,0,1-.29-.32c.09-1.26-.61-.93-1.25-.6a.89.89,0,0,1-.89,0c-.46-.23-.21.23-.3.36a1.17,1.17,0,0,1-.09.32.6.6,0,0,1-1.08.12c-.52-.6-.79-.27-1.19.15a2.37,2.37,0,0,1-1.94,1c-.85-.08-.38.69-.62,1-.71-.06-1.5.94-2.05,0-.44,1.18-1.59,1.73-2.61,2.4a1.64,1.64,0,0,1-.24.21c-.74.1-.6.81-.86,1.25-.4.25-.89-.47-1.26.11-.83.68-2,.72-2.76,1.31a5.1,5.1,0,0,0-1.77,2.28c-.1.26-.28.55-.56.48-.8-.2-.81.46-1.06.88s-1.12-.38-1.31.46c-.09.41.08.84-.11,1.25-.09.18-.22.33-.32.5-.19.33-.31.84-.81.69s-.2-.57-.2-.9c0-.55-.4-.78-.72-.38s-.83.39-1.24.58l-.29.14c-.22.14-.57-.07-.56.55s-1,.79-1.43,1.26a1.51,1.51,0,0,1-.48.09c-.87.11-1.14,1-1.76,1.4a1.06,1.06,0,0,1-.43.23,1.14,1.14,0,0,0-1.1.67.77.77,0,0,1-.42.21c-.11.12-.32-.4-.33,0s.13.6,0,.9a.82.82,0,0,0-.28,1,5.25,5.25,0,0,1,.08,1.43c0,.37.32.7.18,1.1-.36.07-.54.37-.75.63a.88.88,0,0,1-1-.35,2.31,2.31,0,0,1,.13.4c-.09.46-.43.6-.84.63-.18,0-.18,0-.14.13a.56.56,0,0,1,0,.46c-.85.43-1.68.92-2.69.4-.3-.16-.51.12-.66.36a1.49,1.49,0,0,1-1.11.58,3.8,3.8,0,0,1-.77.54c-.23.1-.42.28-.66.38-.65,0-1.64.44-1.35-.93-.06-.23-.06-.23-.43-.13a1.53,1.53,0,0,1-.46.14c-.89-.15-.38-.86-.52-1.36a1.92,1.92,0,0,1-1.16,1.14c-.68.35.39.33.07.54a.73.73,0,0,1-.08.5.6.6,0,0,1-.49.17.58.58,0,0,1-.3-.18l-.07,0a2.84,2.84,0,0,0-.49-.55,4.21,4.21,0,0,0-1.38-.4c-.28,0-.59-.14-.79.18-1.79-.21-2-.53-1.81-2.25,0-.13-.1-.2-.2-.27-.3-.83-.49-1.44-1.76-1.08a5.4,5.4,0,0,1-2.66.42c-.54-.11-.43.41-.09.7a.67.67,0,0,1,.2,1c-.21.31-.49.16-.72,0s-.27-.26-.45-.33c.12.15.33.19.46.34,0,1.25.23,2.49.25,3.74.17.36-.9.65,0,1a.73.73,0,0,1,.23.49c-.1.13,0-.07,0,.07s0,0,.08,0a.52.52,0,0,1,.45-.27.75.75,0,0,1,.3.09.87.87,0,0,1,.31.4,1.19,1.19,0,0,1,0,.87.94.94,0,0,1-.55.41.81.81,0,0,1-.46-.05c-.06.15.11.13.15.21a2.16,2.16,0,0,1,.12,2.17c-.76.51-1.76,0-2.52.58,0,.42.21.89-.24,1.22-.22.16-.43.4-.73.2-.13-.09,0-.3-.12-.44,0,.13,0,.26,0,.38a1,1,0,0,1-.68,1.11c-.52.2-.51-.29-.6-.63s-.49-.08-.7-.23a9.86,9.86,0,0,0-1.11-.7c-.46-.24-.91-.51-1.45-.23-.2.11-.47.11-.52-.08-.32-1.12-1.6-1.55-1.89-2.68-.23-.21-.56-.11-.83-.24a.36.36,0,0,1,0-.55c-.09-.69-.17-1.31-1-1.7-.55-.27.25-.9,0-1.38-.13-.64-.61-1.18-.52-1.9,0-.23-.42-.12-.49-.37s0-.5,0-.75a2.41,2.41,0,0,0-.76-.89c-.44-.26-.44-.7-.44-1.13a1.94,1.94,0,0,1,.23-1.59c.07-.13-.22-.09-.07,0s.08.06,0,.11a1.54,1.54,0,0,1-2.3-.4c-.37-.8-.56-.23-.85-.11-1.59.56-1.43,1.68-1.25,3.38.05.39.28.75.19,1.16s-.26.52-.11.81c.07,0,0-.06,0-.09,0-.39.21-.55.57-.54.88.66.07,1.54.27,2.31a1.54,1.54,0,0,1-.21,1c-.1.15-.17.31,0,.48a5.51,5.51,0,0,0,.61.37,1,1,0,0,1,.28,1,6.73,6.73,0,0,1-.12,1.1,1.06,1.06,0,0,1-.21.44,6.75,6.75,0,0,0-1.2.73c-.16.13-.59,0-.51.35.19.86-.47,1.08-1,1.41-.43.05,0,.43-.22.56-.37.44-.81-.14-1.19.09a.86.86,0,0,1-.45.08,5.25,5.25,0,0,1-1.05-.07c-.43-.29-.93.26-1.35-.12-.08-.27-.32-.21-.51-.26-.27-.41-.7.07-1-.19l-.24-.23a2.35,2.35,0,0,1-.64-.69,3,3,0,0,1-.56-1c-.51-.22-.63-1-1.36-.89,0-.4-.33-.81,0-1.2s.33-.45-.06-.63a.68.68,0,0,1-.18-.26,1.15,1.15,0,0,0-.53-.93c-.07-.23-.53-.3-.28-.66.08-.71-.53-1.07-.84-1.58-.28-.3-.21-.72-.37-1.06-.28-.17-.65,0-.91-.23s-.16-.86-.47-1.2c-.42-.16-.84.27-1.26,0a.58.58,0,0,1-.14-.47c-.11.15,0,.27,0,.41.58.29.93.61.21,1.14-.22.16-.32.45-.54.61-.48.07-.69-.23-.83-.61,0-.08.1-.18,0-.26a.06.06,0,0,0-.09,0c0,.11.08.18.07.29.07.36-.08.71,0,1.07.28,1-.23,1.47-1.14,1.66-.29.09-.16-.81-.79-.26-.28.23-.52-.52-.62-.92-.07-.13-.12-.29-.31-.24s-.2.28-.23.45a1.8,1.8,0,0,1-.06.32c-.13.29-.2.66-.6.65s-.38-.42-.5-.7a13.33,13.33,0,0,1-.49-1.76,4.12,4.12,0,0,1-2.51,1.11c-.06,0-.2-.17-.18,0,0,0,.19.1.29.18C82.15,59.27,81.88,59.43,81.47,59.5Z"/></g></g></svg>