<svg xmlns="http://www.w3.org/2000/svg" viewBox="0 0 164.28 94.78"><defs><style>.cls-1{fill:#a6b4bf;}</style></defs><title>BR2</title><g id="Layer_2" data-name="Layer 2"><g id="Layer_1-2" data-name="Layer 1"><path class="cls-1" d="M164.25,44.89c-.05-.38-.12-.75-.2-1.12a112.7,112.7,0,0,0-7.68-8.48c-.74-.78-1.49-1.56-2.24-2.33a4.83,4.83,0,0,1-.45-.34c-.19-.16-.4-.3-.6-.45l-.42-.35c-.14-.12-.27-.25-.4-.38l-.55-.55-.32-.26a17.38,17.38,0,0,1-3.84-3.42l-.23-.37a4.89,4.89,0,0,0-.44-.47l-.33-.27a4.08,4.08,0,0,0-1-1,1.59,1.59,0,0,1-.53-.75,1,1,0,0,0-.2-.3l-.13-.13a5.23,5.23,0,0,0-.53-.42l-.35-.34a3.6,3.6,0,0,0-.41-.37l-.32-.22a3.88,3.88,0,0,1-.47-.32,2.37,2.37,0,0,0-.76-.53l-.51-.19a3.28,3.28,0,0,1-.44-.32,5.09,5.09,0,0,1-.62-.69,3.83,3.83,0,0,0-.46-.33,1.49,1.49,0,0,0-.45-.34,1,1,0,0,0-.37-.11,5.49,5.49,0,0,1-.51-.21,3.51,3.51,0,0,1-.59-.42l-.25-.27c-.23-.25-.24-.6-.39-.89a1.35,1.35,0,0,0-.26-.33,1.91,1.91,0,0,0-.36-.25,1.44,1.44,0,0,0-.4-.13,5.77,5.77,0,0,0-.58-.08,1.56,1.56,0,0,1-.61-.39,7.16,7.16,0,0,1-.48-.61,4.24,4.24,0,0,1-.84-.8,3.07,3.07,0,0,0-.5-.64,1.42,1.42,0,0,0-.34-.25,2.77,2.77,0,0,0-.55-.26,2.16,2.16,0,0,1-.81-.31c-.1-.15-.18-.31-.29-.45a1,1,0,0,0-.26-.29l-.32-.23a2.31,2.31,0,0,1-.35-.18l-.16-.13a2.15,2.15,0,0,0-.57-.51,1.87,1.87,0,0,1-.65-.35,1.86,1.86,0,0,0-.78-.51c-.37-.16-.43-.54-.59-.85l-.32-.26a10.76,10.76,0,0,1-3.42-2.21.7.7,0,0,0-1-.17.54.54,0,0,0-.09.93.67.67,0,0,1,.25.19c-.22-.19-.52-.29-.65-.58a5.78,5.78,0,0,0-.33-.48,3.46,3.46,0,0,0-1-1,4.21,4.21,0,0,0-.74-.36,8.59,8.59,0,0,1-1.31-.59c-.19-.1-.35-.22-.53-.33l-.56-.27-.4-.13c-.73-.29-1.7-.12-2.12-1L115,3.82a.73.73,0,0,0-.34-.26c-.7-.06-1,.8-1.71.72-.31.09-.61.32-1,.12a1.69,1.69,0,0,0-.36-.17c-1.94-.61-2-.61-1.58-2.72a.61.61,0,0,0-.35-.77c-.48-.21-.92-.51-1.4-.72a.89.89,0,0,0-.43,0,7.91,7.91,0,0,0-2.47,2c-.21,0-.43,0-.58-.16v0c-.12-.1-.22-.21-.33-.32h0c-.23-.19-.6-.24-.69,0-.52,1.18-1.64,1.24-2.65,1.55A.55.55,0,0,1,100.9,3a1,1,0,0,1-.11-.26,1.14,1.14,0,0,0-.18-.32,1.11,1.11,0,0,0-.32-.25l-.2-.06a1.92,1.92,0,0,0-.41-.05,2.69,2.69,0,0,0-.4,0,5.36,5.36,0,0,1-.77.18,7,7,0,0,1-1.58-.13,1.94,1.94,0,0,0-.36.15l-.3.23-.14.11a.88.88,0,0,1-.32.07H95.3a2.32,2.32,0,0,1-.84-.25c-.19-.11-.41-.2-.49-.44a1,1,0,0,0,0-.17A2,2,0,0,0,92.13.16c-1-.09-1.36.56-1.63,1.36a.67.67,0,0,1-.72.49c-1.25,0-1.53.65-1.36,1.71A2.07,2.07,0,0,0,89.64,4.8c-.28,0-.53.13-.74.65,0,.43.3.64.62.85a1.72,1.72,0,0,1,.37.28l-.14,0a.67.67,0,0,0-1,.5c-.26,1.16-.85.67-1.5.4-1-.41-2-.9-3.12-.42a2.41,2.41,0,0,0-.46,1,.86.86,0,0,0,.2.57l.28.25.17.22-.18-.18c-.29-.18-.61-.3-.92-.46s-.52-.21-.79-.3a11,11,0,0,1-1.6-.6,2.09,2.09,0,0,0-.93,0,29.49,29.49,0,0,1-4.39.06,1,1,0,0,1-.28-.16l-.16-.16s0-.06,0-.07.06,0,0,0A.9.9,0,0,0,75.5,7a.83.83,0,0,0,.26-.3,1,1,0,0,0,0-.69,1.15,1.15,0,0,0-.28-.4c-1.44-1.32-1.6-1.32-3,.13-.51,1.77-.51,1.77-2.84,1.76-.66,0-1.32,0-2,0a2.12,2.12,0,0,0-.44,0c-.76.73-2,.85-2.48,1.89a.21.21,0,0,0,.21.2s0,.11,0,.12a.44.44,0,0,0-.23-.1.65.65,0,0,0-.55.36c-.09.32-.14.65-.25,1s-.44.47-.66.71a2.33,2.33,0,0,0-.2.52c-.05.11-.1.21-.16.32a.73.73,0,0,1-.78.28,5.64,5.64,0,0,1-1.27-.65.85.85,0,0,0-.42,0,1.36,1.36,0,0,0-.56.48.78.78,0,0,0,.15-.39.79.79,0,0,0-.18-.38,3.38,3.38,0,0,0-.55-.34l-.41-.13a1.66,1.66,0,0,0-.58-.24,3,3,0,0,0-.84,0c-.39.2-.66.64-1.16.64-.68-.12-1.18-.69-1.88-.78a19,19,0,0,1-2.08-.73h-.1a4.44,4.44,0,0,1-.84.43c-.09.59-.11,1.23-.95,1.26a2.28,2.28,0,0,1-.78,0c-.33-.05-.65-.17-1-.25-.14,0-.27,0-.41,0-1,.25-1.85-.69-2.87-.38-.18.07-.35.17-.53.24l-.37,0H44.2l-.39,0-.41-.07a8.69,8.69,0,0,0-1.69,0c-1.11-.05-2.3-.2-2.79-1.51a2.2,2.2,0,0,0-.12-.44,1,1,0,0,0-.3-.32c-.18-.12-.34-.24-.51-.37-.56-.21-1.12-.41-1.69-.6a1.26,1.26,0,0,1-.73-.25q-1.14-.39-2.28-.75h-.24A1.76,1.76,0,0,0,31.5,8.49a3,3,0,0,1-.23.27,11.68,11.68,0,0,0-1.87,0,1,1,0,0,0-.33.25c0,.12-.07.24-.1.37,0,.48.57,1.05-.21,1.39h0c-.12,1.25-.11,2.54-.3,3.6a12.6,12.6,0,0,1-.51,2,.62.62,0,0,0,.14.18c.15,0,.16.05.05.05a1,1,0,0,0-.24,0l-.05,0c-.14.38-.3.74-.47,1.09a.17.17,0,0,0,0,.05,1.6,1.6,0,0,0,.65.5c.52.12.55.69.89,1S29,20,29,20.37a.72.72,0,0,0,.2.32l-.31.33a.31.31,0,0,0-.09.26l0,.13,0,.14-.09.1h-.14L27.9,22a.36.36,0,0,0-.13.24.85.85,0,0,0,.11.26l0,.14c-.44.25-.69-.11-1-.34h0l-.66.32c-.07-.08-.16-.16-.24-.24a1.49,1.49,0,0,0-.3-.18l-.34-.11c-.23-.08-.48-.13-.72-.21a.61.61,0,0,0-.36.13c-.22.45,0,.93-.1,1.38s-.22,1.2-1.08.88l-.34,0a.39.39,0,0,0-.4-.11c-.5.58-1,1.18-1.91.9-.74-.12-1.07.44-1.47.89a1.79,1.79,0,0,0-.22.38c-.32,1.16-1.84.58-2.28,1.56a.86.86,0,0,0,0,.42,2.29,2.29,0,0,1,.3.72,2.1,2.1,0,0,1,.07.56,2.67,2.67,0,0,1-.33,1,1.56,1.56,0,0,0,0,.31v.22s0,.06,0,.07-.07,0-.05,0-.11,0-.09,0a2,2,0,0,0-.66.17c-.88.48-1.65,0-2.45-.27a4.39,4.39,0,0,1-1.06-.81,1.38,1.38,0,0,0-.66-.17,7.22,7.22,0,0,0-.93,0A7.15,7.15,0,0,0,8,31.82a1.36,1.36,0,0,0,0,.45,2.83,2.83,0,0,0,.17.4c0,.13.11.25.17.37.12.28.12.49-.27.42-.77-.33-1.63.23-2.4-.22-.39-.18-.64-.57-1-.75l-.15,0c-.18.16-.38.31-.55.48-.48.44-.94.91-1.38,1.39a1.14,1.14,0,0,0,.16.15,1.47,1.47,0,0,0,.28.14l.28.13.13.08.13.09a1.11,1.11,0,0,1,.27.37c0,.11.05.22.07.33s-.05.24-.08.36a1.5,1.5,0,0,1-1.42,1A2.2,2.2,0,0,0,.34,39.62c.16.38.4.71.59,1.08a1.56,1.56,0,0,1,.23,1.08,1.69,1.69,0,0,1-.12.36A1.57,1.57,0,0,0,.49,44,5.33,5.33,0,0,1,.6,46.86l-.06.42c-.05.49-.46.84-.53,1.32a2.12,2.12,0,0,0,.08.87c.33.54,1,.53,1.43,1l.32.29c.79.61-.19,1.35.16,2,1.1.58,2.37.84,3.22,1.85.08.1.29.08.45.12a1.16,1.16,0,0,1,.34.24c.29.3.37.77.75,1l.37.22c1,.08,1.3,1,1.86,1.64.88.91,1.1,2.39,2.44,2.92.37.37,1,.45,1.24.93a1.57,1.57,0,0,0,.19.33,4.38,4.38,0,0,0,.37.67,3.92,3.92,0,0,0,.25.32l.27.31.14.16c.09.1.18.21.28.31a1.07,1.07,0,0,0,.31.25c.42.18.48.55.51.93a2.7,2.7,0,0,0,0,.41,5.63,5.63,0,0,0,.65.89c.8.92.83,2.23,2,3.07a14.11,14.11,0,0,1,4.28,5A4.82,4.82,0,0,0,24.34,77,2.7,2.7,0,0,1,26,78.52c.52,1,.53,2.38,1.76,3l.26.27.2.28c0,.11.08.21.12.32a3.43,3.43,0,0,1,.06.34,5.07,5.07,0,0,1,0,.55c0,.13,0,.26,0,.39a1.85,1.85,0,0,0,.07.41c.21.22.42.45.62.68a.82.82,0,0,0,.56,0,.71.71,0,0,0,.31-.26.57.57,0,0,0,.07-.49,1.47,1.47,0,0,1-.06-.14h0a2.44,2.44,0,0,0,.1.24.81.81,0,0,1-.11.48.67.67,0,0,0,0,.57.86.86,0,0,0,.26.31l.54.24.16.1a1.3,1.3,0,0,0,.51.29c.27.07.54-.07.8,0,.49.24.94.52,1,1.14.26.94,1.14.8,1.81,1a6.06,6.06,0,0,0,2.65,1.2,1.64,1.64,0,0,1,1.67,1.73c0,.57.31,1.12.94,1,.93-.12,1.42.54,2.07.92,1,.64,2.35.2,3.32,1,.93.41,2.08,1,2.84.32a5.65,5.65,0,0,1,2.78-1c2.69-.64,5.23.11,7.8.63a3.38,3.38,0,0,0,.89.1c2,.25,2.18.09,2.44-2,0-.1.1-.18.15-.28l.27-.3c.23-.2.4-.47.71-.56l.37,0c1.07-.11,2.18.23,3.22-.21a4.71,4.71,0,0,1,3.5,0,1.09,1.09,0,0,0,1,0c.18-1.06,1.13-1.55,1.69-2.33.88-1.22,1.88-.41,2.86-.31a4.71,4.71,0,0,0,2-.14,14.54,14.54,0,0,0,3.23-1.89,1,1,0,0,0,0-.68c-.19-.52-1.13-.68-.77-1.41s1.07-.6,1.69-.6a19.61,19.61,0,0,1,2.65.23,30.32,30.32,0,0,0,5.31.35,21.42,21.42,0,0,0,2.49-1.44,3.14,3.14,0,0,0-.18-.7.69.69,0,0,1,.6-.49l.32-.12c.46-.2.88-.63,1.44-.25s1.11.06,1.65,0c.84.11,1.66.24,2.49.39,1.73.33,3.5-.32,4.09-1.45-.58-1.63,1-3,.54-4.65-.06-.25.29-.47.56-.43,1.21.16,2.34-.35,3.59-.24,1.09.1,2,1,3.1.61a5.43,5.43,0,0,1,2.12-.18c1.08,0,2.12.54,3.22.28l.19,0,.18,0H117c1.11.3,2,1.4,3.34,1,.29-.09.6.37.9.58s.34.26.5.39a2.71,2.71,0,0,0,.37.21l.38.18.42.1c1.08.11,1.62,1.16,2.57,1.5a3.62,3.62,0,0,0,.46.06c.83-.21,2,1,2.51-.64a1.25,1.25,0,0,0-.15-.46,1.78,1.78,0,0,0-.28-.38c-.65-.47-1.25-1-1.91-1.5a.1.1,0,0,0,0,0,4.08,4.08,0,0,0,2,.75c2.74-.21,5.33,1.21,8.09.77a3.2,3.2,0,0,0,.42.1,2.18,2.18,0,0,0,.75-.23l.36-.1a1.51,1.51,0,0,1,.7,0,6,6,0,0,1,.71.26,3.16,3.16,0,0,1,1.07.88l.27.31a1,1,0,0,0,.37.17,2,2,0,0,1,.6.1,1.52,1.52,0,0,1,.43.41,1.14,1.14,0,0,0,.34.19l.38.15c.85.26,1.8-.11,2.61.39a3.1,3.1,0,0,0,.42.08,2,2,0,0,0,.64-.08,1,1,0,0,0,.35-.28,1.39,1.39,0,0,0,.15-1,1,1,0,0,0-.19-.35,1.45,1.45,0,0,1-.34-.4.77.77,0,0,1,0-.45.9.9,0,0,1,.49-.43,17,17,0,0,1,3.56-.41c2.12,0,4.33.22,4.9-2.65,0-.14,0-.28-.07-.42s-.06-.27-.1-.41a.86.86,0,0,0-.23-.33l-.32-.25-.31-.23a11.28,11.28,0,0,1-.89-.8c-.41-.41-1-.68-1-1.39a1.37,1.37,0,0,0-.15-.38l-.19-.35-.2-.34a3.45,3.45,0,0,0-.2-.32c-.12-.14-.23-.28-.34-.43a2.9,2.9,0,0,1-.19-.29c-.1-.14-.19-.28-.29-.41a1.83,1.83,0,0,0-.21-.26c-.07-.09-.13-.18-.2-.26a.69.69,0,0,0-.07-.15c-.26-.55.34-.82.41-1.26a1.23,1.23,0,0,0,0-.43c-.11-.53.11-.81.65-.81,1.18,0,2.39-.35,3.54.23a3.21,3.21,0,0,0,.43.07c1.95.07,3.53-.52,4.34-2.46a7.72,7.72,0,0,0-.61-3.38c-.35-.8-1.56-.6-1.81-1.54a8.32,8.32,0,0,0-1.35-2.37l-.27-.35a5.69,5.69,0,0,1-.33-.52,2.56,2.56,0,0,1-.31-.93c0-.27.1-.53.09-.81-.64-.93-.81-1.74.46-2.31.21-.09.26-.43.3-.69a1,1,0,0,0-.19-.55c-.08-.13-.16-.26-.23-.39s0-.12,0-.12,0-.11,0-.12a1,1,0,0,1,.2-.16,7.11,7.11,0,0,1,2.39-.2h.43c1.06,0,2.19-.38,3.05.66.2.24.59,0,.88-.08a4.86,4.86,0,0,1,1.4-.25A6.66,6.66,0,0,0,164.25,44.89Z"/></g></g></svg>