<svg xmlns="http://www.w3.org/2000/svg" viewBox="0 0 101.82 43.67"><defs><style>.cls-1{fill:#a6b4bf;}</style></defs><title>BR8</title><g id="Layer_2" data-name="Layer 2"><g id="Layer_1-2" data-name="Layer 1"><path class="cls-1" d="M101.6,19.41a7.2,7.2,0,0,1-.18-3.55c.25-.71.23-1.37,0-1-.11.16-.24.07-.28-.2-.11-.64-.28-.17-.26.72,0,.4.07.58.14.41s0,0-.06.43c-.15.56-.24.6-.42.21a1.06,1.06,0,0,1-.06-1.09,1.36,1.36,0,0,0,0-.93c-.08-.21-.21.05-.31.63-.18,1.06-.41,1.33-.43.49,0-.39,0-.4-.14,0s-.22.34-.47-.19-.35-.52-.37-.21c0,.85-.22.54-.25-.44,0-.66-.06-.85-.15-.58s-.18.42-.76.58c-.19,0-.3.33-.29.76a1.67,1.67,0,0,1,0,.69,2.79,2.79,0,0,1-.25-.7c-.2-.8-1-.94-1.09-.2s-.26.54-.28-.44a2,2,0,0,0-.13-.93,4.92,4.92,0,0,0-.08,1.4,4.53,4.53,0,0,1-.08,1.4c-.06,0-.1.31-.09.71s.09.65.19.57.21.22.25.75,0,.82-.12.6-.18-.07-.17.16-.11.22-.28-.08c-.31-.56-.43-2.25-.16-2.26s.11-2.43-.2-2.68-.16,1.14,0,1.37a4.38,4.38,0,0,1,0,1.56l-.15,1.4v-1.4c0-1.33,0-1.4-.47-1.43a.61.61,0,0,1-.55-.34c0-.16-.14-.07-.21.18s-.16.25-.27-.46a6.64,6.64,0,0,0-.38-1.45c-.18-.37-.22-.37-.16,0s0,.51-.3.52-.43.32-.5.72c-.09.57-.09.71,0,.71s.11.13,0,.66-.07.72.17.95.33.16.39,0,.12-.07.12.2c0,.63-.32,1.36-.5,1.1-.08-.11-.14,0-.13.29,0,.75-.49.63-.67-.17s-.1-1.69.11-1.37c.09.14.13-.29.12-1.18s-.07-1.41-.19-1.44a1.74,1.74,0,0,1-.45-.23c-.15-.11-.35.12-.44.49-.17.73-1.08.85-1.1.14,0-.25-.1-.34-.23-.19s-.22,0-.23-.64a1.92,1.92,0,0,0-.13-.89c-.06,0-.1.32-.09.71s-.09.72-.21.72a.55.55,0,0,0-.37.27c-.12.2-.23-.26-.38-1.59-.22-1.81-.49-2.75-.59-2,0,.2-.31.22-.63.06-.6-.31-1-.13-1,.46,0,.17.16.22.33.11.41-.26.45.44.09,1.5-.2.58-.31.65-.43.28s-.17-.33-.2.16-.19.63-.53.56c-.64-.14-.64-.14-.66-.89s-.21-1.35-.36-1a2,2,0,0,0,0,1,1.66,1.66,0,0,1,0,1.11c-.09.24-.21.21-.3-.08s-.27-.39-.43-.26-.32,0-.44-.65-.35-1-.76-1.11c-.61-.23-.9-.63-.47-.64.14,0,.24-.32.23-.72,0-.84-.43-.94-.49-.12,0,.41,0,.4-.06,0,0-.89-.33.27-.31,1.2,0,.36,0,.62-.1.63s-.12-.31-.13-.71c0-.8-.19-1-.27-.26-.11.85-.27.54-.29-.57,0-.75-.09-1.06-.25-1.06s-.2.22-.14.71c.13,1.15.14,1.65,0,1.79s-.13-.41-.16-1c-.08-1.38,0-1.27-1.07-1.43-.8-.12-1.08.27-.67.91.22.33.24,1.7,0,1.71a4.53,4.53,0,0,1-.41-2c0-.71-.15-.88-.13-.18a1.62,1.62,0,0,1-.23.94,2.79,2.79,0,0,0-.42.54c-.12.23-.19,0-.26-.72-.05-.58-.12-.91-.16-.73s-.14.08-.22-.18-.17-.31-.21,0-.11.51-.16.51-.15-1.3,0-1.58.06-.24-.06-.25A.63.63,0,0,1,75,9.35c-.14-.22-.17,0-.15,1.07s0,1.34-.19,1.29-.32-.48-.44-1-.35-.89-.58-.87a.41.41,0,0,1-.43-.32c-.11-.65-.57-.39-.74.41s-.19.69-.29.14-.11-.48-.09.23,0,.84-.22.07-.27-.71-.4-.24-.16.39-.16.14-.16-.35-.34-.24S70.5,10,70.3,9.7s-.38-.4-.42-.1a1.64,1.64,0,0,1-.35.78,1.62,1.62,0,0,0-.28,1c0,.39-.09.68-.22.69s-.23-.22-.19-.66A4,4,0,0,0,68.61,10c-.28-.71-.4-.55-.38.5,0,.8.71,2.52.86,2.12,0-.15.07,0,0,.28s-.11.45-.17.31-.12,0-.15.34-.07.45-.13,0S68.5,13,68.38,13c-.31,0-.59-1.19-.54-2.25,0-.78,0-.9-.49-1s-.61.11-.4,1.32a2,2,0,0,1,0,.78c-.13.36-.38-.42-.35-1.13,0-.37-.09-.73-.23-.81a.8.8,0,0,1-.26-.62c0-.26-.11-.34-.22-.19a2.3,2.3,0,0,1-.89.48c-.56.18-.73.44-1,1.51A10.59,10.59,0,0,0,63.76,13c0,.36,0,.54-.09.4a8.22,8.22,0,0,1-.08-1.66c0-1.15.06-1.42.29-1.42s.24-.19.2-.41c-.11-.65-.78-.9-1-.36-.09.26-.27.31-.39.11-.3-.5-.71-.54-.62-.06,0,.23,0,.32-.15.23s-.28.25-.36.74c-.16.91-.16.91-.31-.11s-.49-1.44-.47-.65c0,.22-.25.43-.56.48a.77.77,0,0,0-.66.67c-.06.46-.13.34-.31-.5-.13-.62-.27-1-.33-.81s-.17,0-.26-.42c-.2-.91-.47-.87-.37,0,0,.4,0,.71,0,.72s-.12-.25-.13-.51-.06-.37-.11-.22-.11.07-.12-.2-.07-.48-.14-.48-.1.14-.05.31c.11.44-.25,1.54-.4,1.18s-.41-.63-.7-.63c-.13,0-.22-.2-.19-.46s0-.35-.16-.17S56,8.9,56,8.61s-.16-.27-.33.23-.39.73-.56.73-.28-.07-.1-.45.18-.42-.09-.44-.28.19-.23.47c.07.44-.1.67-.33.43a1,1,0,0,0-.5-.1.58.58,0,0,1-.52-.41c-.08-.24-.16-.19-.2.12s-.19.4-.34.25-.28-.08-.31.16c-.07.56-.41.1-.55-.74-.08-.45-.16-.49-.31-.13s-.21.33-.21.14,0-.07-.1.33c-.09.63-.1.63-.12,0s0-.62-.11,0-.09.55-.1.07-.11-.54-.37-.33a3.82,3.82,0,0,1-.49.37.63.63,0,0,0-.12.47c0,.21-.07.4-.17.4s-.15-.19-.12-.42-.08-.39-.23-.35a.45.45,0,0,0-.26.43c0,.51-.41.43-.68-.13-.15-.33-.22-.33-.21,0,0,.57-.64.51-.74-.07,0-.2-.16-.07-.28.31-.25.71-.83.89-.84.25a.28.28,0,0,0-.4-.26.33.33,0,0,1-.46-.25c-.09-.51-1.09-.07-1.37.59-.13.31-.27.34-.35.09a1.4,1.4,0,0,0-.51-.64c-.28-.16-.35-.06-.3.41s0,.62,0,.62-.11-.2-.12-.46-.09-.47-.18-.46-.14.21-.1.46,0,.47-.09.47-.18-.18-.18-.39c0-.55-.49-.39-.58.19q-.08.42-.18-.18c-.08-.44-.13-.46-.18-.08s-.14.44-.23.31-.29-.05-.45.15-.36.14-.53-.49c-.22-.81-.6-1.21-.48-.51s-.5.59-.67.05c-.11-.35-.16-.3-.19.19-.07,1-1.36.83-1.52-.19-.12-.81-.42-.61-.55.37,0,.31-.07.26-.08-.13s-.06-.4-.19.18c-.16.76-.18.75-.26,0s-.09-.8-.15,0-.09.71-.23.25-.21-.46-.33,0-.18.47-.33-.28-.21-.82-.51-.32-.65.42-.67-.37c0-.22-.09-.39-.18-.39s-.14.21-.1.47,0,.46-.18.46-.22-.08-.1-.46,0-.47-.25-.46a.47.47,0,0,0-.41.5c0,.28,0,.35-.12.16s-.19.07-.27.56c-.1.71-.17.78-.33.36a3.49,3.49,0,0,1-.18-1.11c0-.41-.08-.49-.3-.28s-.35.09-.4-.41-.13-.57-.2-.4a3,3,0,0,0,0,1c.09.8-.2.85-.29,0-.06-.45-.09-.44-.17.05s-.18.52-.51.08-.45-.44-.59.19-.18.64-.21-.24a10.28,10.28,0,0,0-.1-1.2c-.13-.49-1.45-.52-1.58,0-.08.29-.15.31-.2,0a1.44,1.44,0,0,0-1.46-1.08c-.36.08-.4,0-.23-.35s.07-.38-.28-.2c-1,.53-1.17.51-1.43-.16-.17-.46-.25-.49-.24-.11s0,.42-.13.19c-.17-.42-.36-.57-1.11-.84a8.34,8.34,0,0,1-1-.43c-.31-.16-.46-.09-.41.21s-.06.42-.25.36a.48.48,0,0,1-.34-.37,2.1,2.1,0,0,0-.27-.72c-.28-.48-.68-.29-.58.29a.64.64,0,0,1-.26.61C19.1,6,19,5.84,19,5c-.09-1.1-.44-1.34-.7-.46-.07.27-.13.27-.13,0,0-.52-.23-.69-.82-.63a.35.35,0,0,1-.42-.31.49.49,0,0,0-.34-.44c-.18,0-.32.13-.32.38s-.1.33-.25.14a1.33,1.33,0,0,0-.48-.39,2.27,2.27,0,0,1-.64-.43c-.23-.19-.51-.2-.61,0-.23.44-.7.28-.88-.3-.09-.28-.15-.24-.17.12s-.13.42-.45,0c-.65-.87-1.31-1.07-1.47-.45-.11.42-.15.43-.16,0s-.21-.48-.56-.39-.57,0-.59-.16S9.3,1.05,8,.6A1.12,1.12,0,0,1,7.49.14c-.15-.27-.24-.15-.3.42S7.06,1.24,7,.9,6.64.52,6.46.62,6.1.6,6.1.37c0-.53-2.57-.19-2.77.36a1.08,1.08,0,0,1-.71.51A1.73,1.73,0,0,0,1.7,2.32,2.89,2.89,0,0,1,.92,3.55,2.56,2.56,0,0,0,.18,5.86a2.75,2.75,0,0,1,0,1,5.61,5.61,0,0,0,0,1.42,11,11,0,0,1,0,1.7,54.3,54.3,0,0,0-.1,6A10,10,0,0,1,.1,17.66a2.62,2.62,0,0,0,.08,1.06,5.18,5.18,0,0,1,.11,1.5,20.57,20.57,0,0,0,.13,2.37c.09.62.09.78,0,.56s-.12-.09-.12.16a2.59,2.59,0,0,0,.13.75,6.92,6.92,0,0,1,.14,1.35c0,1.15.49,2.45.69,1.9.07-.18.18-.14.26.09a3.08,3.08,0,0,0,.85,1,2.5,2.5,0,0,1,.76.9c0,.17.4.29.82.27s.77.15.76.4c0,.44,1.46,1.84,2.36,2.26.24.11,1.14.66,2,1.19s1.6.89,1.67.76c.17-.3.36-.2.34.18,0,.14.63.5,1.4.79l2.09.77c.37.14.69.33.71.43s.11-.2.18-.65c.11-.71.13-.72.15-.07s.13.77.41.79a.36.36,0,0,0,.37-.41c0-.24.07-.44.16-.44s.18.3.18.7.09.71.19.71.13-.2.09-.45a1.72,1.72,0,0,1,0-.73c.06-.16.12,0,.13.44,0,.6.11.7.56.54s.57-.05.6.12.35.36.72.41c.55.08.66,0,.6-.57a2.94,2.94,0,0,1,.05-1c.09-.25.11-.19.06.2a3.16,3.16,0,0,0,.15,1.22c.26.77,1.62.9,1.92.18.14-.33.24-.28.36.2.22.84,1.06,1.12,1,.34s.29-.71.38.13c.05.39.2.7.34.7s.26-.29.25-.72c0-.88.19-.89.3,0s.46.83.5-.24c0-.53.11-.93.21-.93s.35,1.24.27,1.9c0,.22,0,.4.06.4A4,4,0,0,0,26,37.18c-.09-.52.43.08.53.61.05.27.17.22.32-.14s.28-.44.47.43c.27,1.28,1.42,2,1.29.77-.06-.53,0-.75.13-.75s.23.2.23.48.06.37.11.22.13,0,.18.22c.12.71,1.07.51,1.42-.3s.33-.66.63.21.38.84.68.47.38-.3.4-.1c0,.44,3.09.34,3.19-.11,0-.17.14-.08.23.22s.21.3.37-.5c.11-.58.28-.91.37-.76s.23.26.32.26.24.3.34.7c.26,1,.77,1.34.67.43s0-.89.25.13c.14.7.17.71.26.08s.1-.53.11-.11.09.59.19.59.13-.21.09-.47,0-.48,0-.51l.33-.16c.14-.06.25,0,.26.22a1,1,0,0,0,.22.55c.17.16.2,0,.14-.54,0-.4,0-.22.18.4.22,1,.28,1,.36.45s.1-.48.11-.11.06.58.12.57.11-.31.1-.71,0-.63.28-.4.32.08.35-.19c.06-.47,1.29.28,1.56,1,.07.17.16.08.19-.19s.22-.36.45-.18.38.1.37-.15.28-.42.63-.41c.52,0,.63.17.63.85,0,.52.08.82.2.82s.18-.27.13-.94a3.76,3.76,0,0,1,0-.93,3.85,3.85,0,0,1,.94,1.67c.09.42.18.47.29.15a1,1,0,0,0,0-.87c-.23-.58.13-1.06.5-.68a2.57,2.57,0,0,1,.54,1.64c0,.12.09.16.25.08A1.91,1.91,0,0,0,48.31,40c.13-.86.2-.94.46-.53s.56.54,1.19.43a1.4,1.4,0,0,1,1.51.57c.13.33,1.73.1,2.14-.31.14-.14.34-.07.45.18s.24.25.31-.05.17-.35.33,0c.29.61.64.68.54.11,0-.22.42-.39,1-.37s1.12-.14,1.18-.34.24-.19.39,0,.39.3.54.21c.48-.29.8-.16,1,.39.12.38.15.34.14-.15s0-.45.08-.15c.11.57,1.72.58,1.81,0,0-.21.16-.17.28.09a1.61,1.61,0,0,0,1.27.5,16.61,16.61,0,0,1,1.76.12,1.57,1.57,0,0,0,1.08-.23c.19-.17.38-.16.41,0,.1.57.62.9.68.43a.59.59,0,0,1,.6-.41c.42,0,.54-.17.48-.61s0-.29.08.11.29.72.43.74c3.56.46,3.55.46,3.54-.25s0-.58.17,0c.24.93.68,1.26,1.79,1.36.64.06.9-.07.82-.39-.2-.75-.15-1.16.14-1.17s.29.19.29.44c0,.85.87,1.5,2.12,1.62a7.56,7.56,0,0,1,1.57.27c.15.08.3-.06.34-.31s.17-.27.36.08.35.4.57-.13.3-.6.51.35c.12.57.22.76.21.44,0-.71.73-.85.8-.15,0,.23.15.32.28.19s.21-.51.15-1.14-.11-.78-.16-.66-.17.1-.28-.06a.63.63,0,0,1,0-.68c.08-.22.26-.41.39-.41s.25.17.21,1.1a5,5,0,0,0,.09,1.42c.07.18.12-.05.1-.53,0-.67,0-.72.09-.23.17,1,.83,1.11,1,.2s.38-.49.4.53a2.09,2.09,0,0,0,.19.88c.09.15.14.09.1-.14a.66.66,0,0,1,.26-.6c.18-.11.34,0,.37.26s.1.29.18.06A1.76,1.76,0,0,0,84.82,42c-.34-1-.28-1.33.23-1.42s.62-1.24.13-1.43c-.28-.11-.37-.36-.38-1.07s0-.9.37-.76a.92.92,0,0,1,.47.61c0,.28.16.22.3-.17.26-.73.63-.07.64,1.12,0,.45,0,.62.15.47s.15,0,.16.28,0,.53.12.53a3.43,3.43,0,0,0,.08-1.22c0-.75-.08-1.13-.16-1s-.28-.16-.45-.63a8.44,8.44,0,0,1-.36-2.94c-.05-2,.12-3.08.2-1.29,0,.44.05,1,.07,1.26s0,.69,0,1,.15.47.3.39.31,0,.35.28.18.42.33.42.29.24.32.57.09.45.18,0a5.87,5.87,0,0,0-.33-3c-.26-.54-.32-.53-.39,0-.06.4-.1.49-.1.2a10.53,10.53,0,0,1,.12-1.39c.14-.87.15-.88.38-.06.14.49.3.76.38.62s.08-.26,0-.29-.27-.75,0-2c.2-.89.23-.91.36-.21s.16.71.29,0c.17-1,.43-.94.43.08,0,1.72.07,2.4.22,2.15a6.24,6.24,0,0,0,.08-2c0-1.33,0-1.71.09-1.53s.15-.07.14-.56,0-.7.16-.51.2,0,.23-.74.06-.9.17-.36c.21,1.06.51,1.39.56.61.07-1.06.49-.85.52.26a2,2,0,0,1-.09.93c-.06,0-.12-.22-.12-.48s-.11,0-.24.49-.3.86-.4.69c-.58-1-.77-.54-.79,1.77,0,1.82.28,3.4.42,2.26.09-.67.21-.66.44,0,.1.33.14.27.13-.22a6.19,6.19,0,0,1,.14-1.31c.14-.55.16-.52.15.24a2.47,2.47,0,0,0,.13,1.06c.09.12.12-.14.09-.67s0-.87.25-.89a.46.46,0,0,0,.37-.34.23.23,0,0,0-.22-.31c-.15,0-.32-.19-.36-.43a.35.35,0,0,1,.37-.43h.43l-.13,1.31a6.76,6.76,0,0,1-.25,1.49c-.26.39.08,2.15.62,3.2l.55,1.08-.07-1.06c-.09-1.38-.5-2.31-.62-1.41,0,.42-.09.11-.11-.91A6,6,0,0,1,92,32.69a2.76,2.76,0,0,0,.14-1.07c0-1.11.1-1.48.28-.88.09.29.15.35.15.14s.12.1.28.68.37.93.46.79.19-.12.22.08c.08.47.38.35.73-.29.24-.45.25-.51.05-.84a8.46,8.46,0,0,1-.72-2.68c-.06-.54,0-.76.14-.76s.22.2.23.48.08.15.17-.29A2.77,2.77,0,0,0,94.17,27c-.19-.55-.2-1.48,0-1.48s.16.27.13.66c-.06.88.22,1.74.44,1.36s.16-.37-.06-1a2.18,2.18,0,0,1-.13-1.33c.06-.35.19-.66.27-.67s.14-.31.14-.71c0-.88-.08-.87-.4.1-.2.58-.32.64-.53.25s-.29-.35-.33.25a3.5,3.5,0,0,0,.09,1.11.66.66,0,0,1,0,.69c-.12.21-.23.11-.29-.28s-.13-.53-.26,0c-.09.34-.17.42-.18.16a4.57,4.57,0,0,1,.15-1,2.91,2.91,0,0,0,.08-1,2,2,0,0,1,.12-.87c.16-.41.15-.47-.12-.48s-.29.2-.28,1,0,1-.58.76a1.62,1.62,0,0,1-.83-.71c-.13-.29-.26-.38-.29-.22s-.14,0-.23-.26-.24-.5-.32-.46-.24-.07-.35-.25-.28-.07-.39.42c-.24,1-.29,1-.38-.19,0-.6-.17-.92-.35-.92-.37,0-.61-1.06-.41-1.82.1-.38.17-.4.23-.06s.12.39.17.26.15.07.24.46c.2.92.79.7,1-.37.13-.75.2-.78.6-.3.25.29.51.5.58.45s.17.13.22.42.12.35.23-.05.19-.42.31,0,.28.4.45.23.28-.1.29.22.09.5.18.5c.27,0,.15-2.66-.13-3a1.49,1.49,0,0,1-.24-.76c0-.25.06-.29.14-.1.2.52.34.53.55.06.1-.22.21-.21.25,0a1,1,0,0,1-.15.67c-.28.32-.25,1.27,0,1.26s.82,1.37.75,1.94c0,.2,0,.39.07.39s.11-.22.11-.47.13-.34.33-.18.39,0,.54-.59.24-.71.29-.34a1.78,1.78,0,0,0,.4.84c.24.23.33.12.37-.43s.19-.74.58-.75a.6.6,0,0,1,.61.46c0,.25.23.46.41.45s.33.21.33.46.09.46.18.46.14-.18,0-.93-.1-.93,0-.93.21.2.28.48c.17.68.49,0,.43-.94,0-.4-.11-.75-.17-.75-.3,0-.25-.59.07-.91.53-.54.56-.55.69-.29a1,1,0,0,0,.4.38,1.35,1.35,0,0,1,.45.41,1.86,1.86,0,0,0,.24.33,4.56,4.56,0,0,1,.27.85c.12.45.26.69.32.54a.93.93,0,0,0-.14-1Zm-3.18.1c0,.17-.16,0-.29-.46-.17-.59-.25-.65-.34-.24-.15.72-.51.75-.52.06,0-.39,0-.39-.16,0-.16.63-.34-.1-.27-1.12,0-.47.2-.57.68-.4a1.77,1.77,0,0,1,.9,2.14ZM94.21,18.4a4.7,4.7,0,0,1,0-1.13c0-.71.07-.73.17-.16s0,1.83-.14,1.29Zm-1,10.53c-.17-.26-.24-1.06-.09-1.06s.25.5.26,1c0,.2-.07.24-.17.09ZM92.67,30c-.14,0-.25-.22-.26-.57s0-.62.09-.62.18-.14.28-.32.17-.09.15.57-.11.91-.26.94ZM92.58,27c-.06,0-.12-.33-.13-.73s0-.6.1-.44a2.39,2.39,0,0,1,.13.73c0,.25,0,.44-.1.44Zm-.47,2c0,.14-.21-.26-.38-.86a5.08,5.08,0,0,0-.4-1.12c-.16,0-.11-1.3.06-1.59.27-.46.29-.37.24.92,0,.71,0,1.08.05.92.24-.66.62.86.43,1.73ZM90.56,18.62c-.09,0-.15-.21-.11-.47s.1-.47.16-.47.11.2.12.47-.07.46-.17.47Zm-.12,9.31c-.09,0-.17-.2-.17-.46s.06-.47.15-.47.18.2.18.46-.06.47-.16.47Zm-1.16-10c0,.16-.11.07-.11-.2s0-.48.1-.49.11.09.11.2a1.38,1.38,0,0,1-.1.49Zm0,6.32c-.07,0-.12-.2-.13-.46s0-.47.11-.47.11.2.12.46,0,.47-.1.47Zm-.44.38c.35.22.23,1.22-.15,1.23s-.32-.15-.37-1.61c0-.89-.06-1.65-.07-1.69s-.2.1-.44.3-.44.24-.47-.39,0-.66-.06,0c0,1.11-.43,1.41-.58.46-.06-.4-.11-.52-.11-.26,0,.69-.6.54-.82-.2-.1-.33-.19-.41-.19-.18a.24.24,0,0,1-.38.25c-.3-.14-.4-.42-.41-1.12s0-.91.48-.73.66-.21.29-.76c-.15-.23-.16-.42-.07-.88s.15-.44.23,0a1,1,0,0,0,.56.75,1.24,1.24,0,0,1,.65.87c.25,1,.4,1,.38-.05,0-.76,0-.76.15,0,.25,1.21.46,1,.36-.32-.07-.88,0-1.16.15-1.37.33-.39.5.42.23,1.17s-.28,1.58,0,1.18c.1-.16.31.05.5.47a2,2,0,0,1,.14,1.73c-.19,1-.19,1,0,1.12Zm-1.36-6.42c-.47,0-.52-.77-.07-1,.21-.11.41-.1.44,0,.12.45-.08,1-.37,1Zm-.36-3.49c-.18-1.46-.17-1.89,0-1.44a8.73,8.73,0,0,1,.14,1.57l0,1.28-.17-1.41Zm0,10.51c-.07,0-.12-.09-.12-.22a1.7,1.7,0,0,1,.1-.51c0-.15.11-.05.12.22s0,.51-.1.51Zm-.07,3.7a6.12,6.12,0,0,1-.76-2.71,1.39,1.39,0,0,0-.1-.8c-.28-.43-.24-1.24,0-.88s.21.14.15-.2,0-.51.06-.51a6.12,6.12,0,0,1,.33,2.78c-.07.35,0,.49.08.49s.28.57.33,1.5c0,.19,0,.34-.13.33ZM87,30.64c-.09-.14-.07-.26.06-.29s.18.09.15.24-.13.19-.21.05Zm-.58-17.08c-.12.28-.21.31-.21.07a1.11,1.11,0,0,1,.2-.67c.13-.14.22-.17.22-.07a2.24,2.24,0,0,1-.21.67Zm.36,19.08a2.59,2.59,0,0,1-.14-.81c.08-.33.31.34.32.92,0,.3-.06.25-.18-.11Zm-.86-14.08a3.44,3.44,0,0,1,0-.89c0-.35,0-.24.07.29s0,.76,0,.6Zm-.07,8.76c-.27.09-.46-.95-.3-1.68.07-.34.18-.33.36.05.31.64.27,1.52-.06,1.63Zm-.69-10.16c-.09-.14-.07-.25.06-.27s.18.1.15.24-.13.17-.21,0ZM85.6,33.8c-.16,2.66-.37,3-.7,1s-.38-3.9-.14-3.9c.09,0,.17.22.18.5s.14.42.39.25c.43-.29.43-.29.27,2.2Zm-.42-13.69c-.09,0-.14-.21-.11-.47s.1-.46.16-.47.11.2.12.47-.07.46-.17.47Zm0,6.77c-.06-.14-.16.08-.23.48-.11.66-.14.63-.29-.35-.09-.57-.16-.78-.16-.44,0,.5,0,.52-.16.07s-.18-.46-.17-.3-.16,0-.34-.22a2.62,2.62,0,0,1-.37-1.56,4,4,0,0,0-.37-1.77c-.18-.37-.34-.49-.33-.26s-.07.42-.16.43-.18-.28-.19-.64a2,2,0,0,0-.18-.91,1.65,1.65,0,0,1-.18-.75c0-.28.06-.49.15-.49s.16-.38.15-.87c0-.71.05-.85.41-.78s.45-.09.49-.9c0-1,0-1,.17.09a4.55,4.55,0,0,0,.33,1.35,4.24,4.24,0,0,1,.56,2c0,.2,0,.25.18.1.27-.33.29.38,0,1.13-.12.34-.21.42-.22.19,0-.68-.55-.43-.6.28-.07,1,0,1.39.48,1.72a1.06,1.06,0,0,1,.4.7.93.93,0,0,0,.29.61c.16.13.27,0,.27-.31s0-.22.1.13c.13.75.09,1.6-.06,1.23Zm-.77-9.55c-.15,0-.2-.23-.17-.71s.09-.57.22-.16c.21.69.2.86,0,.87ZM84.25,36c-.14,0-.22-.31-.23-.93a2,2,0,0,0-.13-.93c-.07,0-.12-.39-.13-.93,0-1,0-1.1.32-.46a2.68,2.68,0,0,1,.18,1.1,2,2,0,0,0,.14.92c.24.37.13,1.22-.15,1.23Zm-.6,2.49a.51.51,0,0,1-.52-.29A10.1,10.1,0,0,1,83,35.54c.06,0,.11.29.12.68s.13.72.29.75l.42.11c.15.05.34.84.27,1.14,0,.12-.25.23-.49.23Zm-.89-20.76c-.29-.08-.32-.18-.18-.65s.21-.43.33,0c.23.78.23.78-.15.67ZM83.38,36c-.06,0-.11-.2-.12-.47s0-.46.1-.46.11.19.12.46,0,.46-.1.47Zm-.51-8.82c-.15,0-.24-.52-.19-1.19,0-.35.09-.55.14-.42a3.43,3.43,0,0,1,.05,1.61Zm0,11.62c-.1,0-.17-.28-.18-.68s-.08-.69-.18-.69-.14-.26-.11-.7c.07-1,.3-.85.46.34.19,1.42.2,1.73,0,1.73Zm-.24-3.48c-.06.17-.12-.17-.13-.79,0-.89,0-1,.1-.38.15.84.15.84,0,1.17Zm-.42-7.88c-.2.78-.32.86-.76.53a1.27,1.27,0,0,1-.54-.74,1.53,1.53,0,0,1,.56-.86,4.63,4.63,0,0,0,.75-.81c.28-.48.27.77,0,1.88Zm-.66-11.69c-.05.14-.23.06-.42-.17s-.25-.42-.16-.44.22-.45.29-1,.17-.84.23-.69a6.72,6.72,0,0,1,.06,2.28Zm.29,20c-.19-.21-.21-.16-.09.18.24.64.33,2.41.13,2.41s-.25-.33-.35-.72A3.61,3.61,0,0,1,81.41,36c.15-1.21-.23-2.91-.62-2.7s-.29,0-.34-1.47,0-1.5.08-.69c.21,1.33.36,1.62.57,1.11.13-.31.27-.3.43,0a2.42,2.42,0,0,1,.13,1.75c-.1.45-.08.58,0,.58s.26.44.33,1.28c0,.07-.1,0-.24-.15Zm-.55-14.16a1.26,1.26,0,0,1-.13-.46c0-.25,0-.47,0-.47s.12.21.12.47a1.26,1.26,0,0,1,0,.46ZM80.1,17.2c-.12-.4-.26-.7-.33-.7s-.14-.17-.14-.4c0-.49.55-.41.76.12a1.6,1.6,0,0,1,0,1c-.1.57-.14.57-.31,0Zm.47,22.47c0,.67,0,1,0,.67s-.14-.57-.22-.57-.17-.44-.18-1c0-.71-.07-.9-.19-.69s-.19,0-.24-.63a2.14,2.14,0,0,0-.19-.93c-.06,0-.08-.22,0-.49a6.83,6.83,0,0,0-.13-1.59c-.26-1.5-.26-1.61.05-1.29s.39.75.4,2.48c0,1.19,0,1.38.23,1.17s.39.1.61.51c.36.67.38.79.18.93s-.23.52-.22,1.4ZM79.77,23c-.36,0-.47-.19-.53-.92-.08-.89-.29-1.33-.27-.57a.56.56,0,0,1-.38.47c-.24.08-.37-.06-.33-.35s0-.46-.06-.46-.12-.26-.13-.62.12-.64.34-.67a5.61,5.61,0,0,0,1-.31c.37-.15.64-.07.64.19s-.11.44-.27.44-.27.2-.27.45.09.32.19.15.16-.11.12.2a1,1,0,0,0,.16.73c.4.43.27,1.26-.2,1.27ZM79.7,40.87c-.25.28-.42.05-.43-.59a.4.4,0,0,1,.33-.41c.37,0,.44.6.1,1ZM79,14.26c-.16.73-.34.09-.3-1s.43-1.28.42-.23A8.84,8.84,0,0,1,79,14.26Zm.4,24.64c0,.26-.08.45-.21.45s-.31-.74-.11-1.13a.49.49,0,0,0-.12-.55c-.37-.43-.34-1.1,0-1.11s.5.38.45,1.28c0,.35,0,.81,0,1.06Zm-.3-6.38c-.11.17-.17,0-.18-.39s0-.57.16-.4a1.15,1.15,0,0,1,.18.39,1.05,1.05,0,0,1-.16.4Zm0,9.62c-.06,0-.11-.09-.11-.21a1.53,1.53,0,0,1,.1-.52c0-.15.11,0,.11.22s0,.51-.1.51Zm-.79-25c-.1-.4-.17-.35-.25.18s-.14.62-.4-.23-.27-1-.13-1.42.25-.35.38-.2a4.1,4.1,0,0,1,.6,1.93c0,.16-.12.05-.2-.26Zm.49,18c-.16,0-.42-.9-.44-1.49,0-.19.12-.36.27-.36s.28.24.29.92,0,.93-.12.93ZM78.25,14a4.73,4.73,0,0,1-.12-1.08c0-.65,0-.62.1.13.15,1.24.15,1.27,0,1Zm.31,11.86a2.4,2.4,0,0,1-.23-.66c-.2-.77-.09-1.36.12-.67.16.52.23,1.33.11,1.33Zm.08,5.83c0,.15-.11-.07-.12-.47s0-.61.1-.46a1,1,0,0,1,0,.93ZM78.5,41.76c-.09-.34-.1-.53,0-.53s.28.52.22.83c0,.13-.12,0-.2-.3Zm-.17-8.91c-.06,0-.12-.31-.12-.71s0-.71.09-.71.12.31.13.71,0,.71-.1.71Zm-.41-6.42c.11,1-.09,1.4-.27.58-.22-1,0-3.77.22-3a2,2,0,0,1,.07,1.12,6.1,6.1,0,0,0,0,1.29Zm0,4.08c-.06,0-.11-.09-.11-.2a1.77,1.77,0,0,1,.1-.49c.06-.16.11-.07.11.2s0,.49-.1.49Zm-.34-10c-.06.16-.17.09-.23-.16a.81.81,0,0,1,.11-.72c.24-.27.32.32.12.88Zm.32,13.9c-.06.16-.13.07-.18-.19s0-.47.09-.47.24.27.09.66Zm-.72-12.31c-.06,0-.09-.21-.06-.46s0-.47-.06-.47S77,21,77,20.68s0-.34.17.07c.2.67.24,1.39.07,1.39Zm-.41,5.11a3.83,3.83,0,0,1-.31-1.34l-.2-1.4h.38a.46.46,0,0,1,.39.51c0,.3-.08.41-.22.27s-.21-.12-.09.42c.08.35.22.55.3.41s.22-.09.29.09a1,1,0,0,1-.54,1.05Zm0-10.69c-.06,0-.12-.32-.13-.72s0-.61.1-.45a2.45,2.45,0,0,1,.13.73c0,.25,0,.44-.1.44Zm.14,16.76c-.06,0-.11-.19-.12-.46s0-.47.1-.47.12.2.12.47,0,.46-.1.46Zm0,4.9c-.05.16-.11-.06-.12-.46s0-.62.1-.47a1.47,1.47,0,0,1,.12.47,1.6,1.6,0,0,1-.1.46Zm-.08-1.61a1.08,1.08,0,0,1-.13-.47c0-.24,0-.46,0-.46s.13.22.13.46,0,.47,0,.47ZM76,22.66a8.22,8.22,0,0,1-.21-1.33c.07-.34.41,1.06.43,1.76,0,.47-.07.32-.22-.43Zm-.25,4.41a1.38,1.38,0,0,1,0-.79c.05-.27.16-.33.24-.14a1.41,1.41,0,0,1,0,.8c-.05.26-.16.32-.24.13Zm0-6.27a1.26,1.26,0,0,1-.13-.46c0-.25,0-.47,0-.47s.13.22.13.46,0,.47,0,.47ZM76,35.69c-.06,0-.11-.19-.12-.46s0-.47.1-.47.12.2.12.47,0,.46-.1.46Zm-.19,1.38c-.06,0-.11-.22-.12-.48s0-.36.11-.2a2.23,2.23,0,0,1,.12.48c0,.12,0,.2-.11.2ZM75,16.38c-.23.31-.44,0-.46-.7,0-.25.14-.44.33-.45.38,0,.46.7.13,1.15Zm.1,4.19c-.06.16-.12,0-.12-.44s0-.73.09-.73.11.18.12.44a2.6,2.6,0,0,1-.09.73Zm-1,0c-.21-1-.25-1.63-.11-1.64s.26.58.27,1.55,0,1-.16.09Zm-.28-2.12c-.09,0-.14-.19-.1-.46s.12-.47.22-.47.14.19.1.46-.12.47-.22.47Zm.28,15.67c-.09-.14-.06-.25.06-.27s.18.1.15.24-.14.15-.21,0ZM73.45,26c-.31-.66-.38-2.17-.08-1.64a.6.6,0,0,0,.46.32l.26,0-.2.93c-.16.77-.24.85-.44.42Zm0-5.64c-.1,0-.18-.2-.18-.46s.06-.47.15-.47.18.2.18.46-.06.47-.15.47Zm-.22-6.2c-.17.46-.66.56-.8.16a1,1,0,0,0-.4-.51,1,1,0,0,1-.32-.68c-.09-.9.27-1.12.74-.47.29.41.47.47.53.17.11-.51.35-.14.37.57a2.69,2.69,0,0,1-.12.76Zm.28,19.24a1.39,1.39,0,0,1-.12-.47c0-.25,0-.46,0-.46s.12.21.13.46,0,.47,0,.47ZM73,21.79c-.07,0-.12-.31-.13-.71s0-.71.1-.71.11.31.12.71,0,.71-.09.71Zm-.43-.32c0,.14-.18-.15-.3-.68-.21-.89-.21-.92,0-.65s.25.08.29-.2.1-.49.16-.49a5.7,5.7,0,0,1-.16,2ZM72.39,26a1.07,1.07,0,0,1-.13-.46c-.05-.24,0-.47,0-.47s.12.22.13.47a1.13,1.13,0,0,1,0,.46Zm-.33,8c-.06,0-.12-.2-.12-.47S72,33,72,33s.11.19.12.46,0,.47-.1.47Zm-.6,2.8c-.24,0-.41-.72-.26-1.14s.45.16.46.7c0,.24-.08.44-.2.44Zm-.92-.89c-.05.49-.15.78-.22.63a2.09,2.09,0,0,1,0-1,3.26,3.26,0,0,0,.08-.79c-.51-1.31-1.16-2.1-1.6-1.93s-.55,0-.66-.74a4.92,4.92,0,0,1,0-1.62c.1-.61.14-.58.37.26.15.55.3.78.36.55.15-.64,1.05-.07,1.07.68a2.1,2.1,0,0,0,.21,1,6.79,6.79,0,0,1,.51,1.91c0,.07,0,.56-.1,1ZM69.42,20c-.12,0-.2.3-.19.69s0,.69-.1.69-.1.31-.09.71c0,.93-.17.84-.28-.13-.07-.66-.1-.68-.18-.11s-.14.47-.39-.59c-.3-1.27-.53-1.61-.51-.74,0,.26-.06.33-.14.14s-.11-.4,0-.53a1.88,1.88,0,0,0,.06-.78c0-.45.06-.58.47-.54s.53.21.52.76.07.71.19.71.18-.27.13-.85,0-.84.38-.85.44.13.4.7c0,.4-.14.71-.25.72Zm-1,16.29c-.08,0-.19-.2-.23-.44-.1-.55.09-1.11.25-.73s.16,1.17,0,1.17Zm-1-3.07c-.29.34-.45-.18-.37-1.29,0-.62.08-.66.17-.18s.13.5.17,0c0-.7.25-.31.27.53a1.61,1.61,0,0,1-.24.9Zm-1-12.38c-.13,0-.26-.13-.3-.39s-.13-.28-.21,0c-.12.5-.62-.52-.63-1.31s.35-1,.49-.28c.08.4.17.55.2.33s.18-.33.34-.2c.35.26.43,1.72.11,1.83Zm.24,9.7c-.23-.13-.34-1-.18-1.41s.34.1.36.9c0,.35-.07.57-.18.51Zm-.48-15.13c-.22,0-.3-.48-.18-1.06.08-.38.38.13.4.66,0,.23-.09.4-.22.4Zm0,15.88c-.15-.59-.06-1.23.12-.79a1.89,1.89,0,0,1,.07.78c0,.31-.11.32-.19,0Zm-.61-6.73c-.13.62-.15.63-.17,0a2.28,2.28,0,0,1,.15-1c.09-.16.16-.17.16,0a7.22,7.22,0,0,1-.14,1Zm-.61-12.85c-.12,0-.19-.89-.09-1.15s.11,0,.12.42a3.21,3.21,0,0,1,0,.73Zm-.15,4.18c-.08,0-.16-.22-.16-.47s.09-.46.21-.47.2.2.17.47-.13.46-.22.47Zm.55,20.87c-.26,1.42-.68,1.5-.87.15s-.44-2-.53-1.32c0,.37-.08.25-.09-.33a10,10,0,0,0-.23-1.75c-.11-.48-.14-.83-.07-.84.24,0,.29-.08.44-.69.08-.37.32-.58.54-.48a3.17,3.17,0,0,0,.59.19c.11,0,.2.34.21.72,0,.57-.11.69-.62.59s-.64,0-.66.71,0,.73.15.52.17,0,.18.29.08.46.16.33.25,0,.39.41.26.49.3.17c.07-.58.26-.61.27,0a10,10,0,0,1-.16,1.38Zm-.63-17.84a2.38,2.38,0,0,1-.13-.72c0-.26,0-.45.1-.45s.12.33.13.73,0,.6-.1.44Zm-.19,1.63c-.06,0-.12-.33-.12-.73s0-.6.1-.45a2.53,2.53,0,0,1,.12.73c0,.25,0,.45-.1.45Zm0,9.22c0-.07-.1-.53-.2-1-.17-.84-.17-.85.08-.26a2.46,2.46,0,0,1,.2,1c0,.24-.06.35-.08.27ZM63.78,19.4a4,4,0,0,1-.13-1c0-.39,0-.56.1-.4a3.47,3.47,0,0,1,.14,1c0,.39,0,.56-.11.4ZM63,29.19a1.56,1.56,0,0,1-.06-.71c0-.26.1-.34.17-.18a1.71,1.71,0,0,1,.06.71c0,.27-.1.34-.17.18Zm-.27-7.91c-.06.17-.11.09-.12-.17a2.69,2.69,0,0,1,.1-.76c.06-.16.11-.09.11.18a2.33,2.33,0,0,1-.09.75Zm.33,15.14c-.06,0-.12-.19-.12-.44a2.31,2.31,0,0,1,.09-.74c.06-.15.11,0,.12.44s0,.74-.09.74ZM62.79,33c-.08.1-.11-.28-.09-1,0-1.64.23-2,.22-.4A5,5,0,0,1,62.79,33ZM62,19.13c-.16-.36-.21-.62-.12-.74.2-.3.5.25.44.8,0,.31-.15.29-.32-.06Zm.61,16.12c-.06-.15-.1.25-.09.91,0,1.08,0,1.2-.37,1.21-.69,0-1.17-1.81-.67-2.51.27-.37.57.1.59.92,0,.37.09.66.18.66s.13-.22.09-.49c-.13-.8,0-1.85.19-1.56a1.61,1.61,0,0,1,.19.71c0,.25,0,.32-.11.15ZM61.27,15.53c-.06,0-.12-.24-.12-.51s0-.37.1-.22a1.5,1.5,0,0,1,.12.5c0,.13,0,.23-.1.23ZM61,25a2.32,2.32,0,0,1-.12-.7c0-.24,0-.42.1-.43s.11.31.12.71,0,.59-.1.42Zm-.26-6.51c-.05.16-.1.07-.11-.2s0-.48.1-.49.11.09.11.2a1.38,1.38,0,0,1-.1.49Zm.16,12.3c-.13-.75-.08-1.09.09-.66a2,2,0,0,1,.07.79c0,.32-.1.27-.16-.13Zm-.29,1.67c-.06.16-.11.07-.12-.19s0-.49.1-.49.11.08.12.19a1.64,1.64,0,0,1-.1.49Zm-.55-13.87c-.09-.14-.06-.25.06-.26s.19.09.15.24-.13.15-.21,0ZM59,30.54c-.09-.35-.1-.55,0-.55s.28.55.21.88c0,.13-.1,0-.19-.33ZM58.7,31c-.24.1-.47-.12-.59-.56-.07-.26,0-.42.3-.43s.62.85.29,1Zm0,6c-.14,0-.2-.22-.17-.71s0-.7-.43-.7-.76-.59-.46-1.09.68-.33.77.29c0,.44.08.44.12,0,.1-1.16.35-.63.37.79,0,1.06,0,1.42-.2,1.42Zm-.36-12.36a1.57,1.57,0,0,1-.05-.71c0-.27.09-.34.16-.18a1.56,1.56,0,0,1,.06.71c0,.26-.1.34-.17.18Zm-.3-4.39c-.13,0-.23-.19-.23-.46s.08-.46.21-.47.22.2.23.46-.09.47-.21.47Zm0,13.29c-.27-.16-.34-.73-.09-.74s.25.18.25.42-.06.38-.16.32Zm-1-18c-.39.08-.79-.74-.45-.9.69-.34.86-.29.87.25a.58.58,0,0,1-.42.65Zm0-3.93a1.48,1.48,0,0,1-.17-.68c0-.24,0-.42.15-.42s.17.28.18.68-.06.58-.16.42Zm.43,25.77c-.15.31-.31.47-.34.36-.09-.35.25-1.61.44-1.62s.21.63-.1,1.26Zm.21,1c-.06,0-.12-.2-.12-.47s0-.46.1-.46.11.19.12.46,0,.47-.1.47Zm-.41-5.94c-.33-.26-.35-.65-.1-1.72.18-.76.2-.76.26,0,.14,1.72.13,1.91-.16,1.68Zm-1,.38c-.24,0-.51-1.2-.39-1.76.07-.32.63.87.64,1.36,0,.22-.1.4-.25.4Zm-.54-11.16a2.23,2.23,0,0,1-.12-.95c0-.8,0-.85.15-.34s.15,1.28,0,1.29Zm.43,14.19c-.06.16-.15,0-.2-.45-.09-.89,0-1.39.16-1a2.43,2.43,0,0,1,0,1.41ZM56,38c-.07,0-.12-.09-.12-.22a1.76,1.76,0,0,1,.1-.51c.06-.15.11,0,.12.22s0,.51-.1.51Zm-2.2-25.74a1,1,0,0,1-.58-.76c0-.35,0-.46.07-.27s.13,0,.12-.4c0-.91,0-.91.5.06s.52,1.59-.11,1.37Zm.54,20.63c-.11,0-.25-.33-.29-.74s0-.67.1-.47.23.28.28.28.11.2.11.46-.08.47-.2.47Zm-.64-14a3.58,3.58,0,0,1-.21-1.77c0-.18.12,0,.19.39.15.89.16,1.38,0,1.38Zm-.19,6.92c-.12-.71-.07-1.05.1-.65a2.08,2.08,0,0,1,.06.78c0,.31-.09.27-.16-.13Zm0,6.61c-.06,0-.11-.2-.12-.47s0-.46.1-.46.11.19.12.46,0,.47-.1.47Zm-1.27,3a1.59,1.59,0,0,1,0-.71c0-.27.09-.34.16-.18a1.51,1.51,0,0,1,.06.7c0,.27-.1.34-.17.19Zm-.5-5.31c-.09,0-.16-.22-.17-.47s.09-.46.22-.47.2.2.16.46-.13.47-.21.48Zm-.16-7.89c-.1,0-.18-.31-.19-.71,0-1.23.2-.85.34.57,0,.07-.06.13-.15.14Zm-1.55-1.39c-.07,0-.06-.29,0-.69s.17-.69.23-.69.06.29,0,.69-.17.69-.23.69Zm-1.76-.65c0,.16-.1.07-.11-.2s0-.48.1-.49.11.09.11.2a1.38,1.38,0,0,1-.1.49ZM47,36.32c-.06,0-.11-.19-.12-.46s.07-.47.16-.47.15.21.12.46-.1.47-.16.47ZM44,19.63c-.06,0-.11-.2-.12-.46s0-.47.1-.47.12.19.12.46,0,.47-.1.47ZM41.55,35.71c-.26-.41-.15-1.11.13-.81a.79.79,0,0,1,.15.67c0,.23-.18.29-.28.14Zm-7,1.33a3.39,3.39,0,0,1,0-1.54c.1-.17.13,0,.11.65a7.77,7.77,0,0,1-.07.89Zm-2.7-18.72c-.08-.14-.06-.25.07-.27s.18.1.15.24-.13.16-.22,0ZM20,5.54c-.09-.15-.06-.25.06-.27s.18.1.15.24-.13.15-.21,0ZM13.55,35.19c-.16,0-.29-.2-.29-.46s.11-.47.27-.47.28.19.29.46-.12.47-.27.47Z"/></g></g></svg>