<svg xmlns="http://www.w3.org/2000/svg" viewBox="0 0 142.13 41.22"><defs><style>.cls-1{fill:#a6b4bf;}</style></defs><title>BR9</title><g id="Layer_2" data-name="Layer 2"><g id="Layer_1-2" data-name="Layer 1"><path class="cls-1" d="M142.11,32c0-.59-.13-.86-.39-.78s-.32,0-.19-.28a.57.57,0,0,0-.06-.63,1.41,1.41,0,0,1-.15-1c.05-.41,0-.76-.13-.78a3.54,3.54,0,0,1-.61-1.8c0-.09.18-.13.41-.1a.38.38,0,0,1,.35.42c0,.21,0,.29.14.2s0-.64-.3-1.25a3.59,3.59,0,0,1-.31-1.88c.14-.67.06-.82-.45-.87s-.59-.22-.55-.52.21-.41.4-.33a.27.27,0,0,0,.38-.22c0-.2-.13-.3-.37-.23a.45.45,0,0,1-.57-.24c-.1-.24,0-.26.17-.08s.28.1.21-.47a1.59,1.59,0,0,0-.33-.9c-.12-.07-.16-.52-.09-1s0-.9-.08-.92a4.6,4.6,0,0,1-.82-1.52,4.78,4.78,0,0,0-1-1.72,2.41,2.41,0,0,1-.76-1c-.17-.44-.44-.76-.58-.69s-.27-.12-.3-.43c-.05-.51-.07-.51-.16,0-.13.67-.37.66-1.07-.08-.48-.5-.62-.53-.86-.2s-.28.34-.23,0,0-.37-.13-.29-.38-.12-.6-.42l-1.55-2.19c-.85-1.21-1.28-1.59-1.73-1.53s-.57,0-.55-.21c.06-.44-1.48-.86-1.69-.46-.1.19-.23.13-.36-.16s-.33-.39-.5-.3a.31.31,0,0,1-.43-.18.62.62,0,0,0-.42-.37c-.15,0-.22.07-.15.19s0,.41-.26.65-.3.38,0,.25.55.12.79.47c.52.79.25,1.23-.3.48-.22-.3-.5-.53-.63-.53-.6,0-.86-.18-.92-.76s.07-.62.53-.59c1.09.08-3.21-1.37-5.18-1.75a2.4,2.4,0,0,1-1.22-.63,1.23,1.23,0,0,0-1-.37c-.72.11-2-.48-3.37-1.6-.63-.5-1-.64-1.16-.43s-.57.2-1,.07c-1.67-.52-3.83-.87-3.87-.62s-.68.08-1.48-.13-1.47-.27-1.5-.1-.43.34-1.61.23c-.44,0-.59.08-.52.42s0,.4-.24.28a.47.47,0,0,1-.23-.48c.09-.28-1-.34-1.8-.1a4,4,0,0,1-1.48.15c-.26,0-.44.11-.38.26s-.08.26-.28.23-.3-.17-.21-.3-.07-.27-.37-.32-.57.07-.59.24-.31.18-.68,0S96,1.5,96,1.74s-.15.27-.28.15-.31,0-.41.16-.16.15-.13-.17c.07-.75-.76-.79-1,0-.18.48-.35.56-.76.34-.85-.45-1.5-.43-1.92.07s-.41.42-.69-.1-.36-.49-.86-.1a1.23,1.23,0,0,1-1.24.2c-.84-.31-1.5-.17-1.33.27a.52.52,0,0,1-.29.57c-.59.31-.81.23-.75-.26a.74.74,0,0,0-.47-.68c-.57-.26-1.31-.15-1.35.19,0,.12-.66.12-1.45,0a3.27,3.27,0,0,0-1.6,0,4.49,4.49,0,0,1-1.78.1,9.45,9.45,0,0,0-2,0,15,15,0,0,1-4.1.15C71,2.49,70.88,2.51,70,3.22c-.44.36-.77.52-.75.36S67,2.94,66.71,3.2c-.1.09-.41,0-.73-.19a1.2,1.2,0,0,0-1-.12,5.32,5.32,0,0,1-1.9.07,6,6,0,0,0-1.7,0,6.39,6.39,0,0,1-1.64,0c-2.24-.17-3.69,0-3.75.36q-.06.35-.24-.12c-.15-.4-.45-.45-1.79-.3a32.93,32.93,0,0,1-4.57-.07,14.86,14.86,0,0,0-3.27-.06,2.24,2.24,0,0,1-1.2,0c-.53-.13-1-.08-1.17.14s-.26.29-.22,0-.22-.42-.52-.46c-.51-.07-.54,0-.28.49s.26.53-.18.27c-.79-.47-3.73-1.12-3.37-.74s.23.36-.17.48c-.65.19-.7.16-.63-.35,0-.3-.35-.56-1.25-.82A3.22,3.22,0,0,1,35.55.88C35.25.33,34.26.15,32.8.4a41.24,41.24,0,0,1-5.92.42,5,5,0,0,0-2.21.34c-.1.21-.25.17-.5-.14S23.78.6,23.72.63a.19.19,0,0,1-.17,0c-.61-.31-1.25-.4-1.4-.2a.58.58,0,0,1-.68,0,1.33,1.33,0,0,0-1,0A1.16,1.16,0,0,1,19.38.41c-.44-.25-.6-.23-.64.11s-.32.43-.68.39A6.73,6.73,0,0,0,17,.88a.58.58,0,0,1-.59-.26c-.06-.16-.45-.25-.85-.19s-.65,0-.5-.2,0-.27-.4-.2-.54.14-.17.29.44.3.42.44.26.26.63.26a.74.74,0,0,1,.74.46c0,.24,0,.36-.14.25a.26.26,0,0,0-.42.06c-.2.26-1.65,0-2.52-.52-.27-.15-.26,0,0,.45.49.83.44,1-.38,1.08-.4.06-.66.25-.59.42s0,.3-.15.28-.32.23-.36.55-.24.55-.72.45-.56-.22-.31-.49a.6.6,0,0,0,.17-.6c-.09-.13-.36,0-.58.25s-.53.48-.66.46a1.52,1.52,0,0,0-.77.49c-.47.47-.49.57-.17,1s.41.36.65,0,.3-.3.38.13.57.65,1.53.92A4.55,4.55,0,0,1,13,7.47a5.73,5.73,0,0,0,.76.83.93.93,0,0,1,.37.77c-.08.24.05.27.47.08a1.58,1.58,0,0,1,2,1c.27.6.33.62.62.2a.88.88,0,0,1,.61-.42c.16,0,.2.12.09.22s0,.36.17.57.19.48-.86,1-1.19.49-1,.1.08-.47-.57-.48-.79-.14-.75-.38-.62-1-1-1c-.11,0-.18-.14-.16-.35s0-.29-.14-.19-.48,0-.84-.23c-.74-.45-2.29-.39-2.12.08a.27.27,0,0,0,.4.17c.49-.25,1.24.32,1.59,1.2s.34.85-.23.35a3.59,3.59,0,0,0-1.22-.64c-.36-.08-1.28-.33-2-.54-1-.29-1.39-.3-1.43,0s-.23.27-.49.13a1.05,1.05,0,0,0-.9,0c-.37.21-.35.29.11.5a1.15,1.15,0,0,1,.61.88c0,.5.29.64,1.36.79a3.79,3.79,0,0,1,1.73.62c.36.38.18.41-1.2.23-.89-.13-1.6-.33-1.58-.46s0-.22-.18-.22a6.29,6.29,0,0,1-1.43-.83C5,11,4.4,10.63,4.31,10.72s-.08.17.05.18,0,.22-.18.45c-.48.5-.92.5-.76,0a.48.48,0,0,0-.32-.55c-.36-.14-.48,0-.6.92-.08.61-.26,1.08-.41,1.06s-.3.18-.34.44.12.47.41.44.5-.29.54-.73.15-.61.25-.51c.28.26,1.94-.22,1.83-.53A.32.32,0,0,1,5,11.46c.16-.08.2.31.09.89s-.3,1-.48.86a.36.36,0,0,0-.5.11.54.54,0,0,1-.64.06c-.41-.21-.42-.2,0,.17a1.92,1.92,0,0,0,1.27.34c.94-.06,1.57.48,1.46,1.27-.05.35-.11.37-.23.08-.22-.56-1.35-.82-1.56-.36-.1.21.06.4.37.44.51.07,1.32,1.09.82,1-.13,0-.08.12.12.32s.2.39-.45.57c-.89.25-1.66,0-1.33-.49a.3.3,0,0,1,.45-.08c.12.11.25.06.27-.12s-.18-.35-.46-.39a.75.75,0,0,1-.57-.7c0-.36-.18-.65-.34-.67S3,15,3,15.24s-.06.47-.32.43a.6.6,0,0,0-.58.31c-.1.2-.22,0-.27-.53s-.22-.85-.49-.78-.31,0-.2-.16.12-.29,0-.32L.48,14c-.24-.09-.46,0-.48.12s.13.3.36.33.38.18.35.37-.15.22-.28.1-.26-.1-.29.08a.68.68,0,0,0,.2.53.38.38,0,0,1,0,.5c-.11.15-.08.28.08.3A.49.49,0,0,0,.89,16c.11-.27.26-.21.54.2a2.85,2.85,0,0,0,.9.84c.92.49.18.8-1.07.46s-1.2-.29-.94.2c.15.29.47.5.68.44s.31,0,.22.13,0,.35.2.49.33.11.25-.12.14-.09.49.25.77.53,1,.43.26-.05.15.11.07.48.43.74c.61.44.63.43.58-.34,0-.48,0-.78.23-.76s.2.16.1.29,0,.33.19.47a.55.55,0,0,1,.15.69c-.14.29-.07.48.21.52s.42.2.4.36a.27.27,0,0,0,.29.3,2.78,2.78,0,0,1,1.09.47,7.26,7.26,0,0,0,1.65.75c1.63.49,2.19,1.11,2,2.25S10,27,9.24,26.92c-.46,0-.53.08-.35.56s.34.49.56.34.44.07.67.7c.34.94.34.94-.26.71s-.55-.19-.16.29.47.89-.12.84c-.38,0-.41,0-.1.18A1.36,1.36,0,0,1,10,31a1.7,1.7,0,0,0,.85.53c1,.35,1.09.55.6,1.2s-.55.73.29.83c.68.08.73.19.57,1.24-.09.64-.07,1.16,0,1.18s-.08.61-.43,1.34c-.65,1.34-.61,2.06.07,1.46a1.12,1.12,0,0,1,.71-.26c.44.06.34,1-.15,1.47a1,1,0,0,0-.25.84c.09.48.18.47.88-.08s1.41-1.17,2.16-1.87a20.06,20.06,0,0,1,4.17-2.86,2.3,2.3,0,0,0,1.1-.47c.85-.59,2.4-.5,4.79.28a8.28,8.28,0,0,0,2.54.39c.84-.07.95-.14.46-.27s-.21-.19.57-.21a2.72,2.72,0,0,1,1.43.24c.12.15.46.16.77,0a.64.64,0,0,1,.88.16c.26.33.49.33,1,0s.73-.35.82.11.18.42.7-.1c.34-.34.66-.58.75-.54.56.24.81-.17.45-.76s-.44-.58-.71-.21-.3.3-.23-.26.25-.66.86-.58.78.27.84.92.09.79.65.35c.32-.25.7-.34.84-.19a.69.69,0,0,0,.76-.1c.42-.3.45-.26.22.27s-.14.63.28.65c.72,0,1.06-.33.66-.7s-.18-.37.34-.6c.89-.39,2.44-.43,2-.06a1.65,1.65,0,0,1-.92.3c-.83,0-1.06.29-.75.87a.85.85,0,0,1,.09.77c-.1.14,0,.29.24.32a.68.68,0,0,0,.64-.49.75.75,0,0,1,.78-.48l1.18.15c.52.05.6,0,.53-.6s0-.62.29-.44a.42.42,0,0,0,.6-.18.39.39,0,0,1,.6-.18.54.54,0,0,1,.2.67c-.11.22,0,.42.14.42a11.78,11.78,0,0,1,1.23.15c.77.13.84.22.5.58-.53.55,0,.62.62.08.36-.31.49-.31.52,0s.2.27.61-.08c.59-.51,1.06-.55,1-.09a.31.31,0,0,0,.24.36c.16,0,.24-.23.19-.6-.11-.84.36-.78.75.11.19.44.38.58.52.39a.22.22,0,0,0-.11-.37c-.2,0-.1-.16.23-.27.89-.3,1.25-.2,1,.29-.16.32-.06.47.34.52s.61-.11.68-.6.15-.5.2-.27.2.28.53-.1.44-.47.38.08,0,.54.53,0,.6-.6.69.06.82,1,.9.45c0-.18-.13-.34-.36-.38s-.39-.19-.37-.37c.07-.53.78-.22.9.39s.15.49.43,0c.18-.34.3-.42.27-.19s.09.33.23.27.3.08.35.36.21.43.6.26a2.46,2.46,0,0,1,.65-.21c.08,0,.64,0,1.25-.08a12.26,12.26,0,0,1,2.21-.08,1.86,1.86,0,0,0,1.1-.4c.54-.47,1-.23.92.47s0,.58.88.21a6,6,0,0,1,3-.19,2.8,2.8,0,0,0,1.54-.33c.5-.28.67-.29.48,0s-.13.38.51.31c1-.11,1.15-.12,5.77-.48,2.13-.17,4.5-.42,5.28-.56A9.81,9.81,0,0,1,85.22,35c.87.12,2.8-.39,2.61-.68-.07-.12,0-.21.15-.19a.63.63,0,0,1,.41.34c.06.17.51.24,1,.16,1.25-.19,3.57-.49,4.18-.54a2.13,2.13,0,0,0,.91-.34,2.73,2.73,0,0,1,1.3-.28c1.84,0,3.12-.14,3.36-.44s.24-.22.21,0,.15.32.69.17a24.93,24.93,0,0,1,3.24-.35c4.66-.29,5-.31,6.66-.45a13.79,13.79,0,0,0,2.07-.27,1.14,1.14,0,0,1,.64,0,.68.68,0,0,0,.56-.11c.49-.29,2.87.09,2.84.46,0,.16-.48.27-1,.25a5.67,5.67,0,0,0-1.29.07c-.5.18,2.9.24,5,.09,1.34-.1,2.13-.32,2.43-.68.41-.51.45-.51.82,0a1,1,0,0,0,1.61-.11c.08-.12.08,0,0,.18s.1.39.86.36a29.09,29.09,0,0,1,6.5.31,15.43,15.43,0,0,1,3.25.65c.15.14.29,0,.33-.27s.25-.45.72-.27a1,1,0,0,0,1-.15,1.16,1.16,0,0,1,1.19-.11c.44.15.67.18.5.06a.64.64,0,0,1-.27-.52c.06-.44.78-.24,1.42.39s.6.52.84-.06c.17-.4.42-.55.66-.4a4.51,4.51,0,0,0,1.58.68C142.12,32.89,142.11,32.46,142.11,32Z"/></g></g></svg>