<svg xmlns="http://www.w3.org/2000/svg" width="903" height="723" viewBox="0 0 903 723">
  <metadata><?xpacket begin="﻿" id="W5M0MpCehiHzreSzNTczkc9d"?>
<x:xmpmeta xmlns:x="adobe:ns:meta/" x:xmptk="Adobe XMP Core 5.6-c142 79.160924, 2017/07/13-01:06:39        ">
   <rdf:RDF xmlns:rdf="http://www.w3.org/1999/02/22-rdf-syntax-ns#">
      <rdf:Description rdf:about=""/>
   </rdf:RDF>
</x:xmpmeta>
                                                                                                    
                                                                                                    
                                                                                                    
                                                                                                    
                                                                                                    
                                                                                                    
                                                                                                    
                                                                                                    
                                                                                                    
                                                                                                    
                                                                                                    
                                                                                                    
                                                                                                    
                                                                                                    
                                                                                                    
                                                                                                    
                                                                                                    
                                                                                                    
                                                                                                    
                                                                                                    
                           
<?xpacket end="w"?></metadata>
<defs>
    <style>
      .cls-1 {
        fill: #d8d8b0;
        fill-rule: evenodd;
      }
    </style>
  </defs>
  <path class="cls-1" d="M47.725,274.377S-0.317,118.264,173.053,77.964c0,0,62.142-.405,88.774,15.671,0,0,108.1-147.722,322.72-72.088,0,0,87.729,41.936,109.662,90.893,0,0,123.239-36.328,180.681,87.759,0,0,30.288,90.116-9.4,133.728,0,0,92.952,97.586-21.932,210,0,0-49.609,46.344-109.662,35.521,0,0-20.888,133.085-196.347,84.625,0,0-44.387-16.318-54.309-35.522,0,0-80.419,52.668-133.683,44.924,0,0-72.064,90.263-228.724,27.164L44.592,669.292s113.84,0.909,129.506-39.7c0,0-44.387-33.1-44.91-84.625,0,0-123.239-33.213-125.328-144.175C3.86,400.792-11.806,338.593,47.725,274.377Z"/>
</svg>
