<svg xmlns="http://www.w3.org/2000/svg" width="963" height="990" viewBox="0 0 963 990">
  <metadata><?xpacket begin="﻿" id="W5M0MpCehiHzreSzNTczkc9d"?>
<x:xmpmeta xmlns:x="adobe:ns:meta/" x:xmptk="Adobe XMP Core 5.6-c142 79.160924, 2017/07/13-01:06:39        ">
   <rdf:RDF xmlns:rdf="http://www.w3.org/1999/02/22-rdf-syntax-ns#">
      <rdf:Description rdf:about=""/>
   </rdf:RDF>
</x:xmpmeta>
                                                                                                    
                                                                                                    
                                                                                                    
                                                                                                    
                                                                                                    
                                                                                                    
                                                                                                    
                                                                                                    
                                                                                                    
                                                                                                    
                                                                                                    
                                                                                                    
                                                                                                    
                                                                                                    
                                                                                                    
                                                                                                    
                                                                                                    
                                                                                                    
                                                                                                    
                                                                                                    
                           
<?xpacket end="w"?></metadata>
<defs>
    <style>
      .cls-1 {
        fill: #f396a3;
        fill-rule: evenodd;
      }
    </style>
  </defs>
  <path class="cls-1" d="M22.216,476.512H19.084v-2.089c-2.905-4.394-2.6-25.775-1.044-32.374,7.633-32.433,8.2-66.479,18.79-95.035,4.045-10.908,5.032-20.79,9.4-31.33C59.508,283.6,74.45,252.7,92.158,224.826c14.018-22.062,32.589-40.595,48.02-61.616,4.912-6.69,12.481-12.492,16.7-19.842,1.142-1.988-.366-4.593,0-5.222,3.469-5.967,14.14-10.537,19.834-14.62,16.266-11.665,43.538-27.5,54.284-43.863h-1.044l-54.284,35.508v-2.089c7.088-4.546,11.2-12.786,17.747-17.754,8.881-6.734,17.128-14.557,26.1-20.887,35.239-24.866,78.96-44.27,122.138-60.572,15.317-5.783,48.85-7.309,68.9-7.31,9.829,0,30.727,2.6,36.537,0,0.84-1.066.371-.286,1.044-2.089-2.062-1.128-5.44-2.613-7.307-4.177,23.983-.384,52.116-1.5,68.9,6.266V7.6H496.153c-4.726-3.013-29.677-1.163-37.581-1.044V7.6h1.044c6.112,3.865,15.733,1.305,24.01,3.133,13.545,2.991,31.746,3.7,45.932,4.177,10.486,0.355,24.788-1.82,33.406,1.044-6.351-8.792-17.6-7.961-26.1-14.621,47.1-1.092,81.8,14.683,114.83,29.242,7.428,3.274,13.074,9.876,20.879,12.532v1.044h-5.22c-4.257-3.217-10.228-2.993-15.659-5.222-16.3-6.689-34.015-13.359-52.2-18.8-6.185-1.85-21.951-6.112-27.142-3.133,7.15,0.754,13.75,4.244,19.834,6.266,17.662,5.871,34.917,9.589,51.152,15.665,28.907,10.819,55.847,19.451,80.381,34.463,15.312,9.369,29.668,20.631,43.845,31.33l15.659,16.71c36.822,27.861,68.962,61.571,96.04,99.212,10.077,14.009,21.924,27.7,31.317,42.818,5.643,9.083,8.036,19.077,13.571,28.2,5.31,8.75,13.439,20.369,16.7,30.286,1.1,3.34,4.17,28.9,3.131,31.33-1.139,2.664-2.567,3.823-1.044,9.4,2.349,8.594,5.133,18.939,7.308,28.2v19.843c7.535,30.413,16.974,85.4,8.351,123.231q-1.044,13.053-2.088,26.109c-4.987,20.34-7.122,41.191-13.571,60.572-9.454,28.415-21.194,55.1-33.4,80.414h2.088a12.069,12.069,0,0,1,3.132-2.089v5.222q-5.22,11.486-10.439,22.975c-7.477,14.242-17.9,32.556-27.142,45.951L862.567,786.68c-12.131,16.033-26.585,30.777-40.713,44.907-7.4,7.4-19.686,15.1-22.966,26.108h3.132c2.845-4.319,34.29-31.865,38.625-33.418v2.088l-16.7,17.754c-7.723,5.806-15.979,10.026-24.01,15.665-5.31,3.729-9.853,9.218-16.7,11.488v-1.045a16.75,16.75,0,0,0,6.263-7.31h-2.088c-5.891,7.866-16.49,11.4-25.054,16.709-25.345,15.7-55.338,27.66-84.557,39.685-9.375,3.859-41.287,11.735-44.888,18.8h1.044c2.942-1.957,29.052-5.536,31.317-4.177l-42.8,13.576c-22.436,6.408-47,6.092-70.986,11.488-15.124,3.4-48.62-1.318-58.46,6.266,40.9,0.286,71.911-6,109.611-6.266v2.089h-1.044c-5.861,5.533-15.806,4.967-25.054,7.31-23.319,5.908-74.791,6.656-100.215,1.045-21.182-4.676-45.181-.407-65.767-5.222-42.929-10.042-83.282-16.665-115.875-36.552-3.192-1.948-25.241-15.831-26.1-17.754-0.81-1.818,1.988-4.236,1.044-7.31-1.928-6.275-8.6-13.625-12.527-18.8-4.286-5.644-12.636-7.61-18.791-11.488-9.951-6.27-19.1-14.767-29.229-20.887v1.045c4.059,3.045,8.929,9.178,10.439,14.62h-3.132c-2.157-2.738-6.166-4.673-9.395-6.266v1.045h1.044c7.922,8.395,18.467,15.474,25.054,25.064h-3.132c-3.747-3.484-9.081-4.484-13.571-7.311-11.169-7.031-21.71-16.037-32.361-24.019-9.79-7.336-20.756-23.965-32.362-28.2v3.133c6.9,6.636,11.964,16.338,17.747,24.019,10.346,13.743,38.044,33.234,53.239,42.818,11.986,7.56,45.673,22.011,50.108,34.463h-7.307c-3.469-2.678-8.407-3.1-12.527-5.221-10.107-5.192-20.557-10.584-30.274-16.71-20.223-12.751-37.533-29.617-56.371-43.862-9.461-7.154-18.9-18.655-26.1-28.2-5.162-6.843-13.138-12.34-17.746-19.843-1.625-2.645-.453-5.291-2.088-8.354l-6.264-5.222c-5.122-5.414-11.306-11.884-15.658-17.754-12.31-16.6-24.737-35.625-33.405-55.35C42.409,679.886,31.083,615.085,17,555.882c-2.207-9.275.489-22.2,2.088-29.242ZM458.572,35.8c-3.247,1.889-8.984-.061-13.571,1.044-8.826,2.126-18.42,3.5-28.186,6.266-32.563,9.218-66.86,16.748-91.864,33.419v2.089h5.22c7.5-6.542,22.007-7.019,32.361-10.443,27.3-9.027,52.3-14.939,89.777-12.532v1.044h-1.044c-7.8,6.428-31.289,5.064-42.8,8.355-20.5,5.858-40.927,13.361-59.5,19.843C340.637,87.79,333.534,87,326,90.107c-30.427,12.526-57.364,28.949-82.469,47-18.29,13.147-33.879,32.232-59.5,37.6v-2.089c4.836-3.718,7.78-9.7,11.483-14.62,9.476-12.583,38.275-34.548,53.239-41.774v-1.044h-2.088c-2.711,1.95-5.983,1.66-9.4,3.133-8.23,3.553-16.836,9.395-24.01,14.621-25.153,18.321-49.97,55.86-68.9,81.458-9.858,13.331-28.607,31.067-33.405,48.04h1.043v-2.089c12.463-9,18.95-32.6,36.537-35.508v2.089c-6.6,7.155-8.377,18.584-13.57,27.153-11.824,19.506-22.451,39.937-35.493,58.483-6.847,9.736-19.517,10.822-19.835,27.153-3.97,6.558-1.04,25.453-1.044,34.463-0.007,18.544-3.621,34.291-7.307,48.039H70.236v-1.044c-3.657-5.726-.151-33.418,0-42.818H68.148c-11.786,20.149-9.077,43.487-4.176,66.838h1.044v-1.045c0.809-2.008,1.044,2.089,1.044,2.089,6.707,11.113,1.607,47.684,5.22,63.7L76.5,551.7c3.911,15.145,9.238,31.971,12.527,45.951l-1.044,9.4,6.264,26.109c27.33,72.69,75.09,122.448,132.577,165.005,4.726,3.5,8.835,9.048,13.571,12.532,31.882,23.456,64.121,45.477,103.348,61.616a202.307,202.307,0,0,0,26.1,8.355l22.966,1.044c39.573,8.738,91.227,7.591,128.4-1.044,13.168-3.059,36.725-.806,45.932-7.311-7.32.171-23.135,2.23-28.185-1.044,5.1-.5,8.253-2.915,11.483-4.177l16.7-1.045,33.4-7.31c30.883-10.348,58.206-24.941,83.514-40.729,11.1-6.926,22.581-11.561,33.4-18.8,8.838-5.91,15.65-15.6,24.01-21.931,54.192-41.013,88.145-105.749,115.875-173.361,10.814-26.367,12.707-56.621,19.834-86.68,3.236-13.648-1.123-27.165,2.088-41.773,1.352-6.151,1.406-17.868,0-24.02-3.325-14.542,1.076-28.138-2.088-41.773-2.384-10.274-2.325-21.634-5.22-32.375-2.184-8.106-5.1-17.258-6.263-26.108h1.044c1.351,2.577-.448.711,2.088,2.088v-7.31c-4.182-6.638-3.428-16.317-7.308-22.975-12.2-20.937-25.907-41.506-38.625-61.616-5.38-8.508-13.674-30.351-25.054-31.331q-1.044,2.611-2.087,5.222c-1.832-.659-1.015-0.2-2.088-1.044-9.364-3.3-17.287-17.517-22.966-25.064-7.395-9.826-18.738-17.387-26.1-27.153-8.868-11.766-25.087-31.034-36.537-39.685-15.861-11.983-31.463-24.16-50.108-33.419-5.651-2.806-24.544-6.429-28.186-9.4-1.171-.955-0.857-4.2-2.088-5.222-12.264-10.157-30.1-13.292-46.976-18.8A400.815,400.815,0,0,0,475.275,56.688V55.644h1.044c3.16-1.946,8.736-.551,12.527-2.089,2.686-1.09,4.007-5.046,6.263-6.266,4.971-2.688,16.862-2.086,21.922-3.133V43.112C499.7,37.412,480.467,35.942,458.572,35.8ZM54.577,268.689c2.637,4.925-10.519,29.561-12.527,36.551H41.006v-3.133C47.16,293.716,48.868,277.787,54.577,268.689ZM39.962,305.24c0.84,1.067.37,0.287,1.044,2.089H39.962V305.24Zm864.362,3.133q3.653,10.965,7.307,21.932h2.088V329.26C909.358,323.374,909.246,313.672,904.324,308.373Zm8.351,24.02c1.869,16.084,9.954,34.363,14.615,49.084v8.355c1.831,7.722,3.375,17.454,5.219,25.064q2.61,22.973,5.22,45.951c1.711,7.71-1.114,17.667,1.044,24.02h1.044v-16.71c4.466-6.9.289-21.3,2.088-30.286,6.294-31.46-4.26-68.15-15.659-86.68C922.224,344.653,920.347,335.1,912.675,332.393ZM24.3,344.925c0.785,1.121.628,0.988,1.044,3.133H24.3v-3.133Zm-1.044,3.133c2.562,4.122-.116,11.7-1.044,15.665a256.94,256.94,0,0,0-6.264,36.552c-4.372,47.279-5.664,100.761-6.263,153.518H7.6L6.557,551.7C0,543.177.294,505.718,0.294,490.088c0-36.555,2.1-69.5,10.439-99.212ZM929.378,543.35h4.175c0.745,2.605,2.6,4.453,3.132,6.266,0.764,2.6-5.125,41.4-6.264,43.862l-3.131,2.088,1.044,7.311c-1.77,9.041-2.372,18.5-5.22,27.153-8.418,25.582-22.986,46.936-29.229,74.148h1.043v1.044l3.132-1.044c3.822-15.675,14.312-29.653,18.791-45.951H917.9c1.068,0.667.213,2.265,1.043,1.044,7.319-9.793,6.513-26.747,10.44-39.685,5.85-19.277,10.753-38.021,15.658-59.527q-0.522-17.752-1.044-35.507h-3.131c-0.762,3.385-1.3,4.89-4.176,6.265v-8.354c2.637-4.146,1.943-18.818,2.088-24.02-3.739.483-3.216,0.565-5.22-3.133-0.839,1.066-.37.286-1.044,2.089C927.867,504.5,929.284,531.423,929.378,543.35ZM14.908,587.212c9.056,6.5,14.285,41.993,17.747,55.35,1.731,6.678,1.062,12.569-2.088,16.709v-2.089C23.384,646.766,15.194,604.987,14.908,587.212ZM939.817,713.577c3.84,6.132-5.926,15.426-8.352,19.842h-1.044V731.33C934.163,727.365,938.29,719.231,939.817,713.577Zm-81.426,26.108c-1,1.844-1.312,1.755-2.087,4.177h1.044v-1.044c0.839-1.066.37-.286,1.043-2.088h1.044C860.469,739.675,858.407,739.7,858.391,739.685Zm35.494,24.02h2.087c-3.3,5.446-10.4,15.553-16.7,17.754v-1.045c2.851-2.277,3.04-5.356,5.219-8.354C886.916,768.72,891.442,767.175,893.885,763.705Zm-59.5,5.222c-2.958,4.269-7.86,6.818-11.483,10.443-7.829,7.834-15.135,16.188-22.966,24.02-16.563,16.565-32.825,34.378-52.2,48.039-31.768,22.406-69.627,39.218-108.567,55.35-22.873,9.476-48.953,13.182-74.118,19.843-12.3,3.254-29.023.847-38.624,7.31,28.47,0.02,57.673-7.251,80.381-14.621,15.959-5.179,30.075-7.438,44.888-13.576a603.148,603.148,0,0,0,130.49-74.148c4.989-3.733,8.73-10.633,12.527-15.665,8.235-10.914,20.953-19.266,29.229-30.286,3.952-5.262,7.194-11.854,12.527-15.665C835.4,769.131,836.183,769.6,834.381,768.927Zm54.284,17.753c1.176,2.548-10.558,24.079-13.571,26.109-2.348,1.823-7.017,2.466-10.439,3.133v-1.045H865.7ZM724.77,906.779h2.088v1.045C725.027,907.165,725.844,907.622,724.77,906.779Zm-3.131,1.045c2.166,0.388,2.009.252,3.131,1.044h-2.087c-3.261,3.421-24.134,14.321-29.23,11.488h2.088C701.616,913.607,714.953,913.989,721.639,907.824Zm27.141,7.31h4.176v2.089h-2.088c-3.964,3.614-9.57,4.689-14.615,7.31-19.942,10.36-40.927,19.5-67.854,22.975v-1.044h1.044c5.469-4.113,12.969-4.466,19.834-7.31,14.241-5.9,29.575-12.79,43.845-18.8C738.162,918.233,744.609,918.219,748.78,915.134Zm-83.513,16.709h2.088v1.045C665.524,932.229,666.341,932.686,665.267,931.843ZM519.119,974.661c0.389,2.168.253,2.01,1.044,3.133,4.519,3.265,36.529,5.229,45.932,3.133,23.747-5.293,45.35-7.787,67.855-14.62,11.041-3.353,21.634-8.568,34.449-9.4V959h-1.044c-12.544,12.407-35.1,10.526-55.327,15.665-18.456,4.688-40.2,5.976-59.5,10.444l-31.317,2.088c-17.077,3.7-43.738,3.783-60.547,0-16.134-3.631-38.847-.379-50.108-8.354,10.729,0.328,22.321,4.739,34.449,2.088C466.008,976.336,493.715,975.432,519.119,974.661Zm-112.743,3.133c2.167,0.389,2.009.253,3.132,1.045C407.341,978.45,407.5,978.586,406.376,977.794Z"/>
</svg>
