<svg xmlns="http://www.w3.org/2000/svg" width="982" height="988" viewBox="0 0 982 988">
  <metadata><?xpacket begin="﻿" id="W5M0MpCehiHzreSzNTczkc9d"?>
<x:xmpmeta xmlns:x="adobe:ns:meta/" x:xmptk="Adobe XMP Core 5.6-c142 79.160924, 2017/07/13-01:06:39        ">
   <rdf:RDF xmlns:rdf="http://www.w3.org/1999/02/22-rdf-syntax-ns#">
      <rdf:Description rdf:about=""/>
   </rdf:RDF>
</x:xmpmeta>
                                                                                                    
                                                                                                    
                                                                                                    
                                                                                                    
                                                                                                    
                                                                                                    
                                                                                                    
                                                                                                    
                                                                                                    
                                                                                                    
                                                                                                    
                                                                                                    
                                                                                                    
                                                                                                    
                                                                                                    
                                                                                                    
                                                                                                    
                                                                                                    
                                                                                                    
                                                                                                    
                           
<?xpacket end="w"?></metadata>
<defs>
    <style>
      .cls-1 {
        fill: #f396a3;
        fill-rule: evenodd;
      }
    </style>
  </defs>
  <path class="cls-1" d="M622.041,23.7q-0.522-3.134-1.045-6.268c38.051,3.413,84.181,23.392,110.777,39.7,12.019,7.369,27.084,10.928,30.306,27.161h-3.135a12.1,12.1,0,0,0-3.135-2.089v1.045h1.045c6.25,6.284,15.631,9.449,22.992,14.625,13.3,9.351,25.679,20.372,38.667,30.294,2.484,1.9,2.53,5.445,3.135,6.268,5.788,7.874,19.658,19.988,27.172,27.161,3.663,3.5,3.9.833,6.27,2.089,5.332,2.826,20.644,24.324,25.082,30.294,21.661,29.142,45.053,59.951,60.613,95.062,4.068,9.178,4.41,18.532,8.361,28.206,4.921,12.05,11.811,20.477,14.631,34.473,0.465,2.311-1.817,3.928-1.045,7.312,1.337,5.866,2.965,12.5,4.18,17.759h1.045c0.077-2.645.126-3.882,1.045-5.223q3.135,18.8,6.27,37.607,0.523,8.878,1.045,17.759h2.091c1.247,3.331-2.3,7.874,0,11.491,0.077-2.646.125-3.882,1.045-5.223,0.562,23.985,4.731,53.547,1.045,78.348-1.851,12.45,2.594,28.836-3.136,37.607-0.388-2.169-.252-2.011-1.045-3.134-0.218,11.744-5.49,22.683-4.18,32.384-2.643.4-1.649-.607-2.09,3.133-2.718,4.388-1.305,12.516-4.18,16.715-0.2-2.432-.2-2.952-1.045-4.179-0.6,11.43-7.1,21.6-9.406,31.339q0.522,3.133,1.045,6.268c-1.443,6.365-5.944,14.052-8.36,19.848-9.826,23.57-19.379,45.671-30.307,66.857-2.009-.577-0.895-1.714-2.09,0-5.3,5.33-7.367,13.293-11.5,19.848-7.955,12.629-17.195,25.41-26.127,37.607-13.361,18.247-33.51,31.568-45.982,50.143h1.045c3.965-5.626,11.206-9.421,16.721-13.58,8.852-6.677,17.175-17.155,25.081-25.072,7.5-7.5,13.151-19.091,21.947-25.071v2.089c-9.038,6.435-21.266,26.427-26.127,34.473l-16.721,15.67a309.629,309.629,0,0,1-39.712,33.428c-5.656,4.053-10.462,10.149-17.766,12.536v-1.045h1.045c5.694-8.857,16.582-22.277,26.126-27.16v-1.045h-2.09c-7.2,10.784-44.367,39.344-58.523,42.83v-1.044h1.045c15.19-15.82,34.609-25.629,53.3-39.7l7.315-9.4c8.085-5.183,10.577-9.971,16.721-16.715,6.694-7.346,15.9-12.862,21.947-20.892,8.767-11.647,16.173-23.765,25.081-35.518l5.225-3.134c12.821-15.468,21.744-33.552,30.307-53.277,3.608-8.309,10.1-16.709,12.541-26.116,2.009,0.577.895,1.715,2.09,0,9.083-10.1,9.982-31.969,14.631-45.964,8.52-25.647,14.287-56.547,20.9-84.615,3.37-14.3-1.688-31.256,0-44.92,1.433-11.595,1.419-28.273-1.045-38.652-2.846-11.99-.627-33.973-6.27-42.83q1.567,16.713,3.135,33.429l-2.09-1.045v1.045c3.252,5.118,2.091,25.958,2.09,34.473,0,33.839-1.4,64.477-8.36,87.749-2.808,9.385-2.469,29.45-6.271,33.429-1.067.84-.286,0.371-2.09,1.045v-4.179c8.546-12.144,7.564-47.49,11.5-65.812,11.431-53.267-3.162-137.758-16.721-178.634-4.651-14.02-13.084-27.018-16.721-41.785h-1.045v2.089c2.64,3.343,10.161,30.929,7.315,35.518-2.308-22.049-14.212-42.709-22.991-59.545q-3.658-8.355-7.316-16.714c-4.138-6.808-9.969-13.729-11.5-22.982h1.045l10.45,12.536c-20.7-41.9-61.327-92.086-97.191-119.089-16.7-12.571-32.513-29.224-52.253-38.652v1.045c17.29,10.723,30.236,26.734,45.983,38.652,7.5,5.68,20.752,14.751,24.036,24.026h-1.045c-5.8-8.792-27.072-26.865-37.622-30.294v1.044c6.267,6.27,9.4,15.683,15.676,21.938,1.988,1.98,5.027,2.457,7.316,4.178,6.33,4.762,11.89,12.416,16.721,18.8C835.6,192.3,846.327,198.72,853,207.557c15.537,20.575,28.809,41.031,42.848,63.723,9.518,15.385,24.208,36.992,29.261,55.365h1.045q-0.522-2.61-1.045-5.223h1.045v2.09c3.69,4.779,6.391,15.2,7.316,21.937h-1.045V343.36c-7.869-8.975-10.92-23.778-16.721-34.473-2.6-4.791-6.642-8.738-8.361-14.625H906.3v2.089c4.513,4.952,5.5,12.076,8.361,18.8a363.587,363.587,0,0,1,16.721,47.008c3.206,11.861,1.319,21.988,4.18,34.473L948.1,449.913c2.948,12.184.164,40.252-2.09,50.143-3.58,15.708-1.424,29.29-5.226,43.874-6.285,24.114-13.1,48.128-21.946,68.947-8.275,19.472-23.873,62.9-45.983,65.812-1.067-.84-0.286-0.371-2.09-1.045-0.9-3.607-1.837-4.58-2.09-9.4,3.686-4.836,3.932-11.408,6.27-17.758,6.8-18.468,10-38.036,15.676-59.545,6.23-23.61,15.057-77.16,8.361-104.464-1.573-6.41.224-15.719-1.045-20.892v-18.8c-4.786-20.858-3.233-42.807-9.406-61.634-2.927-8.929-8.382-18.128-11.5-26.116-2.171-5.57-1.279-10.06-3.135-15.669-5.822-17.6-15.125-34.479-22.991-50.143-2.314-4.608-2.436-9.459-5.225-13.58-5.192-7.67-15.462-12.375-20.9-19.848-7.553-10.377-10.1-18.73-17.766-29.25-5.052-6.929-13.132-12.553-15.676-21.938h4.181c-0.389-2.168-.253-2.01-1.046-3.134-5.684-16.133-35.634-34.632-49.118-44.919-4.614-3.521-6.951-9.9-10.45-14.625-8.441-11.406-21.811-24.188-33.442-32.384-6.391-4.5-13.064-5.976-20.9-9.4-10.677-4.666-21.43-12.093-32.4-16.714C642.1,84.868,636.283,85.217,630.4,82.2c-3.518-1.8-7.056-6.286-10.451-8.357-7.767-4.738-36.981-10.237-47.028-8.357-7.129,1.334-19.746-1.721-26.126-3.134l-49.118-2.089c-7.038,0-23.889-.574-28.217,2.089,43.922-.7,86.228-0.4,121.227,9.4,15,4.2,30.152,9.993,44.938,13.58v1.045h-3.135c-7.587-5.022-20.218-2.887-30.307-5.223-18.329-4.243-39.265-5.224-61.659-5.223H522.76a148.7,148.7,0,0,1-26.126,3.134v1.045h2.09c8.869,5.276,37.771.162,47.027,6.268l-50.163-2.089c-18.467,4.054-38.531.931-56.433,5.223-31.013,7.436-60.521,14.033-86.74,25.072-14.964,6.3-31.129,9.938-43.893,18.8-7.558,5.25-12.4,18.48-17.766,26.116-11.669,16.615-23.647,33.187-35.532,50.143-28.551,40.731-57.943,81.149-86.74,122.223-11.972,17.075-27.85,33.408-37.623,52.232h-1.045v-2.09c5.768-6.473,8.349-16.068,12.541-24.026,6.685-12.693,14.494-26.459,21.946-38.652q3.659-8.357,7.316-16.714c16.024-26.322,27.593-55.717,43.893-82.527,6.675-10.979,15.728-23.844,19.856-36.562h-1.045c-10.936,14.439-29.743,23.062-40.758,37.607-15.459,20.414-34.379,38.674-49.118,59.544-12.562,17.789-21.756,36.109-33.442,55.366-6.965,11.478-15.056,25.582-18.811,39.7h1.045v-2.09c4.114-4.613,5.391-12.046,8.361-17.759,7.942-15.278,27.65-57.422,39.712-65.812v2.089c-9.686,8.235-14.82,25.917-20.9,37.607a533.194,533.194,0,0,0-34.487,81.482c-5.141,15.817-3.8,33.718-9.406,50.143h1.045v-1.045c6.119-9.195,8.509-33.824,12.541-45.964,5.445-16.4,10.943-34.053,17.766-50.142,2.836-6.689,7.3-13.477,9.406-20.893h1.045v3.134c-5.5,6.089-6,15.724-9.406,24.026-10.254,25.006-14.987,54.1-21.946,83.571-1.486,6.293-3.657,34.344-1.045,38.652-0.107-12.273,2.64-25.075,5.225-35.518l3.135-22.982c6.247-22.253,11.684-44.8,20.9-63.723h2.091v1.045c-5.824,7.556-12.147,28.309-14.631,38.652h1.045v-2.09c2.618-2.856,4.243-8.224,5.225-12.535,2.009,0.577.895,1.714,2.09,0l14.631-31.339c0.841,1.066.371,0.286,1.045,2.089,3.436,5.568-2.043,22.92-4.18,28.205-5.618,13.893-12.766,28.5-16.721,42.83q-0.522,10.446-1.045,20.893c-1.385,5.183-5.931,16.8-3.135,21.937,0.032-6.063,1.253-15.952,4.18-19.848,0.055,7.379-1.624,21.072-5.225,26.116-0.078-2.645-.126-3.882-1.046-5.223,0.175,6.114-2.5,30.016-1.045,32.384,0.034-6.337,1.132-16.827,4.18-20.893,0.786,97.848,7.165,171.66,41.8,238.178,7.239,13.9,12.993,26.743,21.947,38.651l12.54,10.447c3.641,4.8,6.437,10.255,11.5,13.58-10.164-15.848-39.564-44.416-40.757-65.812h1.045v1.045c6.614,6.871,10.316,17.018,15.676,25.071,8.613,12.941,18.835,25.1,28.216,37.607,6.965,9.282,18.143,15.895,25.082,25.071,9.429,12.469,21.925,21.97,34.487,31.339,25.012,18.656,47.81,37.255,79.425,50.143,14.206,5.792,30.613,8.871,45.982,12.536l19.857,1.044c22.783,5.148,48.829,6.267,77.334,6.268h32.4c11.362-2.446,23.911-1.259,34.487-4.178,19.11-5.275,34.036-12.456,58.524-12.536v1.045H601.14c-1.749,1.691-3.453,2.4-6.271,3.133v1.045h2.091l32.4-7.312c9.69-3.54,15.412-9.707,22.992-14.625l20.9-7.313c9.281-4.075,18.863-10.558,27.172-15.669,8.35-5.137,20.657-9.014,24.036-18.8-3.741-.435-2.629.493-4.18-2.089,10.577-5.309,19.469-16.557,32.4-18.8v1.045h-1.045c-2.01.81,2.09,1.045,2.09,1.045l35.532-31.339c8.694-11.654,10.787-28.911,28.217-31.34,1.21,3.517,1.116,9.559,1.045,14.625-2.7,3.838-2.432,9.839-4.18,14.625-5.107,13.98-10.056,28.367-20.9,36.563-27.216,20.566-54.033,40.99-85.7,57.455l-40.757,18.8c-7.178,3.03-16.243,3.76-21.947,8.357,3.035-.062,5.715-0.05,7.316,1.045-8.814,5-20.47,11.065-28.217,17.759l7.316-1.045v1.045h-2.091c-2.592,2.047-10.548,4.043-13.585,2.089,3.534-.143,5.389-0.516,7.315-2.089-3.737.316-9.025,1.259-11.5,3.134,2.433,0.2,2.953.2,4.181,1.044-17.965-.465-30.672,5.5-44.938,9.4-7,1.912-13.821-.365-18.811,3.134,41.853,0.658,86.276-9.988,119.137-20.893,7.4-2.455,15.686-7.332,22.991-9.4l73.155,1.044v1.045h-2.09c-9.52,11.807-27.485,18.006-40.758,26.116-22.108,13.508-45.7,23.182-74.2,31.339-19.67,5.631-39.016,3.564-60.614,8.357-15,3.328-50.719,4.74-66.884,1.045H507.084c-16.948-3.861-36.635-4.277-52.253-8.357-4.6-1.2-8.31.047-11.5-2.09,39.917,0.59,81.239,2.082,113.912-6.267,18.194-4.65,36.25-11.471,53.3-15.67v-1.045c-13.832.4-34.407,1.256-48.073,4.179-13.207,2.825-50.472-.725-61.658-3.134L442.29,951.34c-5.342,1.137-31.174,3.235-36.577,2.089-11.424-2.424-22.9-4.9-33.442-6.268v1.045c7.427,0.952,14.5,4.984,20.9,7.312l41.8,11.491v1.045H430.8c-2.522-1.51-6.668-.179-10.451-1.045-11.07-2.533-24.377-3.509-34.487-7.312v1.044H386.9c9.978,7.366,30.679,5.549,40.757,12.536-65.323,1.7-117.661-23.39-157.8-48.053-14.722-9.045-37.654-18.686-49.118-30.3-17.355-17.574-40.987-42.114-64.794-56.41v1.044h1.045c10.782,16.14,31.835,24.113,42.848,39.7h-2.091c-5.424-6.9-15.784-10.494-22.991-15.67-10.483-7.529-19.112-18.449-29.262-26.116-8.5-6.423-18.7-14.559-25.081-22.982-13.125-17.331-28.189-33.295-40.758-51.187-23.01-32.757-39.209-71.289-55.388-110.732-10.906-26.587-12.762-55.726-19.856-86.7L3.364,540.8c-5.635-26.182-3.657-73.015,2.09-98.2,2.4-10.527.811-38.32,8.361-41.785V399.77h1.045v5.223c-1.981,2.942-5.062,27.266-3.135,30.3-0.373-31.971,11.057-63.9,20.9-87.75,5.5-13.338,6.865-27.758,12.541-40.741,3.933-9,11.479-16.67,14.631-26.116h1.045v3.134c-0.839,1.232-.808,1.757-1.045,4.179h1.045v-1.045l20.9-36.562h1.045v2.089a24.912,24.912,0,0,0-6.27,11.491h1.045v-2.089c7.19-7.862,9.319-20.566,16.721-28.2-0.885-3.246-2.039-2.83-1.045-5.224,1.313-4.8,14.194-24.385,17.766-26.116,3.993-1.934,7.1-.11,10.451-2.089,9.534-5.629,23.2-28.564,29.262-38.651h-1.045c-4.868,7.465-14.2,16.3-21.947,20.892V180.4c14.562-9.649,30.062-36.488,49.118-39.7v2.089c-5.946,3.978-14.43,13.354-17.766,19.848h2.09c6.911-8.783,18.958-14.376,28.217-20.893,15.093-10.621,26.478-27.429,47.028-32.383q-0.524,1.044-1.045,2.089h1.045c7.748-7.835,18.6-11.7,28.217-17.759,16.6-10.465,32.185-23.936,49.117-34.473,11.8-7.343,29.048-12.529,36.578-24.027-3.024-1.045-8.021-1.106-12.541-1.045-1.067.84-.286,0.371-2.09,1.045V34.147h1.045c14.3-13.045,42.037-9.855,63.749-15.67,1.989-.533,6.368-2.63,8.36-3.134,5.788-1.464,13.628,1.594,17.766,1.045,6.435-.854,15.41-4.492,21.947-6.268,18.29-4.968,38.4-4.022,57.478-8.357H524.85c13.586-2.947,36.044-1.92,49.118,1.045,16.293,3.695,47.394.893,58.524,8.357L603.23,9.075H567.7C554.949,6.366,533.829,5.2,520.67,8.031c-13.73,2.955-35.087-2.1-44.938,4.179,21.194-.2,40.477,1.131,57.479,4.179l14.631-1.045c6.531,1.416,16.576,2.015,22.991,3.134,9.725,1.7,25.379-4.524,36.577-1.045C612.33,18.961,615.965,22.692,622.041,23.7Zm10.451-12.536c2.432,0.2,2.953.2,4.18,1.045C634.24,12.005,633.719,12.008,632.492,11.165Zm87.785,59.545,33.442,19.848c2.719,0.922,3.964-1.064,7.315,1.045,10.329,6.5,21.714,15.671,32.4,22.982,5.118,3.5,17.681,18.508,24.037,15.669-9.7-3.3-18.054-14.153-26.127-19.848-2.53-1.785-6.168-2.064-8.36-4.178-2.45-2.362-3.474-6.321-6.271-8.357-4.707-3.428-10.533-4.138-15.676-7.312C748.271,82.676,738.011,74.7,720.277,70.709Zm-171.39,15.67c2.169,0.389,2.011.253,3.135,1.045C549.853,87.035,550.011,87.17,548.887,86.379ZM827.918,167.86c4.637,2.961,10.644,9.088,12.541,14.625h-1.045C836.071,177.437,830.07,173.847,827.918,167.86Zm12.541,14.625c2.1,1.459,2.159,1.406,3.135,4.179h-1.045v-1.045H841.5Q840.982,184.053,840.459,182.485Zm5.226,6.268c0.84,1.067.37,0.286,1.045,2.089h-1.045v-2.089ZM861.36,226.36c1.773,3.78,3.951,7.181,7.316,9.4C866.847,232.526,864.281,228.561,861.36,226.36ZM83.834,246.208c0.84,1.067.371,0.287,1.045,2.09H83.834v-2.09Zm-1.045,2.09c0.841,1.066.371,0.286,1.045,2.089H82.789V248.3Zm810.969,7.312c0.841,1.067.371,0.286,1.045,2.089h-1.045V255.61ZM850.91,345.449c0.379-20.605-11.224-29.4-15.676-44.919h1.045v1.044c6.386,6.516,8.66,15.933,13.586,24.027,13.358,21.948,23.5,48.929,31.352,76.259,1.853,6.454,7.9,36.113,5.225,40.74-0.2-2.431-.2-2.951-1.045-4.178,0.545,28.566,2.52,59.924-3.135,85.66-2.748,12.5,1.075,29.386-5.226,38.652-0.077-2.646-.125-3.882-1.045-5.223v1.044c-4.423,4.954-8.624,16.227-10.45,22.982H864.5V578.4c3.715-4.856,14.081-47.727,12.54-56.411-1.054-5.944-2.916-13.509-4.18-19.848-0.84,1.067-.371.286-1.045,2.089-9.635,13.12-9.643,38.78-19.856,51.187v-4.178c5.6-7.259,4.7-20.244,7.315-30.3,8.644-33.244,9.22-87.188-5.225-113.865-2.433-4.494-.44-11.841-3.135-15.67,0.2,16.009,4.11,62.673-2.09,72.08q-0.524-21.935-1.045-43.875H846.73v1.045c-0.713.806-1.371,2.331-2.091,3.134q1.046-14.624,2.091-29.25c-6.577-29.4-14.279-50.19-28.217-71.035-6.8-10.169-12.536-25.035-29.262-25.072-0.7,1.579-2.722,3.932-3.135,5.223-1.6,5,1.321,11.959-1.045,15.67v-2.089c-4.628-6.08-5.953-14.679-15.676-15.67a30.352,30.352,0,0,1-2.09,8.357c-1.833-.659-1.015-0.2-2.09-1.044-6.519-8.059-11.922-25.625-9.406-38.652,7.1-4,20.294-5.181,27.172-9.4,1.382-.848,1.268-1.564,2.09,0,6.862,4.764,10.789,14.1,15.676,20.893,9.529,13.245,21.148,25.98,30.307,39.7C835.969,328.784,841.114,343.464,850.91,345.449Zm47.028-82.526c0.84,1.066.371,0.286,1.045,2.089h-1.045v-2.089Zm6.27,11.491c0.841,1.066.371,0.286,1.045,2.089h-1.045v-2.089Zm1.045,2.089c0.841,1.066.371,0.286,1.045,2.089h-1.045V276.5Zm1.045,2.089c0.841,1.067.371,0.286,1.045,2.089H906.3v-2.089Zm1.045,2.089c0.841,1.067.371,0.287,1.045,2.09h-1.045v-2.09Zm1.045,2.09c0.841,1.066.371,0.286,1.045,2.089h-1.045v-2.089Zm1.045,2.089c0.841,1.067.371,0.286,1.045,2.089h-1.045V284.86Zm1.045,2.089c0.841,1.067.371,0.287,1.045,2.089h-1.045v-2.089Zm-769.166,1.045c0.841,1.067.371,0.286,1.045,2.089h-1.045v-2.089Zm770.211,1.044c0.841,1.067.371,0.287,1.046,2.09h-1.046v-2.09Zm1.046,2.09c0.84,1.066.37,0.286,1.045,2.089h-1.045v-2.089Zm-79.425,5.223c0.84,1.067.371,0.286,1.045,2.089h-1.045v-2.089Zm81.515,0c0.84,1.067.371,0.286,1.045,2.089h-1.045v-2.089Zm-80.47,2.089c0.84,1.067.371,0.286,1.045,2.09h-1.045v-2.09Zm81.515,0c0.84,1.067.371,0.286,1.045,2.09H915.7v-2.09Zm1.045,2.09c0.84,1.066.371,0.286,1.045,2.089h-1.045V300.53Zm2.09,5.223c0.84,1.066.371,0.286,1.045,2.089h-1.045v-2.089Zm1.045,2.089c0.84,1.067.371,0.286,1.045,2.089h-1.045v-2.089Zm9.406,0v2.089h1.045C929.676,308.1,930.133,308.916,929.29,307.842Zm-8.361,3.134c0.841,1.067.371,0.286,1.045,2.089h-1.045v-2.089Zm1.045,2.089c0.841,1.067.371,0.286,1.045,2.09h-1.045v-2.09Zm1.045,3.134c0.841,1.067.371,0.286,1.045,2.089h-1.045V316.2Zm1.045,2.089c0.786,1.121.629,0.988,1.045,3.134h-1.045v-3.134Zm-137.948,1.045c0.786,1.121.628,0.988,1.045,3.134h-1.045v-3.134Zm-666.75,18.8c0.84,1.066.371,0.286,1.045,2.089h-1.045v-2.089Zm-1.045,3.133c0.84,1.067.371,0.287,1.045,2.09h-1.045v-2.09Zm815.149,4.179c0.84,1.067.371,0.286,1.045,2.089H933.47v-2.089Zm1.045,3.134c0.84,1.067.371,0.286,1.045,2.089h-1.045v-2.089ZM128.771,384.1c0.841,1.066.371,0.286,1.045,2.089h-1.045V384.1Zm-2.09,3.134c0.841,1.066.371,0.286,1.045,2.089h-1.045v-2.089Zm-15.676,3.133c0.841,1.067.371,0.287,1.045,2.09h-1.045v-2.09ZM109.96,393.5c0.841,1.067.371,0.287,1.045,2.09H109.96V393.5Zm733.634,30.3c1.446,1.973,1.409,6.385,0,8.357V423.8Zm-1.045,8.357c2.338,3.318,1.049,15.848-1.045,18.8Q842.027,441.556,842.549,432.154ZM9.634,437.377c0.2,2.432.2,2.952,1.045,4.179C10.475,439.124,10.478,438.6,9.634,437.377Zm877.853,8.357a7.031,7.031,0,0,1,0,7.313v-7.313Zm1.045,11.491c1.445,1.974,1.409,6.386,0,8.358v-8.358Zm1.045,19.848c1.653,2.277,1.624,10.258,0,12.536V477.073ZM102.645,487.52c1.125,1.815,1.082,2.372,0,4.178V487.52Zm1.045,6.268c0.84,1.066.371,0.286,1.045,2.089H103.69v-2.089Zm747.22,61.633c0.785,1.121.628,0.988,1.045,3.134H850.91v-3.134Zm-1.045,3.134c0.84,1.067.371,0.287,1.045,2.09h-1.045v-2.09Zm-1.045,3.134c0.84,1.067.371,0.287,1.045,2.09H848.82v-2.09Zm107.641,34.473c0.841,1.067.371,0.287,1.045,2.09h-1.045v-2.09Zm8.361,3.134c1.125,1.815,1.082,2.372,0,4.179V599.3ZM29.49,601.386l4.18,21.937c2.312,0.341,1.128-1.084,2.09,1.045-0.786,1.12-.628.987-1.045,3.134h1.045c0.389-2.169.253-2.011,1.045-3.134v2.089c5.5,6.31,6.278,19.952,9.406,28.205h-2.09v-2.089c-4.638-6.282-3.507-17.954-8.361-24.027v3.134c5.815,8.621,5.249,22.614,9.406,32.384,3.647,8.572,11.58,15.05,14.631,24.027h1.045v-3.134c-5.853-7.982-6.434-19.484-10.451-29.25-3.921-9.533-8.872-20.57-12.541-30.295C35.149,618.251,34.794,606.059,29.49,601.386Zm922.791,0c0.84,1.066.371,0.286,1.045,2.089h-1.045v-2.089Zm11.5,4.178c0.84,1.067.371,0.286,1.045,2.089h-1.045v-2.089Zm-1.045,4.179c0.785,1.12.628,0.988,1.045,3.134h-1.045v-3.134Zm-1.045,4.178c0.785,1.121.628,0.988,1.045,3.134h-1.045v-3.134Zm-1.046,4.179c0.786,1.121.629,0.988,1.046,3.134h-1.046V618.1Zm-10.45,1.044c0.84,1.067.371,0.287,1.045,2.09h-1.045v-2.09Zm9.4,2.09c1.126,1.815,1.082,2.372,0,4.178v-4.178Zm-12.54,1.044c4.651,5.343-3.372,14.746-5.226,20.893h-1.045v-3.134C943.928,635.962,945.8,627.721,947.056,622.278Zm2.09,0c0.84,1.067.371,0.287,1.045,2.09h-1.045v-2.09Zm9.405,3.134c1.582,2.408.652,5.287-1.045,7.313Q958.03,629.068,958.551,625.412Zm-2.09,1.045c0.841,1.067.371,0.286,1.045,2.089h-1.045v-2.089Zm0,6.268c0.786,1.121.629,0.988,1.045,3.134h-1.045v-3.134Zm-1.045,3.134c2.137,3.494-1.024,8.59-2.09,12.535h-1.045V645.26C954.135,642.954,954.966,639.542,955.416,635.859Zm-15.676,7.312c0.841,1.067.371,0.286,1.045,2.089H939.74v-2.089ZM938.7,645.26c0.841,1.067.371,0.287,1.045,2.09H938.7v-2.09Zm12.541,3.134c0.785,1.121.628,0.988,1.045,3.134h-1.045v-3.134Zm-1.045,3.134c0.785,1.121.628,0.988,1.045,3.134h-1.045v-3.134Zm-1.045,3.134c0.84,1.067.371,0.286,1.045,2.089h-1.045v-2.089Zm-11.5,11.491c0.841,1.067.371,0.286,1.045,2.089H937.65v-2.089Zm-9.406,9.4c2.358,4.693-5.107,13.536-7.315,17.759-5.1,9.754-8.851,19.049-14.631,28.205-3.454,5.473-9.1,10.2-11.5,16.714h-1.045V735.1c11.5-12.518,17.869-31.016,26.127-47.008C921.97,684.052,925.962,680.016,928.244,675.555ZM59.8,700.626c2.784,11.317,10.159,22.293,15.676,31.339,4.251,6.972,6.154,14.068,10.451,20.893,6.551,10.407,14.877,20.506,21.946,30.3,6.671,9.237,13.483,21.978,22.991,28.2q-1.044-2.089-2.09-4.179h2.09a23.658,23.658,0,0,0,6.271,5.224c-4.558-7.087-12.817-11.191-17.766-17.759-6.363-8.444-13.242-17.3-18.811-26.116-10.548-16.7-20.049-33.9-30.307-50.143C66.537,712.51,64.5,705.485,59.8,700.626ZM915.7,718.385c0.84,1.067.371,0.286,1.045,2.089H915.7v-2.089Zm10.45,0c0.841,1.067.371,0.286,1.045,2.089h-1.045v-2.089Zm-11.5,2.089c0.84,1.067.371,0.287,1.045,2.09h-1.045v-2.09Zm8.36,3.134c0.841,1.067.371,0.287,1.045,2.09h-1.045v-2.09Zm-2.09,3.134c0.841,1.067.371,0.286,1.045,2.09h-1.045v-2.09Zm-2.09,3.134c0.84,1.067.371,0.286,1.045,2.089h-1.045v-2.089Zm-1.045,2.089c0.9,1.967.5,0.772,0,3.134h-1.045Q917.271,733.533,917.794,731.965ZM915.7,735.1c0.9,1.967.5,0.772,0,3.134h-1.045Q915.181,736.667,915.7,735.1Zm-3.135,4.179c0.9,1.967.5,0.771,0,3.134h-1.046Q912.046,740.844,912.569,739.278Zm-2.091,3.134c0.9,1.967.5,0.771,0,3.134h-1.045Q909.957,743.978,910.478,742.412Zm-2.09,3.134c0.491,2.23.993,1.081-1.045,3.134v1.044H906.3C907.038,747.272,907.369,747.391,908.388,745.546Zm-21.946,3.134c0.84,1.066.371,0.286,1.045,2.089h-1.045V748.68Zm18.811,1.044c0.9,1.967.5,0.772,0,3.134h-1.045Q904.73,751.292,905.253,749.724Zm-20.9,2.09c0.9,1.966.5,0.771,0,3.133h-1.045Zm17.766,2.089c0.491,2.23.993,1.081-1.045,3.134v1.044h-1.045C900.768,755.63,901.1,755.748,902.118,753.9Zm-22.991,1.044c0.84,1.067.37,0.287,1.045,2.09h-1.045v-2.09Zm2.09,1.045c0.9,1.967.5,0.772,0,3.134h-1.045Q880.694,757.56,881.217,755.992Zm17.766,2.089c0.49,2.23.993,1.082-1.045,3.134v1.045h-1.045C897.633,759.808,897.963,759.926,898.983,758.081Zm-22.992,1.045c0.9,1.967.5,0.771,0,3.134h-1.045Q875.469,760.693,875.991,759.126Zm2.09,1.045c0.841,1.066.371,0.286,1.046,2.089h-1.046v-2.089Zm-5.225,3.134c0.9,1.966.5,0.771,0,3.134h-1.045Q872.333,764.872,872.856,763.305Zm2.09,1.044c0.841,1.067.371,0.286,1.045,2.09h-1.045v-2.09Zm11.5,0c0.84,1.067.371,0.286,1.045,2.09h-1.045v-2.09Zm-16.721,3.134c0.491,2.23.993,1.081-1.045,3.134v1.045h-1.045C868.371,769.21,868.7,769.328,869.721,767.483Zm-4.18,5.223c0.591,0.745,1.507.045,1.045,2.09h-1.045a9.314,9.314,0,0,1-3.135,3.134C863.322,775.088,864.19,774.86,865.541,772.706ZM856.135,784.2c0.9,1.967.5,0.772,0,3.134H855.09Q855.612,785.765,856.135,784.2Zm-676.156,3.134v2.09c9.447,6.24,14.973,18.338,24.037,25.071s23.424,14.616,27.172,26.116H229.1c-2.659-3.847-8.77-7.881-13.585-9.4v1.045c6.249,4.09,9.876,11.285,15.676,15.669,10.807,8.17,20.832,16.56,34.487,21.938-3.785-5.269-10.888-7.237-14.631-12.536h2.09c4.113,5.149,12.754,10.539,18.811,13.58-3.733-5.215-10.47-7.689-15.676-11.491C247.5,853,240.184,844.13,231.188,837.474l-10.451-11.491L197.745,805.09C192.542,798.116,189.428,793.588,179.979,787.331Zm669.886,4.179c0.84,1.067.371,0.286,1.045,2.089-16.849,11.953-32.237,39.163-52.253,44.92v-1.045H799.7c2.952-4.267,7.318-5.311,11.5-8.357l12.541-13.58C832.25,810.1,842.974,801.783,849.865,791.51ZM192.52,806.135c5.2,8.174,14.289,20.526,25.082,22.982v-1.045C208.385,822.017,201.532,812.151,192.52,806.135Zm637.489,19.848q-0.524,1.044-1.045,2.089C830.786,826.61,830.009,825.983,830.009,825.983ZM778.8,852.1h2.091q-0.523,1.044-1.045,2.089c-2.295,1.316-3.193,2.278-6.271,3.134v-1.045h1.045C775.948,854.518,777.472,853.858,778.8,852.1Zm-7.315,5.223h2.09v1.045H772.53C771.808,858.5,770.5,858.422,771.485,857.322Zm-3.135,2.089h2.09v1.045H769.4C768.672,860.594,767.363,860.511,768.35,859.411Zm-3.135,2.09h2.09v1.044C765.472,861.886,766.29,862.344,765.215,861.5Zm-3.136,2.089h2.091v1.045C762.336,863.976,763.154,864.433,762.079,863.59Zm-5.225,3.134h2.09c-5.041,7.157-17.839,15.281-27.171,17.759v-1.045h1.045C739.507,876.822,751.1,874.183,756.854,866.724Zm3.135,8.357h2.09v1.045h-1.045C760.312,876.263,759,876.181,759.989,875.081Zm-3.135,2.089h2.09v1.045H757.9C757.177,878.353,755.867,878.27,756.854,877.17Zm-3.135,2.09h2.09V880.3h-1.045C754.042,880.442,752.732,880.359,753.719,879.26ZM200.881,880.3h2.09v1.045C201.138,880.69,201.956,881.147,200.881,880.3Zm548.658,2.089h2.09v1.045C749.8,882.779,750.614,883.237,749.539,882.393Zm-11.5,4.179h2.09v1.045C738.3,886.958,739.118,887.415,738.043,886.572Zm-2.09,1.045h2.09v1.044H737c-1.42,1.318-1.848,1.427-4.18,2.09v-1.045h1.045C734.637,888.8,735.179,888.527,735.953,887.617Zm-5.225,3.134h2.09V891.8h-1.045c-5.887,5.508-17.735,11.306-26.127,13.58v-1.044h1.045C713.043,898.122,724.318,896.917,730.728,890.751ZM711.916,891.8h2.091v1.045C712.173,892.181,712.991,892.638,711.916,891.8Zm-2.09,1.045h2.09v1.045h-1.045c-1.535,1.674-6.341,5.38-7.315,4.178h-1.045v-1.045ZM685.79,910.6c2.169,0.388,2.011.253,3.135,1.044C686.756,911.255,686.914,911.391,685.79,910.6Zm-3.135,1.044c2.169,0.389,2.011.253,3.135,1.045H683.7c-1.816,1.125-2.373,1.081-4.18,0C681.689,912.3,681.531,912.435,682.655,911.643Zm-51.208,16.715h2.09V929.4C631.7,928.743,632.522,929.2,631.447,928.358ZM369.136,946.116c1.067,0.841.286,0.371,2.09,1.045C370.159,946.321,370.94,946.79,369.136,946.116Zm68.974,28.206c2.647,0.077,3.884.126,5.225,1.044C440.689,975.289,439.451,975.24,438.11,974.322Z"/>
</svg>
