<svg xmlns="http://www.w3.org/2000/svg" width="998" height="881" viewBox="0 0 998 881">
  <metadata><?xpacket begin="﻿" id="W5M0MpCehiHzreSzNTczkc9d"?>
<x:xmpmeta xmlns:x="adobe:ns:meta/" x:xmptk="Adobe XMP Core 5.6-c142 79.160924, 2017/07/13-01:06:39        ">
   <rdf:RDF xmlns:rdf="http://www.w3.org/1999/02/22-rdf-syntax-ns#">
      <rdf:Description rdf:about=""/>
   </rdf:RDF>
</x:xmpmeta>
                                                                                                    
                                                                                                    
                                                                                                    
                                                                                                    
                                                                                                    
                                                                                                    
                                                                                                    
                                                                                                    
                                                                                                    
                                                                                                    
                                                                                                    
                                                                                                    
                                                                                                    
                                                                                                    
                                                                                                    
                                                                                                    
                                                                                                    
                                                                                                    
                                                                                                    
                                                                                                    
                           
<?xpacket end="w"?></metadata>
<defs>
    <style>
      .cls-1 {
        fill: #fb6379;
        fill-rule: evenodd;
      }
    </style>
  </defs>
  <path class="cls-1" d="M561.367,0c2.083,0.374,1.931.243,3.01,1C562.295,0.631,562.446.762,561.367,0Zm5.017,1h2.007v1C566.631,1.376,567.416,1.816,566.384,1Zm5.017,1h2.007v1C571.648,2.38,572.433,2.82,571.4,2.009Zm4.014,1c2.082,0.374,1.931.243,3.01,1C576.342,3.645,576.494,3.776,575.415,3.014Zm5.017,1h2.006v1C580.678,4.39,581.464,4.83,580.432,4.019Zm4.013,1h2.007v1C584.692,5.395,585.477,5.835,584.445,5.024Zm4.014,1h2.007v1C588.705,6.4,589.491,6.839,588.459,6.028Zm4.013,1h2.007v1C592.719,7.4,593.5,7.844,592.472,7.033Zm-123.417,1c15.478-.292,60.149.611,68.231,6.028-11.187,1.351-25.48,9.949-39.133,6.028-22.4-6.432-65.821-5.74-89.3,0-7.031,1.719-39.351,10.056-43.146,8.038,8.076-.787,16.027-4.049,23.078-6.029,12.842-3.605,26.789-3.97,39.133-7.033,6.007-1.491,17.144.5,20.068-4.019-1.76-.634-0.975-0.194-2.007-1C451.579,10.16,464.961,10.733,469.055,8.038Zm-70.238,6.028c2.083,0.374,1.931.243,3.011,1C399.745,14.7,399.9,14.828,398.817,14.066Zm-3.01,1c2.083,0.374,1.931.243,3.01,1C396.735,15.7,396.886,15.833,395.807,15.071Zm-4.013,1c2.335,0.2,2.835.194,4.013,1-11.94,1.34-21.344,8.056-32.108,11.052,0.743,0.876,1.263,1.134,2.006,2.009-14.93.805-43.915,18.187-55.186,25.118C299.7,61.916,288.657,66.185,278.41,73.346c-17.024,11.9-32.687,25.712-49.166,38.18-7.455,5.641-15.379,14.56-21.071,22.1l-14.048,13.062c-3.5,4.641-6.2,9.809-11.037,13.062v-2.01c5.143-3.564,8.272-10.054,12.041-15.071,5.841-7.776,16.974-19,24.081-26.123C237.6,98.122,260.2,79.457,282.424,65.308a460.23,460.23,0,0,1,67.227-35.166Zm50.169,2.009h3.01c0.281,2.616-.016,1.978,5.017,2.009,2.108-1.54,8.929-1.511,11.038,0-5.415.735-20.113,3.238-25.085,0C438.79,19.8,440.322,19.426,441.963,18.085Zm186.631,0H630.6v1h-2.007v-1Zm92.313,838.958c-0.831-3.26.491-1.535-2.007-3.014-6.5,5.85-28.106,11.783-37.126,15.071-4.115,1.5-11.076,3.592-14.047,2.01,10.627-1.377,18.444-8.293,28.1-11.053v-1c-9.945,2.525-19.642,8.819-29.1,12.057-19.754,6.762-43.133,4.339-64.217,9.042-9.87,2.2-23.792-.362-31.105-2.009H542.3a153.5,153.5,0,0,0-31.106-3.015c-0.2-3.616.119-.19-3.01-2.009,0.858-1.551,1.351-1.016,0-2.009-1.743,1.081-2.278,1.04-4.013,0,1.76-.634.974-0.194,2.006-1-23.956-.03-54.1-7.253-75.254-12.057l-20.068,1c-22.122-5.252-45.114-7.158-66.224-14.067-40.242-13.17-79.626-26.54-112.38-47.222-14.422-9.107-28.475-19.921-42.142-30.143-4.745-3.548-8.366-9.515-13.045-13.061-15.817-11.988-29.285-27.222-41.139-43.2-4.339-5.85-11.458-10.552-14.047-18.085h1c11.649,17.186,32.6,30.737,49.166,43.2,14.86,11.178,26.692,27.247,42.143,38.18,37.152,26.289,74.477,42.926,121.411,60.285,20.045,7.414,41.555,11.015,64.217,17.08,5.666,1.517,19.763,6.84,25.085,4.019-12.542-1.376-24.746-9.523-35.119-14.066-10.093-4.42-19.259-6.708-29.1-11.052-18.7-8.257-36.4-20-60.2-23.109v1c2.158,1.345,3.595,2.766,6.02,4.019v1H304.5c-7.436-6.961-18.308-10.526-27.091-16.075-17.051-10.773-33.119-24.394-50.17-35.166-8.24-5.206-17.87-7.479-26.088-13.062-8.36-5.679-13.176-17.035-21.071-23.109-7.5-5.771-20.7-9.414-26.089-17.081q-3.009-8.539-6.02-17.08c-2.348,2.338-3.642,5.729-6.02,8.038v-1c-9.5-7.583-15.454-20.632-22.075-31.147-17.634-28-32.9-57.6-38.129-98.464,1.9-1.363,7.575-9.116,8.027-8.038,9.122,9.293,12.746,25.185,23.078,33.156-9.642-25.1-18.167-51.569-26.088-79.374L78.735,466.2V455.147c-3.5-15.765-4.947-54.319-1-71.336,2.544-10.98,5.534-22.513,8.027-32.152h2.007v35.166c-2.828,4.364-2.442,24.655-1,31.147,2.07,9.341-.269,21.017,2.007,31.147,2.974,13.238,3.894,28.881,7.024,41.194,2.023,7.961.8,17.332,5.017,23.109Q97.8,497.348,94.789,481.27l-1-28.132c-1.573-7.5-1-18.989-1-28.133,0-29.877,1.956-57.487,8.028-81.384,3.091-12.17,3.565-33.851,10.033-42.2-1,13.261-5.11,26.777-8.027,39.185-6.555,27.884-8.52,90.308-2.006,119.564,3.128,14.052,1.143,37.372,8.027,47.223-1.177-15.229-2.007-31.082-2.007-48.228V432.038c-3.513-16.661-1.422-42.23,2.007-57.27,2.875-12.609.485-28.986,7.023-38.18-0.621,25.237-8.022,47.956-8.027,76.36,0,7.976-2.491,24.419,1,30.142-0.073-5.3.615-12.747,3.01-16.076q-1.5,24.112-3.01,48.228c2.549,13.354,6,28.94,11.037,41.194,2.41,5.866,6.214,11.354,8.027,18.086h1c-1.445-6.746-9.865-29.928-7.024-35.166,2.238,20.376,14.876,39.492,23.078,55.26h1v-2.009c-2.217-2.892-4.867-13.957-3.01-17.081,1.972,15.8,13.252,30.239,19.065,43.2,2.029,4.526,2.367,8.145,5.017,12.057l5.016,4.019q3.513,8.539,7.024,17.081c9.72,15.99,25.935,42.366,41.139,52.246-6.7-13.8-17.562-24.313-26.088-36.171-9.218-12.822-17.9-26.768-26.088-40.189-15.1-24.757-25.641-54.8-35.119-84.4-3.3-10.3-3.144-19.3-6.02-30.143-4.76-17.943-9.4-43.753-5.017-64.3V374.768c1.208-5.708.407-13.79,2.007-20.095,1.072-4.227,3.361-8.019,4.013-13.061h-1v2.009c-6.216,6.974-3.579,21.184-9.031,29.137,0.033-9.946,3.584-18.51,6.021-26.123,4.756-14.86,6.294-26.912,12.04-40.189,4.509-10.419,11.834-20.923,15.051-32.152h1v3.014c-2.088,2.708-3.194,8.364-4.014,12.057h1v-2.009c4.65-6.2,17.15-42.7,18.062-52.247h-1v2.01c-4.934,4.059-13.114,22.965-15.051,30.142h-1v-3.014c6.289-7.138,8.549-19.491,13.044-28.133,9.73-18.706,20.2-38.292,32.109-55.261,25.153-35.857,58.336-63.207,94.319-88.417,7.46-5.227,16-12.847,24.081-17.081,2.209,0.379,3.4,1.453,6.02,0,15.287-8.462,37.328-28.44,58.2-29.137v1c-8.951,1.011-14.462,5.857-22.074,8.038v1h2.006c8.908-7.743,27.461-8.594,39.133-13.062v-1c-2.083-.374-1.931-0.243-3.011-1,5.968-.4,8.1-2.444,14.048-3.014,0.373,2.085.243,1.934,1,3.014,5.887-3.715,14.45-1.993,22.075-4.019,8.969-2.383,17.448-6.448,28.1-7.033v1a19.9,19.9,0,0,0-8.027,2.01v1H453c7.7-4.941,28.808-2.134,40.135-2.009v1c-1.76.634-.974,0.194-2.006,1h24.081c1.555,1.054,4.1,1.035,7.024,1v-1a17.737,17.737,0,0,1-4.014-2.009c7.9,0.257,28.952,6.1,34.116,3.014-3.519-.373-23.513-2.326-26.089-4.019,3.291,0.117,7.209.237,9.031-1-10-.647-19.491-1.959-31.105-2.009l-1-2.009h20.068c4.015,2.819,23.076,6.007,27.092,4.019h2.007v-1c-5.493-.081-28.536-2.636-32.109-5.024,22.04-.508,35.723,3.048,51.173,7.033,3.27,0.844,4.741-1.381,7.024-1,3.753,0.619,10.388,3.825,14.047,5.024,11.256,3.689,21.49,4.679,32.109,9.043,8.294,3.408,17.249,8.561,26.088,11.052v-1c-1.193-1.077-1.652-2.013-3.01-3.014-11.145-8.382-44.108-16.154-59.2-21.1-7.8-2.557-17.358-1.989-22.075-5.024,2.083-.374,1.931-0.243,3.01-1-3.324-.824-4.365-1.623-6.02-4.019h16.054c5.9,3.511,14.941,1.977,22.075,4.019l43.146,13.062c30.19,12.456,56.56,28.082,84.285,42.2-10.425-13.085-34.3-18.4-44.15-31.147h2.007c1.923,1.486,5.563,2.1,8.027,3.014-8.585-10.605-26.337-11.687-36.122-21.1,8.332,1.124,15.6,6.667,22.075,10.047,20.031,10.456,37.861,20.932,56.19,32.152-5.241-7.29-15.636-10.024-21.071-17.081H719.9c6.274,4.246,15.8,4.04,23.078,7.033,16.055,6.6,32.749,14.154,47.16,23.109C806.367,95.486,822,107.221,837.3,118.559c6.049,4.484,11.067,11.611,17.058,16.076,9.256,6.9,17.965,13.211,27.092,20.1l7.023,8.038c5.4,4.08,12.139,8.648,16.055,14.066,14.324,19.822,24.847,42.786,35.118,66.313,9.131,20.915,23.888,49.189,26.089,75.356h-1c-0.554-3.151-.211-2.445-2.007-4.019v1c6.927,10.743,5.608,44.5,9.031,60.285,10.44,48.135,2.7,129.736-10.034,168.8-4.815,14.772-12.411,29.351-16.054,44.209-0.875-.744-1.132-1.266-2.007-2.01-1.253,27.814-17.478,48.141-24.082,71.337h1V656.1c9.665-7.954,21.286-36.027,27.091-49.232a585.874,585.874,0,0,0,27.092-75.356c5.948-20.928,3.869-43.764,9.031-66.312,1.736-7.584-.478-36.513-2.007-43.2l-2.007-35.166q-4.515-26.121-9.03-52.247h1v2.01c3.975,5.022,4.607,12.521,7.024,19.09,6.642,18.06,10.247,39.509,15.051,60.284q0.5,9.042,1,18.086c5.877,27.888,2.844,69.494-3.01,94.445-3.151,13.43-2.476,24.577-6.021,37.176-8.6,30.557-19.541,59.006-31.105,85.4-2.412,5.506-3.035,10.172-6.02,15.072-9.621,15.79-20.461,29.947-30.1,46.218-3.909,6.6-12.414,11.924-17.058,18.085-16.56,21.971-35.939,40.087-55.186,59.28-4.14,4.127-16.691,18.924-22.075,17.08-2.252-.589-2.664-0.751-4.013-2.009h1c8.04-11.757,23.122-18.085,31.105-30.143h-1c-4.34,6.318-11.931,11.449-18.061,16.076-7.338,5.539-13.489,13.74-21.072,19.09-14.355,10.13-29.705,16.739-45.152,26.124C754.432,843.617,737.263,854.386,720.907,857.043ZM639.632,22.1h2.007v1C639.879,22.475,640.664,22.915,639.632,22.1Zm-124.421,1c2.083,0.374,1.931.243,3.01,1C516.138,23.74,516.29,23.871,515.211,23.109Zm46.156,1c2.335,0.2,2.835.194,4.014,1C563.045,24.922,562.545,24.925,561.367,24.114Zm83.282,0h2.007v1h-2.007v-1Zm5.017,2.009h2.007v1C649.912,26.494,650.7,26.934,649.666,26.123Zm-184.625,1c5.337-.16,15.6-1.28,19.065,1-9.1.176-21.95,3.9-27.092,0C460.114,28.228,463.366,28.274,465.041,27.128Zm186.632,0h2.006v1C651.919,27.5,652.705,27.939,651.673,27.128Zm3.01,1h2.006v1C654.929,28.5,655.715,28.944,654.683,28.133Zm-142.482,1c2.335,0.2,2.835.194,4.013,1C513.879,29.946,513.379,29.949,512.2,29.137Zm144.488,0H658.7v1C656.936,29.509,657.721,29.948,656.689,29.137Zm-139.471,1c3.291-.117,7.208-0.237,9.03,1C522.957,31.264,519.04,31.384,517.218,30.142ZM409.855,35.166h2.007v1C410.1,35.537,410.887,35.977,409.855,35.166Zm82.278,1c-7.937,4.63-22.222-.26-32.109,2.01-3.755.862-10.5,2.321-14.047,3.014l-9.031-1c-4.887,1.222-11.371,4.6-16.054,6.028-11.455,3.5-22.279,2.46-33.112,6.028-37.488,12.348-70.986,28.576-100.339,49.233-10.155,7.146-19.293,16.731-29.1,24.113-21.312,16.045-32.282,30.772-47.159,53.252-3.073,4.642-7.271,7.208-10.034,13.061h1c2.8-4.427,7.669-11.139,12.041-14.066v2.009c-8.919,8.858-14.969,20.456-22.075,31.147-24.3,36.572-42.46,73.389-54.183,123.583-2.146,9.19-.45,34.78,2.007,41.2,0.707,1.845,2.683,1.368,3.01,4.019,0.512,4.145-2.214,9.743-3.01,13.061V443.09c1.364,6.187,5.53,35.007,3.01,39.185-0.451-7.6-3.323-14.4-5.017-21.1-2.624-10.387-1.8-21.982-4.013-32.152-2.235-10.251,4.073-28.226-1-36.171-1.292,61.809,8.571,108.367,26.088,150.711,5.968,14.425,9.488,34.378,18.061,46.218,1.069,1.476,3.948,2.389,5.017,4.019,11.536,17.588,22.157,38.328,37.126,49.233-2.722-6.064-5.316-12.572-8.027-19.09h2.007c11.556,18.419,31.989,41.265,49.166,54.255,6.76,5.113,11.4,12.512,19.064,17.081-5.8-8.993-16.356-16.555-20.067-27.128h1c8.335,12.329,21.253,23.233,33.112,32.152,30.7,23.09,60.895,49.936,104.353,60.284-1.176-1.156-2.846-1.848-4.014-3.014,4.476,0.492,12.025,2.52,15.051,5.024-3.609-.273-4.873-1.215-7.024,0,7.192,0.912,13.967,4.072,20.068,6.028,7.415,2.377,13.324,1.948,21.071,4.019,3.761,1,9.5,3.878,13.045,2.009-4.965-.172-12.941-1.486-16.055-4.018,12.661,0.5,22.535,2.35,34.116,5.023,14.906,3.441,41.7-.55,54.183-2.009v2.009h-7.024c-5.375,3.386-46.733,2.724-53.18,2.01v1c10.446,1.47,29.692-.424,41.139,2.01,4.076,0.867,13.427,2.251,19.065,1a176.066,176.066,0,0,1,24.081-3.015c3.078-.1,8.15,1.386,13.044,0,7.439-2.105,15.986-6.244,25.085-7.033v1h-2.006c-1.217,1.483-2.617,1.785-4.014,3.014l22.075-3.014c-0.289-2.469-.662-0.484,0-3.014,11.562-.839,23.239-11.2,32.108-9.043v-1l-1-1h2.007c5.368,2.277,17.94-6.777,23.078-9.043,22.729-10.023,41.934-21.187,63.213-32.152v-1h-4.013c-7.329,5.7-16.974,6.939-25.085,12.056-3.746,2.364-7.131,6.513-11.037,9.043V735.47c6.023-3.806,11.149-10.584,18.061-13.062v-1l-10.034,3.014v-6.028a6.146,6.146,0,0,0,2.007-2.009c-2.274.4-1.088,0.922-3.011,0h1c9.668-9.733,21.815-14.789,35.119-21.1v-1H727.93a11.6,11.6,0,0,1-3.01,2.01v-2.01c2.79-1.791,5.863-2.921,9.031-5.023,6.335-4.2,9.26-13.243,17.057-16.076v1A12.264,12.264,0,0,0,747,678.2h1v-1c12.077-7.715,18.3-22.289,30.1-30.143v2.01c-10.742,7.3-14.013,19.8-25.085,28.133-6.87,5.173-16.257,10.977-21.071,18.085h1c5.108-4.659,13.787-5.6,19.065-10.047,5.515-4.647,7.909-13.018,13.044-18.086,2.068-2.041,5.644-2.274,8.027-4.019,1.44-1.054,6.25-5.546,7.024-7.033q-0.5-1.506-1-3.014c1.55-2.415,5.25-3.369,7.024-6.029h-1a10,10,0,0,1-5.017,3.015v-1h1c2.193-3.807,8.407-6.207,12.041-11.052s6.11-10.379,10.034-15.071c2.626-3.141,10.389-8.7,14.047-14.067,10.8-15.838,17.662-36.976,26.089-54.256,1.928,0.555.859,1.649,2.006,0,5.76-6.724,7.175-27.4,11.038-39.184,6.524-19.9,11.99-45.334,17.057-66.313,3.195-13.225-2.62-25.032-1-37.176,1.531-11.5,1.931-21.808-1-33.156-2.513-9.719-1.29-28.95-6.021-36.171-0.153,11.523,1.748,20.316,3.01,30.142-2.983.5-2.221,6.97-2.006,13.062,3,4.641,1,18.372,1,25.119,0,23.3-1.287,46.671-6.02,65.308-4.4,17.315-4.742,32.3-11.038,47.222-11.485,27.22-27.526,51.877-44.149,74.351-5.35,7.233-13.693,12.99-19.064,20.095-11.759,15.552-31.207,34.659-52.177,40.19v-1h1c8.5-11.968,21.934-15.957,28.1-31.147h-1c-5.413,4.266-16.336,7.958-24.081,9.043v-1h1c15.924-16.428,40.374-21.32,44.149-50.237h-1c-4.781,4.355-11.61,5.213-18.061,8.038-12.52,5.482-25.579,14.294-39.132,18.085v-1h1c7.225-6.788,17.919-10.333,26.088-16.075,18.287-12.856,33.262-28.828,46.156-47.223,5.985-8.538,15.886-18.416,17.058-31.147-2.158-1.677-3.085-2.834-2.007-5.024,1.242-4.107,3.973-6.686,6.021-10.047h-1c-5.955,9.117-35.59,40.371-46.156,43.2v-1h1c6.363-9.622,19.05-16.594,23.079-28.133h-2.007C791.8,516.608,776.18,528.14,772.08,529.5v-1h1c7.083-10.366,21.048-15.617,31.105-23.109,13.666-10.179,21.83-30.9,23.078-53.251,0.836-14.959,2.206-37.583-10.034-42.2-2.045-1.892-3.848-2.01-8.027-2.01-2.9,2.3-7,2.83-10.034,5.024-3.365,2.431-5.41,6.617-9.03,9.043v-2.01c4-4.09,3.212-11.919,1-17.08-2.289-1.231-2.258-1.646-6.02-2.01-2.89,2.888-6.327,3.473-10.034,3.014V401.9c8.049-8.879,8.122-23.014,21.071-27.128,11.118-3.532,22.63,3.274,30.1,5.024,7.572,1.773,12.759-1.716,17.058-3.015,0.588,8.6,4.8,15.147,7.023,22.105,2.375,7.439,1.868,16.223,2.007,25.118h-1v-1h-1c-3.128-7.4-6.32-31.075-10.034-36.17v2.009c-1.758,2.791-1.152,14.906,0,20.095,4.223,19.021,2.489,43.229,7.024,60.284a14.123,14.123,0,0,0,4.014,1c13.191-20.286,12.887-56.469,11.037-89.422-4.134-73.633-30.977-120.56-56.19-171.81h-1v1.005c-2.1,2.208-1.722,3.706-5.017,5.023-2.942,2.777-7.875,1.962-12.041,1-4.9-14.053-41.447-44.306-54.183-53.251-6.127-4.3-15.988-6.649-21.071-12.057-4.041-4.3-4.924-11.959-8.028-17.081-7.825-12.91-16.876-25.816-25.085-38.18-3.51-5.288-6.018-12.412-11.037-16.076-10.4-7.591-23.552-10.783-36.122-16.076C593.493,46.831,547.828,36.488,492.133,36.171ZM97.8,156.739c1.448,4.136-5.687,10.972-8.027,15.071-5.888,10.315-10.913,21.351-17.058,31.147-1.463,2.332-4.883,8.2-4.014,9.043-2.428,1.716-4.067.967-5.017,2.01,0,0-11.606,23.519-15.051,30.142-9.641,18.536-17.42,34.154-25.085,54.256-4.862,12.75-6.33,27.316-10.034,40.189L8.5,369.744c-0.225,7.2,2.171,21.029-1,26.123,0.112-13.239-1.128-24.648-2.007-36.17h1c0.633,1.762.194,0.976,1,2.009V359.7c-2.057-3.256-.206-11.622,1-16.076,3.92-14.43,7.17-29.977,12.041-43.2C31.5,270.655,40.288,243.2,55.657,218.029,68.644,196.762,85.01,177.564,97.8,156.739Zm120.408,0c-7.835,12.052-19.471,21.5-27.092,34.162h1c5.708-9.654,13.861-17.881,21.072-26.124C214.684,163.069,219,157.118,218.207,156.739Zm-36.123,3.015c0.472,2.144.954,1.04-1,3.014a2.857,2.857,0,0,1-1,1C180.788,161.414,181.106,161.528,182.084,159.754Zm-4.013,5.023c0.862,1.892.475,0.742,0,3.015h-1Q177.569,166.285,178.071,164.777Zm-4.014,5.024c0.807,1.026.356,0.275,1,2.009h-1V169.8Zm16.055,22.1-1,2.01C190.858,192.509,190.112,191.905,190.112,191.905Zm-37.126,8.038c0.807,1.026.356,0.276,1,2.01h-1v-2.01Zm-2.007,3.014c0.807,1.026.356,0.276,1,2.01h-1v-2.01Zm-1,2.01c1.276,4.063-5.781,10.956-8.027,15.071-7.645,14-16.624,29.149-21.072,45.213h-1v-4.019l9.031-22.1C135.134,227.089,143.138,216.259,149.976,204.967Zm-84.285,5.024-1,2.009C66.437,210.594,65.691,209.991,65.691,209.991Zm53.18,55.26c0.754,1.078.6,0.95,1,3.015h-1v-3.015Zm30.1,2.01c1.211,2.121.485,2.242,0,5.023h-1V269.27C148.776,268.244,148.325,269,148.972,267.261Zm-31.105,1c0.807,1.025.356,0.275,1,2.009h-1v-2.009Zm29.1,4.018c1.21,2.122.484,2.243,0,5.024h-1v-3.014C146.769,273.268,146.318,274.019,146.966,272.284Zm5.017,0c0.807,1.026.356,0.276,1,2.01h-1v-2.01Zm-7.024,5.024c0.754,1.078.6,0.95,1,3.014h-1v-3.014Zm-1,3.014c0.806,1.026.356,0.276,1,2.01h-1v-2.01Zm-1,3.015c0.807,1.026.356,0.275,1,2.009h-1v-2.009Zm-28.095,2.009c0.807,1.026.356,0.275,1,2.01h-1v-2.01Zm27.092,0c0.754,1.078.6,0.95,1,3.014h-1v-3.014Zm-28.1,3.014c0.807,1.026.356,0.276,1,2.01h-1v-2.01Zm27.091,0c0.807,1.026.356,0.276,1,2.01h-1v-2.01Zm-28.095,3.015c0.755,1.078.6,0.95,1,3.014h-1v-3.014Zm27.092,0c0.807,1.025.356,0.275,1,2.009h-1v-2.009Zm-28.1,3.014c1.08,1.745,1.039,2.281,0,4.019v-4.019Zm27.092,0c0.807,1.026.356,0.275,1,2.009h-1v-2.009Zm4.013,2.009c-3.557,8.135-7.8,15.9-10.034,25.119,2.364,1.108,1.786.963,3.01,3.014h1C137.4,318.021,144.658,299.224,142.952,296.4Zm-5.017,1c0.807,1.026.356,0.275,1,2.009h-1V297.4Zm-27.092,1c0.755,1.078.6,0.95,1,3.014h-1v-3.014ZM965.735,318.5c0.806,1.025.356,0.275,1,2.009h-1V318.5Zm4.013,13.061c0.807,1.026.356,0.275,1,2.01h-1v-2.01Zm-853.888,1c0.755,1.078.6,0.95,1,3.014h-1v-3.014Zm46.157,30.142c1.736,2.476.724,9.727-1,12.057Q161.516,368.74,162.017,362.711ZM4.484,366.73c2.752,4.354.067,11.744,0,17.081l-1,42.2h-1V424c-2.06-2.343-3.138-9.928-2.007-15.071C3.318,395.983,4.093,380.34,4.484,366.73Zm148.5,5.024c1.231,2-3.078,23.49-5.017,26.123,0.007-2.733-.039-4.619-1-6.028-0.193,5.067-1.46,14.52-4.014,18.085,0-11.81,2.619-22.405,4.014-33.157A22.061,22.061,0,0,0,152.986,371.754Zm-36.122,1a4.041,4.041,0,0,1,0,5.024v-5.024Zm-1,5.024c1.081,1.746,1.039,2.282,0,4.019v-4.019Zm-1,6.029c0.754,1.078.6,0.95,1,3.014h-1v-3.014Zm33.112,4.019c0.373,2.085.243,1.933,1,3.014C148.6,388.758,148.73,388.91,147.969,387.83ZM8.5,400.891c0.754,1.078.6,0.95,1,3.014h-1v-3.014Zm103.35,21.1a4.04,4.04,0,0,1,0,5.023v-5.023Zm765.589,34.161c-0.444,8.356-7.692,22.617-3.01,30.142C874.917,476.737,882.184,463.264,877.436,456.152Zm-733.48,26.123c0.754,1.078.6,0.95,1,3.014h-1v-3.014Zm727.46,1c-0.05,6.221-1.01,17.772-4.014,22.1,0.095-3.1.141-6.36-1-8.038-0.989,9.077-4.838,19.024-8.027,27.128h1a10.983,10.983,0,0,1,2.007-3.014v3.014c-3.949,5.345-4.289,13.62-7.024,20.095C848.925,557.43,842.88,570.4,837.3,583.754h1v-1c10.509-11.45,15.721-30.971,21.071-47.223,2.578-7.831,2.455-18.835,7.024-25.118l-2.007,12.057h1v-2.01C868.157,517.57,874.669,488.355,871.416,483.28Zm-5.017,22.1a4.041,4.041,0,0,1,0,5.024v-5.024ZM100.81,514.427c0.373,2.085.242,1.933,1,3.014C101.44,515.356,101.57,515.507,100.81,514.427Zm1,4.019c0.373,2.085.243,1.933,1,3.014v-3.014h-1Zm759.569,0c0.807,1.026.356,0.275,1,2.009h-1v-2.009Zm-758.566,4.019c0.374,2.085.243,1.933,1,3.014C103.447,523.393,103.577,523.545,102.816,522.465Zm38.129,11.052c0.807,1.026.356,0.275,1,2.009h-1v-2.009ZM14.518,536.531c2.24,2.875,3.477,8.8,4.014,13.062h-1v-2.01C15.368,544.916,14.65,541.247,14.518,536.531ZM8.5,545.574c4.183,3.648,3.676,9.385,6.02,15.071,4.914,11.92,9.69,23.994,15.051,36.17C35,609.153,42.729,622.654,49.637,633.991c6.809,11.176,10.013,23.212,17.058,34.161,5.782,8.987,16.285,17.336,20.068,28.133h-1c-8.073-13.343-19.708-24.988-28.1-38.18C43.3,635.511,32.732,611.872,20.538,586.768c-4.618-9.507-7.753-19.354-12.041-30.142-0.927-2.333-4.59-7.161-3.01-9.043C6.261,546.9,7.726,546.266,8.5,545.574Zm98.333,2.009c4.3,11.514,8.908,23.655,12.041,35.166h1v-3.014C113.954,570.837,114.808,554.325,106.83,547.583Zm-88.3,2.01c1.5,1.632,1.557,2.033,2.007,5.023h-1v-2.009C18.781,551.529,18.931,551.657,18.531,549.593Zm813.752,4.019c-9.707,15.592-22.137,30.229-33.112,45.213-4.949,6.757-14.035,12.826-17.057,21.1h1c5.041-7.676,13.67-12.9,19.064-20.095,7.176-9.566,13.4-18.806,20.068-29.138C824.062,567.883,834.316,555.663,832.283,553.612Zm-811.745,1c0.754,1.078.6,0.951,1,3.015h-1v-3.015Zm815.759,2.01c0.807,1.026.356,0.275,1,2.009h-1v-2.009Zm-814.755,1c0.807,1.026.356,0.275,1,2.009h-1v-2.009Zm813.751,1c0.807,1.026.357,0.276,1,2.01h-1v-2.01Zm-812.748,1c0.754,1.078.6,0.95,1,3.014h-1V559.64Zm811.745,1c1.527,3.615-4.061,11.378-6.02,15.071-5.858,11.038-14.37,31.792-24.082,38.18v-5.024c9.71-8.024,14.852-25.127,21.072-37.175C827.3,567.74,831.8,564.38,834.29,560.645ZM23.548,562.654c0.807,1.026.356,0.276,1,2.01h-1v-2.01Zm1,3.015c0.807,1.025.356,0.275,1,2.009h-1v-2.009Zm1,2.009c0.807,1.026.356,0.275,1,2.01h-1v-2.01Zm919.108,15.071c0.374,2.086.243,1.934,1,3.014C945.293,583.678,945.424,583.83,944.663,582.749Zm-763.582,4.019c0.807,1.026.356,0.275,1,2.01h-1v-2.01Zm1,2.01c0.807,1.026.357,0.275,1,2.009h-1v-2.009Zm17.058,1c2.817,2.32,21.718,33.07,23.078,37.176h-1C213.931,614.51,203.563,606.023,199.142,589.782Zm-16.054,1c0.807,1.026.356,0.275,1,2.01h-1v-2.01Zm643.175,5.024q-0.5,2.008-1,4.019h1v-2.01c0.567-.716,1.447-0.042,1-2.009h-1ZM723.917,609.877h2.007v1C724.164,610.248,724.949,610.688,723.917,609.877Zm78.264,8.038c0.807,1.026.357,0.275,1,2.01h-1v-2.01Zm-2.006,3.014c0.807,1.026.356,0.276,1,2.01-5.389,4.265-7.384,12.087-13.044,16.076v-2.01C792.613,633.5,797.24,625.855,800.175,620.929Zm-8.027,6.029c0.806,1.026.356,0.275,1,2.009-2.215,1.791-12.963,18.6-14.048,16.076h-1v-1C783.349,640.349,788.705,632.413,792.148,626.958Zm-568.924,1c1.629,1.357,1.125.643,2.006,3.015h-1v-1C223.42,628.946,223.871,629.7,223.224,627.962ZM736.961,635h2.007v1C737.208,635.367,737.993,635.807,736.961,635Zm50.17,4.019c0.861,1.891.475,0.742,0,3.014h-1Q786.63,640.522,787.131,639.015Zm12.04,3.014a11.592,11.592,0,0,1-3.01,2.009v1C799.448,643.975,799.247,643.55,799.171,642.029Zm-15.051,1c0.807,1.025.356,0.275,1,2.009h-1v-2.009Zm-524.774,22.1c0.807,1.026.356,0.275,1,2.009h-1v-2.009ZM86.762,696.285c1.629,1.356,1.125.643,2.007,3.014h-1v-1C86.959,697.268,87.409,698.019,86.762,696.285Zm4.014,5.023c0.807,1.026.356,0.276,1,2.01h-1v-2.01Zm636.151,11.053c-1.076,1.194-2.011,1.654-3.01,3.014h1C726.676,713.26,726.9,713.905,726.927,712.361Zm-34.115,5.023h2.006v1h-1c-4.74,7.242-14.7,13.675-24.081,16.076v-1h1C676.824,727.243,687.443,724.164,692.812,717.384Zm-29.1,16.076h2.007v1C663.96,733.831,664.745,734.271,663.713,733.46Zm-2.007,1h2.007v1C661.953,734.836,662.738,735.276,661.706,734.465Zm21.072,0h2.006v1C683.024,734.836,683.81,735.276,682.778,734.465Zm-23.078,1h2.006v1h-1C660.009,736.607,658.752,736.527,659.7,735.47Zm21.071,0h2.007q-0.5,1-1,2.009c-10.214,4.929-19.44,11.9-30.1,17.081v-2.01C658.488,748.742,676.394,741.033,680.771,735.47Zm-24.082,2.009H658.7v1h-1c-2.5,2.695-6.245,5.752-10.034,7.033v-1.005h-1v-1Zm-12.04,7.033h2.007v1.005C644.9,744.883,645.681,745.323,644.649,744.512Zm4.013,7.033h2.007v1C648.909,751.917,649.694,752.356,648.662,751.545Zm-5.017,2.01h2.007v1C643.892,753.926,644.677,754.366,643.645,753.555Zm-26.088,1h2.007v1C617.8,754.931,618.589,755.371,617.557,754.56Zm24.082,0h2.006v1C641.885,754.931,642.671,755.371,641.639,754.56Zm-27.092,1h2.007v1C614.794,755.935,615.579,756.375,614.547,755.564Zm25.085,0h2.007v1C639.879,755.935,640.664,756.375,639.632,755.564Zm-3.01,1c2.082,0.374,1.931.243,3.01,1h-2.007c-1.992,1.7-5.5,2.7-8.027,1h2.007C632.616,757.883,635.617,757.285,636.622,756.569Zm5.017,1h2.006v1C641.885,757.945,642.671,758.385,641.639,757.574Zm-14.048,2.009H629.6v1C627.838,759.954,628.623,760.394,627.591,759.583ZM411.862,762.6h2.006v1C412.108,762.969,412.894,763.409,411.862,762.6Zm15.05,4.019h2.007v1C427.159,766.988,427.944,767.428,426.912,766.617Zm4.014,1h2.007v1C431.173,767.992,431.958,768.432,430.926,767.621Zm3.01,1c2.083,0.374,1.931.243,3.01,1C434.864,769.257,435.015,769.388,433.936,768.626Zm4.014,1c2.335,0.2,2.835.193,4.013,1C439.628,770.439,439.128,770.442,437.95,769.631Zm115.39,1c2.729-.007,4.613.039,6.02,1-4.654.445-13.914,2.726-18.061,0C545.184,771.788,551.047,772.18,553.34,770.636Zm-23.078,2.009c3.291-.117,7.208-0.237,9.03,1C536,773.767,532.084,773.887,530.262,772.645Zm52.176,3.014c1.726,0.885,1.283.893,3.011,0h-3.011Zm83.282,96.455h2.007v1H665.72v-1Zm-3.01,1h2.007v1H662.71v-1Z"/>
</svg>
