<svg xmlns="http://www.w3.org/2000/svg" width="1007" height="991" viewBox="0 0 1007 991">
  <metadata><?xpacket begin="﻿" id="W5M0MpCehiHzreSzNTczkc9d"?>
<x:xmpmeta xmlns:x="adobe:ns:meta/" x:xmptk="Adobe XMP Core 5.6-c142 79.160924, 2017/07/13-01:06:39        ">
   <rdf:RDF xmlns:rdf="http://www.w3.org/1999/02/22-rdf-syntax-ns#">
      <rdf:Description rdf:about=""/>
   </rdf:RDF>
</x:xmpmeta>
                                                                                                    
                                                                                                    
                                                                                                    
                                                                                                    
                                                                                                    
                                                                                                    
                                                                                                    
                                                                                                    
                                                                                                    
                                                                                                    
                                                                                                    
                                                                                                    
                                                                                                    
                                                                                                    
                                                                                                    
                                                                                                    
                                                                                                    
                                                                                                    
                                                                                                    
                                                                                                    
                           
<?xpacket end="w"?></metadata>
<defs>
    <style>
      .cls-1 {
        fill: #f396a3;
        fill-rule: evenodd;
      }
    </style>
  </defs>
  <path class="cls-1" d="M897.409,98.17C896.9,117.3,899.3,149.9,916.018,151.905c11.895-8.319,25.912-12.13,38.254-19.634,7.26-4.414,13.756-10.867,23.779-12.4v2.066c3.184,5.584-2.853,13-5.169,16.534-5.561,8.494-18.814,19.745-19.644,29.968,11.9,10.977,39.371,27.348,32.05,52.7-4.416,15.3-14.881,22.756-18.609,39.268-2.776,12.29,4.082,23.872,6.2,33.067,2.776,12.041-2.737,21.5-3.1,32.035,4.6,1.9,10.7,3.326,13.441,7.233,4,5.186-1.544,10.026,1.034,17.568,2.266,6.633,13.281,9,16.545,15.5,8.13,16.2-9.4,51.958-23.783,53.735v-1.033h-1.033q-1.035-6.716-2.068-13.434a18.635,18.635,0,0,1-4.136-3.1c-15.9-.287-12.942,4.537-21.711,8.267-3.59-5.224-11.137-7.21-14.475-12.4-2.35-3.656-.931-9.971-2.067-12.4-2.275,2.086-4.688,2.128-6.2,5.167-2.28,3.694-.457,14.112-4.135,16.534-6.252-4.8-15.5-5.812-21.712-10.334-4.3-3.127-9.167-10.453-11.372-15.5q-0.518-3.1-1.034-6.2c-2.175-3.007-11.383-3.974-14.475-6.2l-21.711-23.767v2.067c8.228,9.053,11.814,25.083,17.576,36.168,22.739,43.747,33.178,82.534,34.118,149.838h1.034v-2.067c5.8-7.785,1.675-23.5,7.237-32.034,2.467-7.525,12.879-15.648,21.712-16.534a19.324,19.324,0,0,0,5.169,3.1,18.235,18.235,0,0,1-2.068,4.133c-1.219-.829-1.738-0.8-4.135-1.033,0.234,6.652.062,9.084,0,16.534,14.176,1.846,42.181,23.059,45.49,35.134-5.124-.07-12.535.784-14.474,4.134,2.576,2.519,8.163,7.98,9.3,11.367,2.81,8.337-2.538,17.762-4.135,22.734l-10.339,46.5c-2.65,6.174-9.489,9.838-11.373,16.534-2.357,8.378,2.121,14.486,2.068,22.734l-3.1,1.033c-2.6,1.876-7.561,2.664-11.373,3.1-0.587,4.849-11.163,40.061-13.44,42.368-4.5,4.558-11.274,6.5-16.542,10.334l-6.2,7.233c0.48,14.326,3.591,28.041-8.271,32.035-4.255,3.1-11.414,1.527-16.543,4.133-2.793,1.42-23.207,25.1-23.779,27.9,1.317,1.889,1.764,5.432,2.068,8.267-6.6,1.024-16.745,8.4-21.712,6.2-9.2-2.065-14.246-8.663-20.677-12.4l-6.2,1.033c-1.3-.677-1.447-2.5-2.068-4.133l10.339-1.033c4.235-8.43,10.115-17.719,5.169-29.968-6.617,6.331-11,15.344-16.542,22.734-10.377,13.831-48.073,47.124-65.135,52.7a17.054,17.054,0,0,1,0,8.267c-1.747,1.015-3.379,3.5-5.169,4.133-4.711,1.661-9.41-1.783-11.373-2.067-4.792-.693-18.169,7.925-18.61,13.434,1.7,2.559,1.162,9.2,1.034,13.434-3.836,2.624-3.73,4.8-10.339,5.167-3.789-4.976-8.311-8.408-11.372-14.467l-31.017,11.367L628.6,879.4c-6.826,2.856-9.291,11.571-17.576,13.434a22.137,22.137,0,0,0-10.339-7.234c-1.22.83-1.739,0.8-4.136,1.034a29.256,29.256,0,0,1-8.271,8.267q0.518,1.549,1.034,3.1c5.315,1.1,12.714,3.277,14.474,8.267,0.778,1.108.622,0.977,1.034,3.1h-1.034V910.4c-22.981-.375-35.467,8-54.795,12.4-17.207,3.921-30.123-7.529-48.593-3.1-17.729,4.25-41.184,4.852-59.965,9.3-9.383,2.222-17.948.787-25.847,4.133-10.877,4.609-19.7,14.119-29.982,19.634-12.085,6.483-25.909,7.8-36.186,15.5-8.431,6.318-7.96,20.593-20.678,22.734q-0.516-1.55-1.034-3.1c-4.637-6.411,2.489-14.011,4.136-20.668,3.121-12.62-.846-31.848-4.136-40.3-13.889-8.626-31.413-12.858-47.558-19.634-6.323-2.654-15.439-9.332-26.881-6.2-11.221,3.071-14.448,13.019-28.949,13.434-2.993-3.28-7.168-6.244-9.305-10.334-3.57-6.834-3.964-14.707-8.271-20.667-2.235-3.094-6.558-4.6-9.3-7.234-13.959-.305-20.6,5.73-29.982,10.334-0.023,6.914-2.028,10.72-6.2,13.433-2.905,2.317-7.976,2.208-13.44,2.067-6.157-10.4,2.193-16.885,3.1-28.934-11.08-9.975-47.523-26.514-42.389-48.568q2.067-6.717,4.135-13.434c2.781-1.123,10.429-1.235,13.441-3.1,3.53-2.188,25.967-22.483,26.88-25.834q-1.033-7.751-2.067-15.5c6.035-1.388,12.837-5.264,13.44-12.4-8.662-5.688-20.509-13.817-34.118-11.367-1.929,5.635-7.56,9.886-9.305,15.5-2.362,7.6,2.437,14.3,1.034,21.7-2.817,1.765-2.583,2.62-7.237,3.1-5.1-11.293-12.609-22.094-16.542-34.1-2.571-7.851-2.4-18.521-4.135-25.834-4.449-2.711-14.7-7-17.576-11.367-2.769-4.2-2.372-9.431-6.2-12.4-7.636-5.919-17.833-6.783-20.678-17.567l4.136-39.268c2.146,0.384,1.99.25,3.1,1.033,2.528,3.444,2.04,7.307,6.2,9.3,4.786,3.1,23.372-.825,31.017-1.034-1.724-12.4-10.121-25.561-14.474-37.2-6.8-18.175-8.626-38.632-13.44-58.9q-0.517-12.4-1.034-24.8c-7.922-35.709,6.405-73.582,7.237-105.4C63.054,423,58.825,413.239,58.931,401.98c3.524-3.826,3.958-8.086,10.339-9.3,0.047,6.923,1.653,19.41,5.169,23.767,1.267-13.769,9.265-26.575,0-38.234-2.615,1.837-6.991,2.056-11.373,2.066v-3.1c3.3-2.275,13-12.683,16.542-10.333h1.034c-1.326,2.141-2.148,2.379-3.1,5.166a20.576,20.576,0,0,1,6.2,6.2h1.034v-1.034c5.807-7.192,10.8-26.649,5.169-35.134-1.817,2.384-4.436,3.782-7.237,5.167-0.507-8.282-3.492-16.459-5.169-23.768-0.944-4.113,1.553-4.35,2.068-6.2-2.37-6.376-5.458-14.324-9.305-19.634-3.983-5.5-20.945-11.4-16.542-23.768,2.7-7.594,14.652-4.514,17.576-12.4,2.965-5.127-1.067-10.626,1.034-16.534,2.7-7.594,10.484-12.254,14.474-18.6,9.859-15.679,13.037-36.2,22.745-51.669,6.158-9.81,16.422-21.3,25.847-27.9l13.441-7.233c5.076-4.977,8.138-12.883,12.406-18.6,3.38-4.527,8.85-7.924,13.441-11.367q4.136-4.65,8.271-9.3c14.411-10.846,27.736-24.028,42.389-34.1,5.121-3.521,13.56-2.911,18.61-6.2,4-2.6,7.337-7.8,11.373-10.334l11.372-3.1c9.672-3.9,20.734-9.626,31.017-12.4,18.3-4.938,27.088,10.029,32.05,19.634,1.377,2.667,6.75,9.39,5.169,11.367-1.984,1.832-3.242,1.959-7.237,2.067-3.6-4.02-6.808-7.1-14.474-7.234V62c11.325,14.766-.6,34-11.373,41.335-4.907,3.339-9.208,3.317-12.406,8.267-3.806,5.889-16.844,19.048-7.238,24.8,10.148-10.072,57.132-36.541,73.406-39.268,0.04-15.683-8.794-14.5-9.3-27.9,1.229-1.108,1.7-2.071,3.1-3.1V65.1h1.034c0.015,3.938.365,6.185,2.067,8.267V72.336c1.546-1.678,1.605-2.091,2.068-5.167a9.562,9.562,0,0,1-4.135-3.1c5.971-2.56,16.394-5.993,18.609-12.4,2.155-3.127.759-10.12,0-13.434,8.966-.4,10.963-3.822,15.509-8.267V21.7c9.758,0.656,16.9,6.024,25.847,8.267C410.116,12.583,416,19.286,425.959,16.534c3.562-.984,4.852-3.777,10.339-4.133,2.8,8.713,10.4,17.725,22.745,17.567,3.126-2.3,17.943-7.146,19.644-6.2,3.567,3,3.329,7.453,8.271,9.3,5.348-4.025,16.04-2.4,21.711-6.2,6.445-4.313,6.388-14.986,10.339-21.7,8.475,3.064,14.864,7.161,23.779,9.3,14.933,3.583,23.322-7.381,37.22-3.1,12.891,3.971,27.006,10.438,41.355,14.467,17.687,4.966,35.832,3.006,54.8,7.234,8.312,1.853,29.189,7.317,38.254,5.167,13.223-3.137,25.848-8.393,38.253-12.4,10.566-3.413,21.309-3.122,31.017-7.233C794.315,14.1,798.868,1.375,811.6,0c2.32,2.459,3.282,1.81,4.136,6.2,1.489,4.439-4.875,9.616-7.237,13.434-3.873,6.26-14.1,32.492-11.373,43.4,2.966,11.86,37.922,37.847,48.593,44.435,3.944,2.436,12.46,5.955,19.643,4.134C876.665,108.738,885.566,100.129,897.409,98.17ZM525.211,31c0.4,2.7-.768,1.353,2.068,2.067V31h-2.068ZM407.349,46.5q-0.517,2.583-1.034,5.167c1.784,0.814,1.9,2.714,3.1,1.033,0.907-1.338.924-2.549,1.034-5.167ZM290.52,47.535V49.6h1.034V48.568h1.034C291.533,47.737,292.305,48.2,290.52,47.535Zm219.183,6.2q1.034,9.3,2.068,18.6c-8.484.623-10.4-1.37-16.542-3.1l-22.745,1.033c-2.6-.91-5-4.72-7.238-6.2-8.065-5.34-16.467-7.076-29.982-7.234-3.89,6.07-6.284,12.949-8.271,21.7h2.068c4.937-3.27,21.789-2.227,26.88-1.033l24.814,1.033c15.11,3.742,30.694,6.977,43.423,12.4,28.731,12.241,50.64,26.176,75.473,41.335,24.055,14.684,52.164,23.554,78.575,35.135,10.422,4.569,21.6,10.071,32.05,15.5,1.913,0.994,5.511,4.595,7.237,5.167l13.441-1.033c6.546,2.244,8.955,6.921,18.61,5.166,1.51-3.45,3.142-13.483,5.169-16.533,5.245-4.677,18.445-6.106,21.712-12.4l-20.678-12.4c-12.227-3.407-16.312,5.847-25.847,0-8.188-5.021-12.306-15.039-19.644-20.668-5.447-4.178-11.082-7.259-16.542-11.367-4.363-3.282-4.083-7.328-11.373-8.267-13.821,11.35-48.38-5.585-51.694-15.5H631.7V94.036c12.255-1.585,18.106,3.063,28.949,4.133-1.094-8.17-5.7-9.1-10.339-13.434-9.338.116-21.243-1.61-28.949,1.033-3.094,1.062-6.4,6.564-11.372,5.167-2.775-.78-4.91-4.74-6.2-7.234-21.121,9.063-53.473,1.771-64.1-12.4a29.924,29.924,0,0,1-13.441,3.1c-2.584-4.859-6.026-16.463-11.372-18.6C513.193,54.257,512.781,54.2,509.7,53.735Zm214.014,9.3c1.395,1.678.661,1.159,3.1,2.067V63.035h-3.1Zm42.389,13.434c-2.642,3.312-4.539,2.4-5.17,8.267,4.549,2.884,7.207,4.223,15.509,4.134l5.169-6.2C776.549,78.623,776.31,76.3,766.106,76.469Zm-596.55,12.4,3.1,1.033-2.068,6.2h-2.067V90.936C169.354,89.881,168.889,90.653,169.556,88.87Zm574.838,11.367c1.716,1.153,1.105,1.829,2.068,0h-2.068ZM189.2,108.5q0.517,1.55,1.034,3.1a3021.837,3021.837,0,0,1,2.068-2.067h-1.034C190.212,108.706,190.985,109.17,189.2,108.5Zm538.652,2.066c-4.309,5.349-12.531,6.714-16.542,12.4h4.136c5.007,2.932,20.006-4.755,21.711-9.3C733.967,111.658,733.611,110.688,727.852,110.57Zm-554.16,57.869c-0.021,2.8-1.372,1.664,2.068,3.1v-2.067Zm605.854,11.367q0.517,1.549,1.034,3.1h1.034v-1.033h1.034v-1.034h-1.034C780.558,180.008,781.331,180.473,779.546,179.806Zm9.3,10.334a25.836,25.836,0,0,1-4.135,5.166c0.652,1.813.2,1,1.033,2.067,1.22,0.83,1.739.8,4.136,1.034q0.516-1.551,1.034-3.1A6.282,6.282,0,0,0,788.851,190.14Zm166.455,13.433c-1.076,2.908-2.6,1.413,0,3.1,1.219,0.829,1.738.8,4.135,1.033q0.517-1.034,1.034-2.067C958.313,204.481,958.581,204.158,955.306,203.573Zm-17.576,1.034c-1.273,1.86-2.68,2.563-4.136,4.133,0.832,1.055.367,0.283,1.034,2.067H936.7c1.607-2.094,3.62-2.953,5.169-5.167h-1.033v-1.033h-3.1Zm-117.862,15.5c-7.62,7.463-18.187,1.817-27.915,1.034a54.576,54.576,0,0,0-6.2,18.6c5.847,3.8,11.729,10.671,15.509,16.534h1.034v-1.033c7.634-5.084,22.475-21.882,22.745-34.1H824v-1.034h-4.135Zm31.016,21.7,12.407-2.067c1.675-3.63,2.871-5.885,3.1-11.367a12.614,12.614,0,0,1-4.135-4.133c-1.814.652-1,.2-2.068,1.033-4.634,1.146-6.475,3.267-7.237,8.267C851.635,235.43,851.187,238.973,850.884,241.808Zm90.981,11.367c-2.945,2.964-10.806,10.942-8.271,15.5,1.041,5.046,1.966,7.091,8.271,7.233,2.953-3.432,17.922-17.07,6.2-21.7C946.6,253.216,944.684,253.2,941.865,253.175Zm-125.1,3.1-7.237,5.167v2.067H811.6c1.738,1.389,3.25,1.692,6.2,2.067,2.964-2.755,5.672-2.807,7.237-7.234h1.034c1.024-1.043-1.019-1.021-1.034-1.033C823.29,256.128,819.975,256.207,816.766,256.275Zm22.745,42.368c-1.259,3.769-2.532,3.305-3.1,8.267,2.375,1.659,1.561,2.213,5.169,3.1,1.266-2.357,1.694-2.326,2.068-6.2C841.9,301.888,842.009,300.026,839.511,298.643ZM991.492,441.248h4.135c3.314,5.966,20.013,31.079-1.034,32.034a11.952,11.952,0,0,0-3.1-2.066c-0.23-5.524,4.3-11.324,2.067-18.6C992.18,448.128,990.859,447.5,991.492,441.248Zm-15.508,32.034c5.32,2.619,7.021,5.685,9.3,11.368-1.813.651-1,.2-2.067,1.033h-2.068C979.936,480.8,977.341,478.123,975.984,473.282Zm-971.848,3.1L9.3,477.416v2.067H8.271c-1.265,3.2-.388,2.336-4.136,3.1C2.676,481.019,1.278,480.3,0,478.449,2.321,477.843,2.745,477.677,4.136,476.383ZM981.153,506.35v-5.167l3.1-1.033c1.338-.906,2.55-0.924,5.169-1.033v1.033c-2.159,2.272-1.774,3.812-5.169,5.167C983.145,506.094,983.277,505.938,981.153,506.35Zm5.169,10.334c4.725,5.09,7.519,13.92,10.339,20.667h-2.068c-7.977,7.91-14.159-1.59-13.44-11.367Zm5.17,59.935c6.3-.338,13.278-0.887,15.508,3.1-4.68,3.025-25.2,20.4-29.983,17.568-4.26-1.311-5.068-2.707-5.169-8.267,0.831-1.055.367-.283,1.034-2.067,2.166-1.375,3.25-3.875,5.169-5.167C981.917,579.184,987.739,579.358,991.492,576.619Zm-93.05,90.937c0.856,3.353-.506,1.579,2.068,3.1v-1.034c0.832-1.055.367-.283,1.034-2.066h-3.1Zm-20.677,1.033q-0.518,1.549-1.034,3.1C879.725,670.376,879.5,671.008,877.765,668.589ZM69.27,682.023h3.1v-6.2H70.3v2.066C69.474,679.108,69.5,679.627,69.27,682.023Zm301.893,91.97c-1.386.913-5.63,1.51-7.237,2.066,0.823,5.941-.624,10.862-8.271,11.367-2.223,1.487-7.555,1.151-11.373,1.034-4.293,7.237-11.826,13.194-13.44,22.734,21.045,5.861,38.312,27.287,64.1,16.534,8.141-3.394,15.1-4.281,15.509-15.5-2.459-3.96-1.294-9.7-3.1-14.467C401.828,783.2,390.334,775.07,371.163,773.993ZM201.607,790.527c-2.6,3.86-6.571,5.574-8.271,10.333,5.185,3.493,10.227,11.124,13.44,16.534,3.09-1.352,4.9-1.8,6.2-5.167,2.221-3.378.29-8.672,0-13.434C208.729,796.283,206.046,792.851,201.607,790.527Zm23.779,19.634q-0.518,6.716-1.034,13.433c4.013,2.6,5.1,4.117,12.407,4.134,1.7-2.919,2.7-3.538,3.1-8.267C234.507,816.751,231.327,812.144,225.386,810.161Zm552.092,1.033h2.068v1.033C777.733,811.576,778.542,812.028,777.478,811.194Zm-625.5,15.5a11.325,11.325,0,0,1-2.067,3.1c0.652,1.812.2,1,1.034,2.066,0.765,0.9,1.3,1.166,2.067,2.067l3.1-1.033c0.785-2.719,1.239-2.465,2.068-5.167A18.96,18.96,0,0,0,151.98,826.694Zm-22.745,19.634h3.1c2.462-3.8,4.016-4.589,4.135-11.367h-1.034v-1.033c-1.813.652-1,.2-2.067,1.033-2.389,1.046-2.236,1.769-4.136,3.1v8.267ZM714.412,857.7h6.2c0.994,1.825,1.3,1.737,2.068,4.134h-1.034v1.033l-7.237-2.066v-3.1ZM231.589,874.229V876.3h2.068v-2.067h-2.068Zm562.431,9.3h-6.2c-2-2.732-3.914-3.47-5.169-7.234h2.068c2.138-1.72,4.3-1.974,8.271-2.067V876.3C794.071,877.9,794.052,880.518,794.02,883.53Zm-455.941-8.267c-1.171,1.6-1.121.87-2.068,3.1-4.5,5.808-2.639,25.014-2.068,32.034,4.128,2.748,5.213,4.895,12.407,5.167,5.481-3.77,8.514-3.633,13.441-8.267-1.826-9.47-8.466-16.016-12.407-23.767l-3.1-8.267h-6.2ZM815.732,876.3l3.1,1.034c-0.652,1.812-.2,1-1.034,2.066-1.679,1.545-2.092,1.6-5.17,2.067C813.537,878.652,814.4,878.426,815.732,876.3Zm-124.066,3.1,3.1,1.034v1.033h-1.034c-1.056.831-.283,0.367-2.068,1.033v-3.1Zm-327.74,1.034c-1.045,2.581-1.991,4.238-1.034,6.2,1.339,2.55-.444.7,2.068,2.066,3.18,2.036,9.966-.938,12.406-3.1H378.4v-1.033C373.94,882.463,370.59,880.709,363.926,880.43Zm29.983,24.8c-3.122,4.695-5.557,11.258,4.135,11.367v-2.066c0.993-1.465,1.01-3.383,1.034-6.2C396.936,907.005,396.7,906.184,393.909,905.23Zm315.333,1.034c2.629,1.5,1.166-.225,2.068,3.1h-2.068v-3.1Zm20.678,0,3.1,1.033c3.41,6.914,3.957,10.819,2.068,19.634H729.92c-3.968-3.805-6.155-4.19-6.2-12.4C725.868,911.987,728.064,908.842,729.92,906.264Zm-166.455,24.8h2.068V932.1C563.719,931.446,564.528,931.9,563.465,931.065Zm51.694,8.267c1.839,2.41,1.952,1.768-1.034,3.1Q614.643,940.881,615.159,939.332ZM674.09,941.4c0.777,1.109.622,0.977,1.034,3.1H674.09v-3.1Z"/>
</svg>
