<svg xmlns="http://www.w3.org/2000/svg" width="993.812" height="668.125" viewBox="0 0 993.812 668.125">
  <defs>
    <style>
      .cls-1 {
        fill: #a6b4bf;
        fill-rule: evenodd;
      }
    </style>
  </defs>
  <path class="cls-1" d="M481.908,500.9c-0.242,6.729,7.758,12.432,18.129,12.414,10.291-.007,18.492-5.857,18.188-12.456-0.3-6.621-8.582-11.563-18.467-11.515C490.031,489.4,482.145,494.294,481.908,500.9ZM545.9,516.39c-0.607-6.6-9.309-11-19.449-10.315-9.966.686-17.826,6.071-17.781,12.687,0.043,6.719,8.5,11.922,19.133,11.241C538.325,529.341,546.5,522.955,545.9,516.39Zm-54.429,2.278c-0.058-6.633-8.345-12.073-18.492-12.637-9.976-.544-18.252,3.86-18.745,10.451-0.5,6.705,7.485,12.91,18.122,13.521C482.893,530.625,491.527,525.268,491.468,518.668Zm33.951-47.633c-9.491.588-17.109,5.949-17.143,12.532-0.037,6.746,7.958,12.02,18.04,11.4,9.821-.591,17.56-6.762,17.268-13.274C543.286,475.109,534.985,470.453,525.419,471.035Zm-50.9-.013c-9.485-.57-17.439,3.849-17.946,10.427-0.51,6.6,6.88,12.77,16.75,13.486,10.022,0.736,18.4-4.508,18.542-11.125C492.009,477.223,484.091,471.611,474.522,471.022ZM499.9,548.354c10.793,0.036,19.555-5.877,19.237-12.448-0.312-6.5-8.884-11.462-19.048-11.5-10.448-.024-18.927,4.926-19.091,11.672C480.841,542.672,489.211,548.33,499.9,548.354ZM428.97,495.763c-0.574,6.51,7.094,13.089,17.192,14.252,10.009,1.175,18.546-3.584,18.905-10.046,0.362-6.563-7.55-12.654-17.322-13.827C437.911,484.973,429.562,489.051,428.97,495.763Zm106.094,4.29c0.384,6.559,8.876,11.214,19.011,9.951,10.046-1.24,17.76-8,17.061-14.464-0.713-6.583-9.516-10.625-19.32-9.325C542.125,487.509,534.676,493.442,535.064,500.053Zm21.526,44.9c10.7-1.2,19.047-8.185,18.168-14.668-0.869-6.444-9.865-10.354-19.962-9.128-10.161,1.251-18.178,7.185-17.885,13.734S546,546.162,556.59,544.954ZM482.933,465.79c-0.271,6.568,7.2,12.308,16.792,12.414,9.693,0.123,17.687-5.748,17.448-12.324-0.234-6.482-7.987-11.512-17.108-11.544C490.887,454.314,483.2,459.252,482.933,465.79Zm-39.777,79.117c10.7,1.314,19.943-3.611,20.032-10.161s-8.108-12.456-18.214-13.633c-10.169-1.167-18.939,2.778-19.653,9.3C424.606,536.926,432.567,543.625,443.156,544.907Zm47.634,9.084c0.254-6.466-8.271-12.08-18.679-12.824-10.381-.723-19.492,3.676-20.084,10.171-0.6,6.531,7.7,12.844,18.573,13.6C481.4,565.7,490.534,560.512,490.79,553.991Zm57.254-2.246c-0.189-6.463-9.11-11.077-19.532-10.605-10.372.488-19.149,5.939-19.259,12.455-0.109,6.572,8.583,11.891,19.464,11.388C539.524,564.5,548.237,558.3,548.044,551.745Zm-14.69-87.109c0.128,6.56,8.054,11.441,17.629,10.388,9.518-1.033,16.931-7.708,16.346-14.252-0.581-6.506-8.677-10.631-17.821-9.51C540.549,452.374,533.23,458.234,533.354,464.636ZM432.685,460.7c-0.652,6.5,6.751,13.23,16.256,14.3,9.412,1.073,17.329-3.615,17.7-10.033,0.376-6.516-6.937-12.538-16.083-13.712C441.426,450.094,433.34,454.174,432.685,460.7Zm-15.5,62.6c10.12,1.746,18.88-2.374,19.569-8.767,0.7-6.476-6.967-13.017-16.828-14.852-9.833-1.816-18.773,1.692-19.737,8.168C399.227,514.306,406.941,521.546,417.186,523.3Zm182.628-15.414c-0.951-6.477-9.895-9.982-19.746-8.177-9.676,1.789-17.288,8.155-16.852,14.548,0.445,6.539,9.282,10.85,19.572,9.074C593.049,521.581,600.765,514.353,599.814,507.887Zm-21.189-19.4c9.75-1.669,17.007-8.774,16.1-15.288s-9.281-10.072-18.657-8.325c-9.145,1.717-16.388,8.043-15.993,14.423C560.477,485.805,568.88,490.172,578.625,488.489ZM423.719,464.808c-9.354-1.646-17.711,1.989-18.519,8.488-0.789,6.342,6.405,13.382,15.936,15.124,9.771,1.8,18.212-2.457,18.72-9S433.071,466.468,423.719,464.808Zm76.2,118.456c11.157,0.036,20.007-5.742,19.7-12.322-0.3-6.472-9.011-11.281-19.587-11.318-10.638-.022-19.686,5.022-19.8,11.531C480.128,577.534,489.039,583.245,499.924,583.264ZM524.168,436.15c-8.863.533-16.254,6.089-16.141,12.6,0.111,6.378,7.736,11.577,16.857,11.042,9.329-.53,16.545-6.727,16.044-13.3C540.435,440.032,533,435.638,524.168,436.15Zm-48.078.006c-8.834-.661-16.68,3.912-17.11,10.414-0.421,6.374,6.712,12.519,15.854,13.193,9.3,0.7,17.016-4.542,17.057-11.121C491.935,442.161,484.932,436.833,476.09,436.156Zm-64.407,56.131c0.764-6.45-6.229-13.085-15.719-15.394-9.4-2.273-18.114.694-19.359,6.98-1.265,6.361,6.076,14.065,15.971,16.283C402.505,502.394,410.918,498.748,411.683,492.287Zm28.609,87.328c10.958,1.34,20.121-3.167,20.522-9.614,0.408-6.507-7.576-12.279-18.2-13.686-10.581-1.385-20.149,2.5-20.867,8.947C421.043,571.582,429.421,578.3,440.292,579.615Zm182.962-95.648c-1.227-6.391-9.71-9.324-19.214-7.039-9.39,2.268-16.575,9.032-15.871,15.405,0.71,6.441,9.8,10.221,19.66,7.762C617.719,497.646,624.482,490.348,623.254,483.967ZM412.891,557.9c10.694,1.862,19.713-2.165,20.314-8.608,0.607-6.47-7.061-12.7-17.369-14.625S396.07,536.2,395.2,542.628C394.335,548.95,402.34,556.073,412.891,557.9Zm146.785,21.738c10.992-1.337,19.122-7.9,18.4-14.327-0.722-6.454-9.64-10.221-20.252-9.032-10.627,1.2-19.271,7.282-18.817,13.751C539.452,576.387,548.842,580.968,559.676,579.637ZM604.62,542.57c-1-6.412-9.911-9.706-20.223-7.919-10.171,1.775-18.221,8.129-17.786,14.522,0.436,6.453,9.971,10.69,20.675,8.721S605.616,548.967,604.62,542.57Zm25.025-23.9c-1.153-6.444-9.882-9.351-19.956-7.054-9.946,2.28-17.561,9.019-16.9,15.426,0.647,6.333,9.811,10.025,20.167,7.695C623.355,532.408,630.787,525.037,629.645,518.669Zm-222.614,8.447c0.835-6.458-6.482-13.1-16.527-15.49-9.945-2.356-19.08.532-20.3,6.82-1.214,6.263,6.275,13.794,16.591,16.2C397.219,537.085,406.2,533.548,407.031,527.116Zm77.042-96.226c-0.164,6.307,6.814,11.825,15.651,11.936,9.061,0.127,16.217-5.334,16.1-11.82-0.12-6.558-7.04-11.358-15.749-11.394C491.436,419.587,484.243,424.463,484.073,430.89Zm-56.089-.635c-8.862-1.761-16.772,1.69-17.656,8.11-0.867,6.3,5.686,13.119,14.735,14.865,9.3,1.8,17.1-2.276,17.623-8.783C443.2,438.049,436.73,432,427.984,430.255ZM549.919,586.792c-0.286-6.565-9.14-10.861-20.132-10.272-10.947.6-19.8,5.913-19.726,12.369,0.076,6.327,9.112,11.364,20.241,10.758C541.528,599.045,550.2,593.139,549.919,586.792Zm-60.129,2.269c0.2-6.56-8.305-11.844-19.31-12.534-10.935-.671-20.181,3.63-20.529,10.059-0.344,6.342,8.263,12.355,19.4,13.031C480.57,600.311,489.6,595.423,489.79,589.061Zm82.395-158.809c-8.709,1.673-15.328,7.716-14.965,14.108,0.359,6.423,8.309,10.667,17.542,8.931,9.126-1.708,15.654-8.4,14.838-14.751C588.763,432.009,581.105,428.548,572.185,430.252Zm26.6,12.058c-9.069,2.248-15.814,8.969-14.933,15.354,0.871,6.3,9.013,9.871,18.272,7.628,9.508-2.295,16.006-9.529,14.775-15.968C615.7,443.012,607.746,440.1,598.788,442.31Zm-215.8,7.069c-1.108,6.28,5.393,13.511,14.642,15.814,9.324,2.336,17.481-1.132,18.4-7.415,0.955-6.5-5.488-13.1-14.588-15.447C392.381,440.008,384.113,442.985,382.985,449.379Zm148.963-19.436c0.394,6.339,7.731,10.825,16.579,9.71,8.879-1.11,15.468-7.349,14.924-13.687-0.56-6.522-7.856-10.46-16.516-9.345C538.29,417.74,531.551,423.525,531.948,429.943ZM436.524,425.7c-0.716,6.4,6.007,12.85,15.037,13.947,8.864,1.088,16.135-3.422,16.449-9.776,0.322-6.5-6.327-12.164-15.008-13.276C444.529,415.521,437.228,419.372,436.524,425.7Zm201.1,84.329c9.979-2.882,16.785-10.427,15.434-16.654-1.382-6.387-10.231-8.826-20.018-5.893-9.554,2.867-16.382,9.871-15.3,16.147S627.652,512.915,637.625,510.028ZM366.444,487.284c-9.548-2.736-18.262-.181-19.522,6.093-1.265,6.3,5.524,13.769,15.54,16.634,9.953,2.858,18.752-.194,19.788-6.481C383.305,497.134,376.266,490.11,366.444,487.284Zm260.135-34.4c-9.156,2.768-15.629,9.64-14.646,16s9.338,9.481,18.838,6.667,15.956-10.341,14.605-16.6C644.023,452.677,635.673,450.138,626.579,452.879ZM354.667,459.01c-1.287,6.344,5.137,13.764,14.707,16.539,9.456,2.751,17.848-.45,18.764-6.778s-5.676-13.223-14.824-15.969C364.213,450.077,355.953,452.663,354.667,459.01Zm47.451,102.662c0.747-6.282-7.006-12.893-17.374-15.292s-19.461.359-20.626,6.659c-1.163,6.269,6.364,13.453,17.212,15.923C392.045,571.413,401.374,567.944,402.118,561.672Zm233.847-8.693c-1.208-6.2-10.489-8.934-20.822-6.539-10.409,2.422-17.988,8.971-17.159,15.317S608,571.464,618.8,568.965C629.548,566.484,637.174,559.166,635.965,552.979ZM477.221,401.5c-8.305-.564-15.15,3.718-15.53,10.153-0.382,6.409,6.143,12.177,14.853,12.685,8.436,0.5,15.323-4.443,15.442-10.656C492.109,407.351,485.469,402.072,477.221,401.5Zm-68.9,190.743c11.1,2.009,20.581-1.823,21.228-8.111s-7.532-12.569-18.179-14.453c-10.521-1.855-19.637,1.183-20.757,7.338C389.467,583.322,397.25,590.248,408.325,592.243Zm91.64,25.669c11.408,0.008,20.45-5.543,20.185-11.857-0.263-6.331-9.361-11.01-20.37-10.978-10.8.048-19.535,4.648-19.8,10.941C479.7,612.44,488.5,617.912,499.965,617.912ZM609.558,577.3c-0.911-6.247-10.3-9.454-20.945-7.589-10.523,1.851-18.489,7.878-18.06,14.148,0.437,6.429,9.552,10.394,20.637,8.5C602.307,590.467,610.47,583.542,609.558,577.3ZM522.774,401.51c-8.144.559-14.589,5.622-14.629,11.912-0.043,6.445,6.734,11.448,15.386,10.921s15.3-6.393,14.909-12.72S531.031,400.956,522.774,401.51ZM355.185,544.138c10.423,3.03,19.863.069,20.881-6.155s-6.41-13.341-16.464-16.183c-9.869-2.782-18.763-.4-20.184,5.75C338,533.678,344.931,541.165,355.185,544.138ZM644.2,544.355c10.5-2.88,17.855-10.509,16.536-16.718-1.312-6.183-10.652-8.591-20.661-5.7-9.895,2.873-17,9.758-16.017,15.966C625.054,544.14,633.976,547.167,644.2,544.355Zm-81.631,69.8c11.045-1.328,19.592-7.885,18.908-14-0.7-6.224-10.408-9.929-21.229-8.568-10.685,1.361-18.958,7.1-18.548,13.359C542.109,611.168,551.46,615.506,562.573,614.157ZM325.263,466.846c-1.641,6.089,4.526,13.924,13.893,17.223,9.5,3.36,18.583.655,19.708-5.53,1.119-6.128-5.393-13.51-14.363-16.685C335.475,458.665,326.9,460.759,325.263,466.846Zm349.587-.035c-1.692-6-10.436-8.059-19.409-4.884-9.021,3.2-15.395,10.511-14.173,16.665,1.225,6.171,9.817,8.846,19.211,5.657C670.01,481.024,676.565,472.878,674.85,466.811Zm-81.331-59.133c-8.214,2.153-14.308,8.626-13.586,14.862s8.24,9.884,16.811,7.775c8.7-2.124,15.016-9.5,13.808-15.678C609.36,408.523,601.687,405.551,593.519,407.678ZM389.538,414.84c-1.036,6.206,5.047,13.281,13.625,15.414,8.531,2.138,16.252-1.5,17.022-7.638,0.782-6.241-5.637-12.958-13.963-15.043C397.993,405.519,390.58,408.591,389.538,414.84Zm48.075,199.321c11.046,1.27,20.5-3.18,20.817-9.329,0.326-6.27-8.565-12.155-19.4-13.345-10.7-1.157-19.767,2.546-20.394,8.785C418.009,606.46,426.491,612.893,437.613,614.161Zm-75.132-190c-1.48,6.152,4.291,13.667,13.017,16.5,8.671,2.826,16.847-.175,18.088-6.3,1.219-6.017-4.859-13.164-13.2-15.963S363.949,418.063,362.481,424.157Zm257.772-5.916c-8.4,2.529-14.681,9.471-13.825,15.676,0.864,6.26,8.656,9.544,17.432,6.983,8.727-2.534,14.947-10.025,13.846-16.264C636.624,418.5,628.636,415.729,620.253,418.241Zm-188.53-22.722c-8.008-1.64-15.292,1.835-16.137,8.067-0.825,6.1,5.11,12.726,13.33,14.451,8.3,1.751,15.783-2.285,16.411-8.481C445.949,403.4,439.718,397.166,431.723,395.519ZM683.732,500.911c-1.751-5.874-10.682-7.848-20-4.713-9.473,3.2-16.339,10.649-15.07,16.767s10.481,8.67,20.317,5.3C678.8,514.911,685.5,506.841,683.732,500.911ZM568.4,395.523c-8.017,1.589-14.213,7.718-13.68,13.962,0.528,6.221,7.913,10.308,16.256,8.6,8.192-1.655,14.236-8.288,13.5-14.394C583.738,397.507,576.4,393.95,568.4,395.523ZM330.857,518.158c9.773,3.414,19.15.916,20.5-5.139s-5.52-13.567-14.967-16.829c-9.487-3.262-18.533-1.207-20.133,4.875C314.692,507.005,321.194,514.8,330.857,518.158ZM485.512,395.78c-0.212,6.208,6.362,11.681,14.5,11.67s14.712-5.487,14.473-11.683c-0.233-6.118-6.612-10.8-14.311-10.9C492.414,384.779,485.725,389.578,485.512,395.78Zm148.744,48.513c1.321,5.958,9.6,8.575,18.305,5.479,8.864-3.142,14.845-11.081,13.238-17.156-1.612-6.1-9.952-8.244-18.435-5.036C638.836,430.809,632.9,438.184,634.256,444.293ZM334.208,432.617c-1.533,5.975,4.275,13.753,12.991,16.982,8.83,3.284,17.276.585,18.5-5.579,1.2-6.063-4.635-13.244-13.045-16.454C344.2,424.353,335.77,426.523,334.208,432.617Zm154.26,191.247c0.035-6.162-8.676-11.3-19.491-11.974-10.713-.652-20.085,3.454-20.651,9.507-0.576,6.149,8.548,12.328,19.833,12.9C479.388,634.888,488.433,630.018,488.468,623.864Zm42.28-229.279c0.148,6.194,7.185,10.854,15.29,9.736,8.036-1.1,14.028-7.258,13.434-13.4-0.6-6.165-7.254-10-14.99-9.012C536.851,382.887,530.6,388.483,530.748,394.585Zm20.77,227.086c-0.345-6.171-9.226-10.283-20.119-9.792-10.856.5-20.106,5.843-20.035,12.04,0.071,6.072,9.368,11,20.5,10.387C543.023,633.706,551.862,627.794,551.518,621.671ZM440.449,390.887c-0.581,6.07,5.542,12.327,13.524,13.415,8.01,1.1,14.84-3.322,15.185-9.457,0.346-6.171-5.537-11.708-13.281-12.91S441.042,384.694,440.449,390.887Zm-92.4,187.186c10.477,3.057,20.031.324,21.175-5.7,1.157-6.079-6.063-12.952-16.269-15.945-10.04-2.933-19.66-.772-21.195,5.093C330.229,567.352,337.59,575.034,348.048,578.073Zm303.53,0.148c10.511-2.9,17.912-10.441,16.529-16.415-1.392-6.032-10.55-8.265-20.785-5.418-10.067,2.812-17.726,9.874-16.761,15.877C631.521,578.247,641.093,581.121,651.578,578.221ZM396.551,596.173c0.793-6.112-7.087-12.65-17.57-15.037-10.433-2.36-19.979.281-21.108,6.242-1.13,5.946,6.888,13.3,17.626,15.715C386.392,605.556,395.758,602.29,396.551,596.173Zm245.4-8.671c-1.146-6.078-10.36-8.691-20.911-6.337-10.372,2.336-18.488,8.992-17.778,15.038,0.707,6.017,10.318,9.366,21.127,6.95C635.213,600.743,643.087,593.517,641.946,587.5Zm-319.2-35.511c10.3,3.4,19.483,1,20.734-5.082,1.244-6.063-5.819-13.285-15.754-16.523-9.7-3.15-18.844-1.284-20.5,4.466C305.548,540.682,312.6,548.651,322.743,551.991Zm369.885-16.883c-1.617-6.036-10.657-7.909-20.624-4.582-9.817,3.286-16.961,10.7-15.634,16.632,1.3,5.817,10.571,8.195,20.616,4.971C687.242,548.857,694.228,541.07,692.628,535.108ZM294.73,473.46c-1.86,5.849,4.325,13.95,13.707,17.586,9.5,3.69,18.172,1.575,19.618-4.5,1.442-6.058-4.763-13.463-13.954-17.043C305.186,466.036,296.562,467.688,294.73,473.46Zm410.394,0.118c-1.876-5.99-10.52-7.556-19.679-3.84-8.871,3.609-14.988,11.024-13.645,16.917,1.354,5.952,10.374,8.108,19.756,4.452C701.056,487.411,707,479.561,705.124,473.578ZM614.089,612.241c-0.729-6.211-9.808-9.285-20.732-7.47-10.851,1.814-19.315,7.894-18.807,13.992,0.5,5.949,9.9,9.684,20.879,7.853C606.559,624.766,614.792,618.214,614.089,612.241ZM305.05,439.3c-1.979,5.823,3.8,13.971,12.76,17.6,8.9,3.612,17.174,1.574,18.722-4.329,1.594-6.079-4.056-13.466-12.783-17.116C315.265,431.905,307.02,433.49,305.05,439.3Zm389.968,0.689c-1.585-6.225-9.6-8.134-18.339-4.647-8.706,3.478-14.716,10.946-13.391,17.028,1.284,5.894,9.649,8.182,18.462,4.764C690.7,453.673,696.542,445.965,695.018,439.987ZM404.165,626.52c11.11,1.955,20.4-1.593,21.091-7.6,0.707-6.181-7.35-12.189-18.291-14.119-10.623-1.866-19.985,1-21.147,6.889C384.647,617.6,392.976,624.564,404.165,626.52ZM613.945,383.8c-7.969,2.542-13.7,9.251-12.777,15.378,0.9,5.992,8.221,9.079,16.3,6.534,8.17-2.562,13.65-9.634,12.484-15.69C628.781,383.908,621.743,381.317,613.945,383.8ZM298.59,524.622c9.853,3.806,18.934,1.963,20.525-3.894,1.6-5.875-4.7-13.265-14.149-16.983-9.475-3.724-18.443-2.3-20.414,3.486C282.594,512.969,288.83,520.863,298.59,524.622Zm416.872-17.2c-1.844-5.846-10.729-7.36-20.227-3.694-9.46,3.66-15.9,11.061-14.413,16.947s10.609,7.815,20.392,4.082C711.062,521,717.3,513.253,715.462,507.42ZM343.208,398.048c-1.618,5.921,3.713,13.531,11.962,16.661,8.341,3.174,15.948.678,17.208-5.316,1.268-6.028-4.081-13.023-12.037-16.156C352.352,390.1,344.84,392.072,343.208,398.048Zm284.377,11.228c1.136,6.013,8.758,8.646,17.04,5.565,8.336-3.09,13.694-10.539,12.214-16.564-1.483-6.043-8.928-8.141-16.928-5.08C631.938,396.251,626.444,403.243,627.585,409.276ZM478.3,366.947c-7.455-.494-13.718,3.715-14,9.781-0.282,6.085,5.673,11.583,13.5,12.058s13.991-4.278,13.982-10.373S485.836,367.451,478.3,366.947Zm43.363,0.012c-7.489.5-13.446,5.433-13.436,11.514,0.007,6.053,6.291,10.831,14.075,10.316,7.844-.515,13.748-6.022,13.4-12.1C535.364,370.586,529.165,366.464,521.665,366.959ZM370.107,389.8c-1.268,6.012,4.195,13.2,12.315,15.789,8.166,2.614,15.384-.387,16.331-6.451S394.23,386.507,386.4,383.9C378.6,381.3,371.373,383.777,370.107,389.8ZM500.164,652.436c11.378-.039,20.247-5.3,19.968-11.345s-9.257-10.436-20.306-10.421c-11,.028-19.838,4.509-19.933,10.6S488.7,652.487,500.164,652.436Zm88.593-279.279c-7.67,2.039-13.2,8.1-12.6,14.212,0.6,6.095,7.421,9.631,15.344,7.593,7.982-2.041,13.524-8.727,12.592-14.772C603.16,374.123,596.34,371.149,588.757,373.157ZM395.99,380.039c-1.018,6.068,4.42,12.775,12.38,14.851,7.934,2.079,14.834-1.379,15.527-7.415s-4.845-12.219-12.461-14.307S397.007,373.961,395.99,380.039ZM565.279,648.516c11.366-1.313,19.972-7.621,19.194-13.569S574.184,625.633,563.2,627c-10.759,1.348-18.945,6.776-18.565,12.786C545.009,645.766,554.087,649.817,565.279,648.516ZM333.009,401.194c-8.151-3.615-15.9-1.946-17.655,4.077-1.726,5.915,3.333,13.534,11.584,17.069,8.42,3.611,16.448,1.478,17.868-4.463C346.2,412.06,340.863,404.683,333.009,401.194Zm101.45,247.274c11.352,1.368,20.829-2.827,21.043-8.844,0.216-6.032-8.533-11.513-19.538-12.74-10.763-1.186-19.7,2.238-20.329,8.219C415.012,641.048,423.265,647.124,434.459,648.468ZM684.782,405.3c-1.724-5.933-9.656-7.625-17.737-4.064-7.938,3.506-13.129,10.695-11.726,16.631s9.05,8.129,17.336,4.707C681.1,419.094,686.5,411.228,684.782,405.3ZM275,445.27c-1.972,5.8,3.363,13.652,12.154,17.561,8.706,3.877,17.363,2.238,19.146-3.428,1.8-5.715-4.031-13.674-12.587-17.527C285.224,438.061,276.971,439.472,275,445.27Zm450.162,0.018c-1.907-5.683-10.441-7.113-18.832-3.362-8.5,3.807-14.123,11.348-12.564,17.177,1.575,5.889,9.826,7.751,18.636,3.992C721.341,459.286,727.112,451.09,725.159,445.288ZM435.5,361.045c-7.264-1.588-13.767,1.6-14.642,7.525-0.883,5.98,4.337,12.287,11.876,13.95,7.656,1.691,14.494-2.186,15.01-8.158C448.251,368.522,442.669,362.622,435.5,361.045Zm129.009,0.029c-7.249,1.589-12.62,7.316-12.109,13.3,0.51,5.963,6.956,9.775,14.537,8.24,7.644-1.54,13.314-8.182,12.342-14.059C578.316,362.708,571.7,359.507,564.511,361.074ZM314.289,585.428c10.242,3.337,19.912,1.088,21.063-4.607,1.163-5.74-6.15-12.958-16.047-16.211-10-3.277-19.23-1.537-20.814,4.194C296.913,574.5,303.938,582.059,314.289,585.428Zm387.339-16.605c-1.485-5.618-11.037-7.392-20.936-4.162-9.99,3.272-17.16,10.376-15.929,16.163,1.235,5.82,10.567,8.036,20.912,4.664C695.93,582.155,703.126,574.478,701.628,568.823Zm35-89.84c-2.076-5.6-11.042-6.861-19.836-2.982-8.879,3.923-14.675,11.511-12.925,17.264,1.741,5.729,10.655,7.314,19.859,3.337C732.834,492.673,738.688,484.537,736.628,478.983Zm-473.205.193c-1.923,5.726,3.937,13.648,13.179,17.5,9.144,3.825,18.218,2.056,19.711-3.633,1.513-5.76-4.595-13.463-13.425-17.248C273.971,471.977,265.36,473.4,263.423,479.176Zm77.638,132.567c10.572,2.974,20.353.311,21.257-5.446,0.9-5.705-6.587-12.445-16.613-15.363-10.242-2.967-19.828-.98-21.278,4.726S330.422,608.764,341.061,611.743Zm317.862,0.047c10.569-2.967,18.193-10.5,16.722-16.116-1.448-5.539-10.824-7.569-20.886-4.828-10.269,2.808-18,9.659-17,15.48C638.751,612.17,648.281,614.79,658.923,611.79Zm-372.5-200.653c-1.933,5.776,3.249,13.854,11.519,17.625,8.283,3.787,16.509,1.89,18-3.917,1.469-5.734-3.709-13.247-11.509-17.048C296.516,403.949,288.357,405.366,286.425,411.137Zm2.755,146.978c9.752,3.548,18.985,1.729,20.521-3.8,1.565-5.634-5.19-13.162-14.746-16.784s-18.857-2.138-20.628,3.5C272.56,546.644,279.29,554.529,289.18,558.115Zm436.515-17c-1.685-5.626-11.039-7.135-20.623-3.538-9.558,3.595-16.292,11.08-14.767,16.756,1.493,5.557,10.667,7.4,20.433,3.871C720.623,554.637,727.39,546.763,725.7,541.113ZM713.607,411.174c-1.923-5.642-9.794-7.1-17.662-3.483-7.956,3.672-13.389,11.414-11.845,17.222,1.548,5.825,9.708,7.7,17.981,3.906C710.347,425.043,715.559,416.9,713.607,411.174ZM487.032,360.9c-0.1,5.779,5.712,10.856,12.887,10.9,7.32,0.06,13.249-5.134,13.042-11.047-0.2-5.823-5.948-10.291-12.868-10.347C493.106,350.36,487.137,354.985,487.032,360.9Zm-0.171,298.087c0.131-5.866-8.408-10.771-19.222-11.519-10.607-.718-20.058,3.138-20.694,8.862-0.649,5.836,8.31,11.744,19.55,12.4C477.619,669.4,486.732,664.826,486.861,658.984Zm66.027-2.646c-0.638-5.8-9.921-9.595-20.622-8.856-10.729.752-19.432,5.747-19.283,11.529s9.469,10.4,20.493,9.732C544.819,668.067,553.543,662.265,552.888,656.338ZM390.606,630.705c0.941-5.866-7.073-12.356-17.648-14.721-10.369-2.306-19.8.115-20.919,5.738s6.757,12.648,17.415,15.14C380.175,639.38,389.686,636.439,390.606,630.705Zm257.221-8.836c-1.075-5.726-10.217-8.153-20.711-5.867-10.459,2.293-18.742,8.9-17.882,14.692,0.843,5.674,10.457,8.7,21.123,6.246C641.09,634.492,648.9,627.566,647.827,621.869ZM529.777,359.534c0.184,5.768,6.334,10.1,13.518,9.183,7.212-.911,12.679-6.739,12.176-12.61-0.5-5.911-6.424-9.576-13.41-8.646C535.214,348.384,529.594,353.742,529.777,359.534Zm-85.3-3.711c-0.65,5.739,4.758,11.725,11.941,12.832,7.188,1.122,13.377-3.049,13.716-8.9,0.343-5.9-4.9-11.149-11.888-12.269C451.417,346.4,445.125,350.061,444.474,355.823Zm187.8,2.942c-7.05,2.928-12.008,9.684-11.036,15.4,0.983,5.78,8.114,8.479,15.594,5.6,7.541-2.892,12.424-10.192,11.006-16.055C646.412,357.82,639.513,355.758,632.269,358.765ZM265.026,529.63c9.411,4.077,18.68,2.689,20.471-2.894,1.812-5.639-4.115-13.037-13.352-16.992-9.106-3.892-18.293-2.69-20.267,2.8C249.947,517.914,255.791,525.637,265.026,529.63Zm482.92-16.99c-2.045-5.585-10.982-6.752-20.182-2.792-8.955,3.864-15.036,11.286-13.5,16.774,1.548,5.571,10.838,7.138,20.278,3.253C744.056,525.961,749.987,518.212,747.946,512.64ZM352.078,363.569c-1.421,5.736,3.609,13.23,11.067,16.118,7.559,2.935,14.443.32,15.514-5.589,1.066-5.883-3.989-12.691-11.245-15.52C360.316,355.822,353.473,357.919,352.078,363.569Zm306.432,3.168c-7.346,3.321-12.381,10.579-11.063,16.311,1.29,5.6,8.491,7.815,16,4.655,7.713-3.241,12.634-10.787,11.079-16.636C672.951,365.153,665.954,363.373,658.51,366.737Zm-316.769.045c-7.31-3.421-14.669-1.748-16.325,3.968-1.613,5.57,3.085,13.151,10.515,16.61,7.626,3.553,15.027,1.534,16.459-4.234C353.844,377.275,349.158,370.259,341.741,366.782Zm36.028-11.814c-1.306,5.688,3.717,12.791,11.068,15.26,7.287,2.455,13.792-.364,14.743-6.08,0.98-5.892-3.891-12.212-11.039-14.725C385.6,346.988,379.065,349.308,377.769,354.968Zm229.788-5.528c-7.083,2.45-12.194,8.967-11.235,14.714,0.942,5.658,7.563,8.548,14.773,6.146,7.448-2.475,12.3-9.305,11.07-15.179C620.962,349.374,614.567,347.015,607.557,349.44Zm129.6,98.1c-8.284,4.015-13.635,11.556-11.966,17.133,1.68,5.623,10.45,7.022,19.168,2.911,8.641-4.066,13.747-11.732,11.707-17.3C753.965,444.539,745.7,443.4,737.155,447.536Zm-481.6,19.925c8.632,4.1,17.065,2.89,19.02-2.584,2.023-5.655-3.139-13.215-11.648-17.377-8.438-4.128-17.039-3.019-19.089,2.586C241.816,455.6,247.009,463.418,255.55,467.461ZM618.356,646.672c-0.83-5.7-9.807-8.455-20.458-6.665-10.88,1.838-19.253,7.672-18.641,13.451,0.6,5.655,9.937,9.02,20.887,7.1C611.172,658.632,619.178,652.33,618.356,646.672ZM256.608,416.031c-2.131,5.509,2.7,13.436,10.861,17.519,8.4,4.21,16.559,2.834,18.35-2.933,1.756-5.645-3.195-13.12-11.162-17.177C266.724,409.406,258.754,410.477,256.608,416.031Zm468.622-2.458c-7.9,4.065-12.9,11.68-11.1,17.241s9.923,6.953,18.124,2.947c8.43-4.109,13.26-12,11.032-17.7C741.116,410.494,733.2,409.476,725.23,413.573Zm-39.5-40.1c-7.448,3.688-12.278,10.915-10.933,16.7,1.322,5.7,8.782,7.632,16.476,4.055,7.942-3.69,12.75-11.444,10.919-17.27C700.394,371.228,693.17,369.794,685.73,373.475ZM399.7,660.5c11.018,1.966,20.238-1.324,20.884-7.027,0.649-5.74-7.226-11.443-17.859-13.388-10.857-1.978-20.365.733-21.22,6.459C380.662,652.164,388.743,658.561,399.7,660.5Zm-101.851-283.7c-1.853,5.648,2.795,13.389,10.506,17.13,7.73,3.761,15.145,2.04,16.706-3.638,1.565-5.7-3.139-12.988-10.572-16.746S299.705,371.122,297.845,376.805Zm104.581-31.57c-0.94,5.672,3.776,11.994,10.727,14.014,7.154,2.086,13.467-1.068,14.223-6.774,0.762-5.742-4.139-11.705-10.957-13.719C409.539,336.728,403.386,339.439,402.426,345.235Zm180.83-6.341c-6.628,2.053-11.346,7.969-10.571,13.617,0.794,5.772,7.022,8.882,14.215,6.766,7.065-2.075,11.819-8.622,10.68-14.317C596.45,339.3,590.143,336.769,583.256,338.894ZM243.127,500.628c9.022,4.181,17.915,3.11,19.9-2.277s-3.54-12.988-12.223-17.052c-8.634-4.036-17.016-3.164-19.368,2.12C229.024,488.823,234.138,496.469,243.127,500.628Zm525.694-16.791c-2.048-5.479-10.711-6.579-19.422-2.562-8.636,3.986-14.107,11.2-12.464,16.7,1.681,5.636,10.237,7.02,19.3,3.007C765.314,496.962,770.864,489.3,768.821,483.837ZM479.759,332.567c-6.721-.546-12.259,3.332-12.576,9.146-0.311,5.684,4.791,10.818,11.62,11.34,6.953,0.539,12.651-3.953,12.679-9.65C491.511,337.805,486.259,333.1,479.759,332.567Zm40.711-.006c-6.582.468-11.775,5.015-11.816,10.685-0.042,5.83,5.413,10.313,12.395,9.829,6.943-.47,12.294-5.807,11.893-11.5C532.55,335.993,526.981,332.108,520.47,332.561ZM499.334,686.837c11.316,0.161,20.515-4.749,20.487-10.457-0.025-5.578-8.855-9.915-19.474-10-10.789-.076-19.642,3.988-20.008,9.627C479.97,681.718,488.323,686.689,499.334,686.837ZM278.789,590.709c10.107,3.8,19.693,2.209,21.041-3.268,1.332-5.391-5.435-12.482-15.019-16.055-9.65-3.591-18.649-2.371-20.463,2.959S268.851,586.979,278.789,590.709Zm442.13,0.163c9.916-3.654,16.546-11.061,14.926-16.372-1.647-5.4-11.107-6.658-20.882-2.973-9.623,3.629-16.119,10.616-14.616,16.041S710.951,594.556,720.919,590.872ZM714,379.1c-7.433,3.932-12.112,11.358-10.5,16.976,1.632,5.69,8.994,7.306,16.651,3.481,7.856-3.917,12.62-11.886,10.667-17.555C728.914,376.455,721.332,375.22,714,379.1ZM694.594,618.383c10.169-3.374,17.251-10.787,15.638-16.022-1.617-5.256-11.09-6.7-20.941-3.435-9.938,3.3-16.906,10.09-15.6,15.559S684.317,621.8,694.594,618.383Zm-388.923.038c10.175,3.3,19.729,1.3,20.822-4.084,1.1-5.426-6.191-12.341-16.062-15.552-9.942-3.235-19.04-1.692-20.552,3.723C288.372,607.887,295.364,615.09,305.671,618.421ZM279.54,399.3c7.589,3.9,15.365,2.421,17.02-3.071,1.661-5.507-3.091-13.184-10.4-17.108-7.376-3.955-14.806-2.767-16.791,2.862S271.868,395.36,279.54,399.3ZM254.131,562.457c9.5,3.881,18.934,2.554,20.516-2.741s-4.879-12.77-14.084-16.5c-9.274-3.761-18.194-2.563-20.047,2.81C238.722,551.232,244.769,558.635,254.131,562.457Zm491.761,0.052c9.441-3.87,15.624-11.549,13.641-16.7-1.986-5.17-11.226-6.21-20.369-2.424-9.212,3.822-15.366,11.1-13.659,16.429S736.378,566.413,745.892,562.509Zm-314.1,120.2c10.7,1.215,19.86-2.6,20.305-8.046,0.454-5.519-8.17-10.951-18.726-12.231-10.645-1.28-19.789,1.908-20.413,7.522C412.333,675.536,420.789,681.469,431.789,682.706Zm136.628-.006c10.922-1.3,19.49-7.4,18.734-12.864-0.741-5.395-9.855-8.561-20.221-7.424-10.638,1.183-19.179,6.443-18.916,12.081C548.277,680.15,557.421,684.026,568.417,682.7Zm-7.09-356.139C554.9,327.866,549.827,333.4,550.2,339c0.377,5.635,6.19,9.374,12.9,7.971,6.675-1.382,11.7-7.507,10.983-13.058C573.389,328.472,567.633,325.289,561.327,326.561Zm-122.313.041c-6.43-1.472-12.3,1.7-13,7.326s4.244,11.657,10.947,13.028c6.555,1.348,12.366-2.241,12.912-7.695C450.419,333.755,445.413,328.075,439.014,326.6ZM666.541,645c10.224-2.978,17.543-9.951,16.344-15.211-1.219-5.33-10.791-7.188-20.9-4.352-10.154,2.861-17.672,9.446-16.587,14.907C646.48,645.788,656.1,648.048,666.541,645Zm-332.828,0c10.261,2.894,19.661.657,20.827-4.648,1.184-5.386-6.461-12.094-16.594-14.95-9.953-2.793-19.252-1.043-20.679,4.172C315.808,634.912,323.246,642.062,333.713,645ZM756.146,418.1c-7.768,4.008-12.717,11.858-10.748,17.285,1.927,5.314,10.019,6.514,17.933,2.581,8.025-3.977,12.866-12.008,10.643-17.43C771.793,415.208,763.807,414.15,756.146,418.1ZM236.694,437.867c7.977,3.939,15.993,2.7,17.86-2.682s-2.9-12.991-10.54-17.038c-7.772-4.115-15.953-2.976-18.02,2.571C223.98,426.123,228.835,433.992,236.694,437.867Zm-5.532,95.811c9.027,3.894,17.919,2.746,19.746-2.465s-3.843-12.573-12.558-16.523c-8.631-3.906-17.6-2.988-19.8,2.09C216.3,521.969,222.035,529.748,231.162,533.678Zm538.093-.121c8.986-4.087,14.339-11.546,12.122-16.666s-11.054-6.05-19.746-2.125c-8.852,4-14.605,11.614-12.513,16.8C751.153,536.632,760.426,537.582,769.255,533.557ZM223.3,471.411c8.359,3.957,16.687,2.79,18.6-2.563,1.906-5.328-3.207-12.9-11.239-16.842s-16.4-2.851-18.532,2.444S215.083,467.527,223.3,471.411ZM768.97,452.266c-7.982,4.111-12.96,11.744-10.893,16.932s10.8,6.183,18.95,2.126c8.3-4.129,12.983-11.692,10.646-16.974S776.939,448.164,768.97,452.266Zm-119.3-119.912c-6.42,3.245-10.739,10.043-9.588,15.432,1.166,5.474,7.931,7.651,14.715,4.481,6.852-3.193,11.1-10.474,9.554-16.031S656.223,329.048,649.668,332.354Zm-299.434-.122c-6.519-3.221-13.22-1.517-14.693,3.974-1.436,5.359,2.768,12.594,9.42,15.874,6.752,3.33,13.516,1.307,14.824-4.2C361.108,342.325,356.848,335.5,350.234,332.232Zm-26.082,6.618c-6.6-3.4-13.3-2-15,3.346-1.731,5.435,2.6,13.2,9.511,16.72,6.983,3.572,13.807,1.76,15.219-3.815S330.892,342.33,324.152,338.85Zm351.534,0.164c-6.676,3.553-11.094,10.9-9.62,16.343,1.442,5.324,8.238,7.1,15.083,3.732,6.97-3.421,11.318-11.033,9.66-16.608C689.139,336.863,682.438,335.426,675.686,339.014Zm74.5,64.7c7.632-4,12-11.815,9.828-17.329-2.137-5.429-9.409-6.438-16.716-2.428-7.326,4.025-11.955,11.81-10.071,17.2C735.06,406.417,742.737,407.621,750.181,403.713ZM256.763,383.9c-7.2-3.99-14.741-3.018-16.878,2.283-2.171,5.38,2.324,13.425,9.863,17.412,7.507,3.979,14.981,2.8,16.886-2.545C268.59,395.563,264.171,388.014,256.763,383.9Zm368.482-59.667c-6.453,2.726-11.016,9.376-9.955,14.849,1.037,5.358,7.312,7.8,13.881,5.142,6.763-2.725,11.108-9.655,9.787-15.244C637.663,323.487,631.671,321.53,625.245,324.235ZM363.051,670.262c10.424,2.625,19.961.175,21.05-5.067,1.148-5.517-6.081-11.462-16.565-14.065-10.284-2.543-19.883-.538-21.165,4.753C345.129,661.011,352.616,667.646,363.051,670.262Zm12-345.961c-6.418-2.867-12.835-.888-14.113,4.621-1.246,5.377,3.063,12.309,9.608,15.125,6.721,2.9,13.042.484,14.082-5.107C385.654,333.442,381.446,327.162,375.052,324.3ZM636.485,670.409c10.54-2.5,18-8.937,16.952-14.229-1.074-5.453-10.2-7.55-20.659-5.1-10.139,2.386-17.881,8.384-17.2,13.705C616.262,670.179,625.89,672.936,636.485,670.409ZM297.39,344.7c-6.74-3.86-13.652-2.8-15.56,2.576-1.939,5.455,2.323,13.277,9.491,17.109,7.059,3.776,13.837,2.3,15.425-3.179C308.33,355.749,304.2,348.605,297.39,344.7Zm405.294,0.042c-6.765,3.854-11,11.082-9.52,16.544,1.492,5.508,8.74,6.96,15.855,3,7.024-3.909,10.983-11.375,9.1-16.837S709.494,340.877,702.684,344.745ZM499.942,316.184c-6.094.027-11.169,4.15-11.364,9.534-0.2,5.456,5.044,10.247,11.506,10.2,6.543-.039,11.483-4.716,11.258-10.321C511.123,320.164,506.114,316.163,499.942,316.184ZM790.153,504.355c8.684-3.973,13.732-11.161,11.567-16.337-2.176-5.208-10.43-6.193-18.822-2.244s-13.643,11.16-11.785,16.348C772.952,507.267,781.567,508.285,790.153,504.355Zm-255.146,198.5c10.984-.674,19.287-5.822,18.876-11.251s-9.11-8.889-19.782-8.251c-10.585.641-19.078,5.191-18.986,10.6S524.089,703.528,535.007,702.852Zm-70.3-.027c11,0.731,19.845-3.322,20.047-8.757,0.2-5.479-8.023-10.015-18.651-10.716s-19.494,2.7-20.093,8.1C445.414,696.786,453.827,702.105,464.7,702.825ZM460.481,313.24c-6.136-.964-11.465,2.366-11.992,7.787-0.525,5.394,4.2,10.8,10.569,11.747,6.422,0.964,11.7-2.81,11.965-8.267S466.645,314.211,460.481,313.24Zm79.272-.012c-6.156.888-10.927,5.669-10.792,11.124,0.131,5.39,5.456,9.349,11.816,8.468,6.433-.881,11.159-6.134,10.735-11.59C551.086,315.73,545.909,312.339,539.753,313.228ZM209.456,504.1c8.641,4.067,17.184,3.247,19.272-1.85,2.1-5.125-2.9-12.322-11.247-16.371s-16.767-3.262-19.163,1.8C195.948,492.691,200.914,500.086,209.456,504.1ZM601.5,315.074c-6.258,2.343-10.591,8.34-9.7,13.777,0.877,5.329,6.594,7.985,12.957,5.754,6.561-2.3,10.883-8.653,9.842-14.13C613.557,314.98,607.788,312.732,601.5,315.074Zm-202.974-.047c-6.142-2.3-11.807-.182-13.023,5.134-1.234,5.384,2.98,11.913,9.456,14.289,6.549,2.406,12.417-.213,13.284-5.652C409.112,323.341,404.8,317.382,398.525,315.027Zm331.858,34.614c-6.693,4.1-10.56,11.4-8.711,16.728s8.813,6.427,15.792,2.392c7.073-4.08,11.052-11.981,8.836-17.25C744.116,346.319,737.054,345.552,730.383,349.641ZM262.361,368.574c6.924,4.074,14.082,3.1,16.051-2.051,1.994-5.218-2.11-12.919-8.919-17.047-6.737-4.082-13.617-3.192-15.7,2.159C251.7,357.008,255.42,364.5,262.361,368.574Zm-19.5,226.09c9.364,3.744,18.575,2.648,20.127-2.287s-4.8-12.018-13.877-15.686c-9.185-3.715-17.933-2.79-19.816,2.182S233.379,590.874,242.861,594.664Zm514.261,0.066c9.369-3.753,15.558-10.987,13.742-15.857-1.815-4.854-10.9-5.777-19.979-2.121-9.2,3.709-15.329,10.577-13.715,15.62S747.659,598.526,757.122,594.73ZM604.984,694.3c10.46-1.925,18.409-8.144,17.4-13.213-1.011-5.115-10.234-7.528-20.4-5.681-10.273,1.875-17.934,7.286-17.285,12.616C585.343,693.308,594.365,696.268,604.984,694.3Zm-209.529.051c10.476,1.815,19.664-1.367,20.032-6.561,0.374-5.242-7.773-10.736-17.955-12.5-10.287-1.772-19.023.734-19.8,6.027C376.969,686.566,384.817,692.52,395.455,694.352Zm392.03-271.678c-7.469,4.051-11.783,11.352-9.641,16.514,2.131,5.142,10.063,6.043,17.783,2.024,7.615-3.959,11.965-11.514,9.627-16.574C802.905,419.556,794.875,418.664,787.485,422.674Zm-583,18.516c7.644,3.931,15.8,3,17.857-2.057s-2.5-12.594-9.889-16.575c-7.489-4.034-15.245-3.083-17.575,2.142S196.75,437.215,204.481,441.19ZM781.394,565.857c9.014-3.82,14.813-11.153,12.763-15.981s-11.088-5.651-19.808-1.813c-8.82,3.888-14.423,10.922-12.478,15.883C763.756,568.759,772.483,569.637,781.394,565.857Zm-512.961,57.13c9.63,3.7,19.094,2.515,20.721-2.412,1.606-4.862-5.136-11.9-14.5-15.415-9.482-3.561-18.491-2.547-20.21,2.433C252.762,612.459,258.9,619.337,268.433,622.987ZM731.4,623.105c9.429-3.571,15.863-10.621,14.309-15.433-1.582-4.9-10.872-5.967-20.252-2.5-9.5,3.515-16.009,10.276-14.507,15.338C712.444,625.554,721.646,626.8,731.4,623.105Zm49.95-216.029c7.08-4,11.1-11.549,8.972-16.671-2.168-5.21-9.939-6.151-16.978-2.081-7.122,4.118-11.235,11.591-9.131,16.806C766.307,410.325,774.026,411.222,781.351,407.076Zm-562.19.2c7.158,3.813,14.805,2.785,16.785-2.22,2.024-5.114-2.313-12.823-9.364-16.859-7.142-4.086-14.588-3.094-16.8,2.267C207.583,395.779,211.755,403.338,219.161,407.275ZM218.679,565.8c8.836,3.705,17.75,2.766,19.544-2.013,1.827-4.875-4.192-12.2-12.931-15.922-8.858-3.771-17.488-2.772-19.383,2.269C204.08,555.007,209.794,562.078,218.679,565.8ZM421.153,304.378c-5.891-1.9-11.432.747-12.265,6.107-0.81,5.239,3.362,11.167,9.382,13.018,6.088,1.883,11.805-1.251,12.379-6.511C431.214,311.824,426.9,306.234,421.153,304.378Zm157.9-.017c-5.781,1.762-10.12,7.259-9.617,12.487,0.517,5.387,5.98,8.54,12.14,6.747,5.981-1.736,10.32-7.683,9.653-12.933C590.554,305.364,584.933,302.581,579.052,304.361ZM703.24,651.112c9.806-3.207,16.74-10.108,15.4-15.03-1.365-5.013-10.749-6.312-20.446-3.046-9.547,3.225-16.4,9.726-15.17,14.7S693.411,654.335,703.24,651.112Zm98.989-194.653c-7.6,3.746-12.386,11.044-10.436,16.017,1.962,5.013,10.03,6.079,17.97,2.419,8.008-3.683,12.8-11.127,10.479-16.2C817.971,453.719,809.869,452.688,802.229,456.459ZM189.664,474.545c7.925,3.929,16.512,3,18.525-2.065,1.984-4.97-2.731-12.24-10.325-16.049s-15.724-2.832-18.055,2.127S181.853,470.674,189.664,474.545ZM296.35,650.927c9.963,3.4,19.5,1.743,20.628-3.346,1.107-5-5.907-11.532-15.433-14.681s-18.622-1.906-20.16,2.95S286.527,647.583,296.35,650.927ZM803.972,536.7c8.563-3.778,13.663-10.812,11.443-15.686s-10.749-5.732-19.039-1.858c-8.084,3.772-13.32,10.759-11.531,15.519C786.661,539.533,795.473,540.448,803.972,536.7ZM196,536.62c8.591,3.8,17.14,2.865,19.018-2.075s-3.556-12.034-11.9-15.685c-8.2-3.587-16.525-2.665-18.668,2.031C182.264,525.677,187.522,532.885,196,536.62Zm44.56-183c-6.564-4.11-13.811-3.253-15.917,1.951-2.056,5.078,1.6,12.6,8.211,16.663,6.778,4.163,14.041,3.288,16.061-1.883C250.949,365.146,247.22,357.789,240.557,353.619Zm518.9,0.086c-6.574,4.11-10.481,11.736-8.477,16.793,1.961,4.948,9.1,5.908,15.787,2.053,6.878-3.96,10.653-11.525,8.5-16.821C773.089,350.4,766.121,349.549,759.455,353.705ZM480.712,298.342c-5.527-.394-10.349,3.18-10.729,8.224-0.387,5.118,4.225,10.1,10.08,10.6,5.909,0.51,10.751-3.554,10.818-8.809C490.95,303.087,486.42,298.76,480.712,298.342Zm38.477,0.02c-5.644.482-10.28,4.976-10.135,10.119,0.143,5.031,4.971,9.079,10.705,8.711,5.909-.371,10.476-5.171,10.2-10.424C529.683,301.49,524.9,297.882,519.189,298.362ZM500.037,721.017c10.547-.026,18.746-4.387,18.687-9.537-0.061-5.32-8.311-9.147-18.831-9.134-10.1.017-18.588,3.852-18.886,8.9C480.7,716.355,489.486,721.054,500.037,721.017ZM333.974,304.442c-5.968-3.435-12.186-2.09-13.625,3.16-1.413,5.157,2.346,12.277,8.38,15.584,6.278,3.452,12.281,1.77,13.585-3.579C343.584,314.4,339.918,307.863,333.974,304.442Zm332.193,0c-5.981,3.372-9.905,10.344-8.529,15.479,1.347,5.026,7.482,6.665,13.53,3.4,6.286-3.386,9.946-10.448,8.334-15.768C677.928,302.352,672.132,301.092,666.167,304.446Zm25.494,5.716c-5.987,3.7-9.733,10.7-8.3,15.819,1.456,5.2,8.039,6.522,14.341,2.7,6.251-3.784,9.66-10.886,7.879-16.1C703.808,307.391,697.739,306.41,691.661,310.162ZM326.442,677.908c10.133,2.834,18.8.9,19.764-4.117s-6-10.89-15.867-13.712c-9.743-2.783-18.685-1.377-20.088,3.408C308.832,668.323,316.216,675.052,326.442,677.908Zm347.26,0c10.135-2.889,17.064-9.2,15.869-14.126-1.2-4.959-9.733-6.476-19.6-3.75-9.979,2.764-17.462,8.973-16.386,13.954C654.641,678.864,663.717,680.764,673.7,677.909ZM308.491,310.163c-5.983-3.756-12.228-2.877-14.117,2.165-1.858,4.955,1.67,12.416,7.813,16.2,6.379,3.936,12.755,2.706,14.33-2.569C318.067,320.766,314.535,313.962,308.491,310.163ZM428.4,716.5c10.576,1.31,19.162-1.99,19.524-7.124,0.364-5.15-7.409-9.877-17.678-11.139-10.2-1.244-18.946,1.5-19.618,6.526C409.952,709.75,417.955,715.216,428.4,716.5Zm143.024,0.041c10.573-1.273,18.365-6.567,17.773-11.664-0.593-5.113-9.078-7.858-19.362-6.63-10.189,1.225-18.238,6.023-17.951,11.1C552.165,714.4,560.967,717.813,571.419,716.544Zm70.273-418.768c-5.818,2.981-9.671,9.3-8.645,14.474,1.015,5.117,6.839,7.115,12.839,4.178,6.084-2.968,9.81-9.582,8.515-14.8C653.1,296.38,647.532,294.787,641.692,297.776Zm-283.121.059c-5.8-3.061-11.53-1.62-12.96,3.485-1.414,5.041,2.318,11.905,8.3,14.931,6.063,3.073,11.778,1.256,12.958-3.887C368.052,307.183,364.388,300.911,358.571,297.835Zm84.1-5.281c-5.648-1.449-10.639,1.215-11.394,6.35-0.73,4.955,3.242,10.4,8.858,11.85,5.887,1.524,10.989-1.5,11.559-6.587C452.27,299.02,448.257,293.992,442.669,292.554Zm114.969-.041c-5.5,1.306-9.59,6.054-9.359,11.143,0.229,5.124,5.213,8.532,11.022,7.263,5.887-1.28,10.049-6.566,9.467-11.734C568.184,294,563.278,291.182,557.638,292.513ZM175.053,507.21c8.16,3.749,16.41,2.941,18.425-1.9,1.971-4.715-2.7-11.453-10.427-15.131-8-3.812-15.971-2.858-18.221,2.059C162.632,497.047,167.05,503.54,175.053,507.21Zm649.727,0.145c8.178-3.713,12.734-10.433,10.358-15.242-2.319-4.686-10.255-5.588-18.011-1.947-8.011,3.76-12.678,10.555-10.482,15.362C808.79,510.235,816.754,511,824.78,507.355ZM281.59,314.691c-6.052-3.895-12.225-3.06-14.143,2.061-1.962,5.23,1.513,12.554,7.963,16.5,6.225,3.814,12.574,2.741,14.261-2.273C291.4,325.847,287.776,318.677,281.59,314.691Zm436.846,0.079c-6.227,4.01-9.789,11.09-8.035,16.272,1.715,5.063,7.974,6.125,14.24,2.273,6.406-3.935,9.924-11.339,7.977-16.521C730.717,311.735,724.449,310.9,718.436,314.77ZM195.249,392.415c-6.857-3.852-13.936-2.826-16.233,2.291s1.343,11.966,8.412,15.787c6.992,3.78,14.426,2.946,16.585-1.913C206.222,403.616,202.242,396.343,195.249,392.415Zm617.339,18.15c7.152-3.865,10.887-11.118,8.375-16.121-2.46-4.9-9.769-5.689-16.569-1.741s-10.49,10.928-8.3,15.892S805.522,414.391,812.588,410.565ZM378.251,308.136c5.743,2.524,11.221.29,12.107-4.716s-2.944-11.016-8.479-13.573c-5.6-2.582-10.837-.761-11.968,4.4S372.418,305.572,378.251,308.136Zm239.994-18.278c-5.623,2.553-9.357,8.365-8.471,13.5,0.89,5.158,6.132,7.392,11.949,4.856,5.772-2.507,9.574-8.841,8.522-13.9C629.2,289.271,623.77,287.356,618.245,289.858ZM819.934,427.206c-7.069,3.76-10.946,10.6-8.7,15.463,2.224,4.835,9.838,5.654,17.14,1.955,7.174-3.632,11.1-10.608,8.691-15.38C834.632,424.433,826.937,423.473,819.934,427.206ZM171.917,444.693c7.224,3.545,15.06,2.59,17.1-2.195,2.049-4.8-2.153-11.85-9.186-15.494-7.11-3.686-14.484-2.577-16.814,2.427C160.7,434.417,164.576,441.088,171.917,444.693Zm185.6,258.9c10,2.369,19.064.007,19.72-4.831,0.645-4.745-6.682-10.33-16.162-12.643-9.784-2.375-18.634-.62-19.731,4.2C340.247,695.156,347.427,701.212,357.521,703.593Zm281.9-17.557c-9.817,2.234-17.252,7.815-16.526,12.746s9.48,7.251,19.575,4.848c10-2.366,17.469-8.633,16.309-13.324C657.639,685.684,648.922,683.882,639.422,686.036ZM202.914,375.723c6.439,3.761,13.5,2.96,15.654-1.774,2.171-4.774-1.476-12.3-7.82-16.327-6.407-4.06-13.4-3.232-15.679,1.87S196.264,371.841,202.914,375.723Zm586.559-18.145c-6.445,3.971-10.051,11.234-7.972,16.232,2.032,4.892,8.885,5.821,15.408,2.106,6.628-3.77,10.327-11.14,8.222-16.26C803.053,354.6,795.861,353.643,789.473,357.578Zm-43.564-38.8c-5.874,3.984-9.3,11.186-7.567,16.129,1.787,5.094,8.42,6.056,14.633,2.043,6.038-3.9,9.425-11.316,7.554-16.331C758.632,315.545,751.872,314.736,745.909,318.774ZM246.967,336.812c6.147,4.022,13.014,3.107,14.776-1.867,1.73-4.878-1.731-12.2-7.542-16.2-5.98-4.116-12.577-3.361-14.6,1.772C237.634,325.521,240.9,332.855,246.967,336.812ZM231.074,626.255c8.96,3.652,17.745,2.852,19.377-1.674s-4.219-11.022-13.021-14.621c-8.65-3.534-17.46-2.877-19.3,1.52S222.136,622.617,231.074,626.255Zm531.384-16.188c-8.726,3.59-14.663,10.182-13.015,14.649s10.643,5.231,19.492,1.6c9.027-3.7,14.7-10.318,12.8-14.755S771.178,606.484,762.458,610.067Zm25.147-29.056c-8.387,3.543-14.114,10.26-12.439,14.737s10.392,5.229,19,1.627c8.686-3.637,14.148-10.269,12.235-14.742S796.093,577.427,787.605,581.011ZM205.54,597.187c8.613,3.712,17.306,3.063,19.135-1.417s-3.6-11.042-12.079-14.739c-8.316-3.62-17.02-3-19.038,1.369S196.927,593.477,205.54,597.187ZM499.9,299.923c5.355,0.085,9.737-4.1,9.7-9.016s-4.263-8.762-9.468-8.846c-5.107-.066-9.574,3.775-9.732,8.625S494.548,299.848,499.9,299.923Zm-98.633-1.42c5.463,2.116,10.5-.409,11.205-5.374s-3.064-10.5-8.331-12.521c-5.145-1.963-10.1.138-11.048,4.893C392.118,290.354,395.849,296.421,401.263,298.5Zm197.3,0.122c5.458-1.955,9.219-7.884,8.334-12.863-0.888-5-5.852-7.153-11.136-5.055-5.225,2.083-9.016,7.748-8.258,12.607C588.244,298.059,593.226,300.547,598.563,298.625ZM155.7,477.98c7.283,3.488,15.269,2.651,17.5-1.987,2.244-4.656-1.847-11.31-9.073-14.82-7.13-3.469-15-2.307-17.276,2.4C144.628,468.159,148.556,474.562,155.7,477.98ZM835.776,461.3c-6.985,3.436-11.164,10.05-9.2,14.6,2,4.651,9.99,5.65,17.343,2.327,7.4-3.348,11.445-9.825,9.094-14.586S842.949,457.762,835.776,461.3ZM182.15,568.272c8.418,3.581,16.7,2.809,18.491-1.782,1.785-4.566-3.591-11.22-11.762-14.653-8.031-3.375-16.113-2.548-18.143,1.783C168.664,558.043,173.867,564.743,182.15,568.272Zm628.269-16.061c-7.912,3.628-12.969,10.14-11.181,14.5,1.82,4.466,10.489,5.164,18.741,1.565,8.383-3.652,13.279-10.139,11.088-14.621S818.491,548.512,810.419,552.211ZM461.655,296.774c5.3,0.759,9.67-2.646,9.912-7.475,0.247-4.965-3.774-9.421-8.982-10.208-5.058-.762-9.549,2.31-9.982,7.068C452.161,291,456.341,296.022,461.655,296.774Zm73.778,422.55c-9.708.677-17.608,4.839-17.539,9.592,0.066,4.838,8.806,8.693,18.879,7.967s17.688-5.341,17.352-10.148C553.781,721.794,545.415,718.636,535.433,719.324Zm-71.2-.031c-9.895-.609-18.44,2.682-18.616,7.524-0.173,4.738,7.87,9.452,17.768,10.065,10.255,0.645,18.485-3.133,18.464-8.1C481.829,723.952,474.03,719.905,464.231,719.293Zm74.14-422.5c5.384-.769,9.4-5.642,8.963-10.595-0.432-4.851-4.78-7.854-9.9-7.085-5.147.784-9.314,5.365-9.063,10.219C528.617,294.061,533.144,297.541,538.371,296.791ZM263.819,638.747c-8.966-3.31-17.531-2.563-19.165,1.8-1.663,4.428,4.841,11.184,14.216,14.547,9.325,3.348,17.588,2.253,18.879-2.342S272.915,642.108,263.819,638.747Zm472.643-.046c-9.193,3.287-15.813,9.732-14.433,14.287,1.346,4.45,10.074,5.478,19.231,2.112,9.292-3.409,15.38-9.741,13.9-14.233C753.663,636.312,745.6,635.431,736.462,638.7ZM217.623,339.632c6.114,4.186,12.686,3.721,14.818-1.016,2.118-4.694-.714-11.583-6.37-15.74-6.061-4.454-12.644-4.08-15,.909C208.863,328.476,211.781,335.632,217.623,339.632Zm-49.777,183.8c-7.777-3.522-15.731-2.686-17.941,1.746-2.15,4.319,2.22,10.449,9.9,13.887,8,3.58,16.064,3.035,18.193-1.361C180.154,533.275,175.641,526.957,167.846,523.43Zm664.335,0.057c-7.748,3.481-12.448,9.989-10.294,14.3,2.126,4.267,9.991,4.908,17.769,1.572C847.7,535.917,852.2,529.8,850,525.309S840.021,519.956,832.181,523.487ZM774.31,322.7c-5.723,4.033-8.845,11.035-6.929,15.749,1.96,4.834,8.539,5.534,14.647,1.518,6.132-4.025,9.113-11.094,6.862-16.052C786.657,319,780.287,318.484,774.31,322.7ZM607.065,710.958c-9.668,1.731-16.851,6.481-16.431,11.218s8.49,7.344,18.348,5.624c10.134-1.759,17.573-7.211,16.736-11.9C624.9,711.3,616.647,709.253,607.065,710.958Zm-214.019-.007c-9.673-1.751-17.808.229-18.7,4.86s6.079,9.962,15.911,11.823c10.121,1.925,18.661-.639,19.153-5.409C409.889,717.557,402.616,712.692,393.046,710.951ZM836.508,397.522c-6.436,3.507-9.778,10.008-7.534,14.706s9.187,5.584,15.829,2.164c6.554-3.374,9.864-9.823,7.492-14.558S842.935,394.008,836.508,397.522ZM155.3,414.367c6.6,3.353,13.7,2.432,15.881-2.2s-1.319-11.26-7.719-14.747c-6.462-3.52-13.28-2.391-15.65,2.45C145.438,404.731,148.674,411.008,155.3,414.367ZM686.45,292.542c5.388-3.49,8.427-10.341,6.812-15.069-1.622-4.753-7.074-5.573-12.317-2.036s-8.246,9.927-6.8,14.752C675.58,294.986,680.975,296.092,686.45,292.542Zm21.075,374.689c-9.148,3.074-15.376,8.86-14.125,13.392,1.244,4.5,9.605,5.675,19.076,2.459,9.317-3.158,15.647-9.419,14.156-13.729C725.136,665.012,716.676,664.16,707.525,667.231Zm-415.255-.118c-9.194-3.066-17.419-2.124-18.81,2.321s4.817,10.517,14.243,13.657c9.383,3.128,17.9,1.892,19.049-2.568S301.39,670.158,292.27,667.113Zm21.409-374.584c5.435,3.477,10.938,2.324,12.333-2.415s-1.756-11.28-6.976-14.789c-5.278-3.544-10.6-2.663-12.186,2.2S308.231,289.047,313.679,292.529Zm-25.892,4.538c5.493,3.695,11.3,2.687,12.765-2.084,1.438-4.661-1.613-11.368-6.74-15.075-5.347-3.86-10.939-3.2-12.709,1.666C279.322,286.469,282.234,293.329,287.787,297.067Zm424.582,0c5.33-3.647,8.325-10.525,6.75-15.285-1.6-4.842-7.351-5.667-12.652-1.961-5.375,3.755-8.407,10.41-6.839,15.258S706.825,300.859,712.369,297.063ZM171.956,379.192c6.272,3.536,13.222,2.609,15.232-2.118,1.969-4.623-1.285-11.383-7.184-15.02-6.147-3.8-12.789-2.857-15.124,2.042C162.536,369.024,165.606,375.61,171.956,379.192Zm404.8-91.881c5.131-1.634,8.736-7.055,7.965-11.723-0.753-4.571-5.273-6.87-10.091-5.337-5.019,1.6-8.59,6.466-8.075,11.257C567.078,286.317,571.568,288.975,576.761,287.311Zm-153.515-.046c5.139,1.659,9.82-1.023,10.341-5.711,0.508-4.574-3.02-9.526-7.808-11.214-5-1.757-9.567.443-10.345,5.2C414.65,280.345,418.075,285.6,423.246,287.265ZM828.368,379.09c6.045-3.54,9.126-10.2,6.94-14.918-2.24-4.826-9.085-5.816-15.177-2.107-6.143,3.737-9.29,10.456-7.068,15.226C815.269,382.035,822.048,382.792,828.368,379.09Zm-489.786-92.2c5.249,3.156,10.7,1.663,11.83-3.048,1.1-4.605-2.122-10.882-7.035-13.981-5.1-3.207-10.313-2.028-11.669,2.83C330.387,277.422,333.413,283.788,338.582,286.891Zm322.783,0.12c5.126-3.024,8.312-9.525,7.1-14.229-1.231-4.772-6.633-6.035-11.7-2.915-5,3.086-8.152,9.172-7.049,13.885C650.856,288.615,656.051,290.15,661.365,287.011ZM852.048,495.034c-7.04,3.159-11.162,9.323-9.112,13.629s9.637,5.223,16.884,2.208c7.168-2.983,11.38-8.956,9.366-13.35C867.148,493.085,859.168,491.836,852.048,495.034Zm-703.977-.013c-6.988-3.205-14.623-2.159-16.967,2.132-2.372,4.353,1.329,10.195,8.483,13.4,7.207,3.235,15.406,2.461,17.555-1.834C159.226,504.567,155.005,498.192,148.071,495.021Zm-1.462-62.692c-6.5-3.111-13.578-1.749-15.891,2.847-2.316,4.613,1.072,10.631,7.684,13.688,6.536,3.019,13.977,2.07,16.283-2.273C157.011,442.223,153.179,435.469,146.609,432.329Zm706.707,0.108c-6.478,3.134-10.109,9.458-8,13.948,2.111,4.507,9.268,5.634,15.95,2.7,6.761-2.972,10.5-9.376,8.1-13.949C867.019,430.643,859.721,429.332,853.316,432.437ZM260.968,300.756c5.4,3.713,11.362,2.828,12.945-1.833,1.593-4.683-1.5-11.734-6.709-15.5-5.265-3.81-11.021-3.1-12.824,1.7S255.551,297.035,260.968,300.756Zm478.22,0c5.363-3.782,8.307-11.033,6.464-15.7-1.852-4.681-7.77-5.293-12.957-1.451-5.234,3.877-8.187,10.81-6.494,15.488S733.8,304.561,739.188,300.751ZM637.341,280.213c5.013-2.621,8.227-8.906,7.066-13.567s-6.161-6.107-10.978-3.35c-4.724,2.711-7.887,8.494-7.006,13.04C627.328,281.008,632.3,282.856,637.341,280.213Zm-118.564.779A9.057,9.057,0,0,0,527,271.851a7.935,7.935,0,0,0-8.99-7.434c-4.589.471-8.338,4.347-8.3,8.8A8.163,8.163,0,0,0,518.777,280.992Zm-37.349,0a8.02,8.02,0,0,0,8.814-7.671,8.982,8.982,0,0,0-8.408-8.934,8.055,8.055,0,0,0-8.87,7.319C472.68,276.248,476.6,280.651,481.428,281ZM362.523,280c5.012,2.767,10,1,10.961-3.7,0.943-4.587-2.135-10.281-6.9-13.016-4.808-2.749-9.861-1.292-10.975,3.364C354.526,271.187,357.644,277.316,362.523,280Zm449.345,63.222c5.657-3.7,8.419-10.419,6.28-15.147s-8.253-5.633-13.871-2c-5.643,3.653-8.827,10.808-6.823,15.459S806.169,346.95,811.868,343.225Zm-623.46.081c5.722,3.543,12,2.732,14.029-1.846,2.087-4.711-.938-11.688-6.625-15.425-5.539-3.64-11.838-2.807-14,1.824C179.606,332.6,182.628,339.727,188.408,343.306ZM677.664,694.714c-8.875,2.527-15.683,8.047-14.945,12.376,0.747,4.406,9.523,6.056,18.747,3.316,9.188-2.727,15.517-8.462,14.372-12.745C694.689,693.358,686.688,692.153,677.664,694.714Zm-355.358-.051c-8.884-2.534-17.214-1.333-18.388,2.848-1.2,4.263,5.811,10.425,15.064,12.981s17.2,0.925,18.038-3.483S331.315,697.239,322.306,694.663ZM500.147,738.6c-9.361-.039-17.265,3.334-17.511,7.788-0.246,4.421,7.561,8.438,17.131,8.493,9.7,0.064,17.351-3.751,17.313-8.3C517.043,741.971,509.676,738.644,500.147,738.6Zm266.6-434.767c5.476-3.806,8.253-10.664,6.33-15.456-1.944-4.847-7.509-5.5-12.851-1.568-5.249,3.863-8.209,10.78-6.525,15.419C755.375,306.825,761.348,307.583,766.751,303.828Zm-533.66-.322c5.484,3.949,11.208,3.316,13.033-1.376s-0.953-11.337-6.322-15.319c-5.259-3.906-11.146-3.263-12.938,1.463C225.093,292.95,227.829,299.72,233.091,303.506ZM572.947,734.251c-9.173,1.142-16.376,5.312-16.22,9.7,0.158,4.452,8.282,7.395,17.922,6.168,9.739-1.232,16.766-5.959,16.034-10.443C589.974,735.331,582.265,733.1,572.947,734.251Zm-145.383.051c-9.5-1.3-17.608.926-18.413,5.348-0.774,4.241,6.266,9.076,15.569,10.368,9.816,1.373,17.874-1.332,18.358-5.829C443.555,739.753,436.754,735.557,427.564,734.3ZM870.548,467.17c-6.579,2.807-10.223,8.488-8.216,12.753s9.011,5.385,15.719,2.763c6.949-2.719,10.531-8.187,8.208-12.631C883.993,465.739,877.108,464.361,870.548,467.17ZM443.918,274.455c4.75,1.291,8.873-1.259,9.408-5.63,0.537-4.4-2.668-8.85-7.144-10.166-4.734-1.386-8.885.873-9.537,5.415C436.013,268.469,439.243,273.185,443.918,274.455Zm-58.567-2.85c4.794,2.381,9.292.652,10.219-3.731,0.932-4.409-2-9.721-6.545-12.126-4.776-2.521-9.3-1.078-10.347,3.5C377.659,263.706,380.594,269.254,385.351,271.605ZM614.5,271.749c4.79-2.279,7.827-7.754,6.924-12.257s-5.283-6.175-9.89-3.953c-4.794,2.319-7.935,7.607-7.083,12.184C605.282,272.179,609.706,274.032,614.5,271.749ZM129.492,467.122c-6.572-2.815-13.438-1.463-15.732,2.863s1.1,9.723,7.746,12.461c6.873,2.832,14.084,1.8,16.165-2.569C139.7,475.638,136.052,469.935,129.492,467.122Zm426.317-192.56c4.854-1.173,8.226-5.912,7.607-10.442-0.6-4.4-4.645-6.739-9.221-5.528-4.551,1.21-7.872,5.511-7.5,9.942S551.086,275.705,555.809,274.562ZM801.265,613.774c-8.151,3.345-13.355,9.079-11.86,13.181,1.5,4.122,9.145,4.7,17.42,1.312,8.258-3.38,13.469-9.232,11.846-13.217S809.27,610.491,801.265,613.774Zm-602.355.011c-8.089-3.378-15.682-2.866-17.45,1.148s3.216,9.761,11.514,13.19c8.21,3.391,16.135,2.9,17.684-1.1S206.929,617.137,198.91,613.785Zm626.513-28.96c-7.806,3.3-12.6,9.048-10.872,13.1s9.311,4.578,17.271,1.236c7.911-3.315,12.679-9.066,10.829-13.025S833.138,581.556,825.423,584.825Zm-650.74-.02c-7.79-3.34-15.268-2.761-17.216,1.248s2.637,9.649,10.6,13c7.9,3.323,15.707,2.867,17.454-1.092S182.38,588.107,174.683,584.8Zm673.7-28.742c-7.555,3.043-12.186,8.731-10.45,12.825,1.758,4.162,9.087,4.881,16.718,1.794,7.578-3.065,12.1-8.7,10.155-12.7C862.917,554.1,855.552,553.176,848.38,556.063Zm-695.814.336c-7.441-3.306-14.9-2.654-17.092,1.334-2.22,4.048,1.83,9.5,9.405,12.691,7.518,3.164,15.308,2.651,17.224-1.286C163.967,565.319,159.623,559.53,152.566,556.4ZM148.4,367.47c-5.589-3.157-11.82-1.978-14.15,2.536-2.428,4.708.213,10.673,6.089,13.729,5.642,2.935,12.141,1.991,14.4-2.243C157.015,377.223,154.029,370.649,148.4,367.47Zm703.316,0.022c-5.611,3.109-8.5,9.18-6.468,13.637,2.1,4.629,8.454,5.759,14.36,2.716,5.656-2.919,8.547-8.913,6.491-13.471C864,365.745,857.38,364.336,851.713,367.492ZM774.761,643.176c-8.044,3.262-13.425,9-12.012,12.957s9.223,4.563,17.486,1.3c8.162-3.225,13.755-9.192,12.382-13.079C791.223,640.406,782.905,639.878,774.761,643.176Zm-550.232-.342c-8.123-3.08-15.617-2.413-17.045,1.571-1.412,3.932,4.1,9.786,12.374,13,8.168,3.182,16.254,2.532,17.544-1.346C238.734,652.063,232.713,645.944,224.529,642.834ZM869.1,403.858c-5.762,2.868-8.695,8.739-6.517,13.057s8.758,5.514,14.686,2.894c5.859-2.588,8.906-8.293,6.771-12.732C881.854,402.543,874.927,400.952,869.1,403.858Zm-738.306-.087c-5.724-2.806-12.325-1.275-14.595,3.17-2.282,4.477.586,10.1,6.473,12.741,5.826,2.609,12.646,1.408,14.8-2.823C139.614,412.661,136.5,406.559,130.792,403.771ZM795.5,306.48c5.113-3.643,7.7-10.547,5.692-15.011s-7.9-5.063-12.858-1.317c-5,3.78-7.6,10.51-5.706,14.936S790.361,310.151,795.5,306.48Zm-590.852-.006c5.14,3.587,11.075,2.885,12.868-1.522s-0.947-11.286-5.921-14.969c-5.026-3.723-10.746-3.031-12.725,1.547S199.481,302.868,204.644,306.474ZM645.921,721.256c-8.709,1.991-15.581,6.978-15.027,11.178,0.556,4.217,8.361,6.176,17.348,4.109,8.887-2.036,15.77-7.438,15.081-11.571C662.64,720.879,654.643,719.275,645.921,721.256Zm-291.9-.048c-8.776-2-16.541-.42-17.3,3.738-0.756,4.137,6.038,9.5,14.975,11.548s16.974,0.062,17.453-4.083C369.634,728.221,362.678,723.188,354.021,721.208Zm514.6-192.8c-6.592,2.745-10.65,8.3-8.892,12.142,1.808,3.967,9.215,4.888,16.189,2.216,6.95-2.66,10.987-8.088,8.918-12.062S875.379,525.583,868.616,528.406Zm-737.264-.075c-6.551-2.729-13.828-1.712-16.056,2.041-2.3,3.884,1.4,9.266,8.295,12.134,6.811,2.824,14.439,2.1,16.514-1.776S138.157,531.154,131.352,528.331Zm26.482-181.252c5.366,3.246,11.671,2.318,13.7-2.118s-0.764-11.011-6.056-14.3c-5.164-3.209-11.159-2.18-13.342,2.209C149.889,337.4,152.452,343.824,157.834,347.079Zm684.245,0.143c5.412-3.191,8.045-9.623,5.833-14.184-2.221-4.577-8.434-5.58-13.646-2.119-5.242,3.478-7.854,10.019-5.685,14.349C830.684,349.474,836.827,350.319,842.079,347.222Zm-434.7-85.208c4.412,1.8,8.408-.282,9.042-4.538,0.638-4.279-2.207-8.952-6.479-10.865-4.288-1.922-8.584-.011-9.272,4.3C400,255.1,403.055,260.264,407.374,262.014Zm185.238,0.065c4.4-1.755,7.361-6.747,6.669-11.036-0.7-4.357-4.521-6.232-8.848-4.52-4.31,1.705-7.529,6.729-6.917,10.993C584.112,261.647,588.271,263.816,592.612,262.079ZM747.3,672.34c-8.164,2.967-14.071,8.5-13.055,12.426,1,3.875,8.9,4.7,17.214,1.679,8.431-3.06,14.055-8.652,12.77-12.539C762.927,669.968,755.585,669.337,747.3,672.34Zm-494.651-.07c-8.167-2.969-15.936-2.346-17.13,1.47s4.652,9.606,12.936,12.619c8.444,3.071,15.913,2.262,17.038-1.733C266.61,680.659,260.944,675.285,252.647,672.27Zm-139.8-232.443c-5.921-2.469-12.462-.81-14.688,3.444s0.869,9.346,6.912,11.571c6.1,2.241,12.534.9,14.583-3.34C121.643,447.414,118.642,442.233,112.851,439.827Zm187.31-179.622c4.663,3.4,9.35,2.522,10.659-1.872s-1.262-10.322-5.837-13.733c-4.371-3.25-9.024-2.617-10.487,1.558C293,250.427,295.544,256.841,300.161,260.205Zm199.68,3.213a7.494,7.494,0,0,0,7.809-7.521,7.411,7.411,0,0,0-7.6-7.437,7.567,7.567,0,0,0-7.745,7.374A7.656,7.656,0,0,0,499.841,263.418Zm200.082-3.166c4.527-3.33,6.965-9.367,5.61-13.683-1.412-4.5-6-5.25-10.535-1.845-4.508,3.388-7.149,9.505-5.859,13.807C690.42,262.805,695.316,263.648,699.923,260.252ZM887.454,439.765c-5.968,2.355-9.236,7.8-7.2,11.922s8.745,5.428,14.77,3.175c6.084-2.284,8.957-7.222,6.657-11.57C899.454,439.1,893.3,437.451,887.454,439.765ZM725.56,263.661c4.6-3.566,6.933-9.773,5.378-14.1-1.607-4.465-6.442-4.941-11.058-1.207-4.451,3.606-6.885,9.7-5.491,13.964C715.811,266.672,720.836,267.324,725.56,263.661Zm-450.913.045c4.622,3.493,9.405,2.844,10.9-1.369,1.537-4.34-.92-10.522-5.554-14.2-4.465-3.543-9.26-3.087-10.893,1.151C267.427,253.617,269.891,260.121,274.647,263.706Zm261.479-3.48a8.559,8.559,0,0,0,7.04-8.858c-0.342-4.108-3.9-6.649-8.03-5.91a8.477,8.477,0,0,0-7.045,8.58A6.583,6.583,0,0,0,536.126,260.226Zm139.1-4.464c4.463-3.067,6.972-9.007,5.687-13.249s-5.746-5.043-10.062-1.943c-4.354,3.128-6.882,8.784-5.725,13.024S670.741,258.852,675.226,255.762ZM324.7,255.6c4.457,3.134,8.986,2.2,10.2-1.95s-1.282-9.92-5.571-13.064c-4.356-3.189-8.767-2.5-10.138,1.739S320.227,252.47,324.7,255.6Zm139.14,4.59a6.624,6.624,0,0,0,8.129-6.078,8.521,8.521,0,0,0-6.957-8.658c-4.173-.788-7.7,1.664-8.1,5.806A8.475,8.475,0,0,0,463.836,260.193Zm424,241.339c-6.342,2.456-9.77,7.6-7.678,11.445,2.093,3.858,8.821,4.81,15.333,2.437,6.41-2.338,9.726-7.151,7.542-11.08S894.18,499.069,887.835,501.532Zm-775.9-.144c-6.374-2.4-12.955-.941-15.026,3.05s1.318,8.7,7.846,11.009c6.451,2.278,13.252,1.2,15.186-2.664S118.289,503.776,111.935,501.388Zm350.8,254.329c-8.895-.582-16.07,1.938-16.456,6.065s6.382,8.029,15.434,8.635c9.011,0.6,16.338-2.393,16.521-6.479S471.505,756.3,462.736,755.717Zm74.588,0.007c-8.862.561-15.694,4.025-15.564,8.172s7.286,7.126,16.376,6.54c8.974-.572,15.913-4.527,15.591-8.594S546.128,755.171,537.324,755.724Zm214.624-489.17c4.685-3.664,7.032-10.179,5.287-14.483s-6.794-4.662-11.326-.875c-4.55,3.8-6.778,10.024-5.047,14.316C742.533,269.652,747.364,270.144,751.948,266.554Zm-504.2-.366c4.651,3.81,9.781,3.479,11.51-.665,1.725-4.128-.594-10.59-5.079-14.379-4.567-3.856-9.472-3.508-11.266.885C241.162,256.312,243.245,262.5,247.746,266.188Zm577,43.363c4.825-3.325,7.142-9.5,5.228-13.857-1.959-4.453-7.626-5.227-12.469-1.672-4.907,3.6-7.141,9.783-5.056,14.142C814.448,312.341,819.842,312.93,824.748,309.551Zm-649.319.019c4.852,3.265,10.392,2.606,12.331-1.51,1.984-4.2-.481-10.7-5.342-14.2-4.93-3.549-10.279-2.679-12.287,1.957C168.207,300.263,170.5,306.249,175.429,309.57Zm172.937-59.51c4.161,2.7,8.51,1.554,9.588-2.4,1.092-4.012-1.607-9.784-5.75-12.518-4.078-2.682-8.223-1.641-9.345,2.483S344.163,247.331,348.366,250.06Zm303.259,0.1c4.166-2.673,6.734-8.4,5.683-12.468-1.076-4.157-5.572-5.167-9.687-2.331-4.048,2.8-6.475,8.153-5.443,12.239C643.205,251.671,647.414,252.873,651.625,250.162Zm65.518,451.191c-7.966,2.721-13.624,7.883-12.544,11.623s8.735,4.611,16.842,1.815c8.061-2.774,13.862-8.339,12.6-11.88C732.761,699.331,725,698.673,717.143,701.353Zm-434.464-.11c-7.945-2.681-15.468-1.966-16.645,1.707s4.477,9.063,12.615,11.82c8.066,2.739,15.854,1.806,16.867-1.872S290.563,703.908,282.679,701.243Zm329.636,45.4c-8.258,1.4-15.063,5.764-14.717,9.68s7.757,6.118,16.262,4.569c8.445-1.529,15.112-6.329,14.429-10.132C627.626,747.049,620.406,745.282,612.315,746.64Zm-224.408.013c-8.324-1.5-15.7.318-16.228,4.213-0.521,3.874,6.23,8.6,14.689,10.037,8.268,1.411,15.509-.71,16-4.466C402.881,752.579,396.166,748.144,387.907,746.653ZM779.374,268.948c4.377-3.465,6.542-9.79,4.842-14-1.757-4.353-6.862-4.875-11.24-1.2-4.242,3.567-6.5,9.883-4.945,13.967C769.632,271.91,774.889,272.5,779.374,268.948ZM571.9,250.8a9.593,9.593,0,0,0,6.234-9.945c-0.607-3.878-4.184-5.832-7.978-4.508-3.871,1.359-6.788,5.78-6.291,9.711C564.351,249.871,568.006,252.093,571.9,250.8ZM220.669,268.864c4.38,3.461,9.422,2.985,11.155-1.02,1.788-4.131-.432-10.6-4.821-14.238-4.262-3.533-9.294-3.137-11.13.908C213.986,258.676,216.181,265.318,220.669,268.864Zm207.344-18.15c4,1.437,7.727-.88,8.132-4.9a9.673,9.673,0,0,0-6.169-9.482c-3.86-1.42-7.628.657-8.148,4.636C421.326,244.839,424.126,249.329,428.013,250.714Zm-312.049,124.4c-5.047-2.281-10.889-.467-12.894,3.789s0.556,9.462,5.634,11.53c5.168,2.1,10.918.626,12.9-3.54C123.584,382.752,121.029,377.4,115.964,375.117Zm767.969,0.115c-5,2.328-7.591,7.828-5.617,11.869s7.991,5.485,13.069,3.359c5.127-2.151,7.508-7.209,5.4-11.53S888.983,372.866,883.933,375.232Zm21.4,100.3c-5.49,1.975-8.483,6.686-6.62,10.335,1.9,3.735,8.468,5.167,14.2,3.393,5.834-1.817,8.624-6.12,6.453-10.116C917.192,475.164,911.082,473.46,905.331,475.528ZM872.805,352.594c5.008-2.547,7.244-7.922,5.123-12.321-2.132-4.419-7.545-5.73-12.459-2.873-4.826,2.8-7.18,8.627-5.089,12.626C862.424,353.946,868.011,355.039,872.805,352.594ZM94.333,475.361c-5.713-1.906-12.041.008-13.971,3.911-1.877,3.808,1.042,8.112,6.6,9.893,5.8,1.852,12.093.492,14.116-3.345C103.122,481.959,100.145,477.293,94.333,475.361ZM127.3,352.552c4.9,2.447,10.237,1.309,12.239-2.758,2.082-4.221-.157-9.717-5.088-12.52-4.844-2.76-10.519-1.353-12.519,2.943S122.354,350.086,127.3,352.552Zm243.741-109.54c4.091,2.421,7.9,1.047,8.7-3,0.78-3.924-1.576-8.6-5.433-10.982-3.908-2.41-7.878-1.237-8.751,2.725C364.7,235.626,367.136,240.706,371.037,243.012ZM628.786,243.2c4-2.248,6.454-7.143,5.665-11.111-0.829-4.172-4.522-5.461-8.5-3.125-3.938,2.312-6.532,7.322-5.716,11.236C621.02,244,624.871,245.407,628.786,243.2ZM902.873,412.918c-5.339,1.9-8.066,6.894-5.988,10.868,2.023,3.885,7.853,5.416,13.064,3.7,5.279-1.739,7.714-6.072,5.688-10.24S908.049,411.073,902.873,412.918ZM97.5,413c-5.127-1.97-10.8-.153-13.026,3.9-2.263,4.143.246,8.794,5.632,10.55,5.267,1.719,10.958.185,12.98-3.771S102.63,414.963,97.5,413Zm38.282,175.723c-6.651-2.626-13.178-1.856-14.8,1.591s2.354,8.041,9.226,10.7c6.788,2.623,13.43,2.073,14.937-1.375S142.525,591.38,135.782,588.722Zm728.11,0.191c-6.667,2.7-10.642,7.572-8.955,10.95s8.375,3.8,15.179,1.082c6.779-2.7,10.635-7.373,8.838-10.746S870.583,586.2,863.892,588.913ZM159.828,617.294c-6.961-2.937-13.65-2.563-15.392.772s2.35,8.177,9.4,11.115c7.078,2.945,13.951,2.7,15.555-.635S166.725,620.206,159.828,617.294Zm680.716-.091c-7.008,2.846-11.391,7.761-9.98,11.205s8.129,3.857,15.207,1c7.127-2.885,11.443-7.714,9.919-11.108S847.479,614.382,840.544,617.2ZM114.209,561.4c-6.438-2.427-12.716-1.353-14.513,2.235-1.725,3.46,1.749,7.687,8.12,10,6.267,2.271,12.8,1.633,14.631-1.623C124.325,568.675,120.546,563.777,114.209,561.4Zm771.475,0.1c-6.42,2.443-9.919,7.124-7.957,10.579,1.881,3.319,8.214,3.917,14.584,1.566,6.246-2.309,9.81-6.688,8.1-10.066C898.652,560.105,892.021,559.076,885.684,561.494ZM145.709,313.937c4.486,2.709,9.762,1.749,11.555-2.194,1.847-4.063-.5-10.043-5.063-12.919-4.482-2.828-9.356-1.628-11.266,2.692C139.05,305.779,141.112,311.158,145.709,313.937Zm708.705,0.016c4.486-2.769,6.614-8.356,4.781-12.519-1.869-4.245-7.307-5.326-11.779-2.255-4.421,3.034-6.4,8.559-4.484,12.626S849.858,316.77,854.414,313.953Zm-47.306-42.392c4.438-3.252,6.635-9.494,4.836-13.647-1.732-3.991-6.674-4.582-10.8-1.281-4.235,3.376-6.306,9.211-4.67,13.271C798.131,274.029,802.767,274.742,807.108,271.561Zm-614.629-.439c4.214,3.355,9.176,3,11.024-.781,1.874-3.832-.233-10.211-4.472-13.691-4.194-3.443-8.9-2.946-10.761,1.155C186.391,261.932,188.2,267.722,192.479,271.122Zm121.211,458.3c-7.754-2.154-14.306-1.156-15.11,2.448-0.8,3.565,4.716,8.211,12.688,10.5,7.773,2.239,14.914,1.074,15.654-2.392C327.686,736.405,321.57,731.62,313.69,729.426Zm372.746,0.011c-7.818,2.121-13.68,6.549-13.236,10.182,0.457,3.731,6.831,5.124,14.715,3.036,8.121-2.147,14.3-7.069,13.693-10.715C701.03,728.468,694.033,727.381,686.436,729.437ZM517.6,244.308a7.331,7.331,0,0,0,6.292-7.5,6.3,6.3,0,0,0-6.925-5.865,7.066,7.066,0,0,0-6.213,7.273A6.17,6.17,0,0,0,517.6,244.308Zm-35.047,0a6.365,6.365,0,0,0,6.844-6.192,7.313,7.313,0,0,0-6.4-7.193,6.113,6.113,0,0,0-6.749,5.982A7.1,7.1,0,0,0,482.552,244.308ZM185.2,646.427c-6.956-2.9-13.722-2.593-15.254.677s2.836,8.207,9.938,11.153c6.969,2.9,14.151,2.639,15.529-.569C196.787,654.506,192.014,649.269,185.2,646.427Zm629.864-.049c-6.98,2.809-11.66,7.812-10.4,11.172,1.275,3.393,7.963,3.789,15.106.908,7.007-2.828,11.776-7.944,10.474-11.207C828.965,644.032,821.929,643.612,815.066,646.378ZM94.341,535.306c-5.451-1.918-11.808-.6-13.826,2.641-2.09,3.358.99,7.645,6.786,9.557,5.573,1.834,11.961.893,13.938-2.288C103.28,541.94,100.086,537.32,94.341,535.306Zm811.369,0.037c-5.521,1.9-8.835,6.388-7.179,9.635,1.711,3.366,8.3,4.476,14.056,2.612,5.648-1.831,8.795-5.913,7.04-9.269C917.818,534.86,911.414,533.379,905.71,535.343ZM499.883,775.176c-7.609.028-14.168,2.818-14.372,6.322-0.212,3.616,6.52,6.92,14.509,6.9,7.792-.015,14.293-3.129,14.36-6.663C514.448,778.08,507.757,775.164,499.883,775.176ZM607.216,234.862c3.585-1.765,5.965-6.381,5.272-10.076-0.7-3.736-4.034-5.146-7.558-3.327-3.427,1.776-5.925,6.319-5.367,9.916S603.65,236.62,607.216,234.862Zm-214.524-.121c3.58,1.875,7.039.321,7.689-3.33s-1.656-8.05-5.15-9.943c-3.434-1.857-7-.49-7.733,3.084S389.163,232.9,392.692,234.741ZM921.44,450.5c-4.739,1.452-7.245,5.7-5.481,9.178,1.812,3.582,7.735,5.395,12.711,4.174,5.113-1.261,7.4-5.038,5.325-8.958C931.925,451,926.462,448.958,921.44,450.5Zm-843.128-.116c-4.949-1.388-10.693.868-12.552,4.628-1.8,3.649.607,7.494,5.4,8.754,5.046,1.328,10.69-.347,12.662-4.061C85.816,455.966,83.388,451.8,78.312,450.386ZM423.2,770.525c-7.483-.859-14.009,1.027-14.512,4.367-0.518,3.426,5.758,7.41,13.579,8.4,8.006,1.02,14.432-1.2,14.643-4.835S431.114,771.433,423.2,770.525Zm152.85,0.114c-7.46,1.025-13.459,4.5-13.277,7.882,0.185,3.481,7.09,5.8,14.9,4.8,8.014-1.019,13.83-4.775,13.326-8.375S583.952,769.554,576.047,770.639Zm-23.853-532.88a7.743,7.743,0,0,0,5.723-7.935c-0.288-3.735-3.208-5.756-6.737-4.817a8,8,0,0,0-5.8,8.042A5.306,5.306,0,0,0,552.194,237.759Zm-104.313-.014c3.619,0.9,6.535-1.36,6.709-5.074a7.725,7.725,0,0,0-5.766-7.7,5.214,5.214,0,0,0-6.768,4.535A8.031,8.031,0,0,0,447.881,237.745ZM212.155,676.108c-6.809-2.666-13.388-2.407-14.695.61-1.346,3.1,3.515,8.11,10.677,10.917,7.279,2.857,13.715,2.395,14.7-1.007C223.783,683.374,219.15,678.849,212.155,676.108Zm575.618,0.083c-7.056,2.764-11.994,7.695-10.769,10.856,1.186,3.063,7.867,3.382,14.782.674,7.091-2.782,11.67-7.379,10.61-10.58C801.282,673.785,794.94,673.379,787.773,676.191ZM711.841,226.046c3.749-3.063,5.694-8.49,4.44-12.228s-5.135-4.16-8.731-1.018c-3.647,3.184-5.524,8.438-4.264,12.114C704.5,228.467,708.231,228.99,711.841,226.046Zm-423.836-.253c3.685,3.119,7.616,2.61,8.8-1.052s-0.774-8.984-4.395-12.1-7.4-2.63-8.632,1.232C282.593,217.6,284.39,222.734,288.005,225.793ZM924.38,510.731c-5.387,1.44-8.127,5.355-6.214,8.736,1.838,3.271,7.281,4.571,12.57,3.284,5.358-1.3,8.14-4.979,6.2-8.361C935.059,511.111,929.474,509.365,924.38,510.731ZM737.266,228.358c3.592-3.144,5.415-8.644,4.119-12.3-1.337-3.76-5.455-4.09-9.07-.8-3.694,3.367-5.428,8.72-3.968,12.431C729.75,231.258,733.591,231.574,737.266,228.358ZM262.814,228.3c3.593,3.129,7.609,2.815,8.981-.633,1.413-3.554-.452-9.2-4.068-12.5-3.693-3.362-7.577-3.006-8.984.9C257.4,219.812,259.132,225.094,262.814,228.3ZM75.755,510.725c-5.367-1.477-10.847.329-12.68,3.873-1.765,3.426.823,6.78,6.095,8.092,5.334,1.324,11.246-.116,12.905-3.437C83.688,516.041,80.828,512.12,75.755,510.725Zm88.258-236.244c3.909,2.825,8.5,2.2,10.2-1.416,1.757-3.723-.119-9.419-4.085-12.477-4.035-3.11-8.45-2.282-10.206,1.868C158.249,266.427,159.99,271.573,164.013,274.481ZM835.969,274.6c4.079-2.9,5.935-8.508,4.135-12.406-1.739-3.761-6.292-4.489-10.117-1.586-3.945,2.988-5.787,8.218-4.228,12.07C827.4,276.737,831.831,277.547,835.969,274.6Zm-148.2-52.043c3.45-2.793,5.361-7.994,4.3-11.549-1.1-3.66-4.919-4.191-8.39-1.273-3.545,2.983-5.361,7.986-4.156,11.64C680.671,224.872,684.231,225.423,687.768,222.557Zm-375.523-.148c3.428,2.808,7.206,2.279,8.351-1.078,1.17-3.438-.845-8.845-4.3-11.712-3.4-2.815-6.951-2.29-8.124,1.289S308.76,219.556,312.245,222.409Zm-209.6,124.156a8.243,8.243,0,0,0-10.808,4c-1.877,4-.071,8.3,4.186,10.025,4.324,1.745,9.6.076,11.253-3.762C108.9,353.064,106.789,348.355,102.646,346.565Zm794.588,0.119c-4.179,1.892-6.088,6.5-4.285,10.29,1.811,3.823,6.583,5.384,10.868,3.743,4.371-1.679,6.4-6.365,4.432-10.306A8.537,8.537,0,0,0,897.234,346.684ZM763.4,230.37c3.59-3.2,5.349-9.108,3.806-12.633-1.5-3.416-5.6-3.686-9.009-.636-3.56,3.184-5.38,8.831-3.978,12.468C755.633,233.226,759.771,233.608,763.4,230.37Zm-526.741-.081c3.585,3.179,7.915,2.805,9.252-.752,1.3-3.455-.432-9.018-3.767-12.249-3.475-3.364-7.669-3.185-9.222.452C231.362,221.4,233.03,227.071,236.661,230.289ZM916.508,386.583c-4.277,1.467-6.245,5.861-4.305,9.561,1.923,3.685,7.155,5.442,11.431,4.082,4.1-1.312,6-5.347,4.211-9.031A9.749,9.749,0,0,0,916.508,386.583ZM652.258,756.959c-7.192,1.772-12.538,5.773-11.841,9.041s7.375,4.492,14.662,2.592c6.985-1.819,12.31-6.037,11.682-9.091C666.112,756.352,659.317,755.229,652.258,756.959Zm-304.387,0c-7.147-1.809-13.742-.755-14.5,2.46-0.758,3.233,4.607,7.465,11.948,9.243,7.249,1.763,13.985.354,14.411-2.867C360.148,762.661,354.722,758.693,347.871,756.954ZM83.5,386.581a9.575,9.575,0,0,0-11.045,4.371c-2.021,3.849-.149,8,4.142,9.259,4.127,1.2,9.237-.537,11.179-4.031C89.741,392.646,87.7,388.032,83.5,386.581Zm31.956-66.175c3.961,2,8.65.67,10.348-3.064,1.693-3.718-.174-8.743-4.039-10.874a7.341,7.341,0,0,0-10.333,3.208A8.525,8.525,0,0,0,115.453,320.406ZM241.508,705.951c-6.5-2.4-12.909-2.059-14.017.808-1.145,2.955,3.881,7.853,10.663,10.275,6.727,2.4,12.871,1.85,13.736-1.188C252.752,712.825,248.021,708.36,241.508,705.951ZM884.789,320.358a8.331,8.331,0,0,0,3.635-10.805,7.249,7.249,0,0,0-10.4-2.873c-3.8,2.316-5.55,7.4-3.761,10.989S880.973,322.456,884.789,320.358ZM664.1,218.42c3.238-2.194,5.311-7.162,4.5-10.667-0.856-3.682-4.269-4.574-7.584-2.082-3.12,2.35-5.162,7.228-4.385,10.609S660.79,220.668,664.1,218.42ZM335.737,218.2c3.26,2.4,6.679,1.53,7.578-1.833s-0.965-8.124-4.105-10.638c-3.1-2.484-6.64-1.882-7.686,1.386C330.445,210.485,332.423,215.762,335.737,218.2ZM758.573,705.973c-6.447,2.342-11.4,6.907-10.664,9.916s6.957,3.626,13.672,1.3c6.6-2.29,11.578-6.9,10.839-9.949C771.644,704.041,765.393,703.5,758.573,705.973ZM586.788,224.856a8.508,8.508,0,0,0,4.64-8.751c-0.613-3.329-3.628-4.662-6.726-3.078a8.858,8.858,0,0,0-4.629,8.385C580.518,224.636,583.659,226.29,586.788,224.856Zm-173.6-.083c3.168,1.516,6.19-.068,6.679-3.394a8.511,8.511,0,0,0-4.768-8.519c-3.1-1.408-6.145.1-6.618,3.39A8.837,8.837,0,0,0,413.189,224.773Zm376.92,7.327c3.578-3.1,5.148-8.25,3.646-11.862-1.511-3.639-5.319-3.977-8.8-.81s-5.135,8.379-3.752,11.885C782.575,234.78,786.592,235.148,790.109,232.1ZM209.9,231.985c3.551,3.1,7.406,2.733,8.851-.806s-0.147-8.627-3.648-11.825c-3.44-3.142-7.415-2.847-8.88.7C204.753,223.614,206.368,228.906,209.9,231.985ZM936.1,426.574c-4.035.951-5.915,4.458-4.236,7.8,1.741,3.48,6.552,5.422,10.862,4.678,4.289-.739,6.13-4,4.236-7.641A10.042,10.042,0,0,0,936.1,426.574ZM58.672,487.66c-4.472-.792-9.273,1.3-11.036,4.515-1.823,3.346.4,6.361,5.1,7.1s9.745-.989,11.4-4.235C65.8,491.818,63.389,488.486,58.672,487.66Zm882.487,0.058c-4.638.875-6.99,4.317-5.231,7.5,1.7,3.091,6.59,4.778,11.131,4.118,4.776-.695,7.09-3.6,5.386-6.975S945.821,486.836,941.159,487.718ZM63.486,426.456a10.049,10.049,0,0,0-10.443,5c-1.866,3.651.014,6.878,4.334,7.592s9.111-1.274,10.812-4.751S67.812,427.284,63.486,426.456Zm436.637-200a5.577,5.577,0,0,0-.306-11.147A5.585,5.585,0,0,0,500.123,226.453Zm141.825-14.006c3.006-2.092,4.863-6.549,4.08-9.674-0.775-3.1-3.934-3.905-6.842-1.825-2.966,2.126-4.746,6.279-4.008,9.481C635.921,213.652,638.893,214.575,641.948,212.447Zm-283.8-.036c3.007,2.064,6.159,1.1,6.84-2.007s-1.225-7.451-4.136-9.534c-2.966-2.121-5.923-1.307-6.729,1.944S355.084,210.312,358.148,212.411Zm175.6,10.832a6.535,6.535,0,0,0,4.928-6.659,4.8,4.8,0,0,0-5.729-4.363,6.308,6.308,0,0,0-4.7,6.615A4.653,4.653,0,0,0,533.743,223.243Zm-67.538-.039a4.818,4.818,0,0,0,5.711-4.547,6.561,6.561,0,0,0-4.969-6.488,4.611,4.611,0,0,0-5.468,4.3A6.312,6.312,0,0,0,466.205,223.2Zm-4.858,569.385c-6.734-.568-12.7,1.409-13,4.468-0.283,2.955,4.759,5.865,11.435,6.439,6.721,0.581,12.965-1.713,13.185-4.694C473.18,795.969,467.765,793.133,461.347,792.589Zm77.192,0.016c-6.575.568-11.612,3.239-11.415,6.216,0.2,3.069,6.183,5.289,13.047,4.685,6.535-.564,11.9-3.637,11.568-6.46C551.383,794.081,545.132,792.043,538.539,792.605ZM865.553,279.134c3.3-2.38,4.649-7.224,2.973-10.59s-5.934-4.286-9.184-1.91c-3.3,2.411-4.787,7.25-3.238,10.606C857.714,280.726,862.152,281.586,865.553,279.134Zm-730.614.227c3.444,2.076,7.624,1.033,9.067-2.325,1.449-3.374-.171-8.311-3.461-10.588-3.348-2.318-7.464-1.309-9.086,2.165C129.771,272.222,131.388,277.221,134.939,279.361ZM727.351,735.742c-6.091,2.051-10.795,6.173-10,8.868s7,3.241,13.113,1.08c6.262-2.21,10.516-6.3,9.467-8.98C738.926,734.144,733.3,733.744,727.351,735.742Zm-454.871-.105c-6.127-2.027-12.066-1.492-12.736,1.232-0.645,2.616,3.808,6.657,9.74,8.745,6.2,2.189,12.176,1.622,12.952-1.152S278.647,737.681,272.48,735.637ZM903.048,594.3c-4.8,1.742-7.863,5.412-6.667,7.925,1.235,2.6,6.86,3.288,11.948,1.61,5.126-1.7,8.159-5.248,6.671-7.9S908.06,592.478,903.048,594.3Zm-806.017-.029c-4.893-1.833-10.6-1.056-12.142,1.5s1.52,6.2,6.572,7.944c5.09,1.752,10.594,1.118,11.962-1.527C104.739,599.648,101.878,596.08,97.031,594.276Zm783.3,26.939c-5.242,2.057-8.65,6.1-7.252,8.581,1.346,2.388,6.828,2.74,11.99.854,5.391-1.973,8.745-5.744,7.386-8.361S885.641,619.132,880.331,621.215Zm-760.687-.072c-5.214-2.053-10.941-1.535-12.277,1-1.283,2.434,1.835,6.115,6.911,8.2,5.253,2.154,11.009,1.894,12.435-.66C128.158,627.1,124.97,623.234,119.644,621.143Zm62.681-386.957c3.316,2.75,7.008,2.174,8.383-1.323,1.308-3.327-.132-8-3.3-10.763-3.078-2.685-6.848-2.295-8.3.866C177.6,226.229,179.107,231.519,182.325,234.186Zm635.486,0.006c3.163-2.715,4.507-7.444,3.09-10.807-1.5-3.563-5.145-4.021-8.4-1.073-3.051,2.762-4.522,7.673-3.24,10.88C810.567,236.47,814.607,236.94,817.811,234.192ZM924.2,569.057c-4.647,1.357-7.485,4.727-6.228,7.3,1.283,2.638,6.795,3.638,11.63,2.3,4.785-1.329,7.368-4.3,5.966-7C934.079,568.826,929.159,567.607,924.2,569.057Zm-848.467-.066c-4.657-1.343-9.756-.212-11.353,2.34-1.634,2.611,1.172,5.952,6.017,7.285,4.788,1.317,9.756.462,11.3-2.124C83.321,573.768,80.7,570.418,75.728,568.991ZM383.1,783.231c-6.416-1.254-11.915-.166-12.442,2.589-0.5,2.633,3.986,5.85,10.126,7.124,6.606,1.378,12.105.2,12.7-2.583S389.5,784.484,383.1,783.231Zm233.975,0c-6.171,1.163-10.794,4.03-10.709,6.788,0.084,2.833,5.434,4.3,11.916,3.133,6.6-1.184,11.353-4.359,10.958-7.174S623.53,782.019,617.071,783.231ZM856.286,649.513c-5.635,2.166-9.251,5.914-8.2,8.494,1,2.467,6.122,2.752,11.49.689,5.748-2.209,9.25-5.83,8.1-8.4C866.574,647.834,861.611,647.467,856.286,649.513Zm-712.618-.08c-5.3-2.039-10.336-1.665-11.41.788-1.118,2.559,2.433,6.222,8.152,8.408,5.4,2.07,10.415,1.774,11.442-.717C152.916,655.331,149.329,651.612,143.668,649.433ZM432.888,213.26a3.826,3.826,0,0,0,5.35-3.273,6.88,6.88,0,0,0-4.344-6.892c-2.624-.929-4.829.48-5.156,3.373A6.592,6.592,0,0,0,432.888,213.26Zm134.4-.009a6.866,6.866,0,0,0,4.1-6.891,3.812,3.812,0,0,0-5.584-3.088,6.613,6.613,0,0,0-3.888,6.831A3.714,3.714,0,0,0,567.286,213.251ZM956.46,466.241c-3.829.306-5.642,3.061-4.111,6.089,1.536,3.054,5.7,5.069,9.563,4.889,3.757-.175,5.643-2.7,4.163-5.732C964.605,468.483,960.153,465.94,956.46,466.241ZM943.587,545.8c-4.4.863-6.748,3.794-5.274,6.456,1.478,2.679,6.105,3.911,10.535,3.037,4.1-.816,6.435-3.444,5.188-5.98C952.752,546.709,947.846,544.957,943.587,545.8Zm-564.12-340.56c2.62,1.678,5.383.668,5.905-2.091s-1.268-6.543-3.829-8.163c-2.537-1.6-4.962-.772-5.624,1.988A8.194,8.194,0,0,0,379.467,205.242Zm240.9,0.2a8.735,8.735,0,0,0,3.931-8.224c-0.518-2.8-3.259-3.781-5.815-2.151a8.351,8.351,0,0,0-3.68,8.124C615.364,205.983,617.753,206.978,620.362,205.444ZM43.343,466.217a10.262,10.262,0,0,0-9.2,5.205c-1.616,3.216.105,5.622,4.005,5.782,3.772,0.148,8.336-2.082,9.692-4.978C49.2,469.307,47.092,466.413,43.343,466.217ZM56.3,545.751c-4.415-.824-8.833.849-10.209,3.643-1.3,2.644.92,5.1,5.2,5.9,4.308,0.8,9.3-.565,10.6-3.1S60.575,546.542,56.3,545.751ZM929.631,360.694a5.282,5.282,0,0,0-3.483,7.6,8.291,8.291,0,0,0,8.605,4.458c3.364-.608,5.012-4.023,3.516-7.362C936.848,362.224,932.85,359.972,929.631,360.694Zm-859.17-.017c-3.243-.767-7.073,1.381-8.582,4.657s-0.2,6.478,2.99,7.3a8.55,8.55,0,0,0,9.087-4.29A5.432,5.432,0,0,0,70.461,360.677Zm844.587-30.7a6.026,6.026,0,0,0,2.8-8.284c-1.564-3.234-5.562-4.933-8.564-3.533a6.358,6.358,0,0,0-2.835,8.447A7.046,7.046,0,0,0,915.048,329.981ZM85.1,329.955a7.021,7.021,0,0,0,8.513-3.527,6.311,6.311,0,0,0-3.007-8.353c-3.05-1.31-6.984.468-8.468,3.7A5.979,5.979,0,0,0,85.1,329.955Zm744.162,349.2c-5.1,2.065-8.766,5.962-7.681,8.2,1.041,2.134,6.243,2.243,11.195.256,5.272-2.122,8.65-5.795,7.476-8.114C839.134,677.276,834.292,677.118,829.266,679.154ZM170.486,679c-5.192-2.031-10.406-1.711-11.109.666-0.676,2.282,3.028,5.989,7.909,7.914,5.344,2.106,10.248,1.785,11.009-.724C179.012,684.486,175.5,680.959,170.486,679ZM50.378,403.622c-3.24-.419-7.074,1.921-8.56,5.022-1.475,3.085-.038,5.748,3.2,6.021a9.071,9.071,0,0,0,8.518-4.772C55.049,406.822,53.671,404.042,50.378,403.622Zm899.316,0.012a4.149,4.149,0,0,0-3.376,6.234,9.506,9.506,0,0,0,8.6,4.817c3.329-.241,4.687-2.736,3.191-5.958S953,403.232,949.694,403.634ZM153.876,236.917c2.883,2.5,6.2,2.167,7.629-.793,1.367-2.833.361-6.86-2.3-9.289-2.818-2.575-6.168-2.224-7.634.78C150.177,230.477,151.185,234.578,153.876,236.917ZM846.05,237.11a8.2,8.2,0,0,0,2.43-9.251c-1.341-2.943-4.477-3.519-7.228-1.293-2.9,2.346-4.17,6.626-2.827,9.579S843.177,239.525,846.05,237.11ZM39.212,524.888c-3.713-.46-7.6,1.251-9.143,3.8-1.636,2.72.1,4.857,4.056,5.156,3.729,0.282,7.757-1.243,9.142-3.674S42.836,525.336,39.212,524.888Zm922.052-.031c-3.795.3-5.778,2.529-4.606,5.026,1.238,2.652,5.282,4.283,9.229,3.976,3.733-.294,5.589-2.323,4.3-4.856S964.966,524.563,961.264,524.857ZM277.474,188.983c2.487,2.42,5.193,2.278,6.173-.3,1.025-2.689-.24-6.841-2.82-9.355-2.46-2.392-5.071-2.177-6.039.551S274.957,186.527,277.474,188.983Zm445.073,0.124c2.616-2.533,3.794-6.769,2.659-9.432-1.082-2.547-3.773-2.534-6.2-.025s-3.546,6.4-2.575,9.043S720.034,191.546,722.547,189.107ZM305.706,765.048c-5.461-1.642-10.1-1.21-10.841,1.084-0.745,2.311,2.8,5.4,8.273,7.118,5.707,1.8,10.8,1.218,11.318-1.2C314.949,769.73,311.063,766.666,305.706,765.048ZM747.453,190.559c2.478-2.5,3.629-6.683,2.6-9.362s-3.844-2.838-6.3-.4c-2.516,2.507-3.707,6.455-2.761,9.238C741.992,192.981,744.806,193.228,747.453,190.559Zm-494.857-.1c2.489,2.516,5.328,2.456,6.41-.1s0.008-6.7-2.375-9.31c-2.454-2.685-5.188-2.791-6.406-.2C248.935,183.588,249.958,187.792,252.6,190.457Zm441.82,574.6c-5.714,1.68-9.531,4.792-8.734,7.222,0.755,2.3,5.455,2.794,11.013,1.069,5.4-1.676,9.185-4.872,8.527-7.13S699.791,763.478,694.416,765.057Zm4.178-578.086c2.4-2.211,3.684-6.312,2.808-8.867s-3.618-2.733-5.929-.453c-2.36,2.326-3.482,6.139-2.545,8.738C693.817,188.852,696.264,189.12,698.594,186.971Zm195.833,99.7a6.422,6.422,0,0,0,3.022-8.13,5.358,5.358,0,0,0-7.526-2.878,6.5,6.5,0,0,0-2.713,8.3A5.252,5.252,0,0,0,894.427,286.672Zm-789.116-.223a5.465,5.465,0,0,0,7.643-2.493,6.806,6.806,0,0,0-2.819-8.346c-2.862-1.6-6.09-.279-7.429,2.948A6.165,6.165,0,0,0,105.311,286.449Zm196.156-99.562c2.374,2.18,5.111,1.788,5.847-.791,0.746-2.619-.63-6.64-2.976-8.767-2.275-2.063-4.689-1.744-5.563.783C297.856,180.763,299.038,184.664,301.467,186.887Zm471.673,4.8c2.319-2.382,3.351-6.789,2.2-9.287s-4.231-2.476-6.424.031c-2.151,2.456-3.129,6.5-2.143,8.921C767.808,193.9,770.819,194.07,773.14,191.683ZM516.36,206.832A4.631,4.631,0,0,0,520.069,202a3.846,3.846,0,0,0-4.2-3.7,4.611,4.611,0,0,0-3.583,4.57A3.9,3.9,0,0,0,516.36,206.832Zm-32.605,0a3.926,3.926,0,0,0,4-4.039,4.566,4.566,0,0,0-3.928-4.527,3.879,3.879,0,0,0-3.86,3.809A4.6,4.6,0,0,0,483.755,206.827Zm-256.87-15.274c2.294,2.379,5.35,2.218,6.382-.313s-0.143-6.95-2.442-9.249c-2.234-2.226-5.02-2.112-6.127.281C223.533,184.8,224.542,189.122,226.885,191.553Zm373.452,5.056a6.636,6.636,0,0,0,2.837-6.481c-0.481-2.294-2.5-3.1-4.559-1.87a6.919,6.919,0,0,0-3.088,6.358C595.9,196.947,598.222,197.936,600.337,196.609ZM199.283,709.526c-4.486-1.813-9.118-1.772-10.05.1-0.969,1.945,2.521,5.479,7.258,7.32,4.585,1.782,8.956,1.579,9.695-.443S203.851,711.374,199.283,709.526Zm601.387,0.081c-4.74,1.908-8.1,5.378-7.022,7.29,1.026,1.836,5.839,1.81,10.279-.063,4.55-1.915,7.475-5.051,6.582-7.01S805.252,707.761,800.67,709.607ZM399.858,196.638a2.871,2.871,0,0,0,4.552-2.015,6.616,6.616,0,0,0-2.889-6.379c-2.1-1.325-4.373-.416-4.771,1.952A6.929,6.929,0,0,0,399.858,196.638Zm275.748-13.111c2.227-2,3.277-5.339,2.464-7.744-0.77-2.281-2.821-2.55-4.922-.684-2.148,1.908-3.4,5.4-2.748,7.715S673.449,185.472,675.606,183.527ZM324.512,183.5c2.237,1.977,4.408,1.556,5.073-.933s-0.506-5.674-2.763-7.618c-2.03-1.752-4.26-1.435-4.957.739C321.134,177.971,322.347,181.6,324.512,183.5ZM499.487,812.9c-4.849.092-8.876,1.79-8.926,3.856-0.054,2.164,4.335,4.074,9.523,4.047,5.365-.022,9.228-1.84,9.043-4.157S504.878,812.8,499.487,812.9ZM970.363,446.68c-2.855-.125-4.2,1.834-3.063,4.345a9.554,9.554,0,0,0,7.223,4.891c3.159,0.316,4.45-1.4,3.084-4.249A9.074,9.074,0,0,0,970.363,446.68Zm-940.408,0c-2.919-.018-6.31,2.345-7.582,5.081-1.213,2.621.022,4.384,2.845,4.183a9.429,9.429,0,0,0,7.337-4.658C33.874,448.745,32.736,446.692,29.955,446.679ZM451.068,199.87a3,3,0,0,0,4.105-2.542,4.905,4.905,0,0,0-3.077-4.994c-1.985-.66-3.671.474-3.908,2.683A4.645,4.645,0,0,0,451.068,199.87Zm525.8,306.242c-2.918-.089-4.317,1.581-3.281,3.81,1.11,2.4,4.29,4.233,7.415,4.478,3.038,0.233,4.619-1.375,3.483-3.695S979.829,506.193,976.863,506.112ZM548.6,200.016a4.848,4.848,0,0,0,3.379-4.842,3.007,3.007,0,0,0-3.855-2.859,4.607,4.607,0,0,0-3.161,4.858C545.144,199.271,546.676,200.49,548.6,200.016ZM420.469,807.958c-4.729-.716-8.735.155-9.4,2.107-0.729,2.127,2.429,4.414,7.356,5.236,4.852,0.809,9.4-.266,9.986-2.289C428.982,811.025,425.235,808.683,420.469,807.958Zm159.765-.075c-4.989.576-8.684,2.618-8.544,4.809,0.133,2.081,3.7,3.3,8.437,2.816,4.911-.5,9.032-2.741,9.064-4.841C589.221,808.6,585.032,807.327,580.234,807.883ZM23.071,506.118a9.212,9.212,0,0,0-7.253,4.337c-1.378,2.5-.156,4.106,2.914,3.961,2.954-.144,6.56-2.052,7.729-4.262S26.031,505.992,23.071,506.118Zm776.452-313.55c2.017-2.092,2.941-6.018,1.953-8.233-1.045-2.344-4.016-2.356-6.042-.037s-2.747,5.85-1.644,8.124S797.422,194.752,799.522,192.568Zm-599.046-.158c2.113,2.237,5.056,2.109,6-.257,0.9-2.249-.1-6.151-2.1-8.213-2.084-2.151-4.594-2.011-5.674.336C197.612,186.642,198.379,190.186,200.476,192.41Zm673.8,50.039a5.98,5.98,0,0,0,2.034-7.112c-1.08-2.567-3.57-3.381-5.76-1.85a6.612,6.612,0,0,0-2.148,7.235A3.954,3.954,0,0,0,874.279,242.449Zm-748.659-.243a3.688,3.688,0,0,0,5.809-1.509,5.954,5.954,0,0,0-1.854-7.13,3.812,3.812,0,0,0-5.886,1.449A6.334,6.334,0,0,0,125.62,242.206ZM653.349,179.25a6.717,6.717,0,0,0,2.408-6.392c-0.522-2.183-2.269-2.662-4.119-1.171a7.421,7.421,0,0,0-2.5,6.413C649.555,180.083,651.552,180.643,653.349,179.25ZM346.4,178.915c1.829,1.664,3.705,1.36,4.329-.661a6.639,6.639,0,0,0-2.046-6.418c-1.723-1.581-3.767-1.351-4.4.528C343.659,174.212,344.658,177.329,346.4,178.915ZM229.629,740.334c-3.853-1.452-7.078-1.412-7.869.114-0.853,1.639,1.489,4.021,5.6,5.647,4,1.582,7.753,1.52,8.37-.1S233.585,741.82,229.629,740.334Zm540.588,0.115c-3.839,1.471-6.281,3.666-5.92,5.36,0.388,1.827,3.684,2.056,7.834.536,4.029-1.477,6.847-4.034,6.288-5.677S774.172,738.937,770.217,740.449ZM944.845,344.043c2.011-.325,2.948-2.45,2.053-4.721-0.941-2.385-3.753-4.194-5.833-3.674-1.989.489-2.771,2.735-1.742,4.989A5.6,5.6,0,0,0,944.845,344.043ZM58.936,335.612c-2-.476-4.458,1.064-5.55,3.4-1.1,2.359-.434,4.493,1.558,4.967,2.067,0.485,4.916-1.116,5.915-3.412C61.79,338.424,60.878,336.066,58.936,335.612ZM659.347,793.587c-3.82.966-6.7,3.083-6.408,4.754s3.632,2.318,7.541,1.391c3.83-.908,7-3.13,6.891-4.789C667.259,793.212,663.346,792.575,659.347,793.587Zm-319.153-.148c-3.853-.879-7.149-0.271-7.421,1.41s2.61,3.825,6.515,4.79c4.077,1.007,7.922.261,7.917-1.5C347.2,796.468,343.93,794.3,340.194,793.439ZM961.914,381.83c-1.814-.018-2.812,1.827-2.086,3.819a7.414,7.414,0,0,0,5.418,4.387c2.013,0.207,3.074-1.629,2.189-3.839S963.9,381.845,961.914,381.83ZM56.766,602.779c-2.76-.713-6.1.09-6.943,1.6s0.994,3.427,3.827,4.04c2.865,0.619,6.148-.148,6.813-1.663C61.084,605.341,59.336,603.438,56.766,602.779ZM826.512,194.233c1.694-1.705,2.351-5.028,1.381-6.921s-3.4-1.984-4.992-.17c-1.637,1.875-2.19,5.126-1.158,6.909C822.694,195.693,824.974,195.781,826.512,194.233ZM38.067,381.836c-1.876.044-4.322,1.937-5.307,4.025-1.059,2.241-.254,4.2,1.711,4.19,1.931-.008,4.695-1.968,5.627-4.076C41.041,383.842,40.042,381.785,38.067,381.836ZM943.1,602.858c-2.592.712-4.232,2.588-3.532,4,0.751,1.517,4.033,2.235,6.878,1.573,2.8-.649,4.614-2.619,3.724-4.084C949.267,602.856,945.829,602.107,943.1,602.858Zm-21.708,24.3c-2.975.964-4.867,3.22-3.9,4.632,0.9,1.312,4.191,1.653,6.971.769,2.975-.95,4.842-3.124,3.864-4.543C927.409,626.686,924.131,626.265,921.387,627.154Zm-747.893-433.1c1.684,1.743,4.12,1.511,4.982-.482,0.8-1.851.115-4.987-1.45-6.658-1.657-1.772-4.084-1.524-4.968.5A6.819,6.819,0,0,0,173.494,194.058ZM78.714,627.133c-2.915-1-6.42-.491-7.2.992-0.727,1.383,1.05,3.371,3.83,4.313,2.95,1,6.478.587,7.237-.892C83.289,630.169,81.467,628.073,78.714,627.133ZM419.108,186.225a2.039,2.039,0,0,0,3.187-1.487,4.4,4.4,0,0,0-2.041-4.373,2.135,2.135,0,0,0-3.237,1.414A4.686,4.686,0,0,0,419.108,186.225Zm161.806,0.083a4.466,4.466,0,0,0,2.035-4.431,2.008,2.008,0,0,0-3.178-1.429,4.574,4.574,0,0,0-2.1,4.378A2.175,2.175,0,0,0,580.914,186.308ZM75.743,297.376c1.808,0.82,4.1-.2,5.112-2.327,1.023-2.149.344-4.46-1.531-5.224-1.815-.739-4.225.518-5.094,2.61C73.419,294.39,74.108,296.633,75.743,297.376ZM36.669,581.054c-2.577-.37-5.645.719-6.418,2.194-0.71,1.354.7,2.862,3.008,3.261,2.58,0.447,5.552-.4,6.5-1.918C40.721,583.052,39.327,581.435,36.669,581.054ZM924.142,297.545c1.7-.661,2.419-2.8,1.617-4.866-0.877-2.26-3.109-3.586-4.979-2.9-1.8.664-2.681,3.214-1.809,5.221S922.372,298.224,924.142,297.545ZM963.192,581.1c-2.589.417-4.07,2.153-3.112,3.584,0.938,1.4,4.218,2.274,6.649,1.853,2.406-.423,3.63-1.833,2.82-3.289C968.672,581.675,965.823,580.676,963.192,581.1ZM8.7,490.019a8.368,8.368,0,0,0-5.3,4.106c-0.868,1.841.09,2.812,2.214,2.329a8.106,8.106,0,0,0,5.258-3.944C11.774,490.666,10.858,489.58,8.7,490.019Zm982.5-.044c-2.074-.362-3,0.831-2.079,2.607a8.556,8.556,0,0,0,5.388,3.872c2.135,0.445,2.946-.545,1.973-2.484A7.865,7.865,0,0,0,991.207,489.975ZM102.3,653.871c-2.966-1.117-5.842-.954-6.574.334s1.009,3.139,4,4.255c3.02,1.132,5.8,1.012,6.523-.309S105.285,654.989,102.3,653.871Zm795.485,0.023c-2.977,1.1-4.8,3-4.141,4.3s3.518,1.46,6.52.36c3.034-1.108,4.742-2.889,4.046-4.222S900.782,652.789,897.786,653.894ZM367.535,172.911c1.416,1.245,2.887,1,3.307-.539a5.046,5.046,0,0,0-1.833-4.786c-1.337-1.045-2.575-.736-2.992.762A4.714,4.714,0,0,0,367.535,172.911Zm264.923,0.125a5.043,5.043,0,0,0,1.7-4.569c-0.374-1.571-1.845-1.874-3.235-.705a4.843,4.843,0,0,0-1.657,4.51C629.638,173.922,631.011,174.262,632.458,173.036ZM982.617,428.542c-1.7-.209-2.3,1.117-1.391,3.015a7.4,7.4,0,0,0,4.68,3.881c1.849,0.374,2.58-1.052,1.538-3.039C986.47,430.543,984.249,428.731,982.617,428.542Zm-1.151,133.591c-1.934.027-3.085,1.156-2.534,2.44,0.611,1.418,2.965,2.605,5.173,2.689,2.062,0.073,3.454-1.127,2.78-2.457C986.226,563.5,983.461,562.1,981.466,562.133Zm-963.263,0c-2.19.1-4.518,1.458-5.082,2.879-0.516,1.3.673,2.284,2.638,2.254,2.06-.046,4.772-1.327,5.366-2.618C21.73,563.333,20.248,562.034,18.2,562.137Zm-0.931-133.5c-1.643.248-3.832,2.2-4.655,4.081-0.76,1.728-.177,2.914,1.323,2.72a8.137,8.137,0,0,0,4.83-3.808C19.615,429.96,18.843,428.4,17.272,428.64ZM499.908,188.354a2.5,2.5,0,0,0,2.331-2.274,2.613,2.613,0,0,0-2.1-2.793,2.445,2.445,0,0,0-2.311,2.249A2.518,2.518,0,0,0,499.908,188.354ZM871.669,682.562c-2.245.986-3.909,2.788-3.431,3.724,0.52,1.022,3.587.983,6-.057s3.765-2.582,3.209-3.653C876.838,681.4,874.364,681.382,871.669,682.562ZM128.111,682.4c-2.49-1.034-5.4-.982-5.842.087-0.408.989,1.292,2.747,3.581,3.705,2.688,1.126,5.156,1.073,5.674-.144C132,684.934,130.59,683.425,128.111,682.4ZM531.273,184.726a2.3,2.3,0,0,0,1.949-2.432,1.687,1.687,0,0,0-1.977-1.86,2.472,2.472,0,0,0-1.981,2.425A1.758,1.758,0,0,0,531.273,184.726Zm371.613,65.62a3.088,3.088,0,0,0,1.381-4.1c-0.664-1.72-2.143-2.407-3.587-1.645a3.417,3.417,0,0,0-1.424,4.174A2.612,2.612,0,0,0,902.886,250.346Zm-805.876-.14a2.492,2.492,0,0,0,3.666-1.353,3.3,3.3,0,0,0-1.185-4.232,2.577,2.577,0,0,0-3.713,1.348A3.384,3.384,0,0,0,97.01,250.206Zm756.771-52.973a4.2,4.2,0,0,0,1.239-4.752c-0.692-1.571-2.185-1.8-3.541-.518-1.322,1.247-1.833,3.431-1.007,4.787C851.279,198.073,852.392,198.405,853.781,197.233Zm-707.618-.181c1.373,1.216,2.869.951,3.517-.627a4.245,4.245,0,0,0-1.322-4.742,2,2,0,0,0-3.3.561A4.287,4.287,0,0,0,146.163,197.052Zm322.393-12.394a1.638,1.638,0,0,0,2.19-1.567,2.369,2.369,0,0,0-1.707-2.628,1.736,1.736,0,0,0-2.22,1.546A2.485,2.485,0,0,0,468.556,184.658ZM261.673,771.052c-2.515-.8-4.725-0.656-5.081.321-0.4,1.087,1.56,2.758,4.381,3.713,2.879,0.976,5.176.8,5.376-.4S264.6,771.979,261.673,771.052Zm475.926,0.3c-2.781,1.015-4.636,2.677-3.916,3.669,0.708,0.967,2.429,1.127,5.289.134,2.9-1.006,4.715-2.559,4.3-3.687C742.864,770.357,740.445,770.312,737.6,771.353Zm-278.953,59.57c-2.7-.118-4.737.616-4.806,1.741-0.071,1.144,1.822,2.119,4.621,2.365,3.1,0.269,5.486-.477,5.522-1.7S461.621,831.053,458.646,830.923ZM376.917,820.3c-2.684-.455-4.788.01-4.965,1.113s1.616,2.32,4.386,2.912c3.071,0.659,5.521.218,5.674-.982S379.875,820.8,376.917,820.3Zm164.161,10.643c-2.986.145-5.216,1.22-5.081,2.466,0.127,1.156,2.11,1.836,4.953,1.665,3.1-.189,5.334-1.279,5.14-2.48C545.91,831.491,543.807,830.809,541.078,830.946Zm81.694-10.56c-2.967.522-5.088,1.857-4.833,3.073,0.237,1.127,2.281,1.542,5.1,1.017,3.078-.578,5.2-1.933,4.892-3.091C627.648,820.32,625.481,819.908,622.772,820.386Z" transform="translate(-3.094 -166.969)"/>
</svg>
