<svg xmlns="http://www.w3.org/2000/svg" width="998" height="924.031" viewBox="0 0 998 924.031">
  <defs>
    <style>
      .cls-1 {
        fill: #a6b4bf;
        fill-rule: evenodd;
      }
    </style>
  </defs>
  <path class="cls-1" d="M429.319,577.9c9.831-4.25,16.615-12.572,15.345-18.385-1.258-5.781-10.178-6.159-19.761-1.335-9.6,4.841-16.357,12.589-15.076,17.763C411.088,581.019,419.688,582.079,429.319,577.9Zm18.1-46.976c-9.665,5.508-16.487,13.756-15.238,18.949,1.227,5.091,9.868,5.681,19.579.853,9.9-4.9,16.741-13.8,15.5-19.658C466.025,525.263,457.049,525.444,447.42,530.923Zm6.269,29.61c-9.738,4.756-16.494,12.979-15.093,18.812,1.376,5.723,10.189,7.383,19.966,3.35,9.982-4.1,16.778-12.835,15.376-19.362C472.547,556.854,463.4,555.8,453.689,560.533Zm-72.014,13.819c1.061,4.5,9.461,5.084,18.933.853,9.72-4.327,16.571-12.234,15.445-17.355-1.1-5-9.6-4.861-18.958-.184C387.651,562.4,380.606,569.8,381.675,574.352Zm6.141,25.84c1.254,5.054,9.838,6.564,19.381,3.007,9.594-3.563,16.328-11.2,15.213-16.889-1.133-5.789-9.935-6.807-19.48-2.692C393.436,587.72,386.548,595.085,387.816,600.192ZM496.6,533.48c-1.279-6.6-10.523-7.212-20.262-1.847-9.626,5.309-16.536,14.042-15.36,19.873,1.21,5.982,10.183,7.288,20.227,2.477C491.037,549.287,497.866,540,496.6,533.48Zm-59.782,75.641c9.571-3.478,16.153-11.622,14.705-17.853-1.435-6.185-10.423-7.707-19.9-3.77-9.609,4-16.48,11.8-15.083,17.487C417.95,610.7,426.961,612.715,436.816,609.121Zm-13.46-59.732c9.527-4.923,16.316-13.336,15.223-18.338-1.088-4.97-9.752-4.2-19.13,1.155-9.542,5.458-16.572,13.328-15.4,17.794C405.205,554.4,413.772,554.358,423.356,549.389ZM490.085,501c-1.055-5.866-10.145-5.162-19.76.951-9.537,6.071-16.5,14.805-15.422,19.9,1.087,5.108,9.82,5.264,19.511-.166C484.126,516.262,491.13,506.792,490.085,501ZM378.666,599.026c9.393-3.628,16.149-10.925,15.14-15.957-1.019-5.1-9.8-5.462-19.157-1.253-9.211,4.15-15.946,10.91-14.871,15.353C360.856,601.628,369.328,602.646,378.666,599.026ZM503.9,569.6c-1.441-7.172-11.046-9-20.793-4.388-9.721,4.6-16.457,13.207-14.993,19.54,1.475,6.362,10.617,8.7,20.491,4.87C498.473,585.81,505.33,576.689,503.9,569.6Zm2.413-35.007c-9.752,4.945-16.914,14.256-15.737,20.84,1.171,6.556,10.372,8.713,20.276,4.37,9.981-4.365,17.063-14.128,15.787-21.421C525.372,531.131,516.169,529.609,506.315,534.6Zm-6.6-33.934c-9.629,5.715-16.915,15.14-15.965,21.123,0.944,5.939,9.922,6.966,19.711,1.8,9.895-5.206,17.053-15.168,16-21.827C518.41,495.132,509.5,494.863,499.716,500.663ZM372.5,574.35c9.333-4.2,16.3-11.65,15.485-16.085s-9.219-3.749-18.518.967c-9.245,4.7-16.169,11.439-15.241,15.328C355.13,578.354,363.4,578.463,372.5,574.35Zm13.16,52.167c9.365-2.989,16.038-10.344,14.606-15.755-1.417-5.367-10.012-6.627-19.217-3.206-9.331,3.477-16.041,10.176-14.8,15.134C367.483,627.63,376.258,629.528,385.655,626.517Zm95.7-27.777c-1.567-6.751-10.588-8.929-20.159-5.226-9.684,3.755-16.583,11.816-15.214,18.088,1.368,6.243,10.592,9.031,20.359,5.816S482.939,605.567,481.352,598.74Zm-38.993-93.622c-9.482,6.039-16.562,14.235-15.577,18.627,0.964,4.3,9.434,3.876,18.785-1.458,9.575-5.441,16.7-14.484,15.8-19.505S451.842,499.088,442.359,505.118ZM410.477,533.24c-0.793-4.369-9.161-3.083-18.539,2.281s-16.3,12.437-15.379,16.259c0.889,3.713,9.17,3.294,18.312-1.415C404.205,545.577,411.267,537.593,410.477,533.24Zm-15.558,95.586c1.48,5.456,10.49,7.837,19.969,4.925,9.271-2.838,15.833-10.371,14.473-16.325-1.391-6.114-10.333-8-19.831-4.554S393.439,623.361,394.919,628.826Zm154.552-124.02c-1.373-7.372-10.643-8.165-20.606-2.268-9.778,5.793-16.593,15.32-15.343,21.892,1.263,6.593,10.652,8.19,20.576,3.05C543.836,522.45,550.81,511.986,549.471,504.806ZM332.417,595.813c0.954,3.88,9.472,4.384,18.628.666,8.989-3.637,15.612-10.527,14.645-14.807-0.992-4.389-9.394-4.132-18.648.078C337.956,585.891,331.465,591.934,332.417,595.813Zm5.905,22.471c1.007,4.4,9.647,5.848,18.855,2.774,9.043-3.009,15.621-9.767,14.583-14.633-1.055-4.958-9.609-5.73-18.888-2.127C343.746,607.846,337.317,613.863,338.322,618.284Zm100.526,1.9c-9.53,3.246-15.941,10.393-14.491,16.434,1.437,5.971,10.395,9.033,19.88,6.5,9.612-2.553,16.411-10.626,14.72-17.208C457.258,619.3,448.409,616.934,438.848,620.185Zm118.421-74.434c-1.5-7.893-10.7-10.076-20.6-5.285-9.981,4.833-16.754,13.993-15.5,21.3,1.25,7.263,10.792,10.187,20.807,6.021C551.811,563.705,558.752,553.572,557.269,545.751ZM414.7,510.465c-9.312,5.965-16.084,13.2-15.289,16.926,0.786,3.669,9.034,2.715,18.261-2.652,9.336-5.409,16.465-14.02,15.465-18.1C432.138,502.545,424.032,504.5,414.7,510.465Zm119.7,67.82c-1.624-7.673-10.786-10.154-20.641-5.96-9.876,4.209-16.542,12.817-15.158,19.889s10.932,10.264,20.849,6.656C529.215,595.326,536.007,585.847,534.4,578.285Zm7.814-110.564c-1.311-6.458-10.037-5.911-19.712.657-9.7,6.591-16.525,16.024-15.489,21.948s10.178,6.276,19.946.265C536.576,484.686,543.5,474.073,542.215,467.721Zm-48.639,3.615c-9.547,6.668-16.37,15.531-15.432,20.65,0.924,5.032,9.537,4.745,19.048-1.158,9.628-5.953,16.822-16.283,15.621-21.872S503.125,464.68,493.576,471.336Zm-27.917,5.08c-9.507,6.684-16.367,14.884-15.612,19.311,0.744,4.355,9.055,3.471,18.491-2.522,9.338-5.912,16.411-15.372,15.594-20.286C483.314,467.967,475.071,469.808,465.659,476.416Zm25.568,125.589c-9.816,3.613-16.329,11.636-14.789,18.5,1.525,6.783,10.75,10.211,20.477,7.314,9.712-2.881,16.444-11.641,14.84-19.064C510.133,601.247,501.029,598.4,491.227,602.005ZM329.355,617.227c8.81-3.029,15.179-9.224,14.248-13.494-0.952-4.39-8.968-4.735-18.019-1.212-9.125,3.56-15.442,9.077-14.4,12.986C312.221,619.371,320.382,620.323,329.355,617.227Zm15.923,26.084c1.193,4.861,9.625,7.118,18.813,4.7,9.034-2.366,15.34-8.764,14.1-14.031-1.269-5.421-9.609-7.1-18.852-4.151C350.267,632.729,344.1,638.5,345.278,643.311Zm207.3-175.5c-9.978,6.416-16.872,16.378-15.685,23.157,1.186,6.739,10.189,7.951,20.086,2.222,9.726-5.615,16.554-16.4,15.266-23.694C570.946,462.127,562.246,461.605,552.578,467.81Zm7.245,38.676c-10.108,5.513-16.925,15.355-15.516,22.8,1.4,7.388,10.718,9.791,20.7,4.932,9.869-4.794,16.6-15.3,15.106-23.267C578.613,502.921,569.651,501.136,559.823,506.486ZM327.606,576.16c0.857,3.233,8.632,2.914,17.607-1.189,9.029-4.109,15.759-10.966,14.859-14.647-0.888-3.65-8.652-2.541-17.613,1.988C333.262,566.97,326.724,572.838,327.606,576.16Zm22.264-21.066c0.767,3.214,8.86,2.324,17.966-2.514,8.994-4.761,15.564-11.84,14.787-15.386-0.8-3.653-8.719-1.893-17.955,3.386C355.63,545.757,349.114,551.9,349.87,555.094ZM393.025,656.4c9.182-2.228,15.51-8.926,14.167-14.741-1.35-5.872-9.7-8.168-18.867-5.5-9.455,2.755-15.844,8.932-14.548,14.35C375.068,655.9,383.694,658.673,393.025,656.4Zm-69.342-60.835c8.838-3.636,15.117-9.79,14.193-13.464-0.926-3.7-8.664-3.134-17.5.8-9.069,4.048-15.509,9.544-14.582,12.91C306.725,599.159,314.75,599.254,323.683,595.567Zm12,45.815c9.053-2.457,15.357-8.615,14.057-13.395-1.278-4.7-9.347-5.818-18.252-2.906-9.082,2.979-15.273,8.483-14.019,12.82C318.691,642.123,326.759,643.816,335.681,641.382ZM455.937,478.951c-0.782-4.041-8.657-1.631-17.805,4.8-9.36,6.594-16.193,14.2-15.371,17.807,0.8,3.5,8.827,1.945,18.042-4.093C450.034,491.436,456.722,482.975,455.937,478.951Zm-1.2,167.822c1.677,6.476,10.749,9.951,20.3,7.5,9.619-2.462,15.843-10.2,14.151-17.385-1.681-7.144-10.636-10.248-20.167-7.287C459.341,632.615,453.014,640.1,454.74,646.773ZM372.7,532.654c0.679,3.06,8.421,1.689,17.578-3.677,9.148-5.345,15.833-12.786,15.117-16.23s-8.493-1.17-17.546,4.539C378.783,523.015,372.022,529.6,372.7,532.654Zm50.083,133.84c9.431-2.13,15.541-9,13.906-15.406-1.614-6.332-10.416-9.045-19.7-6.377-9.26,2.665-15.386,9.185-13.856,15C404.65,665.5,413.361,668.628,422.778,666.494Zm121.921-84.4c-9.781,3.918-16.264,12.873-14.606,20.436s10.844,11.186,20.84,7.924c9.982-3.245,16.435-12.5,14.664-20.814C563.853,581.419,554.479,578.179,544.7,582.093ZM516.766,438.967c-9.3,7.183-16.06,16.481-15.111,21.423,0.957,4.963,9.209,4.076,18.735-2.6s16.176-16.743,15.09-22.292C534.4,429.965,526.062,431.8,516.766,438.967ZM290.228,633.72c1.083,3.784,8.944,5.027,17.848,2.455s14.937-8.15,13.721-12.343c-1.178-4.07-9.06-4.754-17.665-1.911C295.385,624.82,289.153,629.953,290.228,633.72ZM588.6,556.2c-1.6-8.585-10.872-11.65-20.759-7.21-9.872,4.438-16.606,14.122-15.034,21.9,1.558,7.68,10.531,11.1,20.428,7.479C583.406,574.664,590.2,564.76,588.6,556.2Zm14.527-82.394c-1.52-8.105-10.712-9.313-20.484-3.176s-16.467,16.652-14.993,23.99c1.447,7.191,10.321,9.017,20.168,3.721C597.9,492.94,604.656,481.944,603.128,473.808ZM545.7,433.918c-9.436,7.095-16.238,17.1-15.136,22.858,1.089,5.68,9.412,5.567,18.917-.785,9.768-6.509,16.566-17.185,15.391-23.645C563.689,425.855,555.143,426.823,545.7,433.918Zm-261.2,180.189c0.99,3.251,8.58,3.77,17.261.786,8.91-3.049,15.191-8.706,14.222-12.42s-8.793-3.614-17.518-.2S283.492,610.8,284.494,614.107Zm258.4,7.171c-1.672-8.034-11.023-11.713-20.718-8.427s-16.169,11.728-14.406,19.032c1.732,7.165,10.811,10.964,20.578,8.358S544.546,629.174,542.9,621.278ZM506.888,441.6c-0.774-4.831-8.8-2.449-18.015,4.679-9.161,7.1-16.105,15.9-15.282,20.035,0.815,4.075,8.791,2.562,18.014-4.012C500.9,455.7,507.642,446.288,506.888,441.6Zm88.165-9.891c-1.413-7.066-10.342-6.826-19.7-.012-9.515,6.938-16.372,17.772-14.974,24.2,1.382,6.333,10.22,6.749,19.862.425C589.829,450.043,596.474,438.8,595.053,431.705ZM452.844,678.68c9.383-1.756,15.747-8.787,14.214-15.541-1.555-6.865-10.769-10.406-20.038-7.96-9.174,2.42-15.434,9.254-13.894,15.378C434.675,676.713,443.469,680.442,452.844,678.68Zm-41.9-185.629c-8.821,6.2-15.634,13.13-15.019,15.915s8.395,0.774,17.351-5.068c8.99-5.845,15.751-13.635,15.192-16.876C427.9,483.717,419.88,486.777,410.941,493.051ZM301.252,579.128c0.792,2.619,8.458,1.873,17.145-2.142,8.707-4.009,15.166-10.046,14.468-13.038-0.71-3.052-8.684-1.477-17.377,2.9C306.89,571.185,300.465,576.508,301.252,579.128Zm41.622,88.384c8.829-1.838,14.937-7.6,13.6-12.58-1.324-4.962-9.633-6.968-18.328-4.731-8.826,2.279-15.1,7.8-13.719,12.348C325.8,667.033,334,669.371,342.874,667.512ZM611.707,519.789c-1.675-8.464-11.121-11.028-20.792-6.02-9.847,5.106-16.695,15.7-14.983,23.512,1.691,7.708,10.983,10.608,20.915,6.166C606.717,539.045,613.391,528.3,611.707,519.789ZM371.163,676.957c9.061-1.587,15.421-7.508,14.227-13.047-1.188-5.513-9.518-8.17-18.471-6.149-8.8,1.992-15.265,7.712-14.161,12.724S362.2,678.534,371.163,676.957ZM323.514,559.791c0.506,2.59,8.168,1.41,16.9-3.1,8.823-4.539,15.506-10.984,14.987-13.924s-8.124-.947-16.894,3.876C329.887,551.4,323.009,557.191,323.514,559.791Zm-26.857,95.88c1.107,4.057,9.2,6.064,17.917,4.141,8.553-1.878,14.657-7.226,13.642-11.691-1.022-4.518-9.136-6.127-17.792-3.849C301.827,646.543,295.551,651.612,296.657,655.671ZM461.163,456.164c-8.774,6.9-15.489,14.7-14.93,18.018,0.569,3.353,8.577,1.2,17.626-5.346s15.855-15.5,15.061-19.207S470.032,449.2,461.163,456.164ZM279.506,597.079c0.809,2.724,8.559,2.447,17.164-1.05,8.587-3.475,14.94-9.214,14-12.2-0.925-2.941-8.549-1.963-16.97,1.718C285.171,589.287,278.7,594.349,279.506,597.079Zm240.9,53.317c-1.575-7.542-10.857-11.519-20.327-8.937-9.446,2.578-15.98,10.345-14.347,17.236,1.64,6.915,10.846,11.063,20.453,8.993C515.581,665.67,521.964,657.843,520.407,650.4ZM280.7,632.559c8.509-2.448,14.733-7.737,13.7-11.3s-8.934-3.844-17.393-.991c-8.338,2.819-14.336,7.373-13.486,10.583S272.211,635.013,280.7,632.559Zm82.986-97.881c8.587-5.04,15.157-11.787,14.587-14.418-0.58-2.693-8.344.088-17.119,5.527-8.8,5.466-15.53,11.429-14.807,13.713S354.894,539.858,363.689,534.678ZM401,687.993c8.912-1.456,15.138-7.635,13.819-13.54-1.339-5.991-10.044-9.107-19.109-7.082-8.905,1.99-15.025,7.752-13.77,13.163C383.2,685.961,391.923,689.48,401,687.993ZM614.226,476.417c-9.7,5.7-16.338,16.352-14.895,24.234,1.431,7.8,10.685,10.582,20.4,5.788,9.9-4.866,16.9-16.656,15.151-25.231C633.148,472.668,623.927,470.721,614.226,476.417ZM274.942,613.867c8.454-2.87,14.855-8.257,13.9-11.307-0.945-3.032-8.5-2.533-16.89.685s-14.484,7.721-13.69,10.5C259.042,616.48,266.62,616.706,274.942,613.867ZM606.213,432.429c-9.566,6.587-16.222,17.262-15.1,24.636,1.118,7.332,10.385,8.879,20.109,2.917,9.537-5.836,16.307-17.576,14.893-25.459C624.7,426.614,615.722,425.886,606.213,432.429ZM286.981,653.591c8.365-1.923,14.453-7.04,13.394-10.974-1.062-3.955-8.831-5.041-17.264-2.746-8.474,2.312-14.461,6.771-13.576,10.4C270.42,653.891,278.446,655.56,286.981,653.591Zm310.832-49.514c-1.649-8.628-10.98-12.726-20.717-9.34-9.808,3.412-16.292,12.271-14.711,20.28,1.553,7.871,10.949,12.41,20.667,9.776C592.736,622.175,599.46,612.681,597.813,604.077ZM558.026,400.284c-0.987-5.3-9.121-2.858-18.113,4.8-9.058,7.721-15.6,17.123-14.757,21.9,0.826,4.679,9.091,3.216,18.142-3.787C552.321,416.231,559.01,405.558,558.026,400.284Zm41.835,160.453c-9.816,4.1-16.324,13.786-14.587,21.946,1.729,8.114,11.218,12.27,20.975,8.921s16.454-13.7,14.641-22.469C619.053,560.235,609.7,556.635,599.861,560.737ZM568.728,397.821c-9.2,7.674-15.72,17.729-14.739,23.36,0.966,5.518,9.471,4.822,18.677-2.068,9.178-6.851,15.877-18.15,14.736-24.332C586.257,388.575,577.863,390.213,568.728,397.821ZM574.856,636.1c-1.875-8.373-11.085-12.485-20.826-9.538-9.686,2.935-15.921,11.295-14,18.96,1.87,7.476,11.04,11.964,20.506,9.843C570.148,653.226,576.7,644.349,574.856,636.1ZM512,414.821c-9,7.74-15.521,16.4-14.776,20.338,0.735,3.862,8.808,1.665,17.719-5.44,8.752-6.96,15.251-16.686,14.53-21.107C528.73,404.083,520.907,407.166,512,414.821ZM483.985,692.9c9.285-1.43,15.588-8.7,13.845-15.85-1.763-7.243-10.567-11.1-19.964-8.963-9.347,2.125-15.326,8.924-13.539,15.579C466.059,690.114,474.832,694.318,483.985,692.9ZM434.514,467.573c-8.843,6.823-15.375,13.707-14.732,16.255,0.618,2.452,8.09-.1,16.716-6.294,8.719-6.243,15.48-14.419,14.888-17.354C450.789,457.2,443.372,460.754,434.514,467.573Zm164.317-74.451c-9.47,7.523-15.993,18.089-14.885,24.656,1.1,6.509,9.668,6.707,19.091-.077,9.206-6.612,15.727-18.177,14.468-25.208C616.23,385.356,607.966,385.877,598.831,393.122ZM430.906,700.962c9.078-1.085,15.4-7.525,13.824-13.95-1.564-6.389-9.872-9.922-18.849-8.23-9.234,1.746-15.267,7.628-13.779,13.6C413.551,698.179,421.863,702.052,430.906,700.962ZM385.212,503.256c-8.911,6.037-15.637,12.052-15.3,14.333,0.335,2.256,7.692.009,16.444-5.6,8.5-5.432,15.189-12.45,14.842-14.978C400.843,494.427,393.787,497.459,385.212,503.256ZM644.03,532.075c-1.732-9.131-10.77-12.5-20.507-7.968-10,4.662-16.511,14.789-14.866,23.358,1.6,8.312,10.657,12.2,20.447,8.5C638.957,552.264,645.775,541.266,644.03,532.075ZM275.585,582.9c0.568,2.206,7.867,1.276,16.327-2.553,8.288-3.737,14.507-9.083,13.881-11.465-0.633-2.415-7.738-.757-16.12,3.263C281.234,576.2,275.027,580.726,275.585,582.9ZM552.07,666.116c-1.77-8.017-10.638-12.449-20.1-10.229-9.486,2.227-15.66,9.687-14,17.045s10.5,12.06,20.053,10.483C547.526,681.853,553.824,674.054,552.07,666.116Zm-67.4-239.175c-8.689,7.479-15.122,15.3-14.506,18.392,0.612,3.06,8.145.393,16.911-6.628,8.755-6.99,15.164-15.919,14.421-19.386C500.75,415.818,493.358,419.48,484.673,426.941ZM350,695.531c8.68-1.057,14.715-6.3,13.423-11.5-1.3-5.255-9.164-7.98-17.813-6.42-8.684,1.569-14.579,6.4-13.373,11.151S341.25,696.605,350,695.531ZM314.152,561.78c8.431-4.286,14.737-9.935,14.141-12.147-0.6-2.239-7.758.036-16.249,4.608-8.5,4.588-14.745,9.365-14.15,11.353C298.488,567.561,305.707,566.089,314.152,561.78Zm-70.926,84.508c1.05,3.116,8.526,4.3,16.746,2.328,8.258-1.976,13.924-6.543,12.815-10.012S264.252,634.492,256,636.8C247.783,639.1,242.164,643.131,243.226,646.288Zm-5.585-17.2c0.888,2.762,8.115,3.357,16.334.986,8.194-2.352,14.081-7.006,13.16-10.061-0.923-3.086-8.155-3.1-16.368-.42C242.537,622.288,236.754,626.315,237.641,629.093Zm83.9,56.157c8.541-1.272,14.4-6.287,13.114-11.019-1.288-4.764-9.049-6.955-17.579-5.236s-14.272,6.291-13.068,10.621C305.205,683.916,312.99,686.53,321.539,685.25ZM657.791,440.386c-1.7-8.646-10.734-10.133-20.275-3.8s-15.841,17.33-14.3,25.3c1.536,7.925,10.474,10.061,20.207,4.411C653.176,460.651,659.508,449.093,657.791,440.386ZM253.927,599.175c0.688,2.267,7.7,1.826,16.014-1.435,8.306-3.243,14.387-8.179,13.691-10.683-0.7-2.532-7.786-1.406-16.039,2.086S253.248,596.922,253.927,599.175Zm39.6,77.339c8.455-1.389,14.176-6.068,12.958-10.352s-8.86-6.035-17.2-4.255-14.047,6.075-12.909,9.955S285.081,677.908,293.532,676.514ZM648.593,393.1c-1.533-7.944-10.371-8.072-19.636-.819s-15.545,18.505-14.023,25.628c1.494,6.965,10.067,7.671,19.506,1.122C643.866,412.506,650.1,400.909,648.593,393.1ZM361.24,699.6c1.287,5.219,9.3,8.7,18.219,7.722,8.774-.962,14.629-6.218,13.279-11.775-1.378-5.676-9.572-8.943-18.283-7.5C365.929,689.454,360,694.565,361.24,699.6ZM667.369,492.372c-1.707-9.357-11.057-12.358-20.737-7.024s-16.067,16.284-14.293,24.821c1.738,8.34,10.774,11.553,20.574,6.981C662.68,512.6,669.051,501.588,667.369,492.372Zm-332.3,42.942c-8.476,5.075-14.9,10.166-14.3,11.9,0.6,1.689,7.712-.357,16.155-5.176s14.727-10.593,14.288-12.615C350.766,527.347,343.548,530.246,335.064,535.314ZM462.153,715.621c9.091-.987,15.045-7.19,13.421-13.881-1.608-6.635-10.215-10.811-19.1-9.429-8.96,1.4-15.174,7.744-13.532,13.942C444.571,712.4,453.066,716.615,462.153,715.621Zm-53.79-235.133c-8.312,6.244-15,12.529-14.66,14.412s7.474-.969,15.969-7.006c8.584-6.082,15.095-13.139,14.794-15.4C424.162,470.186,416.86,474.117,408.363,480.488ZM249.331,665.341c0.965,3.4,8.258,5.249,16.419,3.883,8.25-1.374,14.053-5.648,13.127-9.425-0.943-3.844-8.545-5.341-16.7-3.579C254.21,657.948,248.378,661.974,249.331,665.341ZM232.772,614.4c0.887,2.229,7.987,2.108,16.065-.658,8.062-2.749,13.845-7.246,13.041-9.758-0.811-2.541-8.335-1.771-16.319,1.248C237.619,608.239,231.9,612.173,232.772,614.4Zm397.878,6.448c-1.916-8.835-11.473-13.581-20.853-10.559-9.448,3.043-15.754,12.2-13.923,20.37,1.846,8.247,11.086,13.088,20.784,10.712C626.318,639.007,632.585,629.762,630.65,620.843ZM562.505,369.57c-8.4,7.917-14.807,17.809-13.95,22.22,0.865,4.436,8.691,2.386,17.448-5.172,8.807-7.582,14.99-18.131,13.915-23.1C578.848,358.576,570.971,361.606,562.505,369.57ZM458.008,441c-8.328,7.093-14.877,14.3-14.34,16.494s7.89-1.04,16.448-7.9c8.534-6.82,14.873-14.9,14.24-17.443S466.286,433.97,458.008,441ZM516.22,708.992c9.251-1.227,15.225-8.341,13.319-15.76-1.886-7.346-11.092-11.895-20.057-10.078-9.067,1.838-15.051,8.834-13.258,15.625C498.035,705.634,506.907,710.234,516.22,708.992Zm137.7-123.522c-1.846-9.186-11.477-13.72-20.946-10.1-9.382,3.583-15.706,13.171-14.126,21.559,1.617,8.56,10.944,13.434,20.679,10.607C649.28,604.708,655.773,594.7,653.916,585.47ZM609.2,355.519c-1.306-5.8-9.629-3.419-18.188,4.585-8.433,7.894-14.589,18.188-13.66,23.437,0.954,5.336,9.112,4.044,18-3.408C604.286,372.661,610.506,361.348,609.2,355.519ZM409.491,720.949c8.775-.74,14.783-6.358,13.223-12.248s-10.094-9.6-18.7-8.291c-8.492,1.289-14.286,6.515-12.985,11.852C392.345,717.669,400.728,721.692,409.491,720.949Zm198.1-67.332c-2.006-8.328-11.161-13.1-20.4-10.8-9.4,2.345-15.731,10.767-13.935,18.642s11.105,12.974,20.62,11.135C603.366,670.766,609.625,662.058,607.59,653.617ZM534.77,381.9c-8.335,7.916-14.749,16.981-14.026,20.543,0.723,3.535,8.458.7,17.009-6.858,8.381-7.389,14.526-17.149,13.767-21.218C550.749,370.233,543.152,373.956,534.77,381.9ZM358.53,515.523c-8.183,5.406-14.635,10.61-14.383,12.177s7.489-1.071,15.829-6.32c8.374-5.254,14.924-11.482,14.526-13.215S366.846,510.043,358.53,515.523ZM233.291,644.837c7.753-1.828,13.443-5.972,12.587-8.877-0.871-2.971-8.222-3.359-16.141-1.2-7.786,2.132-13.375,5.728-12.547,8.372S225.373,646.713,233.291,644.837ZM670.5,443.991c-9.466,5.733-15.855,16.852-14.449,25.4,1.385,8.368,10.491,11.629,19.965,6.837,9.667-4.88,16.456-17.117,14.725-26.343C689.03,440.744,679.948,438.273,670.5,443.991ZM660.562,394.7c-9.174,6.908-15.319,18.408-13.669,25.984s10.588,9.189,19.842,3.144c9.246-6.025,15.646-18.358,14-26.714C679.05,388.505,669.95,387.638,660.562,394.7Zm-3.716,143.192c-9.784,4.1-16.319,14.541-14.47,23.3,1.813,8.585,11.127,13.058,20.658,9.683s16.053-14.076,14.338-23.407C675.649,538.08,666.418,533.884,656.846,537.892ZM621.009,353.258c-8.753,7.839-14.849,18.561-13.784,24.786,1.064,6.183,9.681,5.658,18.666-1.659,8.811-7.162,14.976-19.051,13.55-25.659C638.006,344.064,629.732,345.454,621.009,353.258ZM227.617,628.648c7.713-2.154,13.556-6.339,12.827-8.863-0.732-2.543-7.744-2.318-15.581.132-7.878,2.47-13.516,5.976-12.79,8.293C212.788,630.469,219.881,630.82,227.617,628.648Zm11.233,34.543c7.8-1.328,13.6-5.383,12.746-8.668s-8.054-4.372-15.947-2.682c-7.953,1.707-13.534,5.2-12.7,8.2C223.757,662.977,231.024,664.533,238.85,663.191Zm11.486-75.481c0.688,1.532,7.53.382,15.311-2.991,7.884-3.4,14.049-8.148,13.513-9.959-0.541-1.835-7.484.06-15.553,3.765S249.632,586.121,250.336,587.71Zm334.455,96.777c-1.64-8.136-10.655-13.24-19.978-11.43-9.409,1.825-15.42,9.158-13.678,16.76,1.72,7.487,10.869,12.757,20.126,11.47C580.325,700.027,586.4,692.463,584.791,684.487ZM507.638,396.776c-8.288,7.891-14.438,15.805-13.728,18.443,0.689,2.551,7.893-.721,16.042-7.907,8.269-7.266,14.571-16.5,13.86-19.605C523.094,384.557,515.922,388.9,507.638,396.776Zm-207.257,304.3c8.121-.748,13.933-5.192,12.7-9.528-1.25-4.4-8.807-6.74-17.04-5.525-8.189,1.215-13.731,5.233-12.413,9.209C284.915,699.112,292.4,701.817,300.381,701.074ZM272.622,572.179c0.476,1.444,7.475-.236,15.444-4.17,7.8-3.835,13.885-8.694,13.564-10.364-0.332-1.728-7.143.642-15.266,4.8C278.161,566.656,272.136,570.7,272.622,572.179ZM311.78,705.172c1.109,4.356,8.821,7.589,17.08,6.967,8.052-.6,13.815-5.063,12.783-9.763-1.058-4.829-8.668-7.769-16.959-6.752C316.28,696.656,310.655,700.746,311.78,705.172Zm-39.445-13.711c7.985-.776,13.745-4.931,12.606-8.9-1.129-3.935-8.255-5.915-16.164-4.733-8.137,1.22-13.643,4.852-12.56,8.5C257.268,689.873,264.406,692.24,272.335,691.461Zm-43.527-89.347c0.646,1.762,7.615,1.066,15.4-1.938,7.672-2.952,13.38-7.208,12.75-9.12-0.652-1.982-7.453-.637-15.431,2.6C233.742,596.83,228.168,600.358,228.808,602.114ZM418,470.967c0.349,1.511,7.185-1.9,15.32-8.267,8.209-6.395,14.663-13.771,14.231-15.571s-7.088,2.549-15.22,9.24C423.974,463.263,417.64,469.393,418,470.967Zm89.031,247.656c-1.7-6.944-10.019-11.476-18.845-10.383-9.108,1.129-14.944,7.066-13.319,13.63,1.611,6.5,10.315,11.348,19.258,10.59C502.935,731.715,508.713,725.489,507.034,718.623ZM651.882,349.776c-8.844,7.588-14.761,18.618-13.475,25.595,1.315,7.114,9.739,7.572,18.831.521,8.916-6.9,14.86-18.916,13.262-26.435C668.9,341.871,660.675,342.245,651.882,349.776ZM440.276,736.358c8.629-.454,14.453-5.95,12.952-12.143-1.547-6.381-9.788-10.5-18.606-9.45-8.618,1.027-14.177,6.257-12.653,12.022C423.485,732.523,431.592,736.822,440.276,736.358ZM368.34,507.2c0.372,1.164,7.248-2,15.357-7.65,8.105-5.63,14.372-11.805,14.075-13.25-0.305-1.5-7.122,2.617-15.493,8.676C374.129,500.887,367.968,506.008,368.34,507.2Zm-72.814,48.576c0.366,1.237,6.974-.843,15.024-5.223,7.932-4.3,14.242-9.456,14-10.93-0.255-1.531-6.983,1.415-15.214,6.094C301.245,550.327,295.158,554.529,295.526,555.777Zm405.185-49.089c-1.768-9.663-10.679-13.443-20.172-8.845-9.536,4.622-15.771,15.093-14.222,24.055,1.582,9.143,10.714,13.493,20.385,9.445C696.205,527.37,702.468,516.287,700.711,506.688ZM358.008,724.7c8.343-.463,13.987-5.1,12.633-10.25-1.356-5.167-9.019-8.409-17.305-7.506s-13.846,5.243-12.584,9.977S349.639,725.168,358.008,724.7ZM245.172,683.111c7.747-.9,13.156-4.534,12.23-8.013-0.952-3.588-7.912-5.291-15.7-4.09-7.816,1.209-13.31,4.573-12.357,7.784C230.3,682.026,237.267,684.033,245.172,683.111Zm-37.36-67.386c0.9,1.732,7.656,1.391,15.213-1.129,7.738-2.569,13.072-6.422,12.187-8.419-0.869-1.969-7.794-1.015-15.464,1.726C212.134,610.633,206.873,613.913,207.812,615.725Zm354.162,96.66c-1.746-7.713-10.37-12.823-19.377-11.576s-14.938,7.973-13.214,15.076c1.711,7.064,9.984,12.075,19.043,11.448C557.711,726.7,563.713,720.067,561.974,712.385ZM481.613,413.208c-7.986,7.457-14.206,14.579-13.783,16.526,0.421,1.915,7.009-1.581,15.056-8.621,8.256-7.2,14.359-15.244,13.883-17.582C496.289,401.174,489.593,405.77,481.613,413.208ZM197.235,655.735c0.843,2.607,7.588,3.787,15.335,2.4,7.585-1.353,12.867-4.832,11.99-7.641-0.89-2.867-7.813-3.638-15.38-2.013C201.756,650.078,196.418,653.206,197.235,655.735Zm-5.315-14.873c0.792,2.241,7.291,2.912,14.815,1.234,7.75-1.72,13.194-5.3,12.345-7.814s-7.718-2.677-15.245-.706C196.449,635.517,191.138,638.636,191.92,640.862ZM713.666,405.6c-1.543-9.437-10.383-11.762-19.622-5.554-9.012,6.059-15.26,17.727-13.841,26.1,1.445,8.5,9.931,11.23,19.226,5.848C708.866,426.534,715.172,414.776,713.666,405.6ZM664.342,641.12c-1.876-9.238-11.2-14.658-20.512-12.072-9.172,2.543-15.1,11.31-13.256,19.694,1.854,8.437,10.742,13.751,20.161,11.93C660.175,658.852,666.189,650.2,664.342,641.12ZM600.78,325.4c-1.211-4.5-8.518-.972-16.389,7.259-7.984,8.367-13.8,18.177-12.741,22.2,1.049,3.946,8.4,1.248,16.617-6.71S601.991,329.91,600.78,325.4ZM319.05,538.538c0.238,0.985,6.765-1.652,14.721-6.466,8.066-4.866,14.276-10.061,14.128-11.268-0.152-1.25-6.824,2.309-14.88,7.348C325.148,533.087,318.816,537.551,319.05,538.538ZM629.972,314.709c-1.462-5.323-9.3-2.363-17.229,5.889-7.948,8.285-13.6,18.684-12.4,23.494,1.209,4.837,8.88,2.84,17.241-5.067C625.94,331.145,631.444,320.073,629.972,314.709ZM687.689,604.75c-1.951-9.3-11.341-14.417-20.5-11.355-9.228,3.085-15.28,12.654-13.418,21.315,1.877,8.718,10.932,13.856,20.423,11.431A18.426,18.426,0,0,0,687.689,604.75ZM400.44,728.371c-1.468-5.377-9.5-9.119-17.634-8.367s-13.758,5.38-12.393,10.33c1.375,4.991,9.167,8.828,17.571,8.5S401.922,733.8,400.44,728.371ZM641.159,674.3c-1.908-8.6-11.18-14.119-20.217-12.15-9.07,1.976-15.039,10.248-13.1,18.221,1.956,8.03,11.039,13.4,20.349,11.914C637.23,690.845,643.04,682.766,641.159,674.3Zm-68.6-335.422c-1.056-3.487-8.315.962-15.952,9.093-7.657,8.165-13.445,17.069-12.618,20.157s8.035-.294,16.043-8.18C568.031,352.084,573.621,342.368,572.556,338.873ZM724.268,462.821c-1.838-9.332-10.835-12.694-19.9-7.746-9.177,5.016-15.582,16.6-13.978,25.468,1.62,8.939,10.606,12.717,20.087,8.159C719.926,484.166,726.16,472.407,724.268,462.821ZM702.826,351.514c-1.732-8.213-10.567-8.68-19.229-1.489-8.529,7.082-14.4,18.705-13.056,26.188,1.386,7.664,9.906,8.952,18.943,2.436C698.565,372.114,704.568,359.77,702.826,351.514ZM187.107,627.942c0.556,1.886,7.194,2.064,14.592.076,7.44-1.991,12.976-5.571,12.272-7.622s-7.5-1.654-14.813.517C191.99,623.048,186.561,626.08,187.107,627.942Zm15.9,44.5c0.868,2.766,7.8,4.475,15.359,3.552s12.95-4.387,11.909-7.423c-1.019-2.975-7.857-4.288-15.187-3.162C207.689,666.55,202.144,669.678,203.01,672.438ZM660.281,307.194c-1.686-6.037-9.609-4.01-17.608,3.95-8.1,8.074-13.859,19.321-12.54,25.029s9.378,4.513,17.835-3.2C656.406,325.29,662,313.345,660.281,307.194Zm51.094,258.879c-1.828-9.46-10.895-14.343-20.094-11.017-9.329,3.378-15.7,13.7-13.921,22.661,1.749,8.8,10.759,13.917,20.021,11.211C706.86,586.165,713.247,575.717,711.375,566.073Zm-318.718-80.2c0.085,0.969,6.894-2.862,14.845-8.949,7.784-5.942,13.972-12.2,13.843-13.363-0.137-1.2-6.858,3.594-14.734,9.839C398.888,479.535,392.57,484.9,392.657,485.869ZM484.589,741.19c-1.834-6.311-10.128-10.705-18.546-9.936s-13.983,6.081-12.407,11.926c1.6,5.939,10.146,10.666,18.771,10.262C480.814,753.052,486.4,747.407,484.589,741.19ZM618.22,704.838c-2.009-8.078-10.913-13.414-19.837-11.983s-14.731,8.674-12.974,16.234c1.739,7.483,10.654,13.123,19.614,12.341C614.187,720.635,620.256,713,618.22,704.838ZM545.249,354.987c-1.009-2.432-7.829,2.588-15.38,10.588-7.556,8.021-13.264,15.888-12.59,18.122,0.683,2.256,7.887-1.893,15.734-9.733C540.667,366.336,546.236,357.36,545.249,354.987Zm-5.864,382.444c-1.939-7.018-10.489-11.835-19.162-10.9-8.649.935-14.242,6.969-12.418,13.459s10.49,11.557,19.129,11.089S541.292,744.327,539.385,737.431ZM442.294,446.1c0.425,1.047,7.227-3.171,14.944-9.9,7.714-6.7,13.754-13.961,13.241-15.218-0.524-1.293-7.074,3.826-14.814,10.864C447.953,438.877,441.867,445.041,442.294,446.1ZM225.619,592.909c0.673,1.076,7.108-.18,14.378-3.185,7.392-3.04,13.215-7.031,12.7-8.3-0.524-1.29-7.071.65-14.625,3.9S224.932,591.8,225.619,592.909ZM263.4,708.764c0.978,3.589,8.255,6.483,15.921,6.16,7.5-.313,12.917-3.872,12.033-7.767-0.894-3.96-8.09-6.59-15.794-5.956C267.788,701.842,262.409,705.117,263.4,708.764ZM291.43,719.93c1.254,3.873,8.462,7,16.116,6.827,7.792-.17,13.387-4.071,12.188-8.367-1.208-4.341-8.555-7.219-16.406-6.617S290.151,715.969,291.43,719.93ZM247.751,579.368c0.438,0.962,7.1-.833,14.6-4.359,7.343-3.438,13.122-7.516,12.865-8.658-0.261-1.175-6.793,1.27-14.429,4.938C253.1,574.991,247.308,578.382,247.751,579.368Zm123.715-78.012c-0.078-.907-6.521,3.236-14.438,8.673-7.784,5.358-13.8,9.663-13.71,10.392,0.084,0.714,6.715-2.62,14.492-7.827C365.405,507.526,371.54,502.228,371.466,501.356ZM401.1,745.49c1.493,5.157,9.308,9.377,17.44,9.3,8.261-.072,13.934-5.007,12.311-10.636-1.61-5.61-9.333-9.545-17.493-9.045C404.993,735.622,399.568,740.178,401.1,745.49Zm-197-139.959c0.517,1.344,7.079.548,14.4-2.111,7.166-2.591,12.653-6.209,12.155-7.657-0.512-1.5-6.963-.1-14.442,2.722C208.888,601.261,203.593,604.182,204.106,605.531Zm531.081-80.574c-1.481-9.834-10.277-14.75-19.42-11.038-9.6,3.895-15.817,14.041-14.358,23.515,1.432,9.286,10.428,14.467,19.823,11.24C730.354,545.544,736.671,534.793,735.187,524.957ZM236.093,699.045c0.866,3.279,7.916,5.842,15.494,5.438,7.4-.39,12.758-3.762,11.851-7.3-0.925-3.646-7.9-5.836-15.546-5.1C240.377,692.807,235.23,695.771,236.093,699.045ZM691.579,303.51c-1.811-7.027-9.738-5.951-17.932,1.908-8.42,8.088-13.845,19.331-12.268,25.922,1.531,6.374,9.54,6.137,17.88-1C687.716,323.116,693.4,310.563,691.579,303.51ZM320.278,732.3c1.2,4.255,8.432,7.758,16.263,7.716,7.959-.034,13.385-4.08,11.964-8.8-1.4-4.653-8.628-7.787-16.483-7.313C324.2,724.374,319.071,727.991,320.278,732.3ZM270.769,565c0.315,0.742,6.548-1.415,14.077-5.322,7.589-3.923,13.595-8.285,13.2-9.1s-6.644,2.111-14.264,6.178S270.447,564.244,270.769,565Zm-98.727,87.284c0.833,2.122,7.222,3.071,14.325,1.875,7.2-1.2,12.5-4.421,11.605-6.795-0.907-2.408-7.4-2.873-14.747-1.354C176.1,647.492,171.2,650.13,172.042,652.288ZM518.547,373.894c-0.555-1.886-6.755,3.182-14.175,10.857-7.455,7.727-13.115,14.587-12.735,16.187,0.376,1.583,6.747-2.541,14.314-9.915C513.457,383.731,519.1,375.745,518.547,373.894Zm217.4-16.277c-1.841-8.951-10.243-10.368-19.012-3.63s-14.328,18.243-12.692,26.538c1.629,8.216,10.058,10.3,18.925,4.288S737.782,366.507,735.952,357.617Zm11.537,59.4c-1.718-9.73-10.244-12.753-19.274-7.169-9.085,5.625-14.965,16.9-13.41,25.885s10,12.485,19.177,7.665C743.067,438.632,749.188,426.625,747.489,417.013ZM177.479,666.979c0.825,2.4,7.236,3.826,14.441,2.966,7.181-.848,12.32-3.871,11.449-6.514-0.876-2.672-7.263-3.7-14.474-2.59C181.668,661.96,176.655,664.556,177.479,666.979ZM167.139,639.2c0.669,1.876,6.824,2.388,13.96.882,7.067-1.483,12.311-4.609,11.617-6.653-0.7-2.075-6.881-2.13-14-.433C171.559,634.711,166.472,637.314,167.139,639.2Zm428.12,94.1c-1.845-7.732-10.224-13.1-18.989-12.217-8.817.885-14.377,7.22-12.645,14.423s10.1,12.661,18.963,12.321C591.361,747.492,597.085,740.937,595.259,733.3ZM183.3,617.331c0.652,1.436,6.915,1.064,14.093-1.171,7.044-2.186,12.142-5.386,11.557-6.934-0.6-1.606-6.763-.742-13.959,1.592S182.645,615.879,183.3,617.331Zm26.2,73.313c0.9,2.881,7.237,4.972,14.555,4.609,7.423-.36,12.741-3.426,11.836-6.655-0.916-3.268-7.456-5.111-14.823-4.387C213.688,684.94,208.587,687.7,209.5,690.644Zm84.882-140.621c0.329,0.408,6.536-2.333,14.078-6.7,7.536-4.345,13.243-8.566,13.014-9.118-0.231-.57-6.7,3.087-14.249,7.528C299.79,546.122,294.057,549.6,294.385,550.023Zm83.772,196.069c-1.247-4.891-8.468-8.587-16.236-8.431-7.858.161-13.371,4.053-12.115,8.639,1.243,4.537,8.421,8.277,16.351,8.39C374.132,754.807,379.41,750.992,378.157,746.092Zm320.72-82.308a16.811,16.811,0,0,0-19.742-12.824c-8.784,1.924-14.551,10.461-12.684,18.817,1.889,8.457,10.606,14.136,19.681,12.751A15.253,15.253,0,0,0,698.877,663.784ZM620.327,286c-1.352-3.973-8.344.2-15.444,8.576-7.08,8.371-12.19,17.91-11.138,21.472,1.07,3.593,7.965.408,15.5-7.754C616.792,300.127,621.692,290,620.327,286Zm103.6,17.458c-1.92-7.688-10.349-7.466-18.36.014-8.074,7.543-13.352,19.291-11.681,26.39,1.693,7.16,9.751,7.6,18.268.546C720.622,323.412,725.877,311.248,723.929,303.455Zm34.8,176.231c-1.874-9.713-10.957-13.834-19.762-9.232-8.878,4.638-14.731,15.789-12.969,24.852,1.782,9.15,10.444,13.4,19.655,9.4C754.8,500.739,760.631,489.539,758.726,479.686Zm-341.24-16.112c0.21,0.476,6.452-3.773,14.008-10.151,7.538-6.344,13.253-12.37,12.967-13.006s-6.571,4.653-13.865,11.011C423.277,457.824,417.277,463.087,417.486,463.574Zm99.225,297.138c-1.717-6.4-9.975-11.343-18.149-10.926-8.156.416-13.641,5.726-12.041,11.693,1.62,6.046,9.632,10.9,18.087,10.894S518.446,767.184,516.711,760.712ZM592.39,302.506c-1.108-3.1-7.886,1.821-14.857,10.129-6.974,8.325-12.149,17.087-11.193,19.7,0.966,2.634,7.729-1.351,15.124-9.557C588.648,314.836,593.485,305.556,592.39,302.506ZM722.529,627.872a16.085,16.085,0,0,0-19.557-13.106c-8.851,2.163-14.944,11.457-13.212,20.18a16.579,16.579,0,0,0,19.685,12.747A16.925,16.925,0,0,0,722.529,627.872ZM649.362,272.354c-1.647-4.618-8.872-1.189-15.981,7.015-7.225,8.355-12.331,18.755-11.051,23.141,1.3,4.426,8.552,1.857,16.239-6.321C646.232,288.057,651.069,277.119,649.362,272.354ZM395.192,481.378c-0.26-.333-6.422,4.348-13.688,9.814-7.394,5.577-13.629,10.136-13.49,10.439s6.416-3.553,14.008-9.145C389.586,486.931,395.458,481.707,395.192,481.378Zm66.8,280.365c-1.692-5.624-9.6-10.008-17.4-9.747-7.976.27-13.433,4.974-11.921,10.329,1.528,5.421,9.353,9.879,17.608,9.931C458.467,772.312,463.74,767.558,461.989,761.743Zm213.569-64.52c-2.026-8.336-10.853-14.1-19.425-12.739-8.735,1.388-14.517,9.374-12.532,17.33,2.008,8.064,10.889,13.739,19.863,12.633A13.817,13.817,0,0,0,675.558,697.223ZM183.284,683.2c0.747,2.542,7.269,4.415,14.427,3.941,7-.458,12.027-3.2,11.235-5.963-0.8-2.8-7.477-4.395-14.47-3.672C187.618,678.219,182.555,680.714,183.284,683.2Zm-20.471-55.01c0.606,1.459,6.633,1.495,13.415-.2,6.991-1.737,12.193-4.73,11.551-6.355-0.624-1.583-6.7-1.16-13.464.642C167.5,624.1,162.194,626.7,162.813,628.19Zm516.93-365.826c-1.7-5.735-9.2-3.237-16.573,4.983-7.5,8.38-12.574,19.5-11,24.684,1.552,5.091,9.07,3.272,16.719-4.56C676.528,279.664,681.442,268.1,679.743,262.364ZM466.5,420.169c0.189,0.835,6.4-3.746,13.58-10.615,7.23-6.9,12.843-13.9,12.65-15.1-0.2-1.227-6.448,4.443-13.636,11.673C472.049,413.217,466.3,419.311,466.5,420.169ZM572.633,758.962c-1.716-7.056-10.4-12.538-18.819-11.931-8.277.594-13.652,6.4-11.915,12.887s10.091,11.824,18.493,11.767C568.813,771.629,574.325,765.908,572.633,758.962ZM746.371,588.454c-1.693-9.752-10.877-15.432-19.88-12.43-8.841,2.945-14.676,12.65-12.925,21.562a15.913,15.913,0,0,0,19.513,12.345C742.052,607.735,748.04,598.061,746.371,588.454ZM565.4,321.809c-0.876-2.219-7.181,3.174-14.1,11.357-6.923,8.2-12.036,15.871-11.248,17.634,0.769,1.7,7.109-2.66,14.012-10.24C561.1,332.858,566.268,324,565.4,321.809Zm87.115,406.355c-2.026-8.055-10.7-13.674-19.373-12.593-8.658,1.078-14.06,8.145-11.954,15.65,2.075,7.375,10.609,13.009,19.059,12.537C648.866,743.281,654.513,736.11,652.514,728.164Zm-272.255,33.8c1.265,4.69,8.835,8.9,16.569,9.132,7.563,0.225,12.806-3.7,11.622-8.647-1.216-5.081-8.623-9.123-16.434-9.063C384.15,753.445,378.968,757.2,380.259,761.963ZM318.712,534.356c0.158,0.135,6.433-3.251,13.7-7.874,7.109-4.51,12.907-8.841,12.907-9.154,0-.334-6.011,3.7-13.447,8.5C324.4,530.648,318.545,534.208,318.712,534.356ZM152.362,662.342c0.8,1.958,6.85,3.129,13.485,2.4,6.741-.731,11.851-3.4,11.13-5.614-0.727-2.237-6.879-3.054-13.737-2.061S151.538,660.312,152.362,662.342Zm-5-12.981c0.751,1.769,6.983,2.524,13.659,1.413,6.539-1.079,11.406-3.729,10.771-5.642-0.656-1.977-6.729-2.348-13.532-1.088C151.432,645.313,146.6,647.563,147.359,649.361Zm622.874-281.75c-1.879-9.222-10.069-11.521-18.588-5.563-8.789,6.153-14.24,17.568-12.508,26.388,1.665,8.464,9.931,11.388,18.472,6.228C766.245,389.458,772.115,376.833,770.233,367.611ZM243.378,720.7c0.928,3.255,7.737,6.15,14.9,6.177,7.043,0.03,12.047-2.911,11.068-6.379-1.019-3.615-7.618-6.134-14.957-5.886C247.257,714.854,242.451,717.451,243.378,720.7ZM201.45,598.3c0.4,0.809,6.506-.453,13.383-3.115,6.736-2.6,11.993-5.74,11.613-6.6-0.392-.9-6.34.912-13.434,3.7C206.087,595.025,201.055,597.486,201.45,598.3ZM223.6,586.738c0.39,0.565,6.293-1.11,13.177-4.106,6.994-3.033,12.49-6.419,12-7s-6.328,1.7-13.394,4.827C228.348,583.578,223.2,586.152,223.6,586.738Zm546.483-41c-1.925-9.858-10.374-14.754-19.286-11.335a20.657,20.657,0,0,0-12.732,22.519c1.694,9.191,10.171,14.617,19.026,12.047C766.042,566.378,772.018,555.687,770.078,545.739ZM711.057,256.047c-1.9-6.657-9.3-5.134-16.831,2.958-7.569,8.142-12.248,18.887-10.739,25.11,1.523,6.28,9.272,5.529,17.058-2.132C708.182,274.478,712.933,262.6,711.057,256.047ZM271.263,732.434c0.917,3.515,7.435,6.646,14.706,6.936,7.149,0.291,12.431-2.741,11.56-6.552-0.906-3.962-7.558-6.915-14.987-6.8C275.248,726.134,270.337,728.878,271.263,732.434Zm511-299.9c-1.778-9.916-10.1-13.6-18.867-8.631-8.791,4.985-14.328,15.938-12.677,25.185,1.64,9.183,9.993,13.335,18.776,9.1C778.229,453.985,784.021,442.321,782.265,432.536ZM757.442,307.719c-1.917-8.567-9.891-9.452-18.085-2.427s-13.248,18.448-11.551,26.4c1.681,7.868,9.714,9.43,18,3.126C754.066,328.539,759.338,316.179,757.442,307.719ZM180.149,609.139c0.456,0.973,6.179.229,12.916-2,6.665-2.194,11.826-5.147,11.378-6.195-0.453-1.069-6.163.2-12.958,2.521C184.658,605.811,179.693,608.152,180.149,609.139ZM216.268,710.13c0.833,2.933,7.1,5.437,14.144,5.5,6.97,0.063,12.023-2.648,11.135-5.846-0.9-3.247-7.144-5.476-14.183-5.23C220.293,704.8,215.433,707.181,216.268,710.13Zm-58.383-33.49c0.654,2.232,6.5,3.821,13.34,3.433,6.611-.368,11.546-2.746,10.948-5.114-0.626-2.487-6.452-3.822-13.208-3.229C162.141,672.334,157.237,674.427,157.885,676.64Zm-14.88-38.626c0.625,1.482,6.155,1.852,12.694.6,6.591-1.249,11.556-3.852,10.958-5.5-0.606-1.675-6.316-1.645-12.942-.21S142.363,636.486,143.005,638.014ZM629.393,756.535c-1.933-7.619-10.239-13.206-18.652-12.57-8.2.618-13.307,6.662-11.522,13.648,1.85,7.226,10.04,12.751,18.619,12.543C626.233,769.952,631.29,764,629.393,756.535Zm-90.267-412.79c-0.679-1.37-6.525,4.289-13.246,12.094-6.554,7.623-11.5,14.121-11.035,15.233,0.473,1.132,6.419-3.55,13.4-11.222C535.079,352.36,539.79,345.076,539.126,343.745ZM299.932,745.785c1.114,3.788,7.679,7.074,15.011,7.392,7.5,0.329,12.445-2.816,11.211-7.037-1.19-4.078-7.887-7.234-15.067-7.238C303.742,738.9,298.794,741.911,299.932,745.785ZM246.475,574.531c0.248,0.358,6.046-1.771,13.187-5.26,6.985-3.4,12.255-6.687,12.038-7.094-0.219-.427-6.08,2.383-13.187,5.88C251.576,571.481,246.237,574.175,246.475,574.531ZM465.512,781.17c1.606,5.48,9.09,10.017,17.092,10.3s12.935-4.068,11.3-9.936c-1.618-5.806-9.193-10.452-16.966-10.463C468.993,771.065,463.87,775.579,465.512,781.17ZM418.747,461.181c-0.1-.064-5.979,5.187-13.125,11.072-6.992,5.772-12.542,9.89-12.413,9.8s5.88-4.316,13.05-10.113C413.418,466.165,418.84,461.236,418.747,461.181ZM214.244,700.2c-0.9-2.833-7.166-4.781-13.863-4.482s-11.488,2.533-10.654,5.114c0.843,2.608,6.9,4.734,13.819,4.685S215.156,703.067,214.244,700.2Zm-54.851-80.94c0.486,1.1,6.022.746,12.633-1.105,6.66-1.858,11.468-4.46,10.955-5.635s-6.2-.345-12.68,1.541C163.845,615.942,158.917,618.164,159.393,619.256ZM442.257,440.5c0.2,0.072,5.958-4.6,12.98-11.149,6.978-6.488,12.176-12.208,11.874-12.4S461,422.459,454.3,428.907C447.548,435.414,442.055,440.41,442.257,440.5ZM549.6,781.95c-1.8-6.324-9.881-11.434-17.7-11.239-7.855.195-12.938,5.262-11.237,11.219,1.714,6.022,9.488,10.954,17.65,11.157C546.442,793.291,551.432,788.372,549.6,781.95ZM794.212,500.59c-1.758-9.858-10.511-14.8-19.037-10.929-8.357,3.79-13.989,14.291-12.509,23.365,1.531,9.36,9.926,14.516,18.728,11.344C790.251,521.181,795.989,510.533,794.212,500.59ZM716.105,280.238c1.628,6.884,9.282,6.973,17.111-.216,7.855-7.2,12.6-19.258,10.575-26.592-2.011-7.276-10.025-6.526-17.382,1.171C719.167,262.178,714.533,273.562,716.105,280.238Zm-276.8,500.026c-1.459-5.036-8.7-9.269-16.094-9.481-7.464-.21-12.751,3.684-11.486,8.485,1.276,4.848,8.565,9.195,16.292,9.636S440.811,785.461,439.305,780.264ZM343.711,518.108c-0.013-.146,5.8-3.911,12.921-8.872,6.97-4.839,12.549-9.06,12.666-9.074s-5.584,4.49-12.62,9.46A154.525,154.525,0,0,1,343.711,518.108Zm-73.65,43.734a138.033,138.033,0,0,0,12.758-6.279c7.019-3.77,12.624-7.29,12.441-7.373s-5.93,3.225-12.736,6.919C275.646,558.854,269.853,561.788,270.061,561.842Zm85.577,199.623c-1.112-4.3-8.259-7.994-15.414-8.079-7.015-.082-12.012,3.024-11.022,6.916,1.021,4,7.977,7.743,15.357,8.159C351.759,768.868,356.738,765.7,355.638,761.465Zm402.513-108.15c-1.757-9.074-10.232-15.111-18.751-13.4a15.815,15.815,0,0,0-12.32,18.667c1.671,8.474,10.256,14.662,18.724,13.482S759.905,662.363,758.151,653.315ZM642.865,259.2c1.553,3.7,8.392.5,15.073-7.6,6.666-8.053,10.755-18.788,8.911-22.827-1.881-4.131-8.575-.1-15.022,8.465S641.32,255.483,642.865,259.2Zm-28.418,16.474c1.2,3,7.729-.784,14.263-8.8,6.53-7.993,10.738-17.978,9.235-21.327-1.514-3.4-7.882,1.206-14.187,9.658C617.442,263.68,613.239,272.618,614.447,275.675ZM734.435,689.848c-1.762-8.653-10.2-14.758-18.648-13.508a14.262,14.262,0,0,0-12.18,17.151c1.673,8.086,10.226,14.314,18.63,13.559S736.2,698.5,734.435,689.848Zm-583.56-34.319c-0.6-1.834-6.327-2.514-12.66-1.715s-10.984,2.659-10.422,4.354c0.552,1.657,6.347,2.677,12.63,2.036S151.472,657.358,150.875,655.529ZM187.42,691.86c-0.783-2.482-6.779-4.128-13.344-3.837s-11.206,2.25-10.329,4.5c0.855,2.193,6.727,4.077,13.092,4.047C183.335,696.546,188.2,694.316,187.42,691.86Zm-25.476-68.6c-0.424-1.267-6.019-.836-12.336.68-6.336,1.526-10.992,3.485-10.444,4.647,0.54,1.143,6.226,1.1,12.459-.34C157.705,626.847,162.359,624.493,161.944,623.259ZM606.652,782.383c-1.634-6.792-9.7-12.345-17.771-12.223-8.106.119-13.215,5.426-11.482,11.912,1.709,6.4,9.924,11.943,17.944,12.1C603.163,794.328,608.25,789.042,606.652,782.383ZM490.288,393.345c0.382,0.264,5.98-4.679,12.361-11.5,6.515-6.939,11.593-13.744,11.183-14.331-0.413-.606-5.937,5.288-12.4,12.542S489.894,393.056,490.288,393.345Zm220.669,329.76a17.616,17.616,0,0,0-18.843-13.064c-8.351,1.051-13.5,8.339-11.368,16.1,2.091,7.622,10.386,13.428,18.526,12.962C707.583,738.628,712.972,731.272,710.957,723.105ZM587.415,295.089c1.172,1.928,7.258-2.41,13.519-10.2,6.395-7.934,10.663-17.207,9.326-19.609-1.358-2.453-7.4,2.841-13.62,11.279C590.447,284.97,586.223,293.106,587.415,295.089ZM155.847,669.242c-0.832-2-6.454-3-12.735-2.456-6.445.561-11,2.37-10.206,4.238,0.776,1.806,6.488,3.13,12.7,2.769C151.939,673.432,156.681,671.244,155.847,669.242ZM763.04,337.966c1.835,8.03,9.8,10.263,17.756,4.663,8.114-5.7,13.4-18.346,11.343-27.036s-9.952-10.3-17.864-4.016C766.16,318.031,761.155,329.7,763.04,337.966Zm12.276,62.171c1.666,8.917,10.1,12.547,18.435,7.666,8.164-4.778,13.527-16.6,11.76-25.882-1.827-9.622-10.124-12.678-18.541-7.123C778.8,380.194,773.664,391.3,775.316,400.137ZM145.886,643.364c-0.555-1.61-6.188-1.883-12.5-.846-6.173,1.018-10.586,2.8-10.068,4.265s6.238,2.119,12.462,1.208C141.842,647.109,146.429,644.921,145.886,643.364Zm605.447-22.576c1.757,8.821,10.011,14.726,18.419,13.129,8.548-1.618,14.135-11.09,12.117-20.55-2.008-9.41-10.157-14.848-18.662-12.537A17,17,0,0,0,751.333,620.788ZM672.74,245.127c1.49,4.959,8.519,2.815,15.416-5.181,6.737-7.8,10.766-18.856,8.886-23.981-1.908-5.21-8.6-2.355-15.175,5.963C675.207,230.358,671.257,240.182,672.74,245.127ZM385.545,778.481c-1.009-4.543-7.5-8.406-14.683-8.8-7.12-.4-12.045,2.425-11.246,6.474,0.856,4.336,7.4,8.356,14.869,9.059C381.509,785.872,386.51,782.82,385.545,778.481Zm272.76-23.425c1.825,7.42,9.88,13.284,18.07,13.17,7.975-.111,13.012-6.287,11.268-13.868a17.81,17.81,0,0,0-17.88-13.366C661.505,741.427,656.474,747.617,658.305,755.056ZM561.682,316.509c0.836,1.354,6.684-3.5,12.856-11.282,6.1-7.673,10.045-15.413,9.042-17.057-1.039-1.713-6.521,3.757-12.555,11.851S560.834,315.125,561.682,316.509Zm-266.965,232c0.216-.314,5.728-3.409,12.328-7.325,6.765-4,12.119-7.38,12-7.127a137.28,137.28,0,0,1-12.5,8.1C299.692,546.223,294.489,548.821,294.717,548.505ZM750.532,279.933c1.783,7.411,9.047,8.361,16.722,1.83s12.255-18.158,10.338-26.139c-1.97-8.212-9.639-8.641-17.127-1.366C753.145,261.368,748.77,272.584,750.532,279.933Zm37.431,186.23c1.634,9.257,9.363,13.8,17.794,10.266s13.834-14.077,12.217-23.885c-1.67-10.1-9.8-14.6-18.206-10.289C791.562,446.468,786.348,457,787.963,466.163ZM418.49,461.9c0.043-.446,5.329-5.031,11.975-10.946,6.632-5.888,11.605-10.541,11.478-10.15a144.2,144.2,0,0,1-11.82,11.686C423.667,458.367,418.446,462.336,418.49,461.9ZM526.64,802.991c-1.639-5.741-8.954-10.511-16.433-10.738s-12.267,3.95-10.753,9.35c1.528,5.449,8.695,10.131,16.383,10.672C523.544,812.819,528.287,808.751,526.64,802.991ZM200.373,595.878c-0.443-.477-5.881,1.173-12.071,3.349-6.211,2.191-10.8,4.069-10.361,4.54s5.7-.669,12.026-2.885C196.268,598.681,200.822,596.356,200.373,595.878ZM704.24,235.1c1.842,5.443,8.727,3.939,15.724-3.885,6.966-7.78,10.709-18.775,8.528-24.7-2.147-5.842-9.255-3.6-15.781,4.5C706.163,219.146,702.4,229.642,704.24,235.1Zm71.693,344.5c1.693,9.14,9.625,14.66,18.1,12.522,8.5-2.141,13.766-11.392,11.986-21.062-1.773-9.63-9.887-15.2-18.178-12.571C779.567,561.108,774.254,570.528,775.933,579.6ZM247.048,731.953c-0.864-3.087-6.8-5.623-13.314-5.823s-11.123,1.846-10.337,4.663c0.792,2.846,6.6,5.5,13.266,5.948C243.353,737.191,247.917,735.042,247.048,731.953Zm27.99,12.809c-0.942-3.34-7.172-6.2-13.727-6.423-6.4-.216-10.995,1.959-10.247,4.938,0.781,3.1,6.726,6.064,13.494,6.6C271.375,750.425,275.99,748.133,275.038,744.762ZM222.663,585.093c-0.346-.253-5.623,1.786-11.793,4.238-6.277,2.5-11.285,4.563-11,4.845s5.542-1.255,11.966-3.811S223.022,585.35,222.663,585.093ZM470.91,800.072c-1.5-5.155-8.752-9.6-15.964-9.831-7.058-.226-11.762,3.39-10.511,8.1,1.3,4.9,8.23,9.3,15.722,9.928C467.687,808.9,472.423,805.289,470.91,800.072ZM140.974,633.051c-0.582-1.264-5.989-1.184-11.882-.057-5.765,1.108-10.07,2.788-9.624,3.958,0.467,1.21,5.608,1.506,11.67.445C137.234,636.337,141.562,634.326,140.974,633.051Zm19.79,51.43c-0.7-2.138-6.351-3.574-12.487-3.335-5.98.234-10.422,1.858-9.881,3.742,0.567,1.964,5.99,3.616,12.28,3.59C157.025,688.454,161.471,686.627,160.764,684.481ZM393.223,482.946c-0.105.545-5.367,5.4-11.791,10.356-6.574,5.086-12.091,8.491-12.1,7.967-0.01-.541,5.349-4.666,12.117-9.832C388.177,486.314,393.329,482.366,393.223,482.946ZM219.547,720.432c-0.761-2.773-6.8-5.115-13.126-5.219-6.168-.1-10.738,1.776-10.063,4.234,0.7,2.549,6.554,5,13.083,5.351C215.811,725.143,220.294,723.159,219.547,720.432ZM178.661,606.177c-0.419-.669-5.657.476-11.576,2.256-6,1.813-10.781,3.7-10.358,4.362s5.527-.057,11.528-1.841C174.456,609.118,179.1,606.863,178.661,606.177ZM536.825,340.33c0.611,0.564,5.994-4.525,11.925-11.864s10.084-14.372,9.354-15.248-5.955,4.975-11.608,12.378C540.79,333.084,536.207,339.746,536.825,340.33Zm99.237,441.527c1.647,6.637,9.472,12.344,17.291,12.641,7.924,0.3,12.942-5,11.331-12.031-1.624-7.089-9.816-13.157-17.638-13.039C639.474,769.538,634.423,775.27,636.062,781.857Zm-80.093,22.428c1.695,5.768,9.233,10.833,16.84,11.306s12.449-4.041,10.8-10.123c-1.638-6.015-9.232-11.289-16.7-11.6C559.367,793.565,554.255,798.448,555.969,804.285ZM466.545,416.847c0.137-.256,5.372-5.293,11.558-11.695,6.21-6.408,11.015-11.948,10.863-11.922s-5.511,6.161-11.584,12.662C471.413,412.293,466.406,417.084,466.545,416.847ZM303.6,758.929c-1.043-3.491-7.435-6.632-13.91-6.934-6.506-.3-11.172,2.089-10.207,5.312,0.977,3.256,7.209,6.47,13.861,7.045C299.977,764.93,304.647,762.429,303.6,758.929ZM245.6,573.9c-0.235-.018-5.727,2.606-11.951,5.37-6.249,2.784-11.307,4.871-11.05,4.885s5.636-2.032,11.934-4.843A114.012,114.012,0,0,0,245.6,573.9Zm-88.128,41.973c-0.383-.838-5.657-0.074-11.509,1.413s-10.318,3.187-9.808,3.958c0.5,0.75,5.55.4,11.255-1C153.27,618.806,157.849,616.707,157.467,615.868Zm-32.414,36.474c-0.69-1.452-5.842-1.98-11.568-1.366-5.886.635-10.179,2.147-9.5,3.525,0.657,1.339,5.856,2.166,11.533,1.664C121.317,655.659,125.748,653.8,125.053,652.342Zm4.79,12.1c-0.686-1.641-5.913-2.5-11.7-2.1-5.964.422-10.3,1.9-9.62,3.445,0.658,1.5,5.923,2.636,11.672,2.368C126.066,667.892,130.537,666.1,129.843,664.441Zm62.591,45.626c-0.676-2.448-6.423-4.44-12.656-4.526-6.08-.082-10.415,1.51-9.786,3.706,0.636,2.212,6.457,4.46,12.626,4.748C188.634,714.278,193.09,712.447,192.434,710.067ZM343.422,519.618c-0.094.6-5.274,4.753-11.687,8.925-6.44,4.2-11.707,6.855-11.883,6.411s5.273-4.132,11.741-8.335C338.048,522.436,343.515,519,343.422,519.618ZM416.253,796.4c-1.345-4.419-7.952-8.292-14.8-8.739-7.048-.458-11.773,2.623-10.474,6.864,1.266,4.127,7.927,8.154,14.76,8.864C412.731,804.122,417.612,800.867,416.253,796.4ZM737.13,228.22c1.788,6.065,8.865,5.643,15.632-1.288,6.885-7.036,11.007-19.2,8.762-25.677-2.229-6.452-9.262-5.169-15.848,2.478C739.073,211.406,735.313,222.043,737.13,228.22Zm63.876,307.1c1.632,8.886,9.6,14.338,17.579,11.928,8.133-2.448,13.636-12.968,11.736-22.446s-9.779-14.363-17.853-11.224S799.348,526.3,801.006,535.32Zm-1.135-187.869c1.619,8.5,9.232,11.7,16.943,6.865,7.657-4.789,12.672-16.546,10.917-25.578-1.777-9.164-9.347-11.843-17.055-6.312C802.9,328.011,798.225,338.791,799.871,347.451ZM269.008,562.468a101.264,101.264,0,0,1-11.4,6.237c-6.423,3.171-11.325,5.171-11.275,4.963s5.179-2.63,11.384-5.7C263.866,564.943,269.014,562.276,269.008,562.468Zm63.548,212.213c-1.006-3.774-6.994-7.008-13.665-7.469s-11,1.862-9.966,5.4c1.014,3.466,7.306,6.948,13.807,7.548C329.161,780.758,333.523,778.3,332.556,774.681ZM786.385,283.8c1.808,7.633,9.017,9.389,16.314,3.683,7.425-5.794,11.918-17.729,9.839-26.064-2.1-8.423-9.554-9.46-16.887-2.7C788.558,265.251,784.55,276.034,786.385,283.8Zm26.708,131.361c1.431,9.272,8.854,13.731,16.905,9.973,7.743-3.608,13-14.489,11.527-23.885-1.556-9.917-9.05-14.077-17.014-9.654C816.679,395.942,811.712,406.188,813.093,415.159ZM513.158,365.587c0.353-.026,5.14-5.029,10.817-11.877,5.666-6.815,9.74-12.782,9.285-12.981-0.479-.217-5.226,5.693-10.849,12.826C516.942,360.505,512.8,365.6,513.158,365.587ZM134.474,677.975c-0.512-1.808-5.383-3.027-11.117-2.924-5.76.106-10.093,1.391-9.7,3,0.413,1.7,5.332,3.142,11.292,3.174C130.725,681.259,134.98,679.752,134.474,677.975Zm31.1,22.826c-0.609-2.152-5.688-3.858-11.564-4.008-5.9-.15-10.235,1.187-9.752,3.111,0.508,2.017,5.65,3.936,11.744,4.252C161.942,704.467,166.181,702.932,165.577,700.8Zm-29.195-75.907c-0.459-.924-5.211-0.589-10.759.536s-9.665,2.569-9.309,3.462c0.374,0.924,5.179.929,10.91-.212C132.809,627.573,136.844,625.812,136.382,624.894ZM614.536,806.5c1.77,6.162,9.029,11.341,16.535,11.82,7.49,0.479,12.056-4.215,10.309-10.646-1.807-6.649-9.279-12.013-16.85-12.074C617.164,795.54,612.768,800.35,614.536,806.5ZM120.2,641.871c-0.531-1.285-5.523-1.515-11.209-.724-5.516.771-9.384,2.15-8.827,3.324s5.4,1.678,10.976.991S120.719,643.114,120.2,641.871ZM661.355,213.449c1.569,3.428,7.29.292,13.121-7.658,5.859-7.976,8.937-17.4,7.033-21.1s-7.711.184-13.124,8.295S659.814,210.072,661.355,213.449Zm104.83,472.07c1.8,8.259,9.37,14.032,17.333,13.212s12.679-8.171,10.8-16.873c-1.863-8.614-9.615-14.567-17.373-13.339S764.4,677.33,766.185,685.519Zm-132.96-452.1c1.4,2.525,6.889-1.33,12.542-9.305s8.692-16.693,6.965-19.463-7.252,1.9-12.493,9.99S631.847,230.917,633.225,233.423Zm109.35,487.048a17.208,17.208,0,0,0,17.233,13.234c7.91-.423,12.584-7.141,10.691-15.415-1.878-8.217-9.563-14.18-17.263-13.378S740.784,712.675,742.575,720.471ZM606.425,256.1c1.032,1.926,6.2-2.328,11.716-10.161,5.6-7.934,8.787-16.011,7.366-18.034s-6.681,3.217-11.787,11.156C608.765,246.776,605.442,254.261,606.425,256.1ZM719.339,752.163c1.647,7.528,9.064,13.4,16.9,13.429,7.952,0.028,12.686-5.955,10.853-13.786-1.821-7.773-9.533-13.819-17.143-13.406C722.56,738.8,717.781,745.023,719.339,752.163ZM478.278,819.269c1.315,4.68,7.859,9.058,14.819,9.886,7.258,0.864,11.837-2.435,10.391-7.5-1.391-4.868-8.076-9.355-14.875-10C481.751,811.012,476.956,814.553,478.278,819.269ZM395.1,484.13c-0.1-.833,4.649-5.171,10.689-10.24,6.275-5.253,11.171-9.069,11.225-8.242,0.05,0.783-4.673,5.877-10.547,10.886C400.493,481.638,395.2,484.961,395.1,484.13ZM691.194,196.837c1.834,3.915,7.963,1.2,13.762-6.513s8.827-17.744,6.775-22.139c-2.03-4.35-8.251-1.124-13.675,6.679C692.557,182.789,689.341,192.866,691.194,196.837Zm99.252,451.051c1.967,8.276,9.643,13.787,17.417,12.463,7.689-1.306,12.433-9.463,10.566-18.187-1.847-8.618-9.789-14.556-17.271-12.949C793.436,630.876,788.464,639.548,790.446,647.888ZM443.44,441.372c0.107-.856,4.932-5.8,10.765-11.555,5.819-5.724,10.359-10.117,10.271-9.414-0.089.682-4.783,6.374-10.4,12.057C448.339,438.273,443.329,442.226,443.44,441.372Zm91.269,382.7c1.434,5.071,8.491,9.883,15.542,10.6,7.093,0.717,11.644-3.056,10.11-8.419-1.517-5.309-8.665-10.208-15.58-10.683C537.91,815.091,533.281,819.012,534.709,824.068ZM292.994,550.916c-0.039.536-5.136,4.016-11.114,7.235s-11.039,5.258-10.969,4.731,5.107-3.423,11.143-6.707S293.035,550.368,292.994,550.916Zm69.35,240.808c-1.1-3.726-7.379-7.292-13.643-7.813-6.284-.521-10.74,1.947-9.719,5.425,1.032,3.512,7.156,7.079,13.595,7.851S363.448,795.465,362.344,791.724ZM771.709,225.239c1.744,6.693,8.79,7.142,15.509.68,6.759-6.5,10.7-17.92,8.7-25.126-1.983-7.134-9.174-7.11-15.636-.272C773.883,207.293,769.968,218.528,771.709,225.239Zm54.8,262.447c1.725,8.79,9.411,13.582,17.147,10.548,7.7-3.017,12.688-13.328,10.9-22.566s-9.752-14-17.242-10.483C829.737,468.741,824.8,479.01,826.505,487.686ZM581.153,281.418c0.959,0.77,5.946-4.162,10.974-11.347,5.2-7.4,8.535-14.924,7.41-16.086s-6.148,4.672-11.052,12.279C583.576,273.888,580.174,280.615,581.153,281.418ZM696.792,781.9c1.675,6.531,9.146,12.286,16.4,12.673,7.491,0.4,12.347-5.083,10.719-12.191-1.607-7.025-9.285-13.014-16.717-12.991S695.046,775.113,696.792,781.9ZM447.727,816.5c-1.2-4.378-7.833-8.535-14.451-9.1s-11.116,2.435-9.822,6.592c1.262,4.056,7.628,8.112,14.141,8.964C444.3,823.832,448.935,820.885,447.727,816.5ZM367.82,505.27c0.12,0.818-4.821,5.444-10.884,9.741-6.083,4.321-11.227,6.861-11.188,5.929,0.038-.95,5.136-4.992,11.18-9.274C362.792,507.523,367.7,504.466,367.82,505.27ZM139.172,692.333c-0.656-1.807-5.581-3.233-11.136-3.358-5.581-.123-9.516.978-9.021,2.632s5.749,3.4,11.323,3.638C135.774,695.482,139.818,694.1,139.172,692.333Zm-23.39-59.242c-0.383-.965-4.917-0.954-10.146-0.168-5.3.8-9.131,1.994-8.889,2.944s5,1.244,10.288.474C112.157,635.6,116.165,634.037,115.782,633.091ZM722.741,182.982c1.821,4.847,8.052,3.211,13.878-4,5.76-7.115,8.894-17.816,6.791-23.024-2.127-5.289-8.3-3.02-13.91,4.724C723.826,168.52,720.9,178.054,722.741,182.982ZM815.41,606.176c1.731,8.468,9.364,14.179,16.8,12.523,7.473-1.663,12.239-10.418,10.46-19.244-1.815-9-9.184-14.343-16.846-12.266C818.21,589.252,813.65,597.573,815.41,606.176Zm-222.391,222.3c1.579,5.531,8.559,10.543,15.581,11.213,7,0.668,11.315-3.512,9.545-9.281-1.787-5.823-8.7-10.642-15.764-10.97C595.543,819.118,591.473,823.063,593.019,828.475ZM224.34,741.245c-0.767-2.593-5.964-4.916-11.837-5.392-5.849-.472-9.744.973-8.93,3.4,0.78,2.315,5.92,4.784,11.573,5.467C220.93,745.419,225.1,743.812,224.34,741.245Zm-120.348-81.09c-0.444-1.383-4.985-2.143-10.334-1.879-5.389.269-9.155,1.355-8.656,2.634,0.495,1.262,5.21,2.252,10.481,2.06C100.613,662.789,104.42,661.475,103.992,660.155Zm70.626-57.137c-0.3-.232-4.678,1.024-10,2.629-5.54,1.676-9.646,2.992-9.431,3.265s4.739-.656,10.142-2.3C170.7,604.987,174.918,603.248,174.618,603.018ZM490.219,392.4c0.11-.544,4.616-5.687,9.946-11.889,5.314-6.168,9.335-11.146,9-10.58s-4.656,6.344-9.961,12.738C494.068,388.867,490.107,392.923,490.219,392.4ZM196.641,594.438c-0.259-.01-4.714,1.657-10.163,3.548-5.621,1.956-9.779,3.3-9.507,3.332a104.639,104.639,0,0,0,10.12-3.152A89.511,89.511,0,0,0,196.641,594.438Zm55.407,160.255c-0.83-2.754-5.983-5.272-11.764-5.838-5.947-.579-9.973.977-9.177,3.618,0.765,2.545,5.936,5.221,11.729,5.984C248.767,759.242,252.9,757.523,252.048,754.693ZM99.465,649.514c-0.507-1.175-5.017-1.663-10.124-1.246s-8.788,1.521-8.32,2.632,4.915,1.823,10.1,1.467S99.977,650.7,99.465,649.514Zm53.6-38.23c-0.314-.423-4.753.485-9.962,1.817s-9.109,2.573-8.8,3,4.651-.132,9.911-1.483S153.387,611.706,153.067,611.284Zm43.9,117.738c-0.633-2.3-5.6-4.431-11.2-4.9s-9.627.784-9.042,2.889c0.6,2.133,5.463,4.363,11.168,5.02S197.6,731.33,196.969,729.022Zm-88.479-57.08c-0.507-1.476-5.085-2.5-10.34-2.442s-9.11,1.093-8.642,2.441c0.477,1.364,4.975,2.561,10.322,2.62S109,673.416,108.49,671.942ZM557.249,308.377c0.744,0.122,5.316-5.015,10.26-12.084s7.946-13.057,6.965-13.3-5.422,5.637-10.105,12.752S556.5,308.245,557.249,308.377ZM674.937,808.791c1.824,6.283,8.906,11.5,16.067,11.868s11.28-4.434,9.372-11.028c-1.883-6.517-9.039-11.851-16.076-11.945S673.119,802.526,674.937,808.791ZM838.218,361.659c1.609,8.625,8.5,12.187,15.871,8.007s11.859-14.657,10.138-23.72c-1.709-9.025-8.835-12.41-15.989-7.809S836.637,353.154,838.218,361.659Zm-14.445-69.925c1.794,7.986,8.674,10.305,15.755,5.058s11.126-16.068,9.159-24.546c-1.938-8.376-9.05-10.38-15.879-4.745S822,283.794,823.773,291.734ZM219.406,585.587A92.11,92.11,0,0,1,209.15,590.1c-5.54,2.171-9.831,3.537-9.622,3.328s4.762-1.923,10.422-4.172C215.417,587.088,219.531,585.38,219.406,585.587Zm61.022,184.136c-0.675-2.971-5.914-5.856-11.776-6.557-5.842-.7-10.082.944-9.4,3.686,0.694,2.79,5.887,5.67,11.912,6.523C277.044,774.207,281.08,772.6,280.428,769.723Zm36.889-230.259c0.039,0.821-4.478,4.455-10.122,7.8-5.774,3.43-10.662,5.343-10.686,4.517-0.026-.845,4.612-4,10.589-7.544C312.826,540.847,317.276,538.621,317.317,539.464ZM392.6,810.327c-1.1-3.7-6.879-7.253-12.9-7.967-6.16-.726-10.429,1.654-9.386,5.249,1.061,3.644,6.857,7.157,13.293,8C389.775,816.408,393.715,814.088,392.6,810.327ZM170.116,717.843c-0.579-1.983-5.461-3.919-10.781-4.367-5.4-.449-9.544.716-8.9,2.587,0.634,1.839,5.487,3.843,10.927,4.413S170.7,719.844,170.116,717.843Zm-37.982-98.795c-0.357-.546-4.758.008-9.651,1.021-5,1.043-8.947,2.253-8.516,2.8s4.742,0.261,9.773-.795C128.755,621.024,132.5,619.593,132.134,619.048ZM756.1,173.541c2.051,5.194,8.388,4.006,14.151-2.986,5.737-6.95,8.611-17.574,6.3-23.094-2.305-5.5-8.911-3.754-14.238,3.419C756.937,158.121,754.086,168.407,756.1,173.541Zm84.617,387.472c1.48,8.384,8.716,13.843,16.009,12.015,7.313-1.832,12.072-10.581,10.524-19.4-1.536-8.746-8.954-14.314-16.08-12.126C844.072,543.676,839.254,552.688,840.718,561.013ZM808.16,226.308c1.64,7.013,8.512,8.3,14.952,2.557,6.466-5.762,10.247-16.928,8.233-24.283-2-7.309-9.093-7.992-15.24-1.744C810.12,208.919,806.553,219.429,808.16,226.308Zm44.165,209.651c1.566,8.453,8.841,12.847,16.03,9.537,7.164-3.294,11.785-13.667,9.983-22.423-1.763-8.558-8.932-12.686-15.8-9.247C855.486,417.359,850.775,427.568,852.325,435.959ZM242.85,576.619c-0.057.451-4.5,2.954-9.85,5.292-5.524,2.42-10.052,3.842-9.944,3.4s4.562-2.545,9.834-4.882C238.306,578.032,242.91,576.151,242.85,576.619ZM95.225,640.371c-0.371-.957-4.819-1.208-9.7-0.707-4.735.489-8.3,1.5-7.961,2.394,0.35,0.907,4.819,1.408,9.672.942C91.949,642.554,95.587,641.294,95.225,640.371ZM309.282,785.676c-0.824-2.958-6.151-5.947-11.8-6.681-5.822-.757-10.006.961-9.191,3.816,0.789,2.77,6.116,5.868,11.759,6.783C305.857,790.537,310.13,788.706,309.282,785.676ZM113.023,684.752c-0.482-1.5-5.246-2.784-10.407-2.927-5.006-.136-8.707.762-8.25,2.1,0.461,1.361,5.276,2.844,10.4,3.1C109.737,687.279,113.488,686.2,113.023,684.752ZM513.684,842.09c1.446,4.406,7.906,8.719,14.2,9.475s10.392-2.466,8.891-7.017c-1.522-4.632-7.839-8.8-14.222-9.391C516.2,834.563,512.231,837.667,513.684,842.09ZM420.943,466.61c-0.124-1.1,4.237-5.815,9.461-10.66,5.219-4.825,9.636-8.3,9.718-7.231s-4.057,6.237-9.344,11.194C425.477,464.893,421.068,467.711,420.943,466.61ZM534.308,337.272c0.569-.564,4.7-5.716,9.164-11.909,4.573-6.319,7.814-11.709,7.151-11.342s-4.673,6.171-9.212,12.8S533.709,337.853,534.308,337.272ZM391.942,491.305c0.2,1.086-3.96,5.636-9.508,9.955-5.571,4.346-10.019,6.519-10.114,5.325s4.4-5.4,9.781-9.568C387.368,492.953,391.745,490.257,391.942,491.305ZM653.186,833.056c1.726,5.59,8.706,10.649,15.312,11.136,6.433,0.471,10.375-3.66,8.788-9.262-1.655-5.843-8.359-10.855-15.126-11.258C655.336,823.263,651.427,827.368,653.186,833.056Zm-173.5,4.694c-1.37-4.149-7.114-7.883-13.206-8.606-6.337-.752-10.259,1.806-9.048,5.892,1.191,4.01,7.308,8.068,13.455,8.9S481.072,841.935,479.687,837.75ZM143.359,707.659c-0.55-1.788-5.063-3.4-10.328-3.789-5.1-.376-8.583.483-8.085,2.079,0.506,1.612,5.184,3.452,10.308,3.957C140.265,710.4,143.883,709.362,143.359,707.659Zm-32-81.334c-0.266-.672-4.085-0.5-8.753.228-4.9.766-8.448,1.743-8.2,2.421s4.326,0.731,9.066-.022C108.061,628.229,111.619,626.978,111.356,626.325ZM468.008,420.28c-0.071-.99,4.019-5.987,9.009-11.495,4.863-5.359,8.577-9.115,8.468-8.114s-3.837,6.288-8.675,11.783S468.073,421.231,468.008,420.28ZM571.755,848.387c1.419,4.756,7.526,9.171,13.948,10.1,6.548,0.948,10.62-2.454,8.986-7.551-1.6-4.986-7.767-9.327-14.142-9.939S570.334,843.628,571.755,848.387Zm211.454-97.832c1.806,6.991,8.679,12.352,15.5,12.126,6.843-.228,10.652-6.058,8.76-13.444-1.866-7.295-8.731-12.708-15.508-12.2C785.2,737.544,781.379,743.463,783.209,750.555ZM649.054,189.721c1.577,1.823,6.29-2.207,10.665-9.534s6.295-14.886,4.416-16.889-6.53,2.631-10.605,10.113S647.468,187.885,649.054,189.721ZM806.787,715.235c1.6,7.448,8.235,12.981,15.195,12.715s11.134-6.478,9.48-14.193c-1.66-7.744-8.348-13.4-15.211-12.831S805.2,707.855,806.787,715.235ZM676.9,166.111c1.719,2.712,6.6-.563,11.184-7.877s6.615-15.623,4.6-18.526c-2.029-2.93-6.934.926-11.183,8.4S675.193,163.419,676.9,166.111Zm83.062,616.068a16.7,16.7,0,0,0,15.462,11.993c6.683,0.058,10.4-5.041,8.614-11.85-1.762-6.7-8.408-12.14-14.967-12.2C762.34,770.055,758.2,775.554,759.957,782.179ZM622.77,216.165c1.38,1.085,5.823-3.5,10.154-10.95,4.151-7.135,6.031-13.758,4.409-14.955-1.594-1.185-5.916,3.851-9.768,10.936C623.611,208.484,621.409,215.086,622.77,216.165ZM423.653,830.33c-1.146-3.587-6.8-7.155-12.417-7.866-5.787-.733-9.667,1.633-8.45,5.167,1.2,3.473,6.642,6.83,12.559,7.7C421.193,836.2,424.824,834,423.653,830.33ZM342,528.153c0.176,1.035-3.9,4.879-9.1,8.263-5.305,3.458-9.993,5.242-10.075,4.142s4.023-4.409,9.392-7.9S341.819,527.094,342,528.153Zm-75.313,39.6c0.212,0.628-4.05,3.526-9.32,6.059-5.074,2.446-9.457,3.779-9.56,3.153-0.1-.652,3.92-2.974,9.14-5.529C262.247,568.845,266.479,567.13,266.686,567.75Zm71.869,235.5c-0.764-3.016-5.836-6.141-11.293-7-5.53-.868-9.631.9-8.814,3.831,0.808,2.895,5.811,5.932,11.437,6.892C335.551,807.944,339.331,806.31,338.555,803.253ZM866.936,513.016c1.648,8.161,8.236,12.675,15.2,10.327,6.9-2.324,11.022-10.85,9.429-19.517-1.555-8.455-8.436-13.394-15.071-10.906C869.648,495.488,865.263,504.721,866.936,513.016ZM791.185,167c1.757,6.059,7.572,6.3,13.236.291,5.823-6.174,8.907-15.974,7.03-22.408-1.932-6.638-8.164-6.554-13.7-.08C792.487,150.971,789.485,161.113,791.185,167ZM78.677,655.9c-0.5-1.025-4.788-1.705-9.219-1.574-4.474.136-7.9,0.989-7.441,1.956,0.469,0.986,4.536,1.8,9.2,1.719C75.855,657.931,79.186,656.944,78.677,655.9Zm4.215,10.446c-0.45-1.132-4.741-2.044-9.276-2.07s-8.087.786-7.677,1.837c0.415,1.073,4.534,2.094,9.26,2.2S83.349,667.5,82.892,666.349ZM831.14,677.258c1.519,7.515,8.217,13.036,15.049,12.418,6.85-.62,11.052-7.324,9.482-15.173-1.541-7.705-8.5-13.544-15.088-12.655C834.035,662.731,829.651,669.9,831.14,677.258ZM706.611,145.763c1.816,3.376,7.031.626,11.663-6.473,4.674-7.154,6.7-15.93,4.573-19.559-2.088-3.569-7.46-.266-11.721,6.883C706.926,133.675,704.83,142.434,706.611,145.763Zm30.64,665.259c1.465,5.691,8.14,11.061,14.438,11.672,6.528,0.633,10.739-4.039,9.15-10.223-1.531-5.949-8.1-11.33-14.426-11.75C739.887,800.288,735.7,805.024,737.251,811.022ZM598.062,245.064c1.073,0.3,5.258-4.655,9.1-11.171,3.983-6.732,6.223-13.269,4.881-13.684-1.314-.417-5.345,5.04-8.985,11.725C599.3,238.835,596.956,244.745,598.062,245.064Zm264.732,59.164c1.6,7.342,8.106,10.263,14.322,6.259,6.417-4.128,10.518-14.708,8.757-22.655-1.717-7.752-8.277-10.408-14.426-6.013C865.109,286.355,861.145,296.626,862.794,304.228ZM90.969,632.858c-0.221-.7-4.024-0.782-8.378-0.312-4.395.477-7.692,1.3-7.49,1.993,0.194,0.672,4.065.974,8.347,0.53S91.189,633.554,90.969,632.858Zm26.107,65.473c-0.485-1.428-4.753-2.845-9.495-3.234s-8.212.3-7.741,1.618c0.461,1.295,4.839,2.894,9.48,3.384S117.554,699.738,117.076,698.331Zm395.26-330.79c0.365-1.018,4.076-6.063,8.14-11.481,4.183-5.564,7.375-9.9,6.971-9.032-0.417.886-3.948,6.4-8.19,12.268C515.033,365.148,511.95,368.608,512.336,367.541Zm119.4,487.392c1.541,4.819,7.991,9.464,14.021,10.122,5.846,0.636,9.534-2.775,8.144-7.578-1.463-5.06-7.587-9.6-13.824-10.216C633.773,846.639,630.154,849.988,631.734,854.933ZM878.321,380.765c1.576,7.6,7.915,11.372,14.142,8.287,6.384-3.156,10.622-13.073,9.083-21.33-1.572-8.456-7.98-11.936-14.551-8.056S876.657,372.723,878.321,380.765Zm-31.656-148.29c1.865,6.595,8.052,8.278,13.784,3.543,5.894-4.862,9.386-15.466,7.466-22.707-1.968-7.437-8.2-8.683-14.186-3.07C847.763,215.841,844.7,225.482,846.665,232.475ZM74.4,646.657c-0.314-.891-3.826-1.351-8.112-1.171-4.5.189-7.693,0.918-7.4,1.8,0.284,0.861,4.131,1.521,8.448,1.342C71.519,648.456,74.7,647.524,74.4,646.657Zm12.456,30.971c-0.555-1.231-4.587-2.231-9.28-2.4-4.471-.164-7.46.494-6.945,1.614,0.5,1.087,4.491,2.267,8.887,2.547C84.044,679.679,87.4,678.836,86.857,677.628Zm769.711-41.553c1.529,7.395,7.929,12.721,14.26,11.867,6.514-.876,10.657-8.313,9.043-16.267-1.641-8.081-8.112-13.129-14.811-11.575C858.659,621.583,855,628.479,856.568,636.075ZM738.477,128.567c1.974,4.009,7.412,1.963,11.949-4.794,4.4-6.544,6.273-15.526,4.124-19.646-2.206-4.232-7.247-2.02-11.585,4.793C738.414,116.069,736.471,124.487,738.477,128.567Zm-589.32,481.06c-0.105-.087-3.687.841-8.1,1.928s-7.8,1.9-7.63,1.993a63.344,63.344,0,0,0,8.238-1.722A59.2,59.2,0,0,0,149.157,609.627Zm51.881,138.755c-0.565-2-4.9-4.095-9.711-4.769s-8.137.238-7.528,2.12,4.922,4.012,9.86,4.792C198.428,751.279,201.592,750.338,201.038,748.382Zm373.9-472.648c0.8-.172,4.441-5.03,8.27-11.51,3.689-6.235,5.672-11.116,4.687-11.026-1,.087-4.672,5.695-8.154,11.994C576.358,271.311,574.172,275.888,574.936,275.734ZM170.894,603.246c-0.153.133-3.78,1.393-8.117,2.653-4.471,1.3-8.055,2.153-7.9,2.049s3.816-1.111,8.459-2.492C167.8,604.133,171.053,603.106,170.894,603.246Zm57.645,159.233c-0.6-2.091-4.872-4.345-9.58-5.1-4.852-.777-8.411.221-7.844,2.242,0.58,2.063,4.889,4.346,9.957,5.206C225.931,765.649,229.147,764.619,228.539,762.479Zm486.9,75.074c1.649,5.538,7.771,10.15,14.08,10.652,6.075,0.481,9.4-3.3,7.746-8.851-1.676-5.618-8.1-10.57-14.1-10.837C717.334,828.257,713.88,832.316,715.438,837.553ZM368.443,821.924c-0.885-2.931-5.735-5.969-10.8-6.8-5.219-.851-8.848.835-7.985,3.726,0.877,2.943,5.731,5.925,11.2,6.842C366.089,826.572,369.355,824.94,368.443,821.924ZM291.12,559.146c0.194,0.906-3.691,3.989-8.592,6.559-4.729,2.486-8.778,3.658-8.951,2.814-0.181-.877,3.372-3.358,8.215-5.969C286.894,559.8,290.921,558.222,291.12,559.146ZM128.026,615.794c-0.236-.215-3.778.4-7.893,1.225-4.238.853-7.578,1.648-7.355,1.894s3.778-.146,8.208-1.073C125.226,616.959,128.268,616.011,128.026,615.794ZM173.938,735.43c-0.464-1.718-4.59-3.643-9.133-4.319-4.643-.688-8.215.107-7.684,1.761,0.525,1.627,4.588,3.548,9.288,4.32S174.411,737.175,173.938,735.43ZM492.7,857.9c1.231,3.639,6.563,7.181,12.165,8.069s9.05-1.363,7.859-5.149c-1.208-3.849-7.038-7.754-12.486-8.366C494.883,851.854,491.486,854.311,492.7,857.9ZM398.871,492.269c-0.188-1.319,3.4-5.312,8.077-9.329,4.71-4.035,8.5-6.41,8.75-5.161,0.249,1.266-3.5,6.03-8.145,9.991C403.04,491.622,399.053,493.557,398.871,492.269ZM193.424,596.755c-0.1.345-4.044,2.064-8.433,3.51-4.257,1.408-7.82,2.228-7.83,1.967-0.009-.279,3.717-1.638,8.219-3.171C189.905,597.523,193.533,596.4,193.424,596.755Zm63.2,181.075c-0.614-2.23-5.277-4.782-9.978-5.514-4.564-.708-8.022.341-7.6,2.34,0.441,2.08,4.883,4.646,9.761,5.587C253.721,781.19,257.247,780.086,256.625,777.83ZM446.29,448.905c-0.046-1.369,3.612-6,8.044-10.565,4.406-4.526,7.911-7.294,7.783-5.8-0.126,1.428-3.617,6.462-7.712,10.756C450.178,447.736,446.334,450.24,446.29,448.905ZM828.5,166.056c1.933,5.864,7.818,6.2,13.114.521,5.263-5.636,7.821-15.528,5.559-21.518-2.16-5.749-8.087-5.8-12.916-.324C829.279,150.386,826.6,160.295,828.5,166.056Zm64.687,293.766c1.192,7.764,7.424,12.365,13.715,10.052,6.334-2.328,10.388-10.886,8.965-18.965-1.406-7.984-7.964-12.483-14.01-9.7C895.984,443.9,892.043,452.374,893.183,459.822Zm-342.6,406.406c1.127,3.727,6.731,7.707,12.17,8.653,5.69,0.99,9.466-1.577,8.214-5.621-1.2-3.889-6.755-7.87-12.191-8.73C553.259,859.66,549.408,862.355,550.581,866.228Zm-95.032-14.391c-1.1-3.316-6.314-6.654-11.517-7.411-5.188-.754-8.655,1.264-7.595,4.42s6.338,6.6,11.493,7.465S456.634,855.088,455.549,851.837ZM882.269,590.85c1.356,7.15,7.569,12.26,13.562,11.14,6.187-1.154,10.339-8.985,8.756-16.547-1.573-7.5-7.733-12.236-13.79-10.635C884.77,576.4,880.906,583.68,882.269,590.85ZM366.785,517.323c0.106,1.31-3.605,5.268-8.269,8.53-4.647,3.256-8.677,4.724-8.76,3.442s3.757-4.945,8.322-8.171S366.678,516.032,366.785,517.323ZM107.391,621.69c0.016-.381-3.359-0.089-7.278.506-4.115.626-7.381,1.347-7.276,1.735,0.1,0.363,3.524.26,7.408-.341S107.373,622.077,107.391,621.69Zm39.841,101.735c-0.543-1.507-4.586-3.179-8.968-3.776s-7.648,0-7.252,1.381c0.393,1.359,4.43,3.19,8.773,3.918C144.264,725.7,147.785,724.957,147.232,723.425ZM772.126,115.489c1.847,4.266,7.188,3.057,11.591-2.839,4.394-5.881,6.475-14.956,4.524-19.777-1.913-4.742-7.252-3.356-11.527,2.789C772.233,102.105,770.179,110.969,772.126,115.489ZM70.484,638.588c-0.316-.688-3.774-0.963-7.73-0.723s-6.814.906-6.4,1.582c0.392,0.644,3.778,1.077,7.5.874C67.689,640.115,70.792,639.26,70.484,638.588Zm20.386,51.16c-0.329-1.147-4.132-2.357-8.418-2.751-4.316-.394-7.4.1-6.948,1.187s4.4,2.414,8.574,2.848C88.114,691.454,91.186,690.847,90.87,689.748Zm125.485-99.329c0.035,0.537-3.3,2.349-7.694,4-4.416,1.659-7.8,2.4-7.818,1.9s3.36-2.079,7.676-3.737C212.79,590.936,216.321,589.888,216.355,590.419Zm68.524,203.889c-0.682-2.344-4.831-4.729-9.534-5.532s-7.751.27-7.1,2.509c0.639,2.2,4.9,4.741,9.511,5.628C282.4,797.807,285.562,796.639,284.879,794.308Zm206.4-395.546c0.178-1.306,3.263-5.774,6.971-10.452,3.849-4.846,6.647-7.863,6.435-6.586s-3.28,6.306-7.027,11.124S491.088,400.132,491.28,398.762ZM694,861.74c1.565,4.567,7.031,8.649,12.488,9.369,5.658,0.745,8.883-2.519,7.29-7.427s-7.214-9.169-12.807-9.647S692.345,856.924,694,861.74Zm-140.908-553.5c0.555-.694,3.773-5.478,7.17-11.059,3.293-5.4,5.3-9.374,4.661-8.848-0.67.547-3.651,5.572-6.922,11.236C554.713,305.262,552.526,308.935,553.087,308.243Zm57.619,566.589c1.413,3.981,6.6,7.676,11.942,8.516,5.527,0.871,8.766-1.781,7.33-6.049s-6.841-8.151-12.265-8.781S609.226,870.654,610.706,874.832ZM57.34,660.94c-0.389-.859-3.754-1.58-7.557-1.7-3.948-.118-6.764.419-6.305,1.276,0.442,0.82,3.78,1.614,7.713,1.757C55.095,662.423,57.74,661.815,57.34,660.94Zm29.523-33.82c-0.2-.434-3.39-0.389-6.949-0.012-3.534.379-6.421,1-6.258,1.44s3.216,0.562,6.92.157C84.307,628.3,87.072,627.558,86.864,627.12Zm33.692,85.274c-0.473-1.271-4.269-2.759-8.244-3.291s-6.988-.029-6.551,1.142c0.445,1.192,4.065,2.687,8.231,3.339S121.041,713.686,120.556,712.394ZM53.624,651.728c-0.289-.749-3.754-1.37-7.332-1.387s-6.487.556-6.126,1.272c0.372,0.739,3.708,1.417,7.487,1.446C51.25,653.089,53.909,652.465,53.624,651.728Zm7.622,19.3c-0.281-.882-3.846-1.826-7.591-2.069-3.714-.239-6.751.239-6.394,1.065s3.639,1.771,7.386,2.084C58.584,672.435,61.532,671.925,61.247,671.024ZM903.652,320.559c1.13,7.133,6.826,10.492,12.441,7.236,5.436-3.155,8.84-11.412,7.65-18.643-1.2-7.286-7.162-10.708-12.554-7.306C906.061,305.08,902.575,313.758,903.652,320.559Zm-16.918-77.611c1.785,6.187,7.23,7.946,12.4,3.853,5.334-4.217,8.256-13.5,6.315-20.129-1.846-6.309-7.678-8.018-12.5-3.812C887.872,227.286,884.946,236.745,886.734,242.948ZM315.992,551.037c-0.033,1.182-3.58,4.339-7.736,6.685-4.174,2.363-7.879,3.346-7.962,2.291-0.085-1.079,3.359-3.874,7.561-6.325C312.225,551.144,316.025,549.813,315.992,551.037ZM399.035,841.99c-0.988-2.7-5.649-5.59-10.119-6.313-4.494-.724-7.684.824-6.894,3.352,0.8,2.571,5.3,5.486,9.911,6.4C396.726,846.389,400.054,844.772,399.035,841.99ZM808.108,106.357c1.863,4.468,7.105,3.8,11.218-1.605s5.9-14.423,3.756-18.9c-2.2-4.594-7.334-3.354-11.344,2.531C807.908,94,806.291,101.987,808.108,106.357ZM908.949,542c1.292,6.8,7.171,11.4,12.605,9.814,5.227-1.523,8.781-8.591,7.723-15.4-1.1-7.126-6.831-11.77-12.419-10.1C911.252,527.987,907.646,535.155,908.949,542ZM660.92,144.5c1.552,0.944,5.253-2.852,8.092-8.546,2.942-5.883,4.017-12.449,2.3-13.773-1.721-1.34-5.493,3-8.251,9.2C660.3,137.612,659.3,143.5,660.92,144.5ZM825.543,782.6c1.19,5.437,7.078,10.532,12.45,10.829,5.354,0.3,8.851-4.4,7.451-10.069-1.406-5.714-7.188-10.556-12.627-10.527C827.585,772.853,824.358,777.206,825.543,782.6ZM688.537,117.024c1.755,1.675,5.925-1.925,8.92-7.954,2.888-5.8,3.8-12.484,2-14.446-1.87-2.059-5.9,1.7-8.81,7.98C687.724,108.92,686.76,115.321,688.537,117.024ZM849.365,748.355c1.317,5.81,7.206,10.864,12.573,10.828,5.156-.037,8.537-4.879,7.435-10.7-1.141-6.024-6.823-11.142-12.338-11.059C851.452,737.507,848.021,742.419,849.365,748.355ZM313.89,812.11c-0.721-2.314-4.828-4.7-9.328-5.479-4.282-.737-7.045.326-6.373,2.475,0.653,2.087,4.672,4.6,8.851,5.5C311.353,815.542,314.591,814.353,313.89,812.11ZM240.181,584.262c0.042,0.721-3.063,2.719-7.1,4.407-4.269,1.79-7.559,2.473-7.585,1.746-0.02-.686,3.165-2.506,7.062-4.178C236.544,584.533,240.137,583.528,240.181,584.262ZM635.2,174.7c1.32,0.514,4.7-3.518,7.441-9.154,2.814-5.757,3.9-11.66,2.345-12.281-1.542-.619-4.742,3.678-7.354,9.586C634.868,169.1,633.789,174.143,635.2,174.7ZM802.612,814.324c1.434,5.075,6.866,9.63,12.04,10.138,5.288,0.521,8.661-3.753,7.163-9.127-1.481-5.309-6.74-9.722-12.023-10.042C804.206,804.955,801.085,808.9,802.612,814.324ZM920.236,403.187c1.151,7.03,6.268,10.81,11.6,8.492,5.107-2.22,8.4-9.553,7.381-16.48-1.1-7.455-6.06-11.261-11.43-8.847C922.4,388.774,919.087,396.177,920.236,403.187ZM867.987,168.611c1.659,5.535,6.339,6.717,10.917,2.614,4.711-4.219,7.18-12.68,5.437-18.732-1.77-6.161-6.714-7.157-11.311-2.442S866.253,162.811,867.987,168.611ZM718.25,92.144c1.816,2.649,5.748.26,8.984-5.67,3.093-5.665,4.058-12.445,2.149-15.081-2.042-2.825-5.968-.11-9,6C717.462,83.276,716.532,89.635,718.25,92.144Zm156.125,619.1c1.489,5.891,6.773,10.258,11.92,9.867,5.374-.407,8.3-5.749,6.686-12.214-1.528-6.106-6.733-10.418-11.913-9.859C875.7,699.624,872.781,704.952,874.375,711.249ZM64.728,681.589c-0.363-.866-3.514-1.832-7-2.2-3.626-.381-6.282-0.023-5.832.835,0.437,0.836,3.5,1.814,7.157,2.235C62.686,682.874,65.1,682.482,64.728,681.589ZM49.8,643.408c-0.26-.612-3.118-1.044-6.344-1.026-3.353.021-5.881,0.509-5.558,1.141,0.317,0.614,3.09,1.105,6.488,1.08C47.759,644.577,50.065,644.04,49.8,643.408ZM532.3,342.262c0.3-.987,2.917-5.258,5.95-10.024,3.049-4.781,5-7.844,4.578-6.858-0.413.953-3.069,5.8-5.85,10.36C534.22,340.265,532.009,343.208,532.3,342.262Zm79-134.88c1.062,0.093,4.024-4.062,6.677-9.663s3.663-10.13,2.334-10.106c-1.233.016-4.136,4.5-6.441,9.682C611.5,202.627,610.268,207.287,611.295,207.382ZM94.15,702.2c-0.352-1-3.752-2.275-7.266-2.766s-6.237-.133-5.814.811,3.461,2.129,7.046,2.72C91.885,703.586,94.512,703.233,94.15,702.2ZM66.562,632.042c-0.055-.473-2.819-0.669-5.978-0.5-3.11.167-5.784,0.669-5.681,1.135s2.8,0.766,6.125.567C64.236,633.053,66.617,632.505,66.562,632.042ZM672.734,883.4c1.47,3.757,6.216,7.112,11.026,7.817,5.029,0.737,7.793-1.788,6.336-5.822-1.41-3.9-6.743-7.774-11.384-8.233C674.03,876.7,671.251,879.611,672.734,883.4ZM780.3,843.075c1.587,4.746,6.775,8.628,11.925,8.957,4.865,0.311,7.465-2.993,6.023-7.692-1.456-4.734-6.956-9.164-11.764-9.421C781.652,834.658,778.763,838.479,780.3,843.075ZM425.42,477.835c-0.344-1.193,2.552-5.079,6.194-8.559,3.514-3.351,6.515-5.233,6.8-4.062s-2.575,5.475-6.1,8.865C428.976,477.3,425.746,478.972,425.42,477.835Zm104.449,404.47c1.13,2.936,5.63,5.958,10.066,6.755s7.33-.949,6.446-3.932c-0.9-3.037-5.769-6.469-10.2-7.182S528.721,879.319,529.869,882.305Zm-138.894-374.9c0.114,1.338-2.91,5.06-6.535,7.834-3.64,2.791-6.983,3.961-7.089,2.653-0.108-1.33,2.949-4.748,6.6-7.571S390.863,506.073,390.975,507.407ZM487.86,874.618c-0.879-2.716-5.323-5.706-9.577-6.452s-7.2.89-6.348,3.519,5.3,5.629,9.564,6.45S488.736,877.32,487.86,874.618ZM750.3,71.579c1.809,2.745,6.125.495,9.1-4.91,2.846-5.174,3.683-12.19,1.8-14.985-2.01-2.978-6.134-.492-9.065,5.278C749.327,62.484,748.519,68.866,750.3,71.579Zm149.376,598.16c1.362,5.845,6.826,10.3,11.617,9.469,4.595-.8,7.555-6.452,6.294-12.046-1.382-6.124-6.548-10.257-11.625-9.3C901.177,658.768,898.363,664.1,899.679,669.739ZM589.816,892.294c1.06,3.13,5.483,6.317,9.833,7.1,4.326,0.778,7.048-1.216,5.972-4.4-1.1-3.254-5.349-6.3-9.818-7.024C591.311,887.243,588.741,889.111,589.816,892.294ZM471,430.758c-0.051-1.318,2.488-5.23,5.565-8.847,3.067-3.591,5.585-5.652,5.59-4.354,0,1.322-2.346,5.329-5.49,9.076C473.509,430.4,471.041,432.1,471,430.758ZM343.214,831.377c-0.431-2.127-3.813-4.4-7.788-5.259-3.8-.818-6.406.016-6.027,1.934,0.4,2.03,3.814,4.366,7.772,5.3C340.939,834.236,343.616,833.361,343.214,831.377Zm-78.87-252.7c0.015,0.885-2.689,2.9-6.207,4.5s-6.369,2.153-6.548,1.376c-0.19-.823,2.571-2.735,6.195-4.424S264.333,577.738,264.344,578.676Zm494.15,289.766c1.193,4.028,5.493,7.551,10.07,8.293,4.844,0.784,7.473-1.9,6.049-6.221a13.149,13.149,0,0,0-10.269-8.213C759.921,861.775,757.328,864.512,758.494,868.442ZM589.176,241.973c0.761-.312,3.088-3.979,5.421-8.782,2.47-5.074,3.564-8.809,2.559-8.371-0.952.411-3.313,4.558-5.449,9.309S588.433,242.273,589.176,241.973ZM176.763,753.079c-0.365-1.3-3.3-2.844-6.7-3.559-3.557-.746-6.05-0.319-5.608.99,0.422,1.247,3.394,2.8,6.861,3.559C174.8,754.828,177.132,754.394,176.763,753.079ZM123.946,615.328c-0.1.032-2.72,0.591-5.85,1.159-2.987.543-5.155,0.884-5,.867s2.586-.414,5.636-1C121.8,615.776,124.04,615.3,123.946,615.328Zm812.5-126.766c1.022,6.2,5.344,9.836,10.108,8.474,4.8-1.371,7.735-7.215,6.814-13.582-0.964-6.645-5.688-10.612-10.484-8.844C938.29,476.3,935.444,482.482,936.443,488.562ZM145.282,611.183a30.011,30.011,0,0,1-5.683,1.642,27.675,27.675,0,0,1-5.494.925,37.121,37.121,0,0,1,5.479-1.466C142.9,611.509,145.388,610.984,145.282,611.183Zm58.763,156.64c-0.356-1.4-3.35-3.089-6.776-3.844s-6-.333-5.773.959c0.231,1.329,3.036,3,6.569,3.876C201.811,769.748,204.422,769.307,204.045,767.823ZM846.458,101.2c1.783,4.667,6.1,4.582,9.944-.345,3.642-4.673,4.92-11.6,2.969-16.124-1.9-4.4-6.23-4.14-9.708.45S844.782,96.8,846.458,101.2ZM103.287,619.414a45.635,45.635,0,0,0-5.441.605,29.2,29.2,0,0,0-5.011.881,31.355,31.355,0,0,0,5.587-.525A26.16,26.16,0,0,0,103.287,619.414ZM340.7,543.47c0.375,1.024-2.152,3.827-5.614,6.07-3.4,2.207-6.633,3.1-6.919,2.043-0.3-1.08,2.313-3.625,5.89-5.908C337.5,543.483,340.337,542.484,340.7,543.47Zm89.379,320.056c-0.714-2.33-4.575-4.914-8.381-5.626s-6.387.612-5.613,2.876c0.788,2.31,4.506,4.7,8.549,5.466C428.429,866.967,430.779,865.8,430.079,863.526ZM149.924,739.4c-0.384-1.147-3.549-2.661-6.771-3.27-3.268-.616-5.664-0.229-5.2.873,0.444,1.07,3.285,2.461,6.54,3.175C147.914,740.927,150.318,740.57,149.924,739.4Zm17.39-132.281c-0.082.331-2.842,1.4-5.825,2.183s-5.525,1.123-5.3.79,2.752-1.189,5.6-1.973C164.778,607.3,167.393,606.783,167.314,607.116ZM32.284,655.493c-0.244-.562-2.961-1.175-5.745-1.334s-5.028.164-4.678,0.711,2.858,1.164,5.54,1.351C30.221,656.42,32.525,656.057,32.284,655.493Zm3.377,8.948c-0.246-.6-3.038-1.319-5.881-1.557s-5.133.043-4.771,0.621,2.934,1.291,5.674,1.562C33.567,665.354,35.908,665.044,35.661,664.441ZM231.732,783.679c-0.308-1.381-3.606-3.282-6.882-4s-5.876-.148-5.433,1.2c0.434,1.313,3.453,3.09,6.63,3.881C229.4,785.6,232.047,785.089,231.732,783.679ZM46.195,636.165c-0.257-.418-2.561-0.694-5.169-0.666s-4.586.358-4.439,0.787,2.439,0.8,4.985.786C44.228,637.056,46.458,636.6,46.195,636.165Zm879.989-11.877c0.937,5.185,5.351,9.245,9.55,8.8,4.367-.457,7.39-6,6.254-11.5-1.1-5.322-5.5-9.034-9.777-8.246C927.9,614.142,925.229,619.008,926.184,624.288ZM784.8,54.331c1.783,2.933,5.841,1.309,8.54-3.555,2.586-4.653,3.2-11.188,1.321-13.87-1.925-2.751-5.607-1-8.23,3.776C783.8,45.49,783.078,51.494,784.8,54.331ZM67.867,692.609c-0.267-.719-2.887-1.654-5.824-2.112-2.967-.463-5.18-0.325-5.017.341,0.169,0.683,3.038,1.776,6.023,2.258C65.886,693.556,68.13,693.315,67.867,692.609ZM82.823,623.35c-0.128-.2-2.246-0.105-4.935.148-2.549.241-4.339,0.522-4.3,0.729s2.191,0.23,4.747-.02S82.947,623.54,82.823,623.35ZM123.1,726.673c-0.328-.987-2.913-2.149-6.04-2.752s-5.069-.349-4.642.624c0.381,0.874,3,2.112,5.8,2.725C121.166,727.915,123.415,727.629,123.1,726.673ZM929.4,257.479c1.292,4.929,5.39,6.924,9.121,4.361,3.908-2.684,6.182-9.695,4.892-15.156-1.334-5.649-5.4-7.4-9.491-4.178C929.857,245.711,927.964,252,929.4,257.479ZM512.77,376.9c0.119-1.1,2.048-4.528,4.4-8.023,2.34-3.477,4.078-5.562,3.952-4.567-0.141,1.1-2.024,4.776-4.49,8.506C514.292,376.359,512.644,378.019,512.77,376.9ZM651.961,902.313c0.924,3,4.91,5.958,8.864,6.6,3.774,0.614,5.916-1.178,4.872-4.1-1.073-3-4.674-5.7-8.529-6.374S651.08,899.452,651.961,902.313ZM38.756,673.888c-0.078-.571-2.367-1.322-5.033-1.678-2.626-.349-4.807-0.2-4.664.34,0.146,0.564,2.394,1.305,5.2,1.683C36.938,674.594,38.83,674.438,38.756,673.888Zm529.78-395.462a83.907,83.907,0,0,0,4.305-7.918c2.077-4.188,3.141-6.944,2.534-6.317-0.591.607-2.611,4.55-4.438,8.457C569.121,276.539,567.987,279.162,568.536,278.426ZM28.794,647.2c-0.053-.481-2.187-0.967-4.671-1.1-2.45-.128-4.5.141-4.395,0.609,0.109,0.488,2.19.983,4.828,1.112C27.058,647.941,28.843,647.666,28.794,647.2ZM947.111,341.944c0.785,5.318,4.259,8.138,8.178,6.6,4.27-1.678,6.977-7.253,6.254-12.952-0.71-5.612-4.64-8.809-8.6-7.042C949.056,330.282,946.322,336.586,947.111,341.944ZM909.433,175.786c1.233,4.944,5.007,6.27,8.764,3a14.956,14.956,0,0,0,4.276-13.859c-1.157-5.045-5.135-6.674-8.7-3.64C910.261,164.277,908.246,171.03,909.433,175.786ZM737.246,892.124c1.139,3.135,4.749,5.883,8.577,6.552,4.091,0.716,6.3-1.216,5.188-4.572-1.069-3.23-5.224-6.492-8.953-7S736.092,888.95,737.246,892.124ZM189.783,603.382c-0.072.446-2.494,1.627-5.08,2.412-2.739.833-5.206,1.116-5.018,0.647s2.478-1.448,5.267-2.31C187.718,603.278,189.856,602.914,189.783,603.382Zm69.754,197.254c-0.247-1.354-3.343-3.263-6.321-3.916-2.829-.62-5.094-0.058-4.766,1.193,0.342,1.306,3.032,2.966,6.075,3.734C257.6,802.424,259.783,801.979,259.537,800.636Zm29.506-227.1c0.243,0.777-1.857,2.651-4.7,4.1-2.9,1.481-5.287,1.945-5.506,1.157-0.21-.751,2.032-2.626,4.7-4.017C286.191,573.4,288.806,572.777,289.043,573.536ZM373.025,851.38c-0.477-1.674-3.227-3.484-6.337-4.176-3.139-.7-5.108.007-4.629,1.662,0.454,1.573,3.423,3.573,6.322,4.257S373.478,852.976,373.025,851.38ZM62.787,626.987c0.014-.253-1.72-0.338-3.992-0.241-2.307.1-4,.328-4.013,0.587s1.839,0.411,3.977.317C60.863,627.558,62.775,627.227,62.787,626.987Zm33.862,87.918c-0.117-.715-2.247-1.677-4.918-2.244-2.711-.573-4.614-0.507-4.483.174,0.125,0.65,2.412,1.731,4.924,2.3C94.64,715.706,96.76,715.588,96.649,714.905ZM953.8,575.221c0.81,4.5,3.8,7.324,7.3,6.881,3.767-.476,5.97-4.363,5.237-9.276-0.714-4.776-4.151-8.072-7.662-7.348S952.966,570.6,953.8,575.221ZM821.766,41.064c1.492,2.71,4.2,2.229,6.605-1.251,2.591-3.745,3.342-8.776,1.757-11.893-1.541-3.028-4.683-2.391-6.984,1.339S820.23,38.273,821.766,41.064Zm-407.732,457.8c0.177,1.008-1.574,3.626-3.829,5.623-2.371,2.1-4.71,2.926-4.812,1.787-0.1-1.093,1.724-3.52,4.092-5.555S413.85,497.83,414.034,498.865Zm95.632,397.248c0.574,1.816,3.4,3.8,6.37,4.469,3,0.679,4.946-.215,4.454-2.061-0.508-1.916-3.72-4.206-6.681-4.762C511.053,893.241,509.106,894.35,509.666,896.113ZM887.225,100.789c1.26,3.376,4.469,3.721,7.177.713,2.723-3.027,3.934-8.351,2.7-11.971-1.2-3.55-4.494-4.134-7.124-1.321C887.24,91.147,885.907,97.256,887.225,100.789Zm77.389,330.683c0.9,4.342,4.273,6.723,7.59,5.341s5.347-6.092,4.552-10.616c-0.829-4.727-4.7-7.5-7.966-5.74C965.678,422.135,963.735,427.26,964.614,431.472ZM451.546,462.918c-0.138-.888,1.5-3.593,3.42-5.744,2.085-2.33,4.127-3.694,4.368-2.828,0.233,0.836-1.474,3.861-3.528,6.136C453.769,462.74,451.7,463.885,451.546,462.918ZM871.283,818.267c0.824,3.176,4.516,6.315,7.643,6.522s5.1-2.613,4.09-5.863c-1.028-3.288-4.779-6.32-7.817-6.3C872.356,812.648,870.515,815.309,871.283,818.267ZM213.06,600.023c-0.03.513-2.166,1.733-4.446,2.489s-4.316.943-4.156,0.418c0.167-.544,2.343-1.664,4.626-2.426C211.19,599.8,213.087,599.555,213.06,600.023ZM569.5,908.2c0.742,1.788,3.709,3.832,6.428,4.43,2.918,0.642,4.975-.5,4.325-2.423-0.638-1.885-3.946-4.184-6.745-4.69C570.675,905.007,568.72,906.32,569.5,908.2ZM667.877,96.669c1.127,0.287,3.214-2.31,4.511-5.7,1.4-3.635,1.553-7.5.334-8.045-1.2-.542-3.508,2.481-4.729,6.092C666.764,92.666,666.692,96.362,667.877,96.669Zm27.285-31.747c1.281,0.817,3.774-1.851,5.154-5.622,1.288-3.507,1.293-7.409.025-8.213-1.361-.863-3.851,1.977-5.135,5.753C694.006,60.371,693.98,64.163,695.162,64.921ZM287.837,818.684c-0.2-1.141-2.788-2.793-5.3-3.388-2.333-.553-4.243-0.124-4.065.918,0.191,1.1,2.782,2.768,5.306,3.4C286.133,820.2,288.024,819.765,287.837,818.684Zm607.177-34.3c0.742,3.4,4.485,6.7,7.65,6.768,2.96,0.064,4.923-2.732,4.214-6.013-0.75-3.482-4.462-6.8-7.628-6.809C896.3,778.319,894.307,781.168,895.014,784.382ZM41.5,683.5c-0.057-.432-1.864-1.088-3.965-1.455-2.121-.371-3.759-0.344-3.676.077,0.08,0.4,2,1.125,3.97,1.494S41.561,683.919,41.5,683.5ZM25.492,639.513c-0.169-.327-1.861-0.635-3.724-0.7s-3.242.131-3.067,0.468,1.9,0.692,3.68.75C24.125,640.086,25.652,639.823,25.492,639.513Zm436.054,246.6c-0.36-1.574-2.854-3.355-5.577-3.978-2.746-.63-4.493.131-3.977,1.728,0.5,1.546,3.236,3.421,5.776,3.955C460.136,888.32,461.872,887.54,461.545,886.116ZM848.486,849.03c0.9,2.927,4.374,5.826,7.254,6.056a3.571,3.571,0,0,0,3.774-4.678,8.908,8.908,0,0,0-7.027-6.207C849.357,843.838,847.562,846.008,848.486,849.03ZM365.184,537.3c0.128,0.884-1.481,2.865-3.624,4.4-2.346,1.68-4.462,2.278-4.7,1.4-0.224-.851,1.635-3.041,3.817-4.567S365.049,536.376,365.184,537.3ZM642.777,131.054c1.028,0.032,3-2.892,4.149-6.262,1.128-3.294,1.138-6.459.041-6.364s-2.777,2.8-3.889,6.115C641.874,128.129,641.734,131.018,642.777,131.054Zm73.978,782.135c0.862,2.258,3.714,4.388,6.451,4.838,2.755,0.451,4.216-.977,3.341-3.279a8.407,8.407,0,0,0-6.427-4.782C717.274,909.526,715.871,910.875,716.755,913.189ZM549.436,315.752c0.338-.867,1.725-3.626,3.109-6.313,1.393-2.705,2.154-4.178,1.771-3.309s-1.65,3.574-3.063,6.4C549.845,315.346,549.086,316.647,549.436,315.752ZM920.142,747.333c0.776,3.479,3.645,6.215,6.541,6.252s4.563-2.681,3.779-6.219c-0.795-3.573-3.557-6.209-6.516-6.186S919.359,743.832,920.142,747.333Zm-195.08-711.5c1.317,1.183,3.441-.455,4.849-3.811s1.433-7,.041-8.225c-1.409-1.242-3.459.463-4.819,3.937S723.735,34.643,725.062,35.836ZM70.024,703.738c-0.039-.487-1.675-1.218-3.686-1.652s-3.48-.385-3.282.112c0.189,0.47,1.7,1.122,3.661,1.562S70.057,704.19,70.024,703.738ZM42.577,630.12a6.963,6.963,0,0,0-3.025-.391c-1.677-.006-2.982.178-2.867,0.426,0.109,0.232,1.376.416,3.026,0.417C41.492,630.573,42.726,630.368,42.577,630.12ZM494,412.306c0.108-1.048,1.434-3.443,3.068-5.653s2.785-3.169,2.717-2.191c-0.073,1.027-1.591,3.979-3.188,6.087C495.1,412.521,493.892,413.309,494,412.306ZM619.727,167.98c0.682-.161,2.089-2.5,3.1-5.228,1.118-3.007,1.412-5.567.656-5.583-0.706-.018-2.365,2.838-3.3,5.618C619.262,165.518,619.025,168.144,619.727,167.98ZM826.444,877.134a8.351,8.351,0,0,0,6.621,4.653c2.328,0.081,3.592-1.69,2.792-3.919-0.841-2.337-4.1-4.874-6.474-5.02A2.944,2.944,0,0,0,826.444,877.134ZM631.573,919.878c0.571,1.683,3.3,3.6,5.8,4.07,2.3,0.434,3.816-.47,3.4-2.044-0.422-1.613-3.228-3.757-5.606-4.285C632.868,917.109,631.028,918.268,631.573,919.878ZM10.164,657.777c0-.273-1.446-0.721-2.977-0.936-1.618-.225-3.262-0.168-3.257.125,0,0.27,1.425.727,2.982,0.95C8.63,658.164,10.172,658.092,10.164,657.777Zm747.4-646.932c1.126,0.953,3.194-.416,4.278-2.873,1.181-2.673,1.118-6.611-.128-7.677s-3.029.274-4.218,3.112C756.178,6.54,756.205,9.7,757.561,10.845Zm188.311,695.6c0.553,2.971,3.418,5.728,5.739,5.53,2.138-.182,3.64-2.851,3.152-5.615-0.572-3.245-3.049-5.559-5.7-5.323C946.635,701.249,945.32,703.479,945.872,706.44ZM7.074,649.627c-0.008-.293-1.012-0.589-2.513-0.755s-2.552-.094-2.552.184,1.125,0.618,2.528.779S7.083,649.9,7.074,649.627Zm306.593-80.056c0.212,0.665-.846,1.818-2.662,2.855s-3.239,1.29-3.447.652c-0.2-.612,1-1.86,2.682-2.834S313.466,568.949,313.667,569.571Zm89.5,303.008c-0.35-1.143-2.012-2.3-3.987-2.765s-3.143.006-2.809,1.123c0.32,1.081,2.121,2.349,4,2.81S403.494,873.679,403.163,872.579ZM236.771,597.3c0.115,0.485-1.074,1.362-2.829,2.039s-3.078.783-3.109,0.274,1.315-1.4,3.032-2.014C235.542,597,236.655,596.814,236.771,597.3Zm79.616,240.422c-0.275-.981-1.886-2.037-3.786-2.492s-3-.064-2.629.934c0.324,0.866,1.84,1.879,3.528,2.349C315.369,839.029,316.654,838.676,316.387,837.718ZM12.7,666.118c-0.04-.312-1.117-0.678-2.7-0.926s-2.667-.222-2.634.07,1.238,0.706,2.714.948S12.736,666.409,12.7,666.118Zm969.632-143.96c0.648,2.921,2.789,4.79,4.921,4.3,2.366-.549,3.792-3.707,3.182-7.062-0.618-3.426-2.871-5.345-5.273-4.5S981.569,518.754,982.328,522.158ZM861.334,32.369c1.156,2.134,3.382,1.851,4.908-.881,1.5-2.681,1.9-5.378.766-7.7-1.155-2.361-3.2-2.2-4.874.375C860.482,26.7,860.151,30.185,861.334,32.369ZM974.115,277.062c0.744,2.917,2.838,4.11,4.95,2.8,2.137-1.325,3.243-4.474,2.686-7.672-0.614-3.547-2.809-5.1-5.074-3.609C974.441,270.05,973.3,273.849,974.115,277.062Zm18.064,92.778c0.684,3.045,2.785,4.551,4.976,3.542,2.212-1.019,3.415-4.02,2.935-7.319-0.532-3.657-2.725-5.546-5.076-4.383C992.694,362.828,991.426,366.486,992.179,369.84Zm-38.686-181.7c0.719,3.19,3,4.228,5.191,2.348a8.044,8.044,0,0,0,2.155-7.963c-0.825-3.3-3.073-4.341-5.17-2.426A8.78,8.78,0,0,0,953.493,188.141Zm-23.958-82.6c0.872,2.957,3.126,3.573,5.162,1.375a8.4,8.4,0,0,0,1.661-8.075c-0.975-3.049-3.224-3.661-5.149-1.447A9.21,9.21,0,0,0,929.535,105.54Z" transform="translate(-2)"/>
</svg>
