<svg xmlns="http://www.w3.org/2000/svg" width="1000" height="942.032" viewBox="0 0 1000 942.032">
  <defs>
    <style>
      .cls-1 {
        fill: #a6b4bf;
        fill-rule: evenodd;
      }
    </style>
  </defs>
  <path class="cls-1" d="M574.176,413.273c-3.928,4.811-3.372,12.264,1.23,16.857a10.77,10.77,0,0,0,16.012-.766,12.022,12.022,0,0,0-1.443-16.88C585.015,408.217,578.022,408.561,574.176,413.273Zm16.912,41.86c4.757-5.235,4.9-13.28.3-17.878-4.52-4.517-11.485-4.109-15.747.856-4.345,5.063-4.554,12.844-.5,17.709C579.14,460.629,586.347,460.353,591.088,455.133Zm-22.866-24.75a12.353,12.353,0,0,0-1.481-16.921c-4.811-4.3-11.5-4.082-15.212.531-3.782,4.7-3.307,12.177,1.138,16.908A10.174,10.174,0,0,0,568.222,430.383ZM614.163,412c-5.021-4.463-12.36-4.355-16.4.253-4.153,4.73-3.638,12.2,1.038,16.842a11.369,11.369,0,0,0,16.277-.2A11.755,11.755,0,0,0,614.163,412Zm-27.345-22.8c-5.221-4.093-12.28-3.93-15.887.481-3.627,4.432-2.67,11.487,2.134,15.849,4.876,4.437,12.142,4.207,16.13-.4C593.162,400.553,592.088,393.335,586.818,389.2ZM552.17,456.3c3.859,4.921,11.055,4.807,15.722-.314,4.612-5.061,4.8-12.984.475-17.535a10.226,10.226,0,0,0-15.572.5C548.645,443.763,548.341,451.417,552.17,456.3Zm-3.872-66c-3.29,4.4-2.236,11.632,2.431,16.078,4.623,4.409,11.52,4.191,15.222-.369,3.758-4.629,2.614-11.948-2.439-16.15C558.428,385.628,551.686,385.767,548.3,390.3Zm50.633,46.987c-4.336,4.981-4.516,12.843-.516,17.714,3.966,4.824,11.167,4.764,16.022-.2,4.937-5.056,5.285-13.371.647-18.123A10.79,10.79,0,0,0,598.931,437.284Zm-27.547,45.263c3.173,5.166,10.461,5.141,15.873-.227,5.369-5.317,6.671-13.818,2.865-18.652-3.828-4.876-10.87-4.56-15.7.534S568.242,477.427,571.384,482.547Zm23.228-93.5c-3.851,4.27-2.886,11.268,2.043,15.592,4.984,4.375,12.594,4.25,16.728-.171,4.067-4.352,3.156-11.325-2.116-15.472C605.966,384.816,598.437,384.792,594.612,389.043Zm-63.985,41.364c4.105,4.991,11.118,5.142,15.045.356,3.916-4.766,3.275-12.3-1.26-16.782-4.565-4.508-11.017-4.675-14.586-.352S526.556,425.467,530.627,430.407Zm14.237,25.984c4.669-4.65,5.031-12.6.922-17.354s-10.836-5.006-14.956-.644a14.238,14.238,0,0,0-1.152,17.2C533.222,460.7,540.151,461.092,544.864,456.391Zm18.994,26.483c5.439-4.946,6.92-13.374,3.266-18.288-3.633-4.891-10.683-4.845-15.5-.065-4.864,4.838-6.378,12.8-3.344,17.993C551.295,487.666,558.334,487.905,563.858,482.874Zm58.366-70.92c-4.32,4.313-3.981,11.793.534,16.63a11.881,11.881,0,0,0,16.689.824c4.686-4.328,4.584-11.893-.424-16.633C634.127,408.121,626.429,407.749,622.224,411.954Zm-55.478-44.518c-3.444,4.072-2.078,11.043,2.979,15.077,5.008,4.006,12.03,3.727,15.732-.415,3.755-4.208,2.516-10.828-2.756-14.776S570.2,363.342,566.746,367.436ZM529.19,405.794c4.3,4.706,10.779,4.894,14.349.525,3.617-4.42,2.618-11.744-2.053-16.228-4.66-4.466-11.083-4.842-14.29-.71S524.833,401.029,529.19,405.794Zm81.02,76.678c5.521-5.21,7.046-13.941,3.237-19.052-3.733-5.029-10.86-4.933-15.686.039-4.942,5.093-6.339,13.48-3.236,18.77C597.623,487.5,604.687,487.685,610.21,482.472Zm11.747-27.784c3.848,5.183,11.043,5.632,16.151.9s5.778-12.867,1.3-17.988a11.089,11.089,0,0,0-16.294-.775A14.249,14.249,0,0,0,621.957,454.688ZM559.288,367.3c-5.05-4.03-11.75-4.134-14.9-.017-3.077,4.022-1.84,11.046,2.8,15.321,4.759,4.393,11.548,4.237,15.017-.134S564.333,371.334,559.288,367.3Zm-33.769,114.26c3,5.288,10.052,5.695,15.515.744,5.359-4.85,6.648-12.757,3.05-17.612-3.626-4.89-10.55-5.068-15.3-.554C524.134,468.574,522.587,476.4,525.519,481.558Zm111.2-91.492c-5.339-4.4-13.394-4.829-17.407-.826-3.945,3.923-2.966,10.833,1.974,15.175,5.056,4.443,12.649,4.675,17.065.62C642.677,401.049,642.036,394.451,636.716,390.066ZM607.48,367.753c-5.363-3.984-13.183-4.233-16.918-.352-3.673,3.8-2.428,10.383,2.657,14.418,5.17,4.106,12.669,4.02,16.7.014C613.874,377.891,612.845,371.743,607.48,367.753Zm-67.35,14.528c3.238-4.244,2-10.972-2.644-15.373-4.6-4.351-10.726-4.987-13.714-1.206-3.026,3.829-1.946,11.282,2.5,15.957C530.725,386.358,536.886,386.533,540.13,382.281Zm-32.174,70.7c3.311,5.41,9.879,6.357,14.5,2.056a12.726,12.726,0,0,0,1.281-16.819c-3.833-5.068-10.339-5.981-14.375-2.054C505.4,440.028,504.667,447.613,507.956,452.98Zm125.388,30.756c5.59-4.985,7.29-13.508,3.628-19.064-3.616-5.5-10.833-5.875-15.772-1.019-5,4.912-6.43,13.638-3.315,19.1C621.021,488.226,627.735,488.735,633.344,483.736ZM509.618,427.91c3.752,5.3,10.052,6.094,13.985,1.823s3.594-11.537-.567-16.488-10.429-5.878-13.853-1.971C505.818,415.119,505.913,422.68,509.618,427.91ZM540.393,509.9c2.322,5.3,9.213,5.606,15.5.448s8.906-13.48,5.978-18.62-10.075-5.114-15.615-.157C540.8,496.463,538.107,504.674,540.393,509.9Zm38.556,0.9c6.24-5.334,8.9-13.926,5.973-19.187-2.887-5.2-9.843-5.127-15.344-.1-5.558,5.093-8.29,13.782-5.966,19.119S572.7,516.144,578.949,510.8Zm22.568,1.051c6.324-5.319,9.186-14.1,6.376-19.756-2.776-5.59-9.7-5.75-15.25-.622-5.5,5.081-8.2,13.785-6.124,19.444C588.617,516.591,595.245,517.124,601.517,511.85ZM522.253,404.959c3.445-4.181,2.562-11.258-1.763-16.151-4.289-4.844-10.127-5.915-13.156-2.237S504.878,397.737,508.8,403C512.757,408.317,518.818,409.131,522.253,404.959ZM615.821,368.1c-3.954,3.426-2.816,9.634,2.364,13.733,5.314,4.208,12.889,4.63,17.246,1.147,4.389-3.515,3.585-9.374-2.032-13.556C627.835,365.29,619.841,364.608,615.821,368.1ZM578.47,346.9c-5.184-3.907-12.263-4.321-15.745-.66-3.425,3.591-2.206,9.908,2.715,13.886,5.06,4.1,11.972,4.058,15.665.2C584.732,356.541,583.587,350.763,578.47,346.9Zm-46.142,162.61c6.494-4.772,9.209-12.828,6.306-18.045-2.9-5.2-9.721-5.615-15.336-1.163-5.515,4.379-8.354,12.1-6.217,17.521C519.235,513.292,526.035,514.144,532.328,509.514Zm-14.482-28.721c5.563-4.338,7.031-11.964,3.569-17.162a9.714,9.714,0,0,0-14.708-2.1c-4.673,3.919-6.4,11.312-3.654,16.8C505.812,483.854,512.441,485.01,517.846,480.793Zm146.686-64.978c-4.911-5.095-12.565-6.132-17.057-2.337-4.522,3.823-4.243,11.2.328,16.315,4.526,5.058,11.715,6.066,16.59,2.285C669.386,428.2,669.571,421.039,664.532,415.815Zm-0.435,24.95c-4.364-5.669-11.98-6.643-16.628-2.265-4.6,4.331-5.045,12.105-1.285,17.586,3.865,5.628,10.87,6.72,16.165,2.365A12.792,12.792,0,0,0,664.1,440.765Zm-123.5-95.688c-3.135,3.648-2.008,10.245,2.6,14.526,4.646,4.323,11.071,4.5,14.472.669,3.513-3.956,2.385-10.1-2.5-14.237C550.289,341.918,543.779,341.364,540.593,345.077Zm104.739,45.909c-4.237,3.488-3.423,10,1.577,14.638,5.025,4.658,12.5,5.665,17.176,2.366,4.8-3.388,4.51-9.8-.929-14.61C657.732,388.579,649.607,387.463,645.332,390.986ZM586.7,347.111c-3.868,3.388-2.59,9.5,2.748,13.374,5.246,3.81,12.447,3.893,16.41.461,4.043-3.505,2.963-9.1-2.552-12.93C597.923,344.285,590.507,343.761,586.7,347.111Zm22.658,165.07c2,5.968,8.368,6.948,14.609,1.93,6.379-5.122,9.415-14.277,6.61-20.355-2.736-5.933-9.511-6.383-15.038-1.274C609.991,497.608,607.354,506.205,609.355,512.181ZM516.96,364.8c-4.214-4.779-9.639-5.947-12.356-2.373-2.73,3.6-1.941,10.709,2.035,15.99,3.947,5.25,9.7,6.147,12.737,2.228C522.473,376.66,521.291,369.727,516.96,364.8ZM660.714,468.2c-3.508-6.125-10.544-7.18-15.682-2.578a16.741,16.741,0,0,0-3.808,18.914c2.892,6.015,9.522,7.4,15.241,2.9S664.207,474.282,660.714,468.2ZM520.336,342.86c-2.883,3.62-1.885,10.387,2.445,15.134,4.275,4.7,10.292,5.079,13.328,1.156s1.763-10.31-2.705-14.71C528.956,340.071,523.218,339.239,520.336,342.86Zm-17.6,83.381c3.777-3.744,3.518-11-.272-16.345s-9.232-7.018-12.6-3.713-3.579,10.5-.213,16.368C492.967,428.349,498.962,429.985,502.733,426.241Zm62.82,114.4c7.072-5.223,11.268-14.188,9.336-19.739-1.947-5.6-8.555-5.7-14.958-.559-6.42,5.154-10.489,13.468-9.276,19.2C551.857,545.242,558.48,545.87,565.553,540.642Zm64.515-189.985c-5.573-3.913-13.442-4.835-17.642-1.8s-3.032,8.645,2.46,12.521c5.324,3.76,12.906,4.27,17.189,1.413C636.424,359.875,635.609,354.552,630.068,350.657Zm-143.11,96.675c2.946,5.908,9.21,7.755,13.753,4.076s5.117-11.087,1.583-16.461c-3.5-5.313-9.147-6.99-13.111-3.859C485.118,434.306,484.009,441.435,486.958,447.332Zm6.851,56.695c2.035,5.661,9.026,7.011,15.356,2.773s8.988-12.054,6.18-17.277c-2.761-5.135-9.177-6.058-14.778-2.323C494.838,491.028,491.755,498.326,493.809,504.027ZM542.534,539.1c7.181-4.976,11.349-13.664,9.324-19.021-2-5.3-8.573-5.547-14.968-.874-6.575,4.81-10.837,12.809-9.6,18.455S535.342,544.1,542.534,539.1Zm118.2-165.858c-5.518-4.324-13.527-5.641-17.922-2.792-4.518,2.927-3.638,8.805,1.718,13.141s13.189,5.412,17.8,2.581S666.34,377.635,660.736,373.246ZM489.722,397.322c3.442,5.909,9.176,7.653,12.42,4s2.5-10.921-1.36-16.283c-3.8-5.26-8.863-7.034-11.757-3.871S486.327,391.514,489.722,397.322Zm83.664,143.564c0.946,6.088,7.267,7.074,14.336,1.872,7.028-5.165,11.5-14.641,9.7-20.555-1.768-5.852-8.24-6.155-14.5-1.01C576.621,526.383,572.463,534.948,573.386,540.886Zm-69.9-5.941c1.274,5.492,8.376,6.538,15.521,2.021,7.272-4.579,11.486-13.111,9.353-18.311-2.105-5.144-8.873-5.571-15.371-1.257C506.528,521.7,502.2,529.411,503.483,534.945Zm-1.391-196.579c-2.669,3.2-2.045,10.252,1.627,15.517,3.717,5.357,9.43,6.515,12.212,2.825,2.753-3.654,1.671-10.382-2.177-15.18C509.876,336.708,504.763,335.166,502.092,338.366ZM646.37,518.5c6.2-4.69,9.52-14.106,7.067-20.525-2.455-6.468-9.206-7.652-14.793-2.91-5.618,4.766-8.523,13.556-6.816,19.97C633.565,521.527,640.086,523.246,646.37,518.5Zm44.692-96.752c-4.766-5.534-12.661-7.388-17.327-4.128-4.685,3.271-4.728,10.306-.435,15.753,4.362,5.528,12.05,7.49,17.094,4.256C695.371,434.417,695.81,427.243,691.062,421.744ZM559.518,326.239c-3.551,3.172-2.583,9.119,2.152,12.955,4.71,3.825,11.623,4.036,15.288.8,3.718-3.289,2.716-8.934-2.211-12.649C569.88,323.684,563.087,323.041,559.518,326.239ZM481.047,472.472a9.436,9.436,0,0,0,14.33,4.121,12.754,12.754,0,0,0,3.786-16.634c-3.141-5.27-9.177-6.825-13.872-3.624C480.637,459.518,478.6,466.679,481.047,472.472Zm56.715-148.751c-3.339,3.183-2.641,9.451,1.636,13.729,4.249,4.261,10.633,4.736,14.116,1.381,3.421-3.3,2.583-9.234-1.771-13.262S541.064,320.562,537.762,323.721ZM689.571,446.984c-3.985-6.115-11.643-8.126-16.541-4.51-4.959,3.655-5.85,11.373-2.356,17.382,3.483,5.973,10.539,8.141,16.028,4.715C692.09,461.2,693.565,453.085,689.571,446.984ZM600.246,329.91c-5.081-3.641-12.649-4.525-16.616-1.629-3.9,2.834-3.04,8.34,1.821,12.012,4.91,3.716,12.367,4.145,16.5,1.285C606.046,338.726,605.32,333.553,600.246,329.91Zm9.416,216.022c6.813-5.067,11.35-14.55,9.9-20.819-1.467-6.386-8.042-7.171-14.271-2.057s-10.523,14.26-9.688,20.531C596.447,549.835,602.766,551.06,609.662,545.932Zm81.181-146.311c-5.191-5.11-13.535-7.118-18.136-4.325s-4.053,9.265.879,14.2c4.854,4.85,12.536,6.665,17.434,4.14C695.97,411.071,696.033,404.716,690.843,399.621ZM488.426,372.17c3.294,5.86,8.7,7.755,11.577,4.35s2.01-10.573-1.6-15.924c-3.632-5.367-8.5-7.468-11.093-4.437C484.784,359.12,485.159,366.389,488.426,372.17Zm151.538-20.084c-4.552,2.324-3.642,7.753,1.745,11.7s13.5,5.125,18.119,2.853c4.542-2.25,4.068-7.08-1.318-11.118C653.084,351.455,644.5,349.752,639.964,352.086ZM669,470.289c-5.067,4.083-6.837,12.5-4.262,18.863,2.632,6.463,9.382,8.714,15.22,4.74s8.19-12.9,4.838-19.416C681.44,467.908,674.18,466.11,669,470.289Zm-151.165-150c-2.879,3.089-2.265,9.7,1.522,14.382,3.831,4.752,9.706,5.518,12.766,2.024,3.01-3.438,2.177-9.458-1.73-13.836C526.459,318.47,520.766,317.14,517.835,320.291ZM485.594,501.805c6.3-3.459,9.191-10.8,6.775-16.194-2.4-5.355-8.787-7.215-14.324-4.325-5.622,2.955-9.138,10.267-7.325,16.112C472.525,503.207,479.3,505.269,485.594,501.805ZM671.028,375.362c-4.8,2.12-4.111,7.974,1.159,12.538,5.235,4.53,13.18,6.385,18.1,4.345s4.79-7.308-.6-12.022C684.372,375.569,675.739,373.266,671.028,375.362ZM494.747,533.341c7.35-3.927,11.63-11.561,9.9-16.979s-8.685-6.684-15.274-3.079c-6.454,3.55-11.116,10.94-10.053,16.611S487.441,537.257,494.747,533.341Zm115-202.256c-4.288,2.385-3.451,7.609,1.674,11.207,5.147,3.618,12.849,4.4,17.329,2.076,4.5-2.339,4.1-6.874-1.1-10.61S614.106,328.643,609.743,331.085ZM470.728,413.436c2.684,6.324,8.185,9.068,11.893,6.114,3.741-2.978,3.9-9.969.717-15.855-3.147-5.788-8.2-8.649-11.414-6.244C468.73,399.852,468.043,407.13,470.728,413.436Zm61.008,156.1c-0.049,5.928,6.377,6.956,14.344,1.932,8.018-5.052,13.866-14.015,13.165-19.888-0.691-5.79-7.281-6.283-14.415-1.447C537.719,554.96,531.792,563.607,531.736,569.533Zm-52-125.108c4.432-2.979,5.249-10.081,2.193-15.837-3.05-5.729-8.45-8.413-12.25-5.957s-5.176,9.671-2.707,15.847C469.469,444.741,475.3,447.412,479.734,444.425Zm43.447,124.151c8.188-4.8,13.973-13.362,13.134-19-0.829-5.556-7.589-6.134-14.882-1.643-7.261,4.485-13.284,12.734-13.213,18.517S515.051,573.356,523.181,568.576ZM472.208,388.314c2.891,6.46,7.937,9.047,11.068,5.99s2.689-10.157-.6-16.07c-3.216-5.767-7.737-8.624-10.431-6.223C469.522,374.445,469.353,381.955,472.208,388.314Zm95.7,186.567c7.966-5.148,13.937-14.467,13.406-20.774-0.527-6.222-6.949-6.851-13.981-1.773-6.908,5-12.674,13.808-13.009,20.023C553.991,578.688,560.014,579.991,567.913,574.881ZM485.752,331.035c-2.426,2.707-2.082,10.12,1.052,16.016,3.171,5.979,7.968,7.856,10.6,4.555s1.781-10.034-1.6-15.535C492.514,330.74,488.152,328.36,485.752,331.035ZM630.738,551.61c7.033-4.805,11.744-14.43,10.366-21.435-1.328-6.795-7.537-8.221-13.638-3.554-6.169,4.733-10.607,14.107-10.074,20.951C617.942,554.492,623.685,556.433,630.738,551.61ZM498.984,565.316c8.488-4.317,14.335-12.385,13.463-18-0.879-5.591-7.629-6.561-15.154-2.534-7.348,3.95-13.385,11.575-13.281,17.322C484.116,567.911,490.791,569.491,498.984,565.316Zm1.386-250.789c-2.7,2.726-2.349,9.794,1.011,15.138,3.337,5.322,8.321,6.727,11.1,3.537,2.867-3.289,2.186-9.529-1.323-14.555C507.743,313.77,503.066,311.8,500.37,314.527ZM668,526.216c6.573-4.054,10.359-13.192,8.238-20.536-2.109-7.325-8.754-9.593-14.494-5.367-5.586,4.113-8.729,13.021-7.34,20C655.823,527.382,661.659,530.127,668,526.216ZM459.783,462.852c2,6.25,8,9.143,13.3,6.412,5.445-2.807,7.312-9.736,4.616-15.621-2.627-5.719-8.169-8.44-12.8-6.264C460.248,449.572,457.769,456.551,459.783,462.852ZM718.654,431.74c-4.605-6.278-12.681-9.31-17.672-6.768-4.9,2.492-5.212,9.34-1.08,15.3,4.185,6.022,11.427,8.96,16.827,6.635C722.154,444.565,723.168,437.886,718.654,431.74ZM472.169,362.446c2.763,6.607,7.351,9.427,10.066,6.6,2.731-2.841,2.231-9.741-.783-15.824s-7.1-9.261-9.561-6.948C469.451,348.569,469.426,355.905,472.169,362.446ZM588.911,579.672c7.756-4.975,13.868-14.6,13.594-21.407-0.273-6.783-6.251-7.866-13.222-2.837s-12.762,14.144-13.224,20.829C575.6,582.981,581.149,584.656,588.911,579.672ZM536.128,303.208c-3.449,2.708-3.132,8.652.792,12.884,3.97,4.288,9.915,5.015,13.423,2.051,3.527-2.985,3.112-8.253-.886-12.3S539.606,300.468,536.128,303.208ZM698.886,450.07c-5.1,3-6.15,10.6-2.746,17.142,3.436,6.587,10.284,9.616,15.934,6.733s7.285-10.562,3.341-17.29C711.493,449.95,703.987,447.069,698.886,450.07ZM656.522,339.647c-5.441-3.859-13.86-5.781-18.553-3.966-4.723,1.822-3.986,6.476,1.417,10.216s13.311,5.117,18.15,3.443C662.357,347.669,662.026,343.554,656.522,339.647Zm31.783,23.721c-5.527-4.408-14.112-6.906-19.041-5.344s-4.294,6.437,1.091,10.673c5.435,4.279,13.466,6.325,18.539,4.91S693.85,367.794,688.305,363.368Zm-130.478-56.32c-3.783,2.655-3.3,8.163,1.091,11.984,4.417,3.852,10.93,4.386,14.786,1.6s3.409-7.645-1.052-11.392C568.215,305.52,561.611,304.38,557.827,307.048ZM455.293,522.185c0.978,5.955,7.93,8.331,15.3,5.057s11.581-10.476,9.848-16.02-8.165-7.44-14.808-4.6S454.3,516.177,455.293,522.185ZM719.7,409.734c-5.067-5.666-13.233-8.695-18.253-6.792s-4.947,7.861-.217,13.324c4.775,5.516,12.42,8.421,17.705,6.665S724.723,415.336,719.7,409.734ZM582.041,310.6c-4.226,2.381-3.736,7.4,1.022,11.006s11.842,4.276,16.091,1.9,3.9-6.837-.884-10.442S586.263,308.208,582.041,310.6ZM459.056,555.957c0.143,5.918,7.327,7.955,15.734,4.184s14.171-11.544,13.1-17.024c-1.059-5.376-7.69-6.678-15.321-3.3C464.953,543.191,458.9,550.124,459.056,555.957Zm69.506-254.188c-3.53-4.543-8.626-6.231-11.73-3.448-3.044,2.725-2.914,8.868.459,13.583,3.441,4.822,8.883,5.955,12,2.928C532.351,311.861,531.962,306.149,528.562,301.769Zm-80.39,185.144c1.359,6.313,7.929,9.474,14.222,6.8s9.31-9.684,7.1-15.479a10.221,10.221,0,0,0-13.556-6.106A13.113,13.113,0,0,0,448.172,486.913Zm255.564,17.228c6.011-3.276,8.665-12.067,5.528-19.344-3.068-7.151-10-9.943-15.375-6.519s-7.462,11.52-5.1,18.581C691.2,504.055,697.71,507.421,703.736,504.141ZM485.094,306.131c-2.384,2.492-2.376,9.5.314,15.48,2.656,5.937,7.114,8.241,9.624,5.455,2.539-2.823,2.032-9.681-.81-15.246C491.4,306.308,487.484,303.633,485.094,306.131ZM651.483,560.6c6.841-4.133,12.073-14.179,11.133-21.713-0.936-7.648-6.972-10.03-13.2-5.7-6.306,4.381-10.867,13.482-10.721,20.958C638.851,561.717,644.48,564.829,651.483,560.6ZM626.315,318.341c-4.909-3.576-12.754-5.3-17.434-3.494-4.735,1.815-4.537,6.326.269,9.839,4.886,3.58,12.742,4.765,17.459,3C631.211,325.96,631.164,321.879,626.315,318.341Zm93.341,72.35c-5.344-5.073-13.852-8.181-18.862-6.81s-4.657,6.526.425,11.457c5.129,4.975,13.556,7.979,18.644,6.685C724.911,400.725,724.969,395.725,719.656,390.691Zm-266.173,9.9c2.149,6.782,7.195,10.582,10.646,8.344,3.483-2.25,3.89-9.315,1.283-15.614-2.642-6.361-6.939-10.1-10.031-8.332C452.314,386.75,451.3,393.744,453.483,400.591ZM520.047,603.41c8.663-4.61,16.47-13.921,16.972-19.939,0.514-6.085-5.684-6.909-13.781-2.253-8.148,4.694-15.64,13.073-16.869,19.235C505.153,606.555,511.324,608.064,520.047,603.41Zm89.01-16.56c7.573-4.676,14.09-14.926,14.043-22.154-0.035-7.308-5.854-8.946-12.781-4.08s-12.845,14.264-13.567,21.43C596.046,589.122,601.529,591.5,609.057,586.85ZM471.532,320.344c-2.2,2.274-2.24,9.694.259,16.261,2.459,6.512,6.786,9.448,9.093,6.7,2.339-2.782,1.811-9.831-.822-15.877C477.393,321.336,473.758,318.042,471.532,320.344ZM448.2,425.271c1.9,6.691,7.4,10.591,11.6,8.439,4.168-2.118,5.336-8.889,2.977-15.02-2.423-6.264-7.215-10.092-10.959-8.5S446.279,418.54,448.2,425.271ZM482.714,595.9c-0.961,5.889,5.828,7.381,14.758,2.885,8.8-4.416,16.289-13.009,16.654-18.694,0.372-5.816-6.158-6.752-14.456-2.47C491.333,581.93,483.685,589.958,482.714,595.9ZM500.1,291.142c-2.709,2.492-2.81,9.269.015,14.563,2.822,5.316,7.639,6.983,10.349,4.063,2.677-2.891,2.421-8.895-.37-13.793C507.249,291.018,502.8,288.65,500.1,291.142Zm-43.736,84.02c2.2,6.8,6.639,10.5,9.532,8.368,2.955-2.175,2.975-9.3.424-15.781s-6.5-10.465-9.074-8.668C454.684,360.873,454.114,368.268,456.359,375.162Zm85.053,233.191c8.547-4.718,16.472-14.416,17.222-20.878s-5.275-7.426-13.164-2.555c-7.735,4.783-15.167,13.527-16.751,19.942C527.123,611.337,532.822,613.1,541.412,608.353ZM690.8,537.227c6.33-3.5,10.309-12.807,8.51-20.5-1.808-7.8-8.509-11.064-14.291-7.422-5.814,3.658-9.25,12.7-8.01,20.295C678.257,537.168,684.353,540.783,690.8,537.227Zm-22.413-194.3c-5.034.964-4.69,5.176,0.464,9.021,5.262,3.927,13.745,6.239,18.973,5.433,5.13-.806,5.285-4.433.035-8.479C682.56,344.814,673.513,341.92,668.385,342.922Zm-222.5,175.053c7.362-2.274,11.949-8.932,10.687-14.7-1.25-5.663-7.512-8.749-14-7.039-6.607,1.76-11.992,8.262-11.378,14.487C431.8,516.883,438.546,520.254,445.889,517.975Zm3.7,34.614c8.412-3.007,14.254-10.2,13.3-15.628-0.96-5.453-7.7-7.625-15.257-5.139-7.537,2.494-14.068,9.2-14.041,15.086C433.618,552.96,440.985,555.676,449.588,552.589Zm2.163-94.675c5.3-1.863,7.511-8.629,5.3-14.8-2.173-6.052-7.328-9.784-11.779-8.368-4.433,1.424-7.229,7.914-5.8,14.439C440.9,455.754,446.579,459.74,451.751,457.914Zm21.3,135.886c9.2-3.953,16.638-11.893,16.935-17.56s-6.652-6.928-15.155-3.156c-8.329,3.709-16.115,11.284-16.976,17.058C456.994,595.941,463.882,597.75,473.052,593.8ZM700.463,367.441c-5.223.631-5.013,5.126,0.107,9.611,5.152,4.512,13.49,7.579,18.917,7.1,5.447-.487,5.832-4.379.508-9.112C714.784,370.4,705.689,366.794,700.463,367.441Zm-62.595-46.526c-5.075,1.1-5.008,5.254-.088,8.783s13,5.308,18.169,4.32c5.2-1.007,5.559-4.4.539-8.134C651.587,322.245,642.945,319.794,637.868,320.915Zm109.07,124.426c-4.316-6.445-12.253-10.4-17.367-8.832-5.191,1.587-5.946,8.317-2.063,14.755,3.923,6.492,11.306,10.45,16.961,8.861S751.385,451.959,746.938,445.341ZM457.705,348.414c1.99,7.182,6,11.162,8.538,9.029,2.567-2.163,2.448-9.011.114-15.75-2.311-6.634-5.791-10.948-8.01-9.239C456.181,334.136,455.74,341.378,457.705,348.414Zm103.964,266.2c8.532-4.793,16.338-14.606,17.288-21.591,0.931-6.81-4.573-8.242-12.078-3.613-7.611,4.7-15.314,14.1-17.13,21.006C547.933,617.368,553.132,619.424,561.669,614.618Zm-3.576-325.882c-3.987,2.126-4.1,7.392-.237,11.135,3.913,3.806,10.236,4.649,14.312,2.344,4.053-2.306,4.123-6.812.115-10.493C568.363,288.139,562.01,286.634,558.093,288.736ZM742.312,470.8c-3.617-7.217-11.279-11.272-16.525-9.042-5.143,2.183-6.589,9.542-3.623,16.5,3.057,7.151,9.922,11.369,15.809,9.318C743.905,485.515,745.984,478.1,742.312,470.8ZM549.177,286.813c-3.4-4.021-9.094-5.779-12.659-3.5-3.481,2.213-3.758,7.743-.528,11.917,3.313,4.294,9.035,5.443,12.71,2.98C552.431,295.707,552.619,290.9,549.177,286.813Zm33.395,7.078c-4.514,1.738-4.656,6.493-.386,10.029,4.237,3.52,11.024,4.571,15.519,2.8,4.628-1.831,4.94-5.754.588-9.366C594.071,293.859,587.049,292.151,582.572,293.891Zm167.117,130c-4.838-6.078-13.394-10.248-18.5-9.093-5.042,1.133-5.222,6.805-.783,12.6,4.594,5.994,12.281,9.864,17.858,8.864C753.7,435.287,754.485,429.9,749.689,423.887Zm-106.758,150.9c0.333-7.972-5.088-10.657-11.836-6.439-6.809,4.265-13.088,14.1-14.178,22-1.066,7.823,3.71,11.06,11.263,6.954C635.933,593.091,642.594,583,642.931,574.787Zm-171.2-265.019c2,6.724,5.624,9.93,7.886,7.605,2.348-2.414,2.225-9.039.07-15.428-2.145-6.328-5.378-10.174-7.5-8.122C470.108,295.838,469.752,303.122,471.736,309.768Zm-24.168,277.5c9.409-3.308,16.778-10.61,16.982-16.22,0.193-5.742-6.548-7.6-15.257-4.539-8.539,3.006-16.3,9.871-17.133,15.762C431.314,588.193,438.215,590.567,447.568,587.267Zm38.418-306.32c-2.384,2.065-2.843,9-.721,15.053,2.179,6.244,6.135,8.763,8.639,6.108,2.459-2.605,2.413-8.807.179-14.476C491.853,282,488.393,278.859,485.986,280.947Zm197.88,270.2c-0.752-8.272-6.689-11.567-12.9-7.739S660,556.6,659.954,564.7c-0.046,8.324,5.263,12.18,12.466,8.329C679.416,569.3,684.633,559.477,683.866,551.142Zm50.7-51.327c-2.715-7.881-9.57-11.96-15.18-9.47-5.537,2.462-8.052,10.647-6.012,18.337,2.113,7.934,8.429,12.4,14.719,9.848C734.261,516.024,737.29,507.684,734.568,499.815ZM426.454,472.48c0.9,6.569,6.78,10.676,12.955,9.087a11.279,11.279,0,0,0,8.008-13.936c-1.6-6.247-7.074-10.175-12.566-8.948C429.46,459.892,425.554,465.943,426.454,472.48Zm91.341-195.788c-3.166,2.249-3.565,8.206-.721,12.951,2.851,4.768,7.78,6.194,11,3.655,3.23-2.555,3.393-7.819.5-12.307S520.975,274.422,517.795,276.692Zm91.871,23.263c-4.894,1.294-5.165,5.294-.777,8.676,4.524,3.494,11.967,5.007,16.987,3.838,5.036-1.177,5.593-4.638,1.05-8.188C622.349,300.713,614.658,298.623,609.666,299.955Zm141.389,105.4c-5.152-5.394-13.72-9.467-18.9-8.944-5.312.537-5.17,5.32-.072,10.769,5.014,5.364,13.171,9.224,18.62,8.814C756.1,415.579,756.417,410.964,751.055,405.353ZM458.806,321.278c1.733,7.4,5.2,11.535,7.419,9.576,2.235-1.975,2.183-8.931.258-15.79-1.918-6.811-4.692-11.2-6.744-9.792C457.648,306.705,457.072,313.906,458.806,321.278ZM580.248,623.751c8.268-4.355,16.423-14.522,17.842-22.222,1.416-7.643-3.5-9.8-10.965-5.382-7.666,4.546-15.223,13.816-17.451,21.414S571.979,628.111,580.248,623.751ZM688.759,336.589c-5.16-3.971-13.891-7.124-19.482-6.742-5.477.368-5.6,3.827-.569,7.494,5.125,3.748,13.557,6.355,19.074,6.2C693.184,343.375,693.759,340.441,688.759,336.589Zm32.061,25.305c-5.236-4.381-14.016-8.111-19.615-8.13-5.775-.024-5.866,3.579-0.579,7.821,5.265,4.233,13.857,7.538,19.429,7.667C725.515,369.369,726.01,366.237,720.82,361.894Zm-312.5,171.832c-0.435,6.335,6.436,10.237,14.945,8.33,8.308-1.849,14.557-8.4,14.12-14.092-0.451-5.806-6.61-9.005-14.23-7.576C415.42,521.846,408.734,527.552,408.322,533.726Zm29.53-150.979c1.488,7.448,5.829,12.4,9.169,10.94,3.293-1.428,4.076-8.1,2.142-14.931-1.955-6.878-5.515-11.658-8.438-10.749S436.376,375.43,437.852,382.747Zm36.224,249.4c-2.333,6.219,3.345,8.121,12.766,3.867,9.566-4.3,18.972-13.456,20.588-19.7,1.595-6.15-4.236-7.23-13.17-2.869C485.31,617.82,476.422,625.879,474.076,632.142Zm248.591-99.7c-1.6-8.484-7.905-12.723-13.818-9.851-6.009,2.927-9.7,11.507-8.819,19.755,0.907,8.451,6.7,13.355,13.351,10.574C719.871,550.2,724.259,540.8,722.667,532.438Zm-272.43,93.451c-1.981,5.94,4.5,7.816,14.174,3.737,9.7-4.073,18.852-12.615,20.186-18.4,1.346-5.854-4.9-7.013-14.112-3.024S452.239,619.873,450.237,625.889ZM431.02,407.667c1.309,7.055,6.117,11.975,10.114,10.712,4.037-1.27,5.512-7.825,3.665-14.455-1.869-6.683-5.911-11.354-9.487-10.547C431.763,394.183,429.683,400.529,431.02,407.667ZM500.7,281.726c2.192,5.307,6.523,7.369,9.3,4.938s3.075-8.272.845-13.244c-2.255-5-6.122-7.624-8.923-5.482S498.479,276.373,500.7,281.726Zm-58.36,75.331c1.5,7.464,5.364,12.425,8.066,10.946,2.717-1.485,3.1-8.5,1.224-15.5-1.9-7.049-5.061-11.963-7.474-10.837C441.824,342.76,440.852,349.708,442.339,357.057Zm53.708,281.512c-2.58,6.482,2.81,8.528,11.951,4.081,9.169-4.449,18.6-13.991,20.537-20.511,1.958-6.584-3.564-7.889-12.21-3.34S498.654,632.018,496.047,638.569ZM407.879,495.254c0.292,6.287,6.646,10.672,13.7,9.455,7.163-1.221,12.127-7.571,11.173-13.544-0.967-6.029-6.754-9.972-13.286-9.069C412.968,483,407.573,488.788,407.879,495.254Zm-2.453,76.355c-0.885,5.965,6.566,9.15,15.922,6.581,9.222-2.513,16.793-9.391,17.063-14.893,0.271-5.656-6.456-8.24-15.2-6.125C414.425,559.3,406.313,565.591,405.426,571.609ZM753.41,391.17c-4.99-5-14.192-9.7-19.8-10-5.653-.316-5.869,3.62-0.867,8.466,4.983,4.824,13.642,9.057,19.28,9.5C757.53,399.545,758.316,396.077,753.41,391.17Zm-95.32-77.66c-4.637-3.576-13.123-6.34-18.513-5.7-5.389.623-5.76,4.27-1.053,7.647,4.61,3.313,12.554,5.395,17.908,5.021C661.827,320.092,662.707,317.075,658.09,313.51ZM424.685,618.535c-1.67,5.728,5.124,7.877,14.938,4.41,9.953-3.5,19.324-11.6,20.514-17.248,1.2-5.678-5.467-7.214-14.917-3.8C435.8,605.308,426.4,612.678,424.685,618.535Zm-4.062-187.456c0.9,6.813,5.973,11.832,10.889,11,5-.841,7.585-7.188,6.029-13.7-1.533-6.395-6.015-11.2-10.3-10.757C422.879,418.078,419.7,424.13,420.623,431.079ZM662.556,589.061c0.775-8.8-4.681-12.589-11.532-8.69-6.719,3.823-13.075,13.5-14.562,21.919-1.5,8.518,3.286,13,10.872,9.36C654.767,608.076,661.806,597.721,662.556,589.061ZM473.068,283.028c1.468,6.672,4.655,9.99,6.8,7.818,2.159-2.187,2.45-8.76.97-15.014-1.516-6.347-4.273-10.447-6.388-8.578C472.4,269.07,471.61,276.463,473.068,283.028Zm-27.6,47.2c1.363,7.619,4.631,12.458,6.914,11.006s2.563-8.339.989-15.553c-1.57-7.13-4.28-12.5-6.317-11.585C444.98,315.04,444.08,322.539,445.468,330.227ZM516.18,646.105c-2.793,6.9,2.052,9.2,11.087,4.733s18.476-14.229,20.745-21.286c2.318-7.2-3.045-8.9-11.562-4.169C528.142,630,518.94,639.306,516.18,646.105ZM460.469,293.834c1.309,7.351,4.264,11.422,6.264,9.482s2.2-8.914.805-15.77-3.83-11.6-5.707-10.1S459.169,286.617,460.469,293.834ZM616.515,612.961c1.582-8.2-3.479-11.069-10.838-6.769s-15.256,14.288-17.551,22.174c-2.319,8.02,2.1,11.49,10.32,7.361C606.625,631.623,614.951,621.132,616.515,612.961ZM776.566,463.877c-4.084-6.839-11.968-11.776-17.233-11-5.361.783-6.489,7.211-2.854,14.035,3.682,6.9,11.044,11.858,16.859,11.075C779.133,477.2,780.749,470.851,776.566,463.877ZM574.415,275.222c-3.262-3.667-9.532-5.67-13.677-3.994-4.06,1.626-4.854,6.292-1.76,10.01a12.742,12.742,0,0,0,13.583,3.468C576.882,282.978,577.723,278.956,574.415,275.222ZM551.091,268.1c-2.847-3.9-8.065-5.928-11.71-4.155-3.711,1.795-4.583,7.137-1.815,11.27,2.793,4.182,8.16,5.57,11.951,3.527S554,272.1,551.091,268.1ZM770.226,489.535c-3.346-7.63-11.02-12.736-16.435-11.271-5.311,1.437-7.115,8.557-4.411,15.967,2.76,7.539,9.686,12.826,15.722,11.561C771.166,504.521,773.618,497.238,770.226,489.535Zm-88.987,89.721c-0.4,8.852,4.718,13.883,11.884,10.847,7.028-2.975,12.577-12.556,12.264-21.539-0.307-9.023-6.218-13.622-12.53-10.44C686.682,561.242,681.639,570.61,681.239,579.256ZM495.975,263.193c-1.56-5.575-4.564-9.036-6.97-7.307-2.44,1.744-3.456,8.7-1.909,14.718,1.531,6,4.909,8.71,7.387,6.57C497.036,274.965,497.576,268.944,495.975,263.193ZM781.207,442.835c-4.484-6.406-13.094-11.693-18.473-11.458-5.276.227-5.917,5.53-1.8,11.688,4.244,6.341,12.019,11.307,17.83,11.21C784.446,454.183,785.68,449.212,781.207,442.835Zm-375.446,10.3c0.178,6.725,5.491,12.1,11.406,11.657,6.212-.458,9.965-6.04,9.025-12.581-0.937-6.428-5.851-11.518-11.151-11.394C409.906,440.952,405.573,446.41,405.761,453.139ZM600.716,282.6c-3.661-3.535-10.737-5.712-15.41-4.37-4.573,1.3-5.35,5.5-1.793,8.939,3.657,3.546,10.419,5.009,15.216,3.694C603.443,289.567,604.364,286.129,600.716,282.6ZM397.922,608.886c-1.666,5.85,5.291,8.487,15.5,5.587,10.493-2.97,19.466-10.161,20.5-15.831,1-5.5-5.668-7.614-15.068-5.084C409.34,596.131,399.6,602.992,397.922,608.886ZM530.991,260.555c-2.242-4.454-6.551-6.909-9.812-5.115-3.313,1.818-4.3,7.6-2.011,12.36,2.259,4.7,6.719,6.364,10.042,4.246S533.254,265.069,530.991,260.555ZM760.529,519.234c-2.444-8.33-9.231-13.421-14.932-11.691-5.752,1.755-8.541,10-6.559,18.323,1.968,8.219,8.1,13.422,14.392,11.63S763,527.616,760.529,519.234ZM723.113,351.116c-5-4.095-14.035-8.208-19.873-8.8-5.932-.62-6.352,2.461-1.264,6.387a46.458,46.458,0,0,0,19.592,8.192C727.356,357.643,728.188,355.277,723.113,351.116ZM535.167,654.987c-3.525,7.755.365,11,9.192,6.93,8.855-4.078,18.372-13.913,21.231-21.852s-1.574-10.544-9.687-6.324C547.848,637.939,538.658,647.31,535.167,654.987ZM378.538,557.17c-1.066,6.2,5.912,10.118,15.45,8.51s17-7.7,17.319-13.5c0.307-5.758-6.187-9.174-14.875-8S379.589,551,378.538,557.17Zm4.716-40.279c-0.646,6.455,5.746,11.124,14.1,10.229,8.4-.894,14.616-6.6,14.485-12.6-0.146-6.014-5.963-10.179-13.523-9.757C390.84,505.187,383.887,510.5,383.254,516.891ZM691.6,326.024c-4.74-3.768-13.469-7.3-19.305-7.519s-6.48,2.761-1.747,6.286c4.785,3.573,12.938,6.407,18.815,6.866S696.374,329.823,691.6,326.024Zm64.209,53.384c-5.054-4.7-14.088-9.5-20.062-10.507-5.923-1-6.393,2.1-1.411,6.554,5.052,4.523,13.461,8.762,19.457,9.95C759.822,386.592,760.877,384.116,755.813,379.408ZM448.264,301.77c1.011,8,3.692,13.04,5.7,11.733,2.029-1.335,2.389-8.1,1.208-15.629s-3.283-13.057-5.129-12.216C448.225,286.483,447.255,293.875,448.264,301.77Zm336.28,123.545c-4.871-5.882-13.537-11.12-19.078-11.553-5.448-.428-5.873,3.79-1.345,9.394,4.677,5.792,12.649,10.747,18.478,11.409S789.448,431.231,784.544,425.315ZM629.8,291.27c-3.983-3.432-11.257-5.85-16.491-5.148-5.314.7-6.272,4.329-2.3,7.7,4.032,3.422,11.22,5.261,16.485,4.607S633.882,294.79,629.8,291.27ZM746.583,552.6c-1.474-8.889-7.675-13.853-13.7-11.533s-9.824,10.837-9.053,19.646c0.783,8.917,6.639,14.669,13.3,12.306C743.686,570.7,748.063,561.457,746.583,552.6ZM503.589,257.645c1.493,5.369,5.195,7.861,8.128,6.014,2.975-1.877,3.965-7.411,2.372-12.527-1.58-5.054-4.925-8.027-7.819-6.358S502.09,252.27,503.589,257.645ZM424.274,360.519c0.82,7.586,4.378,13.451,7.438,12.9s4.286-6.991,3.049-14.2c-1.258-7.3-4.135-13.017-6.854-12.835S423.43,352.843,424.274,360.519ZM434.38,664.487c-3.353,6.205,2.085,8.464,12.033,4.619,9.926-3.827,20.695-12.562,23.5-18.733,2.848-6.263-2.576-7.809-12.177-3.9C448.106,650.412,437.771,658.207,434.38,664.487ZM370.007,596.4c-1.633,5.876,5.869,9.3,16.045,7.125,10.263-2.178,19.312-8.854,20.282-14.372,0.969-5.585-5.77-8.256-15.572-6.439C381.028,584.525,371.658,590.428,370.007,596.4Zm15.5-121.364c-0.168,6.579,5.853,12.012,12.72,11.591,6.933-.412,11.866-6.069,11.312-12.239a12.155,12.155,0,0,0-12.087-11.074A11.965,11.965,0,0,0,385.509,475.035ZM633.987,629.113c2-9.025-2.62-12.806-10.025-8.978S608.823,633.68,606.1,642.473c-2.677,8.659,1.4,13.355,9.344,9.833C623.421,648.779,632.029,638.029,633.987,629.113ZM463.445,265c0.684,7.431,3.134,11.98,5.034,10.384s2.584-8.494,1.846-15.481c-0.759-7.071-2.574-12.059-4.465-10.844S462.743,257.5,463.445,265Zm-7.4,407.734c-3.786,6.59,1.083,9.1,10.779,5.084s20.68-13.327,23.752-19.909c3.116-6.674-2.016-8.292-11.417-4.054C470.029,657.98,459.8,666.205,456.047,672.737ZM415.589,384.716c0.546,7.35,4.5,13.427,8.354,13.278,3.808-.14,5.8-6.3,4.673-13.283-1.149-7.066-4.511-12.823-7.871-12.886C417.462,371.771,415.035,377.446,415.589,384.716Zm-5.251,271.709c-2.777,5.779,3.295,7.973,13.354,4.51,10.24-3.515,21.042-11.815,23.473-17.646,2.465-5.91-3.539-7.461-13.515-3.88C423.706,642.986,413.217,650.438,410.338,656.425Zm245.581-37.048c-1.476,8.825,2.978,14.1,10.264,11.259,7.414-2.89,14.841-13.631,15.715-22.919,0.9-9.413-4.234-13.976-11.106-10.633C663.936,600.426,657.459,610.235,655.919,619.377ZM476.349,255.605c0.8,6.578,3.47,10.277,5.583,8.56,2.164-1.765,3.039-8.309,2.224-14.655-0.836-6.413-2.979-10.713-5.15-9.23C476.858,241.741,475.512,248.816,476.349,255.605ZM430.53,334.5c0.827,7.681,3.859,13.478,6.322,12.86,2.519-.628,3.358-7.474,2.2-14.936-1.186-7.556-3.639-13.421-5.865-12.938C431.041,319.952,429.685,326.786,430.53,334.5Zm231.568-32c-4.127-3.511-12.465-6.645-18.154-6.512-5.572.118-6.624,3.149-2.57,6.409,4.1,3.3,12.218,5.844,17.835,5.927C664.706,308.394,666.125,305.936,662.1,302.506ZM788.217,411.8c-4.759-5.2-13.7-10.734-19.483-12-5.975-1.311-6.629,2.064-1.849,7.232,4.649,5.027,13.023,10.152,18.952,11.627C791.8,420.134,793.068,417.09,788.217,411.8ZM384.305,646.87c-2.774,5.8,3.79,8.375,14.348,5.337,10.763-3.084,21.6-10.868,23.649-16.513,2.025-5.562-4.412-7.407-14.47-4.477C397.792,634.155,387.09,641.051,384.305,646.87Zm197.885,6.909c3.147-8.4-1.031-11.887-8.82-8.075-7.858,3.851-17.1,13.307-21.085,21.6-4,8.334-.35,12.649,8.327,8.917C569.106,672.567,579.042,662.212,582.19,653.779ZM451.671,272.459c0.5,8.061,2.792,13.512,4.585,12.152,1.769-1.343,2.4-8.361,1.772-15.842s-2.256-13.262-3.939-12.451S451.159,264.529,451.671,272.459Zm-48.25,135.387c0.215,7.193,4.771,13.392,9.5,13.3,4.648-.09,7.431-5.8,6.532-12.512s-4.726-12.492-8.79-12.869S403.2,400.759,403.421,407.846Zm72.1,274.249c-4.217,7.073-.042,9.908,9.516,5.9s20.432-13.487,23.888-20.625c3.382-6.974-1.064-9.173-9.665-5.274C490.5,666.076,479.723,675.059,475.522,682.1ZM435.457,306.7c0.655,8.122,3.18,13.871,5.268,13.042s2.747-7.739,1.832-15.443c-0.909-7.568-2.823-13.615-4.628-13.26C436.1,291.4,434.8,298.7,435.457,306.7Zm64.966-67.79c-0.858-5.655-3.435-9.552-5.908-8.114-2.416,1.4-4.008,7.725-3.262,13.659,0.758,6.1,3.7,9.341,6.265,7.6C500.116,250.3,501.287,244.668,500.423,238.911ZM727.3,590.41c-0.2-9.433-6-14.912-12.3-12.334-6.18,2.53-11.4,11.785-12,20.883-0.605,9.344,4.341,15.368,11.486,13.056C721.652,609.7,727.513,599.957,727.3,590.41Zm0.329-247.873c-4.6-3.853-13.609-8.267-19.712-9.429-6.215-1.195-7.333,1.2-2.758,4.839,4.628,3.685,13.173,7.468,19.443,8.883S732.384,346.527,727.628,342.537Zm32.2,27.828c-4.854-4.355-14.337-9.564-20.384-11.015-5.938-1.437-6.744.938-2.126,4.926,4.77,4.12,13.442,8.616,19.725,10.434S764.746,374.779,759.828,370.365ZM351.506,538.434c-1.267,6.227,5.337,10.978,14.629,10.463,9.588-.528,17.188-5.892,17.762-11.864,0.536-5.751-5.581-10.105-13.972-10.03C361.457,527.087,352.775,532.2,351.506,538.434Zm227.3-279.363c-2.741-3.7-8.644-6.058-12.884-4.773-4.176,1.251-5.469,5.565-2.855,9.207,2.723,3.8,8.363,5.43,12.828,4.117C580.248,266.339,581.535,262.768,578.81,259.071ZM807.681,487.7c-3.705-7.316-11.743-13.419-17.215-13.321-5.372.091-6.807,5.99-3.538,13.06,3.407,7.357,10.577,13.2,16.613,13.195C809.424,500.635,811.382,494.989,807.681,487.7Zm-8.532,25.555c-3.056-7.905-10.337-13.811-15.872-13.246-5.633.576-7.74,7.688-5,15.682,2.733,7.929,9.277,13.674,15.366,13.035C799.7,528.092,802.261,521.272,799.149,513.253ZM386.808,429.759c-0.1,7,4.567,12.817,10.26,13.111s9.43-4.81,8.949-11.459c-0.489-6.575-4.592-12.354-9.531-13.111C391.506,417.54,386.9,422.7,386.808,429.759ZM356.564,635.39c-2.63,5.876,4.073,8.843,15.034,6.383,11.014-2.462,21.087-9.04,23.291-14.676,2.214-5.714-4.448-8.264-14.856-6C369.825,623.325,359.153,629.591,356.564,635.39ZM555.676,250.218c-2.152-3.989-6.889-6.46-10.72-5.2-3.771,1.225-5.31,6.009-3.293,10.138a8.862,8.862,0,0,0,10.955,4.633C556.533,258.271,557.852,254.26,555.676,250.218ZM358.926,495.243c-0.986,6.562,4.932,12.043,13.052,12.137,8.139,0.1,14.375-4.9,14.609-11.056,0.217-6.132-5.17-11.235-12.439-11.74C366.932,484.094,359.894,488.757,358.926,495.243Zm-17.5,84.689c-1.9,6.1,5.093,10.27,15.534,9.091s19.288-6.863,20.5-12.589c1.185-5.686-5.36-9.367-14.952-8.6C352.949,568.611,343.294,573.885,341.422,579.932Zm472.59-113.3C809.848,460,801.74,454,796.117,453.248c-5.572-.751-6.659,4.086-2.773,10.617,3.949,6.63,11.39,12.4,17.3,13.177C816.564,477.826,818.2,473.3,814.012,466.637ZM605.376,268.417c-3.139-3.5-9.592-5.949-14.439-5.135-4.8.793-6.186,4.587-3.118,8.024,3.114,3.494,9.351,5.3,14.269,4.517C607.034,275.025,608.53,271.946,605.376,268.417Zm91.668,48.708c-4.231-3.68-12.661-7.5-18.9-8.294-6.041-.778-7.5,1.6-3.5,4.888,4.208,3.462,12.188,6.675,18.408,7.72C699.332,322.49,701.238,320.778,697.044,317.125Zm95.455,84.5c-4.737-4.828-13.485-10.4-19.679-12.414-6.251-2.032-7.206.436-2.486,5.14a58.3,58.3,0,0,0,19.415,12.084C795.988,408.559,797.368,406.591,792.5,401.627ZM440.191,277.241c0.3,8.48,2.274,14.408,4.056,13.594,1.748-.8,2.492-7.527,2.048-15.425-0.466-8.167-1.83-14.461-3.493-13.972C441.187,261.9,439.887,268.931,440.191,277.241Zm52.891,416.324c-4.686,7.769-1.244,11.273,8.074,7.443,9.076-3.723,19.754-13.231,23.763-21.021,4.144-8.055.232-10.838-8.573-6.761C507.71,677.227,497.682,685.923,493.082,693.565Zm42.861-453.229c-1.614-4.423-5.369-7.084-8.7-5.7-3.406,1.4-4.955,6.552-3.354,11.309,1.548,4.6,5.563,6.7,8.923,5.14C536.252,249.471,537.592,244.865,535.943,240.336ZM787.532,543.783c-2.215-8.86-8.867-14.723-14.737-13.5-5.755,1.211-8.661,8.651-7.025,17.192,1.677,8.731,7.8,15,14.174,13.853C786.155,560.212,789.677,552.337,787.532,543.783ZM475.349,231.28c-0.088-7.111-1.351-12.2-3.245-11.2-1.878.989-3.588,7.938-3.545,15.489,0.036,7.477,1.854,12.168,3.732,10.913C474.222,245.186,475.432,238.539,475.349,231.28ZM623.645,661.2c-3.053,9.581.735,15.246,8.843,12.068,7.924-3.107,16.332-13.637,18.538-23.263,2.221-9.654-2.066-14.32-9.375-11.077S626.661,651.725,623.645,661.2ZM616,280.116c3.449,3.262,10.512,5.455,15.8,5.242s6.909-2.888,3.427-6.3c-3.519-3.434-10.612-6.125-15.993-5.758S612.509,276.811,616,280.116ZM819.441,450.022c-4.438-6.033-12.753-12.052-18.564-13.489-5.86-1.443-6.8,2.2-2.518,8.136,4.254,5.9,12.194,11.793,18.084,13.307C822.3,459.479,823.811,455.954,819.441,450.022ZM597.492,671.808c3.324-9.135-.556-13.132-8.429-9.527-7.84,3.6-16.89,13.145-20.9,22.062-3.93,8.74-.582,13.7,7.735,10.4C584.269,691.425,594.212,680.848,597.492,671.808ZM456.647,242.326c-0.026,8,1.636,13.441,3.287,12.314s2.731-8.1,2.717-15.726c-0.024-7.7-1.06-13.488-2.724-12.736S456.666,234.215,456.647,242.326Zm-92.174,207.4a12.665,12.665,0,0,0,11.134,13.7,10.614,10.614,0,0,0,11.773-10.406c0.137-6.394-4.372-12.286-10.379-13.349C370.963,438.6,365.215,442.954,364.473,449.721ZM366,615.542c2.08-5.578-4.581-8.708-15.131-7.364-10.584,1.358-21.4,6.88-23.9,12.767-2.482,5.824,4.994,9.583,15.931,7.828C353.672,627.061,363.973,620.931,366,615.542ZM482.171,227.511c0.1,6.572,2.166,10.608,4.313,9.369,2.172-1.262,3.7-7.471,3.6-13.825-0.11-6.405-1.718-11.089-3.9-10.033S482.06,220.737,482.171,227.511ZM701.414,632c1.192-9.954-3.713-15.6-10.532-12.983-6.686,2.571-13.2,11.9-15.134,21.449-1.961,9.683,2.173,16.283,9.575,14.126C692.626,652.47,700.25,641.851,701.414,632Zm70.1-53.513c-1.159-9.054-7.247-15.089-13.179-13.657-6.119,1.486-10.341,10.034-9.75,19.207,0.585,8.9,6.107,15.455,12.6,14.205C767.735,596.981,772.708,587.666,771.511,578.49ZM509.317,233.835c0.813,5.261,4.2,8.116,7.117,6.554,2.862-1.536,4.4-6.593,3.543-11.465-0.888-5-3.887-8.377-6.8-7.069C510.326,223.125,508.505,228.653,509.317,233.835ZM402.376,357.5c-0.032,7.42,3.114,14.05,6.64,14.619s5.756-4.825,5.3-12.033c-0.455-7.079-3.131-13.769-6.141-14.6S402.4,350.1,402.376,357.5Zm-0.839,318.218c3.161-5.685-2.668-7.556-12.935-4.484C378.378,674.3,366.559,681.5,363,687.221c-3.622,5.826,2.256,8.2,13.084,4.976C386.9,688.99,398.382,681.382,401.537,675.713ZM424.127,685c3.74-6.029-1.394-7.992-11.2-4.65s-21.52,10.944-25.691,16.98c-4.2,6.08.811,8.555,11.167,5.156S420.344,691.086,424.127,685Zm-11.218-352.04c0.111,7.682,2.8,14.283,5.624,14.616s4.443-5.4,3.936-12.889c-0.508-7.334-2.725-14.122-5.131-14.718S412.788,325.285,412.909,332.956Zm329.611,22.8c4.376,3.8,13.082,8.562,19.622,10.962s8.566,1.374,4.183-2.705c-4.294-4-13.731-9.524-20.192-11.621C739.645,350.278,738.157,351.973,742.52,355.756Zm-95.152-64.984c3.638,3.228,11.191,5.958,17.057,6.481s7.747-1.576,3.959-5.02c-3.7-3.354-11.5-6.648-17.152-6.989C645.448,284.882,643.768,287.578,647.368,290.772Zm155.638,138.84c4.276,5.258,12.569,11.248,18.68,13.5s7.694-.112,3.169-5.555c-4.468-5.387-13.467-11.859-19.315-13.869C799.82,421.707,798.832,424.479,803.006,429.612ZM445.625,246.159c-0.216,8.411,1.212,14.667,2.8,14.075,1.6-.6,2.666-7.385,2.754-15.523,0.076-8.015-.807-14.77-2.292-14.4C447.442,230.665,445.824,237.927,445.625,246.159ZM539.6,695.8c4.13-8.2.707-11.822-7.28-8.465-8.152,3.433-18.931,12.9-23.9,21.068-4.987,8.211-2.052,12.506,6.91,9.144S535.373,704.2,539.6,695.8ZM421.052,306.737c0.169,8.1,2.419,14.479,4.7,14.421s3.46-6.453,2.964-14.215c-0.494-7.618-2.188-14.167-4.107-14.477C422.663,292.153,420.877,298.777,421.052,306.737Zm23.189,387.788c3.84-6.3-.662-8.315-9.932-4.855-9.46,3.543-21.294,11.7-25.827,18.08-4.591,6.472-.2,9.043,9.981,5.408C428.6,709.551,440.334,700.937,444.241,694.525ZM711.372,329.482c4.311,3.509,12.524,7.442,18.938,9.32,6.579,1.921,8.632.7,4.245-3.174-4.253-3.749-13.163-8.414-19.474-9.987C708.633,324.024,707.059,325.977,711.372,329.482ZM348.06,559.106c1.162-5.614-5.2-10.108-14.5-10.318-9.464-.207-19.539,4.52-21.368,10.578-1.827,6.042,5.041,10.943,15.177,10.775C337.771,569.98,346.855,564.868,348.06,559.106Zm8.429-41.969c0.922-5.936-5.032-11.319-13.352-12.04-8.14-.693-16.532,3.547-18.135,9.691-1.669,6.36,4.781,12.074,14.026,12.46C348.011,527.626,355.561,523.011,356.489,517.137Zm418.829-132c4.512,4.313,13.209,9.764,19.724,12.51,6.36,2.678,8.146,1.58,3.7-2.877-4.454-4.478-13.968-10.7-20.334-13.149C772.192,379.217,770.945,380.964,775.318,385.14Zm-372.3-1.557c-0.279-6.886-3.279-13.336-7-14.466-3.771-1.142-7.429,4-7.616,11.286-0.19,7.245,3.311,13.544,7.66,14.314S403.286,390.565,403.015,383.583ZM375.594,666.618c3.34-5.719-2.714-8.108-13.395-5.6-10.427,2.456-22.066,8.893-25.58,14.577-3.564,5.759,2.444,8.514,13.487,5.925C361.275,678.9,372.257,672.3,375.594,666.618Zm122.827-448.5c0.047,6.12,2.312,9.725,4.869,8.559s4.3-6.153,4.207-11.683c-0.105-5.916-2-10.2-4.566-9.307C500.519,206.516,498.369,212.281,498.421,218.12Zm-64.192,60.323c-0.169-8.143-1.35-15.044-2.991-15.245-1.589-.2-3.171,6.358-3.24,14.507-0.08,8.494,1.585,15.069,3.44,15.11C433.321,292.846,434.392,286.607,434.229,278.443ZM461.1,706.433c4.63-7.111.685-9.593-8.525-5.883-9.109,3.675-20.092,11.651-25.153,18.484-5.23,7.051-1.9,10.158,7.81,6.692S456.411,713.62,461.1,706.433Zm288.6-88.948c-0.128-9.547-5.484-15.541-11.659-13.747-6.341,1.851-11.624,10.95-12.218,20.7-0.59,9.789,4.206,16.285,11.31,14.4C744.158,636.991,749.838,627.443,749.7,617.485Zm-414.6-17.033c1.984-5.57-4.289-9.313-14.716-8.954s-20.977,4.953-23.663,10.82c-2.774,6.02,4.283,10.512,15.467,9.7C323.1,611.241,333.11,605.96,335.091,600.452Zm26.936-127.468c0.68-6.195-3.891-11.885-10.841-13.332s-13.822,2.228-15.281,8.678c-1.516,6.629,3.814,13.03,11.571,14.06C355.054,483.4,361.343,479.1,362.027,472.984ZM611.9,695.365c3.6-9.778.1-14.7-7.582-11.666s-16.619,12.482-20.876,22.053c-4.2,9.435-1.305,15.222,6.891,12.486S608.313,705.119,611.9,695.365ZM463.855,210.608c-0.683,8.1.354,13.65,1.978,12.856s3.2-7.4,3.868-15.108c0.66-7.77.188-13.781-1.45-13.319S464.536,202.483,463.855,210.608ZM819.448,513.7c3.132,7.321,10.18,13.8,15.984,14.352s7.925-4.889,4.46-12.246S829.1,502.2,823.485,501.577C817.886,500.971,816.268,506.262,819.448,513.7ZM347.532,655.19c2.7-5.442-3.624-7.961-14.663-6.107-11,1.856-22.184,7.466-25.35,13.2-3.121,5.634,3.72,8.793,14.968,6.7C333.776,666.9,344.816,660.623,347.532,655.19Zm39.949-249.656c0.1-6.707-3.207-12.96-7.876-14.408s-9.12,2.707-9.818,9.675c-0.706,6.936,3.178,13.605,8.371,14.778S387.369,412.177,387.481,405.534ZM570.009,246.1c2.072,3.662,7.24,5.686,11.629,4.906s6.227-4.1,4.089-7.726a11.938,11.938,0,0,0-11.624-5.356C569.733,238.708,567.936,242.439,570.009,246.1Zm-21.164-10.219a8.369,8.369,0,0,0,9.855,5.1c3.744-1.07,5.537-4.809,4.021-8.636-1.581-3.977-5.833-6.637-9.676-5.682C549.177,227.614,547.3,231.812,548.845,235.882ZM808.617,541.943c2.354,7.817,8.762,14.373,14.661,14.552,6,0.179,8.994-6.454,6.268-14.445-2.752-8.109-9.664-14.466-15.368-14.5S806.175,533.815,808.617,541.943ZM476.37,205.447c-0.631,7.406.67,12.329,2.537,11.246,1.834-1.066,3.579-7.207,4.194-14.054,0.632-7.12-.083-12.575-1.968-11.957S477,197.961,476.37,205.447ZM808.824,418.956a69.771,69.771,0,0,0,19.045,13.755c5.99,2.731,7.691,1.308,3.472-3.474a67.4,67.4,0,0,0-19.435-14.21C805.556,412.2,804.362,414.069,808.824,418.956Zm-126.53-114.4c3.746,3.283,11.729,6.788,17.919,8.138,6.025,1.3,8.278-.111,4.742-3.507-3.687-3.536-11.849-7.562-18.175-8.716C680.392,299.305,678.532,301.269,682.294,304.561ZM640.975,685.9c-2.9,9.572.54,15.925,8.061,13.735,7.694-2.241,16.425-12.844,18.842-22.944,2.453-10.2-1.631-15.788-8.884-13.12C651.768,666.238,644.016,675.884,640.975,685.9Zm-46-429.832c2.481,3.368,8.642,5.589,13.484,5.18,4.714-.407,6.669-3.271,4.195-6.594-2.57-3.443-8.691-6.1-13.567-5.615C594.324,249.51,592.533,252.76,594.972,256.068ZM827.7,490.173c3.5,6.45,10.866,12.93,16.626,14.419,5.827,1.5,7.831-2.836,4.025-9.426-3.748-6.517-11.461-12.975-17.045-14.419C825.525,479.257,824.073,483.491,827.7,490.173ZM475.792,721c4.905-7.5,1.627-10.544-7.06-7.177-8.706,3.38-19.972,11.754-25.482,19.1-5.436,7.244-2.816,11.129,6.066,8.206C458.293,738.185,470.85,728.578,475.792,721ZM440.069,247.756c0.241-8.08-.442-15.2-1.83-15.474s-3.081,6.358-3.492,14.762c-0.426,8.482.818,15.579,2.359,15.517C438.6,262.5,439.819,255.79,440.069,247.756Zm17.9-35.12c0.662-8.053.335-14.717-1.081-14.513s-3.415,7.409-4.143,15.794c-0.731,8.3.118,14.7,1.541,14.389C455.725,227.984,457.284,220.8,457.968,212.636Zm94.381,504.123c4.569-8.953,1.548-13.435-6.36-10.394-7.945,3.061-18.29,12.244-23.564,20.966-5.324,8.8-2.829,14.3,5.762,11.369C536.629,735.818,547.851,725.594,552.349,716.759ZM531.5,224.3c0.926,4.422,4.605,6.887,7.9,5.716,3.311-1.188,5.179-5.507,4.172-9.745-1.026-4.274-4.445-7.208-7.708-6.192S530.567,219.878,531.5,224.3ZM794.093,574.962c1.469,8.492,7.627,15.436,13.725,14.911,6.113-.533,9.895-8.322,7.954-16.811-1.945-8.579-8.486-15.077-14.2-14.552S792.624,566.415,794.093,574.962ZM834.606,471.6c3.789,5.864,11.676,12.46,17.566,14.583s7.651-.947,3.571-6.885c-3.993-5.829-12.105-12.48-17.748-14.613C832.19,462.487,830.8,465.7,834.606,471.6Zm-51.672-92.4c4.279,3.97,12.727,9.445,19.309,12.655,6.762,3.294,9.042,2.8,4.681-1.512-4.245-4.195-13.368-10.362-19.877-13.29C780.375,374.038,778.625,375.2,782.934,379.2ZM750.8,349.779c4.085,3.605,12.459,8.438,19.1,11.222,6.835,2.861,9.3,2.293,5.13-1.687-4.049-3.857-13.074-9.39-19.646-11.869C748.658,344.9,746.682,346.149,750.8,349.779ZM623.781,266.988c2.8,3.188,9.493,5.672,14.924,5.828,5.292,0.144,7.391-2.089,4.567-5.357-2.854-3.292-9.932-6.381-15.181-6.373C622.962,261.081,621.061,263.893,623.781,266.988Zm72.287,401.588c-1.727,9.76,2.346,16.491,9.527,14.744s14.316-11.381,15.726-21.418c1.424-10.1-3.368-16.852-9.98-14.938S697.827,658.73,696.068,668.576ZM491.008,199.2c-0.527,6.432.983,10.527,3.121,9.559,2.208-1.01,4.22-6.692,4.715-12.935,0.473-6.064-.612-10.845-2.678-10.214C494.053,186.242,491.529,192.716,491.008,199.2ZM316.784,641.614c2.641-5.246-3.809-8.634-14.453-7.794-10.8.867-23.085,6.224-26,11.815-2.9,5.561,4.062,9.239,15.431,7.994C303.158,652.389,314.09,646.939,316.784,641.614Zm49.695-216.036c0.538-6.224-3.237-12.73-8.617-14.526-5.466-1.82-11.472,2.169-12.522,8.777s3.251,13.136,9.4,14.607S365.923,431.881,366.479,425.578ZM317.8,537.226c1.688-5.664-4.054-11.061-13.06-12.286-8.93-1.2-18.678,2.511-21.031,8.491-2.389,6.055,3.835,11.816,13.7,12.689C307.359,547.006,316.065,542.985,317.8,537.226ZM774.908,612.49c0.341,9.34,5.527,16.334,12.087,15.534,6.619-.8,11.289-8.878,10.408-18.308-0.86-9.275-6.692-16.088-12.6-15.34C778.933,595.12,774.581,603.273,774.908,612.49Zm-256.785-402.5c0.229,5.176,2.838,8.062,5.785,6.95s4.839-5.545,4.484-10.493c-0.353-4.835-2.821-8.353-5.592-7.365C520.059,200.047,517.9,205.022,518.123,209.985ZM303.067,580.876c1.98-5.447-4.135-10.013-14.113-10.621-10.135-.614-20.972,3.5-23.557,9.424-2.619,5.982,4.331,11,15.4,11.081C291.5,590.841,301.04,586.4,303.067,580.876Zm26.014-88.691c1.573-6-3.154-11.986-11.037-13.883-7.573-1.813-15.9,1.4-18.072,7.417-2.293,6.342,2.934,12.766,11.561,14.311C320.016,501.551,327.546,497.981,329.081,492.185ZM487.648,739.838c5.422-8.223,2.947-12.048-5.306-9.1s-19.276,11.349-25.21,19.292c-6.144,8.219-4.157,12.742,4.873,9.825C470.779,757.025,482.25,748.026,487.648,739.838ZM720.5,322.406c3.623,3.352,11.364,7.47,17.972,9.79,6.635,2.322,9.461,1.7,6.024-1.792-3.624-3.68-11.931-8.455-18.728-10.547C719.167,317.825,716.941,319.118,720.5,322.406Zm-64.033-42.441c3.049,3.16,9.877,6.092,15.75,7.027,5.892,0.934,8.415-.676,5.446-3.954-3.113-3.434-10.371-6.946-16.333-7.663C655.518,274.674,653.447,276.843,656.463,279.965Zm185.282,178.18a55.69,55.69,0,0,0,17.673,14.531c6,2.879,7.859,1.135,3.888-4.173-4.124-5.517-12.424-12.325-18.461-15.149C838.958,450.606,837.734,452.808,841.745,458.145Zm-394.63-243.19c0.729-8.374.558-15.31-.718-15.489s-3.167,6.718-3.976,15.306c-0.845,8.882-.147,15.537,1.233,15.314C445,229.857,446.384,223.316,447.115,214.955ZM816.166,411.922c4.294,4.5,12.652,10.607,19.155,14.079,6.3,3.363,8.16,2.669,3.9-1.937-4.229-4.573-12.908-11.06-19.308-14.339S812,407.557,816.166,411.922ZM346.654,709.115c4.237-5.661-.512-7.885-10.937-5.427-10.486,2.475-22.153,8.563-26.624,14.237-4.465,5.655.4,8.421,10.928,5.956C330.535,721.429,342.488,714.664,346.654,709.115Zm55.488-379.178c0.133-7.221-1.666-13.84-4.4-15.15s-5.462,3.389-5.993,10.8c-0.536,7.336,1.743,14.176,4.819,15.287S402,337.093,402.142,329.937Zm-32.73,390.375c4.562-5.917.29-8.054-9.745-5.207-10.058,2.857-21.6,9.406-26.415,15.3-4.787,5.843-.531,8.52,9.615,5.733S364.9,726.151,369.412,720.312Zm43.005-415.821c0.1-7.542-1.282-14.242-3.442-15.286s-4.364,4.146-4.783,11.852c-0.424,7.652,1.418,14.457,3.857,15.32S412.316,311.939,412.417,304.491ZM388.483,732.673c5.337-6.468,1.931-8.994-7.613-6.066-9.7,2.975-21.3,9.882-26.715,16.152-5.377,6.215-1.942,9.2,7.782,6.348C371.379,746.347,383.42,738.805,388.483,732.673Zm32.335-455.534c0.247-7.907-.689-14.929-2.412-15.869-1.74-.955-3.663,4.6-4.137,12.634-0.478,7.981.943,14.975,2.886,15.644C419.046,290.194,420.579,284.639,420.818,277.139ZM479.655,176.76c1.283-7.465,1.335-13.623-.206-13.543-1.6.069-4.175,6.72-5.51,14.729-1.289,7.7-.849,13.462.674,13.172C476.157,190.815,478.352,184.3,479.655,176.76ZM625.891,724.744c3.686-10,.606-15.852-6.6-13.67-7.5,2.277-16.5,11.62-20.891,21.656-4.193,9.6-1.734,16.33,5.865,14.535C611.988,745.449,622.19,734.826,625.891,724.744ZM320.773,697.082c3.472-5.2-2.164-7.553-12.8-5.567s-22.463,7.668-26.432,13.055c-3.918,5.312,1.785,8.327,12.418,6.368C304.767,708.955,317.261,702.341,320.773,697.082Zm68-344.3c0.2-6.762-2.078-13.24-5.46-14.755-3.334-1.494-6.857,2.824-7.576,9.721-0.719,6.814,2.056,13.849,5.76,15.212C385.331,364.37,388.571,359.6,388.775,352.782ZM564.057,742.721c4.578-9.38,1.792-14.452-5.914-11.823s-17.835,11.831-23.1,20.987c-5.194,9.031-3.2,15.148,4.771,13.022C547.954,762.745,559.448,752.2,564.057,742.721ZM467.291,179.61c1.281-7.927,1.486-14.813.125-14.812s-3.8,7.033-5.11,15.31c-1.3,8.208-.994,14.65.361,14.389S466,187.527,467.291,179.61ZM749.848,655.172c-0.648,9.477,4.138,16.8,10.739,15.625s12.566-10.548,12.659-20.044c0.107-9.6-5.105-16.263-11.24-15.026S750.509,645.637,749.848,655.172ZM508.591,192.5c-0.419,5.548,1.456,9.186,3.87,8.254s4.615-5.956,4.963-11.217c0.339-5.3-1.16-9.365-3.542-8.69S509,186.943,508.591,192.5ZM283.842,624.3c2.719-5.206-3.724-9.3-14.413-9.31-10.748,0-22.392,4.232-25.6,9.763-3.179,5.458,3.762,10.124,14.846,9.88C269.654,634.409,281.116,629.506,283.842,624.3Zm54.943-180.5c0.967-6-3.2-12.375-9.6-14.409-6.366-2.02-13.28,1.265-14.858,7.488s3.246,13.179,10.123,14.872C331.409,453.475,337.825,449.717,338.785,443.8Zm66.1,302.281c5.055-6.4,1.971-9.144-6.655-6.378-8.9,2.862-20.963,10.432-26.7,16.935-5.7,6.465-2.826,9.792,6.468,6.976S399.711,752.635,404.882,746.083Zm23.642-499.431c0.433-7.643-.1-14.886-1.42-15.724-1.359-.867-3.245,5.248-3.91,13.353-0.668,8.018.308,15.2,1.866,15.769S428.067,254.6,428.524,246.652Zm58.8-72.18c-1.261,7.067-.537,12.182,1.292,11.526s4.149-6.615,5.332-13.345c1.141-6.556.9-12.051-.82-11.844C491.363,161.017,488.579,167.4,487.327,174.472ZM658.984,715.659c-3.106,10.012.265,17.238,7.763,15.431,7.518-1.812,16.086-12.21,18.382-22.316,2.325-10.181-1.748-16.556-8.646-14.421C669.782,696.431,662.009,705.923,658.984,715.659ZM693.03,296.413c3.242,3.139,10.52,6.642,16.728,8.274,6.229,1.632,8.815.554,5.663-2.8s-11.373-7.678-17.452-8.987C692.03,291.613,689.864,293.35,693.03,296.413ZM849.5,449.1c3.832,4.686,11.63,11.074,17.8,14.623,6.254,3.592,8.389,2.961,4.642-1.769-3.727-4.708-12.535-12.017-18.665-15.433C847.32,443.2,845.723,444.49,849.5,449.1ZM290.867,684c3.466-5.122-2.262-8.1-12.892-6.893-10.5,1.2-22.716,6.423-26.508,11.709-3.847,5.353,2.132,8.665,13.3,7.206C276.056,694.551,287.34,689.187,290.867,684ZM370.86,373.918c0.578-6.4-2.082-13.177-6.118-15s-8.538,1.964-9.605,8.491c-1.091,6.649,1.929,13.314,6.606,15.085C366.4,384.249,370.263,380.418,370.86,373.918Zm85.363-193.031c1.3-8.411,1.636-15.683.434-15.892s-3.5,6.981-4.8,15.6c-1.315,8.706-1.107,15.133.157,14.962C453.25,195.387,454.948,189.122,456.223,180.887Zm123.733,48.225c1.568,3.507,6.115,5.638,10.381,5.165s6.21-3.377,4.449-6.9a11.042,11.042,0,0,0-10.209-5.532C580.5,222.243,578.407,225.651,579.956,229.112ZM793.467,375.743c3.763,3.723,11.825,9.21,18.683,12.867,6.9,3.681,9.53,3.726,5.694-.289-3.791-3.969-12.63-10.2-19.315-13.472C792.011,371.647,789.879,372.19,793.467,375.743Zm60.448,169.03c2.694,7.008,8.945,13.45,14.557,14.708,5.837,1.313,8.292-3.2,5.358-10.3-2.914-7.076-9.873-13.847-15.285-15.113C853.155,532.8,851.179,537.641,853.915,544.773ZM497.566,763.527c5.753-8.785,3.744-13.557-4.116-11.012-7.841,2.547-19,11.308-25.027,19.737-6.084,8.5-4.418,13.492,4.181,11.008C480.911,780.869,491.939,772.114,497.566,763.527ZM841.158,573.491c2.1,7.73,7.979,14.261,13.7,14.831,5.9,0.594,8.759-5.216,6.257-13.129-2.4-7.633-8.724-14.115-14.107-14.782C841.509,559.738,839.009,565.554,841.158,573.491Zm-282.2-356.8a7.359,7.359,0,0,0,8.348,5.356c3.773-.653,5.791-3.948,4.629-7.768-1.119-3.674-4.755-6.351-8.278-5.807C560.052,209.024,557.914,212.833,558.959,216.7ZM826.221,408.6c3.881,4.017,11.992,10.1,18.529,14s8.914,3.923,5.059-.285c-3.861-4.223-12.362-10.767-18.979-14.5S822.313,404.549,826.221,408.6Zm38.126,113.087c3.156,6.387,9.929,12.906,15.52,14.741s7.579-1.692,4.252-8c-3.349-6.359-10.442-12.914-15.892-14.832S861.18,515.27,864.347,521.682ZM605.3,241.256c1.945,3.213,7.166,5.525,11.861,5.5s6.913-2.452,4.877-5.707c-2.064-3.3-7.318-5.98-11.961-5.892S603.355,238.04,605.3,241.256ZM762.446,345.693c3.546,3.436,11.452,8.305,18.161,11.378s9.535,2.885,6.034-.779c-3.548-3.708-11.786-9.056-18.586-11.9S758.905,342.268,762.446,345.693ZM417.307,763.15c5.674-7.153,3.132-10.256-5.521-7.354-8.677,2.918-19.855,10.348-25.887,17.363-5.937,6.9-3.768,10.527,5.129,7.843C399.9,778.331,411.635,770.3,417.307,763.15Zm19.256-549.062c0.809-8.225.719-15.218-.491-15.638s-3.062,5.979-3.971,14.409c-0.9,8.33-.377,15.063.909,15.325S435.752,222.287,436.563,214.088ZM287.709,509.43c1.976-5.653-2.923-11.391-11.558-13.455s-17.663.689-20.224,6.591c-2.559,5.868,2.94,12.19,12.051,13.952C277.107,518.287,285.752,514.993,287.709,509.43ZM270.122,556.2c2.185-5.48-3.517-10.626-13.344-12.048s-19.869,1.723-22.6,7.524c-2.711,5.716,3.635,11.444,13.873,12.545S267.938,561.633,270.122,556.2Zm554.464,51.191c1.261,8.5,6.879,15.494,12.823,15.44s9.546-7.064,7.818-15.5c-1.728-8.479-7.669-14.872-13.334-14.75C826.415,592.712,823.353,599.077,824.586,607.392ZM542.181,202.45c0.3,4.328,3.189,7.053,6.4,6.421s5.4-4.35,4.947-8.467c-0.464-4.183-3.192-7.182-6.344-6.578C544.109,194.406,541.888,198.267,542.181,202.45ZM718,701.8c-1.755,9.685,2,16.928,8.72,15.845,6.867-1.1,13.951-10.756,15.2-20.8,1.282-10.182-3.093-16.6-9.711-15.012C725.866,683.365,719.791,691.943,718,701.8ZM503.136,170.467c-1.076,6.057-.146,10.288,1.849,9.766,2.047-.544,4.452-5.734,5.5-11.684,1.062-6.023.453-10.579-1.651-10.08C506.828,158.936,504.225,164.321,503.136,170.467Zm131.746,84.051c2.245,2.982,8.223,5.639,13.337,6.148,5.18,0.508,7.668-1.609,5.19-4.8-2.437-3.13-8.532-6.078-13.583-6.383S632.618,251.517,634.882,254.518Zm238.609,249.7c3.359,5.574,10.569,12.235,16.1,14.775,5.644,2.581,7.581-.016,3.928-5.726-3.586-5.62-11-12.237-16.491-14.765S870.1,498.576,873.491,504.215ZM258.476,667.554c2.872-4.921-3.441-8.2-14.305-7.582-10.806.626-22.616,5.181-25.779,10.316-3.144,5.1,3.746,8.953,14.633,8.078C244.023,677.5,255.641,672.4,258.476,667.554Zm88.866-274.728c1.058-5.919-1.867-12.607-6.709-14.933s-10.327.6-11.906,6.7c-1.573,6.046,1.81,13.2,7.084,15.338S346.288,398.7,347.342,392.826ZM248.833,602.309c2.8-5.037-3.407-9.855-13.732-10.729-10.353-.866-21.8,2.641-24.818,8.014-3,5.332,3.954,10.591,14.681,11.071C235.411,611.143,246.084,607.243,248.833,602.309Zm54.173-141.8c1.576-5.585-2.83-11.991-9.986-14.312-7.12-2.3-15.143.48-17.1,6.316-1.91,5.7,2.871,12.358,10.26,14.474C293.784,469.171,301.438,466.045,303.006,460.506Zm500.186,186.48c0.325,8.626,5.312,15.658,11.319,15.372,6.2-.292,10.927-8.127,10.129-16.976-0.761-8.587-6.188-15.373-11.716-15.13C807.238,630.5,802.869,638.133,803.192,646.986ZM859.38,444.64c3.63,4.208,11.732,10.866,18,14.87,6.071,3.871,8.357,3.843,4.822-.364-3.6-4.292-12.282-11.556-18.464-15.375C857.721,440.043,855.861,440.566,859.38,444.64ZM529.827,186.251c-0.244,4.565,1.841,7.609,4.5,7.013,2.743-.623,5.051-4.707,5.188-9.214,0.124-4.365-1.751-7.856-4.274-7.457C532.643,176.992,530.072,181.585,529.827,186.251ZM733.341,317.073c3.1,3.135,10.931,7.518,17.374,9.893,6.242,2.3,9.03,1.712,5.967-1.6-3.121-3.376-11.475-8.323-17.783-10.392C732.76,312.954,730.336,314.031,733.341,317.073Zm-253.552-172.3c1.8-7.688,2.439-14.39,1.1-14.389s-4.228,6.959-6,14.805c-1.817,7.994-1.96,13.937-.61,13.724S477.97,152.5,479.789,144.769Zm94.635,630.656c4.682-9.539,2.366-15.653-4.732-13.739s-17.166,11.1-22.336,20.372c-5.2,9.347-3.445,15.811,4.3,14.092S569.7,785.051,574.424,775.425Zm-147.358,8.764c5.612-7.285,3.748-11.057-3.915-8.74-7.835,2.372-19.54,10.317-25.742,17.567-6.3,7.371-4.773,11.532,3.78,9.175C409.714,799.847,421.2,791.806,427.066,784.189Zm186.8-18.332c-4.261,9.974-1.94,16.928,5.626,15.36,7.589-1.561,16.539-11.015,20.15-21.245,3.549-10.061.474-16.568-6.418-14.615C626.471,747.273,617.949,756.294,613.864,765.857ZM446.009,179.473c1.238-8.194,1.589-15.484.5-15.728-1.056-.241-3.139,6.3-4.4,14.35-1.325,8.408-1.273,15.156-.148,15.456C443.1,193.839,444.746,187.814,446.009,179.473Zm41.3-34.687c-1.765,7.31-1.777,12.537-.3,12.348,1.549-.213,3.938-5.732,5.784-13.033,1.807-7.158,2.3-13.368.8-13.3S489.078,137.418,487.305,144.786ZM668.988,270.027c2.594,3.041,8.865,6,14.537,7.042,5.493,1.012,7.829-.4,5.24-3.531-2.622-3.169-9.429-6.68-14.815-7.484C668.675,265.256,666.523,267.133,668.988,270.027Zm213.721,222.04A55.9,55.9,0,0,0,898.617,506.6c5.986,3.477,8.087,2.412,4.578-2.669-3.463-5.019-11.152-11.972-16.769-15.179C880.968,485.641,879.4,487.2,882.709,492.067ZM505.716,792.937c5.932-9.254,4.287-14.723-3.3-12.534-7.409,2.14-17.832,10.476-23.84,19.116-6.076,8.743-5.038,14.4,2.764,12.677S499.968,801.9,505.716,792.937Zm-37.611-648.02c1.81-8.12,2.6-15.093,1.51-15.6-1.1-.53-3.792,6.384-5.632,14.946-1.807,8.381-2.1,14.683-.946,14.762S466.288,153.046,468.105,144.917ZM405.012,268.883c0.6-7.009-.183-13.545-1.974-14.7s-3.984,3.514-4.83,10.7c-0.843,7.1.273,13.577,2.3,14.665S404.4,275.986,405.012,268.883ZM306.245,755.794c4.732-5.314,1.021-7.526-8.4-5.272s-20.576,7.988-25.463,13.3c-4.872,5.285-1.21,7.853,8.342,5.615S301.493,761.116,306.245,755.794Zm86.24-460.916c0.691-6.717-.362-13.242-2.616-14.948s-4.949,2.223-5.948,8.984c-1.008,6.783.362,13.4,2.911,15.026S391.8,301.533,392.485,294.878ZM283.335,742.443c4.486-5.117.419-7.455-9.36-5.6-9.8,1.866-21.133,7.167-25.716,12.279-4.618,5.139-.493,7.854,9.372,5.964S278.888,747.5,283.335,742.443ZM415.6,240.731c0.73-7.481.334-14.049-1.139-14.984-1.407-.907-3.313,4.074-4.2,11.426-0.881,7.235-.207,13.835,1.322,14.927C413.157,253.218,414.884,248.1,415.6,240.731ZM324.972,770.047c5.253-5.736,2.018-7.984-7.351-5.413-9,2.469-19.779,8.373-25.054,13.9-5.173,5.41-2.377,8.2,6.381,6.056C307.944,782.4,319.785,775.708,324.972,770.047Zm176.7-626.634c-1.644,6.444-1.436,11.289.221,10.948,1.715-.361,4.355-5.85,5.989-12.239,1.6-6.268,1.694-11.165-.027-10.972C506.161,131.332,503.346,136.822,501.669,143.413ZM678.391,751.951c-2.886,9.682-.011,17.073,6.71,16.107,6.852-.983,15.06-10.789,17.4-20.809,2.326-9.914-1.114-16.268-7.619-14.911C688.371,733.71,681.326,742.1,678.391,751.951Zm97.7-61.056c-0.877,9.362,3.441,16.984,9.714,16.362,6.032-.6,11.622-8.939,11.949-17.931,0.345-9.224-4.14-15.889-9.936-15.384C781.926,674.469,776.95,681.728,776.093,690.9ZM522,165.96c-0.907,5.1.262,8.768,2.442,8.441,2.213-.34,4.7-4.787,5.5-9.779,0.786-4.932-.154-8.761-2.323-8.481S522.915,160.793,522,165.96ZM316.79,408.774c1.318-5.634-1.843-11.759-7.556-14.307-5.654-2.523-11.725-.151-13.657,5.654-1.895,5.657,1.688,12.532,7.612,14.9C309.307,417.465,315.446,414.493,316.79,408.774ZM222.4,648.035c3.337-4.856-2.058-8.817-12.437-9.226-10.68-.417-21.914,2.852-25.694,7.848-3.9,5.144,2.086,9.784,12.985,9.982C207.632,656.839,219.15,652.752,222.4,648.035ZM839.612,408.5c3.428,3.608,11.621,9.917,17.887,13.865,6.314,3.974,9.044,4.392,5.66.6-3.452-3.865-11.645-10.32-18.231-14.255C838.375,404.788,836.124,404.831,839.612,408.5ZM807.853,375c3.21,3.33,11.294,9.041,17.726,12.65,6.409,3.584,9.435,3.881,6.266.34-3.233-3.61-11.391-9.558-18.063-13.044S804.583,371.606,807.853,375ZM376.82,317.518c0.831-6.2-.609-12.711-3.43-14.695s-6.169,1.372-7.361,7.663c-1.178,6.172.614,13.107,3.7,14.965S376.005,323.588,376.82,317.518ZM256.5,728.36c4.008-4.781-.775-7.329-10.789-5.914-10.105,1.43-21.471,6.244-25.639,11.14-4.089,4.8.912,7.807,10.82,6.37C240.681,738.542,252.561,733.056,256.5,728.36ZM425.516,209.742c0.889-7.056.915-14.166-.125-15.244-1.074-1.119-3.056,4.409-4.118,11.878-1.028,7.2-.751,13.994.429,15.026C422.924,222.462,424.573,217.19,425.516,209.742ZM339.608,786.277c5.213-5.662,2.78-8.425-5.19-6.267-8.241,2.237-20.117,8.961-25.638,14.651-5.4,5.568-3.222,8.642,4.963,6.6C322.186,799.154,334.236,792.117,339.608,786.277Zm-102.8-260.7c2.16-4.917-2.976-10.651-11.523-12.807-8.812-2.219-19.05.207-21.75,5.5-2.634,5.162,2.931,11.266,12,13.219C224.888,533.514,234.569,530.662,236.808,525.577ZM893.056,485.4c3.159,4.239,10.329,10.7,16.075,14.5,5.79,3.826,8.017,3.65,4.815-.649-3.109-4.183-10.869-11.233-16.49-14.95S889.918,481.187,893.056,485.4ZM707.293,289.056c2.586,2.872,9.271,6.39,15.061,8.082s8.491,0.762,5.819-2.328c-2.624-3.034-9.816-7.072-15.383-8.508S704.748,286.234,707.293,289.056ZM433.956,810.546c5.6-7.449,4.231-11.84-2.765-9.989-7.2,1.91-18.549,9.771-24.769,17.231-6.381,7.655-5.371,12.332,2.615,10.413C416.984,826.3,428.035,818.431,433.956,810.546Zm23.722-667.81c1.67-7.945,2.447-15.183,1.443-15.471-0.97-.282-3.318,6.124-4.967,13.924-1.745,8.228-2.139,14.84-1.132,15.185C454.048,156.709,455.96,150.892,457.678,142.736ZM258.139,475.163c1.848-5.037-2.374-11.056-9.629-13.59-7.43-2.591-16.281-.465-18.858,4.847-2.64,5.43,2.057,11.75,10.405,14.148S256.175,480.492,258.139,475.163ZM212.5,574.232c2.185-4.78-3.405-9.789-12.66-11.342-9.5-1.59-20.44,1.225-23.316,6.331-2.957,5.235,3.124,10.536,13.567,11.857C200.5,582.4,210.174,579.285,212.5,574.232ZM872.452,444.473c3.233,3.72,10.24,9.649,16.444,13.988,6.5,4.552,9.163,5.264,5.872,1.316C891.541,455.9,883.5,449,877.375,444.919,871.426,440.949,869.312,440.862,872.452,444.473ZM778.2,343.634c3.191,3.285,10.442,7.917,16.941,10.95,6.192,2.891,8.677,2.661,5.537-.793-3.043-3.351-10.7-8.486-16.815-11.176C777.557,339.835,775.068,340.419,778.2,343.634Zm-421.712-6.59c1-5.682-.711-12.051-4-14.267-3.372-2.277-7.576.727-9,6.681-1.446,6.044.689,12.424,4.657,14.478C351.939,345.9,355.446,342.878,356.483,337.044ZM225.116,712.589c3.627-4.645-1.657-7.586-11.732-6.667-9.766.9-20.917,5.257-24.592,9.862-3.772,4.717,1.165,7.814,11.226,6.942C210.56,721.814,221.424,717.3,225.116,712.589ZM890.934,580.7c2.216,6.448,7.886,12.7,13.049,14.153s7.473-2.447,5.015-8.752c-2.486-6.388-8.436-12.48-13.43-13.92C890.739,570.794,888.8,574.491,890.934,580.7ZM592.739,212.248c1.064,3.122,4.911,5.332,8.643,5.162s5.716-2.666,4.469-5.8a9.129,9.129,0,0,0-8.743-5.271C593.572,206.581,591.7,209.189,592.739,212.248ZM349.625,806.106c6.048-6.437,4.343-9.48-3.719-7.229-7.78,2.174-18.051,8.238-24.064,14.3-6.087,6.135-4.689,9.734,3.281,7.686C332.856,818.89,343.906,812.189,349.625,806.106ZM876.212,610c1.707,6.809,7,13.059,12.063,13.944,5.21,0.909,8.042-4.175,6.046-11.094-2.034-7.074-7.626-13.024-12.719-13.769C876.706,598.379,874.467,603.036,876.212,610Zm-304.4-412.465a6.416,6.416,0,0,0,6.718,5.341,5.192,5.192,0,0,0,4.7-6.461c-0.7-3.413-3.683-5.892-6.924-5.524C573.209,191.241,571.255,194.176,571.816,197.538ZM435.9,175.518c1.244-7.738,1.592-14.268.583-14.835-0.964-.548-2.8,4.872-4.067,12.443-1.29,7.665-1.34,14.3-.31,14.742C433.106,188.292,434.718,182.833,435.9,175.518Zm82.6-33.927c-1.4,5.385-.97,9.408.784,9.2,1.813-.213,4.333-4.682,5.718-10.05,1.408-5.459,1.2-9.659-.682-9.427C522.521,131.536,519.933,136.057,518.493,141.591Zm223.386,599c-1.767,9.38,1.755,16.692,8.025,15.843,6.045-.82,12.274-9.128,13.571-18.143,1.351-9.306-2.191-15.8-7.944-15.274C749.459,723.585,743.672,731.068,741.879,740.591ZM903.526,558.413c2.593,5.553,8.569,11.662,13.535,13.705,5.107,2.094,7.183-.841,4.377-6.476-2.859-5.749-9.082-11.794-14.162-13.833C902.409,549.86,900.872,552.724,903.526,558.413ZM618.489,226.729c1.4,2.8,5.871,5.143,9.967,5.381,4.185,0.236,6.47-1.959,4.842-4.9-1.6-2.886-6.063-5.351-10.128-5.459S617.071,223.893,618.489,226.729ZM495.659,108.988c2.2-7.13,3.129-13.114,1.883-13.352s-4.139,5.519-6.371,12.891c-2.277,7.5-2.916,13.643-1.619,13.442C490.831,121.768,493.487,116.023,495.659,108.988ZM584.49,814.247c4.428-9.329,2.485-15.4-4.128-14.08-6.664,1.34-15.456,9.275-20.415,18.45-5.056,9.35-3.53,16.527,3.608,15.156C570.482,832.444,580.154,823.4,584.49,814.247ZM857.6,645.19c1.064,7.414,6.355,14.083,11.519,14.181,5,0.092,8.359-5.844,7.2-12.886-1.2-7.362-6.556-13.744-11.6-14.134C859.649,631.965,856.528,637.683,857.6,645.19ZM555.676,181.322c0,3.652,2.438,6.313,5.146,5.886,2.626-.417,4.747-3.511,4.7-6.949-0.051-3.57-2.267-6.5-4.925-6.255C557.924,174.252,555.671,177.628,555.676,181.322Zm-42.6,646.684c5.26-8.778,3.621-14.334-3.365-12.643-6.947,1.692-17.063,9.97-22.5,18.485-5.2,8.154-4.084,14.22,2.706,13C496.934,845.589,507.934,836.61,513.081,828.006Zm-328.5-205.4c2.622-4.6-3.336-8.911-13.5-9.813-10.094-.889-20.951,2.217-23.578,7.048-2.519,4.629,3.763,9.294,13.5,10.017C171.054,630.61,182.006,627.105,184.583,622.605Zm93.188-199.194c2.029-4.967-1.23-11.336-7.361-14.168-6.164-2.845-13.305-1.09-15.625,4.126-2.3,5.15,1.557,12.006,8.02,14.5C269.084,430.293,275.821,428.172,277.771,423.411ZM483.321,107.2c2.093-7.158,3.244-13.979,2.281-14.566-1-.615-3.913,5.589-6.1,13.269-2.11,7.395-2.9,13.777-1.945,14.26C478.529,120.646,481.135,114.648,483.321,107.2Zm21.009,3.218c-2.089,6.562-2.5,11.688-1.119,11.613s4.1-5.26,6.14-11.557,2.826-11.976,1.487-12.089S506.368,103.993,504.33,110.417ZM330.318,354.191c1.3-5.12-.735-11.46-4.607-13.936-3.985-2.553-9.174-.142-10.772,5.237-1.585,5.337.819,11.63,5.181,13.96S329.009,359.323,330.318,354.191ZM630.005,806.223c-3.554,9.165-1.157,15.967,5.562,14.785,6.692-1.174,15.135-10.171,18.213-19.358,3.1-9.233.294-15.746-5.878-14.46S633.5,797.227,630.005,806.223Zm284.65-264.666c2.379,4.588,8.62,10.857,13.665,13.654,5.294,2.935,7.512,1.429,4.744-3.445-2.6-4.594-9.206-11.047-14.079-13.8S912.225,536.868,914.655,541.557ZM649.113,242.485c1.817,2.645,6.91,5.126,11.4,5.686s6.773-1.095,4.982-3.822c-1.771-2.692-7.086-5.572-11.436-6.084C649.565,237.731,647.267,239.8,649.113,242.485ZM190.3,693.825c3.165-4.184-2.184-7.529-11.713-7.42-9.511.117-20.677,3.723-24.436,8.137-3.689,4.333,1.667,8.048,11.442,7.867C175.847,702.225,186.954,698.244,190.3,693.825ZM905.982,484.091c3.073,3.819,9.95,10.008,15.623,14.112,5.65,4.084,7.777,4.343,4.528.334a98.324,98.324,0,0,0-15.586-14.182C905.015,480.379,902.974,480.355,905.982,484.091ZM750.137,312.756c2.427,2.8,9.108,6.807,14.991,9.117,5.917,2.319,8.662,1.878,5.972-1.222-2.654-3.058-9.865-7.521-15.452-9.473C750.231,309.279,747.812,310.077,750.137,312.756Zm84.3,373.389c0.224,8,4.361,14.214,9.736,14.168,5.4-.04,9.277-6.243,8.753-14.134-0.519-7.872-5-14.007-10.008-14.075C837.961,672.038,834.225,678.284,834.441,686.145ZM544.58,162.531c-0.534,4.079.911,6.785,3.223,6.422s4.323-3.542,4.761-7.526c0.428-3.913-.887-7.033-3.043-6.776S545.114,158.472,544.58,162.531ZM438.382,842.9c5.5-7.519,4.535-12.08-1.958-10.656-6.744,1.491-16.677,8.528-22.837,16.239-6.126,7.666-5.528,12.776,1.629,11.3S432.589,850.829,438.382,842.9Zm9.5-704.639c1.473-7.189,2.14-13.419,1.35-14.054-0.812-.666-2.856,4.963-4.428,12.539s-1.977,13.7-1.095,14.1S446.329,145.848,447.884,138.263ZM356.278,829.988c6.024-6.527,4.99-10.1-2.114-8.269-6.89,1.782-16.765,7.762-22.824,13.887-6.369,6.433-5.946,10.4,1.212,8.894S350.226,836.547,356.278,829.988ZM472.389,103.449c1.994-7.387,3.013-13.65,2.137-14.176-0.9-.554-3.423,5.357-5.5,13.173s-2.814,13.972-1.872,14.2S470.292,111.2,472.389,103.449ZM857.4,411.477c2.852,3.2,9.773,8.715,15.77,12.637,6.216,4.064,8.927,4.641,5.837,1.031-2.955-3.451-10.063-9.174-16.185-12.959C856.739,408.422,854.5,408.218,857.4,411.477ZM926.71,531.93c2.707,4.188,8.9,10.188,13.725,13.259,4.778,3.039,6.7,2.255,4.019-1.821-2.733-4.159-8.955-10.14-13.895-13.352C925.576,526.776,923.962,527.678,926.71,531.93ZM684.831,260.578c2,2.559,7.544,5.432,12.159,6.405s6.883-.349,4.828-3.026c-2.09-2.719-7.546-5.677-12.275-6.565S682.8,257.974,684.831,260.578Zm204.283,187.51c2.709,3.175,10.017,9.468,15.67,13.551s8.378,4.908,5.569,1.53c-2.9-3.492-10.162-9.784-16.06-13.866C888.671,445.407,886.45,444.962,889.114,448.088Zm-62.622-71.842c2.471,2.86,9.693,8.19,15.56,11.568,5.809,3.339,8.876,3.741,6.272.634-2.574-3.069-9.51-8.3-15.388-11.531C826.756,373.518,823.968,373.324,826.492,376.246ZM202.98,488.835c2.7-4.423-1.389-10.265-9.113-12.925-7.481-2.571-15.916-1.252-18.913,3.2-3.023,4.48,1.5,10.908,9.359,13.365C191.793,494.827,200.4,493.044,202.98,488.835Zm-27.75,51.418c1.984-4.439-2.958-9.387-11.46-11.409-8.767-2.084-18.4,0-20.754,4.752-2.242,4.525,3.342,10.093,11.773,11.816C163.668,547.233,173.241,544.694,175.23,540.253ZM699.443,795.317c-2.106,8.428.9,14.952,6.706,13.951,5.831-1,12.672-9.328,14.572-17.7,1.942-8.526-1.152-14.778-6.631-13.977C708.392,778.428,701.626,786.613,699.443,795.317ZM519.449,111.787c-1.748,5.392-1.9,9.688-.5,9.55s4-4.566,5.729-9.718c1.748-5.225,2.233-9.9.9-10.081C524.2,101.339,521.246,106.233,519.449,111.787ZM151.5,670.855c2.755-3.973-2.8-7.657-12.028-8.024-9.21-.354-19.989,2.869-22.608,6.978-2.682,4.208,3.292,7.887,13.028,8C139.187,677.92,148.806,674.731,151.5,670.855ZM296.7,368.181c1.559-4.647-.8-10.773-5.213-13.26a8.282,8.282,0,0,0-11.646,3.65c-2.095,4.62.369,10.912,5.191,13.517C289.871,374.707,295.127,372.856,296.7,368.181ZM234.733,791.389c3.883-4.019.984-6.139-6.339-4.777-7.57,1.413-18.095,6.247-22.465,10.453-4.4,4.224-1.382,6.595,6.58,5.039C220.492,800.547,230.684,795.58,234.733,791.389ZM400.326,229.307c0.944-5.576.757-11.854-.5-13.253s-3.4,2.415-4.482,8.1c-1.09,5.735-.657,11.637.824,12.9C397.59,238.274,399.385,234.838,400.326,229.307ZM211.739,775.646c3.756-4.011-.086-6.195-8.27-4.81-7.872,1.337-17.809,5.648-21.77,9.58-4.133,4.1-.545,6.535,7.809,5.193C197.909,784.265,207.938,779.7,211.739,775.646ZM385.627,254.633c0.958-5.378.447-11.475-1.206-13.024-1.586-1.482-3.985,1.575-5.18,6.74-1.243,5.35-.609,11.4,1.266,13.114C382.407,263.2,384.643,260.127,385.627,254.633ZM538.283,139.955c-1.042,4.341-.257,7.343,1.662,7.007,1.83-.32,3.866-3.593,4.8-7.687,0.9-3.975.388-7.42-1.247-7.423C541.81,131.845,539.291,135.747,538.283,139.955ZM805,733.384c-0.511,7.738,3.006,13.711,8.193,13.477,5.482-.242,10-6.8,10.23-14.886,0.216-7.575-3.634-13.587-8.387-13.474C810.178,718.618,805.527,725.548,805,733.384ZM252.409,808.118c4.53-4.379,2.461-6.7-4.518-5.256-7.136,1.476-17.648,6.647-22.362,11.1-4.657,4.4-2.662,6.763,4.625,5.293C237.851,817.7,247.571,812.791,252.409,808.118Zm160.784-608.2c0.956-5.894,1.058-11.773.109-12.964-0.965-1.218-2.908,3.154-4.006,9.218-1.089,6-.985,11.529.118,12.684C410.584,210.08,412.17,206.216,413.193,199.922ZM228.844,435c2.288-4.42-.673-10.012-6.859-12.8-5.924-2.669-12.878-1.567-15.5,2.647-2.83,4.524.129,10.27,6.672,13.1C219.719,440.774,226.556,439.394,228.844,435Zm-85.3,156.747c2.451-4.069-1.959-8.277-10.417-9.931-8.707-1.705-18.367.286-21.333,4.621-3.023,4.4,1.875,9.032,11.052,10.461S140.972,595.992,143.547,591.742ZM182.918,759.73c3.931-4.063.447-6.437-8-5.554-8.08.853-17.561,4.511-21.3,8.382-4,4.134-.442,6.687,8.116,5.723C169.959,767.361,179.2,763.568,182.918,759.73ZM367.586,276.046c0.972-5.032.189-10.358-1.889-12.043-2.166-1.76-4.938,1.023-6.188,6.4-1.186,5.078-.214,10.374,2.094,12.082C364,284.248,366.543,281.426,367.586,276.046Zm430.335,66.675c2.325,2.676,8.474,6.856,13.828,9.469,5.561,2.716,8.182,2.593,5.587-.447-2.522-2.954-8.652-7.154-14.166-9.642C797.7,339.633,795.527,339.966,797.921,342.721ZM922.289,487.628c2.581,3.171,8.777,8.883,13.935,12.885,5.357,4.158,7.633,4.892,4.831,1.414-2.725-3.385-8.9-9.1-14.256-13.141C921.481,484.768,919.63,484.363,922.289,487.628ZM359.5,859.4c5.788-6.377,5.306-10.177-.907-8.89-6.248,1.295-15.38,6.9-21.291,13.112-5.745,6.034-5.662,10.408.379,9.36C343.678,871.945,353.927,865.542,359.5,859.4Zm-94.468-32.412c5.119-4.765,3.629-7.168-3.283-5.59-6.948,1.588-16.118,6.325-21.1,10.985-4.612,4.312-3.369,6.983,2.834,5.776C249.866,836.916,260.085,831.593,265.035,826.983ZM725.443,282.4c1.947,2.414,7.616,5.65,12.229,7.054s6.914,0.5,4.793-2.079c-2.1-2.547-7.323-5.611-11.988-6.97C725.572,278.973,723.432,279.906,725.443,282.4ZM939.818,527.79c2.307,3.363,8.2,9.112,12.925,12.611,4.64,3.431,6.766,3.6,4.381.218-2.463-3.494-8.338-9.178-13.188-12.73C939.258,524.465,937.548,524.48,939.818,527.79Zm-477.51-429.3C464,91.83,464.84,86.3,464.1,85.83c-0.763-.5-2.864,4.7-4.656,11.752-1.739,6.829-2.459,12.862-1.684,13.039S460.592,105.23,462.308,98.495Zm-36.865,68.654c1.108-6.227,1.377-11.558.492-12.159-0.833-.575-2.428,3.612-3.581,9.618-1.167,6.052-1.329,11.893-.46,12.546S424.367,173.184,425.443,167.149Zm92.707,704.23c4.931-7.946,3.975-13.891-1.84-13.014-5.62.853-13.951,7.443-18.968,15.021-5.1,7.7-4.564,14.215,1.352,13.537C504.305,886.283,513.443,878.976,518.15,871.379ZM502.319,67.395c2.21-6.292,3.391-11.87,2.478-12.273s-3.608,4.57-5.88,10.991c-2.321,6.544-3.45,12.6-2.533,12.867S500.063,73.8,502.319,67.395Zm70.813,795.671c-3.8,7.825-2.217,14.057,3.571,13.166,5.813-.892,14.145-8.791,17.61-16.642,3.517-7.958,1.651-13.764-3.875-12.79S576.914,855.279,573.132,863.066ZM511.274,71.1c-2.219,5.953-3.143,11.153-2.146,11.394s3.642-4.442,5.842-10.241c2.187-5.777,3.378-11.3,2.4-11.679S513.474,65.186,511.274,71.1ZM150.3,741.13c3.017-3.531-1.548-6.117-9.691-5.548-7.79.549-17.183,3.927-20.175,7.39-3.184,3.682,1.382,6.288,9.94,5.618C138.559,747.951,147.325,744.611,150.3,741.13ZM344.773,294.846c1.127-4.582-.017-10.143-2.554-11.882-2.431-1.665-5.8.584-7.072,4.847-1.389,4.664-.083,9.979,2.8,11.87C340.674,301.468,343.678,299.268,344.773,294.846ZM490.432,62.725c2.192-6.558,3.485-12.48,2.715-12.978S489.8,54.5,487.634,61.1c-2.221,6.755-3.194,12.088-2.4,12.494S488.2,69.4,490.432,62.725ZM440.3,882.584c5.168-7.122,4.738-12.086-.757-11.186-5.468.9-14.357,7.3-19.7,14.226-5.456,7.073-5.264,12,.656,11.21S435.041,889.827,440.3,882.584ZM537.25,112.041c-1.578,4.5-1.641,7.909-.268,8.01,1.32,0.095,3.325-2.862,4.732-6.939,1.489-4.315,1.74-8.013.451-8.259C540.941,104.615,538.72,107.846,537.25,112.041Zm231.466,674.2c-1.087,7.312,1.706,12.7,6.534,12.211s9.476-6.619,10.568-13.948c1.153-7.739-1.84-13.43-6.577-12.947S769.866,778.524,768.716,786.244Zm-330.657-654.3c1.3-5.967,1.9-11.153,1.308-12.037-0.621-.937-2.243,3.244-3.609,9.519-1.292,5.919-1.711,11-1.06,11.683S436.792,137.777,438.059,131.948ZM272.6,849.24c5.2-4.787,4.745-7.451-.941-6.36-6.022,1.16-14.643,5.7-19.92,10.54-4.992,4.579-4.474,7.355,1.309,6.252S267.527,853.908,272.6,849.24ZM608.191,195.53c0.655,2.376,3.3,4.208,6.061,4.289,2.885,0.081,4.534-1.786,3.69-4.285a6.754,6.754,0,0,0-6.176-4.262C609.058,191.268,607.529,193.128,608.191,195.53ZM931.416,621.752c1.731,5.035,6.273,9.926,10.262,10.94,3.8,0.969,5.375-1.936,3.537-6.677s-6.217-9.3-10.047-10.549S929.752,616.913,931.416,621.752ZM253.909,379.384c1.9-3.966,0-8.885-4.536-11.575-4.567-2.713-9.809-1.892-12.065,2.032-2.363,4.094-.135,9.638,4.823,12.206C246.876,384.507,252.044,383.272,253.909,379.384ZM914.587,651.068c1.3,5.26,5.425,10.1,9.347,10.849s6.1-2.836,4.8-7.955c-1.331-5.248-5.363-9.923-9.3-10.924C915.257,641.985,913.2,645.459,914.587,651.068ZM587.232,178.49a4.835,4.835,0,0,0,4.679,4.493,3.889,3.889,0,0,0,3.822-4.488,5.015,5.015,0,0,0-4.531-4.719C588.721,173.687,586.984,175.778,587.232,178.49ZM108.728,642.7c2.593-3.807-2.113-7.286-10.971-8.11-8.406-.78-16.54,1.384-18.924,5.206-2.324,3.711,2.556,7.366,10.812,8.1S106.283,646.274,108.728,642.7Zm837.18-43.077c1.849,4.206,6.588,9.17,10.391,10.821,3.785,1.639,5.4-.482,3.412-4.6-2.03-4.208-6.708-8.867-10.577-10.577C945.468,593.643,944.113,595.538,945.908,599.618ZM649.4,851.664c-3.157,7.736-1.721,14.071,3.363,13.854,4.991-.209,11.889-7.254,14.658-14.959,2.84-7.884.919-13.473-4.2-12.854C658.3,838.307,652.435,844.221,649.4,851.664ZM525.228,75.4c-2.051,5.217-2.8,9.644-1.751,9.776s3.523-3.946,5.512-9.013c2.026-5.162,2.824-9.384,1.694-9.533C529.626,66.483,527.222,70.321,525.228,75.4Zm109.31,137.035c1.017,2.185,4.525,4.171,7.528,4.337,3.046,0.164,4.656-1.523,3.468-3.751-1.151-2.156-4.332-4.033-7.3-4.247C635.118,208.549,633.5,210.2,634.538,212.435Zm259.59,474.881c0.809,5.4,4.93,10.406,8.783,10.517s6.429-4.683,5.305-9.928c-1.1-5.16-5.019-9.7-8.585-10.06C895.882,677.464,893.321,681.906,894.128,687.316Zm16.5-231.923c2.078,2.554,8.176,7.909,13.016,11.463s7.326,4.382,5.061,1.6c-2.222-2.732-8.063-7.915-12.76-11.3C911,453.6,908.547,452.833,910.627,455.393Zm-30.935-38.526c2.008,2.464,8.133,7.473,13.04,10.691s7.5,3.814,5.283,1.106c-2.171-2.649-8.03-7.493-12.781-10.539C880.226,414.917,877.676,414.39,879.692,416.867Zm-307.956-256.9c-0.2,2.623,1.4,4.843,3.326,4.732s3.688-2.5,3.72-5.067c0.028-2.49-1.4-4.658-3.159-4.684C573.765,154.916,571.938,157.287,571.736,159.966ZM956.162,530.343a80.976,80.976,0,0,0,11.432,11c4.19,3.321,5.96,3.86,3.886,1.1a81.834,81.834,0,0,0-11.5-11.237C955.682,527.777,953.894,527.418,956.162,530.343ZM315.482,310.027c1.32-3.665.287-8.6-2.306-10.743-2.689-2.227-6.65-.739-8.122,3.151-1.425,3.767-.129,8.588,2.784,10.641C310.777,315.144,314.136,313.758,315.482,310.027ZM112.01,719.588c2.485-3.244-2.157-5.91-9.859-5.694-7.364.211-15.755,3.049-17.87,6.156-2.166,3.178,2.268,5.682,9.821,5.527C101.694,725.422,109.607,722.719,112.01,719.588ZM771.252,309.451c1.728,2.135,6.631,5.236,11,7.006,4.411,1.785,6.684,1.542,5.047-.666-1.686-2.273-7.256-5.9-11.585-7.5C771.591,306.768,769.554,307.355,771.252,309.451ZM959.961,585a28.47,28.47,0,0,0,9.965,9.94c3.551,1.961,4.834,1,3-2.348A32.76,32.76,0,0,0,962.9,582.352C959.348,580.227,958.032,581.462,959.961,585ZM666.6,230.511c1.256,2.085,4.666,3.933,8.024,4.4,3.343,0.467,4.747-.735,3.286-2.932-1.314-1.976-4.849-4-7.816-4.431C666.979,227.1,665.386,228.489,666.6,230.511ZM136.136,499.177c1.781-3.406-1.627-7.784-7.679-9.809-6.343-2.122-13.838-.928-16.131,2.7-2.375,3.752,1.255,8.172,8.331,10.221C127.685,504.325,134.149,502.959,136.136,499.177ZM359.2,895.1c4.969-5.653,5.043-9.42.318-8.785s-12.446,5.437-17.565,10.917c-5.644,6.044-5.932,10.013-.5,9.214C346.6,905.7,354.13,900.867,359.2,895.1ZM479.5,57.218c1.934-6.074,3.068-11.444,2.4-11.809-0.633-.35-2.628,4.029-4.431,9.848-1.853,5.974-2.712,10.637-2.142,11.16S477.659,63.009,479.5,57.218Zm370.7,322.215c1.563,2.138,6.641,6.088,11.265,8.819,4.55,2.685,7.163,3.145,5.487.867-1.741-2.367-6.786-6.29-11.563-8.948C850.837,377.633,848.7,377.37,850.205,379.432ZM276.364,875.5c4.551-4.367,4.376-6.924-.309-6.158-5.037.831-12.407,4.745-17.386,9.263-4.838,4.39-4.915,7.515-.054,6.719C263.451,884.529,271.75,879.923,276.364,875.5Zm666.4-379.972c1.726,2.3,6.826,7.147,11.269,10.748,4.383,3.548,6.724,4.656,4.918,2.24-1.876-2.508-6.893-7.283-11.541-10.94C943,494.105,941.09,493.293,942.761,495.523Zm-773.8-51.1c2.261-3.188.213-7.38-4.88-9.944-5.549-2.788-11.853-2.528-14.56.75-2.668,3.222-.295,8.126,5.135,10.657C159.985,448.375,166.685,447.635,168.961,444.425Zm-68.2,109.844c2.388-3.355-1.11-7.2-8.23-9.009-6.777-1.723-13.718-.739-16.312,2.444-2.692,3.292.852,7.625,7.677,9.409C90.625,558.871,98.462,557.491,100.761,554.269ZM452.633,92.222c1.332-5.272,2.007-9.633,1.522-10.277-0.515-.69-2.024,2.992-3.456,8.562-1.379,5.36-2.045,10.335-1.516,10.791S451.283,97.563,452.633,92.222ZM869.181,730.529c0.307,5.166,3.682,9.873,7.142,9.82,3.665-.061,6.682-5.354,6.072-10.669s-3.877-9.242-7.46-9.066C871.376,720.791,868.862,725.137,869.181,730.529Zm-307.3-591.907c-0.607,2.757.273,5.207,1.756,5.092,1.408-.112,3.061-2.45,3.518-4.985,0.474-2.64-.238-4.841-1.652-4.9S562.484,135.892,561.884,138.622ZM724.521,842.908c-1.757,6.181.1,11.086,4.232,10.832,4.219-.258,8.743-5.365,10.344-11.667,1.521-5.983-.573-11.14-4.315-10.948C731.079,831.319,726.238,836.882,724.521,842.908ZM540.862,79.5c-1.549,3.828-1.959,6.84-1.027,7.028s2.725-2.425,4.256-6.218c1.452-3.609,2.066-7.091,1.23-7.345S542.335,75.852,540.862,79.5ZM974.114,577.012a35.425,35.425,0,0,0,8.936,9.049c3.543,2.485,5,2.387,3.36-.3a41.5,41.5,0,0,0-9.116-9.271C974.062,574.16,972.582,574.427,974.114,577.012ZM703.965,251.077c1.105,1.793,4.448,3.749,7.786,4.593,3.385,0.855,5.057.169,3.878-1.684-1.124-1.771-4.837-4.024-7.925-4.784C704.663,248.453,702.912,249.369,703.965,251.077Zm-425.6,70.109a7.222,7.222,0,0,0-2.116-8.631c-2.827-2.274-6.137-1.706-7.833,1.422a7.331,7.331,0,0,0,2.246,9.205A4.977,4.977,0,0,0,278.36,321.186ZM68.784,693.6c1.884-2.655-1.048-4.807-7.2-5.3-6.634-.526-13.173,1.118-15.478,4-2.242,2.8,1.194,5.388,7.579,5.719S66.841,696.327,68.784,693.6Zm439.2,228.334c-3.317,5.5-2.992,10.171.808,10.074,3.992-.1,10.849-5.79,14.073-11.667,3.093-5.628,2.295-9.657-1.716-9.2C517.11,911.607,511.385,916.29,507.98,921.934ZM524.688,26.98c1.864-4.42,2.957-8.447,2.386-8.969s-2.552,2.595-4.462,7.112c-1.986,4.692-3.126,9.183-2.457,9.442C520.779,34.808,522.874,31.279,524.688,26.98ZM62.835,608c1.69-2.646-1.775-5.646-7.815-6.748-6.08-1.11-12.6.091-14.626,2.792-1.991,2.647,1.349,5.938,7.18,7.088C53.663,612.333,61.067,610.771,62.835,608ZM200.956,387.046c1.435-2.841-.477-6.692-4.382-8.733s-8.459-1.483-10.2,1.335c-1.822,2.942.461,7.5,4.617,9.335C194.956,390.731,199.562,389.8,200.956,387.046ZM440.5,929.255c3.336-4.643,3.328-8.825.066-8.857-3.534-.034-10.125,4.395-14.123,9.489-3.872,4.931-4.068,9.585-.305,9.468C429.864,939.242,436.862,934.32,440.5,929.255Zm-41.941-744.84c0.778-3.36.88-7.272,0.176-8.1s-2.135,1.569-2.925,4.968c-0.8,3.444-.776,7.224.013,7.882C396.555,189.779,397.828,187.544,398.554,184.415Zm439.5,595.676c-0.165,4.746,2.592,8.776,5.791,8.353s6.188-5.267,6.068-9.856c-0.122-4.744-3.02-8.389-6.12-7.782C840.927,771.365,838.2,775.774,838.05,780.091ZM512.6,19.159c1.622-4.188,2.67-8.279,2.209-8.783-0.5-.541-2.606,3.129-4.369,7.644-1.74,4.448-2.8,8.9-2.238,9.165S510.888,23.577,512.6,19.159ZM153.925,827.249c2.328-2.285.626-3.674-3.677-3.041-4.619.681-11.295,3.521-14.049,6.007-2.706,2.448-.862,4.083,3.773,3.306C144.659,832.736,151.475,829.658,153.925,827.249Zm-23.384-17.956c2.432-2.4-.083-3.872-5.228-3.1-4.786.724-11.066,3.326-13.327,5.563-2.415,2.393.138,3.943,5.241,3.16C122,814.189,128.3,811.5,130.541,809.293Zm426.9-695.781c-0.824,2.512-.583,4.874.455,4.891,0.964,0.017,2.446-1.991,3.177-4.3,0.77-2.442.592-4.892-.4-4.962C559.735,109.079,558.212,111.139,557.436,113.512ZM381.52,209.918c0.833-3.17.775-7.154-.155-8.163-0.87-.939-2.408.849-3.268,3.839-0.915,3.174-.8,7.155.2,8.178C379.236,214.725,380.731,212.919,381.52,209.918ZM822.567,342.99c1.125,1.6,4.963,4.36,8.487,6.125,3.556,1.781,5.5,1.9,4.306.2-1.139-1.621-5.338-4.692-8.63-6.3S821.465,341.421,822.567,342.99ZM976.238,538.32a74.7,74.7,0,0,0,8.808,8.617c3.284,2.746,4.684,3.336,3.067,1.249a73.59,73.59,0,0,0-8.876-8.74C976.2,536.938,974.754,536.418,976.238,538.32ZM535.673,32.526c-1.781,3.958-2.688,7.441-2.092,7.852s2.4-2.31,4.144-6.264c1.69-3.83,2.7-7.567,2.063-7.815C539.192,26.068,537.283,28.949,535.673,32.526ZM413.614,154.715c0.785-3.519,1.053-7.3.521-7.855-0.486-.514-1.646,1.868-2.426,5.02-0.876,3.528-1.112,7.138-.555,7.936S412.8,158.349,413.614,154.715ZM589.607,913.75c-2.329,5.053-1.521,9.121,1.884,9.076,3.729-.048,8.929-4.67,11.49-10.191,2.467-5.324,1.471-9.976-1.977-9.673S592.035,908.493,589.607,913.75ZM170.884,846.159c2.832-2.572,1.464-4.048-2.867-3.162-4.233.865-10.727,3.975-13.232,6.364-2.476,2.361-1.241,3.672,2.84,2.963C162.039,851.555,168.009,848.773,170.884,846.159ZM469.644,49.7c1.291-4.317,2.026-8,1.613-8.288s-1.786,2.923-3.082,7.278c-1.323,4.443-1.919,7.759-1.491,8.055S468.322,54.123,469.644,49.7ZM275.053,907.653c3.724-3.722,3.727-6.111.074-5.459-3.681.655-9.4,3.964-13.2,7.668-3.867,3.758-3.915,6.036-.042,5.421C265.723,914.678,271.212,911.486,275.053,907.653Zm85.9-676.781c0.877-2.926.748-6.13-.325-7.317s-2.679.145-3.628,3.062c-0.959,2.946-.778,6.04.392,7.262S360.068,233.816,360.953,230.872ZM100.468,790.651c2.162-2.257.149-3.674-4.62-3.27-4.787.408-10.214,2.465-12.381,4.748-2.192,2.306-.191,3.7,4.692,3.269S98.289,792.921,100.468,790.651ZM747.475,276.01c0.943,1.49,3.945,3.4,6.793,4.355,2.826,0.941,4.208.438,3.012-1.154-1.127-1.5-3.885-3.21-6.621-4.084C747.9,274.244,746.6,274.63,747.475,276.01ZM990.948,577.044a42.336,42.336,0,0,0,7.107,7.114c2.775,2.172,3.865,2.268,2.365.161a42.342,42.342,0,0,0-7.143-7.135C990.344,574.867,989.365,574.83,990.948,577.044ZM356.873,937.3c3.278-4.115,3.019-6.757-.545-6.256s-8.785,3.9-12.308,8.03c-3.694,4.323-3.6,7.681.267,6.916C347.9,945.276,353.739,941.234,356.873,937.3ZM181.93,867.2c2.565-2.211,2.1-3.65-1.012-3.213a29.336,29.336,0,0,0-11.877,5.379c-2.859,2.3-2.449,4.116.841,3.586C173.116,872.431,179.288,869.477,181.93,867.2ZM428.2,120.556c0.743-3.331,1-6.285.524-6.413-0.433-.115-1.4,2.29-2.118,5.29-0.75,3.15-1.058,6.594-.64,6.852S427.5,123.67,428.2,120.556ZM500.9,11.971c1.439-3.861,2.365-7.612,1.918-7.909-0.413-.272-1.871,2.45-3.244,6.081-1.408,3.726-2.44,7.887-2.107,8.371S499.519,15.666,500.9,11.971Zm436.811,454c0.863,1.285,4.5,4.646,7.559,7,3.22,2.475,5.583,3.569,4.629,2.105-0.879-1.346-4.537-4.752-7.634-7.086C938.839,465.4,936.71,464.476,937.71,465.967ZM65.139,769.49c1.182-1.657-1.161-3.041-4.873-2.884-4.036.168-9.611,2.2-10.913,4s0.889,2.976,5.133,2.775C59.17,773.156,63.72,771.479,65.139,769.49ZM335.456,247.871c0.858-2.23.583-5.475-.575-6.518-1.067-.959-2.828,0-3.682,2.03-1,2.38-.7,5.159.677,6.38C333.134,250.879,334.6,250.1,335.456,247.871ZM969.17,508.405a41.22,41.22,0,0,0,6.6,6.485c2.973,2.456,4.415,3.21,3.457,1.78a43.422,43.422,0,0,0-6.712-6.623C969.714,507.756,968.229,507.041,969.17,508.405ZM671.938,904.917c-1.734,4.6-1.054,7.662,1.756,7.622s5.95-3.234,7.574-7.705c1.557-4.286.731-7.683-1.809-7.675S673.558,900.626,671.938,904.917ZM549.659,40.387c-1.312,2.88-1.855,5.075-1.342,5.309s1.791-1.62,3.084-4.443c1.251-2.731,1.922-5.22,1.45-5.479S550.919,37.621,549.659,40.387Zm250.5,794.95c-0.682,4.15.67,7.115,3.253,6.926,2.6-.191,4.889-3.39,5.391-7.522,0.489-4.029-1.122-7.023-3.653-6.354C802.68,829.04,800.836,831.217,800.161,835.337ZM558.452,83.687c-0.9,2.293-1.041,4-.364,4.051s1.762-1.538,2.618-3.832c0.742-1.987.927-3.669,0.4-3.875C560.53,79.8,559.332,81.446,558.452,83.687ZM908.315,425.151c0.994,1.472,3.647,3.769,6.69,5.816s4.533,2.5,3.579,1.043c-0.915-1.393-3.96-4.061-6.806-5.945S907.386,423.78,908.315,425.151ZM231.91,328.424a4.918,4.918,0,0,0-1.885-5.942c-2.222-1.562-5.042-1.128-6.273,1-1.257,2.166-.339,4.9,2.114,6.362S230.825,330.706,231.91,328.424ZM21.176,661.73c1.2-1.992-1.459-3.915-6.153-4.19-4.608-.263-8.093.473-9.551,2.509-1.485,2.065.839,3.941,5.529,4.425C15.625,664.951,19.95,663.765,21.176,661.73ZM96.93,450.488c1.139-1.985-.517-4.465-3.951-5.889-3.47-1.434-7.02-1.127-8.625.8-1.782,2.132-.231,4.913,3.556,6.41C91.646,453.279,95.674,452.674,96.93,450.488ZM137.3,392.336c1.157-2-.169-4.585-3.169-6.147-3.032-1.57-6.261-1.365-7.845.553-1.758,2.121-.542,5.015,2.781,6.664C132.344,395.036,136.02,394.536,137.3,392.336ZM56.249,508.765c1.631-2.059-.4-4.668-4.681-5.986-3.973-1.227-7.655-.725-9.152,1.285-1.635,2.191.39,4.832,4.61,6.047C50.9,511.223,54.757,510.645,56.249,508.765Zm-40.72,57.889c1.653-2.064-.645-4.5-5.294-5.6-4.316-1.016-8.228-.376-9.728,1.635-1.639,2.2.651,4.674,5.216,5.664C9.916,569.265,14.016,568.54,15.529,566.654Z" transform="translate(0 -4.063)"/>
</svg>
