<svg xmlns="http://www.w3.org/2000/svg" width="926.188" height="991.875" viewBox="0 0 926.188 991.875">
  <defs>
    <style>
      .cls-1 {
        fill: #a6b4bf;
        fill-rule: evenodd;
      }
    </style>
  </defs>
  <path class="cls-1" d="M482.827,403.637c7.756,8.14,19.648,7.7,26.676-.944,6.978-8.582,6.275-21.685-1.331-29.085a17.875,17.875,0,0,0-26.408,1.3C474.857,382.94,475.226,395.664,482.827,403.637Zm63.4-32.792c-7.687-7.051-19.3-5.952-26.115,2.5a21.682,21.682,0,0,0,1.652,28.609c7.858,7.787,19.62,6.845,26.388-2.108C554.853,390.984,553.88,377.872,546.23,370.845Zm-36.189,45.328c-7.845-7.679-19.806-7.053-26.93,1.461-6.994,8.366-6.547,21.537,1.271,29.739,7.971,8.369,20.123,7.873,27.243-1.079C518.685,437.418,517.855,423.832,510.041,416.173Zm-29.2-82.48c-6.916,7.593-6.731,19.883.618,27.605,7.54,7.925,19.254,7.613,26.21-.656,6.779-8.058,6.32-20.44-.824-27.635A17.927,17.927,0,0,0,480.841,333.693Zm-37.515,41.146c-7.1,7.747-7.027,20.61.4,28.915,7.467,8.349,19.285,8.539,26.491.488a22.161,22.161,0,0,0-.333-29.272A17.949,17.949,0,0,0,443.326,374.839Zm107.619,68.674c6.833-9.072,5.788-22.794-2.042-30.117-7.745-7.237-19.517-6.272-26.375,2.173a22.719,22.719,0,0,0,1.759,30.042C532.25,453.438,544.177,452.5,550.945,443.513Zm-106.1,4.572c7.691,8.284,19.867,8.03,26.993-.492,7.069-8.449,6.547-21.9-.9-29.864-7.568-8.07-19.794-8.054-27.034.109C436.621,426.051,436.921,439.561,444.842,448.085Zm75.124-88.062c7.536,7.254,19.067,6.27,25.633-2.172,6.511-8.37,5.743-20.844-1.507-27.563-7.379-6.831-19.048-5.836-25.737,2.227A20.485,20.485,0,0,0,519.966,360.023Zm65.932,35.6c6.463-9,5.317-22.348-2.271-29-7.535-6.6-18.895-5.1-25.351,3.335-6.491,8.494-5.706,21.3,1.975,28.58S579.5,404.532,585.9,395.624ZM443.207,361.266c7.228,8.048,18.9,8.295,25.975.614a20.874,20.874,0,0,0-.409-28.056,17.914,17.914,0,0,0-25.739-.3C436.029,340.772,436.016,353.263,443.207,361.266Zm70.725,130.018c7.161-9,6.174-23.285-1.863-31.012a18.23,18.23,0,0,0-27.188,1.506c-7.079,8.607-6.54,22.324,1.489,30.628S506.847,500.185,513.932,491.284Zm38.217-33.458c-7.74-7.692-19.9-6.92-26.947,1.7-7.014,8.6-6.42,22.512,1.586,30.6,8.062,8.146,20.431,7.4,27.332-1.662C560.98,479.462,559.964,465.6,552.149,457.826Zm35.226-48.317c-7.442-7.19-19.17-6-25.915,2.582-6.7,8.545-6.017,22.086,1.759,29.695,7.853,7.689,19.708,6.577,26.264-2.5C596,430.261,594.934,416.824,587.375,409.509ZM480.383,320.646a17.258,17.258,0,0,0,25.513-.208c6.823-7.519,6.482-19.451-.579-26.308a17.9,17.9,0,0,0-25.254.477C473.4,301.556,473.466,313.374,480.383,320.646ZM405,402.552c7.229,8.48,19.4,8.827,26.446.857,6.982-7.9,6.74-20.679-.324-28.684-7.169-8.111-18.928-8.761-26.106-1.346C397.853,380.782,397.741,394.048,405,402.552Zm68.294,90.06c7.087-8.629,6.487-22.183-1.072-30.377-7.655-8.283-19.95-8.357-27.319-.1-7.337,8.23-7.167,22.269.66,30.845C453.371,501.541,466.124,501.345,473.29,492.612ZM580.777,326.168c-7.256-6.43-18.493-5.036-24.918,3.095-6.305,7.991-5.7,20.237,1.529,27.141,7.4,7.064,18.87,5.824,25.225-2.757C588.954,345.09,588.031,332.6,580.777,326.168Zm-37.61-8.373c6.59-7.859,6.011-19.646-1.112-26.111a17.531,17.531,0,0,0-24.887,1.732,19.129,19.129,0,0,0,.809,25.869A17.033,17.033,0,0,0,543.167,317.8ZM404.707,416.8c-7.177,7.882-7.146,21.554.33,30.13,7.308,8.39,19.476,8.647,26.633.656,7.34-8.2,7.033-21.638-.43-29.939S411.891,408.918,404.707,416.8Zm189.12,66.965c6.488-9.438,4.963-23.127-3.124-30.44-7.941-7.173-19.4-5.792-26,3.106-6.632,8.954-5.544,22.908,2.653,30.516C575.393,494.41,587.5,492.972,593.827,483.765ZM442.858,294.251c-6.888,6.758-6.849,18.92.258,26.486a17.259,17.259,0,0,0,25.235.353,19.025,19.025,0,0,0-.582-26.314C460.725,287.781,449.725,287.515,442.858,294.251Zm-37.4,37.529c-7.085,6.837-7.3,19.719-.267,27.959,6.9,8.093,18.522,8.693,25.579,1.413,7.178-7.409,7.042-19.935-.1-27.77C423.644,325.679,412.558,324.932,405.462,331.78Zm26.086,130.461c-7.568-8.4-19.284-8.756-26.664-.723-7.3,7.951-7.464,21.772-.1,30.509,7.462,8.858,20.3,9.046,27.536.5C439.6,483.942,439.135,470.672,431.548,462.241Zm126.289,71.812a23.929,23.929,0,0,0-2.482-30.69c-8.14-7.867-19.84-7.149-27.007,1.649-7.134,8.762-6.377,23.106,1.949,31.2A18.067,18.067,0,0,0,557.837,534.053Zm20.224-246.545c-7.049-5.981-17.617-4.677-24.017,2.969-6.321,7.555-5.857,19.188,1.188,25.734,7.13,6.626,18.585,5.174,24.662-3.132C586,304.751,585.119,293.5,578.061,287.508ZM516.6,536.959c7.054-9.065,6.032-22.668-2.012-30.72-8.073-8.071-19.967-7.667-27.285.954s-6.78,23,1.471,31.266C496.887,546.6,509.643,545.9,516.6,536.959ZM627.4,432.691c5.914-9.494,4.4-22.394-3.188-29.1-7.609-6.725-18.408-4.963-24.716,3.978s-5.152,22.509,2.772,29.55C610.066,444.045,621.576,442.047,627.4,432.691Zm-7.363-71.634c-7.371-6.381-17.985-4.566-24.215,4.1-6.142,8.551-5.269,21.284,2.149,28.186,7.5,6.983,19.087,5.041,24.935-4.237S627.4,367.439,620.036,361.057Zm-3.418-40.569c-7.146-6.154-17.5-4.443-23.776,3.888-6.2,8.229-5.533,20.373,1.673,27.021,7.13,6.581,18.184,4.791,24.165-3.973C624.693,338.622,623.687,326.581,616.618,320.488ZM473.449,507.834c-7.969-8.344-19.923-8.245-27.362.292-7.356,8.45-7.174,22.479.7,31,7.861,8.513,20.66,8.263,27.944-.493C482.1,529.788,481.4,516.171,473.449,507.834ZM405.571,318.666c6.7,7.716,17.811,8.365,24.721,1.534,7.086-7.008,7.135-18.544.277-26.022-6.921-7.537-17.7-8.346-24.686-1.753C398.964,298.96,398.747,310.812,405.571,318.666Zm-38.206,51.981c-7.253,7.117-7.732,20.127-.838,28.852,6.776,8.58,18.2,9.427,25.372,2,7.376-7.636,7.463-20.241.424-28.627C385.405,364.644,374.529,363.62,367.365,370.647Zm261.821,77.342c-7.86-7.24-18.873-5.61-25.284,3.669-6.38,9.244-5.211,22.732,2.876,30.071,7.941,7.206,19.4,5.424,25.395-4.032C638.229,468.158,636.792,455,629.186,447.989Zm-33.805,51.149c-8.19-7.7-19.737-6.457-26.521,2.806-6.735,9.207-5.615,23.066,2.779,30.741,8.293,7.585,20.263,6.161,26.659-3.219C604.748,520.014,603.332,506.617,595.381,499.138ZM479.668,257.868a17.109,17.109,0,0,0,.188,24.191,16.932,16.932,0,0,0,24.662-.548c6.557-7.165,6.292-17.75-.463-24.053A17.515,17.515,0,0,0,479.668,257.868Zm36.688-1.17a17.061,17.061,0,0,0,.716,24.377c6.97,6.34,17.747,5.476,24.091-1.9,6.514-7.578,6.017-18.267-.989-24.243C533.312,249.08,522.882,249.84,516.356,256.7Zm-150.8,187.384c6.939,8.759,18.615,9.488,25.929,1.741,7.382-7.816,7.585-20.695.7-29.225-7.109-8.8-18.356-9.881-25.8-2.362C358.986,421.721,358.5,435.181,365.552,444.082Zm77.5-162.278a16.993,16.993,0,1,0,24.288-23.765c-6.843-6.815-17.58-7.2-24.4-.813S436.124,274.685,443.055,281.8Zm-75.591,74.49c6.677,8.554,18.013,9.45,25.1,2.11,6.956-7.207,7-19.128.3-27.088-6.844-8.113-17.716-9.188-24.751-2.319C361.25,335.7,360.878,347.863,367.464,356.294ZM615.2,306.989c5.858-8.451,5.029-19.64-1.711-25.245-6.9-5.734-17.188-3.846-23.339,4.263-6,7.92-5.289,19.137,1.758,25.212S609.35,315.435,615.2,306.989ZM404.9,508.025c-7.307,8.3-7.213,22.064.508,30.651,7.774,8.651,19.914,8.608,27.36-.007,7.407-8.568,7-22.057-.621-30.5C424.39,499.6,412.427,499.491,404.9,508.025ZM552.672,253.854c-6.345,7.178-6,17.708.915,23.877s17.395,4.905,23.543-2.836,5.6-18.339-1.087-23.876S558.978,246.728,552.672,253.854ZM364.91,489.918c7.273,8.924,18.988,9.339,26.421,1.066,7.35-8.178,7.2-21.547-.065-30.059-7.253-8.485-18.685-9.071-26.045-1.21C357.908,467.534,357.647,481.012,364.91,489.918ZM517.2,552.631c-8.2-7.918-20.3-7.223-27.5,1.6s-6.495,22.419,1.906,30.722c8.385,8.292,20.779,7.58,27.907-1.59C526.564,574.3,525.39,560.549,517.2,552.631ZM655.349,353.472c-7.064-5.933-17.271-3.532-23.025,5.346-5.79,8.947-4.667,21.089,2.759,27.585s17.774,4.218,23.28-5.229C663.84,371.778,662.407,359.4,655.349,353.472Zm-286.124-64.54c-6.828,6.247-7.123,17.752-.494,25.955s17.354,9.146,24.234,2.269c6.666-6.661,6.738-18,.323-25.531C386.762,283.979,376.013,282.726,369.225,288.932ZM561.659,580.6a23.8,23.8,0,0,0-2.575-30.774c-8.188-7.793-20.3-6.84-27.26,2.131a23.183,23.183,0,0,0,2.161,30.292C542.421,590.546,554.774,589.818,561.659,580.6Zm76.213-57.181c6-9.682,4.153-23.276-3.834-30.289s-19.253-5.075-25.447,4.322c-6.07,9.224-4.671,22.336,3.448,29.756C620.341,534.8,631.851,533.148,637.872,523.417Zm22.387-127.255c-7.285-6.307-17.761-3.939-23.538,5.235-5.7,9.073-4.5,21.511,2.961,28.284,7.663,6.96,18.3,4.914,23.855-4.693C669.113,415.351,667.551,402.482,660.259,396.162ZM406.274,255.047c-6.582,5.952-6.771,16.58-.3,24.039,6.648,7.664,17.348,8.478,24.131,1.929a17.182,17.182,0,0,0,.177-24.291C423.666,249.805,412.952,249.015,406.274,255.047Zm70.132,330.359c7.437-8.806,6.708-22.72-1.3-30.911-8.029-8.2-20.355-7.849-27.7.838-7.195,8.525-6.77,22.042,1.273,30.5C456.706,594.281,469.094,594.066,476.406,585.406ZM653.454,339.5c5.621-9.053,4.541-20.991-2.233-26.688-6.739-5.661-16.944-3.243-22.671,5.311-5.653,8.461-4.718,20.009,2.3,26.121C637.9,350.393,647.978,348.314,653.454,339.5ZM669.648,469.71c5.329-9.6,3.428-22.9-3.961-29.306-7.513-6.512-18.436-4.012-24.063,5.416-5.545,9.314-3.878,22.244,3.982,29.061C653.419,481.659,664.29,479.367,669.648,469.71ZM363.983,536.4c7.173,8.919,19.219,9.537,26.677,1.485,7.575-8.176,7.522-22.234.176-30.715-7.278-8.386-19.05-8.96-26.339-1.161C357.173,513.849,356.815,527.493,363.983,536.4ZM610.664,245.055c-6.49-4.931-16.6-3.039-22.46,4.2-5.886,7.284-5.342,17.79,1.344,23.444,6.707,5.673,16.847,3.972,22.592-3.819C617.969,260.975,617.234,250.049,610.664,245.055ZM479.311,223.171c-6.361,5.956-6.247,15.943.364,22.259a16.872,16.872,0,0,0,23.562-.263c6.462-6.554,6.21-16.871-.444-22.532A18.124,18.124,0,0,0,479.311,223.171Zm-150.3,171.758c6.407,8.758,17.441,9.958,24.411,2.807,6.935-7.115,7.217-19.8.831-28.118-6.493-8.441-17.631-9.853-24.488-2.956C322.994,373.474,322.561,386.129,329.007,394.929ZM603.544,575.9c6.218-9.285,4.461-23.088-3.589-30.4-8.2-7.441-20.336-5.912-26.777,3.336-6.35,9.13-4.889,22.593,3.573,30.232C585.156,586.658,597.288,585.247,603.544,575.9ZM326.831,439.4c6.419,9.154,17.665,10.6,24.965,3.35,7.262-7.208,7.775-20.251,1.369-29.048-6.3-8.636-17.515-10.263-24.674-3.451S320.477,430.345,326.831,439.4ZM515.822,222.016a15.108,15.108,0,0,0,.172,22.166,16.674,16.674,0,0,0,23.355-1.138c6.254-6.655,6.08-16.65-.277-22.191C532.82,215.412,522.2,215.937,515.822,222.016ZM331.7,324.121c-6.735,6.225-7.279,18.583-1.013,27.182,6.143,8.436,16.791,9.932,23.65,3.46,6.928-6.541,7.335-18.788,1.076-27C349.193,319.613,338.432,317.9,331.7,324.121Zm315.548-50.189c-6.473-4.889-16.159-2.523-21.725,5.273-5.661,7.932-4.852,19.221,1.931,24.893s16.9,3.3,22.2-5.28S653.79,278.872,647.249,273.932ZM443.023,222.279c-6.453,5.638-6.442,15.836.133,22.48s17.36,6.853,23.692.567a15.354,15.354,0,0,0-.256-22.111C460.2,217.107,449.469,216.652,443.023,222.279Zm-9.736,363.7c7.479-8.3,7.126-22.247-.471-30.656-7.585-8.382-19.912-8.617-27.29-.435-7.4,8.213-7.357,22.12.4,30.737C413.506,594.054,425.9,594.179,433.287,585.977Zm-63.673-310.76c6.256,7.7,17.006,8.924,23.56,2.791s6.567-17.055.148-24.145c-6.33-6.987-16.555-8.324-23.048-2.908C363.731,256.411,363.369,267.531,369.614,275.217Zm182.9-33.58c6.532,5.34,16.766,4.016,22.586-2.907,5.928-7.052,5.413-17.022-1.036-21.973-6.469-4.962-16.752-3.672-22.725,2.883C545.341,226.232,545.825,236.164,552.517,241.637ZM325.252,486c6.5,8.873,17.98,9.963,25.264,2.538,7.388-7.529,7.677-21.032.895-29.787-6.67-8.6-17.625-9.881-24.825-2.761C319.36,463.136,318.628,476.962,325.252,486Zm314.487,54.1c-8.061-7.045-19.278-5.369-25.375,3.72-6.032,9.006-4.527,22.619,3.595,29.981,8.266,7.5,20.478,5.767,26.216-3.8C649.893,560.476,647.795,547.139,639.739,540.091ZM406.473,242c6.264,7.045,17.153,7.9,23.556,1.942,6.352-5.911,6.263-15.783-.095-22.17-6.373-6.4-16.575-7.357-23.024-2.087C400.551,224.882,400.306,235.069,406.473,242ZM671.854,486.448c-7.658-6.745-18.143-4.8-24,4.347-5.834,9.119-4.192,22.913,3.828,29.922,7.86,6.87,19.05,4.751,24.419-4.734C681.487,506.481,679.458,493.153,671.854,486.448Zm-339.5-176.915c6.012,8.125,16.609,9.656,23.2,3.489,6.617-6.192,6.885-17.53.754-25.331-6.166-7.834-16.22-9.663-22.873-4.041S326.226,301.249,332.357,309.533ZM522.586,630.777c7.072-8.678,5.927-22.255-2.226-30.2-8.222-8-20.212-7.591-27.448.959-7.108,8.41-6.507,22.253,1.633,30.344C502.653,639.947,515.539,639.435,522.586,630.777ZM692.45,371.483c4.935-9.317,3.338-21.49-3.364-27.011-6.757-5.562-16.156-2.864-21.444,6.056-5.2,8.777-3.922,21.074,2.995,27.04C677.528,383.514,687.531,380.778,692.45,371.483ZM562.978,597.3c-8.355-7.642-20.353-6.673-27.118,2.178-6.725,8.809-5.591,22.538,2.811,30.258s21.183,6.674,27.7-2.291C572.99,618.344,571.346,604.962,562.978,597.3ZM694.7,387.281c-7.014-5.912-16.6-3.282-21.91,5.9-5.214,9.028-3.753,21.787,3.419,28.065,7.144,6.254,17.38,3.6,22.313-5.914C703.466,405.8,701.651,393.148,694.7,387.281ZM478.655,632.433c7.277-8.753,6.3-22.082-1.879-30.232-8.144-8.1-20.282-7.707-27.5.941-7.029,8.437-6.61,21.913,1.245,30.028A18.8,18.8,0,0,0,478.655,632.433Zm205.572-328.89c-6.547-5.234-15.723-2.479-21,6.22-5.2,8.57-4.05,20.31,2.693,25.835,6.617,5.42,16.137,2.669,21.068-6.192C692.02,320.36,690.705,308.722,684.227,303.543ZM363.35,583.934c7.156,8.729,19.546,9.081,26.97.875,7.529-8.317,7.34-21.539-.123-30.13-7.431-8.543-18.982-8.916-26.394-.734C356.622,561.878,356.29,575.335,363.35,583.934ZM644.13,237.592c-6.323-4.654-15.618-2.272-21.169,5.405-5.373,7.44-4.742,17.587,1.536,22.753,6.343,5.223,16.169,2.866,21.458-5.2C651.315,252.387,650.456,242.251,644.13,237.592Zm57.155,194.437c-7.277-6.431-16.98-4.026-22.362,5.41-5.341,9.375-3.773,22.305,3.733,28.838,7.329,6.381,17.533,3.85,22.448-5.7C710.091,450.889,708.3,438.232,701.285,432.029ZM323.238,532.915c6.465,9.111,18.367,10.071,25.8,2.218,7.391-7.809,7.749-20.724,1.086-29.455-6.862-8.976-17.855-10.115-25.287-2.475C317.617,510.63,316.79,523.843,323.238,532.915ZM608.82,211.436c-6.214-4.864-15.686-3.387-21.7,3.36-5.991,6.724-5.783,16.4.575,21.653,6.171,5.1,16,3.454,21.642-3.655C615.068,225.579,614.793,216.116,608.82,211.436Zm0.143,411.609c6.283-9.188,4.561-22.258-3.61-29.682-8.4-7.626-19.938-6.433-26.557,2.694-6.417,8.863-5.2,22.066,3.056,29.749C590.152,633.539,602.648,632.294,608.963,623.045Zm-129.3-432.292c-6.449,5.378-6.556,14.5-.157,20.336a16.889,16.889,0,0,0,22.606-.291c6.24-5.918,6.2-14.693-.016-19.955A17.865,17.865,0,0,0,479.658,190.753Zm-45.6,442.434c7.538-8.424,7.181-21.56-.5-29.879-7.7-8.337-19.521-8.534-27.03-.374a22.64,22.64,0,0,0-.006,30.015C414.135,641.451,426.6,641.525,434.061,633.187ZM679.928,264.581c-6.2-4.669-15.1-1.823-20.3,6.423-5.178,8.216-4.271,18.917,2.183,24.1s15.66,2.339,20.529-6.408C687.241,279.9,686.117,269.247,679.928,264.581ZM289.369,433.874c5.839,9.145,16.5,10.77,23.549,3.755,7.131-7.1,7.78-19.509,1.7-28.294-6.105-8.813-16.268-10.622-23.191-3.966C284.488,412.05,283.48,424.663,289.369,433.874ZM515.664,210.161c6.316,5.4,16.322,4.723,22.346-1.487,6.066-6.253,5.857-14.986-.4-19.848s-16.041-4.266-22.211,1.4C509.252,195.875,509.335,204.749,515.664,210.161ZM334.743,245.827c-6.273,5.331-6.617,16.042-.641,23.8,6.007,7.8,15.951,9.225,22.377,3.342s6.547-16.263.426-23.608C350.8,242.046,341.085,240.436,334.743,245.827Zm36.534-30.208c-6.33,5.043-6.643,14.883-.6,22.1,6.026,7.194,16.126,8.435,22.511,2.87,6.436-5.609,6.579-15.247.429-21.941S377.622,210.564,371.277,215.619ZM292.192,388.6c5.843,8.9,16.2,10.5,23.034,3.719,6.878-6.824,7.371-18.849,1.324-27.4s-15.981-10.337-22.7-3.943C287.169,367.339,286.341,379.694,292.192,388.6ZM683.3,562.515c5.293-9.663,3-22.768-4.89-29.421s-18.4-4.415-24.022,4.985c-5.591,9.361-3.713,22.335,4.509,29.3S677.964,572.257,683.3,562.515ZM443.545,189.782c-6.363,5.062-6.532,13.9-.307,20.107s16.264,6.647,22.55,1.066c6.334-5.623,6.4-14.447.221-20.045S449.839,184.78,443.545,189.782ZM294.784,344.636c5.8,8.738,15.776,10.44,22.449,4,6.654-6.427,7.092-18.025,1.167-26.272s-15.7-10.143-22.206-4.174S288.989,335.905,294.784,344.636ZM712.671,506.693c4.9-9.84,2.634-22.969-4.8-29.146s-17.421-3.343-22.5,6.27c-4.97,9.42-2.984,21.928,4.749,28.462C697.831,518.8,707.849,516.381,712.671,506.693ZM288.784,451.444c-7.16,7.011-8.147,19.944-1.986,29.214,6.055,9.114,16.6,10.538,23.72,3.371,7.273-7.32,7.928-20.288,1.713-29.1C306.138,446.31,295.692,444.685,288.784,451.444Zm361.86,165.934c5.878-9.367,3.711-22.782-4.521-29.764-8.248-6.987-19.542-5.094-25.521,4.2a22.815,22.815,0,0,0,4.455,29.149C633.48,628.167,644.852,626.613,650.644,617.378ZM572.59,185.03c-6.125-4.429-15.89-3.19-21.8,2.8-5.8,5.89-5.5,14.473.75,19.453s15.771,3.882,21.547-2.482C578.973,198.313,578.717,189.464,572.59,185.03ZM321.878,580.992c6.761,8.835,18.233,9.587,25.626,1.817,7.332-7.7,7.691-20.956,1.076-29.55-6.683-8.664-18.368-9.594-25.655-1.907C315.71,558.973,315.115,572.162,321.878,580.992ZM641.67,203.417c-5.773-4.032-15.019-1.743-20.4,5.035-5.448,6.868-5.029,16.159,1.036,20.874,6.127,4.764,15.2,2.734,20.47-4.621C648.12,217.237,647.571,207.542,641.67,203.417ZM298.518,277.184c-6.264,5.328-7,16.432-1.5,24.823,5.557,8.484,15.182,10.606,21.655,4.92,6.577-5.781,7.147-17.136,1.4-25.074C314.455,274.1,304.7,271.924,298.518,277.184Zm108.855-90.031c-6.049,4.777-6.047,13.694.08,20.051s15.945,7.157,22.114,1.907c6.217-5.3,6.14-14.594-.094-20.259C423.269,183.217,413.378,182.411,407.373,187.153ZM526.389,677.764c6.757-8.533,5.343-21.991-2.786-29.421-8.2-7.481-20.471-6.759-27.338,1.624-6.925,8.465-6,21.555,2.4,29.356C507.024,687.094,519.568,686.386,526.389,677.764ZM721.21,333.277c-6.137-5-15.094-1.681-19.726,7.181-4.667,8.949-3.235,20.642,3.376,26.149,6.645,5.536,15.6,2.474,19.934-6.958C729.1,350.3,727.394,338.312,721.21,333.277ZM676.271,227.894c-5.843-4.018-14.767-1.038-19.735,6.557-5.014,7.674-4.151,17.581,2.048,22.249,6.177,4.652,15.091,1.784,19.828-6.438C683.1,242.124,682.074,231.886,676.271,227.894ZM363.334,632c7.349,8.432,19.5,8.565,26.816.4,7.247-8.085,6.951-21.654-.347-29.671-7.393-8.106-19.231-8.356-26.448-.453C356.078,610.249,355.929,623.509,363.334,632Zm207.812,42.724c6.487-8.68,4.72-22.18-3.548-29.413-8.2-7.159-20.061-6.264-26.706,2-6.778,8.44-5.671,21.724,2.768,29.366C552.112,684.329,564.626,683.452,571.146,674.721Zm160.513-271.14c4.243-9.591,2.175-22.138-4.328-27.317-6.411-5.1-15.293-1.924-19.894,6.994-4.69,9.107-3.059,21.406,3.8,27.21C718.128,416.3,727.388,413.241,731.659,403.581Zm-447.731,124.8c6.094,9.026,17.255,10.244,24.354,2.822,7.118-7.438,7.573-20.73,1.263-29.307-6.234-8.457-16.708-9.837-23.656-2.962C278.85,505.906,277.838,519.374,283.928,528.381ZM481.117,679.655c6.832-8.312,5.831-21.289-1.932-28.992-7.908-7.834-20.244-7.588-27.387.588s-6.608,21.524,1.5,29.433C461.371,688.571,474.2,688.08,481.117,679.655Zm234.549-387.41c-5.922-4.674-14.633-1.343-19.264,7.263-4.614,8.587-3.3,19.878,3.058,24.931,6.223,4.947,14.889,1.825,19.219-7.043C723.062,308.422,721.618,296.943,715.666,292.245ZM606.576,179.393c-5.79-3.872-14.981-2.255-20.593,3.629-5.677,5.951-5.459,14.807.548,19.394,6.028,4.6,15.542,2.935,20.96-3.678S612.457,183.325,606.576,179.393ZM335.641,231.656c5.618,7.153,15.314,8.841,21.372,3.839,6.182-5.109,6.341-14.984.448-21.81-5.8-6.711-15.231-8.543-21.205-4C330.227,214.257,329.9,224.35,335.641,231.656ZM686.053,581.313c-7.9-6.73-18.456-4.92-24.056,4.02-5.485,8.769-3.638,22,4.316,28.972,8.112,7.116,19.662,5.289,24.869-4.052C696.344,601.007,693.927,588.031,686.053,581.313ZM715.387,524.8c-7.578-6.1-17.557-3.435-22.36,5.858-4.808,9.322-2.6,22.208,5.139,28.63s18.236,3.978,22.858-5.442C725.786,544.15,723.136,531.04,715.387,524.8Zm-104.3,116.818c-8.37-7.4-20.22-6.2-26.466,2.624-6.112,8.652-4.511,21.711,3.84,28.911s20.565,6.013,26.63-2.624C621.2,661.836,619.266,648.851,611.086,641.614ZM734.543,421.391c-6.724-5.644-15.618-2.755-20.308,6.446-4.671,9.172-2.74,22.091,4.4,28.019,6.992,5.811,16.448,2.772,20.613-6.777C743.442,439.472,741.239,427.016,734.543,421.391ZM371.665,202.38c5.663,6.538,15.522,7.949,21.586,3.174,6.091-4.8,6.217-13.656.353-19.786-5.9-6.161-15.325-7.671-21.393-3.345C366.266,186.662,365.983,195.823,371.665,202.38Zm-72.457,59.353c5.26,7.889,14.88,10.074,21.063,4.914s6.624-15.5,1.082-23.034c-5.588-7.585-14.7-9.885-20.8-5.125C294.6,243.136,293.929,253.825,299.208,261.733Zm180.3-100.425c-5.752,4.633-5.757,12.552.038,17.641,5.871,5.16,15.8,5.128,21.706-.027,5.951-5.195,5.834-13.087-.212-17.743S485.419,156.55,479.505,161.308ZM434.991,680.967c7.467-7.9,7.045-20.945-.621-29.007-7.746-8.134-19.445-8.3-26.85-.3-7.29,7.88-7.255,21.223.393,29.215A18.614,18.614,0,0,0,434.991,680.967Zm275.7-427.711c-5.8-4.17-14.014-.805-18.557,7.529-4.418,8.119-3.375,18.43,2.454,23.074,5.91,4.708,14.579,1.422,18.863-7.258C717.768,267.848,716.481,257.422,710.686,253.256ZM256.726,380.771c5.185,8.867,15.114,10.91,21.537,4.612,6.516-6.386,7.092-18.193,1.5-26.818C274.2,350,264.808,347.9,258.6,354.036,252.544,360.029,251.62,372.058,256.726,380.771ZM515.429,160.7c-5.883,4.913-5.861,12.947.1,17.682,5.831,4.634,15.329,4.09,21.1-1.179,5.927-5.417,5.908-13.25.01-17.57C530.675,155.265,521.392,155.715,515.429,160.7ZM255.612,398.937c-6.516,6.152-7.712,18.814-2.433,27.83,5.145,8.8,14.97,10.779,21.648,4.537,6.857-6.411,7.8-18.667,2.3-27.485C271.556,394.883,262.232,392.691,255.612,398.937Zm4.346-62.862c5,8.749,14.621,10.988,20.939,5.04,6.266-5.9,6.937-16.946,1.683-25.221-5.41-8.51-14.4-10.9-20.6-5.3C255.96,316.027,254.993,327.393,259.958,336.075ZM443.925,159.94c-6.017,4.4-6.078,12.568-.085,17.955,5.909,5.308,15.481,5.651,21.356.832,6.067-4.979,6.008-12.788-.083-17.794C459.166,156.051,449.881,155.585,443.925,159.94Zm210.5,40.206c-4.913,7-4.405,15.987,1.228,20.228,5.681,4.277,14.477,1.458,19.205-6.214,4.689-7.6,4.019-16.475-1.438-20.154C667.8,190.226,659.487,192.928,654.421,200.146ZM345.846,630.806c7.386-7.688,7.73-20.3,1.066-28.7-6.887-8.666-17.9-9.551-25.347-1.9-7.379,7.58-8.093,20.943-1.278,29.391C326.993,637.913,338.547,638.406,345.846,630.806ZM742.5,467.759c-6.942-5.851-15.811-3.084-20.392,6.206-4.675,9.5-2.688,22.108,4.669,28.212,7.211,5.983,16.562,3.1,20.722-6.559C751.692,485.894,749.389,473.571,742.5,467.759ZM281.022,576.812c6,8.765,16.993,9.837,24.233,2.516,7.461-7.542,8.035-20.354,1.581-29.089-6.316-8.535-16.666-9.639-23.766-2.377C276.01,555.086,274.981,567.994,281.022,576.812ZM619.913,176.926c-5.212,6.293-4.837,14.65.9,18.692s14.511,1.825,19.57-4.957c5.2-6.971,4.693-15.3-1.074-18.862C633.694,168.333,625.172,170.58,619.913,176.926Zm-69.067-18.687c-5.744,5.18-5.78,12.8-.032,17.317,5.664,4.451,15.016,3.483,20.656-2.138,5.822-5.8,5.754-13.536-.1-17.477C565.609,152.068,556.585,153.066,550.846,158.239ZM657.9,664.8c5.677-8.934,3.534-21.481-4.57-28.414-8.148-6.965-19.018-5.6-24.986,3.068a22,22,0,0,0,4.12,28.831C640.8,675.209,652.264,673.678,657.9,664.8ZM249.52,473.987c5.362,9.045,15.352,10.693,22.174,3.839,6.847-6.877,7.669-19.162,2.089-27.917-5.6-8.768-15.142-10.636-21.794-4.084S244.138,464.916,249.52,473.987ZM263.2,293.418c4.992,8.309,13.826,10.622,19.872,5.36,6.226-5.417,6.958-16.014,1.79-24.043-5.192-8.055-14.039-10.6-19.97-5.6C258.913,274.176,258.106,284.941,263.2,293.418ZM407.843,157.147c-5.6,4.147-5.438,12.039.4,17.646,5.981,5.743,15.259,6.409,21.167,1.618,5.8-4.71,5.576-12.609-.456-17.756C422.97,153.548,413.657,152.834,407.843,157.147ZM389.279,680.6a21.31,21.31,0,0,0,.4-28.581c-7.178-8.108-18.762-8.519-26.108-.832a21.287,21.287,0,0,0-.778,28.233C369.951,687.9,381.8,688.38,389.279,680.6ZM706.816,216.568c-5.365-3.744-13.361-.466-17.928,7.281-4.525,7.687-3.813,16.932,1.74,21.245,5.694,4.425,13.729,1.431,18.076-6.835C713.062,229.973,712.174,220.308,706.816,216.568ZM302.4,202.227c-5.846,4.323-6.293,13.78-.917,21.343,5.264,7.408,14.064,9.45,19.916,4.751,5.959-4.787,6.305-14.283.861-21.238C316.924,200.262,308.064,198.044,302.4,202.227Zm35.189-25.944c-5.737,4.018-6.088,12.56-.735,19.345,5.517,6.993,14.6,8.806,20.551,4.207,5.919-4.576,6.082-13.362.434-19.6C352.3,174.114,343.271,172.306,337.594,176.283Zm391.958,425.78c4.889-9.313,2.477-22.232-5.1-28.678-7.4-6.289-17.422-4.1-22.363,4.756-5.011,9-3.046,21.368,4.7,28.007C714.658,612.886,724.8,611.129,729.552,602.063ZM530,725.148c6.877-8.219,5.494-21.041-2.732-28.265-8.105-7.109-19.927-6.394-26.667,1.616-6.776,8.061-5.879,20.351,2.338,27.785C511.172,733.738,523.241,733.229,530,725.148ZM755.086,345.626c3.645-9.345,1.885-20.637-3.777-25.176-5.746-4.6-13.755-.777-17.754,8.34-3.929,8.982-2.294,19.92,3.856,24.818S751.424,355.025,755.086,345.626Zm-169.507-191.8c-5.491,5.376-5.443,12.867.153,16.9,5.673,4.085,14.38,2.717,19.713-3.1,5.466-5.972,5.38-13.71-.143-17.211C599.905,146.985,591,148.524,585.579,153.824ZM762.707,389.818c3.538-9.525,1.384-21.446-4.566-26.093-5.97-4.659-14.04-.906-17.925,8.2-3.913,9.188-2.044,20.644,4.377,25.833S759.134,399.444,762.707,389.818Zm-186.28,331.91c6.217-8.261,4.354-21.019-3.785-27.885-8.209-6.917-20.027-5.887-26.407,2.28-6.414,8.224-5.024,20.565,3.436,27.763C558.087,731.052,570.135,730.093,576.427,721.728ZM268.233,525.642c6.77-6.95,7.569-19.734,1.993-28.222-5.594-8.5-15.546-10.13-22.145-3.456-6.651,6.73-7.758,19.4-2.246,28.34S261.4,532.661,268.233,525.642ZM483.4,727.121c6.915-7.9,5.885-20.7-1.949-27.989-7.87-7.306-20.007-6.853-26.863,1.041-6.9,7.949-6.157,20.466,1.972,27.94C464.438,735.368,476.586,734.906,483.4,727.121Zm265.071-424.3c3.59-9.026,1.943-19.97-3.48-23.907-5.44-3.946-13.184-.058-17.107,8.484-3.949,8.612-2.512,19.2,3.342,23.7S744.852,311.92,748.467,302.824ZM699.711,657.771c4.838-8.779,2.318-21.345-5.334-27.821-7.751-6.553-18.642-4.7-23.95,3.966-5.343,8.741-3.193,21.289,5.07,28.013C683.732,668.635,694.746,666.8,699.711,657.771ZM756.8,543.163c4.033-9.472,1.317-22.362-5.706-28.032-6.92-5.583-16.035-2.789-20.4,6.11-4.478,9.137-2.277,21.67,5.118,27.859C743.238,555.316,752.745,552.7,756.8,543.163ZM373.233,151.78c-5.753,3.582-6.029,11.661-.558,17.656,5.5,6.031,14.773,7.48,20.533,3.289,5.729-4.172,5.826-12.217.257-17.634C388.009,149.785,378.884,148.261,373.233,151.78Zm-105.89,78.088c-5.584,4.407-6.225,14.716-1.305,22.68s13.79,10.317,19.481,5.346c5.566-4.864,6.045-14.8,1.171-22.218C281.762,228.2,272.9,225.479,267.343,229.868Zm503.89,205.68c3.368-9.494,1.022-21.457-5.041-26.5-6.14-5.105-14.5-1.545-18.38,7.659-3.888,9.254-1.776,21.264,4.865,26.664C759.3,448.755,767.8,445.247,771.233,435.548ZM621.709,717.683c5.789-8.211,3.772-20.587-4.2-27.473-8.088-6.981-19.86-5.875-25.937,2.382-5.957,8.113-4.385,20.471,3.772,27.4C603.694,727.1,615.815,726.057,621.709,717.683Zm31.2-549.575c-4.905,6.322-4.5,14.7.958,18.331,5.338,3.553,13.5.958,18.093-5.791,4.657-6.845,4.153-15.279-1.034-18.368C665.837,159.247,657.751,161.872,652.912,168.108ZM302.864,627.538c6.945-7.444,7.285-19.967,1.036-28.141-6.267-8.178-16.8-9.162-23.716-2.074-7.021,7.206-7.84,20.393-1.509,28.77C284.841,634.264,296.029,634.866,302.864,627.538ZM436.581,728.1c6.944-7.746,6.224-20.065-1.31-27.543s-19.2-7.484-26.3.038c-7.02,7.448-6.96,20.078.431,27.667C416.953,736.027,429.57,735.924,436.581,728.1ZM742.742,261.87c3.5-8.753,2.031-18.645-3.195-22.138s-12.613.331-16.5,8.474c-3.962,8.3-2.614,18.516,3.065,22.445C731.644,274.482,739.306,270.474,742.742,261.87ZM344.524,678.878c7.1-7.606,7.073-20.019.236-27.957-6.823-7.909-17.959-8.4-24.939-.98s-7.449,20.261-.76,28.184A16.935,16.935,0,0,0,344.524,678.878ZM686.04,189.664c-4.31,7.117-3.515,15.92,1.826,19.436s13.306,0.108,17.293-7.432c4.064-7.677,3.153-16.3-1.98-19.376C698.063,179.232,690.344,182.562,686.04,189.664ZM479.908,134.3c-5.387,3.977-5.349,10.821.109,15.211,5.551,4.468,14.945,4.454,20.464.017,5.576-4.483,5.459-11.3-.236-15.3S485.409,130.239,479.908,134.3ZM225.4,345.318c-5.807,5.328-6.991,17.3-2.417,26.016,4.469,8.52,13.173,10.933,19.215,5.5,6.134-5.521,7.128-17.137,2.351-25.667C239.725,342.557,231.3,339.907,225.4,345.318Zm-4.435,46c-5.791,5.861-6.982,17.824-2.468,26.538,4.587,8.872,13.846,11.1,20.016,5.01,6.236-6.156,7.091-18,2.112-26.639C235.652,387.609,226.89,385.333,220.969,391.322ZM515.642,133.84c-5.538,4.207-5.49,11.211.131,15.29,5.5,3.991,14.475,3.507,19.945-1.045,5.571-4.639,5.579-11.5.043-15.189C530.186,129.183,521.243,129.584,515.642,133.84ZM638.32,159.527c5-6.064,4.74-13.463-.537-16.5-5.192-2.993-13.189-1.05-18.331,4.452-5.158,5.516-5.007,13.1.376,16.6C625.082,167.491,633.442,165.442,638.32,159.527ZM244.109,543.394c-6.544,6.78-7.735,19.385-2.411,27.926,5.4,8.68,15.973,9.92,22.74,2.835,6.747-7.058,7.474-19.181,1.9-27.633C260.615,537.859,250.855,536.407,244.109,543.394Zm200.4-410.817c-5.688,3.659-5.762,10.79-.133,15.559,5.51,4.666,14.63,5.116,20.2,1.053,5.727-4.185,5.713-11.039,0-15.417C458.959,129.478,450.175,128.93,444.51,132.577ZM665.619,712.763c5.647-8.085,3.642-20.35-4.155-27.1-8.2-7.09-18.905-6.136-24.934,2.145-5.908,8.123-4.21,20.62,4.022,27.494C648.54,721.978,659.974,720.858,665.619,712.763ZM229.342,301.3c-5.7,4.908-6.818,16.343-2.3,24.928,4.415,8.389,12.935,10.915,18.754,5.728,5.977-5.331,6.792-16.317,1.971-24.673C243.03,299.072,235.027,296.4,229.342,301.3Zm551.09,181.365c3.394-9.578.884-21.381-5.5-26.647-6.557-5.409-14.658-2.123-18.478,7.33-3.7,9.169-1.492,21.09,5.113,26.638C768.268,495.608,777.028,492.291,780.432,482.662ZM216.689,438.749c-6.122,6.071-7.484,18.2-2.847,27.035,4.71,8.988,14.069,10.821,20.461,4.2,6.3-6.52,7.146-18.191,2.143-26.8C231.46,434.618,222.883,432.609,216.689,438.749ZM551.019,131.6c-5.426,4.458-5.5,11.055-.151,14.876,5.4,3.856,14.4,2.8,19.729-2.289,5.264-5.022,5.143-11.467-.253-14.732S556.48,127.118,551.019,131.6ZM303.849,168.45c-5.29,3.68-5.664,12.2-.772,18.98,4.958,6.876,13.805,9.019,19.336,4.8,5.6-4.273,5.7-12.63.3-19.129C317.481,166.808,309.211,164.718,303.849,168.45ZM737.38,223.614c3.729-8.278,2.753-17.383-2.119-20.616-4.9-3.249-11.861.332-15.88,8.084s-3.2,16.845,1.941,20.6C726.416,235.409,733.693,231.8,737.38,223.614Zm29.342,367.642c3.977-9.327,1.259-21.353-5.94-27.209s-16.061-3.24-20.354,5.857c-4.254,9.027-1.876,21.126,5.55,27.145S762.772,600.525,766.722,591.256ZM739.343,649.83c4.6-8.939,2.057-21-5.5-27.261-7.613-6.3-17.233-4.342-22.077,4.374a22.309,22.309,0,0,0,5.071,27.2C724.539,660.568,734.806,658.665,739.343,649.83ZM269.672,193.151c-5.33,3.9-5.908,13.09-1.219,20.537,4.673,7.426,13,9.851,18.5,5.518,5.542-4.371,5.966-13.285,1.045-20.348S275.029,189.23,269.672,193.151Zm69.17-47.82c-5.493,3.38-5.824,11.019-.71,17.212,5.065,6.136,13.825,7.973,19.387,4.149,5.626-3.869,5.874-11.364.6-17.078C352.821,143.869,344.337,141.95,338.842,145.331Zm50.315,582.9a19.646,19.646,0,0,0,.134-27.045c-7.14-7.7-18.243-8.026-25.478-.655a20.02,20.02,0,0,0-.633,27.218A17.72,17.72,0,0,0,389.157,728.234ZM408.98,129.328c-5.556,3.453-5.574,10.341-.015,15.389,5.458,4.957,14.1,5.816,19.611,2.02,5.676-3.917,5.786-10.616.274-15.257S414.562,125.856,408.98,129.328ZM232.742,259.536c-5.337,4.515-6.29,14.548-2.065,22.869,4.283,8.446,12.473,11.221,18.152,6.312,5.748-4.969,6.538-15.069,1.916-23.043S238.2,254.919,232.742,259.536ZM585.41,127.518c-5.088,4.7-4.907,11.054.428,14.386s13.461,1.861,18.479-3.318c5.081-5.252,4.9-11.88-.376-14.617C598.74,121.272,590.48,122.832,585.41,127.518ZM229.257,518.841c6.477-6.385,7.7-18.244,2.963-26.845-4.8-8.7-13.967-10.806-20.295-4.49-6.253,6.247-7.621,18.211-2.883,27.033C213.8,523.412,222.771,525.236,229.257,518.841Zm305.16,252.915c6.358-7.555,4.9-19.467-2.924-26.151s-19.546-6.028-26,1.46c-6.517,7.576-5.49,19.145,2.61,26.047S527.987,779.406,534.417,771.756ZM783.158,329.5c2.958-9.149,1.065-20.06-4.036-23.949s-12.025.241-15.316,8.952c-3.328,8.829-1.661,19.308,3.893,23.673S780.171,338.742,783.158,329.5Zm7.423,201c3.256-9.32.389-21.557-6.075-26.627-6.516-5.108-14.734-1.776-18.32,7.275-3.615,9.147-1.118,20.754,5.849,26.329C778.954,543.011,787.279,539.957,790.581,530.5Zm-81.774,175c4.726-8.379,1.958-20.6-5.8-26.608-7.823-6.057-18.22-4.183-23.195,4.083-5.015,8.351-2.7,19.99,5.509,26.375C693.467,715.687,704.013,714.008,708.807,705.5ZM684.259,157.727c-4.292,6.49-3.734,14.12,1.309,17.217s12.307-.026,16.353-7.031c3.99-6.913,3.375-14.834-1.3-17.337C695.921,148.061,688.507,151.309,684.259,157.727ZM299.645,676.372c6.97-7.069,7.509-19.378,1.448-27.19-6.057-7.787-16.689-8.613-23.547-1.7-6.939,7-7.826,19.153-1.72,27.25S292.6,683.517,299.645,676.372ZM775.838,286.581c3.017-8.892,1.348-19.4-3.527-22.865s-11.694.838-14.958,9.333c-3.3,8.6-1.729,18.593,3.638,22.493C766.2,299.327,772.853,295.369,775.838,286.581ZM581.716,769.035c6.25-7.49,4.682-19.417-3.163-26.211-7.747-6.7-19.538-5.988-25.784,1.539-6.312,7.62-5,19.293,3.22,26.064C564.035,777.058,575.538,776.448,581.716,769.035ZM791.531,373.9c2.744-9.178.572-20.3-4.66-24.481-5.319-4.252-12.494-.194-15.718,8.731-3.256,9.04-1.288,19.983,4.561,24.586C781.541,387.323,788.7,383.4,791.531,373.9ZM669.915,149.041c4.22-6.048,3.859-13.123-.762-15.636-4.7-2.554-12.6.073-17.2,5.721-4.652,5.719-4.312,12.777.8,15.8C657.839,157.941,665.551,155.3,669.915,149.041ZM260.48,623.075c6.515-6.871,7.253-19.058,1.867-26.992-5.51-8.095-15.587-9.355-22.187-2.617-6.674,6.818-7.756,19.136-2.171,27.511C243.531,629.3,253.748,630.178,260.48,623.075Zm225.877,150.75c6.411-7.336,5.313-19.055-2.143-25.836-7.608-6.907-19.571-6.489-26.158.942-6.665,7.528-5.805,19.27,2.223,26.182C468.03,781.793,479.92,781.2,486.357,773.825Zm-250.5-554.244c-5.157,3.926-5.913,13.832-1.568,21.748,4.25,7.743,12.011,10.459,17.283,6.2,5.333-4.318,5.972-14.234,1.482-21.622C248.647,218.659,240.887,215.747,235.857,219.581Zm138.106-95.549c-5.221,3.009-5.378,9.81-.327,15.041,5.21,5.395,13.9,6.858,19.318,3.314,5.255-3.442,5.406-10.167.355-14.982C388.216,122.558,379.274,120.973,373.963,124.032Zm426.728,296.5c2.833-9.256.458-20.767-5.088-25.342-5.647-4.656-13-.715-16.122,8.466-3.063,9.047-.841,20.276,5.1,25.041S797.854,429.809,800.691,420.527ZM716.25,176.545c-3.846,6.949-3.179,15.383,1.536,18.568,4.75,3.206,11.636-.17,15.328-7.608,3.722-7.5,2.922-16.269-1.658-18.946C726.969,165.936,720.118,169.56,716.25,176.545ZM342.563,727.335c7.167-7.046,7.294-19.389.559-26.874a16.553,16.553,0,0,0-24.4-.767c-6.849,6.976-7.4,19.049-.942,26.587A16.853,16.853,0,0,0,342.563,727.335ZM628.632,764.9c5.856-7.675,3.679-19.766-4.441-26.2-7.982-6.314-19.126-5.236-24.884,2.361s-4.075,19.245,3.974,25.734C611.35,773.309,622.864,772.47,628.632,764.9ZM769.42,245.544c3.042-8.513,1.628-18.067-3.044-21.163s-11.118,1.067-14.375,9.206c-3.173,7.944-1.95,17.308,2.808,20.847C759.658,258.041,766.4,254,769.42,245.544ZM437.842,775.173c6.774-7.29,5.94-18.8-1.578-25.792-7.51-6.969-18.967-6.7-25.57.66a18.535,18.535,0,0,0,1.028,25.559C419.027,782.582,431.168,782.36,437.842,775.173ZM206.9,537.486c-6.24,6.242-7.685,18.688-2.936,27.063,4.64,8.193,13.848,9.755,20.243,3.6,6.568-6.318,7.726-18.277,2.8-26.71C222.039,532.951,213.247,531.144,206.9,537.486ZM619.194,121.119c-4.789,4.82-4.637,11.277.352,14.1,4.882,2.762,12.686.815,17.3-4.31,4.744-5.274,4.643-11.58-.2-14.066C631.775,114.347,624.05,116.23,619.194,121.119ZM271.482,158.795c-4.773,3.272-5.2,11.5-.891,18.2,4.376,6.817,12.47,9.45,17.6,5.828,5.175-3.658,5.471-11.809.724-18.31S276.415,155.414,271.482,158.795Zm33.757-21.725c-4.966,3.079-5.138,10.86-.33,16.934,4.71,5.948,12.791,8.052,17.866,4.743,5.232-3.412,5.418-10.857.455-16.69C318.248,136.207,310.269,133.952,305.239,137.07ZM777.6,639.806c3.734-8.754.945-20.176-6.133-25.93-7.307-5.937-16.051-3.644-20.183,5.145-3.965,8.446-1.513,20.065,5.679,25.936C764.232,650.9,773.869,648.563,777.6,639.806ZM193.722,335.49c-5.328,4.952-6.6,16.383-2.63,24.818,3.9,8.293,11.688,10.766,17.1,5.615,5.633-5.365,6.565-16.108,2.277-24.54C206.292,333.187,199.034,330.552,193.722,335.49ZM480.89,109.844c-5.343,3.266-5.4,9.234-.125,13,5.171,3.685,13.708,3.7,18.874.069,5.369-3.771,5.367-9.437,0-12.868A18.963,18.963,0,0,0,480.89,109.844Zm35.485-.031c-5.166,3.507-5.246,9.2-.176,12.652,5.157,3.51,13.816,2.988,18.933-1.1,5.074-4.045,4.975-9.481-.223-12.5C529.732,105.855,521.618,106.25,516.375,109.813ZM674.383,759.257c5.128-7.908,2.72-18.934-5.242-25.161s-18.182-4.978-23.631,2.795c-5.373,7.677-3.544,18.946,4.359,25.259C657.862,768.537,669.221,767.234,674.383,759.257ZM810.771,467.883c2.8-9.4.3-20.538-5.522-25.3-5.856-4.789-12.735-1.434-15.934,7.586-3.233,9.125-.914,20.777,5.278,25.7C800.664,480.689,808.019,477.144,810.771,467.883Zm-621.931-85.9c-5.481,5.162-6.991,16.367-3.241,25.084,3.682,8.579,11.7,11.223,17.444,5.926,5.969-5.506,7.2-16.615,2.943-25.2C201.805,379.356,194.385,376.763,188.84,381.983ZM749.792,697.82c4.345-8.4,1.662-19.73-5.86-25.7-7.548-5.988-16.854-4.146-21.435,4.12-4.544,8.215-2.232,19.651,5.425,25.689C735.532,707.928,745.509,706.113,749.792,697.82Zm51.7-118.467c3.3-9.117.512-20.549-6.14-25.925s-14.531-2.56-18.129,6.338c-3.56,8.819-1.067,20.375,5.774,25.892C789.815,591.157,798.233,588.367,801.489,579.353ZM445.358,108.078c-5.3,3-5.466,8.74-.365,12.88,5.047,4.1,13.587,4.628,18.854,1.212,5.343-3.464,5.467-9.061.29-12.775C458.934,105.665,450.68,105.066,445.358,108.078ZM198.412,290.837c-5.12,4.5-6.325,14.906-2.59,23.306,3.692,8.316,11.25,11.116,16.569,6.305,5.4-4.882,6.365-14.973,2.333-23.073C210.669,289.24,203.555,286.315,198.412,290.837Zm40.335-108.585c-4.959,3.405-5.71,12-1.641,19.493,3.934,7.241,11.293,10.175,16.285,6.6,5.238-3.748,5.99-12.19,1.778-19.259C250.912,181.95,243.657,178.882,238.747,182.252Zm101.034-65.064c-4.977,2.741-5.212,9.129-.521,14.574,4.73,5.5,12.945,7.379,18.147,4.222,5.275-3.2,5.474-9.645.475-14.7S344.886,114.377,339.781,117.188Zm49.287,658.26a17.841,17.841,0,0,0-.338-25.33,17.085,17.085,0,0,0-24.411-.016,17.85,17.85,0,0,0-.039,25.4A17.355,17.355,0,0,0,389.068,775.448ZM763.8,206.6c3.083-8.187,1.971-16.86-2.419-19.439-4.284-2.519-10.265,1.5-13.56,9.034-3.4,7.787-2.416,16.289,2.321,19.339C754.773,218.518,760.772,214.639,763.8,206.6ZM183.188,430.44c-5.554,5.592-6.951,16.78-3,25.387,4.029,8.8,12.011,10.87,17.94,4.847,5.728-5.818,6.871-16.933,2.756-25.2C196.664,427.022,188.869,424.72,183.188,430.44Zm368.5-322.781c-5.231,3.825-5.272,9.326-.087,12.465,5.071,3.07,12.91,2.2,17.9-1.964,5.095-4.255,5.141-9.768.107-12.433C564.691,103.125,556.737,103.967,551.688,107.659Zm-315.6,536.862c-6.534,6.677-7.567,18.16-2.1,26.053s15.108,8.661,21.855,1.913c6.68-6.677,7.538-18.181,2.163-25.909C252.506,638.684,242.767,637.7,236.092,644.521ZM699.338,136.812c4.009-6.337,3.587-13.172-.906-15.14-4.4-1.929-11.178,1.132-15.292,6.915-4.124,5.8-3.74,12.311.9,14.845S695.373,143.072,699.338,136.812Zm-483,139.763c4.993-4.444,5.775-14.238,1.84-21.817s-11.007-10.541-15.792-6.457c-4.835,4.128-5.73,13.815-1.924,21.942S211.27,281.083,216.338,276.575ZM409.924,104.413c-5.2,2.726-5.312,8.36-.239,12.771,5.111,4.445,13.148,5.41,18.358,2.259,5.167-3.129,5.309-8.813.325-12.74C423.4,102.8,415.038,101.736,409.924,104.413Zm304.093,40.434c-3.715,6.481-3.1,13.6,1.439,16.164,4.51,2.547,10.864-.939,14.344-7.912,3.416-6.85,2.749-14.3-1.421-16.3C724.177,134.793,717.7,138.43,714.017,144.847ZM296.625,724.789a19.609,19.609,0,0,0,1.157-25.566,15.173,15.173,0,0,0-22.88-1.057,19.588,19.588,0,0,0-1.4,25.606C279.5,731.253,289.822,731.654,296.625,724.789ZM718.55,753.22c4.623-7.708,1.9-19.174-5.7-24.941-7.458-5.651-17.421-4.2-22.259,3.151-4.985,7.592-2.824,18.712,5.058,24.774C703.572,762.3,713.89,761,718.55,753.22Zm81.4-254.827c-3.064,8.807-.591,20.062,5.693,25.168,6.3,5.123,13.671,1.952,16.332-7.216,2.639-9.075-.273-20.777-6.164-25.347C810.01,486.5,802.922,489.875,799.951,498.393ZM219.123,617.506c6.188-6.3,7.314-17.766,2.716-25.664-4.646-7.961-13.814-9.625-20.052-3.487-6.292,6.195-7.735,18-2.99,26.186S212.738,624,219.123,617.506ZM651.814,112.565c-4.47,4.95-4.344,10.99.3,13.465,4.545,2.418,11.55.178,15.8-5.066,4.316-5.327,4.3-11.52,0-13.632C663.672,105.25,656.247,107.664,651.814,112.565Zm-65.765-8.956c-4.714,3.857-4.736,9.242-.042,11.945,4.835,2.784,12.686,1.449,17.382-2.94,4.564-4.265,4.608-9.664.1-11.961C598.94,98.335,590.837,99.7,586.049,103.609ZM192.165,510.167c5.9-5.8,7.209-17.658,3.015-25.755-4.116-7.93-12.071-10.117-17.642-4.68-5.728,5.591-7.279,17.412-3.223,25.9C178.271,513.911,186.35,515.884,192.165,510.167ZM588.036,815.045c5.818-6.864,4.074-17.6-3.6-23.785-7.7-6.192-18.533-5.606-24.511,1.306-5.867,6.792-4.534,17.726,3.159,23.826S582.24,821.889,588.036,815.045ZM799.717,342.487c-2.436,8.713-.344,19.061,4.736,22.91,5.063,3.834,11.255-.455,13.352-9.408,2.141-9.126-.116-19.416-4.938-22.963S802.156,333.789,799.717,342.487ZM791.705,298.2c-2.572,8.382-.807,18.478,3.975,22.155s10.794-.53,13.058-9.279c2.287-8.826.362-18.865-4.166-22.219S794.312,289.726,791.705,298.2ZM538.845,818.121c6.147-6.723,4.793-17.465-2.735-23.78-7.55-6.326-18.488-5.963-24.777.822-6.16,6.651-5.227,17.625,2.286,23.849S532.707,824.841,538.845,818.121ZM288.976,148.741c4.761-2.963,5.032-10.145.633-15.971s-11.694-8.5-16.348-5.9c-4.562,2.544-4.907,9.976-.718,16.1S284.219,151.7,288.976,148.741Zm-69.424,86.085c4.74-3.895,5.35-12.931,1.451-20.246-3.895-7.3-10.675-10.348-15.11-6.65-4.329,3.611-5.1,12.694-1.624,20.117C207.807,235.625,214.855,238.685,219.552,234.826Zm172.8-120.044c5.025-2.727,5.126-8.409.226-12.6-4.918-4.206-12.849-5.674-17.747-3.232-4.845,2.412-4.852,8.283-.01,12.765C379.549,116.091,387.439,117.445,392.354,114.782Zm-51.568,660.29c6.868-6.429,7.066-17.533.692-24.557a16.087,16.087,0,0,0-23.537-.867c-6.649,6.521-7.125,17.923-.789,24.777A16.77,16.77,0,0,0,340.786,775.072ZM744.243,161.623c-3.1,6.844-2.349,14.545,1.732,17.157,4.162,2.665,10.255-1.255,13.235-8.6,3-7.4,2.125-15.242-1.895-17.406S747.429,154.6,744.243,161.623ZM489.378,820.109c6.271-6.869,5.019-17.439-2.549-23.751-7.534-6.277-18.648-5.752-24.768,1.193a16.476,16.476,0,0,0,2.015,23.488C471.448,827.3,483.217,826.862,489.378,820.109ZM784.593,256.518c-2.457,8.155-.919,17.406,3.521,20.694,4.536,3.356,10.426-1.024,12.7-9.595,2.317-8.7.6-18.108-3.761-21.021C792.714,243.694,787.105,248.209,784.593,256.518Zm-529.03-85.442c4.516-3.353,4.8-10.916.7-17.25-4.214-6.5-11.172-9.369-15.6-6.329-4.3,2.949-4.715,10.84-.867,17.423C243.712,171.638,251.034,174.439,255.563,171.076ZM789.1,609.52c-3.189,8.3-.481,19.34,6.21,24.607,6.821,5.37,15.392,2.7,18.33-5.86s-0.036-19.434-6.578-24.627C800.348,598.312,792.387,600.987,789.1,609.52Zm-25.777,58.934c-3.858,8.033-1.1,19.4,6.228,24.826,7.173,5.314,16.184,3.208,19.7-4.735,3.644-8.228.594-19.336-6.628-24.834C775.6,658.37,767.146,660.5,763.321,668.454ZM322.9,127.612c4.864-2.77,4.968-9.2.248-14.375-4.612-5.061-11.892-7.236-16.575-4.886-4.7,2.356-4.879,9.056-.364,14.51C310.61,128.179,318.174,130.3,322.9,127.612Zm285.27,661.9c-5.44,6.988-3.812,17.469,3.877,23.371,7.812,6,19.148,4.981,24.376-2.243,5.21-7.192,3.016-17.35-4.784-23.262C623.853,781.481,613.694,782.425,608.167,789.513ZM809.246,387.84c-2.623,8.8-.477,19.648,4.846,23.864,5.2,4.113,11.385.211,13.547-8.731,2.2-9.07-.088-19.453-5.048-23.464C817.567,375.445,811.853,379.094,809.246,387.84ZM185.481,560.259c6.18-5.778,7.762-16.686,3.771-24.843-3.961-8.084-11.456-10.4-17.225-5.15-6.175,5.617-8.1,16.927-4.168,25.479C171.555,563.792,179.581,565.775,185.481,560.259ZM413.87,798.575a16,16,0,0,0,.615,23.455c6.863,6.184,17.818,6.037,24.28-.284,6.739-6.589,6.327-16.841-.671-23.317C431.025,791.9,420.489,791.938,413.87,798.575Zm364.979-582.07c-2.655,7.942-1.351,16.719,2.965,19.476,4.258,2.717,9.517-1.478,11.875-9.588,2.436-8.382,1.116-17.05-2.913-19.635S781.534,208.476,778.849,216.505ZM619.616,97.632c-4.339,4.047-4.274,9.133.142,11.362,4.529,2.288,11.739.429,16.122-4.136,4.4-4.582,4.308-9.6-.2-11.456C631.2,91.566,624.146,93.406,619.616,97.632Zm192.4,450.348c-2.857,8.533-.386,18.992,5.849,24.071s13.327,2.385,15.962-6.231c2.713-8.855-.131-19.907-6.2-24.7C821.7,536.445,814.848,539.527,812.012,547.98ZM734.486,725.538c-4.273,7.576-1.992,17.79,5.461,23.5s16.716,4.35,20.837-3.165c4.245-7.735,1.533-18.484-5.861-24.062C747.7,716.358,738.722,718.043,734.486,725.538Zm-21.74-610.06c-3.608,5.775-3.219,11.878.913,13.92s9.979-1.213,13.38-7.453c3.355-6.159,2.945-12.434-.892-14.008S716.35,109.712,712.746,115.478ZM251.238,721.621a19.024,19.024,0,0,0,2.069-24.309c-5.26-7.162-14.525-7.993-20.917-1.749-6.442,6.3-7.56,17.036-2.312,24.387C235.335,727.322,244.708,728,251.238,721.621ZM499.118,98.89c4.748-3.009,4.722-7.611-.066-10.284-4.8-2.681-12.518-2.756-17.337-.116s-4.742,7.193.163,10.326A17.19,17.19,0,0,0,499.118,98.89ZM819.585,435.846c-2.335,8.756.058,18.922,5.591,23.252,5.509,4.31,11.48.651,13.526-8.479,2.013-8.978-.635-19.592-5.756-23.514C827.805,423.171,821.923,427.092,819.585,435.846Zm-163.83,349.53c-5.086,7.056-3.148,17.064,4.658,22.833s17.938,4.8,22.845-2.289c4.888-7.053,2.585-17.32-4.934-22.992S660.809,778.378,655.755,785.376ZM175.84,353.151c4.915-4.681,6.079-14.655,2.742-22.547-3.333-7.867-9.75-10.814-14.424-6.455-4.722,4.4-6.03,14.395-2.856,22.67C164.485,355.118,170.918,357.839,175.84,353.151Zm-5.69,47.581c5.056-4.983,6.286-15.531,2.855-23.4-3.355-7.688-9.86-10.412-14.6-5.95-4.938,4.649-6.428,15.053-3.227,23.412C158.4,403.214,165.041,405.765,170.15,400.732ZM534.4,97.862c4.573-3.151,4.681-7.608.23-10.011-4.528-2.442-12.363-2.167-17.173.633-4.876,2.841-4.927,7.347-.123,10.19S529.645,101.138,534.4,97.862ZM213.314,667.307c6.238-6.208,7.27-17.368,2.49-24.7-4.684-7.168-13.209-8.359-19.2-2.547-6.233,6.049-7.668,17.028-3.03,24.732C198.232,672.539,207.006,673.588,213.314,667.307ZM357.226,107.83c4.668-2.528,4.683-8.091.04-12.319-4.542-4.137-11.918-5.9-16.439-3.868-4.708,2.113-4.816,7.572-.24,12.306C345.189,108.708,352.5,110.387,357.226,107.83ZM222.128,194.9c4.441-3.357,5.012-11.573,1.33-18.275-3.592-6.53-9.906-9.645-14.066-6.835-4.343,2.932-5.069,11.041-1.581,18.239C211.332,195.29,217.661,198.271,222.128,194.9Zm475.526-86.736c3.568-5.285,3.359-10.861-.454-12.415-3.9-1.588-10.388,1.237-14.315,6.24-3.96,5.05-3.737,10.58.522,12.554C687.641,116.5,693.921,113.687,697.654,108.159ZM180.947,307.076c4.686-4.233,5.743-14.182,2.41-21.757-3.255-7.384-9.529-10.467-13.862-6.66-4.494,3.947-5.656,13.8-2.478,21.864C170.117,308.389,176.335,311.24,180.947,307.076ZM463.314,97.957c4.658-2.66,4.782-7.273.267-10.263-4.576-3.025-12.657-3.649-17.428-1.309-4.712,2.316-4.773,6.9-.147,10.28C450.788,100.157,458.484,100.712,463.314,97.957Zm310.624,80.954c-2.574,7.261-1.537,15.132,2.38,17.621s9.058-1.6,11.434-9.208c2.35-7.52,1.3-15.716-2.238-17.973C781.943,167.073,776.548,171.575,773.938,178.911Zm-408.516,620.2a15.872,15.872,0,0,0-.292,22.74,17.276,17.276,0,0,0,23.6.591c6.651-6.083,6.556-16.8.037-23.141A17.182,17.182,0,0,0,365.422,799.115ZM272.51,748.668c-6.3,6.211-7.028,16.812-1.384,23.549a15.087,15.087,0,0,0,22.117,1.052,17.717,17.717,0,0,0,1.517-23.484A15.04,15.04,0,0,0,272.51,748.668Zm469.319-619.35c-3.107,6.244-2.558,13.022,1.263,15.119s9.329-1.507,12.266-8.121c2.971-6.691,2.348-13.951-1.292-15.521C750.485,119.246,744.9,123.148,741.829,129.318ZM163.937,449.612c5.038-5.167,6.3-15.988,2.9-23.705-3.419-7.751-10.267-10.248-15.084-5.32-4.864,4.978-6.33,15.79-3.1,23.865C151.88,452.508,158.889,454.791,163.937,449.612ZM569.02,94.8c4.46-3.348,4.508-7.876.1-9.892-4.428-2.024-12.035-1.255-16.574,1.712-4.579,3-4.589,7.486-.033,9.918S564.537,98.168,569.02,94.8Zm-141.566.183c4.682-2.386,4.717-7.105.067-10.367s-12.4-4.274-16.95-2.162c-4.461,2.072-4.487,6.706-.069,10.261C415.044,96.374,422.739,97.387,427.454,94.987Zm-137.955,22c4.187-2.491,4.246-8.485.152-13.536-4.214-5.191-11.1-7.72-15.234-5.513-4.026,2.151-4.147,8.352-.247,13.663C278.157,117.041,285.273,119.5,289.5,116.991Zm-32.874,19.474c4.127-2.675,4.339-9.324.507-14.988-3.95-5.834-10.5-8.708-14.553-6.3-3.937,2.338-4.233,9.211-.621,15.128C245.648,136.354,252.452,139.169,256.625,136.465Zm-71.16,126.163c4.417-3.757,5.253-12.928,1.938-20.336-3.234-7.22-9.052-10.343-13.178-6.929-4.16,3.441-5.188,12.979-2.135,20.54C175.068,263.28,181.168,266.28,185.465,262.628Zm481.6-167.652c3.81-4.505,3.728-9.287-.184-10.767s-10.335.559-14.494,4.631c-4.18,4.087-4.245,9.235-.135,11.117S663.223,99.519,667.063,94.976ZM179.485,610.219c5.649-5.808,6.838-16.42,2.856-23.931-4.107-7.725-11.97-9.41-17.572-3.6-5.448,5.656-6.989,16.644-3.229,24.181C165.382,614.588,173.784,616.081,179.485,610.219ZM831.371,484.376c-2.235,8.227.232,18.7,5.579,23.153,5.437,4.525,11.974.972,13.853-7.71,1.878-8.645-.878-18.869-6.094-23.024C839.475,472.628,833.647,476.017,831.371,484.376ZM702.213,780.526c-4.364,6.792-2.115,16.851,5.162,22.187,7.416,5.439,17.688,4.1,21.775-2.927s1.374-16.778-5.969-22.107S706.646,773.64,702.213,780.526Zm100.531-121.2c-3.191,7.639-.588,18.074,5.949,23.19,6.491,5.083,14.567,2.942,17.53-4.784,3.009-7.832.132-18.112-6.324-23.177C813.377,649.435,806,651.55,802.744,659.322ZM602.557,89.654c4.439-3.554,4.621-7.771.4-9.552-4.265-1.8-11.06-.732-15.621,2.477-4.483,3.153-4.706,7.508-.5,9.643C591.009,94.339,598.179,93.161,602.557,89.654ZM156.818,499.473c5.344-5.323,6.691-15.5,3.24-23.392s-9.96-10.015-15.076-4.745c-5.007,5.159-6.593,16.068-3.311,23.751C144.917,502.692,151.694,504.579,156.818,499.473Zm668.454,98.848c-2.6,7.908,0,18.007,6.008,22.838,6.114,4.915,13.3,2.207,15.7-6.078,2.423-8.37-.587-18.6-6.687-23.188C834.384,587.451,827.913,590.288,825.272,598.321ZM777.111,717.814c-3.864,7.339-1.59,17.36,5.368,22.8,6.691,5.228,15.3,3.756,18.8-3.329,3.695-7.476,1.089-17.528-5.73-22.844C788.833,709.206,780.852,710.717,777.111,717.814Zm-6.845-574.052c-2.611,6.759-1.922,13.664,1.624,15.784s8.311-1.781,10.709-8.831c2.486-7.3,1.693-14.46-1.734-16.123C777.527,132.971,772.868,137.027,770.266,143.762ZM223.942,157.316c4.167-2.678,4.795-9.525,1.467-15.714-3.344-6.217-9.215-9.494-13.151-7.275-4.161,2.348-4.845,9.4-1.535,16.088C213.933,156.906,219.842,159.95,223.942,157.316Zm-34.748,62.665c4.173-3.3,5.027-11.257,2.009-18.226-3.03-6.988-8.59-10.37-12.529-7.513-4.136,3-5.1,11.24-2.134,18.681C179.432,220.172,185.056,223.253,189.194,219.981ZM391.717,89.733c4.492-2.157,4.581-6.539.192-10S380.44,74.9,375.971,76.662c-4.652,1.833-4.725,6.382-.176,10.245C380.228,90.673,387.22,91.891,391.717,89.733ZM317.572,799.589c-6.263,6.049-6.7,15.684-.772,21.856a15.837,15.837,0,0,0,22.191.345,15.173,15.173,0,0,0,.436-22.14A15.439,15.439,0,0,0,317.572,799.589Zm5.014-700.651c4.446-2.215,4.457-7.469.031-11.893-4.294-4.291-10.944-6.224-15.13-4.332-4.162,1.881-4.184,7.115-.045,11.779S318.261,101.09,322.586,98.938Zm503.53,224.989c-1.93,8.329-.147,17.4,4.207,20.9,4.372,3.519,9.119-.333,10.752-8.906,1.629-8.556-.346-17.97-4.346-21.147S828.016,315.753,826.116,323.927ZM568.2,840.557c-5.45,6.259-4.069,15.344,3.385,20.77s17.539,4.777,22.884-1.491c5.293-6.2,3.569-15.514-3.646-20.858S573.611,834.348,568.2,840.557ZM817.25,279.519c-1.948,8.161-.327,16.864,3.807,20s8.714-.945,10.374-9.415c1.649-8.415-.138-17.435-3.923-20.207S819.177,271.459,817.25,279.519ZM518.014,843.181c-5.761,6.168-4.773,15.261,2.494,20.795s17.492,5.062,23.156-1.087c5.627-6.108,4.3-15.387-2.759-20.855S523.714,837.083,518.014,843.181ZM809.679,236.515c-2.11,7.9-.816,16.33,3.045,19.259,3.91,2.97,8.369-1.023,10.133-9.239,1.751-8.156.218-16.893-3.324-19.361C816.092,224.776,811.682,229.019,809.679,236.515ZM467.823,844.9c-6.19,5.967-5.789,15.133,1.15,20.837,7.034,5.784,17.287,5.609,23.272-.378,5.948-5.945,5.043-15.336-1.79-20.9C483.816,839.048,473.7,839.239,467.823,844.9ZM191.146,692.17c-5.84,5.623-7.24,15.7-2.975,22.652,4.445,7.253,12.905,8.263,19.018,2.409,5.877-5.626,7.062-15.733,2.825-22.608C205.729,687.687,197.037,686.5,191.146,692.17ZM712.293,88.811c-3.371,4.9-3.244,10,.3,11.587,3.682,1.647,9.157-1.3,12.429-6.71,3.133-5.177,3.016-10.465-.242-11.716C721.473,80.705,715.7,83.872,712.293,88.811ZM836.082,370.748c-1.694,8.17.459,17.5,4.939,21.027s9.365-.293,10.872-8.676c1.49-8.276-.772-18.076-4.866-21.474C842.873,358.179,837.8,362.485,836.082,370.748ZM617.673,837.615c-4.7,6.3-2.7,15.291,4.736,20.381,7.355,5.035,17.329,4.123,22.037-2.054,4.655-6.1,2.481-15.56-4.533-20.569C632.672,830.208,622.42,831.262,617.673,837.615ZM740.2,100.018c-2.916,5.549-2.478,11.2,1,12.723s8.519-1.985,11.29-7.867c2.737-5.813,2.378-11.744-.764-12.989C748.523,90.615,743.155,94.41,740.2,100.018ZM228.553,746.811c-5.955,5.618-7.034,15.776-2.172,22.244,4.884,6.506,14,7.1,20.08,1.4,6.024-5.637,6.826-15.75,1.947-22.165A13.248,13.248,0,0,0,228.553,746.811ZM635.239,82.088c3.907-3.593,3.99-7.743.169-9.057s-10.518.3-14.527,3.543c-4.044,3.27-4.083,7.369-.1,9.05S631.311,85.7,635.239,82.088ZM149.586,550.119c5.079-5.226,6.457-15.742,3.153-22.991-3.32-7.266-10.178-9.246-15.061-4.189-4.928,5.105-6.5,15.594-3.33,23.118S144.488,555.365,149.586,550.119Zm694.878-15.96c-2.178,7.8.409,17.977,5.814,22.394,5.437,4.444,11.577,1.59,13.522-6.451,1.927-7.948-.89-18.348-6.011-22.631C852.721,523.233,846.65,526.356,844.464,534.159Zm-97.03,240.709c-3.7,6.76-1.052,16.276,6.06,21.21,7.084,4.917,16.069,3.435,19.565-3.32s0.518-16.62-6.294-21.379C759.878,766.573,751.086,768.2,747.434,774.868ZM803,196.813c-1.862,7.16-.655,14.986,2.734,17.378,3.5,2.469,7.941-1.79,9.689-9.428,1.746-7.606.393-15.79-2.885-17.8S804.917,189.476,803,196.813ZM417.052,846.748a13.724,13.724,0,0,0,.591,20.21c6.331,5.644,16.786,5.68,22.883.118,6.03-5.5,5.5-14.9-.945-20.523S423,841.016,417.052,846.748ZM172.215,660.988c5.63-5.439,6.915-15.876,2.983-22.9s-11.67-8.393-17.059-2.864c-5.254,5.394-6.774,15.661-3.2,22.643C158.622,665.065,166.577,666.439,172.215,660.988ZM696.329,82.918c3.476-4.5,3.43-9.172-.1-10.237s-9.518,1.533-13.051,5.706c-3.552,4.2-3.393,8.823.345,10.158C687.153,89.841,692.954,87.286,696.329,82.918ZM192.572,179.405c3.715-2.885,4.232-10.164,1.225-16.581-3.019-6.44-8.143-9.587-11.758-7.116s-4.307,10.438-1.414,17.065C183.444,179.235,188.935,182.229,192.572,179.405Zm163.873-96.8c4.184-1.791,4.256-6.081.154-9.671-4.16-3.64-10.585-5.351-14.845-3.924s-4.354,6.049-.244,9.938C345.5,82.721,352.318,84.372,356.445,82.607Zm491.208,335.91c-1.722,7.975.462,17.554,4.973,21.356,4.457,3.756,9.563.125,11.038-8.033,1.5-8.271-.86-17.751-5.209-21.321C854.054,406.906,849.4,410.428,847.653,418.517ZM667.126,833.633c-4.412,6.152-2.315,15.231,4.8,19.985,7.146,4.779,16.783,3.714,21.016-2.382,4.32-6.216,1.948-14.939-5.235-19.928C680.564,826.35,671.612,827.387,667.126,833.633Zm-396.282-34.6c-6.075,5.625-6.892,15.079-1.619,21.008,5.247,5.909,14.712,6.02,20.731.321a14.613,14.613,0,0,0,.795-20.808C285.38,793.784,276.8,793.527,270.844,799.033ZM145.836,338.106c4.18-4.1,5.255-12.981,2.564-20.371-2.682-7.357-7.778-10.035-11.75-6.01-3.79,3.842-5.06,12.879-2.754,20.2C136.252,339.414,141.7,342.162,145.836,338.106Zm110.973-233.87c3.949-1.989,4.2-7.457.588-12.512-3.639-5.09-9.349-7.7-13.095-5.915-3.708,1.761-3.912,7.531-.435,12.742C247.253,103.627,253.033,106.137,256.809,104.236ZM498.284,78.011c4.232-2.211,4.406-5.553.382-7.674a19.762,19.762,0,0,0-15.348-.518c-4.418,1.917-4.611,5.469-.45,7.9C487.009,80.147,493.979,80.263,498.284,78.011ZM767.536,111.22c-2.573,6.084-2.108,12.3,1.075,13.9s7.715-2.371,10.011-8.787c2.319-6.478,1.707-12.466-1.37-13.646C774.273,101.541,770.053,105.267,767.536,111.22ZM533.711,77.247c4.179-2.431,4.326-5.72.316-7.556-4.136-1.89-10.809-1.674-15.177.527-4.214,2.123-4.356,5.493-.341,7.627C522.61,80.026,529.419,79.745,533.711,77.247ZM139.23,386.4c4.23-4.318,5.442-13.271,2.88-20.578-2.638-7.515-7.9-10.164-12.08-5.917-4.026,4.09-5.444,13.318-3.1,20.782C129.324,388.334,134.882,390.841,139.23,386.4ZM289.112,87.867c3.85-1.832,3.9-6.717.126-11.03s-9.783-6.56-13.533-5.009-3.82,6.478-.124,11.111S285.225,89.716,289.112,87.867ZM462.4,76.642c4.267-2,4.38-5.45.232-7.812s-10.9-2.911-15.156-1.207c-4.3,1.718-4.372,5.188-.194,7.861S458.109,78.653,462.4,76.642ZM151.648,291.214c3.946-3.607,5.029-12.027,2.528-19.116s-7.455-10.181-11.18-6.83c-3.778,3.4-4.967,11.849-2.64,19.251S147.692,294.828,151.648,291.214Zm73.818-169.285c3.706-2.177,4.073-8.19.851-13.659s-8.638-8.41-12.161-6.527c-3.577,1.911-3.968,7.937-.872,13.747S221.756,124.11,225.466,121.929Zm572.289,37.058c-1.949,6.951-.945,13.854,2.322,15.68s7.169-2.392,8.9-9.718c1.7-7.212.622-14.243-2.384-15.748S799.7,152.037,797.755,158.987Zm-430.7,689.191c-5.862,5.633-5.807,14.342.329,19.7a16.167,16.167,0,0,0,21.574-.5c5.829-5.57,5.465-14.293-.62-19.644A15.825,15.825,0,0,0,367.055,848.178Zm450.5-138.465c-2.966,7.039-.46,16.128,5.917,20.911s13.65,3.047,16.4-4.032c2.745-7.045-.053-16.42-6.149-21.063S820.48,702.778,817.553,709.713Zm22.425-60.684c-2.45,7.4.211,16.666,6.215,21.184s12.521,2.248,14.76-5.292c2.213-7.444-.716-16.992-6.427-21.347S842.415,641.675,839.978,649.029ZM568.388,74.509c4.155-2.63,4.353-5.971.421-7.493s-10.512-.882-14.684,1.464c-4.189,2.357-4.192,5.642-.026,7.472C558.123,77.719,564.321,77.08,568.388,74.509ZM131.558,436.531c4.532-4.341,6.069-13.644,3.572-21.063-2.492-7.391-7.978-10.111-12.238-5.92-4.333,4.263-5.883,13.609-3.425,21.266C121.867,438.287,127.175,440.728,131.558,436.531ZM666.289,72.348c3.508-3.611,3.656-7.362.325-8.393-3.408-1.052-9.41.906-13.145,4.306-3.784,3.446-3.764,7.139.034,8.428C657.139,77.924,662.723,76.018,666.289,72.348ZM141.566,601.133c4.967-5.056,6.386-14.65,3.318-21.548-3.142-7.047-9.826-8.793-14.779-3.72-5.019,5.143-6.493,14.861-3.207,22.116C130.048,604.936,136.524,606.263,141.566,601.133Zm15.373-355.039c3.595-3.138,4.561-11.2,2.2-17.908-2.4-6.8-7.475-10.128-10.924-7.045-3.392,3.036-4.319,11.141-2.009,18.129C148.516,246.274,153.311,249.26,156.939,246.094ZM426.581,73.237c4.022-1.731,4.1-5.254.158-7.785-4.029-2.584-11.066-3.53-15.1-2-3.965,1.512-3.84,5.016.263,7.859S422.51,74.987,426.581,73.237Zm433.7,395.191c-1.464,7.719,1.036,16.9,5.673,20.506,4.614,3.59,9.541.094,10.763-7.793,1.217-7.838-1.514-17.479-5.8-20.754C866.59,457.082,861.733,460.819,860.285,468.428Zm-144.9,360.336c-3.972,5.836-1.767,14.52,5.04,19.193,6.825,4.688,15.709,3.766,19.547-2.088,3.806-5.8,1.317-14.737-5.232-19.357C728.208,821.911,719.33,822.972,715.381,828.764Zm143.68-243.746c-2.051,7.128.588,16.793,5.849,21.006,5.279,4.229,11.246,1.629,12.973-5.8,1.717-7.373-1.252-17.173-6.29-21.077C866.69,575.344,861.072,578.037,859.061,585.018ZM791.5,768.037c-3.124,6.365-.407,15.4,6.121,19.891,6.5,4.479,14.555,2.841,17.333-3.624,2.719-6.316-.151-15.221-6.206-19.638C802.531,760.134,794.608,761.726,791.5,768.037ZM602.328,69.523c3.736-2.647,3.925-5.816.4-7.049-3.634-1.271-9.971-.306-13.882,2.137-3.791,2.368-3.975,5.6-.418,7.1C592.087,73.256,598.5,72.237,602.328,69.523ZM321.936,73.269c3.8-1.5,3.737-5.784-.147-9.412-3.767-3.519-9.8-5.436-13.419-4.222-3.69,1.234-3.629,5.653.123,9.495C312.141,72.862,318.245,74.721,321.936,73.269ZM123.89,487.1c4.289-4.4,5.7-13.683,3.251-20.7-2.532-7.238-8.108-9.7-12.338-5.3-4.1,4.27-5.733,13.8-3.48,20.9C113.635,489.3,119.5,491.605,123.89,487.1Zm71.037-345.936c3.4-2.231,3.79-8.943.884-14.744-2.819-5.626-7.659-8.676-10.814-6.729-3.211,1.981-3.677,8.9-.97,14.874C186.658,140.365,191.623,143.33,194.927,141.166ZM185.633,744.69c-5.325,5.266-6.449,14.656-2.3,20.531s12.367,6.358,17.717,1.135a16.023,16.023,0,0,0,1.913-20.311C198.665,740.045,190.984,739.4,185.633,744.69ZM739.753,73.144c-2.759,4.663-2.61,9.482.336,10.553s7.631-2.2,10.218-7.148c2.613-4.99,2.423-9.674-.415-10.464S742.54,68.431,739.753,73.144ZM793.508,123.7c-1.805,6.118-1.068,12.216,1.686,13.69,2.816,1.51,6.684-2.7,8.376-9.2,1.725-6.608.9-12.708-1.838-13.86S795.4,117.3,793.508,123.7Zm-69.86-55.346c3.017-4.421,3.011-8.5-.012-9.246-3.039-.746-7.823,1.914-10.954,6.1-3.075,4.109-3,8.333.15,9.228C715.918,75.312,720.759,72.586,723.648,68.356Zm-406.025,780.5c-5.61,5.276-5.845,13.948-.33,18.966,5.366,4.89,14.386,4.8,19.945-.146a12.486,12.486,0,0,0,.3-18.784A14.334,14.334,0,0,0,317.623,848.859ZM164.865,711.009a17.354,17.354,0,0,0,2.629-20.2c-3.744-6.524-10.578-7.626-15.88-2.437-5.2,5.093-6.677,14.648-3.08,20.878S159.673,716.245,164.865,711.009ZM161.337,202.6c3.461-2.821,4.155-9.963,1.649-16.451-2.425-6.278-6.66-9.2-9.855-6.692-3.234,2.539-4.079,10.132-1.805,16.615C153.551,202.411,158.037,205.285,161.337,202.6ZM390.528,67.709c3.956-1.446,4.161-4.647.452-7.388-3.888-2.872-10-4.162-14.022-2.941-3.98,1.205-4.073,4.688-.227,7.67C380.466,67.946,386.654,69.126,390.528,67.709Zm375.29,13.74c-2.494,5.393-2.213,10.64.647,11.692,2.786,1.025,6.765-2.538,8.953-8.048,2.216-5.578,1.907-10.546-.691-11.414S768.234,76.222,765.818,81.45ZM225.138,798.088c-5.553,5.09-6.622,13.562-2.277,19.243,4.426,5.791,12.951,6.12,18.644.8a13.935,13.935,0,0,0,1.582-19.1C238.479,793.434,230.7,792.992,225.138,798.088ZM525.59,890.381c-4.895,5.207-3.7,12.883,2.862,17.307s15.553,3.806,20.446-1.438c4.835-5.181,3.384-12.848-3.107-17.32S530.559,885.1,525.59,890.381ZM839.951,258.419c-1.235,7.372.315,14.981,3.589,17.34s6.668-1.724,7.684-9.37c1.012-7.615-.641-15.327-3.685-17.434S841.191,251.025,839.951,258.419Zm-262.1,628.918c-4.859,5.2-3.686,12.765,2.868,17.322s15.552,4.11,20.3-1.032c4.769-5.162,3.332-12.8-3.1-17.362S582.673,882.182,577.851,887.337ZM849.58,303.315c-1.239,7.5.417,15.423,3.881,18.223s7.043-.965,8.048-8.645c1.013-7.732-.776-15.828-3.994-18.382S850.808,295.89,849.58,303.315Zm-376.087,589.1c-5.271,5.179-4.437,12.746,2.105,17.366,6.283,4.439,15.075,4,20.158-.992,5.006-4.916,4.145-12.5-1.771-17.084C487.914,887,478.688,887.318,473.493,892.416ZM831.6,215.3c-1.3,7.258.1,14.341,3.27,16.335,3.04,1.91,6.19-2.174,7.245-9.51,1.033-7.19-.369-14.516-3.1-16.407C836.216,203.773,832.884,208.136,831.6,215.3ZM133.163,652.372c4.712-4.833,6.022-13.929,3.014-20.088-3.1-6.343-9.62-7.552-14.3-2.526-4.6,4.932-5.871,13.744-2.788,20.182C122.134,656.3,128.339,657.322,133.163,652.372ZM695.587,60.44c3.1-3.555,3.308-7.05.451-7.776-2.91-.738-8.246,1.541-11.5,4.925-3.217,3.349-3.26,6.666-.107,7.6S692.433,64.05,695.587,60.44Zm-60.969,2.076c3.7-2.8,4.064-5.938.777-6.857-3.164-.886-8.9.429-12.5,2.877-3.681,2.511-3.959,5.442-.641,6.651C625.626,66.414,630.993,65.253,634.618,62.516ZM115.04,538.567c4.34-4.307,5.917-13.2,3.627-19.92-2.328-6.806-7.977-8.992-12.224-4.594-4.2,4.348-5.753,13.186-3.424,20.063C105.362,541.04,110.641,542.933,115.04,538.567ZM762.251,823.893c-3.187,5.787-.724,13.491,5.817,17.77,6.477,4.238,14.067,3.093,17.26-2.68,3.117-5.627.524-13.867-5.552-18.049C773.51,816.624,765.5,818.011,762.251,823.893ZM874.73,518.467c-1.6,7.117.572,15.758,5.031,19.642,4.582,3.99,9.281,1.687,10.732-5.418,1.5-7.32-.955-16.589-5.292-20.4C881.072,508.665,876.286,511.558,874.73,518.467ZM257,74.605c3.169-1.5,3.146-6.231-.045-10.235-3.223-4.044-8.59-6.466-11.648-5.2-3.126,1.29-3.077,5.868.12,10.294C248.6,73.861,253.768,76.132,257,74.605Zm-30.7,14.555c3.112-1.6,3.289-6.861.393-11.415s-7.976-7.338-10.961-5.976c-3.051,1.393-3.2,6.517-.327,11.466S223.117,90.795,226.293,89.16ZM629.269,884.2c-4.38,5.079-2.793,12.655,3.729,17.011s15.281,3.829,19.574-1.233c4.217-4.968,2.369-12.877-3.853-17.152C642.528,878.576,633.566,879.224,629.269,884.2ZM860.474,350.437c-1.153,7.278.75,15.5,4.334,18.441,3.614,2.963,7.278-.573,8.219-8.094,0.924-7.38-1.143-15.989-4.429-18.726C865.352,339.355,861.611,343.287,860.474,350.437ZM421.461,894.085a10.92,10.92,0,0,0,.567,16.719c5.582,4.643,14.955,4.606,20.194-.051,5.049-4.484,4.6-12.056-.831-16.65C435.786,889.369,426.752,889.347,421.461,894.085ZM824.5,174.477c-1.217,6.387-.065,13.179,2.564,14.913,2.72,1.8,6.047-2.534,7.1-9.341,1.035-6.668-.173-13.452-2.634-14.969C829,163.517,825.761,167.886,824.5,174.477ZM856.14,700.11c-2.032,6.156.6,14.639,5.884,18.641,5.457,4.136,11.956,2.234,13.88-4.168,1.88-6.241-.926-14.755-6.08-18.736C864.508,691.742,858.25,693.742,856.14,700.11ZM355.244,60.094c3.57-1.137,3.61-4.382.073-7.2-3.566-2.84-9.225-4.374-12.78-3.443-3.459.9-3.508,4.285-.123,7.26S351.693,61.225,355.244,60.094ZM165.077,161.381c2.961-2.237,3.493-8.713,1.222-14.476-2.278-5.78-6.363-8.841-9.18-6.788-2.767,2.014-3.405,8.8-1.344,14.608S162.157,163.584,165.077,161.381ZM790.423,90.922c-1.7,5.308-1.18,10.525,1.176,11.573,2.425,1.08,5.953-2.865,7.585-8.535,1.68-5.823,1.1-10.945-1.3-11.7S792.227,85.3,790.423,90.922ZM269.165,849.085c-5.215,4.773-5.753,12.928-1.016,17.656,4.588,4.588,12.791,4.651,17.986.191a11.805,11.805,0,0,0,1.02-17.449A12.66,12.66,0,0,0,269.165,849.085ZM833.8,760.5c-2.29,5.816.212,13.772,5.675,17.73,5.6,4.061,12.567,2.529,14.908-3.378,2.4-6.045-.333-14-6.106-18.085S836.227,754.348,833.8,760.5Zm41.257-123.175c-1.522,6.461,1.059,14.748,5.822,18.432,4.9,3.788,10.525,1.408,12.028-5.214,1.549-6.8-1.209-15.044-6.2-18.793S876.676,630.486,875.059,637.327ZM288.169,61.552c3.315-1.168,3.44-4.7.281-8.193-3.313-3.666-8.394-5.739-11.719-4.753-3.265.966-3.305,4.886-.092,8.561C279.755,60.731,284.942,62.689,288.169,61.552ZM196.64,104.847c2.969-1.884,3.093-7.208.312-12.325-2.65-4.874-6.74-7.371-9.522-5.733-2.7,1.588-3,7.018-.646,12.023C189.205,103.966,193.721,106.7,196.64,104.847ZM680.185,880.908c-3.716,4.941-1.937,12.193,4.1,16.165,6.207,4.086,14.726,3.277,18.462-1.8,3.8-5.16,1.573-12.345-4.957-16.436C691.545,874.925,684,875.835,680.185,880.908Zm192.74-481.479c-1.057,7.188,1.032,15.538,4.663,18.376,3.519,2.749,7.153-.745,7.989-7.824,0.86-7.256-1.143-15.134-4.529-18.075C877.5,388.821,874,392.131,872.925,399.429ZM497.26,60.141c3.761-1.506,4.032-3.894.6-5.433a19.914,19.914,0,0,0-12.867-.445c-3.738,1.322-3.84,3.725-.254,5.472A17.256,17.256,0,0,0,497.26,60.141ZM118.287,320.621c3.279-3.252,4.373-10.891,2.53-17.236s-5.724-8.89-8.834-5.682-4.2,10.9-2.4,17.467C111.316,321.51,115.075,323.807,118.287,320.621ZM818.818,135.878c-1.355,6.263-.474,12.066,2.058,13.372,2.437,1.255,5.163-2.519,6.3-8.814,1.15-6.373.19-12.549-2.077-13.544C822.9,125.924,820.1,129.955,818.818,135.878ZM533.069,59.692c3.477-1.638,3.714-3.956.514-5.221-3.3-1.3-9.106-1.173-12.729.3-3.7,1.508-3.744,3.837-.115,5.342A16.867,16.867,0,0,0,533.069,59.692ZM110.748,369.864c3.292-3.381,4.532-11.076,2.854-17.333-1.733-6.444-5.839-9.1-9.092-5.767-3.318,3.406-4.551,11.226-2.754,17.94C103.482,371.145,107.379,373.325,110.748,369.864ZM369.789,895.9c-5.191,4.682-5.035,11.705.524,16.1a14.445,14.445,0,0,0,18.321-.493c5.091-4.556,4.736-11.889-.631-16.141A14.536,14.536,0,0,0,369.789,895.9ZM105.974,590.2c4.07-4.229,5.472-12.489,3.23-18.5-2.314-6.194-7.585-7.85-11.678-3.555-4.163,4.369-5.563,12.684-3.1,19.063C96.776,593.3,101.788,594.554,105.974,590.2ZM665.906,52.973c3.222-2.8,3.5-5.6.605-6.18-2.8-.56-7.722,1-10.9,3.461-3.275,2.543-3.6,5.162-.753,6.06C657.859,57.262,662.634,55.816,665.906,52.973Zm-204.4,5.36c3.466-1.3,3.607-3.7.3-5.4a19.933,19.933,0,0,0-12.89-1.151c-3.662,1.153-3.6,3.583.118,5.566A16.832,16.832,0,0,0,461.507,58.333ZM124.994,272.911c2.98-2.776,4.039-9.987,2.4-16.047-1.681-6.191-5.62-9.207-8.506-6.4-2.837,2.757-3.832,9.912-2.2,16.243C118.315,273.053,121.967,275.729,124.994,272.911Zm19.633,468.827c-4.618,4.581-5.741,12.482-2.429,17.917s9.725,6.082,14.516,1.558c4.873-4.6,5.943-13.121,2.429-18.332C155.687,737.765,149.185,737.217,144.627,741.738Zm595.485-692.4c-2.48,3.812-2.471,7.329.019,7.989s6.322-1.949,8.722-5.984c2.448-4.12,2.473-7.965.054-8.291C746.558,42.732,742.547,45.6,740.112,49.339Zm-172.007,7.89c3.375-1.8,3.534-4.176.318-5.134-3.117-.93-8.59-0.468-11.971,1.03-3.531,1.562-3.744,3.912-.49,5.15C559.237,59.52,564.687,59.042,568.105,57.228ZM102.421,420.6c3.4-3.537,4.738-11.9,2.942-17.991-1.748-5.916-5.836-8.32-9.029-5.2-3.324,3.246-4.822,11.459-3.206,17.924C94.754,421.847,98.975,424.183,102.421,420.6ZM764.885,54.857c-2.122,4.343-1.883,8.371.531,8.948,2.4,0.573,6-2.776,7.918-7.353,1.837-4.388,1.623-8.426-.467-8.834C770.712,47.2,766.968,50.6,764.885,54.857ZM890.339,570.909c-1.2,6.538,1.345,14.545,5.739,17.842,4.366,3.276,8.837.454,9.747-6.267,0.875-6.44-1.761-14.534-5.7-17.656C896.076,561.611,891.52,564.5,890.339,570.909ZM808.123,817.16c-2.847,5.143-.537,12.689,5.194,16.6,5.765,3.933,12.708,2.862,15.293-2.429,2.555-5.225-.145-13.051-5.673-16.721C817.57,811.046,810.855,812.23,808.123,817.16ZM180.754,796.614c-4.629,4.194-5.79,12.078-2.4,17.039,3.541,5.191,10.82,5.8,15.722,1.4,4.718-4.237,5.695-11.927,2.262-16.97A10.338,10.338,0,0,0,180.754,796.614Zm-56.611-92.9c4.326-4.381,5.44-12.42,2.588-17.9-2.846-5.455-8.683-6.474-12.866-2.156-4.2,4.334-5.55,12.665-2.834,18.059S119.906,708.006,124.143,703.715Zm605.951,172.8c-3.183,4.628-1.16,11.66,4.528,15.353,5.869,3.814,13.947,2.949,16.942-1.861,2.975-4.771.618-11.611-5.168-15.3C740.638,871.04,733.289,871.872,730.094,876.512ZM723.189,45.9c2.5-3.362,2.522-6.368.037-6.674s-6.752,2.06-9.326,5.179-2.608,6.231-.062,6.736S720.737,49.191,723.189,45.9ZM425.065,54.624c3.436-.939,3.72-3.374.6-5.268a18.93,18.93,0,0,0-12.4-2.043c-3.313.82-3.454,3.3-.322,5.345A17.21,17.21,0,0,0,425.065,54.624ZM131.091,226.848c2.683-2.567,3.439-9.324,1.731-15.074s-5.207-8.673-7.791-6.433c-2.552,2.212-3.508,9.176-2.03,15.042C124.521,226.435,128.365,229.457,131.091,226.848Zm755.579,222.9c-0.921,6.352,1.213,14.375,4.68,17.377s7.157,0.148,8.053-6.354c0.881-6.383-1.29-14.5-4.627-17.537C891.278,440.047,887.646,443.03,886.67,449.744ZM320.648,50.169c3.078-.965,2.931-3.97-0.341-6.769s-8.323-4.383-11.25-3.507c-2.8.836-2.681,3.862,0.253,6.659C312.336,49.439,317.626,51.115,320.648,50.169Zm-152.859,72.07c2.628-1.638,3.044-7.147.944-12.254-2.114-5.138-5.76-7.977-8.219-6.325-2.428,1.629-2.833,7.427-.848,12.51C161.585,121.089,165.267,123.809,167.789,122.239ZM601.877,52.6c3.29-1.913,3.585-3.959.667-4.733-2.937-.779-7.748-0.072-11.066,1.643s-3.616,3.824-.708,4.786C593.652,55.249,598.646,54.482,601.877,52.6ZM93.31,471.875c3.468-3.7,4.694-11.1,2.913-17.125-1.778-6-5.631-7.867-9-4.239-3.306,3.561-4.738,11.361-3.109,17.3C85.757,473.788,89.862,475.553,93.31,471.875ZM788.473,60.944c-1.6,4.516-1.276,8.529.74,9.17,2.093,0.667,4.987-2.676,6.562-7.608,1.566-4.906,1.219-9.069-.778-9.409S790.155,56.182,788.473,60.944ZM318.5,897.492c-4.521,4.159-4.682,10.524-.247,14.509,4.593,4.128,12.17,4.011,16.988-.231s4.785-10.734.03-14.809A12.682,12.682,0,0,0,318.5,897.492ZM814.247,100.1c-1.285,5.482-.648,10.553,1.461,11.451,2.039,0.868,4.514-2.657,5.642-8.1,1.187-5.726.581-10.826-1.359-11.666S815.538,94.595,814.247,100.1ZM221.717,849.238c-4.527,4.223-5.2,10.9-1.421,15.3,3.908,4.554,10.9,4.7,15.726.39s5.334-11.178,1.271-15.623S226.472,844.8,221.717,849.238ZM226.2,58.718c2.563-1.116,2.6-4.932.078-8.626-2.612-3.828-6.783-6.1-9.321-5.026-2.431,1.027-2.345,4.862.208,8.807C219.7,57.792,223.58,59.854,226.2,58.718ZM389.191,48.51c3.083-.861,3.141-3.183.11-5.106-3.007-1.908-8.233-2.98-11.278-2.3-3.105.7-3.088,2.971,0.023,5.121C381.182,48.394,386.057,49.386,389.191,48.51ZM136.081,182.451c2.413-2.136,3.057-8.284,1.437-13.426s-4.915-7.9-7.2-5.942c-2.323,1.994-2.964,7.953-1.416,13.469S133.624,184.625,136.081,182.451ZM255.992,47.667c2.6-.868,2.572-4.407-0.075-7.525s-7.237-5.256-9.667-4.464c-2.515.817-2.33,4.264,0.414,7.684C249.278,46.62,253.425,48.519,255.992,47.667Zm-58.66,23.817c2.424-1.1,2.635-5.585.456-9.586-2.165-3.967-6.152-6.643-8.4-5.6-2.23,1.03-2.4,5.216-.377,9.366C191.133,70.02,194.851,72.606,197.332,71.484ZM874.348,750.912c-2.022,5.058.312,12.309,5.176,15.824,4.709,3.4,9.965,2.207,11.817-2.763,1.863-5-.68-12.612-5.275-16.032C881.691,744.689,876.278,746.094,874.348,750.912Zm18.386-61.477c-1.19,5.564,1.306,12.4,5.734,15.553,4.573,3.256,9.424,1.179,10.514-4.589,1.04-5.488-1.692-12.838-5.806-15.762C898.849,681.561,893.93,683.861,892.734,689.435ZM695.676,40.932c2.406-2.542,2.467-4.88.118-5.1s-6.6,1.581-9.123,3.906c-2.564,2.365-2.7,4.737-.317,5.211C688.838,45.44,693.193,43.555,695.676,40.932ZM96.2,642.167c3.6-3.952,4.755-11.552,2.608-16.59-2.163-5.056-7.017-6.294-10.544-2.6-3.583,3.752-4.986,11.327-3,16.6C87.322,645.065,92.486,646.243,96.2,642.167Zm805.9-140.54c-0.761,5.866,1.489,13.333,4.858,15.97s6.9-.331,7.415-6.327c0.533-6.142-1.827-13.276-5.173-15.76C906,493.138,902.841,495.905,902.1,501.627Zm-123.144,370.2c-2.577,4.351-.317,10.916,4.933,14.084,5.047,3.048,11.589,2.244,14.173-1.786,2.7-4.212.476-10.721-4.747-14.118C788.074,866.605,781.55,867.451,778.953,871.828Zm80.681-637.25c-0.533,5.7.8,11.883,2.961,13.588,2.233,1.764,4.683-1.925,5.18-7.917,0.5-6.033-.947-12.443-3.12-13.928S860.192,228.628,859.634,234.578ZM535.09,935.711c-4.022,3.605-3.208,9.876,1.834,13.26,5.023,3.375,12.977,3.086,16.863-.613,3.918-3.728,2.707-9.758-2.536-13.168C546.2,931.909,539.078,932.139,535.09,935.711ZM870,280.412c-0.534,6.012,1.088,12.723,3.519,14.429,2.339,1.641,4.723-1.851,5.187-7.707,0.487-6.112-1.115-12.8-3.457-14.586S870.544,274.327,870,280.412ZM588.747,933.142c-3.727,3.773-2.493,9.967,2.741,13.224,5.024,3.128,12.443,2.825,16.216-.67,3.911-3.619,2.682-9.683-2.551-13.161C599.852,929.015,592.558,929.288,588.747,933.142ZM83.485,524.227c3.329-3.632,4.453-10.78,2.647-16.354-1.719-5.3-5.39-6.762-8.527-3.3-3.047,3.366-4.468,10.662-3.053,15.978C76.01,526.044,80.258,527.747,83.485,524.227ZM634.8,45.7c2.787-1.858,3.032-3.7.548-4.211-2.629-.543-6.955.407-9.934,2.195-2.788,1.673-3.072,3.609-.64,4.281C627.269,48.65,631.985,47.58,634.8,45.7ZM850.7,190.618c-0.638,5.6.462,11.43,2.469,12.943,2.055,1.549,4.385-2.308,4.9-8.223,0.516-5.848-.618-11.468-2.561-12.816C853.456,181.1,851.377,184.636,850.7,190.618Zm-369.8,747.8c-3.936,3.668-3.4,9.448,1.289,12.794,4.793,3.421,12.755,3.143,16.786-.581,3.989-3.683,3.231-9.224-1.626-12.677C492.208,934.306,485.105,934.5,480.9,938.422ZM852.412,810.371c-2.14,4.652-.117,10.92,4.659,14.193,4.573,3.135,9.919,2.208,11.949-2.128,2.188-4.665.214-10.852-4.466-14.268C859.858,804.741,854.548,805.731,852.412,810.371Zm55.675-186.779c-1,5.391.993,11.776,4.689,14.856,3.807,3.171,7.776,1.262,8.767-4.315,1.012-5.673-1.174-12.362-4.948-15.332S909.133,617.949,908.087,623.592ZM882,327.822c-0.616,6.114.87,12.558,3.444,14.739,2.46,2.085,4.825-.891,5.279-6.759,0.486-6.277-1.077-12.736-3.531-14.782C884.826,319.05,882.579,322.047,882,327.822ZM642.073,930.72c-3.126,3.834-1.581,9.275,3.577,12.281,5.383,3.139,12.208,2.439,15.463-1.613,3.078-3.83,1.4-9.2-3.738-12.281C652.041,925.912,645.417,926.621,642.073,930.72ZM169.774,85.182c2.083-1.254,2.338-5.56.58-9.617-1.829-4.216-5.058-6.708-7.1-5.431-1.991,1.245-2.147,5.461-.348,9.809C164.691,84.258,167.626,86.474,169.774,85.182Zm117.037-47.26c2.481-.685,2.434-3.268-0.114-5.771-2.647-2.6-6.947-4.265-9.427-3.626-2.416.624-2.219,3.164,0.457,5.9C280.385,37.15,284.252,38.626,286.811,37.922ZM810.859,66.868c-1.19,4.559-.792,8.552.929,9.187s3.876-2.467,4.948-7.191c1.044-4.6.619-8.907-.908-9.371S812.007,62.473,810.859,66.868Zm32.258,82.076c-0.723,5.378.176,10.474,2.07,11.6s3.817-2.307,4.366-7.9c0.507-5.182-.421-10.41-2.021-11.483C845.888,140.053,843.822,143.743,843.117,148.944Zm-703-8.736c2.071-1.595,2.582-6.893,1.116-11.374s-4.429-7.086-6.356-5.505c-1.909,1.568-2.368,6.365-1.039,11.069C135.235,139.344,137.981,141.855,140.119,140.208ZM353.282,40.366c2.791-.558,2.955-2.682.344-4.616-2.57-1.9-7.276-3.194-9.952-2.726-2.767.484-2.729,2.564,0.073,4.7C346.45,39.788,350.534,40.915,353.282,40.366ZM268.167,898.6c-3.907,3.7-4.084,9.212-.313,12.776a10.864,10.864,0,0,0,14.574-.085,8.823,8.823,0,0,0,.337-13.225C278.858,894.631,272.115,894.866,268.167,898.6Zm158.682,42.255c-3.913,3.7-3.226,9.04,1.684,12.247,4.637,3.031,11.185,2.7,15.068-.763,3.914-3.485,3.3-9.269-1.21-12.366C437.848,936.86,430.642,937.265,426.849,940.854ZM765.456,30.535c-1.871,3.254-1.927,6.336-.118,6.651,1.744,0.3,4.523-2.1,6.249-5.418,1.755-3.377,1.829-6.586.162-6.755C770.166,24.852,767.244,27.421,765.456,30.535ZM137.962,795.167c-3.663,3.662-4.54,9.977-1.875,14.06s8.032,4.613,11.936,1.205c3.977-3.473,5.024-10.346,2.277-14.464S141.69,791.443,137.962,795.167Zm610.4-766.2c1.842-2.857,1.877-5.374.07-5.412s-5.1,2.292-6.994,4.979c-1.92,2.721-1.939,5.22-.047,5.409S746.53,31.809,748.358,28.97ZM114.323,754.314c3.614-3.461,4.668-10.128,2.357-14.435s-7.326-5.092-10.865-1.64-4.72,10.233-2.483,14.52S110.728,757.756,114.323,754.314ZM895.243,378c-0.437,5.448,1.382,12.046,3.863,13.911,2.377,1.786,4.738-1.219,5.06-6.524,0.344-5.643-1.466-11.94-3.94-13.817C897.857,369.774,895.672,372.631,895.243,378ZM694.936,927.158c-2.737,3.666-.829,9.255,4.134,11.893,4.761,2.534,11.26,1.81,13.767-1.556,2.747-3.685.764-8.953-4.376-11.836C703.613,922.94,697.58,923.62,694.936,927.158Zm-518.775-78.44c-3.872,3.451-4.758,9.317-1.892,12.993,2.847,3.656,8.556,3.834,12.447.431,3.982-3.482,4.648-9.013,1.627-12.826C185.305,845.483,180.1,845.209,176.161,848.718Zm611.6-815.223c-1.44,3.576-1.352,6.746.2,7.04s3.969-2.542,5.315-6.227c1.376-3.764,1.261-6.763-.263-6.923S789.226,29.857,787.764,33.495ZM72.374,577.084c3.207-3.051,4.528-9.12,3.1-14.042-1.364-4.711-4.6-6.2-7.525-3.388-3.094,2.973-4.539,9.226-3.225,14.154C65.978,578.5,69.383,579.929,72.374,577.084ZM666.154,36.457c2.28-1.76,2.458-3.291.4-3.528s-5.526.829-7.959,2.456c-2.569,1.716-2.878,3.4-.7,3.769S663.748,38.316,666.154,36.457Zm-292.179,906.2c-3.886,3.175-4,7.873-.192,10.979a11.294,11.294,0,0,0,14.17-.183c3.711-3.19,3.538-8-.315-10.985A11.366,11.366,0,0,0,373.975,942.659ZM836.921,109.835c-0.724,4.719-.16,8.942,1.347,9.934,1.6,1.05,3.313-2.03,3.92-7.1,0.572-4.8-.089-9.1-1.5-9.817S837.628,105.233,836.921,109.835ZM93.671,299.947c2.155-2.217,3.062-7.6,2.107-12.331-1-4.955-3.506-7.089-5.656-4.737-2.046,2.239-2.913,7.689-1.959,12.53C89.121,300.273,91.491,302.192,93.671,299.947ZM496.276,45.166c2.763-.859,2.832-2.262.135-3.164a17.855,17.855,0,0,0-9.155-.241c-2.59.731-2.619,2.072-.082,3.083A15.347,15.347,0,0,0,496.276,45.166ZM826.85,866.387c-2.09,3.793-.428,8.792,3.953,11.686,4.4,2.911,9.385,2.346,11.5-1.343,2.2-3.849.3-9.333-4.151-12.171C833.884,861.844,828.9,862.667,826.85,866.387ZM532.3,45.2c2.557-.938,2.729-2.262.373-2.987a18.2,18.2,0,0,0-9.039.132c-2.7.822-2.948,2.107-.582,2.985A15.13,15.13,0,0,0,532.3,45.2ZM85.167,350.258c2.261-2.339,3.288-7.93,2.364-12.7-0.922-4.752-3.42-6.95-5.6-4.864-2.246,2.145-3.351,7.539-2.545,12.557C80.238,350.578,82.772,352.737,85.167,350.258ZM919.416,554.57c-0.657,5.313,1.3,11.191,4.545,13.516,3.073,2.2,5.717-.031,6.162-5.286,0.433-5.109-1.569-11.016-4.454-13.238S920.036,549.572,919.416,554.57ZM459.957,43.032c2.581-.671,2.708-2.108.259-3.14A18.036,18.036,0,0,0,451,39.054c-2.554.6-2.473,2,.167,3.174A15.136,15.136,0,0,0,459.957,43.032ZM722.7,27.168c2.1-2.284,2.46-4.322.8-4.507-1.632-.181-4.878,1.529-6.974,3.671-2.143,2.192-2.359,4.092-.5,4.311C717.815,30.85,720.676,29.362,722.7,27.168ZM85.243,694.066a13.353,13.353,0,0,0,2.578-13.582c-1.82-4.145-5.975-4.93-9.091-1.663a13.182,13.182,0,0,0-2.258,13.62C78.289,696.513,82.09,697.193,85.243,694.066Zm16.076-442.8c1.955-2.018,2.735-7.623,1.7-12.034-1.049-4.476-3.493-6.581-5.334-4.52-1.785,2-2.507,7.081-1.626,11.658C96.987,251.192,99.321,253.334,101.319,251.271ZM567.593,43.105c2.326-.991,2.391-2.313.122-2.809a18.106,18.106,0,0,0-8.622.767c-2.164.888-2.2,2.133-.1,2.732A15.716,15.716,0,0,0,567.593,43.105ZM225.2,31.126c1.831-.58,1.713-3.418-0.249-6.021s-5.314-4.478-6.978-3.876c-1.633.591-1.524,3.252,0.242,5.845C220.072,29.8,223.367,31.707,225.2,31.126Zm-27.891,9.2c1.746-.678,1.722-3.916-0.047-6.852s-4.865-5.009-6.449-4.292c-1.553.7-1.535,3.734,0.044,6.65C192.518,38.9,195.554,41.008,197.309,40.329ZM75.783,401.857c2.193-2.243,3.3-8.353,2.353-12.819s-3.692-6.415-5.762-4.021c-2.011,2.323-3.085,8-2.317,12.429C70.863,402.113,73.544,404.147,75.783,401.857Zm242.8-372.019c2-.487,1.8-2.272-0.466-4.03s-5.747-2.915-7.819-2.575c-2.037.332-1.979,2.17,0.113,3.966C312.593,29.078,316.523,30.34,318.579,29.838ZM747.267,923.329c-2.272,3.025-.834,7.767,3.171,10.278,4.162,2.61,10.127,2.072,12.29-1.134,2.1-3.1.365-7.689-3.794-10.18C754.741,919.782,749.582,920.251,747.267,923.329ZM910.3,429.608c-0.32,4.947,1.491,10.843,3.84,12.425,2.245,1.511,4.352-1.293,4.488-6.033,0.142-4.852-1.559-10.181-3.78-11.9S910.609,424.834,910.3,429.608ZM143.264,100.062c1.6-1.08,1.907-4.967.7-8.667-1.223-3.737-3.438-6.012-5.022-5.129-1.632.907-2.02,5.228-.8,9.038C139.3,98.925,141.689,101.127,143.264,100.062ZM423.4,38.645c2.394-.538,2.367-1.788-0.073-2.94a15.018,15.018,0,0,0-7.985-1.2c-2.387.4-2.518,1.739-.3,2.927A14.289,14.289,0,0,0,423.4,38.645ZM107.865,203.993c1.781-1.71,2.342-6.154,1.338-10.439-1-4.263-2.953-6.085-4.659-4.28-1.536,1.624-2.176,6.207-1.4,10.147C103.958,203.557,106.139,205.647,107.865,203.993ZM912.933,741.936a11.861,11.861,0,0,0,4.22,11.275c3.357,2.4,7.08.992,8.035-3.089a11.473,11.473,0,0,0-4.515-11.6C917.14,736.13,913.9,737.585,912.933,741.936ZM808.773,36.53c-0.983,3.44-.824,6.353.377,6.712s2.9-2.134,3.834-5.625c1.028-3.848.846-6.8-.416-6.93C811.369,30.558,809.776,33.02,808.773,36.53ZM220.041,899.189c-3.65,2.931-4.271,7.791-1.316,10.777,2.818,2.852,7.726,2.817,11.1-.051,3.466-2.947,3.928-7.3,1.159-10.319S223.522,896.394,220.041,899.189Zm-49.613-848.5c1.637-.549,1.913-3.534.606-6.574-1.289-2.994-3.764-5.151-5.291-4.6-1.589.574-1.738,3.5-.346,6.747C166.725,49.363,168.844,51.222,170.428,50.692ZM831.879,73.755c-0.605,3.774-.208,6.965.952,7.588,1.246,0.669,2.631-1.829,3.23-5.876,0.581-3.934.123-7.651-.985-8.076S832.494,69.928,831.879,73.755Zm-577.933-50.5c1.913-.306,2-2.32.187-4.416-1.791-2.071-4.947-3.643-6.751-3.36-1.878.3-1.811,2.261,0.15,4.549C249.39,22.2,252.089,23.554,253.946,23.259Zm640.9,779.108c-1.414,3.384-.069,7.828,3.211,10.445,3.573,2.85,7.459,2.437,8.97-.99,1.488-3.374-.08-8.411-3.389-11.045C900.4,798.2,896.277,798.957,894.849,802.367Zm32.816-125.824c-0.861,4.116.838,9.028,3.975,11.4,2.985,2.253,5.807,1.127,6.638-2.7,0.857-3.962-.87-9.3-3.754-11.707C931.681,671.163,928.494,672.587,927.665,676.543ZM320.827,944.862c-3.143,2.712-3.228,6.611-.145,9.241a9.312,9.312,0,0,0,11.757.072c3.3-2.658,3.374-7.151.215-9.694S324.012,942.114,320.827,944.862ZM601.775,38.782c1.956-.963,2.116-2.106.326-2.41a16.5,16.5,0,0,0-7.649,1.2c-1.98.936-1.937,1.965,0.084,2.342A13.439,13.439,0,0,0,601.775,38.782ZM65.393,454.091c2.145-2.118,3.3-7.9,2.4-11.856-0.861-3.756-3.366-5.288-5.3-3.191-2.015,2.189-3.031,7.25-2.262,11.389C61.005,454.614,63.266,456.19,65.393,454.091ZM695.482,25.225c1.794-1.472,2.05-2.745.566-2.84-1.514-.1-4.091.917-5.939,2.34-1.755,1.349-2.056,2.731-.639,2.906S693.734,26.661,695.482,25.225ZM61.2,629.474c2.428-2.482,3.361-7.188,2.189-10.881-1.183-3.728-3.823-4.658-6.231-2.149-2.288,2.386-3.42,7.571-2.374,11.017S58.886,631.838,61.2,629.474ZM386.781,32.208c2.1-.3,2.2-1.4.224-2.552a12.974,12.974,0,0,0-7.1-1.613c-1.978.23-2.116,1.429-.3,2.573A12.9,12.9,0,0,0,386.781,32.208Zm-273.43,126.7c1.473-1.07,1.989-4.68,1.2-8.368-0.8-3.741-2.417-5.752-3.827-4.715-1.345.988-1.948,4.931-1.285,8.453C110.093,157.741,111.946,159.925,113.351,158.905ZM798.41,919.4c-1.662,2.578-.587,5.842,2.655,7.956,3.5,2.28,7.411,2.02,9.276-.634,1.814-2.58.547-6.357-2.784-8.416S800.118,916.753,798.41,919.4ZM927.143,482.573c-0.208,3.881.98,7.8,2.912,9.561,2.08,1.891,3.786.3,4.026-3.814,0.232-4-1.16-8.561-3.077-10.149S927.359,478.578,927.143,482.573ZM770.874,9.655c1.146-1.995,1.293-3.724.319-3.761-1.02-.037-3.11,1.843-4.321,3.889-1.158,1.96-1.191,3.518-.078,3.516S769.7,11.7,770.874,9.655ZM97.993,793.266a8.189,8.189,0,0,0-1.82,9.325c1.523,2.92,4.739,3.449,7.352,1.238,2.714-2.3,3.641-6.99,1.967-9.8C103.934,791.408,100.423,791.044,97.993,793.266ZM938.617,608.6c-0.36,3.464,1.144,7.682,3.383,9.427s4.383,0.423,4.788-3.035c0.395-3.388-1.081-7.874-3.18-9.724C941.419,603.334,939,604.97,938.617,608.6ZM873,860.731c-1.079,2.768.5,6.482,3.589,8.378s6.507,1.265,7.679-1.447c1.222-2.828-.606-7.145-3.735-8.877C877.546,857.134,874.048,858.048,873,860.731ZM788.169,9.139c-0.894,1.961-.969,3.918-0.152,4.124,0.884,0.223,2.566-1.554,3.57-3.791,0.973-2.17,1.055-4.3.17-4.362S789.146,7,788.169,9.139ZM546.528,980.588c-2.27,2-1.544,5.527,1.542,7.311s7.953,1.512,10.043-.57c2.116-2.11,1.121-5.609-2.035-7.288C553.126,978.472,548.644,978.729,546.528,980.588ZM634.743,32.319c1.592-.89,1.651-1.8.119-1.915a13.546,13.546,0,0,0-5.927,1.386c-1.541.854-1.453,1.738,0.174,1.863A12.426,12.426,0,0,0,634.743,32.319ZM132,848.545c-2.238,2.175-2.842,6.127-1.278,8.538,1.679,2.589,5.51,2.937,8.03.752,2.478-2.149,3.116-6.521,1.338-8.952C138.294,846.431,134.364,846.255,132,848.545ZM876.375,207.866c-0.082,3.329.756,6.925,1.824,7.793,1.148,0.932,2.293-1.451,2.394-5.031,0.1-3.52-.847-7.57-1.925-8.26S876.465,204.36,876.375,207.866Zm11.17,46.636c-0.1,3.625.973,7.695,2.237,8.456,1.176,0.708,2.272-1.682,2.32-5.087,0.052-3.642-1.049-7.766-2.253-8.472C888.724,248.74,887.636,251.161,887.545,254.5ZM54.261,507.036c1.795-1.752,2.781-6.535,2.044-9.813-0.687-3.049-2.75-4.334-4.4-2.708-1.745,1.723-2.768,6.558-2.068,9.868C50.49,507.466,52.562,508.7,54.261,507.036Zm548.1,470.774c-2.231,2-1.345,5.594,1.85,7.362,2.982,1.652,7.466,1.463,9.573-.41,2.238-1.985,1.307-5.562-1.881-7.358C608.927,975.732,604.466,975.924,602.357,977.81ZM145.211,62.018c1.138-.47,1.37-3.028.509-5.628-0.87-2.625-2.457-4.372-3.559-3.906-1.047.442-1.316,3.183-.554,5.664S144.1,62.476,145.211,62.018ZM284.266,16.926c1.358-.269,1.155-1.633-0.45-3.015s-4.022-2.328-5.379-2.088c-1.336.236-1.164,1.651,0.365,3.008C280.3,16.158,282.977,17.181,284.266,16.926ZM73.523,745.244a8.249,8.249,0,0,0,2-8.874c-1.222-2.924-3.923-3.5-6.171-1.291-2.176,2.138-3.06,6.44-1.841,9.05C68.653,746.569,71.416,747.074,73.523,745.244ZM490.659,983.33c-2.263,1.98-1.765,5.323,1.071,6.963,2.6,1.507,6.942,1.348,9.169-.333,2.492-1.881,2.128-5.022-.76-6.9C497.223,981.17,493,981.287,490.659,983.33ZM748.118,10.3c1.133-1.5,1.285-2.717.339-2.737-1.034-.023-2.941,1.242-4.242,2.811-1.252,1.51-1.454,2.944-.418,2.953S746.94,11.86,748.118,10.3ZM866.737,163.175c-0.144,3.4.613,6.863,1.609,7.324,0.974,0.452,1.97-2.3,2.022-5.6,0.053-3.261-.632-6.268-1.557-6.857C867.813,157.409,866.883,159.719,866.737,163.175Zm-597.4,783.818c-2.463,2.075-2.684,5.2-.468,7.066s5.929,1.719,8.422-.353c2.544-2.114,2.669-5.009.332-6.985A6.374,6.374,0,0,0,269.334,946.993ZM828.273,40.2c-0.478,2.772-.223,5.056.58,5.17s1.78-1.99,2.228-4.839c0.454-2.893.2-5.006-.6-5.084S828.766,37.345,828.273,40.2ZM658.107,975.255c-1.938,2-1.234,4.828,1.635,6.464s6.65,1.38,8.579-.6c1.947-2,1.2-4.73-1.726-6.418S660.058,973.247,658.107,975.255ZM900.429,303.428c-0.076,3.484.807,6.966,2.031,7.966s2.221-.949,2.256-4.478c0.035-3.564-.841-6.925-2.052-7.9S900.5,299.922,900.429,303.428ZM117.851,115.319c1.119-.639,1.519-3.329.9-6.062-0.612-2.713-1.959-4.287-2.98-3.465-0.964.778-1.248,3.235-.676,5.924C115.673,114.423,116.814,115.911,117.851,115.319ZM350.8,23.339c1.345-.227,1.3-1.1-0.111-1.994a9.792,9.792,0,0,0-5.465-1.419c-1.371.181-1.3,1.027,0.175,2.006A8.548,8.548,0,0,0,350.8,23.339Zm456.9-14.07c-0.625,2.137-.492,3.7.308,3.663s1.867-1.712,2.5-3.921c0.664-2.317.528-4.224-.284-3.973C809.473,5.272,808.306,7.223,807.708,9.269ZM858.514,120.8c-0.159,2.595.307,5.239,1.039,5.857,0.809,0.682,1.649-1.146,1.841-4.043,0.179-2.706-.379-5.921-1.1-6.376S858.68,118.123,858.514,120.8ZM434.637,986.161c-1.84,1.863-1.156,4.619,1.514,6,2.441,1.26,5.985.977,7.8-.621a3.779,3.779,0,0,0-.978-6.1C440.548,984.052,436.357,984.419,434.637,986.161Zm-262.208-85.94a4.758,4.758,0,1,0,5.85,7.485c2.187-1.59,2.843-5.115,1.341-7.07C178.162,898.744,174.5,898.529,172.429,900.221ZM195.958,11.653c0.957-.124,1.066-1.7.224-3.249-0.892-1.636-2.862-3.2-3.9-3.086-0.951.1-1.044,1.655-.2,3.257C193.023,10.345,194.85,11.8,195.958,11.653ZM914.812,354.692c0.042,2.643.971,5.816,1.93,6.578,1.046,0.831,2.072-1.253,2.007-4.094s-0.9-5.545-1.97-6.4C915.6,349.841,914.76,351.52,914.812,354.692Zm-201.8,617.5c-1.5,1.605-.634,4.434,1.76,5.676,2.2,1.143,5.487.872,6.876-.578,1.631-1.7.8-4.119-1.9-5.565C717.272,970.4,714.511,970.6,713.015,972.192ZM222.753,5.719c1.116-.1,1.188-1.076.178-2.443s-2.47-2.279-3.54-2.211c-1.028.066-1.112,1.163-.194,2.464S221.711,5.814,222.753,5.719Zm500.212,5.736c1.177-1.1,1.4-1.827.551-1.827a6.347,6.347,0,0,0-3.407,1.761c-1.109.99-1.365,1.815-.574,1.854A6.225,6.225,0,0,0,722.965,11.454ZM48.906,681.64a6.868,6.868,0,0,0,1.531-6.735c-0.755-2.236-2.47-2.664-4.1-1.006a7.445,7.445,0,0,0-1.617,6.818C45.41,682.843,47.313,683.256,48.906,681.64ZM665.985,23.712c1.294-.774,1.512-1.374.5-1.409a8.495,8.495,0,0,0-3.956,1.23c-1.228.729-1.383,1.357-.225,1.329A7.607,7.607,0,0,0,665.985,23.712ZM42.336,560.048a7.979,7.979,0,0,0,1.49-6.892c-0.6-2.387-2.051-2.882-3.481-1.165a8.587,8.587,0,0,0-1.443,6.474C39.369,560.892,40.908,561.6,42.336,560.048Zm127.92-541.71c0.975-.217,1.089-1.521.286-3.271s-2.018-2.852-2.948-2.673c-0.891.172-1.025,1.642-.3,3.3S169.345,18.541,170.256,18.338Zm677.91,896.84c-0.791,1.735.135,4.016,2.14,5.247,2.222,1.365,4.836.962,5.826-.909,1.011-1.911,0-4.3-2.356-5.59S849.089,913.155,848.166,915.178Zm97.68-378.264c-0.075,2.76.987,5.748,2.412,6.492,1.4,0.73,2.3-.068,2.42-2.837,0.119-2.813-.829-5.646-2.255-6.728C947.018,532.773,945.922,534.09,945.846,536.914ZM935.258,794.291a5.891,5.891,0,0,0,2.426,5.807c1.861,1.27,3.605.751,4.235-1.28a5.846,5.846,0,0,0-2.256-6.322C937.712,791.175,935.743,791.985,935.258,794.291Zm-18.511,59.372a5.2,5.2,0,0,0,2.418,5.578c1.994,1.278,3.937.87,4.722-1.012a5.1,5.1,0,0,0-2.21-6.055C919.587,850.839,917.379,851.512,916.747,853.663Zm32.746-123.341a6.558,6.558,0,0,0,2.466,6.462c1.763,1.193,3.226.488,3.644-1.772a6.693,6.693,0,0,0-2.432-6.492C951.5,727.418,949.958,728.18,949.493,730.322Zm9.849-67.955c-0.345,2.5.727,5.409,2.459,6.632,1.607,1.136,2.863.289,3.129-2.122,0.288-2.63-.774-5.535-2.43-6.667C960.978,659.168,959.659,660.08,959.342,662.367Z" transform="translate(-38.781 -1.063)"/>
</svg>
