<svg xmlns="http://www.w3.org/2000/svg" width="999.844" height="998.969" viewBox="0 0 999.844 998.969">
  <defs>
    <style>
      .cls-1 {
        fill: #a6b4bf;
        fill-rule: evenodd;
      }
    </style>
  </defs>
  <path class="cls-1" d="M498.259,471.06a22.125,22.125,0,0,0-.078,31.667,22.368,22.368,0,1,0,31.383-31.879A22.2,22.2,0,0,0,498.259,471.06ZM530.04,548.8a22.475,22.475,0,0,0-.532-31.747,22.345,22.345,0,0,0-31.28,31.916A22.592,22.592,0,0,0,530.04,548.8Zm-46.313-46.177a22.492,22.492,0,0,0-.441-31.79A22.345,22.345,0,0,0,452,502.746,22.4,22.4,0,0,0,483.727,502.627Zm92.15-31.588a22.32,22.32,0,0,0-31.5,31.634,22.335,22.335,0,0,0,31.308.283A22.783,22.783,0,0,0,575.877,471.039ZM529.744,424.91a22.408,22.408,0,0,0-31.411.052,21.958,21.958,0,0,0-.48,31.183A22.322,22.322,0,1,0,529.744,424.91ZM451.833,548.858a22.342,22.342,0,1,0,31.75-31.441A22.342,22.342,0,0,0,451.833,548.858Zm-0.215-123.524a22.119,22.119,0,0,0,.458,31.17A22.216,22.216,0,1,0,451.618,425.334Zm92.694,92.294a22.159,22.159,0,0,0,.234,31.342,22.43,22.43,0,0,0,31.372.066,22.687,22.687,0,0,0-.366-31.9A22.018,22.018,0,0,0,544.312,517.628Zm-46.249,76.956c8.664,8.649,23.383,8.667,31.921.036a22.133,22.133,0,0,0-.283-31.135,22.365,22.365,0,0,0-31.381.065A21.828,21.828,0,0,0,498.063,594.584Zm46.7-169.663a22.074,22.074,0,0,0-.539,31.2A22.274,22.274,0,1,0,544.761,424.921Zm-138.7,77.657a22.085,22.085,0,0,0,31.5-.163,22.609,22.609,0,0,0-.392-31.464,21.878,21.878,0,0,0-31.047.179A22.621,22.621,0,0,0,406.06,502.578ZM436.97,549.1a22.489,22.489,0,0,0,.525-31.426,21.887,21.887,0,0,0-31.082-.329,22.59,22.59,0,0,0-.6,31.444C414.086,557.44,428.2,557.557,436.97,549.1Zm46.046,45.894a22.03,22.03,0,0,0,.671-31.128,22.349,22.349,0,0,0-31.368-.469,21.992,21.992,0,0,0-.794,31.115C459.864,603.1,474.089,603.306,483.016,594.99ZM590.909,470.841a22.538,22.538,0,0,0-.68,31.5,21.645,21.645,0,0,0,30.942.366,22.911,22.911,0,0,0,.295-31.608A21.678,21.678,0,0,0,590.909,470.841ZM498.2,379.617a21.647,21.647,0,0,0,.226,30.927,22.542,22.542,0,0,0,31.129-.157,21.678,21.678,0,0,0,.242-30.954A22.88,22.88,0,0,0,498.2,379.617ZM406.22,456.274a21.925,21.925,0,0,0,30.76.09,22.09,22.09,0,1,0-31-31.473A22.485,22.485,0,0,0,406.22,456.274Zm169.729,138.6a22.09,22.09,0,1,0-31.4-.274A22.494,22.494,0,0,0,575.949,594.875Zm14.489-46.144a21.581,21.581,0,0,0,30.857.312,22.616,22.616,0,0,0,.03-31.432,21.628,21.628,0,0,0-30.483-.26A22.466,22.466,0,0,0,590.438,548.731ZM483.025,379.325a22.8,22.8,0,0,0-31.469.356,21.759,21.759,0,0,0,.338,30.516,22.282,22.282,0,0,0,31.344-.049A21.453,21.453,0,0,0,483.025,379.325ZM405.792,594.946c8.436,8.5,22.456,8.278,31.128-.442a21.716,21.716,0,0,0,.152-30.667,21.969,21.969,0,0,0-31.123.291C397.654,572.671,397.562,586.654,405.792,594.946Zm215.867-170.13c-8.254-8.53-22.449-8.376-30.962.279a22.315,22.315,0,0,0-.15,30.934,21.41,21.41,0,0,0,30.838-.263A22.375,22.375,0,0,0,621.659,424.816Zm-45.4-45.4c-8.3-8.431-22.763-8.375-31.411.084a21.648,21.648,0,0,0-.3,30.529,22.064,22.064,0,0,0,31.248-.1A21.579,21.579,0,0,0,576.262,379.419ZM436.816,409.784a21.206,21.206,0,0,0-.245-30.348c-8.52-8.332-22.452-8.521-30.778-.377-8.439,8.255-8.212,22.545.436,30.924A21.605,21.605,0,0,0,436.816,409.784Zm-76.01,139.147c8.156,8.538,21.6,8.489,30.108-.034a22.068,22.068,0,0,0,.6-30.874,21.112,21.112,0,0,0-30.548-.207C352.8,526.338,352.718,540.465,360.806,548.931Zm260.836,46a21.9,21.9,0,0,0-.232-30.664,21.541,21.541,0,0,0-30.462-.391,21.978,21.978,0,0,0,.263,31.084C599.9,603.357,613.328,603.371,621.642,594.931ZM361.09,502.414a20.8,20.8,0,0,0,30.074-.1,22.135,22.135,0,0,0,.231-30.923,21.139,21.139,0,0,0-30.553-.138A22.973,22.973,0,0,0,361.09,502.414ZM451.9,640.024a22.535,22.535,0,0,0,31-.279,20.783,20.783,0,0,0,.285-30.069,22.421,22.421,0,0,0-31.375.13C443.436,618.253,443.442,631.975,451.9,640.024Zm77.731-.314a20.8,20.8,0,0,0,.022-30.069,22.481,22.481,0,0,0-31.034-.3,21.148,21.148,0,0,0-.037,30.56A22.6,22.6,0,0,0,529.627,639.71Zm46.275,0.457c8.617-8.235,8.641-21.457.126-30.1a22.159,22.159,0,0,0-30.883-.629,21.057,21.057,0,0,0-.132,30.192A22.287,22.287,0,0,0,575.9,640.167ZM391.091,455.743a21.8,21.8,0,0,0-.153-30.759c-8.435-8.534-22.1-8.732-30.227-.367s-7.965,22.438.3,31.012A20.732,20.732,0,0,0,391.091,455.743Zm200.173-76.43a21.43,21.43,0,0,0-.374,30.114,21.148,21.148,0,0,0,30.392.174c8.637-8.623,8.912-22.053.564-30.48C613.569,370.768,599.774,370.881,591.264,379.313Zm-61.628-44.3a22.781,22.781,0,0,0-31.2-.162,20.369,20.369,0,0,0,.045,29.491,22.069,22.069,0,0,0,31,.093C537.989,356.14,538.1,343.2,529.636,335.018ZM435.9,640.253c8.916-8.351,9.2-21.587.722-30.115a21.7,21.7,0,0,0-30.724-.006c-8.36,8.363-8.553,21.738-.361,29.9A21.889,21.889,0,0,0,435.9,640.253ZM390.38,595.082a21.472,21.472,0,0,0,.538-30.642,20.843,20.843,0,0,0-30.192.17c-8.138,8.591-8.227,22.153-.153,30.452C368.709,603.423,381.89,603.4,390.38,595.082Zm275.6-123.727a20.372,20.372,0,0,0-29.5-.238,22.278,22.278,0,0,0-.145,31.073c8.281,8.548,21.253,8.709,29.417.283A22.54,22.54,0,0,0,665.976,471.355ZM666,518.247a20.367,20.367,0,0,0-29.867-.18,22.23,22.23,0,0,0,.282,30.637c8.463,8.752,21.643,8.886,29.817.22A22.485,22.485,0,0,0,666,518.247ZM451.651,334.685c-8.332,8.019-8.182,21.19.254,29.517a22.027,22.027,0,0,0,30.552.631c8.837-8.3,9.028-21.4.345-29.784C474.155,326.708,460.119,326.536,451.651,334.685ZM636.5,425.04a21.976,21.976,0,0,0-.034,30.446,20.2,20.2,0,0,0,29.363.2,22.331,22.331,0,0,0,.514-30.909A20.478,20.478,0,0,0,636.5,425.04Zm-91.088-90.37a20.313,20.313,0,0,0,.021,29.789,21.858,21.858,0,0,0,30.4-.235c8.668-8.437,8.779-21.641.164-29.784C567.58,326.5,553.965,326.612,545.407,334.67Zm46.38,305.26c8.522,8.339,21.9,8.664,30.121.681,8.407-8.166,8.157-21.585-.489-30.179a21.2,21.2,0,0,0-30.029-.231A20.7,20.7,0,0,0,591.787,639.93ZM389.95,378.974c-8.532-8.246-21.9-8.266-29.8.029-7.956,8.356-7.569,21.614.831,30.131a20.7,20.7,0,0,0,29.715.237C399.035,400.931,398.728,387.465,389.95,378.974Zm276.244,186.12c-8.21-8.674-21.149-8.855-29.4-.5a21.472,21.472,0,0,0,.179,30.253c8.368,8.53,21.5,8.86,29.5.662S674.344,573.705,666.194,565.094ZM405.26,334.539c-8.2,8.156-7.8,21.1.855,29.465a21.615,21.615,0,0,0,30.288-.013c8.226-8.229,7.921-21.266-.769-29.438C426.99,326.427,413.451,326.4,405.26,334.539Zm-59.2,167.394a22.292,22.292,0,0,0-.345-30.605c-8.219-8.506-21-8.507-28.936.094a22.591,22.591,0,0,0,.286,30.673A19.689,19.689,0,0,0,346.056,501.933ZM529.607,684.056c8.442-7.878,8.32-20.851-.178-29.006a22.051,22.051,0,0,0-30.538-.088c-8.564,8.175-8.619,20.914-.027,28.929C507.406,691.859,521.166,691.934,529.607,684.056Zm92.659-350c-8.224-8.041-21.569-7.766-30.147.561s-8.583,21.212-.119,29.37a21.384,21.384,0,0,0,29.72-.363C630.151,355.362,630.434,342.038,622.266,334.053ZM316.57,548.72c7.884,8.546,20.855,8.562,29.062.131a22.227,22.227,0,0,0,.168-30.6,19.44,19.44,0,0,0-28.579-.167C309,526.63,308.705,540.193,316.57,548.72ZM360.11,640.7c8.089,8.094,21.53,7.85,29.9-.47a20.88,20.88,0,0,0,.086-29.8c-8.145-8.028-21.052-7.858-29.331.458C352.3,619.4,351.979,632.563,360.11,640.7ZM482.5,684.086a19.711,19.711,0,0,0,.093-29.043,21.917,21.917,0,0,0-30.112-.082c-8.753,8.191-9.112,20.99-.718,28.977A22.765,22.765,0,0,0,482.5,684.086ZM666.776,378.558c-7.889-8.064-20.733-7.877-29.092.339-8.585,8.442-8.894,21.626-.762,30.006a20.346,20.346,0,0,0,29.466-.106C674.572,400.341,674.772,386.734,666.776,378.558ZM316.732,454.8a19.738,19.738,0,0,0,29.086.374c7.984-8.413,7.719-22.121-.617-30.549-8.179-8.267-20.865-8.311-28.658,0S308.859,446.293,316.732,454.8Zm228.81,228.841c8.491,8.218,22.245,8.618,30.688.876,8.394-7.7,8.223-20.927-.279-29.137a21.8,21.8,0,0,0-30.048-.348C537.469,663,537.267,675.633,545.542,683.643ZM405.4,684.705c8.1,7.613,21.811,7.4,30.156-.417a19.9,19.9,0,0,0,.029-29.124c-8.313-7.739-21.6-7.387-29.912.832C397.411,664.171,397.246,677.043,405.4,684.705ZM359.832,333.687c-7.946,7.809-7.747,20.86.365,29.15,8.237,8.414,21.92,8.619,29.87.516a20.6,20.6,0,0,0-.721-29.165C381.008,326.143,367.765,325.89,359.832,333.687ZM667.325,641.055c7.65-7.909,7.295-21.351-.721-29.625a20.307,20.307,0,0,0-29.062-.494,20.823,20.823,0,0,0,.145,29.382C645.948,648.694,659.577,649.068,667.325,641.055ZM709.7,471.422c-7.651-8.321-20.3-8.206-28.253.153a22.343,22.343,0,0,0-.336,30.264c7.9,8.533,21.067,8.638,28.7.124C717.351,493.548,717.309,479.7,709.7,471.422Zm-211-180.013c-8.322,7.762-8.188,20.407.193,28.233a22.658,22.658,0,0,0,30.376-.031,19.345,19.345,0,0,0-.133-28.714C520.676,283.379,507.066,283.61,498.7,291.409ZM316.286,595.592c7.7,8.008,20.8,7.751,28.82-.473,8.164-8.375,8.17-22.262.057-30.4-8.007-8.029-20.747-7.7-28.652.835C308.656,574.033,308.533,587.529,316.286,595.592ZM452.054,290.784c-8.467,7.565-8.6,20.189-.407,28.285a22.526,22.526,0,0,0,30.334.779,19.257,19.257,0,0,0,.5-28.349C474.291,283.631,460.427,283.3,452.054,290.784Zm257.877,228.2a19.066,19.066,0,0,0-28.274-.671,22.286,22.286,0,0,0-.466,30.248c7.724,8.492,20.529,8.948,28.379.913C717.283,541.58,717.438,527.547,709.931,518.984Zm-133.5-228.209c-8.144-7.616-21.945-7.429-30.383.381a19.106,19.106,0,0,0-.49,27.969c8.041,7.895,21.772,7.95,30.259.084C584.241,311.4,584.569,298.381,576.434,290.775Zm46.309,394.006c7.739-7.643,7.446-20.455-.566-28.5-8.157-8.192-21.639-8.423-29.793-.563a19.73,19.73,0,0,0,.392,28.745C601.176,692.338,614.917,692.512,622.743,684.781ZM710.18,424.515c-7.543-8.23-20.4-7.988-28.392.43-7.976,8.407-8.039,22.067-.176,30.215a19.222,19.222,0,0,0,28.014-.216C717.442,446.687,717.708,432.727,710.18,424.515ZM316.257,407.934a19.863,19.863,0,0,0,28.791.679c7.873-8.019,7.724-21.605-.379-29.835-8.135-8.257-21.167-8.47-28.826-.38C308.35,386.311,308.559,399.584,316.257,407.934Zm322.256-74.077c-8.314,8.08-8.582,21.271-.672,29.163s21.12,7.6,29.16-.73c7.921-8.205,8.309-21.133.794-28.906C660.217,325.546,646.806,325.8,638.513,333.857ZM681.52,565.729c-7.484,8.113-7.263,21.425.525,29.6,7.933,8.324,20.833,8.588,28.348.476,7.534-8.13,7.252-21.879-.586-30.149A19.158,19.158,0,0,0,681.52,565.729Zm-276.558-275.2c-7.914,7.412-7.716,20.026.34,28,8.166,8.083,21.762,8.273,29.972.459a19.016,19.016,0,0,0-.135-27.9C426.916,283.263,413.019,282.988,404.962,290.534Zm-60.94,350.079c8.079-8.173,8.334-21.134.64-29.088-7.627-7.875-20.522-7.763-28.425.338-8.045,8.249-8.392,21.974-.683,29.7C323.225,649.247,335.942,648.787,344.022,640.613ZM682.879,378.375c-8.146,8.152-8.444,21.851-.7,29.878,7.682,7.954,20.153,7.741,27.951-.582s8.207-21.542.843-29.568C703.71,370.183,690.9,370.355,682.879,378.375ZM388.545,684.82c8.387-7.874,8.815-20.366,1.059-28.351-7.738-7.959-21.347-7.845-29.54.315-8.033,8-8.411,20.98-.742,28.543S380.206,692.645,388.545,684.82ZM593.058,290.645a19.265,19.265,0,0,0-.474,28.021c7.941,7.647,21.115,7.482,29.41-.425,8.328-7.943,8.854-20.374,1.09-28.033S601.43,282.788,593.058,290.645Zm-319.3,210.776c7.34,8.386,19.665,8.419,27.4.187a22.231,22.231,0,0,0,.284-29.919c-7.516-8.307-20.056-8.577-27.5-.482C266.511,479.273,266.433,493.053,273.753,501.421ZM499.135,726.837c8.195,7.514,21.786,7.6,30.108.182,8.383-7.467,8.4-19.585.143-27.4a22.606,22.606,0,0,0-30.03-.293A18.446,18.446,0,0,0,499.135,726.837ZM301.113,548.487c7.753-8.384,7.8-21.7.122-29.878a18.409,18.409,0,0,0-27.5.241c-7.395,8.313-7.438,22.139-.073,30.173C281.141,557.176,293.34,556.888,301.113,548.487Zm180.7,178.547c8.48-7.545,8.627-19.646.45-27.4-8.047-7.627-21.66-7.669-29.985-.065-8.292,7.58-8.581,20.105-.527,27.547S473.392,734.522,481.809,727.034ZM273.837,454.152c7.655,8.4,19.746,8.351,27.4,0a21.871,21.871,0,0,0-.649-29.752c-7.781-8.008-19.963-8.2-27.171-.317C266.094,432.089,266.3,445.877,273.837,454.152ZM576.422,727.466c8.3-7.435,8.164-19.519-.2-27.42-8.247-7.786-21.794-7.948-29.877-.384a18.366,18.366,0,0,0,.138,27.15C554.7,734.524,568.2,734.827,576.422,727.466ZM315.031,332.732c-7.507,7.553-7.078,20.721.87,28.9,8.059,8.282,20.462,8.442,28.239.453,7.736-7.952,7.311-20.588-1.032-28.638C335.018,325.642,322.429,325.286,315.031,332.732Zm352.96,352.936c7.727-7.647,7.25-20.2-.994-28.35-7.992-7.9-20.613-8.194-28.371-.739-7.837,7.54-7.611,20.413.586,28.351C647.513,692.967,660.255,693.326,667.991,685.668ZM434.072,727.7c8.722-7.584,9.132-19.553,1.05-27.33-8.033-7.726-21.3-7.739-29.619.023-8.128,7.583-8.5,19.82-.73,27.146C412.654,734.967,425.659,735.013,434.072,727.7ZM359.149,289.407c-7.892,7.153-7.57,19.96.605,28,8.132,7.993,20.686,8.372,28.617.922,8.154-7.665,8.042-19.866-.361-27.814C379.845,282.8,367.012,282.279,359.149,289.407ZM710.624,642.331c7.809-7.715,7.812-20.524.083-29.1-7.7-8.548-20.151-9.068-27.916-1.262-7.538,7.584-7.454,20.513.252,28.7C690.865,648.98,703.112,649.754,710.624,642.331ZM273.056,595.795c7.306,8,19.222,7.823,27.038-.294a21.481,21.481,0,0,0,.624-29.528,18.191,18.191,0,0,0-27.057.015C266,574.107,265.7,587.741,273.056,595.795Zm479.223-123.6c-7.25-8.557-19.3-8.671-26.921-.383a22.442,22.442,0,0,0-.131,29.595c7.468,8.349,19.15,8.621,26.5.493A23.019,23.019,0,0,0,752.279,472.19ZM273.263,406.577c7.607,8.44,19.5,8.79,27.024.905,7.544-7.909,7.408-20.679-.363-28.973s-19.794-8.836-27.131-1.092C265.5,385.117,265.732,398.219,273.263,406.577Zm349.985,321.6c7.871-7.244,7.5-19.229-.739-27.1-8.206-7.838-21.053-8.128-29.008-.7-7.939,7.419-7.72,19.46.6,27.052C602.476,735.069,615.382,735.419,623.248,728.18ZM451.77,248.521c-8.209,7.031-8.111,18.944.093,26.55,8.305,7.692,21.246,7.948,29.5.591,8.276-7.384,8.384-19.115.12-26.519C473.186,241.713,460.04,241.436,451.77,248.521ZM725.384,519.229c-7.438,8.1-7.356,21.219.2,29.521,7.606,8.356,19.321,8.643,26.542.528s7.133-21.281-.2-29.68C744.623,511.225,732.835,511.117,725.384,519.229ZM668.271,288.985c-7.68-7.317-20.533-6.823-28.6,1.029-8.11,7.894-8.2,20.049-.3,27.592,7.883,7.526,20.4,7.147,28.418-.935C675.77,308.617,676.032,296.376,668.271,288.985Zm43.543,43.534c-7.36-7.7-19.691-7.385-27.719.607-8.008,7.975-8.316,20.628-.766,28.435,7.609,7.864,19.739,7.7,27.577-.471S719.186,340.232,711.814,332.519ZM499.184,248.93c-8.218,7.242-8.09,19.064.166,26.539a22.156,22.156,0,0,0,29.545-.021c8.252-7.53,8.331-19.242.051-26.527A23.1,23.1,0,0,0,499.184,248.93ZM314.692,686.392c7.546,7.43,20.074,6.94,28.082-1.015s8.135-20.273.407-27.937c-7.7-7.628-20.04-7.261-27.915.917C307.377,666.551,307.084,678.9,314.692,686.392ZM752.659,424.635c-7.127-8.24-18.757-8.2-26.49-.029s-8.023,21.119-.694,29.315c7.383,8.253,19.062,8.423,26.478.259S759.7,432.778,752.659,424.635ZM546.873,248.8c-8.312,7.4-8.305,19.047-.108,26.45a22,22,0,0,0,29.352-.356c8.2-7.583,8.372-19.366.268-26.529S555.176,241.405,546.873,248.8ZM358.618,728.671c7.731,7.272,20.788,6.928,28.945-.7s8.19-19.752.184-27.11c-7.842-7.2-20.264-6.763-28.308,1.057C351.412,709.728,351,721.51,358.618,728.671Zm75.288-479.843c-8.341-7.56-21.335-7.9-29.359-.741-7.891,7.043-7.671,18.564.379,26.154,8.22,7.749,21.272,8.088,29.271.8C442.023,267.9,441.945,256.116,433.906,248.828ZM272.028,642.066c7.211,7.783,19.487,7.385,27.207-.774s7.782-21,.2-28.779c-7.416-7.6-19.134-7.163-26.662,1.095C265.272,621.837,264.918,634.39,272.028,642.066Zm480.824-45.637c7.055-7.885,6.685-21.179-.788-29.465-7.346-8.139-18.832-8.191-26.116-.239s-7.18,20.564.283,28.767C733.84,603.849,745.79,604.321,752.852,596.429ZM313.941,288.574c-7.354,7.234-6.934,19.33.854,27.25,7.72,7.847,20.139,8.339,27.685,1.169,7.608-7.237,7.267-19.925-.839-27.626C333.608,281.733,321.289,281.345,313.941,288.574ZM712.384,687.048c7.086-7.163,6.651-19.869-.873-27.83-7.626-8.065-19.678-8.523-27.145-1.123-7.545,7.484-7.473,19.6.25,27.539C692.455,693.69,705.138,694.373,712.384,687.048ZM623.547,247.564c-7.654-7.028-20.526-6.818-28.781.416-8.348,7.317-8.812,18.832-1.167,26.146,7.767,7.425,20.952,7.358,29.1-.207C630.667,266.525,631.1,254.5,623.547,247.564Zm129.737,129.72c-7.017-7.638-18.665-7.142-26.244,1.006s-7.824,20.749-.639,28.6a17.589,17.589,0,0,0,26.611-.705C760.1,397.891,760.246,384.862,753.284,377.284Zm-520.827,123.8c6.942,7.987,18.7,7.857,25.686-.16,7.03-8.079,6.894-21.327-.3-29.3-7.267-8.048-18.668-8.071-25.6.079C225.35,479.813,225.443,493.015,232.457,501.083ZM529.235,768.7c8.01-6.719,7.95-18.483,0-25.691a22.412,22.412,0,0,0-29.2-.223c-8.173,7.19-8.359,18.578-.292,25.591C507.738,775.329,521.165,775.472,529.235,768.7Zm140.028-39.429c7.283-7.043,6.687-19.308-1.212-26.914-7.982-7.682-20.42-7.895-28.018-.551-7.569,7.321-7.189,19.223.954,26.692C649.043,735.888,662.026,736.273,669.263,729.273ZM271.412,331.959c-6.975,7.523-6.41,20.2,1.2,28.186,7.529,7.907,19.788,8.085,26.779.5,7.068-7.681,6.558-20.37-1.192-28.133C290.375,324.675,278.437,324.381,271.412,331.959Zm-39.35,216.9c6.831,7.916,18.655,7.649,25.732-.456,7-8.028,7.11-20.946.256-28.875-7-8.1-18.595-8.179-25.637-.055C225.356,527.61,225.189,540.9,232.062,548.855ZM451.99,768.793c7.921,6.819,21.479,6.672,29.467-.3a16.7,16.7,0,0,0,.233-25.357c-7.85-7.213-21.026-7.226-29.192,0C444.3,750.386,444.01,761.923,451.99,768.793ZM358.02,246.952c-7.552,6.856-7.1,18.791.881,26.269,8,7.491,20.88,7.71,28.383.544,7.395-7.07,7.123-18.617-.721-25.856C378.606,240.568,365.553,240.108,358.02,246.952ZM232.4,453.225a16.606,16.606,0,0,0,25.258.183c7.076-7.826,6.959-21.01-.283-29.057s-18.849-8.266-25.612-.347C225.017,431.9,225.315,445.277,232.4,453.225ZM576.814,769.139c7.922-6.661,7.732-18.352-.293-25.638-8.01-7.266-21.127-7.4-29.027-.326-7.736,6.935-7.762,18.215.064,25.228C555.473,775.5,568.848,775.837,576.814,769.139ZM753.948,642.812c6.682-7.416,6.355-20.081-.672-28.177-7.112-8.194-19.039-8.617-26.189-1.04-7.172,7.608-6.946,20.378.559,28.351S747.157,650.353,753.948,642.812Zm-68.22-353.864c-7.667,7.578-8.053,19.7-.945,26.936,7.254,7.378,19.626,6.971,27.291-.991,7.535-7.827,8.074-19.963,1.112-27.063C706.159,280.658,693.559,281.213,685.728,288.948Zm-388.517,397.6c7.731-7.732,8.249-19.821,1.245-27.331-6.875-7.361-18.946-7.2-26.45.47-7.655,7.822-8.3,20.7-1.326,27.937C277.584,694.789,289.494,694.26,297.211,686.545ZM341.1,728.734c7.766-7.6,7.937-19.469.486-26.383-7.474-6.929-19.782-6.409-27.388,1.229s-8.084,19.765-.966,26.592C320.55,737.2,333.149,736.513,341.1,728.734Zm-84.589-133c7.49-8.1,7.765-21.131.645-28.889-6.98-7.6-18.4-7.372-25.316.629s-7.214,21.107-.645,28.762C237.8,603.939,249.176,603.656,256.507,595.734ZM433.179,769.022c8.164-6.98,8.5-18.14.889-25.262-7.6-7.1-20.929-6.928-28.953.415-7.865,7.2-8.2,18.749-.625,25.385C412.116,776.237,425.04,775.978,433.179,769.022ZM728.768,332.134c-7.508,7.676-8,20.287-1.15,27.826,6.882,7.566,18.493,7.332,25.89-.638,7.435-8.008,8.056-20.4,1.337-27.9C748.26,324.06,736.3,324.44,728.768,332.134Zm-87.024-85.186c-8,7.117-8.482,18.885-1.183,25.987s19.751,6.852,27.717-.638c8.021-7.543,8.706-19.036,1.442-26.009C662.624,239.476,649.76,239.813,641.744,246.948ZM792.675,472.1c-6.572-7.735-17.508-7.675-24.416,0-7,7.786-7.138,20.937-.309,28.945,6.883,8.068,17.885,8.158,24.662.069S799.427,480.045,792.675,472.1ZM231.387,404.878c6.861,8.271,18.205,8.682,25.225,1.033,7.082-7.723,6.942-20.116-.37-28.226-7.21-7.99-18.8-8.483-25.387-.961C224.4,384.09,224.659,396.767,231.387,404.878ZM624.033,769.82c7.641-6.748,7.162-18.035-.953-25.287-7.906-7.063-20.371-7.366-27.959-.722-7.69,6.74-7.532,18.282.472,25.327C603.661,776.241,616.4,776.565,624.033,769.82ZM499.622,208.112c-7.955,6.608-7.842,17.914.116,24.752a22.346,22.346,0,0,0,28.825-.345c8-7.081,7.971-18.123-.208-24.64C520.362,201.507,507.441,201.614,499.622,208.112ZM792.7,520.6c-6.671-8.117-17.836-8.249-24.643-.426-6.657,7.658-6.643,20.347.051,28.377,6.88,8.247,17.866,8.7,24.577.876C799.461,541.525,799.459,528.82,792.7,520.6ZM480.484,208.373c-7.948-6.793-21.126-7.038-28.967-.534-7.651,6.346-7.553,17.288.087,24.323,7.846,7.22,20.621,7.551,28.652.741C488.39,226,488.551,215.27,480.484,208.373Zm67.553-.626c-8.132,6.592-8.227,17.817-.34,24.649,7.824,6.769,20.166,6.683,28.168-.228,8.226-7.11,8.57-17.943.639-24.6C568.808,201.107,556.11,201.2,548.037,207.747ZM793.366,424.414c-6.544-7.906-17.76-7.685-24.7.349-6.837,7.924-6.951,20.51-.283,28.28,6.886,8.018,17.7,7.96,24.562-.269C799.644,444.745,799.841,432.232,793.366,424.414Zm-80.8,280.131c-7.544-7.59-19.278-8.134-26.493-1.311-7.272,6.885-6.854,18.864,1.02,26.367,7.8,7.435,19.533,8.054,26.549,1.324C720.852,724.006,720.334,712.365,712.561,704.545Zm-441.4-390.88c7.418,7.832,18.808,8.419,25.907,1.424,7.325-7.223,7.055-18.934-.707-26.738-7.7-7.735-19.739-8.38-26.494-1.329C263.207,293.965,263.823,305.919,271.156,313.665ZM385.53,769.959c8.07-7.021,8.488-17.918,1.072-24.838-7.583-7.069-20.084-6.871-27.995.511-7.755,7.239-8.163,18.43-.793,25.006C365.238,777.262,377.511,776.935,385.53,769.959Zm-73.056-524.59c-7.085,6.521-6.572,18.04,1.033,25.589,7.833,7.776,19.821,8.25,27.207,1.152,7.216-6.941,6.751-18.1-1.165-25.41C331.671,239.428,319.6,238.8,312.474,245.369ZM754.039,661.158c-7.3-7.815-18.661-8.219-25.487-1.013s-6.374,19.183,1.076,26.91c7.655,7.936,19.127,8.476,25.88,1.105C762.08,680.987,761.4,669.038,754.039,661.158Zm39.139-92.3c-6.741-8.143-17.41-8.568-24.3-1.1-6.787,7.367-6.754,19.99.115,28.079,7.09,8.345,18.027,8.947,24.635,1.225C800.124,589.477,799.908,576.99,793.178,568.858ZM230.137,642.941c6.588,7.459,17.6,7.093,24.923-.705,7.354-7.836,7.806-19.907,1.082-27.541-6.869-7.794-18.185-7.653-25.247.442C223.956,623.09,223.591,635.531,230.137,642.941Zm173.73-435.812c-7.611,6.388-7.216,17.248.753,24.324,8,7.1,20.336,7.393,28.035.7s7.541-17.415-.512-24.24S411.5,200.72,403.867,207.129Zm192.151,0.081c-7.914,6.751-8.229,17.306-.841,23.964,7.605,6.851,19.908,6.784,27.906-.207,8.023-7.016,8.542-17.931,1.033-24.415C616.543,200.013,604.09,200.328,596.018,207.21ZM793.979,376.338c-6.443-7.168-17.18-6.454-24.07,1.479-7.055,8.128-7.112,20.255-.194,27.878,6.8,7.481,17.654,6.972,24.332-1.267C800.67,396.253,800.672,383.78,793.979,376.338ZM230.365,357.431c7.015,8.114,18.032,8.75,24.841,1.55,6.817-7.216,6.516-19.385-.742-27.219-7.211-7.783-17.925-8.534-24.537-1.616C223.152,337.236,223.379,349.353,230.365,357.431Zm439.9,414.036c7.275-6.395,6.771-17.6-1-24.925-7.713-7.261-19.34-7.808-26.78-1.314-7.628,6.663-7.523,17.566.363,24.746C650.748,777.168,663,777.856,670.264,771.467Zm44.412-526.776c-6.983-6.8-18.776-6.23-26.631,1.194-7.692,7.275-8.147,18.269-1.146,25.1,7.132,6.947,19.013,6.558,26.547-.956C720.834,262.655,721.432,251.267,714.676,244.691Zm41.692,41.694c-6.558-6.939-17.687-6.483-25.218.926-7.764,7.639-8.361,19.238-1.447,26.46,6.878,7.179,18.344,6.761,25.546-1.038C762.316,305.076,762.857,293.249,756.368,286.385ZM268.79,731.272c6.668,7.046,18.475,6.712,26.2-.634,7.534-7.167,8.135-18.79,1.422-25.736-6.823-7.051-18.122-6.844-25.6.574C263.228,713.006,262.3,724.414,268.79,731.272ZM192.5,499.96c6.4,8.039,17.135,8.034,23.66.13,6.419-7.781,6.285-20.311-.3-28.076-6.625-7.811-16.9-7.963-23.241-.206C186.262,479.585,186.211,492.056,192.5,499.96ZM500.662,808.178c7.788,6.329,20.491,6.478,28.276.337,7.9-6.23,7.707-17-.285-23.671a22.24,22.24,0,0,0-27.957.1C492.9,791.571,492.828,801.811,500.662,808.178ZM794.2,616.73c-6.719-8.02-17.29-8.548-23.914-1.316-6.711,7.334-6.648,19.232.21,27.13,7.033,8.1,18.061,8.893,24.449,1.652C801.181,637.126,800.819,624.637,794.2,616.73ZM452.348,808.682c7.669,6.143,20.622,5.972,28.288-.357,7.689-6.345,7.585-16.963-.091-23.384-7.748-6.476-20.129-6.285-27.965.443S444.593,802.472,452.348,808.682Zm-260-259.973c6.229,7.548,16.95,7.244,23.408-.531,6.5-7.839,6.486-20.491-.015-28.083-6.548-7.641-16.883-7.5-23.277.455C186.1,528.467,186.038,541.066,192.349,548.709Zm165.622-318.66c7.74,6.931,20.121,7.282,27.32.824s6.785-17.373-1.054-24.052c-7.9-6.736-20.144-7.11-27.394-.787S350.151,223.044,357.971,230.049ZM192.4,451.552c6.361,7.854,17.07,7.986,23.394.423,6.343-7.594,6.057-20.331-.643-28.014-6.749-7.734-17.19-7.846-23.331-.111C185.859,431.354,186.125,443.814,192.4,451.552ZM549.314,808.48c7.834,6.306,20.736,6.5,28.111.391,7.394-6.118,6.986-16.781-.768-23.361-7.817-6.629-20.206-6.732-27.8-.253S541.416,802.121,549.314,808.48ZM228.59,689.1c6.3,6.7,17.366,6.124,24.488-1.176,7.208-7.39,7.723-19.63,1.2-26.729-6.583-7.151-17.61-6.7-24.641,1.119C222.623,670.116,222.117,682.216,228.59,689.1Zm83.306,83.3c6.944,6.332,19.331,5.728,26.9-1.246,7.452-6.867,7.883-17.839,1.069-24.379-7-6.707-18.963-6.354-26.616.867C305.558,754.9,304.9,766.027,311.9,772.406ZM796.305,330.334c-5.979-7.251-17-6.873-24.1.7-7.145,7.624-7.72,19.72-1.34,26.989,6.348,7.227,17.355,6.911,24.082-.81C801.537,349.651,802.176,337.451,796.305,330.334ZM670.857,204.858c-7.033-6.22-19.385-5.666-27.184,1.157s-8.1,17.668-.819,24.015c7.127,6.2,19.06,5.8,26.663-.973C677.187,222.221,677.859,211.048,670.857,204.858Zm-266.545,604.9c7.392,5.855,19.876,5.518,27.613-.714,7.833-6.307,8.044-17.033.592-23.372-7.493-6.364-19.966-6.051-27.738.731C397.033,793.168,396.76,803.781,404.312,809.758ZM191.292,596.691c5.982,7.268,16.38,6.96,23.072-.556,6.784-7.625,7.118-20.325.759-27.8-6.242-7.332-16.609-7.217-23,.383C185.59,576.5,185.193,589.282,191.292,596.691Zm564.78,110.515c-7.032-7.619-18.511-8.212-25.2-1.4-6.545,6.676-6.129,18.012,1.015,25.32,7.243,7.4,18.93,8.174,25.369,1.58C763.578,726.242,763,714.717,756.072,707.206ZM269.748,268.928c7.384,7.172,18.653,7.515,25.3.865s6.1-17.775-1.313-24.822c-7.545-7.162-19.383-7.69-25.845-1.057C261.59,250.379,262.479,261.866,269.748,268.928ZM191.71,403.372c6.452,7.677,16.739,7.868,22.986.555s5.99-19.434-.609-27.152c-6.536-7.636-17.074-8.231-23.085-1.18C184.851,382.806,185.194,395.615,191.71,403.372ZM597.838,809.439c7.964,6.254,20.217,6.439,27.332.366s6.561-16.473-1.117-23.056c-7.83-6.712-20.337-6.838-27.563-.327C589.448,792.774,590.008,803.294,597.838,809.439ZM229.1,311.38c7.036,7.474,17.8,7.8,24.22.837,6.4-6.942,5.8-18.539-1.4-25.789s-18.315-7.794-24.4-1.093S222.188,304.036,229.1,311.38ZM714.075,748.592c-7.477-7.011-19.139-7.377-25.841-.892s-6.039,17.607,1.528,24.315c7.7,6.831,19.3,7.29,25.935.945C722.311,766.642,721.531,755.587,714.075,748.592ZM831.5,472.574c-5.971-7.339-15.882-7.186-22.09.209-6.311,7.523-6.4,20.2-.188,27.778,6.271,7.655,16.254,7.666,22.326-.115S837.591,480.063,831.5,472.574ZM528.115,169.258c-7.52-5.976-20.4-5.941-27.985.065-7.419,5.874-7.431,15.786-.158,22.077,7.383,6.383,19.9,6.475,27.669.186C535.476,185.238,535.75,175.324,528.115,169.258Zm-49.14-.153c-7.744-5.828-20.145-5.91-27.516-.171-7.5,5.839-7.251,16.115.416,22.418,7.749,6.362,20.026,6.379,27.613.053C487.056,185.091,486.888,175.06,478.975,169.105ZM831.6,521.635c-6.03-7.736-16.254-7.778-22.4-.232-6.009,7.39-5.959,19.6.123,27.312,6.2,7.844,16.32,8.238,22.343.731C837.729,541.892,837.691,529.452,831.6,521.635ZM772.885,688.473c6.9,7.681,17.585,8.411,23.742,1.51,6.056-6.787,5.576-18.175-1.026-25.932-6.624-7.786-17.422-8.405-23.724-1.474C765.729,669.348,766.151,680.975,772.885,688.473ZM336.818,205.292c-7.612-6.549-19.372-7.136-26.061-1.24-6.8,5.986-6.048,16.982,1.513,23.843,7.54,6.835,18.854,7.245,25.782,1C345.153,222.494,344.659,212.043,336.818,205.292ZM832.454,424.32c-5.806-7.581-16.069-7.359-22.441.348-6.235,7.549-6.44,19.769-.483,27.227,6.135,7.673,16.084,7.617,22.318-.268C837.958,443.9,838.234,431.865,832.454,424.32ZM189.533,643.68c5.628,7.267,15.892,7.149,22.684-.124,7.131-7.644,7.888-19.267,1.783-26.876-5.992-7.459-16.468-7.441-23.05.178C184.558,624.254,183.9,636.41,189.533,643.68ZM576.821,168.667c-7.352-5.982-20.116-5.827-27.826.306-7.535,5.995-7.656,15.938-.4,22.081,7.452,6.307,19.705,6.157,27.515-.368C583.775,184.278,584.148,174.628,576.821,168.667ZM356.868,811.088c7.144,5.835,18.985,5.345,26.692-1.057,7.92-6.58,8.24-16.74.854-22.979-7.165-6.049-19.047-5.689-26.587.856C350.187,794.547,349.688,805.225,356.868,811.088Zm73.361-642.24c-7.727-6.1-19.891-6.462-27.12-.777-7.351,5.78-6.762,15.9,1.165,22.332,7.814,6.333,19.492,6.454,26.8.312C438.353,184.6,438.041,175.019,430.229,168.848ZM832.067,570.654c-6.1-7.782-15.807-8.2-21.962-1.068-6.2,7.19-5.925,19.573.642,27.323,6.481,7.647,16.113,8.04,21.921.759S838.2,578.483,832.067,570.654ZM758.189,242.517c-6.32-6.251-17.389-5.618-24.659,1.313-7.375,7.032-7.893,18.326-1.239,24.878,6.74,6.63,17.586,5.945,24.794-1.663C764.061,259.68,764.594,248.845,758.189,242.517Zm-112.7,567.75c7.687,6.574,19.326,7.236,26.281,1.451,6.989-5.814,6.473-15.813-1.042-22.621s-19.032-7.412-26.145-1.425C637.536,793.611,637.887,803.765,645.49,810.267ZM267.331,774.355c6.552,6.2,17.643,5.538,25.07-1.417s7.895-17.412,1.18-23.844c-6.665-6.377-17.775-5.872-24.953,1.224S260.82,768.192,267.331,774.355Zm-40.973-40.987c6.152,6.629,16.755,6.119,23.959-1.04,7.25-7.206,7.9-18.138,1.582-24.914s-16.843-6.462-23.874.815C221.068,715.433,220.279,726.82,226.358,733.368ZM716.32,202.958c-6.641-6.048-18.1-5.472-25.625,1.211-7.5,6.662-7.979,17.084-1.188,23.339,6.852,6.3,17.982,5.843,25.391-1.133S722.993,209.034,716.32,202.958Zm81.786,81.793c-5.957-6.771-16.353-6.3-23.437.928-7.016,7.166-7.659,18.588-1.5,25.455,6.231,6.945,16.458,6.65,23.275-.791C803.3,302.857,804.064,291.52,798.106,284.751ZM190.285,355c6.469,7.822,16.388,8.432,22.56,1.512,6.208-6.965,5.886-18.4-.8-26.059s-16.749-8.483-22.707-1.754C183.443,335.361,183.9,347.276,190.285,355Zm643.248,21.144c-5.78-7.242-15.62-6.755-22.036.955-6.3,7.573-6.608,19.1-.747,26.312,6.042,7.432,15.7,7.34,21.952-.348S839.34,383.421,833.533,376.147ZM624.683,167.333c-7.1-5.678-18.727-5.419-26.5.543-7.895,6.05-8.329,15.863-1.108,21.954,7.309,6.159,19.018,5.975,26.7-.468S631.937,173.138,624.683,167.333Zm208.3,451.512c-6.188-7.521-15.657-7.765-21.535-.688s-5.47,18.416.959,25.941c6.513,7.617,16.544,8.148,22.01,1.029C839.805,638.118,839.151,626.338,832.986,618.845ZM356.518,188.273c7.418,6.458,18.932,7.072,26.069,1.425,7.218-5.72,6.927-15.723-.772-21.952-7.612-6.161-19.188-6.645-26.154-1.056C348.652,172.313,349.087,181.8,356.518,188.273ZM154.829,499.16c5.624,7.406,15.172,7.376,20.95.071s5.695-19.5-.183-26.886c-5.947-7.469-15.2-7.592-20.852-.136S149.135,491.664,154.829,499.16ZM501.68,846.03c7.417,5.616,19.78,5.7,27.087.194,7.287-5.492,7.1-15.068-.263-20.959-7.47-5.967-19.29-6-26.752-.081S494.179,840.353,501.68,846.03ZM310.537,813.048c6.671,5.575,18.5,4.844,25.7-1.534,7.253-6.428,7.533-16.54.741-22.371-6.866-5.886-18.045-5.23-25.4,1.551C304.284,797.429,303.76,807.387,310.537,813.048ZM188.07,690.61c5.725,6.5,16.07,5.74,22.5-1.545,6.478-7.346,6.844-18.843.885-25.493-6.022-6.712-15.846-6.1-22.286,1.494C182.776,672.612,182.256,684.009,188.07,690.61Zm569.7,61.107c-7.044-7.012-17.642-7.509-24-1.22-6.339,6.275-5.674,16.638,1.6,23.455,7.175,6.718,18.307,7.446,24.271,1.5C765.627,769.481,764.735,758.651,757.769,751.717Zm-530.8-486.145c6.78,7.14,17.453,7.811,23.572,1.575,6.1-6.226,5.456-17.2-1.5-24.14-7.045-7.024-17.564-7.773-23.6-1.588S220.121,258.355,226.973,265.572ZM550.817,846.248c7.466,5.737,19.9,6,26.984.556s6.632-15.1-.873-21.02c-7.6-5.989-19.407-6.023-26.651-.1C543.251,831.432,543.432,840.574,550.817,846.248ZM154.121,547.92c5.355,7.46,14.9,7.522,20.982.277,6-7.152,6.244-19.515.54-26.873-5.773-7.444-15.126-7.487-20.892.043C149.1,528.74,148.821,540.542,154.121,547.92ZM452.81,846.659c7.235,5.277,19.368,5.1,26.671-.381,7.425-5.567,7.426-15.227.135-20.984-7.383-5.825-19.271-5.624-26.755.464C445.406,831.825,445.32,841.2,452.81,846.659ZM776.176,733.486c6.758,6.812,17.114,7.548,22.8,1.526,5.784-6.124,5.034-17.594-1.548-24.821-6.666-7.314-16.866-7.824-22.925-1.255C768.467,715.483,769.182,726.436,776.176,733.486ZM267.832,225.143c7.042,6.54,18,7.068,24.263,1.247,6.388-5.951,5.727-16.495-1.55-23.04-7.362-6.625-18.412-7.235-24.692-1.283C259.616,207.974,260.551,218.379,267.832,225.143ZM154.678,450.058c5.657,7.259,15.037,7.375,20.669.388,5.737-7.127,5.5-19.453-.535-26.793-6.112-7.431-15.487-7.538-20.926-.094C148.632,430.749,148.992,442.764,154.678,450.058ZM672.229,165.505c-6.661-5.615-18.531-5.044-26.065,1.2-7.37,6.107-7.835,15.633-1.168,21.393,6.748,5.824,18.649,5.38,25.942-1.026C678.086,180.789,678.727,170.98,672.229,165.505Zm163.3,163.308c-5.374-6.671-15.071-6.184-21.472.955-6.6,7.364-7.231,18.931-1.458,25.87,5.606,6.731,15.248,6.487,21.444-.67C840.284,347.758,841,335.6,835.529,328.813ZM403.735,847.577c6.936,5.326,18.96,5.036,26.438-.6,7.614-5.738,7.791-15.4.521-21-7.161-5.508-18.9-5.12-26.213.892S396.778,842.238,403.735,847.577Zm312.571-55.9c-6.982-6.556-18.183-7.249-24.725-1.587-6.585,5.706-6.275,15.506.814,21.991,7.146,6.533,18.9,7.368,25.321,1.745C724.013,808.317,723.323,798.264,716.306,791.674ZM188.3,307.914c6.295,7.479,16.577,8.093,22.381,1.449,5.695-6.529,5.074-17.676-1.441-24.742s-16.568-7.83-22.131-1.572C181.528,289.322,182.1,300.549,188.3,307.914ZM153.078,596.832c5.29,7.247,15.009,6.9,21.045-.622,5.926-7.387,6.194-19.206.627-26.237s-14.913-6.893-20.659.435C148.327,577.757,147.861,589.689,153.078,596.832ZM599.872,847.125c7.414,5.794,19.255,6.162,26.162.783s6.344-14.718-1.13-20.669c-7.295-5.807-18.784-6.146-25.637-.791C592.291,831.908,592.506,841.372,599.872,847.125ZM153.711,400.947c5.818,7.44,15.02,7.605,20.6.5s5.1-18.792-1.064-25.957c-6.054-7.037-15.217-7.452-20.4-.8C147.565,381.479,147.976,393.612,153.711,400.947ZM333.947,166.01c-7.292-6.082-18.9-6.732-25.238-1.359-6.2,5.255-5.541,14.777,1.358,21.1,7.082,6.486,18.257,7.131,24.962,1.487C341.778,181.554,341.356,172.191,333.947,166.01Zm500.9,500.856c-6.087-7.313-15.815-7.812-21.336-1.211-5.4,6.464-4.872,17.53,1.226,24.676,6.272,7.35,15.885,8.145,21.359,1.654C841.6,685.463,841.014,674.275,834.845,666.866ZM760.5,200.358c-5.952-5.506-16.626-4.786-23.618,1.512-7.109,6.4-7.867,16.782-1.756,22.735,6.172,6.006,16.746,5.379,23.74-1.5S766.654,206.046,760.5,200.358Zm39.868,39.853c-5.723-5.978-16.226-5.1-22.87,1.825-6.509,6.784-7.127,17.327-1.455,23.466,5.849,6.327,15.95,5.748,22.626-1.4C805.37,256.928,806.168,246.259,800.372,240.211ZM224.118,776.8c5.879,5.8,15.987,5.052,22.926-1.6,7.16-6.869,7.827-16.957,1.625-23.121-5.962-5.919-16.2-5.378-22.863,1.3C219.063,760.144,218.239,771.006,224.118,776.8ZM527.272,132.479c-7.281-5.316-19.557-5.239-26.656.164-6.984,5.313-6.772,14.157.336,19.6,7.4,5.665,18.934,5.545,26.329-.278C534.469,146.3,534.527,137.777,527.272,132.479ZM868.5,473.689c-5.242-7.376-14.356-7.323-19.908-.025-5.437,7.156-5.469,18.874-.078,26.057,5.605,7.459,14.358,7.557,19.81.074C873.644,492.491,873.722,481.039,868.5,473.689Zm-0.247,49.5c-5.329-7.3-14.106-7.469-19.562-.514-5.548,7.076-5.334,19.071.472,26.375,5.753,7.239,14.259,7.377,19.478.174C873.833,542.058,873.661,530.6,868.251,523.192ZM151.77,645.128c5.312,6.688,14.21,6.1,20.287-1.224s6.483-18.269.993-25.17c-5.422-6.813-14.465-6.649-20.276.494C146.9,626.455,146.415,638.386,151.77,645.128ZM355.836,849.185c6.778,5.252,17.966,4.8,25.374-.984,7.446-5.813,7.886-14.613,1.135-20.2-6.835-5.655-18.464-5.309-25.681.817C349.587,834.827,349.155,844.013,355.836,849.185ZM477.782,132.733c-7.232-5.4-18.926-5.7-26.166-.7-7.125,4.923-7.062,13.83,0,19.556,7.343,5.946,18.909,6.216,26.249.608C485.07,146.692,485.094,138.188,477.782,132.733ZM185.514,735.585c5.516,6.243,15.09,5.576,21.7-1.4,6.625-6.993,7.265-17.383,1.539-23.768-5.691-6.342-15.32-5.888-21.643,1.13C180.825,718.526,180.068,729.426,185.514,735.585ZM265.18,815.27c6.2,5.546,16.769,4.841,23.937-1.522s7.73-15.81,1.379-21.581c-6.3-5.719-16.929-5.167-23.841,1.312C259.762,799.941,259.049,809.788,265.18,815.27Zm604.082-390.8c-5.11-7.162-13.82-7.074-19.584.059-5.705,7.063-5.981,18.708-.628,25.861,5.429,7.251,13.993,7.339,19.493.06C874.066,443.141,874.39,431.658,869.262,424.47ZM576.642,131.822c-7.03-5.207-18.67-5.088-26.062.235-7.317,5.267-7.446,14.107-.419,19.556,7.131,5.523,18.4,5.424,25.769-.256C583.326,145.651,583.7,137.049,576.642,131.822ZM718.461,163.39c-6.248-5.522-17.032-5.048-24.43,1-7.154,5.844-7.962,15.128-1.906,20.709,6.354,5.848,16.96,5.642,24.208-.56C723.65,178.271,724.646,168.852,718.461,163.39Zm119.288,119.3c-5.231-6.233-14.326-5.714-20.767,1.064-6.5,6.837-7.274,17.768-1.781,24.3,5.571,6.621,14.775,6.272,20.975-.921S843.11,289.08,837.749,282.692ZM152.186,352.057c5.861,7.468,14.837,7.975,20.219,1.266,5.248-6.548,4.732-17.378-1.212-24.534-6.149-7.4-15.1-8.081-20.266-1.416C145.871,333.891,146.442,344.736,152.186,352.057ZM648.631,848.544c7.414,5.894,18.652,6.465,25.111,1.229,6.3-5.105,5.57-13.987-1.528-19.983-7.34-6.2-18.249-6.666-24.887-1.118C640.836,834.1,641.35,842.753,648.631,848.544ZM427.9,131.935c-7.367-5.362-18.565-5.653-25.413-.639-7,5.129-6.483,13.734,1.044,19.528,7.271,5.591,18.408,5.857,25.244.625C435.767,146.094,435.439,137.418,427.9,131.935ZM868.94,572.916c-5.521-7.584-14.09-7.875-19.491-.805-5.282,6.921-5.021,17.9.623,25.207,5.768,7.464,14.476,7.991,19.554,1.046C874.582,591.589,874.266,580.232,868.94,572.916ZM245.123,200.805c-6.907-6.432-16.82-7.147-22.5-1.536s-4.8,15.242,1.9,21.972c6.626,6.659,16.6,7.438,22.457,1.834C252.965,217.342,252.176,207.373,245.123,200.805Zm534.49,575.508c6.818,6.766,16.965,7.568,22.372,1.665,5.294-5.776,4.243-15.873-2.291-22.644-6.55-6.787-16.083-7.354-21.817-1.4S772.872,769.62,779.613,776.313ZM599.427,150.464c6.817,5.185,18.129,4.807,25.186-.875s7.436-14.431.7-19.367c-6.812-5-17.975-4.529-25.29,1.023S592.51,145.2,599.427,150.464ZM870.74,375.633c-4.964-6.891-13.451-6.554-19.276.629-5.869,7.242-6.337,18.157-1.1,25.076,5.193,6.861,13.825,6.786,19.3-.3C875.111,393.982,875.616,382.4,870.74,375.633ZM760.127,794.974c-6.822-6.415-16.837-6.943-22.826-1.285-5.949,5.624-5.16,14.933,1.889,21.166,6.921,6.117,17.535,6.866,23.1,1.553C767.907,811.058,766.883,801.329,760.127,794.974ZM186.224,261.92c6.226,6.821,15.888,7.481,21.264,1.554,5.4-5.956,4.59-16.328-1.853-22.992-6.507-6.73-15.928-7.473-21.268-1.571C179.046,244.792,179.9,254.993,186.224,261.92ZM149.329,692.173c4.97,6.271,14.229,5.583,20.122-1.377,5.773-6.824,6.379-17.606,1.4-23.951-5.146-6.543-14.088-6.188-19.929.92C145.044,674.913,144.308,685.846,149.329,692.173ZM334.35,830.3c-6.325-5.335-17.144-4.816-24.215,1.223-7.093,6.059-7.792,15.025-1.442,20.03,6.283,4.957,17.62,4.22,24.52-1.541C340.007,844.339,340.467,835.462,334.35,830.3Zm-69.088-647.56c6.707,6.043,17.034,6.775,23.105,1.7,6.119-5.128,5.55-14.654-1.345-20.68-6.961-6.081-17.578-6.886-23.55-1.72S258.343,176.5,265.262,182.739ZM837.294,714.02c-5.99-7.074-15.2-7.75-20.6-1.624-5.283,6-4.768,16.115,1.243,22.964,6.1,6.95,15.6,8.039,20.841,2.292C843.946,731.987,843.227,721.029,837.294,714.02Zm32.871-92.163c-5.33-7.035-13.823-7.481-18.912-1.114-5.241,6.563-4.875,17.7.853,24.81,5.565,6.9,14.2,7.592,19.043,1.409C876.047,640.718,875.57,629,870.165,621.857ZM355.176,148.687c7,5.713,18.477,6.192,24.915,1.075,6.3-5.016,5.891-13.645-1.027-18.98-7.116-5.49-18.541-5.984-25.026-1.053C347.706,134.542,348.271,143.053,355.176,148.687ZM118.586,547.678c4.669,6.925,12.876,6.81,18.176-.126s5.572-18.108.6-25.107c-4.887-6.871-13.239-6.99-18.2-.128S113.931,540.773,118.586,547.678Zm359.732,315.77c-6.974-4.908-18.311-4.624-25.152.638-6.812,5.244-6.866,13.623.015,18.213,7.015,4.68,18.382,4.371,25.313-.685S485.28,868.353,478.318,863.448Zm49.748,0.065c-6.881-5.092-18.339-5.118-25.184-.061s-6.891,13.37.01,18.194c6.96,4.868,18.432,4.882,25.346.029S535.024,868.666,528.066,863.513Zm-409-365.793c4.75,7.078,12.948,7.181,18.147.359,5.206-6.839,5.329-18,.267-25.132-4.965-6.99-13.338-7.331-18.2-.612S114.313,490.646,119.063,497.72ZM779.6,221.012c5.445,5.64,15.177,5,21.632-1.506s7.477-16.309,2.18-21.819c-5.194-5.408-15.262-4.617-21.814,1.624S774.164,215.375,779.6,221.012ZM647.955,148.324c6.4,5.026,17.208,4.452,24.206-1.329,6.982-5.769,7.531-14.375,1.089-19.017-6.288-4.536-17.16-3.923-24.073,1.316C642.119,134.64,641.615,143.341,647.955,148.324ZM852.365,352.64c4.858,6.546,13.418,6.231,18.953-.825,5.55-7.077,6.228-18.039,1.463-24.391-4.713-6.288-13.485-5.623-19.109,1.328C848.183,335.543,847.617,346.232,852.365,352.64ZM149.765,304.1c5.528,7.117,14.388,7.886,19.6,1.811,5.234-6.11,4.727-16.494-1.207-23.412-5.853-6.82-14.941-7.65-19.751-1.7C143.708,286.614,144.347,297.131,149.765,304.1ZM718.234,832.6c-6.747-5.711-17.1-6.341-23.13-1.461-6.146,4.982-5.62,13.959,1.268,19.65,6.934,5.732,17.606,6.436,23.616,1.5S725.154,838.457,718.234,832.6ZM118.973,448.005c5.051,7.061,13.123,7.061,18.125.137,4.975-6.892,4.65-18.153-.723-24.966-5.276-6.686-13.3-6.94-17.9-.439C113.772,429.37,114.009,441.066,118.973,448.005ZM577.064,864.039c-7.065-4.993-18.053-5.1-24.634-.266-6.717,4.941-6.536,13.309.521,18.2,7.165,4.967,18.451,5.08,25.163.228C584.8,877.373,584.263,869.129,577.064,864.039ZM739,182.347c5.909,5.088,15.687,4.323,22.284-1.809,6.77-6.3,7.6-15.492,1.733-20.471-5.692-4.836-15.893-3.977-22.533,1.831C733.706,167.822,733.072,177.243,739,182.347ZM244.944,795.431c-5.709-5.177-15.49-4.412-21.826,1.784-6.458,6.319-7.275,16.158-1.662,21.181s15.3,4.1,21.916-2.018C250.155,810.108,250.811,800.759,244.944,795.431Zm-39.676-39.693c-5.381-5.71-15.008-4.936-21.046,1.788-5.914,6.587-6.7,16.586-1.653,21.982,5.231,5.59,14.683,4.63,21.113-2.051C209.929,770.964,210.59,761.4,205.268,755.738Zm613.248-493.89c5.182,5.989,14.3,5.326,20.371-1.592,5.931-6.759,6.8-16.673,1.9-22.435-4.919-5.794-14.411-4.98-20.563,1.656C814.227,245.953,813.488,256.028,818.516,261.848ZM136.185,572.02c-4.852-6.622-12.863-6.555-17.871.278-5.088,6.945-5.387,18.561-.615,25.1,4.752,6.513,12.557,6,17.859-1.038C140.845,589.335,141.1,578.742,136.185,572.02ZM429.042,864.846c-6.615-5.076-17.909-4.883-24.872.46-6.8,5.218-7.133,13.346-.617,17.944,6.608,4.665,17.489,4.381,24.558-.616C435.268,877.576,435.612,869.891,429.042,864.846ZM307.85,145.412c6.778,5.939,17.035,6.872,23.373,2.149,6.279-4.683,6.2-12.646-.311-18.148-6.971-5.891-17.639-6.919-24.017-2.292C300.893,131.473,301.377,139.737,307.85,145.412ZM134.969,375.019c-5.3-7.1-13.3-7.786-17.875-1.421-4.461,6.2-4.136,16.963.692,23.988,5.029,7.322,12.841,7.951,17.77,1.558C140.528,392.689,140.287,382.138,134.969,375.019ZM625.843,865.907c-7.044-5.3-17.921-5.6-24.2-.7-6.2,4.842-5.754,12.539,1.128,17.522,7.108,5.147,17.881,5.593,24.341.986S632.962,871.266,625.843,865.907ZM871.8,670.317c-5.387-6.692-13.524-7.169-18.27-1.184-4.865,6.139-4.187,16.557,1.564,23.424,5.772,6.889,13.963,7.516,18.59,1.3C878.269,687.7,877.424,677.3,871.8,670.317ZM286.849,833.559c-5.89-5-15.538-4.418-22.222,1.418s-7.578,14.252-1.936,19.078c5.8,4.958,16.014,4.248,22.809-1.517C292.134,846.907,292.683,838.52,286.849,833.559ZM167.381,714.091c-4.972-5.933-13.2-5.452-18.931,1.222s-6.636,16.586-1.987,22.426c4.783,6.01,13.449,5.346,19.388-1.371C171.654,729.8,172.3,719.966,167.381,714.091Zm635.354,85.155c-6.3-6.254-15.341-6.923-20.715-1.613s-4.509,14.06,2.042,20.156c6.462,6.007,15.881,6.875,20.938,1.846S809.02,805.488,802.735,799.246ZM183.129,216.873c6.081,6.449,15.045,7.3,20.238,2.016s4.4-14.563-1.826-20.818c-6.282-6.308-15.215-7.249-20.286-2.054S177.03,210.4,183.129,216.873ZM886.015,499.081c4.8,6.673,12.36,6.674,16.82-.129,4.472-6.821,4.417-17.773-.14-24.5s-11.927-6.477-16.776.44C881.087,481.788,881.135,492.292,886.015,499.081ZM379.291,866.407c-6.437-4.662-16.715-4.089-23.545,1.342-6.8,5.409-7.167,13.086-.714,17.538,6.343,4.375,17.118,3.766,23.827-1.32C385.59,878.861,385.726,871.07,379.291,866.407ZM134.371,621.429c-4.712-6.419-12.381-6.121-17.5.8s-5.666,17.392-1.185,23.721c4.46,6.305,12.334,5.851,17.623-.889S139.048,627.8,134.371,621.429ZM501.865,114.95c6.781,4.792,17.527,4.813,24.292.037,6.743-4.764,6.867-12.325.146-16.842-6.79-4.566-17.545-4.538-24.4.055C495.031,102.808,495.072,110.149,501.865,114.95Zm-49.79-.3c6.839,4.852,17.783,4.968,24.278.262,6.34-4.6,6.266-12.038-.288-16.563-6.828-4.715-17.658-4.919-24.365-.463C444.941,102.382,445.165,109.748,452.075,114.653ZM886.337,548.9c4.77,6.588,12.178,6.931,16.569.648,4.468-6.391,4.389-17.61-.161-24.48-4.615-6.967-12-7.051-16.765-.325S881.375,542.048,886.337,548.9ZM221.609,178.55c6.374,6.046,16.028,6.8,21.358,1.743,5.211-4.95,4.428-13.595-1.838-19.341-6.525-5.98-16.04-6.932-21.434-2.081C214.272,163.747,215.159,172.431,221.609,178.55ZM855.6,304.75c4.787,5.947,13.109,5.351,18.4-1.429,5.175-6.628,5.9-16.813,1.566-22.58-4.518-6.01-12.67-5.364-18.389,1.337C851.427,288.818,850.761,298.729,855.6,304.75Zm-159.54-159.5c5.946,4.807,16.186,4.209,22.778-1.386,6.42-5.451,7.239-13.684,1.707-18.2-5.774-4.72-15.925-4.125-22.822,1.272C690.762,132.382,690.083,140.41,696.063,145.247ZM822.6,779.531c5.983,6.074,14.749,6.938,19.434,1.823,4.795-5.23,3.844-15.041-2.023-21.535-5.923-6.553-14.5-7.2-19.554-1.567C815.435,763.849,816.347,773.174,822.6,779.531ZM551.782,114.362c6.518,4.654,17.611,4.465,24.262-.436,6.48-4.777,6.752-12.378.475-16.649-6.513-4.436-17.485-4.17-24.341.569C545.486,102.471,545.366,109.778,551.782,114.362ZM886.445,448.938c4.5,6.4,11.985,6.446,16.6-.02,4.679-6.549,4.987-17.948.653-24.472-4.285-6.448-11.652-6.231-16.551.361C882.089,431.622,881.783,442.3,886.445,448.938ZM673.9,868.351c-6.684-5.149-16.9-5.6-22.93-1.054s-5.612,12.237,1.064,17.23c6.6,4.936,17.215,5.633,23.235,1.5C681.352,881.865,680.655,873.56,673.9,868.351Zm-541.315-541.3c-5.073-6.722-12.95-7.614-17.337-1.855-4.446,5.832-4.125,16.088.67,23.054,4.83,7.023,12.991,7.819,17.638,1.831C138.05,344.277,137.625,333.726,132.587,327.047Zm31.586-89.45c-5.741-6.3-14.18-7.172-18.752-1.836s-3.822,15.042,1.626,21.6c5.39,6.485,13.875,7.424,18.753,2.163C170.716,254.21,169.988,243.98,164.173,237.6ZM763.165,836.59c-6.339-5.71-15.932-6.443-21.467-1.706-5.548,4.754-4.947,13.04,1.452,18.625,6.472,5.644,16.842,6.582,22.1,1.942C770.426,850.891,769.428,842.231,763.165,836.59ZM402.679,113.508c6.716,4.758,17.529,4.973,23.681.5,6.18-4.5,5.808-12.1-.931-16.594-6.809-4.54-17.6-4.77-23.816-.487S395.948,108.736,402.679,113.508Zm484.8,484.79c4.828,6.6,12.47,7.024,16.62.812,4.169-6.234,3.819-17.249-.746-23.892-4.607-6.707-12.068-6.9-16.55-.55S882.63,591.662,887.482,598.3Zm0.291-199.283c4.328,6.305,11.9,6.061,16.6-.66s5.149-17.6.948-23.695c-4.121-5.98-11.5-5.56-16.372.814C883.94,382.029,883.418,392.663,887.773,399.015ZM822.861,216.959c4.906,5.021,13.364,4.184,19.083-1.974,5.878-6.334,6.821-15.749,1.994-20.7-4.7-4.825-13.444-3.862-19.266,2.043C818.714,202.37,817.914,211.89,822.861,216.959Zm-38.779-38.783c5.178,4.753,14.146,3.94,20.208-1.9,6.243-6.021,7.226-14.869,2.08-19.531-5-4.529-14.272-3.607-20.416,1.961C779.673,164.394,778.851,173.369,784.082,178.176ZM601.664,112.9c6.18,4.474,16.751,4.048,23.442-.974,6.519-4.894,7-12.156.976-16.306-6.085-4.189-17.1-3.727-23.708.966C595.922,101.164,595.652,108.542,601.664,112.9ZM858.721,738.536c5.5,6.217,13.424,6.972,17.741,1.59,4.333-5.4,3.665-15-1.446-21.612-5.134-6.65-13.46-7.5-18.051-1.932S853.172,732.269,858.721,738.536ZM262.569,142.384c6.394,5.351,15.92,5.988,21.472,1.492,5.713-4.631,5.01-12.732-1.662-17.966-6.492-5.094-16.355-5.873-21.711-1.664C255.187,128.548,256.116,136.98,262.569,142.384Zm68.157,726.873c-5.743-4.384-15.829-3.865-22.3,1.193-6.581,5.148-7.289,13.313-1.4,17.432,5.863,4.108,15.829,3.351,22.416-1.668S336.559,873.713,330.726,869.257ZM131.613,670.125c-4.379-5.762-12.092-5.315-17.027,1.1-5.027,6.541-5.694,17.292-1.372,22.9s11.862,4.769,17.07-1.8S136.048,675.976,131.613,670.125Zm69.37,129.929c-4.909-5.035-13.721-4.4-19.585,1.5-5.822,5.857-6.813,14.924-2.091,19.787,4.788,4.935,13.5,4.113,19.629-1.769C205.128,813.633,205.979,805.179,200.983,800.054ZM889.524,646.778c4.87,6.749,12.066,7.5,16.23,1.576,4.21-5.983,3.831-15.956-.829-22.812-4.583-6.741-11.9-7.393-16.261-1.561C884.343,629.766,884.719,640.117,889.524,646.778Zm-535.65-535.7c6.687,5.008,16.532,5.471,22.631,1.087s5.588-11.4-1.285-16.122c-6.731-4.621-17.245-5.071-22.9-.947C346.724,99.181,347.459,106.273,353.874,111.081ZM240.565,837.532c-5.217-4.559-14.153-3.874-20.224,1.621-6.173,5.59-7.034,13.987-1.8,18.46,5.285,4.518,14.436,3.538,20.721-2.161C245.338,849.94,245.86,842.166,240.565,837.532ZM163.6,760.612c-4.577-5.58-12.608-5.214-18.268.945-5.444,5.923-6.533,15.235-2.346,20.438,4.419,5.493,12.48,4.926,18.319-1.18C167.046,774.81,168.023,766.01,163.6,760.612Zm557.176,111.35c-6.4-5.193-15.732-5.908-21.382-1.675-5.63,4.223-5.109,11.54,1.288,16.539,6.623,5.174,16.388,5.98,21.931,1.771C728.01,884.5,727.152,877.138,720.776,871.962Zm22.229-730.81c5.285,4.634,14.254,4.237,20.6-.994,6.375-5.253,7.606-13.134,2.663-17.534-5.226-4.655-14.49-4.116-21.119,1.146C738.719,128.878,737.807,136.588,743.005,141.152Zm-91.817-30.809c5.847,4.315,15.461,4.009,22.025-.753,6.584-4.779,7.48-11.95,1.9-16.031-5.859-4.287-15.831-3.883-22.6.861C645.928,99.043,645.391,106.06,651.188,110.343ZM890.377,349.421c4.213,5.928,11.2,5.631,15.909-.8s5.388-16.353,1.5-22.252c-4.048-6.141-11.256-5.645-16.262,1C886.642,333.85,886.159,343.483,890.377,349.421ZM128.911,280.1c-5.181-6.4-12.517-7.279-16.642-1.888s-3.461,14.951,1.423,21.511c5.05,6.783,12.5,7.508,16.859,1.749C134.787,295.867,134.085,286.5,128.911,280.1Zm730.519-22.6c4.572,5.564,12.394,4.837,17.676-1.744,5.125-6.383,5.807-15.567,1.478-20.789-4.306-5.2-12.062-4.329-17.477,1.859S854.983,252.08,859.43,257.494ZM477.112,899.878c-6.342-4.337-16.216-4.3-22.777.11-6.592,4.429-6.907,11.03-.6,15.087,6.292,4.047,16.561,4,23.036-.08S483.337,904.14,477.112,899.878Zm-376.02-376c-4.259-6.388-10.843-6.39-15.063.123s-4.364,16.587-.319,22.962c4,6.313,10.76,6.16,15.133-.218S105.317,530.219,101.092,523.879ZM527.37,899.669c-6.487-4.4-16.4-4.454-22.816-.124s-6.447,10.92.066,15.058c6.466,4.109,16.785,4.187,23.072.177S533.778,904.016,527.37,899.669Zm-426.107-426.1c-4.358-6.538-10.94-6.777-15.059-.421s-4.115,16.463.011,22.991c4.1,6.483,10.822,6.575,15.105.325S105.573,480.033,101.263,473.564ZM577.922,900.691c-6.415-4.635-16.329-5.027-22.688-.894-6.448,4.191-6.5,10.746.012,15.036,6.46,4.256,16.849,4.579,22.987.713C584.2,911.792,584,905.089,577.922,900.691ZM100.742,423.753c-4.38-6.787-11.017-7.454-15.083-1.394-4.124,6.146-4.063,16.154.116,22.827,4.15,6.629,10.944,7,15.127.939C104.96,440.24,104.9,430.2,100.742,423.753ZM196.65,157.331c-5.808-5.564-14.21-6.634-18.885-2.346-4.878,4.473-4.073,12.683,1.736,18.574,5.58,5.661,14.008,6.695,18.864,2.373C203.264,171.564,202.508,162.942,196.65,157.331ZM843.612,804.27c-5.533-5.857-13.514-6.728-18.184-2.058-4.846,4.849-4.1,13.186,1.786,19.04,5.632,5.6,13.982,6.688,18.433,2.332C850.173,819.162,849.193,810.183,843.612,804.27Zm-417.18,96.472c-6.075-3.945-15.929-3.559-22.24.887s-6.7,11.08-.76,14.88c5.862,3.75,16.144,3.482,22.51-.565C432.4,911.842,432.577,904.74,426.432,900.742ZM99.791,573.9c-4.155-5.783-10.7-5.3-14.858,1.21-4.109,6.437-4.355,16.53-.512,22.387,3.792,5.788,10.682,5.354,14.967-.836C103.809,590.274,103.981,579.735,99.791,573.9ZM806.178,841.152c-5.9-5.4-14.421-6.078-19.262-1.6-4.823,4.471-3.966,12.289,2.008,17.589,5.9,5.235,14.854,6.245,19.54,2.149C813.251,855.115,812.144,846.619,806.178,841.152ZM159.549,194.59c-5.39-5.8-13.49-6.843-17.737-2.206-4.273,4.662-3.419,13.427,1.825,19.417,5.192,5.93,13.26,6.879,17.681,2.156C165.707,209.261,164.926,200.379,159.549,194.59Zm733.26,500.216c4.759,6.152,12,6.9,15.719,1.52s3.024-15.37-1.493-21.589c-4.558-6.278-11.591-6.8-15.6-1.262S888.03,688.62,892.809,694.806ZM306.148,108.167c6.234,4.7,16.024,5.253,21.4,1.247,5.384-4.023,4.695-11.212-1.6-15.672-6.358-4.5-16.105-5.088-21.486-1.25S299.888,103.445,306.148,108.167ZM282.854,872.956c-5.153-4.191-14.556-3.559-20.7,1.444-6.182,5.036-7.151,12.472-2.061,16.494,5.029,3.977,14.642,3.265,20.907-1.489C287.2,884.7,288.008,877.155,282.854,872.956ZM127.905,717.987c-4.225-5.187-11.574-4.37-16.4,1.915-4.808,6.262-5.534,15.791-1.535,20.849s11.644,4.083,16.541-2C131.459,732.6,132.069,723.11,127.905,717.987Zm499.133,184.07c-6.185-4.227-15.927-4.6-21.674-.844-5.926,3.877-5.727,10.621.549,14.841,6.248,4.2,16.5,4.624,22.267.9S633.376,906.392,627.038,902.057ZM98.785,373.769c-4.2-6.128-10.891-6.864-14.63-1.514-3.866,5.528-3.684,15.629.361,22.209,4,6.5,10.8,7.081,14.847,1.363S103.154,380.14,98.785,373.769Zm119.221-236.12c5.823,5.306,14.853,6.147,19.812,1.9s4.093-12.016-1.993-17.02c-5.937-4.88-14.817-5.791-19.587-1.958C211.321,124.519,212.171,132.332,218.006,137.649ZM863.1,782.7c5.259,5.9,13.1,6.837,17.1,1.956,4.019-4.894,3.012-14.084-2.139-19.974-5.183-5.927-12.869-6.534-16.974-1.437C857.111,768.193,858,776.965,863.1,782.7ZM700.232,107.243c5.414,3.894,14.453,3.21,20.592-1.6,6.159-4.825,6.985-11.589,1.781-15.4-5.219-3.825-15.134-3.051-21.242,1.617C695.406,96.413,694.935,103.43,700.232,107.243ZM893.6,300.544c3.851,5.429,10.645,4.972,15.3-1.132,4.717-6.187,5.61-15.211,2.026-20.757-3.57-5.53-10.9-4.928-15.728,1.186C890.511,285.776,889.8,295.186,893.6,300.544ZM376.4,903.106c-5.592-3.881-15.18-3.561-21.39.75-6.136,4.264-6.761,10.985-1.26,14.644,5.575,3.714,15.119,3.291,21.445-.914C381.6,913.334,382.072,907.044,376.4,903.106ZM97.753,624.43c-3.881-5.6-10.488-5.171-14.555,1.04-4.089,6.242-4.49,16.1-.849,21.586,3.718,5.6,10.094,4.949,14.554-1.369C101.337,639.405,101.691,630.118,97.753,624.43Zm26.954-389.693c-5-6.048-12.208-7.123-16.02-2.306-3.8,4.8-2.887,13.842,1.958,19.909,4.895,6.127,11.8,6.809,15.812,1.655C130.334,249.007,129.6,240.659,124.706,234.737ZM503.125,80.17c6.214,3.924,15.738,3.816,21.839-.247,6.073-4.044,5.943-10.043-.415-13.7-6.07-3.495-15.776-3.421-21.692.164C496.8,70.051,496.974,76.284,503.125,80.17Zm324.584,92.618c4.462,4.682,12.227,4.028,17.774-1.583,5.583-5.648,6.569-13.515,2.178-17.939-4.347-4.382-12.5-3.462-18.016,1.961C824.273,160.512,823.444,168.308,827.709,172.788ZM920.76,497.759c3.839,6.009,9.718,6.243,13.454.426,3.887-6.054,4.068-15.725.418-22-3.635-6.244-9.811-6.364-13.788-.385C916.887,481.758,916.851,491.642,920.76,497.759ZM766.4,876.384c-5.934-5.093-14.759-5.984-19.774-2.037-4.993,3.935-4.15,11.113,1.963,15.927,6.169,4.859,14.878,5.635,19.771,1.71C773.1,888.185,772.2,881.367,766.4,876.384ZM921.181,548.525c3.969,6.074,9.85,6.4,13.445.628,3.706-5.949,3.574-15.629-.292-21.934-3.731-6.082-9.665-6.27-13.479-.537C916.958,532.543,917.1,542.285,921.181,548.525ZM452.521,79.854c6.172,3.9,15.461,4.014,21.351.261,6.058-3.863,5.89-9.882-.5-13.7-6.153-3.672-15.741-3.814-21.587-.318C445.8,69.68,446.176,75.84,452.521,79.854Zm411.7,131.787c4.13,4.722,11.384,3.958,16.371-1.806s5.859-14.109,1.894-18.711c-3.982-4.623-11.273-3.722-16.472,1.954S860.056,206.871,864.225,211.641Zm57.2,235.109c3.733,5.935,9.725,5.943,13.521-.092s4.039-15.678.536-21.577c-3.534-5.952-9.49-5.783-13.539.274S917.676,440.781,921.427,446.75ZM553.922,79.368c5.88,3.785,15.3,3.666,21.4-.289s6.422-10.015.609-13.556c-5.9-3.594-15.363-3.438-21.556.335S548.029,75.57,553.922,79.368Zm235.212,57.208c4.7,4.2,12.866,3.529,18.551-1.586s6.7-12.51,2.169-16.5c-4.6-4.054-12.79-3.273-18.676,1.715S784.428,132.371,789.134,136.576ZM675.586,904.884c-6.212-4.387-15.271-4.809-20.635-1s-4.7,10,1.646,14.21c6.244,4.144,15.558,4.634,20.808,1.063S681.794,909.27,675.586,904.884ZM95.811,325.025c-4.441-6.135-10.734-6.789-14.237-1.379s-2.907,14.581,1.347,20.824c4.206,6.171,10.514,6.674,14.2,1.234S100.241,331.145,95.811,325.025Zm62.655,480.107c-4.275-4.673-11.617-3.993-16.9,1.647s-6.26,13.657-2.165,18.172c4.073,4.5,11.656,3.675,17.022-1.755S162.678,809.741,158.466,805.132Zm37.315,37.319c-4.624-4.286-12.5-3.464-18.029,1.947s-6.4,12.882-1.892,17.02c4.448,4.084,12.583,3.146,18.182-2.037S200.374,846.712,195.781,842.451Zm726.6-243.718c4.051,6.193,10.122,6.724,13.55,1.079s3.065-15.3-.8-21.463c-3.887-6.192-9.77-6.308-13.453-.378C918.119,583.7,918.421,592.671,922.383,598.733ZM401.635,78.2c6.056,4.172,15.459,4.664,21.3,1.114,5.816-3.54,5.684-9.651-.4-13.512-6.19-3.931-15.581-4.28-21.36-.788C395.53,68.426,395.778,74.165,401.635,78.2ZM896.976,741.344c4.609,5.73,11.239,6.647,14.764,1.96,3.606-4.793,2.787-13.932-1.747-19.931-4.6-6.079-11.073-6.608-14.863-1.314C891.5,727.131,892.289,735.515,896.976,741.344ZM259.652,104.035c5.8,4.561,14.437,5.316,19.4,1.732,5.068-3.667,4.32-10.492-1.736-14.984-6.136-4.553-14.822-5.206-19.768-1.436C252.8,92.962,253.764,99.4,259.652,104.035Zm345-26.239c5.463,3.512,14.822,3.234,20.795-.648,6.055-3.939,6.507-10.332.862-13.647-5.553-3.266-14.884-2.793-20.871,1.039S599.137,74.247,604.652,77.8ZM923.058,396.115c3.494,5.484,9.54,5.311,13.328-.485,3.865-5.917,4.268-15.929.836-21.4-3.377-5.384-9.3-4.8-13.323,1.2S919.525,390.565,923.058,396.115ZM326.5,905.94c-5.281-3.485-14.245-2.769-20.049,1.624-5.773,4.373-6.329,10.748-1.124,14.022,5.17,3.256,14.609,2.493,20.284-1.611C331.339,915.833,331.7,909.378,326.5,905.94ZM94.874,674.253c-3.509-5.207-9.835-4.724-13.986,1.162-4.163,5.9-4.876,15.042-1.542,20.185,3.3,5.1,9.81,4.5,14.1-1.213C97.711,688.7,98.355,679.427,94.874,674.253ZM235.85,877.641c-4.442-3.88-13-3.176-18.6,1.59-5.627,4.785-6.626,11.866-2.116,15.5,4.477,3.6,13.224,2.671,18.805-1.958C239.368,888.263,240.2,881.444,235.85,877.641Zm-112.5-112.489c-3.8-4.618-10.788-3.751-15.4,1.991-4.595,5.722-5.4,14.381-1.684,18.725,3.633,4.248,10.539,3.289,15.213-2.038C126.278,778.36,127.12,769.739,123.351,765.152ZM924.743,648.527c3.88,5.727,9.746,6.361,12.987,1.311,3.344-5.208,2.94-14.628-.859-20.559-3.684-5.753-9.567-6.263-12.978-1.219C920.386,633.25,920.765,642.654,924.743,648.527ZM897.931,252.636c3.574,4.845,10.289,4.065,14.737-1.8,4.315-5.688,5.166-14.168,1.844-18.782-3.388-4.708-10.294-3.786-14.855,1.9C895.224,239.481,894.463,247.928,897.931,252.636ZM352.3,76.148c5.74,3.876,14.714,4.321,20.016,1.012,5.468-3.417,5.123-9.426-.858-13.192-5.8-3.655-15.023-4.157-20.224-1.085C345.885,66.039,346.426,72.178,352.3,76.148Zm395.765,26.695c4.721,3.675,13.386,2.843,19.038-1.874,5.481-4.574,6.331-11.112,1.807-14.51C764.3,83,755.352,83.913,749.685,88.384,744.181,92.73,743.485,99.272,748.065,102.843Zm-594.386,50.21c-5.164-5.045-12.62-5.987-16.31-1.993s-2.572,11.823,2.372,16.953c5.035,5.221,12.154,5.964,16.119,1.755C159.81,165.571,158.863,158.121,153.679,153.053Zm694,693.972c-5.084-5.085-12.732-6.02-16.809-2.111s-3.161,11.319,2.046,16.245c5.253,4.972,12.813,5.941,16.825,2.1S852.813,852.16,847.675,847.025ZM723.141,908.532c-5.716-4.079-14.1-4.68-18.87-1.386-4.874,3.37-4.153,9.647,1.657,13.687,5.91,4.115,14.425,4.724,19.288,1.347S729.119,912.8,723.141,908.532Zm145.456-83.4c4.983,5.378,11.923,6.375,15.645,2.179,3.74-4.215,2.752-11.789-2.2-17.26-4.862-5.375-11.969-6.188-15.605-1.855C862.886,812.432,863.826,819.981,868.6,825.131ZM92.064,277.344c-4.3-5.722-10.568-6.5-13.7-1.626-3.051,4.751-2.337,13.329,1.56,19.044,4.068,5.963,10.071,6.684,13.586,1.718C97.059,291.466,96.445,283.171,92.064,277.344Zm83.72-145.024c5.282,4.814,12.533,5.605,16.768,1.882,4.4-3.874,3.612-10.58-1.9-15.487-5.415-4.817-13.359-5.829-17.356-2.164S170.461,127.462,175.784,132.32ZM655.23,75c5.315,3.453,13.872,2.942,19.712-1.21,5.65-4.016,6.144-9.509,1.045-12.679C670.822,57.9,661.7,58.453,656.029,62.3,650.48,66.057,650.167,71.706,655.23,75ZM925.715,345.318c3.26,5.3,8.732,5.211,12.607-.311,4.063-5.791,4.786-14.487,1.639-19.877-3.111-5.333-9.007-4.939-13.011.77C923.064,331.446,922.524,340.121,925.715,345.318ZM810.378,881.73c-5.432-4.924-13.317-5.873-17.633-2.169-4.2,3.608-3.288,10.058,2.144,14.6,5.5,4.592,13.063,5.549,17.326,2.151S815.641,886.5,810.378,881.73Zm-690.946-690.9c-4.673-5.386-11.15-6.537-14.708-2.548-3.625,4.064-2.694,12.121,1.994,17.709,4.592,5.468,10.9,6.308,14.535,2.011S124.112,196.231,119.432,190.834ZM67.6,474.2c-3.462-5.576-8.7-5.6-11.823.039s-2.985,14.443.338,20.1c3.281,5.586,8.529,5.468,11.847-.169S71.106,479.858,67.6,474.2ZM526.368,933.117c-5.708-3.43-14.45-3.44-19.956-.028s-5.383,8.6.368,11.84c5.724,3.227,14.633,3.243,20.11.035S532.093,936.556,526.368,933.117ZM67.621,525.87c-3.307-5.666-8.47-5.814-11.826-.237s-3.56,14.43-.456,20.044c3.117,5.638,8.329,5.652,11.851.129S70.9,531.488,67.621,525.87ZM475.277,933.443c-5.528-3.4-14.161-3.371-19.893.084s-6.008,8.677-.517,11.848c5.527,3.192,14.375,3.15,20.073-.084S480.745,936.807,475.277,933.443ZM66.9,423.266c-3.582-5.809-8.742-6.034-11.847-.416-2.982,5.4-2.739,13.908.559,19.578,3.245,5.583,8.417,5.9,11.656.81C70.6,438.012,70.433,428.988,66.9,423.266ZM577.476,933.91c-5.843-3.559-14.43-3.624-19.845-.17-5.191,3.311-4.848,8.309.893,11.588,5.623,3.211,14.429,3.441,19.69.509C583.622,942.826,583.242,937.422,577.476,933.91ZM214.648,99.076c5.3,4.292,13.158,5.055,17.344,1.728,4.313-3.433,3.24-9.891-2.411-14.09-5.548-4.124-13.087-4.751-17.279-1.385C208.161,88.654,209.218,94.679,214.648,99.076ZM901.885,786.283c4.349,5.274,10.6,6.35,13.842,2.32,3.31-4.1,2.376-12.43-1.967-17.87-4.295-5.382-10.211-6.072-13.625-1.671S897.465,780.922,901.885,786.283Zm26.054-89.623c3.859,5.833,9.724,6.844,12.764,2.12,2.93-4.545,2.355-13.218-1.22-18.821-3.666-5.744-9.082-6.492-12.341-1.786C923.836,682.952,924.162,690.947,927.939,696.66ZM303.574,72.539c5.433,3.9,13.785,4.628,18.714,1.652,5-3.019,4.454-8.918-1.254-12.668-5.642-3.712-13.879-4.3-18.7-1.318C297.486,63.212,298.064,68.586,303.574,72.539ZM90.486,722.968c-3.387-4.5-9.05-3.667-13.076,2-3.986,5.616-4.645,13.55-1.462,18.116,3.1,4.453,9.129,3.694,13.2-1.589C93.335,736.052,93.931,727.548,90.486,722.968Zm187.49,187.5c-4.462-3.468-12.358-3.069-17.944.957-5.744,4.139-6.951,9.877-2.712,13.2,4.366,3.421,12.8,2.947,18.572-.982C281.381,919.9,282.308,913.837,277.975,910.465ZM869.9,167.328c3.678,3.8,10.656,2.818,15.087-2.173,4.473-5.042,5.343-12.546,1.818-16.214-3.6-3.753-10.321-2.666-15.113,2.384C866.923,156.35,866.156,163.455,869.9,167.328Zm-36.241-36.242c3.882,3.593,11.31,2.733,16.13-1.922s5.794-11.717,2.052-15.171c-3.821-3.532-11.042-2.559-16.155,2.122S829.7,127.417,833.658,131.086ZM66.351,577.129c-3.094-5.287-8.277-5.151-11.641.4s-3.744,14.254-.82,19.518c2.867,5.171,8.276,4.948,11.728-.394C69.048,591.34,69.381,582.312,66.351,577.129ZM423.929,934.658c-5.133-3.182-13.769-2.955-19.38.528-5.657,3.512-6.134,8.675-.986,11.677,5.048,2.947,14.08,2.714,19.629-.48C428.671,943.232,428.975,937.786,423.929,934.658ZM65.153,372.871c-3.242-5.347-8.537-6.084-11.421-1.513-2.991,4.735-2.777,13.667.432,19.315,3.09,5.438,8.253,6.022,11.36,1.366C68.727,387.233,68.569,378.512,65.153,372.871ZM628.005,935.746c-5.359-3.3-13.906-3.623-18.8-.721-5.059,3.006-4.708,8.41.841,11.62,5.436,3.149,14.033,3.492,18.931.743C634.029,944.555,633.538,939.158,628.005,935.746ZM152.584,848.193c-3.631-3.569-10.521-2.733-15.146,1.895-4.775,4.782-5.841,12.061-2.23,15.613,3.522,3.468,10.449,2.531,15.238-2C155.384,859.019,156.342,851.893,152.584,848.193Zm776.851-552.56c2.909,4.712,8.384,4.266,12.129-1.07,3.778-5.381,4.59-13.434,1.807-18.128-2.7-4.568-8.4-4.014-12.238,1.107S926.542,290.943,929.435,295.633Zm-224.4-224.28c4.59,3.017,12.634,2.35,17.987-1.521s6.091-9.351,1.536-12.2c-4.474-2.805-12.927-2.09-18.2,1.512S700.509,68.378,705.032,71.353ZM769.462,913.3c-5.141-3.819-12.713-4.52-16.842-1.593-4.244,3.012-3.435,8.9,1.823,12.728,5.4,3.939,12.96,4.641,17.218,1.563S774.908,917.343,769.462,913.3ZM87.339,231.094c-4.035-5.181-9.928-6.086-12.761-1.89-2.749,4.067-1.964,11.787,1.7,16.985,3.859,5.478,9.43,6.327,12.632,1.993C92.143,243.8,91.479,236.414,87.339,231.094Zm30.246,579.761c-3.369-3.715-9.511-2.938-13.7,1.793-4.293,4.854-5.272,12.408-2.06,16.243,3.289,3.931,9.466,2.984,14.031-2.085S121.148,814.788,117.585,810.855Zm72.057,72.125c-3.957-3.15-11.028-2.3-15.74,1.932-4.844,4.354-5.776,10.927-1.943,14.129,3.934,3.29,11.022,2.31,16.132-2.184C193.186,892.377,193.832,886.319,189.642,882.98ZM903.435,205.522c3.183,4.159,8.765,3.641,12.957-1.276,4.393-5.156,5.394-12.356,2.263-16.533-3.076-4.1-9.234-3.3-13.452,1.693C901.112,194.25,900.338,201.471,903.435,205.522ZM795.366,97.488c4.289,3.244,11.394,2.269,16.439-2.29,4.806-4.342,5.394-9.96,1.287-12.993-3.987-2.946-11.32-2.067-16.233,1.909C791.8,88.205,791.153,94.3,795.366,97.488ZM63.759,628.282c-2.9-4.705-7.86-4.434-11.073.688-3.3,5.267-3.728,13.855-.905,18.676,2.871,4.9,7.835,4.249,11.338-1.4C66.47,640.838,66.73,633.118,63.759,628.282ZM372.538,937.1c-4.88-3-13.292-2.622-18.526.855-5.074,3.372-5.489,8.4-.838,11.126,4.766,2.8,12.659,2.483,18.1-.7C376.979,945.045,377.49,940.147,372.538,937.1ZM952.794,495.912c2.918,5.394,7.491,5.732,10.372.682s2.979-13.406.215-18.673c-2.8-5.339-7.343-5.345-10.374-.1A20.087,20.087,0,0,0,952.794,495.912ZM504.626,47.952c5.233,2.957,13.449,2.9,18.535-.124s4.947-7.618-.387-10.367-13.54-2.584-18.612.393C499.258,40.732,499.5,45.054,504.626,47.952Zm173.078,891c-5.369-3.535-13.042-3.965-17.715-1.015-4.5,2.842-3.991,7.432,1.267,10.7,5.324,3.3,13.518,3.823,17.934,1.125C683.477,947.14,682.779,942.294,677.7,938.952ZM953.287,547.928c2.935,5.094,7.453,5.486,10.138.8,2.765-4.826,2.684-13.351-.169-18.628-2.918-5.4-7.391-5.417-10.312-.139C950.137,535.034,950.285,542.712,953.287,547.928ZM452.942,47.642c5.114,2.921,13.136,3.088,18.074.374,5.086-2.8,4.988-7.52-.3-10.371-5.4-2.91-13.471-2.948-18.52-.079C447.349,40.32,447.706,44.651,452.942,47.642ZM62,323.26c-3.5-5.417-8.289-5.979-10.977-1.206-2.587,4.6-2.084,12.125,1.154,17.423,3.275,5.366,8.277,5.875,11.01,1.2C65.831,336.145,65.308,328.385,62,323.26ZM256.5,68.273c5.035,3.607,12.464,4.294,16.645,1.563,4.305-2.816,3.545-8.143-1.744-11.723-5.38-3.643-12.789-4.225-16.993-1.292C250.394,59.624,251.323,64.563,256.5,68.273Zm676.057,675.97c3.728,5.262,9.091,6.215,11.789,2.029,2.605-4.039,1.914-11.636-1.5-16.752-3.524-5.28-8.437-6.169-11.407-2.134C928.312,731.641,928.777,738.9,932.561,744.243Zm21.153-299.866c2.74,4.871,7.269,4.914,10.138.019,2.954-5.038,3.206-13.566.547-18.589-2.717-5.13-7.216-4.8-10.353.669C951.042,431.715,950.906,439.383,953.714,444.377ZM556.433,47.132c4.821,2.746,12.919,2.649,18.031-.234,5.222-2.949,5.454-7.813.413-10.419-4.953-2.564-12.9-2.308-18.047.577C551.672,39.951,551.537,44.34,556.433,47.132ZM147.086,113.838c-4.628-4.253-10.891-5.1-14.208-1.864s-2.368,9.274,2.1,13.739c4.546,4.537,11.318,5.422,14.572,1.951C152.743,124.256,151.652,118.034,147.086,113.838ZM886.87,853.579c-4.32-4.576-10.316-5.446-13.672-2.033-3.373,3.434-2.634,9.577,1.752,14.106,4.476,4.619,11.086,5.719,14.2,2.313C892.171,864.659,891.111,858.072,886.87,853.579Zm67.789-254.228c3.006,5.067,7.764,5.453,10.2.747,2.368-4.562,2.109-12.685-.556-17.718-2.784-5.26-7.388-5.641-10.137-.918C951.4,586.217,951.619,594.221,954.659,599.351ZM401.5,46.252c5.074,2.987,13.437,3.231,18,.537,4.422-2.615,4.17-7.152-.624-9.946-4.993-2.911-13.259-3.242-18.034-.719C396.025,38.664,396.36,43.229,401.5,46.252Zm450.7,841.369c-4.615-4.222-11.206-4.967-14.7-1.71-3.469,3.238-2.4,9.241,2.412,13.245,4.61,3.84,11.278,4.712,14.534,1.858C857.8,898.074,856.719,891.766,852.193,887.621ZM229.619,915.285c-4.039-2.877-11.247-2-16.071,2-4.794,3.967-5.446,9.5-1.36,12.13,3.915,2.52,11.2,1.622,15.876-1.931C232.883,923.818,233.58,918.111,229.619,915.285ZM85.663,771.332c-2.8-4.1-8.3-3.479-12.1,1.428-3.825,4.935-4.707,12.242-1.92,16.153,2.752,3.864,8.5,2.985,12.265-1.821C87.56,782.43,88.346,775.263,85.663,771.332ZM113.18,148.694c-3.985-4.378-10.012-5.48-13.016-2.344-3.143,3.279-2.328,10.083,1.723,14.763,3.9,4.5,9.769,5.531,12.963,2.313C118.087,160.159,117.326,153.242,113.18,148.694Zm58.008-55.657c4.617,3.919,11.259,4.633,14.783,1.63s2.57-8.643-2.113-12.388-11.583-4.59-14.928-1.765S166.665,89.2,171.188,93.037ZM60.445,679c-2.59-4.2-7.417-3.743-10.549,1.072-3.231,4.968-3.838,13.193-1.25,17.3,2.567,4.081,7.309,3.309,10.59-1.656C62.5,690.774,63.038,683.214,60.445,679Zm847.6,150.88c4.031,4.482,9.646,5.287,12.4,1.721s1.766-10.421-2.106-14.94-9.56-5.28-12.385-1.687S904.09,825.485,908.041,829.879Zm47.28-437.729c2.31,4.759,6.856,4.9,9.833.232,3.127-4.9,3.728-12.986,1.328-17.842-2.26-4.575-6.857-4.427-9.907.242S952.963,387.28,955.321,392.15ZM608.376,45.432c4.643,2.485,12.4,2.057,17.314-.964s5.32-7.5.85-9.91c-4.414-2.382-12.506-2.04-17.468.716C603.952,38.117,603.66,42.905,608.376,45.432ZM321.928,940.481c-4.1-2.607-11.833-2.146-16.761,1.028s-5.782,8.018-1.831,10.643c3.878,2.579,11.632,2.162,16.756-.864C325.462,948.118,326.26,943.239,321.928,940.481Zm612.544-693.7c2.728,3.982,7.715,3.213,11.219-1.8,3.489-4.991,4.158-12.191,1.445-15.952-2.595-3.6-7.609-2.79-11.05,1.727C932.536,235.423,931.8,242.874,934.472,246.783ZM753.987,66.362c3.892,2.772,11.038,2.079,15.9-1.575,4.895-3.675,5.649-8.691,1.622-11.231-3.975-2.509-11.45-1.65-16.129,1.83C750.857,58.756,750.255,63.7,753.987,66.362ZM957.21,649.574c3.008,5.063,7.156,5.725,9.557,1.458,2.416-4.3,2.069-11.531-.777-16.6s-7.057-5.667-9.587-1.45C953.9,637.161,954.251,644.6,957.21,649.574ZM351.2,43.664c5.022,3,12.157,3.333,16.5.786s3.805-6.645-1.291-9.519c-5.008-2.823-12.539-3.225-16.7-.877C345.512,36.419,346.2,40.68,351.2,43.664Zm462.87,875.468c-4.521-3.543-10.723-4.235-14.217-1.62-3.626,2.715-2.779,7.679,1.985,11.32,4.738,3.619,11.248,4.4,14.668,1.716S818.833,922.867,814.067,919.132ZM57.68,274.518c-3.212-4.613-7.554-5.306-9.9-1.516-2.429,3.925-1.814,11.028,1.363,15.978s7.608,5.551,10.1,1.42S61.069,279.39,57.68,274.518ZM726.13,943.049c-4.874-3.313-11.894-3.9-15.885-1.343-3.862,2.474-3.287,6.77,1.385,9.863,4.909,3.252,11.91,3.964,15.986,1.615S731.024,946.375,726.13,943.049ZM81.33,186.3c-3.669-4.39-8.5-5.24-11.062-1.894-2.655,3.464-1.836,9.966,1.819,14.688s8.618,5.506,11.3,1.849S85.182,190.911,81.33,186.3Zm795.447-62c3.123,3.015,8.769,2.186,12.754-1.915,4.129-4.251,4.892-10.142,1.643-13.107-3.115-2.841-8.7-1.786-12.829,2.39C874.239,115.824,873.592,121.227,876.777,124.306Zm81.88,216.537c2.321,4.185,6.587,3.922,9.364-.645,2.755-4.528,3.289-12.044,1.134-16.175-2.2-4.216-6.34-3.788-9.336.9C956.8,329.644,956.3,336.587,958.657,340.843ZM660.06,42.289c4.222,2.288,11.575,1.77,16.057-1.145s4.826-7.245.679-9.4c-4.221-2.19-11.321-1.631-16.048,1.253S655.759,39.958,660.06,42.289ZM909.892,160.251c2.69,3.207,8.212,2.366,11.746-1.835s4.37-10.726,1.713-13.7c-2.748-3.074-8.035-1.989-11.8,2.382C907.966,151.266,907.248,157.092,909.892,160.251ZM840.508,90.9c3.129,2.758,9.5,1.983,13.614-1.7,4.082-3.65,4.985-9.28,1.852-11.814-3.1-2.511-9.028-1.684-13.258,1.813C838.272,82.879,837.309,88.079,840.508,90.9ZM111.336,855.38c-2.673-3.326-8.248-2.641-12.16,1.546-3.792,4.053-4.825,9.789-2.308,12.943,2.532,3.174,8.365,2.414,12.286-1.547C112.883,864.553,113.885,858.551,111.336,855.38Zm34.122,34.129c-3.256-2.6-8.905-1.606-12.868,2.291-4.089,4.026-4.842,9.636-1.583,12.208,3.1,2.45,9.176,1.379,13.021-2.271C148.07,897.9,148.723,892.119,145.458,889.509ZM938.446,790.64c3.367,4.124,8.089,4.759,10.244,1.324,2.166-3.45,1.307-10.157-1.826-14.394-3.186-4.308-7.82-5-10.224-1.572C934.14,779.564,934.973,786.386,938.446,790.64ZM210.758,62.87c4.429,3.152,10.943,3.726,14.212,1.284s2.415-7.213-1.92-10.281c-4.4-3.12-10.937-3.853-14.317-1.583C205.217,54.649,206.191,59.618,210.758,62.87Zm60.983,882.2c-3.646-2.289-10.626-1.617-14.938,1.457s-4.907,7.7-1.207,9.76c3.79,2.117,10.587,1.29,15-1.81C274.808,951.512,275.3,947.3,271.741,945.067ZM55.767,729.037c-2.336-3.61-6.874-2.9-9.747,1.582-2.764,4.307-3.424,11.037-1.414,14.617,2.1,3.747,6.583,3.105,9.719-1.337S58.116,732.673,55.767,729.037ZM525.033,963.7c-4.344-2.2-11.485-2.217-15.716-.042-4.372,2.252-4.466,6.215-.135,8.45,4.359,2.251,11.817,2.251,16.185,0S529.565,966,525.033,963.7ZM37.223,475.873c-2.22-4.5-6.218-4.842-8.45-.655s-2.265,11.824-.086,16.261c2.2,4.472,6.046,4.459,8.4.032C39.359,487.252,39.42,480.338,37.223,475.873Zm435.5,488.154c-4.362-2.235-11.844-2.045-16.106.4-4.1,2.36-4.215,6.11-.187,8.221,4.2,2.2,11.6,2.093,16.117-.235C477.089,970.077,477.138,966.288,472.725,964.027ZM36.856,528.1c-2.221-4.34-6.172-4.367-8.439.008-2.179,4.2-2.378,11.4-.436,15.777,2.009,4.533,5.865,4.609,8.378.228C38.9,539.673,39.123,532.534,36.856,528.1ZM301.6,40.029c4.67,2.847,11.257,3.174,15.063.772,3.618-2.281,2.916-6.052-1.671-8.7-4.46-2.572-11.267-3.1-14.9-1.142C296.338,32.979,297.078,37.267,301.6,40.029ZM960.95,699.34c2.784,4.421,6.619,5.07,8.74,1.428,2.243-3.851,1.793-10.469-1.01-15.149-2.623-4.383-6.582-5.042-8.784-1.514C957.642,687.717,958.128,694.866,960.95,699.34ZM577.209,964.668c-4.363-2.357-11.338-2.579-15.5-.5-4.258,2.135-4.1,6.088.395,8.386,4.446,2.274,11.241,2.453,15.479.4C582.058,970.8,581.866,967.185,577.209,964.668ZM36.172,423.553c-2.369-4.337-6.054-4.759-8.155-.875-2.149,3.97-2,11.559.3,16.045,2.281,4.435,5.813,4.671,8.079.6C38.8,435.022,38.7,428.188,36.172,423.553ZM79.117,818.316c-2.426-3.326-6.979-2.781-10.315,1.281-3.2,3.891-4.07,9.57-1.941,12.735,2.29,3.407,6.743,2.94,10.275-1.022S81.535,821.633,79.117,818.316ZM182.649,921.85c-3.126-2.386-8.525-1.8-12.565,1.4-4.16,3.3-5.075,8-1.994,10.443,3.137,2.485,8.8,1.8,12.984-1.523S185.921,924.35,182.649,921.85Zm237.8,43.992c-4.1-2.314-10.785-2.231-15.29.213-4.309,2.335-4.725,5.855-.879,7.915,4.111,2.2,10.821,2.084,15.354-.256C423.991,971.463,424.321,968.029,420.448,965.842ZM35.038,580.37c-2.174-3.859-5.661-3.521-7.881.817-2.318,4.528-2.427,11.3-.23,15.378,2.076,3.858,5.536,3.427,7.9-.927C37.278,591.123,37.363,584.494,35.038,580.37ZM802.27,60.349c3.232,2.219,9.061,1.517,13.018-1.593,4.113-3.234,4.739-7.76,1.318-9.9-3.333-2.088-8.946-1.231-13.062,1.976C799.455,54.017,798.937,58.058,802.27,60.349ZM940.657,198.74c2.279,3.157,6.585,2.513,9.612-1.48,3.145-4.153,3.837-10.3,1.479-13.441-2.3-3.062-6.447-2.175-9.656,2.021C938.9,190.008,938.309,195.482,940.657,198.74ZM773.376,948.281c-4.166-3-9.994-3.638-13.435-1.49s-2.9,5.989,1.339,8.878c4.122,2.806,10.409,3.566,13.645,1.631C778.137,955.381,777.394,951.174,773.376,948.281ZM628.834,966.825c-4.279-2.469-10.717-2.76-14.677-.669-3.975,2.1-3.648,5.5.809,7.809,4.124,2.135,10.715,2.479,14.458.749C633.277,972.939,632.972,969.216,628.834,966.825ZM711.017,37.936c3.569,2.029,10.174,1.456,14.183-1.245s4.422-6.715.8-8.558c-3.583-1.827-9.539-1.248-13.738,1.323C707.848,32.159,707.33,35.84,711.017,37.936ZM962.806,289.523c1.921,3.747,5.83,3.576,8.5-.427,2.623-3.937,3.319-10.714,1.458-14.3-1.924-3.707-5.68-3.209-8.506,1.072C961.531,280,960.918,285.83,962.806,289.523Zm-910.4-62.29c-2.935-3.9-6.683-4.441-8.682-1.21-2.088,3.377-1.426,9.322,1.5,13.561,2.826,4.1,7.037,4.7,9.005,1.327C56.209,237.506,55.369,231.171,52.405,227.233ZM33.984,371.889c-2.491-4.224-5.881-4.341-7.787-.207-1.8,3.9-1.461,10.109.786,14.312,2.262,4.235,5.95,4.55,7.882.729C36.808,382.876,36.4,375.981,33.984,371.889Zm858.356,523.5c-3.441-3.651-8.722-4.616-11.426-2.11-2.607,2.416-1.978,7.089,1.458,10.553,3.493,3.518,9.009,4.607,11.583,2.261C896.4,903.863,895.633,898.877,892.34,895.384ZM105.512,108.58c-3.509-3.367-8.283-4.112-10.632-1.622s-1.58,7.456,1.7,11.078c3.342,3.69,8.589,4.653,11.04,2.056S109.083,112.005,105.512,108.58Zm809.747,762.5c3.328,3.49,8.128,4.275,10.28,1.648s1.211-8.11-2-11.632c-3.254-3.563-7.955-4.262-10.215-1.558S911.955,867.608,915.259,871.075ZM129.894,85.7c3.543,3.266,8.842,4.05,11.475,1.727s1.811-7.055-1.805-10.222-9.006-4-11.543-1.784S126.369,82.453,129.894,85.7ZM367.883,968.29c-3.58-1.9-10.311-1.49-14.2.871-3.726,2.259-4.063,5.721-.677,7.453,3.6,1.847,10.068,1.412,14.183-.943C371.122,973.419,371.409,970.16,367.883,968.29ZM32.513,632.815c-1.984-3.52-5.587-2.942-7.679,1.277-2.008,4.046-2.267,10.563-.528,13.826,1.9,3.576,5.322,2.892,7.674-1.488C34.2,642.3,34.428,636.215,32.513,632.815Zm42.036-488.99c-3.119-3.655-7.383-4.591-9.442-2.039-2.048,2.536-1.22,7.79,1.787,11.49,3.077,3.786,7.084,4.567,9.3,1.845S77.721,147.543,74.549,143.825ZM857.07,926.333c-3.64-3.133-8.781-3.96-11.446-1.862-2.647,2.087-1.828,6.354,1.835,9.389,3.743,3.1,8.689,3.887,11.387,1.788S860.773,929.518,857.07,926.333Zm-604.1-891.6c3.943,2.766,9.469,3.453,12.793,1.6,3.18-1.776,2.8-5.03-.933-7.529-3.948-2.645-9.658-3.376-12.92-1.648C248.807,28.8,249.3,32.153,252.974,34.733Zm713.068,712.95c2.552,3.744,5.861,4.319,7.586,1.274s1.214-8.45-1.158-12.392c-2.5-4.162-6.01-4.909-7.888-1.725S963.348,743.731,966.042,747.683ZM30.939,321.9c-2.239-4.036-5.249-4.733-7.031-1.589-1.883,3.325-1.55,9.114.748,13.254,2.169,3.908,5.238,4.4,7.013,1.17S33.127,325.846,30.939,321.9ZM679.414,970.215c-3.849-2.344-9.3-2.846-12.835-1.178-3.737,1.764-3.463,4.888.684,7.182,3.922,2.169,9.592,2.608,12.934,1S683.169,972.5,679.414,970.215ZM506.925,18.642a16.832,16.832,0,0,0,13.361.015c3.915-1.926,3.833-4.926-.235-6.722a17.508,17.508,0,0,0-13.391.222C502.95,14,503.083,16.772,506.925,18.642ZM982.251,493.851c1.933,4,4.929,4.021,6.717,0a17.82,17.82,0,0,0-.146-13.429c-1.789-3.731-4.605-3.665-6.5.1A16.431,16.431,0,0,0,982.251,493.851ZM49.87,778.552c-1.906-3.051-5.332-2.627-8.011,1.036-2.693,3.683-3.424,8.822-1.677,11.895,1.822,3.208,5.576,2.7,8.331-1.08C51.148,786.783,51.739,781.546,49.87,778.552ZM982.564,546.845c1.908,3.772,4.8,4.022,6.5.518s1.652-9.509-.1-13.384c-1.8-3.976-4.564-4.292-6.457-.785C980.507,536.905,980.528,542.816,982.564,546.845ZM453.975,18.346a16.927,16.927,0,0,0,13.313.345c3.654-1.719,3.7-4.633.066-6.493a17.345,17.345,0,0,0-13.306-.5C449.97,13.422,449.962,16.313,453.975,18.346ZM222.394,951.076c-3.129-2.034-8.431-1.351-12.2,1.591-3.577,2.787-3.977,6.206-.89,8,3,1.747,8.324,1.058,11.931-1.532S225.335,952.99,222.394,951.076ZM983.115,440.832c1.718,3.665,4.724,3.7,6.548.035,1.815-3.652,1.96-9.911.3-13.447-1.69-3.612-4.555-3.318-6.518.622A16.165,16.165,0,0,0,983.115,440.832Zm-38.41,393.092c2.749,3.7,6.692,4.789,8.7,2.378,1.97-2.368,1.321-7.641-1.366-11.3-2.75-3.742-6.495-4.534-8.524-1.835C941.563,825.763,942.062,830.363,944.705,833.924ZM166.518,55.87c3.551,2.842,8.727,3.57,11.294,1.608s1.672-5.918-1.974-8.618c-3.718-2.753-8.6-3.317-11.176-1.259C162.244,49.532,163.057,53.1,166.518,55.87ZM560.007,17.808c3.641,1.689,9.853,1.461,13.342-.491,3.538-1.981,3.411-4.992-.319-6.532a17.407,17.407,0,0,0-12.865.545C556.336,13.224,556.287,16.081,560.007,17.808ZM984.035,599.291c1.855,3.511,4.844,3.669,6.319.292s1.168-9.595-.646-12.908c-1.78-3.252-4.546-3.332-6.095-.216C981.984,589.737,982.18,595.774,984.035,599.291ZM917.683,116.339c2.076,2.206,6.451,1.326,9.276-1.887s3.508-8.026,1.386-9.993c-2.082-1.932-6.177-1.073-9,1.869C916.377,109.419,915.606,114.129,917.683,116.339ZM884.608,83.268c2.262,2.017,7.011,1.158,10.046-1.836s3.722-7.438,1.395-9.224c-2.278-1.752-6.721-.916-9.744,1.819C883.121,76.9,882.338,81.24,884.608,83.268ZM401.492,16.852c3.465,1.846,9.588,2.053,12.844.439s2.953-4.648-.678-6.331c-3.526-1.636-9.216-1.83-12.448-.418C397.8,12.028,397.954,14.963,401.492,16.852ZM968.624,239.728c1.71,2.612,4.861,1.928,7.1-1.577s2.8-8.528,1.219-11.254c-1.548-2.68-4.848-2.149-7.13,1.113C967.432,231.417,966.868,237.043,968.624,239.728ZM28.632,685.164c-1.524-2.978-4.554-2.729-6.565.575-2.09,3.435-2.58,9.422-1,12.368,1.526,2.855,4.5,2.306,6.584-1.181C29.752,693.409,30.186,688.2,28.632,685.164ZM315.669,972.257c-3.138-1.617-8.968-1.071-12.294,1.157-3.182,2.132-3.357,5.2-.335,6.56,3.092,1.4,8.407.861,11.861-1.2C318.372,976.71,318.7,973.817,315.669,972.257ZM761.312,32.4c2.757,1.609,7.791,1.05,11.234-1.262,3.476-2.334,4.166-5.485,1.527-7.112-2.716-1.675-8.349-1.059-11.773,1.273C759.042,27.516,758.6,30.814,761.312,32.4ZM985.45,387.717c1.6,3.338,4.148,3.115,5.974-.562a15.012,15.012,0,0,0,.569-11.6c-1.431-3.331-4.171-3.29-6.018.05C984.137,378.928,983.9,384.482,985.45,387.717ZM613.212,15.516a14.24,14.24,0,0,0,12-.7c3.487-1.97,3.476-4.475-.069-5.933a16.112,16.112,0,0,0-11.725.613C610.015,11.222,609.94,13.989,613.212,15.516ZM102.653,897.82c-2.119-1.884-6.067-1.2-8.776,1.544-2.84,2.876-3.5,7.095-1.406,9.129,2.166,2.1,6.062,1.346,9.087-1.75C104.564,903.668,105.012,899.913,102.653,897.82Zm715.979,56.958c-3.25-2.448-7.681-3.133-10.226-1.589s-2.035,4.666,1.156,7.054c3.517,2.634,8.04,3.338,10.609,1.64C822.609,960.272,821.948,957.275,818.632,954.778ZM46.32,182.553c-2.47-3.524-5.812-4.356-7.406-1.819-1.523,2.422-.873,6.928,1.461,10.214,2.4,3.377,5.385,4.075,7.087,1.688S48.674,185.913,46.32,182.553Zm802.432-129.9c2.132,1.857,6.483,1.43,9.592-.965,3.063-2.36,3.882-5.959,1.729-7.669-2.24-1.779-6.409-1.181-9.617,1.359C847.4,47.807,846.69,50.858,848.752,52.656ZM728.622,974.485c-3.253-1.966-7.658-2.412-10.487-1.067-3.035,1.443-2.821,4.031.539,6.07,3.264,1.982,8.374,2.54,11.089,1.207S731.921,976.481,728.622,974.485ZM947.906,151.664c1.61,2.433,5.033,2.031,7.516-.915,2.45-2.907,3.2-7.478,1.6-9.761-1.671-2.376-4.929-1.748-7.545,1.423C947,145.417,946.344,149.3,947.906,151.664ZM71.5,863.856c-1.632-2.313-4.8-2.063-7.441.618-2.876,2.921-3.888,7-2.337,9.434,1.528,2.4,5.1,2.1,7.832-.62C72.238,870.617,73.147,866.19,71.5,863.856Zm65.859,65.8c-2.179-1.938-6.162-1.373-9.246,1.334-2.935,2.576-3.694,5.826-1.774,7.668,1.987,1.91,6.226,1.441,9.295-1C138.66,935.253,139.456,931.522,137.36,929.656ZM26.325,272.119c-1.976-3.208-4.467-3.71-5.9-1.162-1.536,2.723-1.2,7.367.775,10.867,1.9,3.37,4.774,3.966,6.2,1.315S28.328,275.368,26.325,272.119Zm960.58,378.636c1.688,3.028,4.346,3.381,5.574.714,1.3-2.825.868-8.564-.876-11.616s-4.129-3.063-5.468-.063C984.805,642.77,985.143,647.6,986.905,650.755ZM349.984,13.957c3.164,1.8,8.783,2.157,11.524.736,2.6-1.352,2.181-4-.916-5.582-3.231-1.647-8.127-1.933-11.021-.635C346.65,9.785,346.846,12.172,349.984,13.957Zm621.852,780c1.964,3.032,4.72,3.73,6.132,1.529,1.441-2.245,1.036-6.355-.919-9.458-1.852-2.943-4.8-3.706-6.2-1.626C969.459,786.464,969.922,791,971.836,793.96ZM206.672,28.867c2.984,2.063,7.049,2.548,9.4,1.134,2.369-1.428,1.874-3.985-1.192-6.012-2.913-1.926-7.417-2.525-9.565-1.265S203.828,26.9,206.672,28.867Zm782.1,305.8c1.225,2.9,3.472,2.825,5.2-.2,1.754-3.063,2.181-7.462,1-10.321-1.125-2.729-3.578-2.664-5.268.111C988.045,327,987.6,331.91,988.771,334.671ZM665.716,11.937c2.6,1.385,7.011,1.163,10.225-.529,3.258-1.714,3.756-3.962,1.143-5.276-2.494-1.253-7.347-1.02-10.4.488C663.68,8.1,663.234,10.614,665.716,11.937ZM23.267,736.684c-1.237-2.315-3.319-2.1-5.074.544-1.893,2.853-2.4,6.783-1.2,9.335,1.164,2.482,3.567,2.231,5.354-.533S24.54,739.061,23.267,736.684ZM264.1,977.591c-2.35-1.213-5.978-.895-8.842.783-3.089,1.809-3.622,4.078-1.246,5.389,2.305,1.273,6.512.908,9.35-.8S266.514,978.841,264.1,977.591ZM923.667,909.6c2.2,2.292,5.4,3.066,6.941,1.669,1.622-1.465.921-5.105-1.433-7.51-2.254-2.3-5.249-2.833-6.777-1.219S921.412,907.243,923.667,909.6ZM97.032,71.644c-2.315-2.241-5.492-2.9-7.132-1.471-1.66,1.445-1.192,4.387,1.052,6.742,2.329,2.446,5.932,3.218,7.522,1.623C99.952,77.054,99.281,73.82,97.032,71.644Zm77.059,886.7c-1.951-1.259-5.589-.706-8.131,1.24-2.559,1.959-3.142,4.565-1.3,5.872,1.81,1.282,5.573.844,8.161-.934C175.526,962.664,176.132,959.657,174.09,958.34ZM42.41,826.569c-1.371-1.813-3.978-1.191-5.877,1.417s-2.42,6.218-1.156,8.125c1.319,1.989,4.341,1.29,6.208-1.419C43.364,832.108,43.74,828.33,42.41,826.569ZM897.616,934.612c-2.023-1.915-5.37-2.654-7.055-1.556-1.823,1.188-1.516,4.153.673,6.315,2.123,2.093,5.758,2.917,7.442,1.681S899.824,936.705,897.616,934.612ZM9.335,478.136c-1.124-2.563-3.2-2.613-4.3-.083a14.142,14.142,0,0,0,.078,9.611c1.157,2.457,3.222,2.271,4.3-.368A14.028,14.028,0,0,0,9.335,478.136ZM990.889,701.193c1.474,2.533,3.714,2.765,4.67.46s0.49-6.8-.963-9.16c-1.5-2.444-3.676-2.428-4.614.009A12.048,12.048,0,0,0,990.889,701.193ZM66.166,103.187c-1.984-2.06-4.839-2.641-6.166-1.241-1.423,1.5-.873,4.986,1.14,7.315,1.98,2.292,5.143,2.931,6.474,1.324C68.958,108.959,68.258,105.357,66.166,103.187Zm456.4,888.318a13.739,13.739,0,0,0-9.127.019c-2.608,1.124-2.7,3.166-.173,4.292a14.421,14.421,0,0,0,9.645.006C525.359,994.705,525.181,992.6,522.561,991.505Zm-53.425.453a13.352,13.352,0,0,0-9.619.336c-2.29,1.2-2.262,3.136.079,4.124a14.009,14.009,0,0,0,9.646-.335C471.528,994.936,471.468,992.98,469.136,991.958Zm-169.57-982c2.507,1.494,6.973,1.864,9.172.76,2.043-1.027,1.767-3.149-.6-4.509-2.513-1.44-7.028-1.812-9.213-.754C296.885,6.438,297.2,8.541,299.566,9.955ZM8.982,531.784c-1.059-2.576-3.174-2.55-4.333.079a14.264,14.264,0,0,0-.235,9.209c1.014,2.6,3.119,2.546,4.329-.089A13.688,13.688,0,0,0,8.982,531.784Zm801.659-506.5c1.724,1.224,5.253.842,7.767-.855,2.537-1.713,3.18-4.051,1.423-5.227-1.668-1.117-5.481-.707-7.867.834S808.953,24.083,810.641,25.283ZM975.583,190.2c1.2,1.746,3.565,1.109,5.227-1.417s2.06-6.024.859-7.766c-1.181-1.716-3.65-1.09-5.252,1.318C974.85,184.688,974.447,188.543,975.583,190.2ZM124.441,47.633c2.235,2.046,5.425,2.682,7.152,1.435,1.744-1.261,1.252-3.773-1.135-5.724-2.311-1.888-5.739-2.49-7.215-1.258C121.863,43.238,122.418,45.782,124.441,47.633ZM8.375,424.932c-1.175-2.5-3.138-2.672-4.09-.34a13.935,13.935,0,0,0,.179,8.656c1.083,2.711,2.926,2.993,4.049.64A11.852,11.852,0,0,0,8.375,424.932ZM953.013,876.2c1.815,2.125,4.293,2.727,5.554,1.344,1.382-1.515.964-4.715-.916-7.108-1.809-2.3-4.672-3.027-5.908-1.5S951.124,873.991,953.013,876.2ZM575.754,992.45c-2.6-1.163-6.872-1.221-9.047-.128-2.126,1.069-1.717,3.083.851,4.1a12.733,12.733,0,0,0,8.562.075C578.57,995.451,578.4,993.631,575.754,992.45ZM20.551,224.413c-1.569-2.45-3.572-2.944-4.527-1.1s-0.508,5.256,1.034,7.747c1.574,2.542,3.425,2.942,4.469.984S22.159,226.925,20.551,224.413ZM776.282,980.226c-2.506-1.536-5.892-1.922-7.68-.879s-1.242,3.023,1.3,4.541c2.58,1.543,5.758,1.893,7.631.838S778.868,981.809,776.282,980.226ZM7.111,585.747c-1-2.345-2.663-2.363-3.79-.02a11.579,11.579,0,0,0-.3,8.378c0.976,2.371,2.578,2.336,3.769-.066A10.857,10.857,0,0,0,7.111,585.747ZM415.174,993.822a11.157,11.157,0,0,0-8.347.222c-2.395,1.152-2.477,2.818-.164,3.8a11.232,11.232,0,0,0,8.313-.252C417.423,996.454,417.5,994.847,415.174,993.822ZM718.283,6.965c1.924,1.1,5.4.913,7.843-.435,2.421-1.338,2.71-3.232.619-4.173a9.126,9.126,0,0,0-7.436.674C716.917,4.322,716.5,5.944,718.283,6.965ZM993.912,282.471c0.974,1.812,2.7,1.538,3.943-.639,1.337-2.343,1.624-5.953.623-7.92-0.941-1.848-2.594-1.529-3.934.744C993.1,277.112,992.828,280.457,993.912,282.471ZM861.883,962.151c-2.183-1.586-4.917-1.92-6.4-.789s-0.99,3.167,1.18,4.788c2.275,1.7,5.584,2.159,6.875.943C864.74,965.957,863.974,963.67,861.883,962.151Zm-233.458,32.5a10.859,10.859,0,0,0-7.338-.44c-2.215.813-2.3,2.409-.174,3.515a11.994,11.994,0,0,0,7.9.531C630.714,997.506,630.506,995.661,628.425,994.653ZM6.056,372.07c-1.151-2.032-2.758-1.874-3.5.36a11.282,11.282,0,0,0,.53,7.355c1.017,2.07,2.823,2.149,3.583.171A11.6,11.6,0,0,0,6.056,372.07Zm32.5-233.207c-1.539-2.039-3.813-2.551-4.816-1.074-0.925,1.361-.566,4.067.8,6.08,1.4,2.061,3.844,2.821,4.91,1.532C40.474,144.151,40.025,140.813,38.553,138.863ZM926.835,73.819c0.971,1.171,3.528.859,5.29-.654,1.857-1.6,2.682-4.539,1.624-5.8-0.974-1.165-3.5-.825-5.294.7C926.472,69.751,925.71,72.463,926.835,73.819ZM361.24,996.724a10.29,10.29,0,0,0-6.767.46c-1.879.966-1.891,2.672-.012,3.346a9.464,9.464,0,0,0,6.7-.547C363.346,998.9,363.374,997.5,361.24,996.724ZM4.125,639.433c-0.752-1.868-2.417-1.766-3.337.214a10.576,10.576,0,0,0-.372,6.793c0.77,2.03,2.2,1.861,3.288-.375A8.82,8.82,0,0,0,4.125,639.433ZM956.969,106.246c0.976,1.406,2.668,1.216,4.248-.491s2.042-3.862,1.119-5.214c-0.887-1.3-2.8-1.076-4.3.487S956.055,104.93,956.969,106.246Zm22.3,732.383c1.4,2.066,2.947,2.609,3.873,1.348s0.631-3.567-.7-5.588c-1.279-1.94-3.017-2.55-3.91-1.382S977.965,836.7,979.272,838.629ZM161.983,21.471c1.941,1.4,4.288,1.787,5.637.929s0.917-2.455-1.02-3.828c-1.874-1.327-4.462-1.777-5.727-.992S160.118,20.126,161.983,21.471ZM996.075,749.926c1.173,2.114,2.6,2.573,3.359,1.038s0.452-4.183-.735-6.238c-1.157-2-2.678-2.359-3.3-.6A6.913,6.913,0,0,0,996.075,749.926ZM250.726,4.735c2.066,1.192,4.693,1.467,6.2.651s1.021-2.222-1.16-3.362c-1.89-.988-4.409-1.265-5.837-0.639C248.346,2.075,248.707,3.571,250.726,4.735Zm643.658,39c1.222,1.136,3.244.909,5.076-.578s2.3-3.3,1.134-4.384c-1.119-1.042-3.413-.78-5.142.578S893.239,42.671,894.384,43.733ZM16.461,787.172c-0.821-1.259-2.294-.965-3.391.685-1.215,1.829-1.525,4.532-.691,6.035,0.853,1.532,2.4,1.186,3.627-.8S17.42,788.638,16.461,787.172ZM213.31,984.23a6.231,6.231,0,0,0-5.992.954c-1.618,1.32-1.911,2.5-.358,3.331,1.579,0.843,4.1.547,6-.718C214.827,986.55,214.973,985.028,213.31,984.23ZM61.957,907.422c-1.052-1-2.873-.605-4.311.948-1.451,1.57-1.829,3.491-.913,4.678,1.017,1.315,2.977,1.037,4.538-.634C62.813,910.765,63.116,908.526,61.957,907.422ZM34.138,872.685c-0.932-1.112-2.58-.725-3.9.922-1.33,1.663-1.7,3.736-.9,5.047,0.89,1.453,2.66,1.2,4.1-.576C34.857,876.325,35.164,873.91,34.138,872.685Zm59.234,66.153c-1.14-1.136-3.329-.754-5,0.882-1.552,1.517-1.856,3.218-.754,4.241,1.206,1.115,3.381.75,5-.833C94.1,941.674,94.413,939.876,93.373,938.838Zm34.7,27.824c-1.26-1.006-3.624-.626-5.4.875-1.648,1.395-1.937,2.929-.713,3.831,1.334,0.981,3.684.616,5.395-.832C128.931,969.205,129.228,967.581,128.076,966.662Z" transform="translate(0 -1.031)"/>
</svg>
