<svg xmlns="http://www.w3.org/2000/svg" width="977" height="1000" viewBox="0 0 977 1000">
  <defs>
    <style>
      .cls-1 {
        fill: #a6b4bf;
        fill-rule: evenodd;
      }
    </style>
  </defs>
  <path class="cls-1" d="M491.182,488.342a18.2,18.2,0,0,0,18.351,18.482,18.411,18.411,0,1,0-.289-36.82A18.226,18.226,0,0,0,491.182,488.342Zm63.627,26.8a18.508,18.508,0,0,0-18.758-18.213,18.412,18.412,0,0,0,.407,36.82A18.486,18.486,0,0,0,554.809,515.14Zm-53.731.04a18.5,18.5,0,0,0-18.718-18.253,18.412,18.412,0,0,0,.326,36.82A18.478,18.478,0,0,0,501.078,515.18Zm35.3-72.079a18.39,18.39,0,0,0-.023,36.78A18.39,18.39,0,1,0,536.375,443.1Zm-53.829,0a18.394,18.394,0,0,0-.275,36.78A18.392,18.392,0,1,0,482.546,443.1ZM509.408,560.65a18.39,18.39,0,1,0,.179-36.78A18.391,18.391,0,0,0,509.408,560.65Zm-71.883-71.863a18.247,18.247,0,0,0,18.383,17.989,18.361,18.361,0,1,0-.287-36.72A18.266,18.266,0,0,0,437.525,488.787Zm107.462-.161a18.243,18.243,0,0,0,18.334,18.15,18.362,18.362,0,1,0-.41-36.72A18.268,18.268,0,0,0,544.987,488.626Zm18.076,71.967a18.33,18.33,0,1,0,.1-36.66A18.332,18.332,0,0,0,563.063,560.593ZM491.287,434.4A18.274,18.274,0,0,0,509.2,452.9a18.332,18.332,0,1,0,.357-36.661A18.281,18.281,0,0,0,491.287,434.4ZM455.7,560.594a18.331,18.331,0,1,0-.09-36.661A18.332,18.332,0,0,0,455.7,560.594Zm45.166,8.852a18.207,18.207,0,1,0-18.491,18.038A18.438,18.438,0,0,0,500.861,569.446Zm53.729,0.1A18.206,18.206,0,1,0,536,587.483,18.442,18.442,0,0,0,554.59,569.545Zm-9.508-135.368a18.149,18.149,0,1,0,18.2-17.861A18.318,18.318,0,0,0,545.082,434.177Zm-107.465.5a18.149,18.149,0,1,0,18.152-18.358A18.319,18.319,0,0,0,437.617,434.674ZM429.034,533.6a18.258,18.258,0,1,0-18.284-18.226A18.317,18.317,0,0,0,429.034,533.6Zm179.211-18.217A18.151,18.151,0,1,0,589.934,533.6,18.317,18.317,0,0,0,608.245,515.384Zm-18.36-35.675a18.212,18.212,0,1,0-17.907-18.522A18.166,18.166,0,0,0,589.885,479.709ZM428.7,443.289a18.211,18.211,0,1,0,18.254,18.127A18.306,18.306,0,0,0,428.7,443.289Zm80.739,170.983a18.157,18.157,0,0,0,.1-36.312A18.156,18.156,0,0,0,509.435,614.272ZM536.443,389.5a18.156,18.156,0,0,0-.185,36.312A18.157,18.157,0,0,0,536.443,389.5Zm-53.624,0a18.157,18.157,0,0,0-.4,36.311A18.157,18.157,0,0,0,482.819,389.5Zm-62.927,98.8a17.842,17.842,0,0,0-17.886-17.875,18.011,18.011,0,1,0,.254,36.021A17.877,17.877,0,0,0,419.892,488.3Zm35.787,125.834a18.009,18.009,0,0,0,.372-36.013A18.008,18.008,0,1,0,455.679,614.129Zm179.14-125.784a17.837,17.837,0,0,0-17.836-17.925,18.011,18.011,0,1,0,.154,36.022A17.873,17.873,0,0,0,634.819,488.345ZM428.947,587.21a18.013,18.013,0,0,0,.1-36.022A18.011,18.011,0,1,0,428.947,587.21ZM563.3,614.13a18.011,18.011,0,0,0,.061-36.019A18.01,18.01,0,1,0,563.3,614.13Zm44.656-44.963a17.843,17.843,0,0,0-17.785-17.978,18.012,18.012,0,1,0,.05,36.023A17.878,17.878,0,0,0,607.954,569.167Zm26.823-26.685a17.73,17.73,0,0,0-17.614-18.121,17.917,17.917,0,1,0-.428,35.831A17.777,17.777,0,0,0,634.777,542.482Zm-214.926-.216a17.728,17.728,0,0,0-17.831-17.9,17.915,17.915,0,1,0,0,35.83A17.772,17.772,0,0,0,419.851,542.266ZM491.567,380.76a17.92,17.92,0,0,0,17.616,17.8,17.829,17.829,0,1,0,.383-35.656A17.891,17.891,0,0,0,491.567,380.76Zm-62.5,9.133A17.762,17.762,0,1,0,446.654,407.6,17.6,17.6,0,0,0,429.068,389.893ZM554.114,623.458a17.61,17.61,0,0,0-17.564-18.18A17.762,17.762,0,1,0,554.114,623.458Zm-53.731-.122A17.6,17.6,0,0,0,482.7,605.278,17.761,17.761,0,1,0,500.383,623.336Zm89.711-233.443a17.762,17.762,0,1,0,17.754,17.992A17.779,17.779,0,0,0,590.094,389.893Zm26.942,26.923a17.761,17.761,0,1,0,17.678,17.619A17.786,17.786,0,0,0,617.036,416.816ZM384.167,434.629a17.812,17.812,0,0,0,35.618.337A17.811,17.811,0,1,0,384.167,434.629Zm161.267-53.74a17.758,17.758,0,1,0,17.853-17.864A17.695,17.695,0,0,0,545.434,380.889Zm-107.466-.233a17.76,17.76,0,1,0,17.642-17.63A17.7,17.7,0,0,0,437.968,380.656ZM643.762,532.994a17.652,17.652,0,1,0-17.643-17.6A17.583,17.583,0,0,0,643.762,532.994ZM374.8,497.691a17.655,17.655,0,1,0,18.062,17.615A17.58,17.58,0,0,0,374.8,497.691Zm269.131-53.807a17.61,17.61,0,1,0,17.557,17.709A17.464,17.464,0,0,0,643.927,443.884ZM357.564,461.731a17.632,17.632,0,1,0,17.375-17.846A17.442,17.442,0,0,0,357.564,461.731Zm62.094,134.238a17.578,17.578,0,0,0-17.76-17.431,17.571,17.571,0,0,0,.287,35.141A17.566,17.566,0,0,0,419.658,595.969Zm214.927,0.171A17.579,17.579,0,0,0,617,578.537,17.571,17.571,0,1,0,634.585,596.14ZM482.66,336.262a17.537,17.537,0,1,0,.18,35.073A17.537,17.537,0,0,0,482.66,336.262ZM428.7,640.566a17.537,17.537,0,1,0,.194-35.073A17.538,17.538,0,0,0,428.7,640.566Zm80.778,26.924a17.537,17.537,0,1,0-.167-35.073A17.538,17.538,0,0,0,509.476,667.49Zm98.207-44.344A17.576,17.576,0,0,0,590.1,605.493a17.538,17.538,0,0,0-.219,35.073A17.552,17.552,0,0,0,607.683,623.146ZM536.3,336.262a17.537,17.537,0,0,0-.083,35.073A17.537,17.537,0,1,0,536.3,336.262ZM375.023,586.692a17.51,17.51,0,1,0-.149-35.016A17.511,17.511,0,0,0,375.023,586.692Zm268.38,0a17.511,17.511,0,1,0,.409-35.016A17.512,17.512,0,0,0,643.4,586.691Zm-80.1,80.72a17.457,17.457,0,1,0-.372-34.911A17.458,17.458,0,0,0,563.3,667.411ZM330.963,488.373a17.381,17.381,0,0,0,17.178,17.5,17.455,17.455,0,1,0,.095-34.91A17.389,17.389,0,0,0,330.963,488.373Zm357.189-.07a17.634,17.634,0,0,0-17.467-17.342,17.457,17.457,0,0,0-.211,34.91A17.614,17.614,0,0,0,688.152,488.3ZM616.917,363.268a17.457,17.457,0,0,0-.139,34.91A17.456,17.456,0,1,0,616.917,363.268ZM384.7,380.9a17.376,17.376,0,0,0,17.395,17.28,17.456,17.456,0,1,0-.341-34.909A17.391,17.391,0,0,0,384.7,380.9Zm71.173,286.512a17.457,17.457,0,1,0-.433-34.911A17.458,17.458,0,0,0,455.869,667.411ZM357.862,407.283a17.35,17.35,0,1,0,34.691.739,17.584,17.584,0,0,0-17.02-17.794A17.4,17.4,0,0,0,357.862,407.283Zm286.3-17.056A17.426,17.426,0,1,0,661.213,408,17.593,17.593,0,0,0,644.166,390.227Zm-215.2-53.811A17.388,17.388,0,1,0,446.21,354,17.4,17.4,0,0,0,428.969,336.416ZM688,542.1a17.294,17.294,0,1,0-17.258,17.558A17.516,17.516,0,0,0,688,542.1ZM590.142,336.416a17.389,17.389,0,1,0,17.264,17.558A17.4,17.4,0,0,0,590.142,336.416ZM348.1,559.653a17.389,17.389,0,1,0-17.068-17.247A17.508,17.508,0,0,0,348.1,559.653ZM492.255,326.786a17.227,17.227,0,1,0,17.438-17.245A17.392,17.392,0,0,0,492.255,326.786Zm161.2,108.074a17.229,17.229,0,1,0,17.057-17.626A17.408,17.408,0,0,0,653.452,434.86Zm-322.36-.263a17.169,17.169,0,1,0,17.4-17.311A17.389,17.389,0,0,0,331.092,434.6ZM499.683,676.828a17.152,17.152,0,0,0-17.012-17.166,17.228,17.228,0,1,0,.113,34.456A17.178,17.178,0,0,0,499.683,676.828Zm46.375-350.2a17.365,17.365,0,0,0,17.231,17.488,17.227,17.227,0,0,0,.072-34.449A17.343,17.343,0,0,0,546.058,326.623Zm7.352,350.469a17.143,17.143,0,0,0-16.744-17.427,17.227,17.227,0,1,0-.414,34.451A17.169,17.169,0,0,0,553.41,677.092ZM438.592,326.934a17.369,17.369,0,0,0,17.1,17.176,17.226,17.226,0,0,0,.344-34.445A17.341,17.341,0,0,0,438.592,326.934ZM375,640.194a17.151,17.151,0,0,0,.3-34.3A17.15,17.15,0,0,0,375,640.194Zm268.668,0a17.151,17.151,0,0,0,.285-34.3A17.15,17.15,0,0,0,643.669,640.194Zm-224.652,9.662a17.013,17.013,0,0,0-17.1-17.034,17.147,17.147,0,0,0,.208,34.293A17.05,17.05,0,0,0,419.017,649.856Zm214.925,0.265a17.008,17.008,0,0,0-16.836-17.3,17.147,17.147,0,0,0-.321,34.292A17.048,17.048,0,0,0,633.942,650.121Zm-285.58-36.942a17.055,17.055,0,1,0-.369-34.108A17.055,17.055,0,0,0,348.362,613.179Zm339.262-16.888a16.865,16.865,0,0,0-16.88-17.224,17.055,17.055,0,0,0-.354,34.108A16.92,16.92,0,0,0,687.624,596.291Zm-383.247-81a17.1,17.1,0,0,0,17.1,17.023,16.959,16.959,0,1,0-.334-33.916A17.06,17.06,0,0,0,304.377,515.289Zm410.084-.011A16.771,16.771,0,0,0,697.369,498.4a16.958,16.958,0,0,0,.134,33.916A16.8,16.8,0,0,0,714.461,515.278Zm-107.5,162.134a16.722,16.722,0,0,0-16.566-17.4,16.883,16.883,0,1,0-.608,33.76A16.733,16.733,0,0,0,606.958,677.412Zm-302.511-216.2a16.973,16.973,0,0,0,16.922,17.17,16.883,16.883,0,0,0,.12-33.765A16.954,16.954,0,0,0,304.447,461.215Zm409.973,0.91a16.721,16.721,0,0,0-16.466-17.5,16.882,16.882,0,1,0-.8,33.754A16.738,16.738,0,0,0,714.42,462.125ZM428.887,693.77a16.883,16.883,0,0,0,.012-33.765A16.883,16.883,0,1,0,428.887,693.77ZM644.2,337a16.815,16.815,0,1,0-.528,33.624A16.814,16.814,0,0,0,644.2,337ZM321.281,585.95a16.762,16.762,0,1,0-16.668-16.918A16.65,16.65,0,0,0,321.281,585.95Zm393.078-16.727a16.815,16.815,0,1,0-16.83,16.728A16.654,16.654,0,0,0,714.359,569.223Zm-382.878-188.7a16.811,16.811,0,1,0,17.034-16.552A16.716,16.716,0,0,0,331.481,380.518Zm322.384,0.16a16.814,16.814,0,1,0,16.88-16.712A16.723,16.723,0,0,0,653.865,380.678ZM482.465,283.2a16.761,16.761,0,1,0,16.963,16.592A16.712,16.712,0,0,0,482.465,283.2Zm53.983,0a16.76,16.76,0,1,0,16.713,16.845A16.719,16.719,0,0,0,536.448,283.2Zm-178.11,70.6a16.815,16.815,0,1,0,16.836-16.758A16.73,16.73,0,0,0,358.338,353.8ZM509.644,720.52a16.717,16.717,0,1,0-16.866-16.572A16.66,16.66,0,0,0,509.644,720.52Zm107.55-410.356a16.717,16.717,0,1,0,16.532,16.948A16.562,16.562,0,0,0,617.194,310.164ZM385.311,326.921A16.745,16.745,0,1,0,402,310.164,16.563,16.563,0,0,0,385.311,326.921Zm177.8,393.519a16.642,16.642,0,1,0-.2-33.279A16.642,16.642,0,0,0,563.106,720.44ZM321.7,391.007a16.641,16.641,0,0,0-.52,33.277A16.641,16.641,0,1,0,321.7,391.007Zm134,329.433a16.642,16.642,0,1,0-.3-33.279A16.643,16.643,0,0,0,455.7,720.44ZM714.253,407.646a16.7,16.7,0,0,0-16.922-16.639,16.641,16.641,0,0,0,.013,33.277A16.676,16.676,0,0,0,714.253,407.646ZM278.1,488.432A16.419,16.419,0,0,0,294.468,505a16.585,16.585,0,1,0-.022-33.169A16.442,16.442,0,0,0,278.1,488.432Zm462.949,0.028a16.778,16.778,0,0,0-16.472-16.631,16.589,16.589,0,0,0-.524,33.17A16.739,16.739,0,0,0,741.045,488.46ZM429.07,283.369a16.587,16.587,0,0,0-.567,33.167A16.587,16.587,0,1,0,429.07,283.369Zm160.83,0a16.585,16.585,0,0,0,.164,33.167A16.584,16.584,0,1,0,589.9,283.37ZM348.438,666.51a16.555,16.555,0,1,0-.277-33.108A16.555,16.555,0,0,0,348.438,666.51Zm338.809-16.4A16.741,16.741,0,0,0,670.841,633.4a16.555,16.555,0,0,0-.3,33.107A16.717,16.717,0,0,0,687.247,650.112ZM740.98,542.151a16.736,16.736,0,0,0-16.675-16.442,16.555,16.555,0,0,0,.233,33.108A16.729,16.729,0,0,0,740.98,542.151Zm-462.848.329a16.451,16.451,0,0,0,16.647,16.336,16.554,16.554,0,1,0-.423-33.106A16.467,16.467,0,0,0,278.132,542.48ZM375.212,693.4a16.52,16.52,0,0,0,.125-33.038A16.519,16.519,0,0,0,375.212,693.4Zm268.575,0a16.52,16.52,0,0,0,.293-33.037A16.519,16.519,0,0,0,643.787,693.4ZM278.2,434.521A16.38,16.38,0,1,0,294.728,418.1,16.5,16.5,0,0,0,278.2,434.521Zm43.478,204.99a16.477,16.477,0,1,0-16.611-16.335A16.572,16.572,0,0,0,321.677,639.511Zm392.27-16.288a16.38,16.38,0,1,0-16.7,16.288A16.56,16.56,0,0,0,713.947,623.223Zm26.87-188.73a16.383,16.383,0,1,0-16.43,16.557A16.574,16.574,0,0,0,740.817,434.493ZM493.161,273.153a16.314,16.314,0,1,0,16.433-16.546A16.513,16.513,0,0,0,493.161,273.153Zm5.666,457.667a16.291,16.291,0,0,0-16.008-16.456,16.369,16.369,0,1,0-.179,32.737A16.3,16.3,0,0,0,498.827,730.82Zm53.723-.432a16.276,16.276,0,0,0-16.431-16.02,16.368,16.368,0,0,0,.238,32.732A16.294,16.294,0,0,0,552.55,730.388Zm-134.319-26.41a16.291,16.291,0,0,0-16.377-16.536,16.371,16.371,0,0,0,.109,32.74A16.3,16.3,0,0,0,418.231,703.978Zm214.927-.007a16.289,16.289,0,0,0-15.937-16.529,16.371,16.371,0,1,0-.325,32.74A16.3,16.3,0,0,0,633.158,703.971ZM546.964,272.879a16.467,16.467,0,0,0,16.092,16.464,16.3,16.3,0,0,0,.318-32.6A16.44,16.44,0,0,0,546.964,272.879ZM439.5,272.824a16.462,16.462,0,0,0,16.039,16.518,16.3,16.3,0,0,0,.426-32.6A16.441,16.441,0,0,0,439.5,272.824Zm231.047,37.865a16.205,16.205,0,0,0,.043,32.41A16.205,16.205,0,0,0,670.547,310.689Zm-376.3,301.64a16.207,16.207,0,0,0,.393-32.411A16.207,16.207,0,0,0,294.249,612.329ZM740.491,596.08a16.03,16.03,0,0,0-16.227-16.16,16.206,16.206,0,0,0,.073,32.412A16.075,16.075,0,0,0,740.491,596.08ZM332.081,326.821A16.358,16.358,0,0,0,348.339,343.1a16.2,16.2,0,0,0-.323-32.4A16.326,16.326,0,0,0,332.081,326.821Zm365.569,10.9a16.1,16.1,0,0,0-.43,32.2A16.1,16.1,0,1,0,697.65,337.717Zm-376.037,0a16.1,16.1,0,0,0-.6,32.2A16.1,16.1,0,1,0,321.613,337.715Zm37.432-37.984a16.114,16.114,0,0,0,16.107,16.247,16.012,16.012,0,0,0,.014-32.023A16.085,16.085,0,0,0,359.045,299.731Zm284.866-15.777a16.012,16.012,0,1,0-.187,32.023A16.012,16.012,0,0,0,643.911,283.954ZM751.26,499.34a16.012,16.012,0,1,0,.043,32.023A16.012,16.012,0,0,0,751.26,499.34ZM267.587,531.358a16.01,16.01,0,0,0,.217-32.019A16.01,16.01,0,1,0,267.587,531.358ZM606.044,730.912a15.8,15.8,0,0,0-15.66-16.116A15.94,15.94,0,1,0,606.044,730.912ZM251.653,461.389a15.981,15.981,0,0,0,15.826,16.051A15.939,15.939,0,1,0,251.653,461.389Zm499.5-15.826a15.94,15.94,0,1,0,16.088,15.688A15.8,15.8,0,0,0,751.15,445.563ZM724.6,364.792a15.94,15.94,0,1,0,15.776,16A15.949,15.949,0,0,0,724.6,364.792ZM428.869,746.673a15.942,15.942,0,1,0-16.021-15.858A15.982,15.982,0,0,0,428.869,746.673ZM278.605,380.662a15.94,15.94,0,1,0,16.03-15.813A15.846,15.846,0,0,0,278.605,380.662ZM386.184,273.02A15.864,15.864,0,1,0,402.163,257.2,15.687,15.687,0,0,0,386.184,273.02Zm230.181-15.813a15.834,15.834,0,1,0,16.471,15.343A15.706,15.706,0,0,0,616.365,257.207Zm-349,327.764a15.788,15.788,0,1,0,.461-31.57A15.787,15.787,0,0,0,267.366,584.971Zm499.767-15.6A15.794,15.794,0,0,0,751.365,553.4a15.787,15.787,0,0,0-.368,31.57A15.787,15.787,0,0,0,767.133,569.375ZM482.794,230.36a15.748,15.748,0,0,0-.316,31.494A15.748,15.748,0,1,0,482.794,230.36Zm53.657,0a15.748,15.748,0,0,0-.167,31.5A15.748,15.748,0,1,0,536.451,230.36Zm-27.461,543a15.718,15.718,0,1,0,.8-31.424A15.718,15.718,0,0,0,508.99,773.358ZM321.284,692.59a15.714,15.714,0,1,0,.089-31.427A15.715,15.715,0,0,0,321.284,692.59Zm376.187,0a15.714,15.714,0,1,0-.041-31.427A15.715,15.715,0,0,0,697.471,692.59Zm54.045-300.658a15.718,15.718,0,0,0-.669,31.426A15.717,15.717,0,1,0,751.516,391.932ZM670.762,719.49a15.69,15.69,0,1,0-.129-31.379A15.69,15.69,0,0,0,670.762,719.49Zm-322.286,0a15.69,15.69,0,1,0-.339-31.379A15.691,15.691,0,0,0,348.476,719.491Zm-80.7-296.155a15.69,15.69,0,1,0-.124-31.379A15.69,15.69,0,0,0,267.771,423.336Zm26.773,242.275a15.656,15.656,0,1,0-.168-31.31A15.657,15.657,0,0,0,294.544,665.611Zm429.937,0a15.656,15.656,0,1,0-.109-31.312A15.656,15.656,0,0,0,724.481,665.612ZM455.961,773.3a15.657,15.657,0,0,0-.163-31.312A15.656,15.656,0,0,0,455.961,773.3Zm107.262,0a15.656,15.656,0,0,0,.239-31.311A15.656,15.656,0,0,0,563.223,773.3ZM590.42,230.5a15.618,15.618,0,1,0,15.26,15.614A15.8,15.8,0,0,0,590.42,230.5Zm-161.446,0a15.619,15.619,0,1,0,15.5,15.813A15.8,15.8,0,0,0,428.974,230.492ZM644.019,746.345a15.618,15.618,0,1,0-15.7-15.53A15.77,15.77,0,0,0,644.019,746.345Zm-268.816-.04A15.576,15.576,0,1,0,359.7,730.552,15.67,15.67,0,0,0,375.2,746.305ZM778.367,472.85a15.572,15.572,0,1,0,15.273,15.571A15.613,15.613,0,0,0,778.367,472.85Zm-537.3,31.093a15.52,15.52,0,1,0-15.664-15.16A15.507,15.507,0,0,0,241.069,503.943Zm26.75,134.614a15.518,15.518,0,1,0-15.547-15.725A15.509,15.509,0,0,0,267.819,638.557Zm483.756,0a15.516,15.516,0,1,0-15.715-15.1A15.5,15.5,0,0,0,751.575,638.552ZM240.994,557.73a15.457,15.457,0,0,0-.344-30.91A15.456,15.456,0,0,0,240.994,557.73Zm536.954-30.91a15.456,15.456,0,0,0,.382,30.91A15.457,15.457,0,0,0,777.948,526.82ZM697.307,284.6a15.374,15.374,0,0,0,.245,30.746A15.374,15.374,0,0,0,697.307,284.6Zm-375.79,0a15.375,15.375,0,0,0-.418,30.746A15.374,15.374,0,0,0,321.517,284.594Zm-27.2,26.931a15.368,15.368,0,0,0,.251,30.734A15.368,15.368,0,0,0,294.317,311.525Zm430.116,0a15.368,15.368,0,0,0-.274,30.734A15.368,15.368,0,0,0,724.433,311.522Zm53.475,138.335a15.27,15.27,0,0,0,.465-30.535A15.269,15.269,0,1,0,777.908,449.857ZM240.659,419.321a15.271,15.271,0,1,0,.328,30.54A15.271,15.271,0,0,0,240.659,419.321ZM670.825,257.782a15.265,15.265,0,1,0-.3,30.529A15.266,15.266,0,0,0,670.825,257.782ZM401.605,772.924a15.261,15.261,0,0,0,.827-30.511A15.261,15.261,0,1,0,401.605,772.924Zm-53.1-515.139a15.264,15.264,0,1,0-.442,30.525A15.264,15.264,0,0,0,348.508,257.785ZM617.048,772.93a15.265,15.265,0,0,0-.205-30.529A15.265,15.265,0,1,0,617.048,772.93ZM267.658,338.737a15.074,15.074,0,1,0,.306,30.144A15.073,15.073,0,0,0,267.658,338.737Zm483.732,0a15.078,15.078,0,1,0,.013,30.153A15.077,15.077,0,0,0,751.39,338.736Zm-242-134.7a15.159,15.159,0,1,0,.193,30.317A15.159,15.159,0,0,0,509.39,204.04ZM777.981,611.12a15.007,15.007,0,1,0-14.927-15.18A14.9,14.9,0,0,0,777.981,611.12Zm-241.6,188.463a15.006,15.006,0,1,0-15.123-14.991A14.889,14.889,0,0,0,536.378,799.583Zm-53.952,0a15.007,15.007,0,1,0-14.895-15.21A14.9,14.9,0,0,0,482.426,799.581Zm-26.6-595.4A15.006,15.006,0,1,0,470.8,219.249,15.023,15.023,0,0,0,455.823,204.184Zm107.609,0A15.007,15.007,0,1,0,578.263,219.4,15.018,15.018,0,0,0,563.432,204.184Zm-322.8,406.935a15.007,15.007,0,1,0-14.9-15.211A14.9,14.9,0,0,0,240.633,611.119ZM643.778,231.166a14.948,14.948,0,1,0,15.048,15.008A14.865,14.865,0,0,0,643.778,231.166Zm-268.583,0a14.949,14.949,0,1,0,14.971,15.085A14.854,14.854,0,0,0,375.2,231.165ZM777.963,365.9a14.823,14.823,0,0,0,.174,29.643A14.823,14.823,0,1,0,777.963,365.9ZM240.621,395.544a14.823,14.823,0,1,0,.223-29.643A14.823,14.823,0,0,0,240.621,395.544ZM294.628,718.6a14.8,14.8,0,1,0-.11-29.592A14.8,14.8,0,0,0,294.628,718.6Zm429.741,0A14.8,14.8,0,1,0,724.485,689,14.8,14.8,0,0,0,724.369,718.6ZM590.275,799.367a14.8,14.8,0,1,0-.354-29.593A14.8,14.8,0,0,0,590.275,799.367Zm-161.186,0a14.8,14.8,0,1,0-.372-29.592A14.8,14.8,0,0,0,429.089,799.366ZM804.913,500.543a14.8,14.8,0,0,0,.224,29.592A14.8,14.8,0,1,0,804.913,500.543ZM213.959,530.134a14.8,14.8,0,1,0,.033-29.592A14.8,14.8,0,0,0,213.959,530.134ZM751.2,691.639a14.761,14.761,0,1,0-.037-29.52A14.762,14.762,0,0,0,751.2,691.639Zm-430.1,53.847a14.764,14.764,0,1,0,.46-29.524A14.766,14.766,0,0,0,321.093,745.486Zm376.69,0a14.763,14.763,0,0,0-.229-29.524A14.762,14.762,0,0,0,697.783,745.487ZM805.264,476.253a14.761,14.761,0,0,0-.265-29.52A14.761,14.761,0,0,0,805.264,476.253Zm-590.986,0a14.761,14.761,0,0,0-.391-29.518A14.76,14.76,0,0,0,214.278,476.251ZM267.87,691.608a14.728,14.728,0,0,0-.348-29.453A14.728,14.728,0,0,0,267.87,691.608ZM402.207,204.464a14.724,14.724,0,0,0-.365,29.444A14.723,14.723,0,0,0,402.207,204.464Zm214.8,0a14.722,14.722,0,0,0-.114,29.443A14.722,14.722,0,0,0,617.009,204.466ZM670.62,772.323a14.672,14.672,0,1,0-14.5-14.616A14.759,14.759,0,0,0,670.62,772.323Zm134.519-217.8a14.672,14.672,0,1,0,14.467,14.693A14.726,14.726,0,0,0,805.139,554.519ZM213.753,583.861A14.673,14.673,0,1,0,199.4,569.1,14.759,14.759,0,0,0,213.753,583.861ZM348.067,772.322a14.672,14.672,0,1,0-14.338-14.777A14.759,14.759,0,0,0,348.067,772.322ZM778.073,664.508a14.541,14.541,0,0,0-.085-29.082A14.542,14.542,0,0,0,778.073,664.508Zm-537.174,0a14.542,14.542,0,0,0-.372-29.081A14.543,14.543,0,0,0,240.9,664.508ZM213.99,393.213a14.449,14.449,0,0,0-.284,28.9A14.449,14.449,0,0,0,213.99,393.213Zm591,0a14.449,14.449,0,0,0-.175,28.9A14.448,14.448,0,0,0,804.985,393.213ZM482.513,177.824a14.456,14.456,0,0,0-.014,28.91A14.455,14.455,0,0,0,482.513,177.824Zm53.765,0a14.456,14.456,0,0,0-.08,28.91A14.455,14.455,0,0,0,536.278,177.824ZM509.542,825.859a14.339,14.339,0,0,0-.111-28.678A14.339,14.339,0,1,0,509.542,825.859ZM294.6,258.721a14.332,14.332,0,1,0-.083,28.663A14.332,14.332,0,0,0,294.6,258.721Zm429.928,0a14.332,14.332,0,1,0-.232,28.663A14.332,14.332,0,0,0,724.529,258.72Zm26.729,27.021a14.228,14.228,0,1,0,.273,28.451A14.227,14.227,0,0,0,751.258,285.741ZM375.33,798.811a14.227,14.227,0,0,0-.117-28.453A14.228,14.228,0,1,0,375.33,798.811Zm268.475,0a14.227,14.227,0,0,0,.25-28.451A14.228,14.228,0,1,0,643.8,798.809ZM267.885,285.74a14.228,14.228,0,1,0-.6,28.449A14.228,14.228,0,1,0,267.885,285.74Zm187.8,539.912a14.147,14.147,0,1,0,.148-28.294A14.148,14.148,0,1,0,455.686,825.652Zm107.515,0a14.147,14.147,0,1,0,.044-28.293A14.147,14.147,0,1,0,563.2,825.652ZM697.708,231.971a14.146,14.146,0,1,0-.31,28.289A14.145,14.145,0,1,0,697.708,231.971Zm-376.122,0a14.146,14.146,0,1,0-.311,28.289A14.145,14.145,0,1,0,321.586,231.971Zm107.672-53.777a14.085,14.085,0,1,0,13.762,14.548A14.048,14.048,0,0,0,429.258,178.194Zm160.847,0a14.081,14.081,0,1,0,14.113,14.205A14.039,14.039,0,0,0,590.105,178.189ZM213.877,637.06a14.024,14.024,0,1,0-13.942-13.9A13.986,13.986,0,0,0,213.877,637.06Zm591.079,0a14.024,14.024,0,1,0-13.97-13.868A13.984,13.984,0,0,0,804.956,637.061Zm-564.273-324.2a14.025,14.025,0,1,0,14.239,14.089A13.878,13.878,0,0,0,240.683,312.859Zm537.617,0A14.025,14.025,0,1,0,792.24,326.8,13.88,13.88,0,0,0,778.3,312.858ZM186.891,474.443a13.976,13.976,0,0,0,.216,27.95A13.976,13.976,0,1,0,186.891,474.443Zm644.994,27.95a13.976,13.976,0,1,0-.21-27.95A13.976,13.976,0,0,0,831.885,502.393ZM348.355,233.121a13.936,13.936,0,1,0-.1-27.872A13.936,13.936,0,0,0,348.355,233.121Zm322.491-27.872a13.937,13.937,0,0,0-.3,27.872A13.937,13.937,0,1,0,670.846,205.249ZM831.714,528.358a13.9,13.9,0,0,0,.356,27.806A13.9,13.9,0,1,0,831.714,528.358Zm-644.5,27.806a13.9,13.9,0,1,0-.21-27.806A13.9,13.9,0,0,0,187.216,556.164Zm214.794,269.2a13.87,13.87,0,0,0,.27-27.738A13.87,13.87,0,1,0,402.01,825.363Zm215.124-27.739a13.87,13.87,0,1,0-.124,27.739A13.87,13.87,0,0,0,617.134,797.624ZM187.205,448.439a13.869,13.869,0,0,0,.026-27.738A13.869,13.869,0,1,0,187.205,448.439ZM831.994,420.7a13.872,13.872,0,0,0-.436,27.737A13.871,13.871,0,1,0,831.994,420.7ZM804.98,339.969a13.835,13.835,0,0,0,.077,27.668A13.834,13.834,0,0,0,804.98,339.969ZM213.829,367.636a13.835,13.835,0,0,0,.281-27.668A13.835,13.835,0,0,0,213.829,367.636Zm80.59,403.734a13.716,13.716,0,0,0,.278-27.43A13.716,13.716,0,0,0,294.419,771.37Zm429.8-27.427a13.717,13.717,0,0,0,.383,27.43A13.717,13.717,0,0,0,724.221,743.943Zm27.09-26.928a13.718,13.718,0,0,0-.066,27.436A13.719,13.719,0,0,0,751.311,717.015Zm-483.8,27.434a13.719,13.719,0,0,0,.363-27.435A13.719,13.719,0,0,0,267.511,744.449Zm241.81-565.386a13.719,13.719,0,0,0,.329-27.435A13.719,13.719,0,0,0,509.321,179.063Zm-134.2,26.848a13.636,13.636,0,0,0-.151-27.272A13.637,13.637,0,0,0,375.117,205.911Zm268.463,0a13.637,13.637,0,0,0,.239-27.272A13.638,13.638,0,0,0,643.58,205.909ZM186.807,609.755a13.637,13.637,0,0,0,.346-27.272A13.638,13.638,0,0,0,186.807,609.755Zm644.918-27.269a13.637,13.637,0,0,0,.072,27.272A13.636,13.636,0,0,0,831.725,582.486ZM240.915,717.452a13.638,13.638,0,0,0-.406-27.272A13.639,13.639,0,0,0,240.915,717.452ZM777.852,690.18a13.638,13.638,0,0,0,.355,27.272A13.637,13.637,0,0,0,777.852,690.18ZM455.918,178.9a13.539,13.539,0,0,0-.34-27.074A13.538,13.538,0,0,0,455.918,178.9Zm80.226,646a13.539,13.539,0,0,0,.4,27.074A13.539,13.539,0,0,0,536.144,824.9Zm-53.513,0a13.537,13.537,0,0,0-.034,27.073A13.537,13.537,0,0,0,482.631,824.9ZM563.05,178.891a13.538,13.538,0,0,0,.324-27.073A13.537,13.537,0,0,0,563.05,178.891ZM321.407,771.182A13.411,13.411,0,1,0,321.656,798,13.411,13.411,0,0,0,321.407,771.182Zm376.432,0A13.411,13.411,0,1,0,697.468,798,13.411,13.411,0,0,0,697.839,771.186ZM186.51,393.949a13.228,13.228,0,1,0-12.743-13.475A13.142,13.142,0,0,0,186.51,393.949Zm27.609,269.714a13.224,13.224,0,1,0-.528,26.443A13.225,13.225,0,1,0,214.119,663.663Zm590.785,0a13.222,13.222,0,1,0,13.372,13.218A13.105,13.105,0,0,0,804.9,663.666Zm26.617-296.153a13.227,13.227,0,1,0,.5,26.45A13.228,13.228,0,1,0,831.521,367.513ZM590.135,825.319a13.1,13.1,0,0,0-.288,26.2A13.1,13.1,0,1,0,590.135,825.319Zm-161.159,0a13.1,13.1,0,0,0-.359,26.2A13.1,13.1,0,1,0,428.976,825.319ZM858.633,502.286a13.057,13.057,0,0,0,.259,26.112A13.057,13.057,0,1,0,858.633,502.286ZM160.2,528.4a13.056,13.056,0,1,0,.108-26.112A13.056,13.056,0,0,0,160.2,528.4ZM751.487,259.163a13.055,13.055,0,1,0-.378-26.107A13.055,13.055,0,0,0,751.487,259.163ZM670.511,798.442a13.055,13.055,0,0,0,.38,26.107A13.055,13.055,0,1,0,670.511,798.442Zm-322.162,0a13.054,13.054,0,0,0-.077,26.108A13.054,13.054,0,1,0,348.349,798.441ZM267.625,259.163a13.055,13.055,0,1,0,.175-26.109A13.055,13.055,0,0,0,267.625,259.163Zm-26.792,26.886a13.016,13.016,0,0,0,.249-26.031A13.016,13.016,0,1,0,240.833,286.049Zm537.484,0a13.017,13.017,0,0,0-.083-26.033A13.017,13.017,0,1,0,778.317,286.05ZM160.284,474.511a13.016,13.016,0,0,0,.153-26.032A13.016,13.016,0,1,0,160.284,474.511ZM617,178.357a13.016,13.016,0,0,0,.17-26.032A13.016,13.016,0,1,0,617,178.357Zm-215.05,0a13.016,13.016,0,0,0,.416-26.029A13.016,13.016,0,1,0,401.945,178.356ZM859.059,474.509a13.016,13.016,0,0,0-.373-26.029A13.016,13.016,0,1,0,859.059,474.509ZM294.422,232.168a12.985,12.985,0,1,0,.3-25.969A12.986,12.986,0,0,0,294.422,232.168Zm430.02,0a12.984,12.984,0,1,0-.033-25.968A12.984,12.984,0,0,0,724.442,232.169ZM831.783,637.011a12.949,12.949,0,0,0-.022,25.893A12.947,12.947,0,1,0,831.783,637.011Zm-644.455,0a12.953,12.953,0,0,0-.674,25.893A12.951,12.951,0,1,0,187.328,637.01Zm-27.157-80.769a12.948,12.948,0,0,0-.091,25.892A12.947,12.947,0,1,0,160.171,556.241Zm698.556,0a12.948,12.948,0,0,0-.178,25.892A12.947,12.947,0,1,0,858.727,556.241ZM214.075,312.859a12.9,12.9,0,0,0-.222-25.8A12.9,12.9,0,0,0,214.075,312.859Zm591,0a12.9,12.9,0,0,0-.121-25.8A12.9,12.9,0,0,0,805.074,312.858ZM697.433,205.1a12.829,12.829,0,1,0-12.622-13.049A12.866,12.866,0,0,0,697.433,205.1ZM536.508,151.17a12.742,12.742,0,0,0-.328-25.48A12.741,12.741,0,0,0,536.508,151.17Zm-53.8,0a12.741,12.741,0,0,0-.2-25.479A12.74,12.74,0,0,0,482.713,151.168Zm-161.419,53.85a12.746,12.746,0,0,0,.246-25.49A12.746,12.746,0,0,0,321.294,205.018ZM858.933,420.406a12.75,12.75,0,0,0,.05-25.489A12.746,12.746,0,1,0,858.933,420.406Zm-698.572,0a12.746,12.746,0,0,0-.279-25.489A12.745,12.745,0,0,0,160.361,420.407Zm483.51,405.387a12.644,12.644,0,1,0,.1,25.286A12.645,12.645,0,0,0,643.871,825.794Zm-268.74,0a12.643,12.643,0,1,0,.263,25.283A12.645,12.645,0,0,0,375.131,825.8Zm134.492,27.062a12.5,12.5,0,1,0-.274,25.007A12.5,12.5,0,0,0,509.623,852.858ZM831.7,339.4a12.505,12.505,0,0,0,.353-25.008A12.506,12.506,0,1,0,831.7,339.4Zm-644.694-.12a12.391,12.391,0,1,0-.034-24.781A12.391,12.391,0,1,0,187.006,339.282ZM563.14,853.043a12.309,12.309,0,1,0,.175,24.616A12.308,12.308,0,1,0,563.14,853.043Zm-106.874.011a12.31,12.31,0,1,0-1,24.6A12.309,12.309,0,1,0,456.266,853.054ZM858.793,610.8a12.241,12.241,0,1,0,12.267,12.164A12.172,12.172,0,0,0,858.793,610.8ZM428.5,150.658a12.244,12.244,0,1,0-11.89-12.532A12.186,12.186,0,0,0,428.5,150.658Zm-80.453,26.924a12.241,12.241,0,1,0-12.028-12.388A12.178,12.178,0,0,0,348.045,177.582Zm322.623,0a12.242,12.242,0,1,0-12.263-12.158A12.175,12.175,0,0,0,670.668,177.585ZM160.235,610.8a12.241,12.241,0,1,0,12.312,12.117A12.172,12.172,0,0,0,160.235,610.8Zm429.8-460.138a12.239,12.239,0,1,0-12.244-12.2A12.175,12.175,0,0,0,590.031,150.661Zm161.45,621.728a12.185,12.185,0,0,0-.371,24.368A12.186,12.186,0,1,0,751.481,772.389Zm-483.8,0a12.185,12.185,0,0,0,.058,24.369A12.185,12.185,0,1,0,267.681,772.39Zm510.534-26.924a12.185,12.185,0,0,0-.106,24.37A12.185,12.185,0,1,0,778.215,745.466Zm-537.329,0a12.185,12.185,0,0,0-.083,24.37A12.185,12.185,0,1,0,240.886,745.466Zm564.573-26.872a12.138,12.138,0,1,0-.644,24.268A12.138,12.138,0,0,0,805.459,718.594Zm-591.049,0a12.138,12.138,0,1,0-.644,24.268A12.138,12.138,0,0,0,214.41,718.594ZM133.485,476.309a12.106,12.106,0,0,0-.219,24.21A12.106,12.106,0,1,0,133.485,476.309Zm752.123,0a12.106,12.106,0,0,0,.024,24.211A12.106,12.106,0,1,0,885.608,476.309ZM724.279,799.43a12.067,12.067,0,0,0,.063,24.13A12.066,12.066,0,1,0,724.279,799.43Zm-430.117,0a12.07,12.07,0,0,0,.591,24.129A12.069,12.069,0,1,0,294.162,799.432ZM885.382,530.2a12.065,12.065,0,0,0,.248,24.124A12.063,12.063,0,1,0,885.382,530.2Zm-751.9.044a12.021,12.021,0,0,0-.222,24.04A12.021,12.021,0,0,0,133.482,530.246ZM858.806,365.825a12.02,12.02,0,0,0-.113-24.04A12.021,12.021,0,0,0,858.806,365.825Zm-698.482,0a12.02,12.02,0,0,0-.173-24.039A12.02,12.02,0,0,0,160.324,365.825Zm456.822,487.5a12.019,12.019,0,0,0-.379,24.034A12.019,12.019,0,0,0,617.146,853.326Zm-215.307,0a12.019,12.019,0,0,0,.381,24.034A12.019,12.019,0,0,0,401.839,853.328ZM831.771,691.856a11.954,11.954,0,1,0,11.97,11.961A12.054,12.054,0,0,0,831.771,691.856Zm-644.576,0a11.952,11.952,0,1,0,11.745,12.166A12.067,12.067,0,0,0,187.2,691.855ZM133.267,446.528a11.952,11.952,0,1,0-11.757-12.159A12.01,12.01,0,0,0,133.267,446.528Zm752.322,0a11.952,11.952,0,1,0-11.833-11.635A12,12,0,0,0,885.589,446.529ZM375.211,150.179a11.75,11.75,0,0,0,.1-23.494A11.748,11.748,0,1,0,375.211,150.179Zm268.479,0a11.744,11.744,0,0,0,.465-23.479A11.742,11.742,0,1,0,643.69,150.176Zm54.042,676.653a11.613,11.613,0,1,0-.374,23.222A11.613,11.613,0,0,0,697.732,826.829Zm-376.483.007a11.612,11.612,0,1,0,.348,23.22A11.611,11.611,0,0,0,321.249,826.836Zm-187.717-242.2a11.494,11.494,0,1,0-.111,22.982A11.492,11.492,0,0,0,133.532,584.633ZM240.874,230.69a11.489,11.489,0,1,0-.313-22.974A11.488,11.488,0,1,0,240.874,230.69Zm268.349-107.7a11.489,11.489,0,1,0,.307-22.975A11.489,11.489,0,1,0,509.223,122.993Zm268.952,107.7a11.491,11.491,0,0,0,.165-22.981A11.493,11.493,0,1,0,778.175,230.69Zm107.6,353.943a11.494,11.494,0,1,0-.112,22.982A11.492,11.492,0,0,0,885.777,584.633ZM805.114,257.518a11.4,11.4,0,1,0-11.627-11.527A11.414,11.414,0,0,0,805.114,257.518Zm-591.008,0a11.4,11.4,0,1,0-11.67-11.486A11.418,11.418,0,0,0,214.106,257.518ZM563.263,122.829a11.33,11.33,0,1,0-11.425-11.3A11.317,11.317,0,0,0,563.263,122.829ZM751.254,203.6A11.33,11.33,0,1,0,739.9,192.231,11.311,11.311,0,0,0,751.254,203.6Zm-483.691,0a11.331,11.331,0,1,0-11.243-11.471A11.312,11.312,0,0,0,267.563,203.6ZM455.6,122.827a11.331,11.331,0,1,0-11.218-11.5A11.308,11.308,0,0,0,455.6,122.827Zm402.986,542.73a11.331,11.331,0,1,0,11.571,11.16A11.225,11.225,0,0,0,858.586,665.557Zm-698.411,0a11.33,11.33,0,1,0,11.471,11.263A11.247,11.247,0,0,0,160.175,665.556ZM482.756,880.94a11.33,11.33,0,1,0,11.276,11.452A11.21,11.21,0,0,0,482.756,880.94Zm53.564,0a11.33,11.33,0,1,0,11.446,11.284A11.213,11.213,0,0,0,536.32,880.941ZM831.8,284.306a11.273,11.273,0,1,0-.042-22.542A11.272,11.272,0,0,0,831.8,284.306ZM186.715,284.3a11.274,11.274,0,1,0,.575-22.537A11.273,11.273,0,0,0,186.715,284.3Zm699,107.651a11.225,11.225,0,1,0-.179-22.448A11.225,11.225,0,0,0,885.718,391.951Zm-752.261,0a11.224,11.224,0,1,0-.145-22.448A11.224,11.224,0,0,0,133.457,391.951ZM294.472,176.526a11.189,11.189,0,1,0-.014-22.375A11.189,11.189,0,0,0,294.472,176.526Zm429.967,0a11.189,11.189,0,1,0-.241-22.374A11.19,11.19,0,0,0,724.439,176.526ZM670.539,854.2a11.146,11.146,0,0,0,.306,22.288A11.145,11.145,0,0,0,670.539,854.2Zm-322.186,0a11.145,11.145,0,0,0-.1,22.289A11.145,11.145,0,1,0,348.353,854.2Zm242,26.986a11.089,11.089,0,1,0,10.762,11.029A11.156,11.156,0,0,0,590.356,881.184Zm-161.52,0a11.089,11.089,0,1,0,11.085,11.153A11.147,11.147,0,0,0,428.836,881.183ZM858.75,310.967a11,11,0,0,0-.035-22A11,11,0,0,0,858.75,310.967ZM616.868,122.5a11,11,0,0,0,.145-22A11,11,0,0,0,616.868,122.5ZM160.248,310.967a11,11,0,0,0-.056-22A11,11,0,0,0,160.248,310.967ZM401.922,122.5a11,11,0,0,0,.182-22A11,11,0,0,0,401.922,122.5ZM106.355,504.485a10.876,10.876,0,0,0,.272,21.751A10.877,10.877,0,0,0,106.355,504.485Zm806.133,0a10.876,10.876,0,0,0-.043,21.752A10.877,10.877,0,0,0,912.488,504.481ZM885.326,639.256a10.735,10.735,0,0,0,.333,21.467A10.735,10.735,0,1,0,885.326,639.256Zm27.05-167a10.734,10.734,0,1,0-.035-21.467A10.734,10.734,0,0,0,912.376,472.258ZM133.306,639.251a10.734,10.734,0,0,0-.115,21.467A10.734,10.734,0,1,0,133.306,639.251ZM106.7,472.239a10.723,10.723,0,0,0-.184-21.442A10.723,10.723,0,1,0,106.7,472.239ZM321.333,149.017a10.589,10.589,0,1,0,.189-21.177A10.59,10.59,0,1,0,321.333,149.017Zm375.988,0a10.589,10.589,0,1,0,.457-21.174A10.591,10.591,0,1,0,697.321,149.014ZM912.727,558.7a10.5,10.5,0,1,0-.263,20.99A10.5,10.5,0,0,0,912.727,558.7Zm-806.059,0a10.5,10.5,0,1,0-.1,20.993A10.5,10.5,0,0,0,106.668,558.7Zm107.085,215.46a10.425,10.425,0,1,0,10.724,10.2A10.346,10.346,0,0,0,213.753,774.158Zm591.217,0a10.423,10.423,0,1,0,10.558,10.366A10.34,10.34,0,0,0,804.97,774.157ZM240.977,801.079a10.421,10.421,0,1,0,10.359,10.554A10.306,10.306,0,0,0,240.977,801.079Zm537.373,0a10.421,10.421,0,1,0,10.3,10.609A10.3,10.3,0,0,0,778.35,801.08ZM187.1,747.289a10.362,10.362,0,0,0,.041,20.723A10.362,10.362,0,1,0,187.1,747.289Zm644.715,0a10.362,10.362,0,0,0,.173,20.724A10.363,10.363,0,1,0,831.81,747.289ZM106.7,417.965a10.321,10.321,0,1,0-.583-20.631A10.321,10.321,0,0,0,106.7,417.965Zm805.718,0a10.318,10.318,0,1,0-.068-20.632A10.318,10.318,0,0,0,912.413,417.964ZM885.2,337.187a10.318,10.318,0,1,0,.618-20.624A10.319,10.319,0,0,0,885.2,337.187Zm-752.015,0a10.314,10.314,0,1,0,.158-20.625A10.315,10.315,0,0,0,133.189,337.188ZM374.83,881.95a10.317,10.317,0,0,0,.464,20.626A10.317,10.317,0,1,0,374.83,881.95Zm269.463,0.006a10.324,10.324,0,0,0-1.145,20.612A10.323,10.323,0,1,0,644.293,881.956ZM536.527,94.847A10.277,10.277,0,1,0,536.2,74.3,10.277,10.277,0,0,0,536.527,94.847Zm-53.91,0a10.276,10.276,0,1,0,.027-20.552A10.276,10.276,0,0,0,482.617,94.846Zm-214.849,733.3a10.278,10.278,0,0,0-.128,20.554A10.277,10.277,0,1,0,267.768,828.141Zm483.7,0a10.279,10.279,0,0,0-.358,20.554A10.279,10.279,0,1,0,751.468,828.14ZM160.415,720.581a10.153,10.153,0,1,0,9.843,10.565A10.3,10.3,0,0,0,160.415,720.581Zm698.214,0a10.153,10.153,0,1,0,10.162,10.262A10.294,10.294,0,0,0,858.629,720.585ZM509.435,909.045a10.153,10.153,0,1,0,10.1,10.326A10.281,10.281,0,0,0,509.435,909.045ZM670.5,121.542a10.041,10.041,0,0,0,.359-20.076A10.04,10.04,0,0,0,670.5,121.542Zm-322.224,0a10.039,10.039,0,0,0,.026-20.076A10.038,10.038,0,0,0,348.275,121.547Zm563.93,491.646a9.87,9.87,0,0,0,.311,19.738A9.87,9.87,0,1,0,912.205,613.193ZM106.5,613.186a9.869,9.869,0,0,0-.225,19.737A9.869,9.869,0,1,0,106.5,613.186ZM455.546,909.347a9.869,9.869,0,0,0,.19,19.737A9.869,9.869,0,1,0,455.546,909.347Zm107.411,0a9.87,9.87,0,0,0,.295,19.737A9.87,9.87,0,1,0,562.957,909.348ZM589.936,94.3a9.715,9.715,0,1,0,.292-19.427A9.716,9.716,0,1,0,589.936,94.3Zm-160.846.008a9.716,9.716,0,1,0-.407-19.427A9.717,9.717,0,1,0,429.09,94.305ZM294.4,855.649a9.716,9.716,0,1,0,.319,19.427A9.715,9.715,0,1,0,294.4,855.649Zm430.173-.007a9.715,9.715,0,1,0-.32,19.426A9.714,9.714,0,1,0,724.571,855.642Zm80.166-653.854a9.523,9.523,0,1,0-9.31-9.47A9.412,9.412,0,0,0,804.737,201.788Zm-590.776,0a9.524,9.524,0,1,0-.191-19.044A9.523,9.523,0,0,0,213.961,201.792ZM885.689,694.345a9.46,9.46,0,0,0-.122,18.919A9.46,9.46,0,1,0,885.689,694.345ZM831.9,228.654a9.463,9.463,0,1,0,0-18.925A9.463,9.463,0,0,0,831.9,228.654Zm-644.754,0a9.463,9.463,0,1,0-.056-18.925A9.463,9.463,0,0,0,187.143,228.654ZM133.437,694.345a9.46,9.46,0,0,0-.107,18.919A9.46,9.46,0,1,0,133.437,694.345Zm-26.8-331.08a9.461,9.461,0,1,0-.237-18.919A9.46,9.46,0,0,0,106.636,363.265Zm805.648,0a9.461,9.461,0,1,0,.42-18.917A9.461,9.461,0,0,0,912.284,363.261ZM778.2,174.8a9.46,9.46,0,1,0-.062-18.919A9.46,9.46,0,0,0,778.2,174.8Zm-537.469-.045a9.418,9.418,0,1,0,.017-18.833A9.418,9.418,0,0,0,240.727,174.757ZM79.466,479.007a9.412,9.412,0,0,0,.147,18.819A9.411,9.411,0,1,0,79.466,479.007Zm859.877,0a9.413,9.413,0,0,0-.191,18.821A9.413,9.413,0,1,0,939.343,479.005ZM858.772,255.477a9.368,9.368,0,0,0,.191-18.734A9.367,9.367,0,1,0,858.772,255.477Zm-698.527,0a9.363,9.363,0,0,0,.219-18.723A9.362,9.362,0,1,0,160.245,255.472Zm779,277.432a9.361,9.361,0,1,0,.434,18.717A9.361,9.361,0,0,0,939.248,532.9ZM616.874,909.827a9.361,9.361,0,1,0,.4,18.718A9.362,9.362,0,0,0,616.874,909.827Zm-214.623,0a9.363,9.363,0,1,0-.208,18.724A9.363,9.363,0,0,0,402.251,909.827ZM79.744,532.958a9.31,9.31,0,1,0,9.147,9.645A9.423,9.423,0,0,0,79.744,532.958Zm0.031-89.164a9.21,9.21,0,0,0-.295-18.415A9.209,9.209,0,0,0,79.774,443.794ZM321.383,883.07a9.206,9.206,0,1,0,.3,18.41A9.21,9.21,0,0,0,321.383,883.07Zm618.1-439.276a9.21,9.21,0,0,0-.3-18.415A9.209,9.209,0,0,0,939.483,443.794ZM750.841,147.623a9.207,9.207,0,0,0,.643-18.4A9.209,9.209,0,0,0,750.841,147.623Zm-483.011.015a9.213,9.213,0,0,0-.062-18.42A9.21,9.21,0,1,0,267.83,147.638ZM697.706,883.064a9.21,9.21,0,0,0-.55,18.408A9.208,9.208,0,0,0,697.706,883.064ZM643.869,93.647a9.052,9.052,0,1,0-.353-18.1A9.052,9.052,0,0,0,643.869,93.647ZM375,93.64a9.051,9.051,0,1,0,.066-18.1A9.051,9.051,0,0,0,375,93.64ZM885.467,281.76a8.721,8.721,0,1,0,.3-17.439A8.722,8.722,0,1,0,885.467,281.76Zm-751.984,0a8.721,8.721,0,1,0-.224-17.44A8.722,8.722,0,1,0,133.483,281.765ZM939.051,587.492a8.635,8.635,0,1,0,9.018,8.43A8.576,8.576,0,0,0,939.051,587.492ZM106.3,668.26a8.633,8.633,0,1,0,8.941,8.521A8.606,8.606,0,0,0,106.3,668.26Zm806.21,0a8.634,8.634,0,1,0,8.707,8.759A8.619,8.619,0,0,0,912.506,668.256ZM79.439,587.49a8.633,8.633,0,1,0,8.925,8.528A8.56,8.56,0,0,0,79.439,587.49ZM509.647,66.215a8.567,8.567,0,1,0-.5-17.122A8.565,8.565,0,0,0,509.647,66.215Zm214.717,53.793a8.516,8.516,0,1,0,.137-17.031A8.516,8.516,0,0,0,724.364,120.008Zm-429.669,0a8.516,8.516,0,1,0-.232-17.03A8.516,8.516,0,0,0,294.7,120.009Zm268.514-53.9a8.466,8.466,0,1,0-.187-16.928A8.468,8.468,0,0,0,563.209,66.114Zm-107.6,0a8.466,8.466,0,1,0,.084-16.928A8.467,8.467,0,0,0,455.61,66.112Zm27.372,871.554a8.456,8.456,0,0,0-.711,16.895A8.455,8.455,0,1,0,482.982,937.666Zm53,0a8.455,8.455,0,0,0,.76,16.892A8.455,8.455,0,1,0,535.978,937.666ZM939.651,389.12a8.394,8.394,0,0,0-.4-16.779A8.392,8.392,0,1,0,939.651,389.12Zm-859.708,0a8.394,8.394,0,0,0-.4-16.779A8.392,8.392,0,1,0,79.943,389.12Zm590.78,521.811a8.275,8.275,0,1,0,.119,16.549A8.279,8.279,0,0,0,670.723,910.931Zm-322.537,0a8.269,8.269,0,0,0-.036,16.534A8.267,8.267,0,0,0,348.186,910.936ZM831.724,803.245a8.269,8.269,0,0,0,.06,16.534A8.267,8.267,0,0,0,831.724,803.245Zm-644.371,0a8.271,8.271,0,1,0-.313,16.539A8.275,8.275,0,0,0,187.353,803.241Zm617.6,26.954a8.239,8.239,0,0,0-.128,16.476A8.238,8.238,0,0,0,804.953,830.2Zm-590.915,0a8.242,8.242,0,0,0-.4,16.476A8.24,8.24,0,0,0,214.038,830.191ZM106.652,308.062a7.98,7.98,0,0,0,7.831-8.477,7.872,7.872,0,0,0-8.15-7.668A8.074,8.074,0,1,0,106.652,308.062Zm805.82-.007a8.072,8.072,0,0,0-.007-16.144A8.072,8.072,0,1,0,912.472,308.055ZM858.716,776.528a8.073,8.073,0,1,0,.042,16.145A8.073,8.073,0,0,0,858.716,776.528Zm-698.5,0a8.073,8.073,0,1,0,.023,16.146A8.073,8.073,0,0,0,160.213,776.527ZM429.1,938.368a7.753,7.753,0,1,0-.613,15.494A7.756,7.756,0,1,0,429.1,938.368Zm160.961,0a7.75,7.75,0,1,0,7.883,7.822A7.728,7.728,0,0,0,590.056,938.372Zm188.5-80.763a7.753,7.753,0,1,0,7.436,7.92A7.748,7.748,0,0,0,778.558,857.609Zm-538.133,0a7.753,7.753,0,1,0,8.252,7.552A7.728,7.728,0,0,0,240.425,857.608Zm161.7-792.287a7.673,7.673,0,1,0-.394-15.334A7.671,7.671,0,0,0,402.126,65.321Zm214.927,0a7.673,7.673,0,1,0-.394-15.334A7.671,7.671,0,0,0,617.053,65.321ZM939.436,642.337a7.623,7.623,0,0,0-.16,15.244A7.623,7.623,0,1,0,939.436,642.337ZM885.747,750.031a7.617,7.617,0,1,0-.02,15.233A7.617,7.617,0,0,0,885.747,750.031ZM321.431,92.183a7.616,7.616,0,1,0-.2-15.226A7.616,7.616,0,0,0,321.431,92.183Zm375.769,0a7.62,7.62,0,1,0,.5-15.228A7.62,7.62,0,0,0,697.2,92.18ZM79.319,642.345a7.618,7.618,0,0,0,.437,15.226A7.618,7.618,0,1,0,79.319,642.345Zm53.82,107.691a7.616,7.616,0,0,0,.26,15.226A7.616,7.616,0,1,0,133.139,750.036Zm833.4-242.245a7.56,7.56,0,0,0-.634,15.1A7.559,7.559,0,1,0,966.537,507.791Zm-914.005,0a7.561,7.561,0,0,0,.053,15.108A7.558,7.558,0,1,0,52.532,507.789Zm913.812-38.795a7.489,7.489,0,1,0-7.524-7.352A7.642,7.642,0,0,0,966.344,468.994Zm-913.557-.028a7.462,7.462,0,1,0-7.4-7.441A7.564,7.564,0,0,0,52.787,468.966ZM751.358,884.951a7.329,7.329,0,0,0-.175,14.656A7.33,7.33,0,0,0,751.358,884.951Zm-483.883.013a7.5,7.5,0,0,0-7.079,7.747,7.6,7.6,0,0,0,7.5,6.907A7.331,7.331,0,0,0,267.475,884.964ZM52.815,562.17a7.036,7.036,0,1,0-.11,14.067A7.034,7.034,0,1,0,52.815,562.17Zm913.414,0a7.035,7.035,0,1,0-.058,14.067A7.034,7.034,0,1,0,966.229,562.171ZM79.267,333.764A6.887,6.887,0,1,0,80,320.011,6.888,6.888,0,1,0,79.267,333.764Zm860.291,0.011A6.887,6.887,0,0,0,939.574,320,6.9,6.9,0,1,0,939.558,333.775ZM106.738,723.944a6.793,6.793,0,1,0-.213,13.58A6.791,6.791,0,0,0,106.738,723.944Zm806,0a6.793,6.793,0,1,0-.264,13.579A6.791,6.791,0,0,0,912.739,723.945ZM187.108,172.139a6.793,6.793,0,1,0-.2-13.578A6.79,6.79,0,0,0,187.108,172.139Zm644.728,0a6.792,6.792,0,1,0-.1-13.577A6.789,6.789,0,0,0,831.836,172.137ZM375.249,939.327a6.787,6.787,0,0,0-.36,13.569A6.79,6.79,0,1,0,375.249,939.327ZM858.8,199.054a6.787,6.787,0,0,0,.15-13.573A6.788,6.788,0,1,0,858.8,199.054Zm-698.62,0a6.785,6.785,0,0,0,.365-13.566A6.786,6.786,0,1,0,160.184,199.051ZM643.871,939.328a6.788,6.788,0,1,0,.159,13.573A6.787,6.787,0,0,0,643.871,939.328Zm161.051-794.2a6.72,6.72,0,1,0,.009-13.434A6.719,6.719,0,0,0,804.922,145.132Zm160.9,269.241a6.732,6.732,0,1,0,.611-13.446A6.732,6.732,0,0,0,965.818,414.373Zm-913.04,0a6.727,6.727,0,1,0-.188-13.448A6.726,6.726,0,0,0,52.778,414.375Zm161.3-269.243a6.72,6.72,0,1,0-.407-13.429A6.72,6.72,0,0,0,214.079,145.132Zm671.6,80.634a6.566,6.566,0,1,0-6.555-6.6A6.724,6.724,0,0,0,885.681,225.766ZM536.424,37.3a6.566,6.566,0,1,0-6.554-6.6A6.721,6.721,0,0,0,536.424,37.3Zm-53.766,0a6.725,6.725,0,0,0,6.434-6.721A6.479,6.479,0,1,0,482.658,37.3ZM133.272,225.759A6.564,6.564,0,1,0,126.889,219,6.67,6.67,0,0,0,133.272,225.759ZM670.92,64.03a6.351,6.351,0,0,0,6-6.51,6.261,6.261,0,0,0-6.285-6.205A6.36,6.36,0,1,0,670.92,64.03ZM294.6,912.851a6.367,6.367,0,1,0,.121,12.731,6.376,6.376,0,0,0,6.088-6.439A6.287,6.287,0,0,0,294.6,912.851Zm429.8,0a6.5,6.5,0,0,0-6.363,6.687,6.588,6.588,0,0,0,6.589,6.034,6.36,6.36,0,0,0,6.031-6.485A6.271,6.271,0,0,0,724.4,912.854ZM348.3,64.033a6.368,6.368,0,0,0,.184-12.727A6.365,6.365,0,1,0,348.3,64.033Zm429.892,53.554a6.078,6.078,0,0,0,.138-12.154A6.084,6.084,0,1,0,778.188,117.587Zm-537.284,0a6.074,6.074,0,1,0-.373-12.138A6.072,6.072,0,1,0,240.9,117.588Zm268.272,849.4a6.073,6.073,0,1,0,.4,12.138A6.075,6.075,0,1,0,509.176,966.991Zm457.111-349.88a5.931,5.931,0,1,0-.358,11.856A5.935,5.935,0,1,0,966.287,617.111Zm-913.23.007a5.932,5.932,0,1,0-.326,11.85A5.927,5.927,0,0,0,53.057,617.118ZM428.525,36.558a5.84,5.84,0,1,0,.547-11.661,5.683,5.683,0,0,0-5.962,5.786A5.655,5.655,0,0,0,428.525,36.558ZM939.348,697.976a5.834,5.834,0,0,0-.2,11.663A5.836,5.836,0,1,0,939.348,697.976ZM589.808,36.56A5.838,5.838,0,1,0,590.18,24.9,5.675,5.675,0,0,0,584.3,30.77,5.653,5.653,0,0,0,589.808,36.56Zm-133.7,930.654a5.845,5.845,0,0,0-.886,11.652A5.846,5.846,0,1,0,456.107,967.214Zm107.3-.007a5.84,5.84,0,0,0-.555,11.662A5.841,5.841,0,1,0,563.405,967.207ZM79.557,697.978a5.828,5.828,0,0,0-.03,11.652A5.83,5.83,0,1,0,79.557,697.978ZM912.623,251.894a5.786,5.786,0,1,0-.5-11.557A5.787,5.787,0,0,0,912.623,251.894Zm-806.33-.006A6.028,6.028,0,0,0,112.348,246a6.092,6.092,0,0,0-5.845-5.672A5.783,5.783,0,0,0,106.293,251.888ZM966.009,359.261a5.451,5.451,0,0,0,.38-10.893A5.45,5.45,0,1,0,966.009,359.261ZM52.754,359.2a5.254,5.254,0,0,0,5.326-5.381,5.188,5.188,0,0,0-5.314-5.365A5.374,5.374,0,1,0,52.754,359.2ZM751.037,89.955a5.376,5.376,0,0,0,.47-10.74A5.376,5.376,0,1,0,751.037,89.955Zm-483.585,0a5.376,5.376,0,0,0,.47-10.74A5.376,5.376,0,1,0,267.452,89.955ZM321.411,941.15a4.966,4.966,0,0,0-.148,9.929A4.97,4.97,0,1,0,321.411,941.15Zm376.1,0a4.966,4.966,0,0,0-.1,9.93A4.97,4.97,0,1,0,697.511,941.15ZM993,493.327a4.906,4.906,0,1,0-.029-9.805A4.9,4.9,0,0,0,993,493.327ZM25.97,483.518a4.908,4.908,0,0,0-.305,9.807,5.079,5.079,0,0,0,5.246-4.965A5.157,5.157,0,0,0,25.97,483.518ZM616.888,968.146a4.889,4.889,0,0,0-4.751,4.875,4.839,4.839,0,0,0,4.706,4.9A4.891,4.891,0,1,0,616.888,968.146Zm-215.051,0a4.878,4.878,0,0,0-4.622,5,4.828,4.828,0,0,0,4.824,4.78,5.046,5.046,0,0,0,4.936-5.2A5.121,5.121,0,0,0,401.837,968.149Zm591.352-430.68a5,5,0,0,0-4.8,4.367,4.722,4.722,0,1,0,9.413.665A5,5,0,0,0,993.189,537.469ZM160.295,833.625a4.807,4.807,0,1,0,4.66,4.54A5.03,5.03,0,0,0,160.295,833.625ZM939.453,277.837a4.794,4.794,0,1,0-4.785-4.351A4.947,4.947,0,0,0,939.453,277.837ZM25.742,537.481a4.8,4.8,0,0,0,.108,9.59A4.8,4.8,0,1,0,25.742,537.481ZM858.584,833.636a4.8,4.8,0,0,0,.107,9.59A4.8,4.8,0,1,0,858.584,833.636Zm-26.717,26.947a4.77,4.77,0,1,0,4.679,4.542A4.9,4.9,0,0,0,831.867,860.583ZM79.461,277.8a4.907,4.907,0,0,0,4.865-4.812A4.691,4.691,0,1,0,79.461,277.8ZM187.23,860.575a4.773,4.773,0,1,0,4.554,4.693A4.926,4.926,0,0,0,187.23,860.575Zm187.7-825.308a4.528,4.528,0,0,0,.408-9.045,4.8,4.8,0,0,0-4.756,4.318A4.761,4.761,0,0,0,374.928,35.267Zm269.065,0.027a4.565,4.565,0,0,0,4.256-4.751,4.44,4.44,0,0,0-4.66-4.293,4.653,4.653,0,0,0-4.349,4.7A4.864,4.864,0,0,0,643.993,35.294ZM25.648,439.029a4.443,4.443,0,1,0,.243-8.88A4.442,4.442,0,0,0,25.648,439.029Zm107.705,368a4.7,4.7,0,0,0-4.56,4.586A4.8,4.8,0,0,0,133.107,816,4.489,4.489,0,1,0,133.353,807.025ZM993.1,439.1a4.508,4.508,0,0,0,.118-9.008A4.507,4.507,0,1,0,993.1,439.1ZM885.513,807.031a4.639,4.639,0,0,0-4.469,4.665,4.8,4.8,0,0,0,4.835,4.31,4.493,4.493,0,0,0,4.157-4.459A4.43,4.43,0,0,0,885.513,807.031ZM52.741,672.742a4.159,4.159,0,1,0,.072,8.309A4.156,4.156,0,1,0,52.741,672.742Zm913.379,0a4.16,4.16,0,1,0,.192,8.308A4.157,4.157,0,1,0,966.12,672.745ZM214.013,888.136a4.14,4.14,0,1,0-.065,8.273A4.138,4.138,0,1,0,214.013,888.136Zm591.064,0a4.141,4.141,0,1,0-.1,8.274A4.139,4.139,0,1,0,805.077,888.134ZM294.238,61.68a4.043,4.043,0,1,0,.27-8.056A4.035,4.035,0,0,0,294.238,61.68Zm430.4,0a4.078,4.078,0,0,0,3.956-3.99,4.123,4.123,0,0,0-4.338-4.067A4.033,4.033,0,1,0,724.64,61.683ZM992.857,592.1a3.917,3.917,0,0,0-3.731,4.145,3.875,3.875,0,0,0,3.994,3.875,4.125,4.125,0,0,0,4.05-4.358A4.22,4.22,0,0,0,992.857,592.1ZM912.479,780.636a3.979,3.979,0,0,0-3.837,3.619,3.926,3.926,0,0,0,3.617,4.258,4.233,4.233,0,0,0,4.183-3.816A4.287,4.287,0,0,0,912.479,780.636Zm-806.295.016a3.948,3.948,0,0,0,.418,7.875A3.945,3.945,0,1,0,106.184,780.652Zm-80.2-188.483a3.948,3.948,0,0,0-.387,7.877,4.207,4.207,0,0,0,4.254-3.729A4.288,4.288,0,0,0,25.989,592.169ZM509.286,7.695a4.108,4.108,0,0,0,4-3.469,4.123,4.123,0,0,0-3.609-4.313,4.035,4.035,0,0,0-3.974,3.48A3.956,3.956,0,0,0,509.286,7.695ZM777.911,915.717a3.806,3.806,0,0,0-3.42,3.493,3.887,3.887,0,0,0,3.885,3.519,3.44,3.44,0,0,0,3.272-3.54A3.369,3.369,0,0,0,777.911,915.717ZM240.937,915.7a3.511,3.511,0,1,0-.221,7.014,3.4,3.4,0,0,0,3.607-3.621A3.364,3.364,0,0,0,240.937,915.7ZM563.027,7.057a3.144,3.144,0,0,0,3.565-3.044A3.168,3.168,0,0,0,563.419.558a3.379,3.379,0,0,0-3.624,3.062A3.3,3.3,0,0,0,563.027,7.057ZM992.881,383.981a3.258,3.258,0,1,0,.392-6.5,3.379,3.379,0,0,0-3.624,3.062A3.3,3.3,0,0,0,992.881,383.981Zm-966.971.008a3.253,3.253,0,1,0-.008-6.5A3.257,3.257,0,1,0,25.91,383.989ZM966.061,303.2a3.236,3.236,0,1,0,.082-6.454,3.152,3.152,0,0,0-3.279,3.4A3.081,3.081,0,0,0,966.061,303.2Zm-913.281,0a3.236,3.236,0,1,0-.236-6.451A3.228,3.228,0,1,0,52.78,303.2ZM455.563,7.057a3.144,3.144,0,0,0,3.566-3.044A3.168,3.168,0,0,0,455.956.558a3.381,3.381,0,0,0-3.625,3.062A3.3,3.3,0,0,0,455.563,7.057Zm-107.54,962.77a3.231,3.231,0,1,0,.327,6.453A3.239,3.239,0,1,0,348.023,969.827Zm322.484,0a3.145,3.145,0,0,0-3.152,3.508,3.069,3.069,0,0,0,3.293,2.946A3.236,3.236,0,1,0,670.507,969.824ZM482.4,996.777a3.166,3.166,0,0,0-3.081,3.188,3.068,3.068,0,0,0,3.091,3.135,3.171,3.171,0,0,0,3.55-3.141A3.273,3.273,0,0,0,482.4,996.777Zm-53.824,0a3.167,3.167,0,0,0-3.081,3.188,3.069,3.069,0,0,0,3.092,3.135,3.171,3.171,0,0,0,3.549-3.141A3.272,3.272,0,0,0,428.576,996.777Zm107.885-.009a3.169,3.169,0,0,0-3.393,3.312,3.011,3.011,0,0,0,3.18,3.02,3.179,3.179,0,0,0,3.432-3.263A3.22,3.22,0,0,0,536.461,996.768Zm53.8,0a3.169,3.169,0,0,0-3.393,3.312,3.011,3.011,0,0,0,3.18,3.02,3.179,3.179,0,0,0,3.432-3.263A3.22,3.22,0,0,0,590.259,996.768Z" transform="translate(-21.063)"/>
</svg>
