<svg xmlns="http://www.w3.org/2000/svg" width="998.094" height="998" viewBox="0 0 998.094 998">
  <defs>
    <style>
      .cls-1 {
        fill: #a6b4bf;
        fill-rule: evenodd;
      }
    </style>
  </defs>
  <path class="cls-1" d="M466.4,498.173a24.337,24.337,0,0,0,34.836.09,24.587,24.587,0,1,0-35.042-34.5A24.369,24.369,0,0,0,466.4,498.173Zm85.425-34.853a24.643,24.643,0,0,0-34.843.5,24.562,24.562,0,0,0,35.085,34.38A24.727,24.727,0,0,0,551.824,463.32Zm-50.7,50.843a24.745,24.745,0,0,0-34.954.464,24.562,24.562,0,0,0,35.072,34.393A24.606,24.606,0,0,0,501.123,514.163ZM466.579,413.016a24.1,24.1,0,0,0-.244,34.169,24.449,24.449,0,0,0,35.111-34.033C492.1,403.575,476.182,403.517,466.579,413.016ZM415.85,463.745a24.412,24.412,0,0,0-.012,34.312,24.07,24.07,0,0,0,34.174.553,24.8,24.8,0,0,0,.562-34.963A24.5,24.5,0,0,0,415.85,463.745Zm135.906,85.274a24.424,24.424,0,1,0-34.37-34.708A24.423,24.423,0,0,0,551.756,549.019Zm-135.226.015a24.106,24.106,0,0,0,34.034-.23,24.426,24.426,0,0,0-34.752-34.334A24.347,24.347,0,0,0,416.53,549.034ZM517.579,447.56a24.229,24.229,0,1,0,34.152-34.378,24.679,24.679,0,0,0-34.79.157A24.145,24.145,0,0,0,517.579,447.56Zm84.342,50.78a24.774,24.774,0,0,0-.072-34.681,24.12,24.12,0,0,0-33.951.1,24.5,24.5,0,0,0,.142,34.325A23.846,23.846,0,0,0,601.921,498.34ZM415.969,447.359a24.161,24.161,0,0,0,34.116.377c9.712-9.411,9.86-25.312.393-34.638a24.477,24.477,0,0,0-34.122.237A24.189,24.189,0,0,0,415.969,447.359ZM501.023,599.23a24.119,24.119,0,0,0-.154-34.385,24.769,24.769,0,0,0-34.415.356,23.852,23.852,0,0,0,.4,33.855A24.482,24.482,0,0,0,501.023,599.23Zm50.868-33.978c-9.051-9.393-24.741-9.58-34.332-.37a23.909,23.909,0,0,0-.49,33.92,24.409,24.409,0,0,0,34.122.36A24.058,24.058,0,0,0,551.891,565.252Zm50.426-50.563c-8.85-9.494-24.373-9.809-33.965-.6a24.469,24.469,0,0,0-.713,34.276,23.881,23.881,0,0,0,33.852.5A24.579,24.579,0,0,0,602.317,514.689ZM466.454,396.62a24.589,24.589,0,0,0,34.3.655,23.525,23.525,0,0,0,.346-33.611,24.609,24.609,0,0,0-34.131-.213A23.545,23.545,0,0,0,466.454,396.62ZM366.5,498.127a23.531,23.531,0,0,0,33.6-.191,24.6,24.6,0,0,0-.092-33.9,23.528,23.528,0,0,0-33.6-.027A24.575,24.575,0,0,0,366.5,498.127ZM450.735,598.8c9.042-9.09,8.99-24.084-.214-33.492-9.307-9.516-24.86-9.732-34.125-.545-9.242,9.16-9.018,24.465.387,33.78S441.581,608,450.735,598.8ZM601.46,413.883c-9.3-9.409-24.614-9.631-33.8-.383-9.022,9.082-9,24.311.123,33.689,9.335,9.6,24.658,9.856,33.9.663C610.9,438.684,610.765,423.3,601.46,413.883Zm-50.237-16.5c9.368-9.027,9.247-24.085-.146-33.39s-24.58-9.517-33.885-.428a23.515,23.515,0,0,0-.092,33.091C526.363,406.1,541.858,406.405,551.223,397.383ZM366.255,514.509c-8.913,9.415-8.537,24.692.785,33.924a23.52,23.52,0,0,0,33.019.116c9.207-9.244,9.072-24.641-.345-34.077S375.165,505.1,366.255,514.509Zm234.784,83.739a23.46,23.46,0,1,0-33.081-33.267c-9.39,9.311-9.418,24.793-.154,33.785C576.9,607.592,591.9,607.318,601.039,598.248Zm-183.9-234.229c-9.361,9.081-9.583,24.336-.362,33.4,9.047,8.891,24.273,8.793,33.564-.28a23.246,23.246,0,0,0,.091-33.425A23.952,23.952,0,0,0,417.137,364.019ZM367.17,413.982c-9.268,9.125-9.536,24.584-.515,33.793,8.858,9.04,23.788,9.074,33.091-.04a23.992,23.992,0,0,0,.334-33.9A23.226,23.226,0,0,0,367.17,413.982ZM399.843,564.89c-9.325-9.294-23.905-9.395-32.755-.354-8.766,8.953-8.5,23.767.484,32.932,9.1,9.285,24.336,9.558,33.138.454C409.545,588.784,409.208,574.214,399.843,564.89Zm150.743,82.788a22.5,22.5,0,0,0,.5-32.392,23.894,23.894,0,0,0-33.366-.313,22.827,22.827,0,0,0-.425,32.961C526.37,656.644,541.375,656.512,550.586,647.678Zm49.676-282.862c-9.274-9.146-23.746-9.473-32.821-.632-8.966,8.737-8.933,23.627.2,32.876,9.237,9.362,24.771,9.489,33.561.378C610.02,388.3,609.549,373.986,600.262,364.816ZM500.8,647.867a22.485,22.485,0,0,0-.08-32.459,24.007,24.007,0,0,0-33.459-.376,22.8,22.8,0,0,0,.171,32.934C476.683,656.711,491.748,656.678,500.8,647.867ZM650.576,547.7a23.946,23.946,0,0,0,.129-33.165,22.463,22.463,0,0,0-32.441-.107c-9.262,9.247-9.338,24.869-.205,33.91A22.871,22.871,0,0,0,650.576,547.7Zm-0.006-83.208a22.446,22.446,0,0,0-32.42-.34c-8.987,9.041-9.087,24.28-.2,33.579a22.862,22.862,0,0,0,32.988.01A24.041,24.041,0,0,0,650.57,464.489Zm-0.5-49.377c-9.046-9.417-23.146-9.912-32.237-.968-8.98,8.83-9.053,23.849-.085,33.26a22.745,22.745,0,0,0,32.5.63C659.146,439.076,659.027,424.444,650.071,415.112ZM450.361,615.179c-9.381-9.226-24.078-9.38-33.136-.428a22.662,22.662,0,0,0,.446,32.356c9.138,8.909,24.041,9.146,33.056.44C459.829,638.754,459.733,624.388,450.361,615.179ZM367.463,397.9c8.626,8.7,23.122,8.582,32.379-.378,9.494-9.182,9.875-23.765.974-32.692-8.977-9-23.2-8.742-32.489.463C359.12,374.427,358.679,389.044,367.463,397.9Zm-48.736,66.735a23.991,23.991,0,0,0-.311,33.126,21.866,21.866,0,0,0,31.6.031,23.764,23.764,0,0,0,.215-33.3A21.634,21.634,0,0,0,318.727,464.639ZM650.446,564.763c-8.683-9.279-22.939-9.374-32.307-.059-9.335,9.274-9.653,24.148-.8,33,8.7,8.7,22.888,8.343,31.872-.656C658.274,587.962,658.857,573.754,650.446,564.763Zm-49.7,50.02c-8.9-9.1-23.436-9.043-32.894.212-9.4,9.2-9.579,23.837-.533,32.4,8.946,8.47,23.254,8.06,32.368-.834C608.861,637.6,609.391,623.622,600.743,614.783ZM467.7,315.671a21.856,21.856,0,0,0-.572,31.588c8.926,9.017,24.112,9.037,33.382.036,9.171-8.9,9.2-22.793.225-31.52A23.734,23.734,0,0,0,467.7,315.671Zm49.777-.061a21.864,21.864,0,0,0,.09,31.981c9.214,8.77,23.893,8.805,32.855.134,9.2-8.9,8.927-22.921-.443-31.819A23.633,23.633,0,0,0,517.479,315.61ZM318.893,547.352a21.846,21.846,0,0,0,31.494.407,23.658,23.658,0,0,0,.237-32.754c-9-9.565-23.059-9.776-31.9-.65A23.86,23.86,0,0,0,318.893,547.352ZM417.762,348.1c8.926,8.522,23.407,8.273,32.593-.625,9.222-8.927,9.471-22.836.725-31.4-8.986-8.8-23.367-8.646-32.684.272C409.1,325.254,408.735,339.485,417.762,348.1ZM318.6,447.921c8.528,9.043,22.818,8.873,31.853-.543,8.872-9.242,9.024-23.679.408-32.531-8.786-9.03-22.782-8.627-31.7.737C310.471,424.727,310.192,439,318.6,447.921Zm330.673-49.682c8.541-8.724,8.211-22.728-.6-31.773-9.022-9.248-23.1-9.694-31.9-.839-8.583,8.643-8.289,22.954.789,32.037C626.655,406.771,640.739,406.954,649.275,398.239Zm-281.2,216.09c-8.426,8.734-7.742,22.775,1.379,31.508,9.188,8.791,23.06,9.052,31.775.448,8.659-8.55,8.4-22.66-.746-31.7C391.194,605.4,376.737,605.343,368.07,614.329ZM567.064,316.417c-8.881,8.408-8.8,22.228.347,31.281s23.47,9.359,32.206.794,8.4-22.342-.571-31.147C590.059,308.532,575.886,308.067,567.064,316.417ZM320.427,596.208c8.964,8.988,22.55,9.23,31.1.368,8.448-8.752,8.047-23.219-1-32.247-9.019-9.009-22.943-8.956-31.307-.062C310.9,573.12,311.483,587.232,320.427,596.208Zm179.849,67.766a23.781,23.781,0,0,0-32.571.182c-8.944,8.654-8.627,22.189.519,30.692a23.48,23.48,0,0,0,32.2-.077A20.968,20.968,0,0,0,500.276,663.974ZM697.752,465.119a20.973,20.973,0,0,0-30.767-.229,23.527,23.527,0,0,0,.091,32.5c8.724,9.118,22.253,9.034,30.728.006A23.749,23.749,0,0,0,697.752,465.119Zm-376.93-98.112c-8.866,9.034-9.3,22.887-.868,31.572s22.171,8.319,31.15-.975c8.7-8.993,9-23.113.789-31.512C343.541,357.552,329.63,358.038,320.822,367.007ZM549.345,694.659c9.152-8.525,9.61-22.221.836-30.774-8.753-8.536-23.449-8.424-32.536.287-8.983,8.6-9.091,21.977-.429,30.347A23.326,23.326,0,0,0,549.345,694.659Zm98.38-49.807c8.931-8.927,9.462-22.933,1.043-31.4s-22.617-8.028-31.637,1.117c-8.857,8.967-9.1,22.75-.7,31.121C625.032,654.26,638.744,653.821,647.725,644.852Zm50.2-130.272c-8.255-8.907-22.116-8.921-30.836.161-8.62,8.97-8.845,23.148-.544,32.019,8.53,9.121,22.04,9.064,30.671.063C705.865,537.79,706.2,523.509,697.922,514.58ZM369.879,317.947c-8.854,8.7-9.419,22.113-1.112,30.578,8.525,8.689,22.607,8.575,31.8-.383s9.564-22.95.992-31.249S378.862,309.128,369.879,317.947Zm80.926,376.611c8.857-8.208,8.825-22.121-.265-30.788s-23.733-8.722-32.347-.185c-8.454,8.378-7.892,21.678,1.085,30.18C428.245,702.25,442.083,702.637,450.805,694.558ZM697,448.407c8.451-8.7,8.372-22.92-.081-32.039-8.4-9.061-22.272-9.518-30.679-.809-8.306,8.606-8.143,22.765.454,31.824C675.344,456.508,688.766,456.879,697,448.407Zm-0.777,146.766c8.357-8.81,8.787-22.953.862-31.406-8.045-8.582-22.181-8.249-30.761.907-8.471,9.033-8.521,23.172-.208,31.568C674.384,604.6,687.813,604.037,696.222,595.173ZM322.2,643.443c8.632,8.752,22.086,9.492,30.291,1.474,8.323-8.13,7.943-22.616-.987-31.376-8.832-8.671-22.728-8.913-30.631-.71C312.922,621.09,313.586,634.7,322.2,643.443ZM646.4,319.124c-8.707-8.462-22.52-9.034-30.716-1.1-8.235,7.971-7.892,21.711.94,30.535,8.856,8.859,22.711,9.394,30.889,1.347C655.819,341.736,655.222,327.7,646.4,319.124ZM468.344,269.54a20.119,20.119,0,0,0-.222,29.7,23.612,23.612,0,0,0,31.9.207,20.372,20.372,0,0,0,.031-30.191C491.281,261.343,477.045,261.47,468.344,269.54ZM272.55,497.328a20.1,20.1,0,0,0,29.7-.1c8.214-8.76,8.261-23.347.112-32.013a20.413,20.413,0,0,0-30.191.523A23.608,23.608,0,0,0,272.55,497.328Zm325.7,195.818c8.71-8.441,9.185-22.1.862-30.213-8.464-8.254-23.255-7.816-32.114,1.042-8.745,8.739-8.684,22.232-.043,30.232C575.545,702.16,589.471,701.645,598.247,693.146ZM272.735,545.668c8.146,8.994,21.333,9.655,29.64,1.273,8.255-8.325,8.382-22.778.223-31.888a20.356,20.356,0,0,0-29.813-.886C264.673,522.56,264.678,536.766,272.735,545.668ZM517.713,269.284c-8.785,7.729-9.031,21.222-.338,29.71,8.776,8.575,23.072,9.038,31.831,1.079,8.715-7.916,8.666-21.276.1-29.708C540.889,262.079,526.494,261.56,517.713,269.284ZM273.4,416.78c-8.258,8.732-8.57,22.854-.624,31.413,7.79,8.388,20.92,8.421,29.35-.122,8.512-8.622,8.925-23.175.964-31.776C295.181,407.75,281.644,408.064,273.4,416.78Zm421.287-48.6c-8.413-8.479-21.623-9.086-29.594-1.165-8.108,8.054-7.772,22.305.87,31.217,8.65,8.928,22.329,9.258,30.139.917S703.193,376.76,694.686,368.184Zm-274.892-97.8c-8.812,8.185-9.211,21.554-.678,29.65,8.514,8.079,22.99,7.792,31.725-.69,8.582-8.328,8.679-21.549.41-29.407C442.878,261.985,428.593,262.218,419.794,270.388ZM401.932,693.3c8.374-7.692,8.175-21.5-.623-30.168-8.771-8.648-23.136-9.077-31.27-1.066-8.172,8.046-7.463,21.482,1.376,29.936C380.065,700.27,393.647,700.912,401.932,693.3ZM321.581,350.1c7.876,8.121,21.759,7.755,30.46-.971s9.049-22.62.911-30.452c-8.026-7.725-21.242-7.115-29.809,1.2C314.507,328.274,313.718,341.991,321.581,350.1Zm245.62-49.83c8.766,8.164,22.784,8.458,30.885.756,8.255-7.847,7.653-21.129-1.108-29.362-8.788-8.253-22.754-8.732-30.96-.943C557.773,278.55,558.215,291.91,567.2,300.271Zm-292.54,293.86c8.115,8.552,21.1,9.2,29.007,1.235,8-8.066,7.668-22.381-.846-31.26-8.363-8.73-21.388-9.067-29.134-.96C265.9,571.3,266.4,585.419,274.661,594.131Zm372,67.5c-7.971-7.873-21.6-7.488-30.328,1-8.647,8.409-9.123,21.945-1.218,29.662,8.057,7.864,22.031,7.192,30.532-1.311C654.1,682.517,654.638,669.511,646.658,661.632ZM370.626,301.173c7.946,7.962,22.316,7.62,31.045-.86,8.66-8.407,8.913-21.446.766-29.071-8.167-7.642-21.533-7.16-30.245.955C363.6,280.206,362.8,293.331,370.626,301.173ZM695.4,612.64c-7.666-8.2-20.768-8.073-29.545.467-8.754,8.513-9.321,22.828-1.364,30.815,7.809,7.841,21.091,7.2,29.442-1.231C702.3,634.241,703.026,620.8,695.4,612.64ZM274.056,399.66c7.539,8.039,20.806,7.728,29.15-.88,8.375-8.634,8.827-22.46,1.116-30.573-7.75-8.155-20.46-7.746-28.863.714S266.364,391.457,274.056,399.66ZM499.7,740.009c8.589-7.587,8.778-20.41.2-28.51-8.633-8.16-22.495-8.389-31.152-.54a19.232,19.232,0,0,0,.01,28.57C477.169,747.354,491.123,747.583,499.7,740.009ZM742.672,497.084c7.775-8.4,7.723-22.163-.093-30.828-7.872-8.72-20.439-9.1-28.475-.65-7.907,8.312-7.945,22.653-.061,31.263A19.286,19.286,0,0,0,742.672,497.084ZM548.686,710.872c-8.49-7.864-22.489-7.676-31.076.45-8.552,8.086-8.48,21.058-.057,28.6s22.42,7.26,30.867-.589C556.986,731.365,557.2,718.755,548.686,710.872Zm194.078-196.04c-7.693-8.592-20.29-8.758-28.5-.158-8.074,8.455-8.356,22.762-.648,31.192,7.685,8.41,20.636,8.184,28.564-.279C750.123,537.1,750.4,523.368,742.764,514.832ZM451.333,739.2c8.337-7.623,8.084-20.2-.8-28.409-8.827-8.169-22.675-8.3-30.795-.395-7.927,7.721-7.388,20.213.987,28C429.235,746.3,443.113,746.708,451.333,739.2ZM741.379,418.152c-8.041-8.812-20.438-9.4-28.27-1.1-7.717,8.168-7.45,22.344.667,30.938,7.968,8.443,20.62,8.639,28.156.647C749.626,440.466,749.339,426.886,741.379,418.152ZM324.86,689.205c8.336,8.3,21.565,9.087,29.334,1.542,7.865-7.642,7.288-20.546-1.511-29.134-8.746-8.552-21.885-8.9-29.492-.972C315.809,668.333,316.645,681.021,324.86,689.205ZM692.005,322.052c-8.463-8.519-21.1-9.228-28.829-1.391-7.484,7.59-7.006,20.718,1.243,29.247,8.335,8.626,21.723,9.164,29.248,1.377C701.293,343.394,700.474,330.591,692.005,322.052ZM742.112,563.6c-7.408-8.551-19.821-8.636-28.226.037-8.356,8.612-8.93,22.461-1.362,30.6,7.4,7.959,19.883,7.477,27.854-.86C748.455,584.918,749.257,571.854,742.112,563.6ZM276.946,640.615c7.948,8.593,20.864,9.477,28.491,1.713,7.578-7.714,7.2-20.748-1.023-29.408-8.449-8.916-21.11-9.468-28.653-1.474C268.43,619.222,269.03,632.049,276.946,640.615Zm367.317-365.7c-8.485-8.591-21.323-9.724-29.51-2.421-8.155,7.275-8.006,20.166.553,28.7,8.308,8.291,21.748,8.994,29.552,1.71C652.785,295.5,652.42,283.185,644.263,274.914Zm-48.27,462.817c8.562-7.963,9.227-20.129,1.3-27.761-8.141-7.843-21.634-7.559-30.477.736-8.589,8.048-8.976,20.51-1.082,27.988C573.686,746.226,587.368,745.744,595.993,737.731Zm-126.2-512.163c-8.757,7.544-9.227,19.922-.817,27.682,8.234,7.6,21.968,7.589,30.437-.037,8.564-7.7,8.63-19.712.385-27.262A22.841,22.841,0,0,0,469.791,225.568ZM402.983,737.545c8.054-7.221,7.858-19.478-.677-27.688-8.55-8.241-21.772-8.832-29.669-1.472-7.918,7.374-7.368,19.452,1.007,27.5C381.975,743.893,395,744.7,402.983,737.545Zm335.99-366.629c-7.97-8.49-20.037-9.194-27.5-1.359-7.436,7.8-7,21.095,1.125,29.685,8.1,8.584,20.527,8.923,27.74.983C747.6,392.23,746.934,379.408,738.973,370.916ZM229.282,544.443c7.471,8.527,19.623,9.034,27.18.893,7.645-8.23,7.616-21.657-.129-30.246-7.772-8.628-19.848-8.775-27.26-.567C221.632,522.769,221.755,535.843,229.282,544.443ZM517.738,253.22c8.436,7.824,22.049,8.035,30.288.528,8.3-7.557,8-19.5-.448-27.16s-21.556-7.978-29.906-.644C509.355,233.253,509.278,245.384,517.738,253.22ZM278.025,323.282c-8.115,8.426-8.87,21.212-1.511,28.773,7.392,7.594,19.95,6.9,28.283-1.761,8.324-8.643,8.8-21.572,1.236-29.052C298.494,313.784,286.229,314.772,278.025,323.282Zm48.088-48.095c-8.445,8.166-9.389,20.517-1.917,28.029,7.448,7.491,20.519,6.933,29.086-1.409,8.64-8.4,9.252-20.927,1.59-28.253C347.2,266.217,334.579,267.011,326.113,275.187ZM228.659,496.643c7.438,8.335,19.588,8.416,27.3-.05,7.757-8.51,7.821-22.008.146-30.381s-19.694-8.11-27.272.368A22.919,22.919,0,0,0,228.659,496.643ZM691.087,687.909c8.226-8.335,9.009-20.838,1.571-28.32s-20.172-6.761-28.633,1.771c-8.432,8.489-8.9,21.234-1.25,28.564C670.448,697.276,682.79,696.307,691.087,687.909ZM421.9,226.8c-8.632,7.652-9.307,19.481-1.311,27.061s21.4,7.449,30.009-.351c8.678-7.852,9.021-19.872,1.008-27.188C443.58,218.994,430.442,219.237,421.9,226.8ZM229.122,448.5c7.3,8.161,19.277,7.982,27.148-.634,7.848-8.581,8.13-22.016.7-30.056s-19.406-7.487-27.09,1.01S221.833,440.336,229.122,448.5ZM737.9,639.726c8.029-8.4,8.874-21.327,1.737-28.986s-19.605-6.985-27.7,1.713c-7.933,8.509-8.317,21.285-1.018,28.8S729.987,648,737.9,639.726ZM230.41,562.4c-7.228,7.973-6.686,20.767,1.1,29.289,7.666,8.372,19.241,9.114,26.454,1.45,7.361-7.818,7.046-21.236-.823-29.738C249.444,555.07,237.374,554.721,230.41,562.4ZM642.465,735.14c8.443-7.973,9.271-20.252,1.615-27.447s-20.886-6.391-29.351,1.928c-8.278,8.127-8.515,20.151-.755,27.172C621.713,743.791,634.131,743,642.465,735.14ZM594.741,228.519c-8.376-7.674-21.471-8.208-29.394-1.061-7.777,7.019-7.417,18.79,1.048,26.641s21.433,8.4,29.261,1.313C603.641,248.193,603.118,236.2,594.741,228.519ZM280.79,685.659c8.026,8.113,19.9,9.156,27.056,2.141,7.084-6.945,6.534-19.58-1.423-27.871-8.023-8.37-20.942-9.066-27.86-1.729C271.7,665.481,272.776,677.545,280.79,685.659ZM688.731,277.776c-7.911-7.85-20.358-8.925-27.581-2.159-7.307,6.85-6.783,19.108,1.4,27.347,8.257,8.334,20.621,9.278,27.817,2.329C697.668,298.236,696.819,285.808,688.731,277.776Zm-456.436,94c-7.691,8.2-8.517,20.847-1.741,28.642,6.851,7.876,18.6,7.8,26.526-.407,8.055-8.325,8.789-21.852,1.725-29.511C251.894,363.006,239.887,363.691,232.3,371.776ZM374.661,229.4c-8.175,7.679-8.769,19.3-1.105,26.385,7.644,7.067,20.572,6.562,28.97-1.254,8.469-7.877,8.782-20.373.906-27.025C395.593,220.885,382.779,221.787,374.661,229.4Zm124.7,552.746a17.13,17.13,0,0,0-.171-26.087c-8.188-7.194-21.767-7.182-29.68,0-8,7.251-7.6,18.788.654,25.952C478.392,789.151,491.34,789.223,499.365,782.149ZM785.051,467.164A17.137,17.137,0,0,0,759,466.6c-7.26,7.973-7.238,21.334.076,29.573,7.354,8.291,18.921,8.319,25.994.3C792.084,488.514,792.059,475.339,785.051,467.164ZM735.526,325.289c-7.8-7.973-19.842-8.849-26.691-1.69-6.911,7.224-6.092,19.884,2.014,28.191,8.072,8.288,20.157,8.823,26.869,1.423C744.365,345.88,743.277,333.219,735.526,325.289ZM328.6,732.781c8.208,7.758,20.549,8.634,27.794,1.756,7.162-6.8,6.4-19.258-1.889-27-8.374-7.832-21.255-8.376-28.245-1.384C319.2,713.219,320.34,724.964,328.6,732.781Zm218.218,48.874c8.1-7.162,8.413-19.09.45-26.036-7.876-6.871-21.1-6.7-29.222.416-8.3,7.267-8.373,19.047-.4,26.028C525.645,789.065,538.661,788.863,546.817,781.655ZM784.591,543.9c7.157-8.111,7.382-21.4.458-29.253-6.813-7.72-18.412-7.774-25.74.107-7.481,8.037-7.776,21.537-.685,29.545C765.75,552.351,777.385,552.063,784.591,543.9ZM234.628,637.534c7.588,8.134,19.308,9.074,26.037,1.826s5.93-20.308-1.92-28.423c-7.739-8.012-19.416-8.541-25.961-1.413C226.138,616.766,227.057,629.411,234.628,637.534ZM451.841,781.3c7.5-6.718,7.275-18.2-.733-25.547-8.139-7.476-21.582-7.9-29.261-1-7.695,6.9-7.065,18.5,1.149,25.737C431.19,787.705,444.229,788.116,451.841,781.3Zm331.642-361.2c-7.137-8.211-18.827-8.869-25.772-1.2-6.924,7.642-6.526,21.013.956,29.229,7.329,8.055,18.775,8.333,25.524.847C791.024,441.4,790.659,428.368,783.483,420.106ZM640.456,231.657c-7.991-7.4-20.276-8.41-27.677-2.093C605.3,235.946,605.7,248,613.9,255.83c8.224,7.865,21.168,8.654,28.4,1.9S648.574,239.179,640.456,231.657ZM279.79,305.833c6.726,6.81,18.978,6.1,26.962-1.774,8.148-8.024,8.862-20.533,1.769-27.31-6.979-6.671-18.78-5.657-26.628,2.066C273.97,286.615,272.915,298.869,279.79,305.833ZM689.406,705.39c-6.847-6.853-19.038-6.258-27.258,1.521-8.067,7.629-8.962,19.832-2.155,26.5,6.955,6.808,19.419,5.847,27.371-1.9C695.233,723.83,696.247,712.238,689.406,705.39Zm46.806-48.235c-6.754-6.9-18.752-6.029-26.429,2.132-7.7,8.175-8.317,20.586-1.543,27.316s18.6,5.653,26.188-2.159C742.236,676.4,743.131,664.221,736.212,657.155ZM594.855,754.533c-7.605-7.016-20.849-6.608-28.994,1-7.989,7.452-8.168,19.01-.618,25.517s20.3,5.931,28.315-1.181C601.614,772.715,602.3,761.4,594.855,754.533ZM783.976,562.518c-6.565-7.708-17.856-7.652-25.451.359-7.575,7.982-8.107,21.532-1.235,29.071,6.742,7.4,18.229,6.761,25.4-1.18C789.906,582.772,790.524,570.209,783.976,562.518ZM327.46,258.249c6.82,6.664,19.507,6.031,27.678-1.546,8.208-7.6,8.9-19.3,1.772-25.873-7.175-6.609-19.1-5.772-27.219,1.714C321.738,239.885,320.613,251.559,327.46,258.249Zm-94.1,95.585c6.28,7.176,18.111,6.716,25.914-1.241s8.663-20.5,2.043-27.619c-6.673-7.175-17.853-6.406-25.563,1.5C228.218,334.207,227.048,346.626,233.355,353.834ZM470.416,184.886c-7.685,6.687-7.986,17.629-.44,24.463,7.64,6.925,20.934,6.982,28.89.121,8.026-6.914,7.888-17.936-.062-24.725A22.219,22.219,0,0,0,470.416,184.886ZM404.224,779.54c7.578-6.175,7.323-17.564-.812-25.16-8.2-7.673-20.692-8.429-28.076-1.849-7.284,6.492-6.51,17.837,1.451,25.062C384.59,784.671,396.78,785.6,404.224,779.54ZM780.381,373.931c-7.394-8.091-18.446-8.848-24.971-1.443-6.352,7.206-5.751,19.747,1.469,27.79,7.32,8.16,18.928,8.676,25.316,1.366C788.639,394.265,787.767,382.026,780.381,373.931ZM187.525,495.988c6.62,7.814,17.944,7.933,24.812.019a22.311,22.311,0,0,0-.162-28.764c-7.006-7.865-18.053-7.466-24.69.645C180.993,475.825,181.012,488.3,187.525,495.988ZM517.851,184.921c-7.779,6.457-7.847,17.654.094,24.67,7.763,6.867,20.556,7.2,28.255.81,7.919-6.576,7.7-17.475-.222-24.484C537.964,178.841,525.74,178.378,517.851,184.921ZM188.045,514.7c-6.589,7.623-6.354,20.3.455,28.24,6.639,7.74,17.506,8.293,24.255,1,6.924-7.481,6.89-20.354-.14-28.5C205.5,507.189,194.728,506.972,188.045,514.7Zm-0.155-66.035c6.254,7.7,17.5,7.587,24.637-.492,7.077-8,7.488-20.432.989-27.992-6.685-7.783-17.4-7.335-24.45.761C182.222,428.81,181.675,441.012,187.89,448.666ZM423.926,186.081c-8.067,6.939-8.657,18.04-1.055,24.563,7.488,6.428,20.156,6.03,28.105-.942,8.215-7.2,8.352-18.032.563-24.556C443.932,178.781,431.914,179.216,423.926,186.081Zm281.981,93.677c-6.449,6.4-5.7,18.039,1.893,25.961,7.654,8,19.553,8.868,25.9,2.143,6.3-6.669,5.163-17.8-2.337-25.524C723.639,274.4,712.56,273.156,705.907,279.758Zm-395.2,451.064c6.694-6.26,6.045-17.552-1.7-25.386-7.983-8.1-19.637-9.109-26.271-2.521-6.584,6.538-5.4,17.986,2.356,25.52C292.74,735.853,304.082,737.023,310.707,730.822ZM781.523,609.316c-6.216-7.255-17.112-6.9-24.654,1.057-7.713,8.12-8.567,20.654-2.033,27.713,6.409,6.928,17.3,5.985,24.561-1.878C786.7,628.281,787.7,616.532,781.523,609.316Zm-542.7,72.13c7.3,7.713,18.276,8.935,24.693,2.474,6.6-6.647,5.774-18.526-2.089-26.6-7.677-7.9-18.732-8.591-24.909-1.8C230.361,662.278,231.483,673.678,238.82,681.446ZM658.339,233.683c-6.7,6.187-5.93,17.447,1.952,25.008s19.741,8.423,26.332,2.118c6.779-6.48,5.587-17.412-2.433-24.972C676.376,228.485,665.1,227.438,658.339,233.683Zm-93.5-47.193c-7.47,6.134-7.412,16.76.382,24.074,7.674,7.213,20.291,7.969,27.7,1.779,7.655-6.39,7.155-17.043-.853-24.182C584.194,181.15,572.308,180.362,564.841,186.49ZM639.03,776.554c7.948-7.278,8.914-18,1.953-24.485-6.986-6.512-19.068-5.95-27.212,1.423-8.327,7.525-8.992,18.858-1.713,25.116C619.215,784.759,631.124,783.785,639.03,776.554ZM190.982,589.043c6.915,7.88,17.508,8.571,23.906,1.3,6.415-7.292,5.935-19.61-1.2-27.609-7.143-8.021-17.829-8.337-24.053-.957C183.4,569.171,184.048,581.129,190.982,589.043Zm-0.946-187c6.035,7.146,16.521,6.848,23.675-.909,7.366-7.977,8.217-20.235,2.024-27.439-6.217-7.234-16.8-6.534-23.872,1.315C184.735,382.932,183.879,394.742,190.036,402.039ZM377.5,189.318c-7.522,7-8.012,17.393-.854,23.491,7.324,6.245,19.415,5.4,27.414-2.035,7.862-7.3,7.987-18.072.527-24C397.179,180.883,385.321,182.052,377.5,189.318Zm-19.338,586.69c7.014-5.905,6.592-16.758-1.2-24.24-7.8-7.5-19.823-8.475-26.539-2.347-6.681,6.091-5.853,16.267,1.639,23.574C339.754,780.479,351.172,781.891,358.163,776.008ZM776.536,329.625c-7.147-7.8-17.828-8.936-24.031-2.278-6.146,6.6-5.468,18.058,1.736,26.045,7.381,8.2,18.183,9.126,24.287,2.337C784.651,348.919,783.67,337.423,776.536,329.625ZM240.3,283.359c-7.559,7.69-8.82,18.769-2.639,25.38,6.049,6.471,16.872,5.678,24.433-2.027,7.7-7.837,8.714-19.538,2.443-25.823C258.381,274.717,247.619,275.926,240.3,283.359Zm46.187-46.183c-7.605,7.33-8.913,17.861-2.749,24.166,6.35,6.5,17.753,5.727,25.674-1.956,7.885-7.633,8.772-18.926,2.192-24.885C305.138,228.645,294.015,229.929,286.487,237.176ZM729.292,727.244c7.75-7.457,9.289-18.618,3.208-25.1-5.922-6.312-17.344-5.535-25,1.925-7.782,7.571-8.9,18.727-2.729,24.976C711.043,735.394,721.742,734.5,729.292,727.244Zm-230.975,94.62c7.7-6.266,7.855-16.883.083-23.386-7.641-6.4-20.085-6.415-27.522-.066-7.488,6.393-7.2,16.5.412,22.929C478.928,827.783,490.732,828.026,498.317,821.864Zm326.32-326.255c6.209-7.475,6.16-19.5-.069-27.138-6.32-7.742-16.922-8.012-23.354-.342-6.332,7.544-6.137,19.766.459,27.411S818.394,503.121,824.637,495.609ZM610.891,189.489c-6.967,5.686-6.588,16.058,1.105,23.267,7.791,7.313,19.5,8.414,26.343,2.639,7.015-5.923,6.259-16.382-1.406-23.436C629.439,185.07,617.77,183.878,610.891,189.489Zm213.241,352.48c6.341-7.611,6.58-19.86.492-27.125s-16.6-7.172-23.107.461c-6.571,7.7-6.7,19.982-.33,27.382S817.722,549.653,824.132,541.969ZM545.1,821.011c7.49-6.417,7.8-16.938.431-23.044-7.414-6.148-19.972-5.806-27.511.783-7.6,6.63-7.457,16.851.071,22.989C525.593,827.85,537.505,827.512,545.1,821.011ZM218.056,635.678c5.852-6.666,4.984-18.817-2.066-26.453-7.061-7.657-17.765-8.171-23.431-1.375-5.721,6.863-4.571,18.295,2.42,25.97S212.133,642.419,218.056,635.678ZM451.9,820.823c7.215-5.855,7.039-16.424-.62-23-7.683-6.6-20.248-6.957-27.266-.858-7.077,6.144-6.3,16.293,1.493,22.809C433.07,826.092,444.777,826.6,451.9,820.823Zm371.9-371.87c5.813-7.212,5.2-19.338-1.261-26.8s-16.816-7.973-22.8-.862c-6.028,7.161-5.512,19.4,1.227,27.083S817.939,456.212,823.8,448.953Zm-140.741,323.1c7.28-7.01,8.436-17.469,2.332-23.4-6.168-6-18.156-5.085-25.849,2.156-7.76,7.3-8.5,18.113-1.889,23.932S675.564,779.25,683.054,772.049Zm92.08-92.081c7.08-7.518,8.31-19.093,2.5-25.485-5.706-6.281-16.47-5.523-23.685,1.9-7.409,7.616-8.441,19.356-2.461,25.783C757.507,688.634,768,687.537,775.134,679.968ZM334,192.59c-7.658,6.719-8.932,17.156-2.549,23.074,6.417,5.948,18.208,5.189,25.956-1.848,7.71-7,8.469-17.767,1.894-23.365C352.854,184.956,341.525,185.994,334,192.59ZM195.828,330.738c-6.915,7.494-8.064,18.967-2.371,25.615,5.676,6.629,16.3,5.886,23.3-1.876,6.849-7.587,7.753-19.237,2.159-25.686C213.259,322.272,202.71,323.281,195.828,330.738Zm626.261,256.98c6.3-7.52,6.945-19.219,1.339-26.234-5.668-7.091-16.228-6.841-22.912.788-6.716,7.658-7.2,19.93-1.155,26.92S815.65,595.389,822.089,587.718ZM590.8,818.949c7.4-6.415,8.124-16.465,1.366-22.441-6.846-6.056-19.336-5.576-26.973,1.13-7.5,6.583-7.835,16.791-.962,22.554C571.278,826.1,583.246,825.493,590.8,818.949ZM702.242,238.16c-6.1,5.479-5.1,16.53,2.425,23.955,7.361,7.272,18.3,8.441,24.105,2.819,5.894-5.709,4.5-16.434-2.781-23.615C718.843,234.276,708.265,232.748,702.242,238.16ZM267.83,725.782c5.634-5.873,4.4-16.753-2.968-24.1s-18.075-8.362-23.6-2.453c-5.628,6.019-3.995,16.892,3.339,24.091C251.751,730.333,262.273,731.575,267.83,725.782Zm138.254,92.445c6.678-5.537,6.134-15.583-1.456-22.3s-19.384-7.542-26.072-1.955c-6.629,5.536-5.859,15.526,1.441,22.083C387.471,822.763,399.326,823.828,406.084,818.227ZM821.438,402.838c5.321-6.972,4.165-18.325-2.456-25.7s-16.487-8.157-22.069-1.493c-5.686,6.783-4.71,18.98,2.262,26.494C805.975,409.474,816.214,409.682,821.438,402.838ZM314.4,771.071c5.971-5.544,4.863-15.926-2.726-23.09-7.557-7.147-18.69-8.17-24.412-2.475s-4.24,15.941,3.037,22.8S308.521,776.526,314.4,771.071ZM748.194,284.6c-5.483,5.978-4.237,17.208,2.961,24.547s17.868,8.18,23.083,2.08c5.321-6.222,3.73-16.83-3.352-24.1C763.829,279.888,753.676,278.631,748.194,284.6ZM471.639,146.819c-7.038,5.936-7.249,15.577-.241,21.521,7.12,6.043,19.5,6.037,26.771-.015,7.348-6.114,7.13-15.84-.245-21.769S478.831,140.756,471.639,146.819ZM149.626,468.869c-5.948,7.214-6.014,19.187-.143,26.386,5.733,7.03,15.388,7.264,21.521.293,6.223-7.07,6.392-19.305.371-26.663C165.3,461.451,155.66,461.554,149.626,468.869Zm-0.008,46.316c-5.436,7.137-4.992,18.627.933,25.855,6.026,7.35,15.937,7.81,21.717.762,5.835-7.113,5.432-19.078-.954-26.53C164.945,507.829,155.166,507.9,149.618,515.185ZM517.9,146.845c-7.121,5.629-7.069,15.6.351,21.8,7.257,6.068,19.154,6.436,26.249.869,7.231-5.67,6.912-15.431-.453-21.634C536.623,141.638,525.1,141.151,517.9,146.845Zm164.015,72.418c6.2-5.382,5-15.2-2.414-22.115-7.293-6.793-17.652-8.24-23.961-3.1-6.325,5.147-5.573,15.5,1.9,22.488C664.727,223.364,675.871,224.508,681.911,219.263Zm-484.9,433.3c-5.111,6.182-3.7,16.866,2.929,24.041,6.737,7.283,16.843,8.522,22.2,2.434,5.33-6.062,4.214-16.9-2.728-24.356C212.306,647.036,202.271,646.209,197.011,652.568Zm229.294-504.53c-7.486,6.093-8.111,15.966-1.123,21.69,6.835,5.6,18.716,5.219,26.112-.9,7.619-6.3,7.785-15.995.622-21.691C444.887,141.549,433.765,141.971,426.305,148.038Zm208.554,667.54c7.5-6.288,8.82-16.01,2.695-21.69-6.431-5.963-17.652-5.524-25.565,1.171-7.77,6.561-8.638,16.769-2.139,22.3C616.171,822.734,627.345,821.869,634.859,815.578ZM151.215,423.1c-6.251,7.3-6.832,19.1-1.218,26.114,5.48,6.843,15.166,6.734,21.455-.477,6.46-7.4,6.892-19.317,1.023-26.384C166.712,415.4,157.445,415.837,151.215,423.1Zm667.036,209.15c6.469-7.426,7.465-18.321,2.117-24.926-5.492-6.781-15.366-6.229-22.16,1.492-6.593,7.479-7.447,18.985-2.03,25.4C801.678,640.716,811.752,639.7,818.251,632.248ZM151.819,560.91c-5.284,6.771-4.507,17.892,1.624,25.17,6.233,7.391,15.788,7.993,21.259,1.068,5.389-6.818,4.627-18.084-1.841-25.48C166.428,554.3,157.158,554.075,151.819,560.91Zm412.06-412.066c-6.814,5.269-6.679,14.66.552,21.12,7.282,6.515,19.219,7.174,25.95,1.562,6.65-5.54,5.921-14.653-1.41-20.9S570.744,143.54,563.879,148.844ZM245.594,242.862c-6.953,7.012-8.442,17.091-3.107,22.784,5.4,5.766,16.2,4.614,23.469-2.749,7.37-7.448,8.291-17.789,2.335-23.317C262.52,234.223,252.642,235.768,245.594,242.862ZM816.887,358.229c5.193-6.266,4.007-16.75-2.491-24.052-6.534-7.328-15.744-8.543-21.1-2.494s-4.473,16.992,2.162,24.484C802.031,363.6,811.757,364.42,816.887,358.229ZM769.553,721.312c6.949-7.187,8.388-17.234,3.042-23.058s-15.328-4.771-22.488,2.609c-7.11,7.312-8.262,17.906-2.781,23.468S762.641,728.449,769.553,721.312Zm-45.482,45.47c7.243-6.923,8.776-16.607,3.247-22.194-5.56-5.618-15.965-4.639-23.373,2.437s-8.626,17.136-2.956,22.575C706.608,774.988,716.91,773.62,724.071,766.782ZM201.285,288.724c-6.8,7.186-8.295,17.546-3.169,23.521,5.1,5.947,15.045,4.989,22.008-2.377,7.028-7.421,8.187-18.018,2.817-23.829S208.116,281.511,201.285,288.724Zm90.576-90.567c-7.281,6.738-8.781,16.258-3.151,21.754,5.569,5.439,16.416,4.408,23.832-2.48,7.511-6.961,8.616-16.744,2.737-22.009C309.362,190.124,299.148,191.423,291.861,198.157Zm69.013,616c6.388-5.061,5.841-14.528-1.5-21.305-7.377-6.828-18.284-7.961-24.487-2.747s-5.271,14.439,1.846,21.068C343.789,817.732,354.552,819.163,360.874,814.158Zm20.666-662.77c-7.348,6.3-8.135,15.554-1.516,20.9,6.494,5.251,17.56,4.529,24.907-1.743,7.58-6.459,8.145-15.8,1.526-21.093S388.929,145.06,381.54,151.388ZM154.295,378.648c-6.185,7.21-7.177,17.824-2.168,24.553,5.082,6.821,14.541,6.569,21.026-.812,6.566-7.457,7.423-18.715,2.045-25.3C169.809,370.486,160.619,371.287,154.295,378.648ZM608.5,152.662c-6.169,4.923-5.449,13.95,1.877,20.357,7.31,6.409,18.032,7.35,24.155,2.3,6.2-5.119,5.1-14.344-2.178-20.478C625.183,148.8,614.655,147.754,608.5,152.662ZM178.121,631.77c5.083-6.009,4.321-16.863-1.882-24.211-6.272-7.441-15.81-8.173-20.743-1.852-4.883,6.259-3.7,16.619,2.526,23.781C164.288,636.687,173.025,637.8,178.121,631.77ZM497.669,858.286c6.819-5.35,6.921-14.528,0-20.133s-18.591-5.7-25.382-.238c-6.878,5.527-6.547,14.382.5,20S490.758,863.707,497.669,858.286ZM861.242,494.748c5.352-6.84,5.215-18.091-.268-25.008-5.463-6.887-14.62-7.17-20.1-.385-5.551,6.868-5.415,18.193.334,25.257C846.964,501.7,855.837,501.655,861.242,494.748ZM813.111,674.735c6.311-7.044,7.619-17.644,2.681-23.372-4.965-5.757-14.6-4.736-21.091,2.486-6.564,7.285-7.492,17.836-2.279,23.61C797.6,683.2,806.7,681.881,813.111,674.735ZM677.974,809.884c6.912-6.418,8.071-15.841,2.284-20.744-5.823-4.934-16.716-3.684-23.806,2.917-7.168,6.661-7.843,15.976-1.771,20.9C660.717,817.844,670.95,816.4,677.974,809.884Zm65.5-565.521c-5.079,5.117-3.739,14.988,3.261,22.019,6.97,7.02,16.6,8.149,21.477,2.8,4.817-5.288,3.092-15.087-3.53-21.711C758.031,240.819,748.507,239.292,743.473,244.363ZM272.185,765.189c5.235-4.866,4.054-14.782-2.842-21.588-6.873-6.795-17.069-8.072-22.092-3.029-5.1,5.116-3.5,14.384,3.334,21.136C257.438,768.461,266.886,770.116,272.185,765.189Zm587.886-315.76c5.062-6.564,4.43-17.783-1.289-24.712s-14.806-7.426-19.907-.846c-5.161,6.653-4.5,17.892,1.558,24.993C846.309,455.762,855.072,455.914,860.071,449.429Zm-317.4,408.459c7.115-5.45,7.767-14.566,1.2-20.106-6.469-5.461-18.286-5.324-25.336.326-7.14,5.716-7.189,14.708-.347,20.066C524.9,863.425,535.621,863.283,542.667,857.888ZM860.756,539.853c5.374-6.914,5.625-17.952.533-24.6-5.169-6.748-14.454-6.729-20.155.264-5.77,7.076-5.93,18.45-.394,25.228C846.256,547.51,855.2,547,860.756,539.853ZM723.215,223.945c4.948-4.91,3.392-14.06-3.189-20.449-6.7-6.5-16.757-8.217-22.126-3.5-5.421,4.768-4.22,14.268,2.941,21.058C707.966,227.825,718.105,229.017,723.215,223.945ZM227.223,719.908c4.662-5.2,3.293-15.371-3.231-22.192-6.66-6.973-16.452-8.1-21.11-2.693-4.723,5.477-2.958,15.182,3.722,22.056C213.242,723.9,222.391,725.292,227.223,719.908ZM452.382,857.046c6.367-4.987,6.143-13.98-.716-19.742-6.985-5.872-18.7-6.371-25.095-1.16-6.487,5.283-5.681,14.131,1.562,19.871C435.139,861.563,445.974,862.067,452.382,857.046ZM159.1,335.356c-6.262,6.934-7.574,17.51-2.731,23.588,4.733,5.936,13.745,5.287,20.056-1.686,6.385-7.046,7.5-18.237,2.573-24.039C174.162,327.522,165.211,328.6,159.1,335.356ZM338.461,156.013c-6.9,6.041-8.1,14.908-2.434,19.86,5.838,5.1,16.691,4.2,23.914-2.161,7.016-6.175,7.886-15.326,2.153-20.171C356.3,148.65,345.482,149.866,338.461,156.013ZM858.076,584.8c5.69-6.846,6.474-17.669,1.648-24.149-4.9-6.586-14.148-6.265-20,.93-5.758,7.08-6.258,18.189-1.2,24.467S852.372,591.663,858.076,584.8ZM788.115,289.95c-4.716,5.133-3.5,15.459,2.875,22.451,6.417,7.05,15.559,8.3,20.261,3.031,4.745-5.319,3.145-15.56-3.237-22.431C801.762,286.275,792.865,284.78,788.115,289.95ZM317.969,808.618c5.639-4.442,4.59-13.982-2.529-20.5-6.986-6.405-17.273-7.678-22.491-3.017s-3.8,13.552,2.907,19.847C302.582,811.257,312.4,813,317.969,808.618Zm269.485,46.731c7.114-5.684,7.864-14.793,1.388-19.867-6.353-4.977-17.552-4.359-24.511,1.444s-7.306,14.742-.979,19.676C569.707,861.556,580.433,860.956,587.454,855.349Zm269.584-450.72c4.666-6.138,3.547-16.641-2.351-23.568s-14.466-7.759-19.152-1.6c-4.566,6-3.7,16.75,2.054,23.635C843.448,410.119,852.412,410.714,857.038,404.629Zm-449.5,449.457c6.147-4.677,5.528-13.4-1.623-19.381-7.13-5.979-18.061-6.753-23.891-1.846-5.735,4.826-4.786,13.25,1.879,18.931C390.709,857.589,401.468,858.705,407.539,854.086ZM160.827,649.018c-4.362,5.537-2.736,15.614,3.348,22.279,5.951,6.512,14.386,7.859,18.946,2.743,4.672-5.241,3.49-15.494-2.826-22.544C173.942,644.389,165.251,643.4,160.827,649.018ZM651.948,157.885c-5.545,4.354-4.573,13.375,2.371,19.551,6.788,6.047,16.963,7.32,22.343,3.006,5.543-4.445,4.3-12.933-2.512-19.138C667.3,155.072,657.576,153.466,651.948,157.885ZM207.682,249.254c-6.226,6.5-7.911,15.8-3.532,20.906,4.442,5.178,13.979,4.057,20.611-2.677,6.7-6.79,8-16.52,3.134-21.51C223.011,240.968,214.119,242.542,207.682,249.254ZM252,204.928c-6.57,6.43-8.113,15.6-3.13,20.284,4.873,4.578,14.567,3.261,21.271-3.119,6.917-6.57,8.146-15.89,2.977-20.58C267.925,196.8,258.654,198.427,252,204.928Zm511.035,555.1c6.468-6.529,8.058-15.339,3.386-20.311-4.816-5.124-14.1-3.938-20.941,2.946-6.584,6.605-7.921,16.037-3.187,20.771C747.091,768.235,756.565,766.556,763.034,760.032ZM114.53,470.411c-5.18,6.71-5.2,17.658-.051,24.133,5.06,6.359,13.437,6.382,18.585-.17,5.361-6.812,5.329-17.653-.065-24.375C127.757,463.457,119.69,463.738,114.53,470.411ZM473.443,111.5c-6.782,5.109-7.087,13.734-.436,18.87,6.511,5.031,17.52,4.972,24.134-.128,6.88-5.3,6.748-13.592-.062-18.785A20.231,20.231,0,0,0,473.443,111.5Zm44.809,0.462c-6.424,4.792-6.463,13.114.135,18.507,6.7,5.484,17.933,5.761,24.327.669,6.344-5.049,5.815-13.023-.984-18.353C534.955,107.486,524.779,107.1,518.252,111.966ZM631,850.68c6.768-5.883,7.639-13.98,1.753-18.661s-16.077-3.77-23.078,2.2c-6.923,5.887-7.666,14.42-1.89,18.984C613.635,857.825,624.166,856.609,631,850.68ZM853.726,627.955c5.837-6.847,6.982-16.717,2.477-22.739-4.527-6.048-12.8-5.583-18.838,1.3-6.115,6.958-7.168,17.791-2.432,23.567C839.585,635.756,847.971,634.7,853.726,627.955ZM115,515.206c-4.859,6.372-4.595,16.751.538,23.577,5.046,6.706,13.4,7.331,18.433,1.149,5.223-6.417,5.01-17.245-.546-24.2C127.977,508.905,119.911,508.775,115,515.206ZM717.948,803.531c6.708-6.281,8.227-14.669,3.213-19.313s-14.533-3.407-21.419,3.042c-6.849,6.4-8.068,15.279-2.952,19.7C701.882,811.369,711.322,809.727,717.948,803.531Zm88.432-88.417c6.294-6.687,7.915-15.84,3.481-21.084s-13.129-4.156-19.6,2.718c-6.423,6.8-7.8,16.55-3.263,21.528S800.155,721.715,806.38,715.114ZM429.048,113.184c-6.818,5.324-7.523,13.473-1.365,18.416,6.089,4.9,16.966,4.507,23.809-.9,6.944-5.479,7.255-13.6.935-18.433C446.072,107.413,435.9,107.841,429.048,113.184ZM116.321,425.875c-5.406,6.716-6.04,17.045-1.379,23.477,4.61,6.36,12.979,6.235,18.468-.5,5.57-6.823,6.09-17.367,1.236-23.743C129.771,418.7,121.747,419.14,116.321,425.875Zm49.311-131.488c-6.235,6.65-8,15.989-3.829,21.522,4.029,5.341,12.52,4.6,18.71-1.891,6.5-6.794,8.106-16.548,3.826-21.909C180.013,286.691,171.806,287.816,165.632,294.387ZM297.611,162.423c-6.563,5.977-8.049,13.987-3.166,18.563,4.918,4.611,14.862,3.46,21.767-2.737,7.008-6.274,8.15-14.776,2.828-19.13C313.7,154.754,304.348,156.3,297.611,162.423Zm66.123,686.729c5.737-4.207,5-12.5-1.9-18.465-6.725-5.827-16.6-6.962-22.028-2.727-5.616,4.382-4.487,12.294,2.305,18.176C348.76,851.882,358.1,853.28,363.734,849.152Zm488.3-488.236c4.258-5.693,2.787-15.379-3.111-22.014-5.756-6.462-13.607-7.528-17.9-2.155-4.433,5.55-3.252,15.513,2.867,22.361C839.868,365.816,847.859,366.5,852.038,360.916ZM117.172,560.07c-4.372,6.14-3.473,15.95,1.94,22.614,5.539,6.806,13.413,7.449,18.03,1.216,4.459-6.014,3.727-16.312-1.753-22.994C129.79,554.065,121.638,553.8,117.172,560.07ZM562.99,114.228c-6.315,4.5-6.028,12.553.894,18.2,6.764,5.534,16.918,6.255,22.964,1.749,6.182-4.6,5.533-12.572-1.214-18.057C579.042,110.772,569.092,109.881,562.99,114.228ZM210.014,735.214c-4.122,4.615-2.241,12.945,4.034,19.256,6.27,6.291,14.351,7.985,18.761,3.607,4.358-4.325,3-13.19-3.293-19.637C223.093,731.842,214.213,730.506,210.014,735.214ZM761.042,229.858c4.423-4.476,2.538-13.013-3.9-19.172-6.313-6.025-14.727-7.651-19.213-3.4s-3.049,12.79,3.526,19.207C748.006,232.914,756.673,234.274,761.042,229.858Zm-625.3,173.773c5.519-6.718,6.325-17.133,1.885-22.85s-12.428-4.833-17.837,1.765c-5.47,6.679-6.375,16.415-1.947,22.409S130.145,410.458,135.742,403.631Zm249.813-286.85c-6.738,5.455-7.638,13.2-1.817,17.76,5.862,4.593,15.908,3.913,22.726-1.663,6.771-5.526,7.388-13.627,1.6-18C402.288,110.511,392.181,111.422,385.555,116.781ZM782.011,251.326c-4.124,4.551-2.545,13.486,3.809,20.027,6.3,6.508,14.589,7.666,18.537,2.881,3.883-4.709,1.914-13.6-4.07-19.711C794.258,248.376,786.1,246.813,782.011,251.326ZM277.358,801.232c4.589-3.994,3.239-12.624-3.2-18.7-6.459-6.108-15.65-7.517-20.045-3.344-4.447,4.224-2.707,12.172,3.683,18.265C264.176,803.521,272.69,805.3,277.358,801.232ZM672.27,844.85c6.451-5.685,7.739-13.814,2.578-17.909-5.051-4-14.8-2.8-21.348,2.81-6.76,5.789-7.758,14.014-2.445,18.124C656.411,852.017,665.752,850.583,672.27,844.85ZM833.01,650.216c-5.935,6.58-7.215,16.39-3.013,21.613,4.219,5.247,12.082,4.022,17.813-2.5,5.674-6.463,7.172-16.166,3.091-21.322C846.893,642.942,838.751,643.844,833.01,650.216Zm-643.557,63.2c3.848-4.526,2.418-13.656-3.391-20.1-5.857-6.5-14.381-7.843-18.234-3.134-3.9,4.761-2.056,13.607,3.872,19.971S185.473,718.1,189.453,713.414ZM693.282,164.752c-4.871,3.783-3.7,12,2.872,18.1,6.415,5.982,15.408,7.555,20.077,3.76,4.746-3.863,3.33-11.823-2.852-17.762C707.275,163,698.119,161,693.282,164.752Zm-86.923-46.158c-5.45,3.893-4.845,11.711,1.566,17.245,6.6,5.707,16.691,6.889,22.121,2.766,5.284-4.011,4.346-11.652-1.846-17.061C621.939,116.078,611.9,114.634,606.359,118.594ZM141.5,627.183c4.12-5.335,2.993-15.707-2.582-22.178-5.46-6.344-13.4-7-17.32-1.654-4.034,5.509-2.658,15.282,2.877,21.757C129.882,631.424,137.43,632.454,141.5,627.183Zm399.226,264.06c6.347-4.7,6.8-12.321.785-16.944s-16.249-4.5-22.686.323c-6.33,4.739-6.466,12.557-.5,17.027C524.3,896.13,534.393,895.932,540.727,891.243Zm336.8-375.269c-4.764,6.418-4.886,16.81-.3,22.727s12.361,5.386,16.988-.916c4.718-6.432,4.868-16.327.308-22.359S882.29,509.562,877.53,515.974Zm-0.179-45.041c-4.555,6.052-4.384,16.57.4,22.793s12.564,6.173,17.029.094c4.514-6.138,4.293-16.141-.464-22.428S881.965,464.805,877.351,470.933ZM496.545,891.958c6.23-4.394,6.424-12.066.214-16.98s-16.464-5.229-22.748-.706c-6.166,4.436-6.039,12.225.07,16.981C480.208,896.023,490.31,896.355,496.545,891.958ZM230.329,227.7c6.235-6.093,7.75-14.705,3.574-18.835s-12.294-2.478-18.388,3.483c-5.975,5.85-7.9,14.248-3.968,18.514S224.106,233.8,230.329,227.7ZM139.543,359.873c5.555-6.472,6.647-16.182,2.579-21.415s-11.646-4.058-16.977,2.358c-5.2,6.273-6.544,15.521-2.836,20.8C126.082,366.989,134.041,366.291,139.543,359.873ZM362.527,136.836c6.59-5.416,7.432-13.275,2.082-17.225-5.376-3.969-14.685-2.664-21.058,2.758-6.3,5.365-7.394,13.081-2.164,17.018C346.485,143.223,356.087,142.136,362.527,136.836ZM322.035,842.658c5.014-3.433,4.065-11.307-2.332-17.171-6.422-5.9-15.6-7.465-20.35-3.708-4.688,3.712-3.214,11.393,2.969,16.968C308.36,844.186,317.111,846.033,322.035,842.658ZM824.7,296.482c-3.6,4.651-2.151,13.771,3.414,20.058,5.672,6.42,13.7,7.6,17.336,2.808,3.669-4.835,1.848-13.7-3.84-19.968S828.4,291.707,824.7,296.482ZM452.625,890.364c5.9-4.245,5.553-11.779-.989-16.855-6.5-5.051-16.748-5.531-22.377-1.129-5.532,4.324-4.9,11.677,1.213,16.51C436.717,893.827,446.818,894.541,452.625,890.364ZM874.986,426.83c-4.034,5.9-3.388,15.908,1.515,22.121,5.006,6.349,12.808,6.55,16.9.648,4.165-6,3.365-15.757-1.716-22.086C886.631,421.22,879.1,420.809,874.986,426.83ZM186.918,272.256c5.816-6.322,7.2-14.894,3.354-19.218-3.956-4.442-11.639-2.786-17.41,3.452-5.6,6.064-7.4,14.5-3.788,18.95C172.746,279.97,181.09,278.6,186.918,272.256ZM784.25,737.379c-5.878,6.209-7.306,14.8-3.385,18.866,4.013,4.157,12.225,2.3,17.985-3.787s7.445-14.092,3.62-18.426C798.555,729.594,790.287,730.987,784.25,737.379ZM740.12,781.5c-6.258,6.056-7.62,14.533-3.181,18.257,4.359,3.658,12.662,1.766,18.57-3.958,6.116-5.934,7.758-13.772,3.429-17.831C754.741,774.029,746.312,775.5,740.12,781.5ZM275.146,184.019c6.424-5.909,7.7-13.979,3.074-17.749-4.524-3.69-12.709-1.966-18.85,3.7-6.166,5.7-7.9,13.645-3.542,17.507C260.076,191.239,268.915,189.761,275.146,184.019Zm288.383,689.3c-6.324,5.018-6.735,12.475-1.121,16.561,5.715,4.158,15.718,3.295,21.95-1.794,6.2-5.067,6.7-12.15.941-16.339C579.555,867.564,569.937,868.221,563.529,873.317ZM876.443,560.4c-5.23,6.321-6.01,16.584-1.78,22.26,4.133,5.549,11.537,4.855,16.462-1.326,5-6.279,5.8-15.648,1.751-21.474C888.773,553.967,881.634,554.109,876.443,560.4ZM147.151,668.179c3.85-4.63,2.782-13.547-2.624-19.98-5.351-6.383-12.537-7.671-16.179-3.133-3.905,4.865-2.51,13.6,2.932,20.012C136.406,671.108,143.468,672.6,147.151,668.179ZM386.623,868.268c-5.514,3.847-4.812,10.918,1.341,16,6,4.942,15.125,6.155,20.646,2.593,5.746-3.71,5.532-10.851-.713-16.1C401.6,865.452,392.148,864.413,386.623,868.268ZM871.26,383.673c-3.853,5.461-2.827,15.2,2.393,21.329,5.15,6.061,12.2,6.431,15.929,1.052,3.852-5.565,2.757-14.673-2.357-20.922S875.155,378.147,871.26,383.673ZM648.292,125.161c-4.712,3.5-3.737,10.771,2.4,16.124,6.283,5.5,15.4,6.815,20.151,3.14,4.777-3.69,3.415-10.658-2.855-16.068C661.761,123,653.217,121.505,648.292,125.161ZM827.311,692.119c-5.7,6.216-7.171,14.661-3.568,19.125s10.619,3.117,16.166-2.835c5.7-6.123,7.553-14.547,3.962-19.146C840.369,684.78,832.945,685.95,827.311,692.119ZM695.141,824.283c-6.26,5.664-7.452,12.96-2.955,16.545s12.631,1.981,18.711-3.457c6.249-5.6,7.866-12.885,3.392-16.57C709.925,817.205,701.329,818.669,695.141,824.283Zm79.99-608.721c-3.6,3.647-1.95,11.337,3.989,17.294,5.917,5.956,13.335,7.363,16.749,3.475,3.372-3.842,1.337-11.323-4.294-16.963C785.929,213.725,778.726,211.917,775.131,215.562ZM239.339,792.845c3.8-3.428,2.348-11.017-3.519-16.825-5.849-5.806-13.714-7.42-17.326-3.838-3.648,3.618-1.8,10.7,3.959,16.413C228.234,794.315,235.516,796.287,239.339,792.845ZM496.317,94.9c5.881-4.416,5.686-11.4-.234-15.569-5.944-4.178-15.292-4.029-21.223.339s-6,11.167.028,15.513C480.892,99.515,490.34,99.389,496.317,94.9ZM872.8,604.674c-5.1,6.3-5.981,15.424-2.12,20.573,3.847,5.133,10.635,4.092,15.691-2.16,4.967-6.155,6.1-15.217,2.386-20.349S877.9,598.366,872.8,604.674ZM607.477,869.947c-6.3,5.14-6.91,12.148-1.6,15.852s14.116,2.561,20.277-2.5c6.127-5.039,7.122-11.992,2.02-15.74S613.721,864.84,607.477,869.947ZM97.912,493.3c4.408-5.969,4.511-15.632.228-21.519s-11.251-5.685-15.58.229a18.809,18.809,0,0,0-.154,21.134C86.709,499.126,93.5,499.285,97.912,493.3Zm1.429,44c4.046-5.711,3.642-15.509-.942-21.416-4.477-5.775-11.364-5.855-15.293-.365-4.1,5.728-3.7,14.923.837,21C88.521,542.636,95.252,543.069,99.341,537.292Zm441-440.988c5.5-3.985,5.18-10.746-.528-15.2-5.815-4.533-15.354-5.072-21.121-1.126-5.843,4-5.782,10.831.343,15.477S534.622,100.451,540.343,96.3ZM196.552,749.97c3.415-3.751,1.7-11.923-4-17.753-5.572-5.709-12.912-7.122-16.143-3.375-3.373,3.909-1.426,11.42,4.153,17.257C186.176,751.958,193.09,753.772,196.552,749.97ZM320.567,142.01c6.14-5.435,7.155-12.793,2.445-16.059-4.611-3.2-12.97-1.515-18.836,3.585-6.1,5.317-7.525,12.189-2.991,15.756C305.741,148.88,314.358,147.517,320.567,142.01ZM144.894,317.7c5.458-6.136,6.95-15.05,3.469-19.512-3.4-4.353-10.306-3.07-15.51,2.634-5.43,5.961-7.237,14.31-3.9,19.1C132.323,324.759,139.408,323.88,144.894,317.7ZM753.121,193.42c3.52-3.444,1.671-10.44-3.882-15.807-5.685-5.486-13.442-7.515-17.358-4.231-3.944,3.311-2.439,10.629,3.66,16.4C741.6,195.52,749.444,197.016,753.121,193.42ZM98.494,449.131c4.638-5.985,5.154-15.9,1.171-21.362-3.888-5.334-10.806-4.832-15.241.913-4.6,5.968-5.142,15.271-1.144,20.951C87.178,455.168,93.93,455.033,98.494,449.131ZM451.94,95.639c5.887-4.487,6.179-11.409.835-15.315-5.421-3.962-15.092-3.444-21.061,1.075-5.891,4.465-6.427,11.17-1.006,15.157C436.306,100.679,445.842,100.293,451.94,95.639ZM865.51,342.248c-3.274,4.741-1.92,13.63,3.174,19.636s11.958,6.845,15.222,2.056c3.233-4.744,1.752-13.44-3.1-19.337C875.912,338.655,868.828,337.448,865.51,342.248ZM345.266,862.473c-4.8,3.2-3.848,9.875,1.877,14.9,5.809,5.086,14.27,6.847,19.336,3.817,5.1-3.044,4.514-10.278-1.476-15.446C359.207,860.735,350.026,859.3,345.266,862.473Zm-83.428-48.011c-3.782,3.216-2.065,9.965,3.592,15.282s13.357,7.406,17.439,4.442c4.027-2.923,2.838-10.093-2.847-15.591C274.3,813.051,265.658,811.213,261.838,814.462ZM817.4,258.934c-3.175,3.819-1.5,11.9,3.947,17.782,5.456,5.9,12.544,7.324,15.666,3.407,3.167-3.973,1.05-12.161-4.3-17.78C827.451,256.821,820.55,255.153,817.4,258.934Zm-714.61,321.5c3.514-5.258,2.612-14.8-2.057-20.6-4.694-5.835-11.636-6.109-15.067-.792-3.474,5.38-2.422,14.417,2.239,20.25C92.553,585.1,99.26,585.708,102.791,580.43ZM583.48,99.754c5.154-3.6,4.436-10.408-1.366-14.946-5.83-4.56-15.048-5.522-20.291-2-5.284,3.545-4.869,10.377,1.114,15.066C568.9,102.551,578.3,103.365,583.48,99.754ZM408.147,98.4c5.981-4.629,6.467-11.54,1.256-15.036s-14.289-2.46-20.049,2.187c-5.645,4.559-6.43,11.095-1.556,14.641C392.8,103.83,402.13,103.059,408.147,98.4ZM237.016,190.7c5.552-5.5,6.959-12.589,3.376-15.729-3.694-3.235-11.081-1.218-16.56,4.217-5.335,5.3-7.155,12.187-3.806,15.458C223.442,197.981,231.42,196.249,237.016,190.7ZM193.8,233.915c5.413-5.638,6.992-13.142,3.752-16.611-3.347-3.581-10.306-1.736-15.672,3.847-5.207,5.427-7.189,12.714-4.167,16.331C180.786,241.17,188.329,239.622,193.8,233.915ZM101.11,405.4c4.753-5.875,5.594-15.165,1.958-20.284-3.548-5-9.971-4.287-14.562,1.4-4.636,5.75-5.682,14.927-2.166,20.056C89.763,411.573,96.488,411.123,101.11,405.4ZM709.158,151.915c3.782-3.089,2.176-9.469-3.387-14.554-5.589-5.1-13.189-7.132-17.422-4.4-4.248,2.741-3.093,9.813,2.717,15.09S705.354,155.023,709.158,151.915ZM155.016,706.024c2.913-3.967,1.228-11.976-3.971-17.747-5.347-5.948-12.256-7.171-15.077-2.929-2.754,4.137-.744,11.921,4.24,17.438C145.309,708.426,152.067,710.034,155.016,706.024Zm712.8-59.218c-4.964,5.767-6.387,14.478-3.283,18.961,3.167,4.566,10.064,3.293,14.938-2.516,4.855-5.795,6.326-13.891,3.158-18.512S872.855,640.937,867.817,646.806ZM649.736,864.867c-5.792,4.954-6.721,11.788-2.235,14.908,4.582,3.187,13.354,1.474,18.982-3.515s6.645-11.314,2.1-14.534S655.607,859.839,649.736,864.867Zm128.1-90.166c-5.584,5.5-7.288,12.921-3.973,16.213,3.3,3.276,10.413,1.378,15.811-3.944,5.471-5.4,7.412-12.263,4.17-15.767C790.571,767.667,783.511,769.093,777.835,774.7ZM624.875,105.083c4.878-3.127,4.061-9.266-1.633-14.035-5.763-4.818-13.9-6.272-18.915-3.2-4.929,3.012-4.479,9.516,1.2,14.3C611.142,106.883,620.068,108.163,624.875,105.083ZM107.833,622.03c3.256-4.789,2.125-13.261-2.726-19.161s-11.1-6.432-14.213-1.417c-3.055,4.921-1.563,13.489,3.124,18.962C98.656,625.824,104.708,626.629,107.833,622.03ZM820.172,731.294c-5.241,5.585-6.912,13.049-3.951,16.609,3.019,3.626,9.667,1.837,14.891-3.724,5.273-5.626,7.127-12.752,3.992-16.456C832.076,724.147,825.49,725.616,820.172,731.294Zm-85.6,85.627c-5.908,5.339-7.568,12.189-3.966,15.32,3.472,3.018,10.713,1.221,16.17-3.756,5.755-5.259,7.694-11.708,4.2-14.945C747.546,810.361,740.272,811.748,734.568,816.921Zm123.819-513.5c-2.855,4.031-1.379,11.807,3.552,17.514,4.91,5.7,11.194,6.8,13.992,2.7,2.9-4.257,1.073-11.9-3.914-17.5C867.16,300.7,861.234,299.4,858.387,303.423ZM151.6,278.165c5.29-5.6,7.144-13.148,4.415-17.04-2.746-3.913-8.906-2.639-13.964,2.616-5.343,5.563-7.511,12.88-4.765,17C139.941,284.735,146.4,283.683,151.6,278.165Zm-46.044,84.709c4.818-5.713,6.186-13.977,3.239-18.635-2.961-4.679-9-3.907-13.689,1.525-4.923,5.712-6.511,13.811-3.482,18.663C94.571,369.149,100.778,368.548,105.551,362.874Zm260-260.058c5.779-4.734,6.578-10.954,2.005-14.01s-12.6-1.737-18.263,2.847c-5.885,4.775-7.007,10.922-2.328,14.065C351.527,108.781,359.776,107.563,365.554,102.816Zm-59.16,752.567c-4.04,2.844-2.765,8.739,2.677,13.621,5.435,4.864,12.97,6.774,17.233,4.119,4.4-2.741,3.437-9.1-2.4-14.154C318.236,854.044,310.421,852.544,306.394,855.383ZM280.7,149.026c5.831-5.294,7.062-11.894,2.989-14.667-3.955-2.692-11.175-.676-16.642,4.4-5.431,5.051-6.973,11.206-3.268,14.128S275.031,154.186,280.7,149.026ZM911.386,516.214c-4.144,5.583-4.481,14.233-.795,19.659,3.7,5.46,9.691,5.252,13.756-.288s4.455-14.083.885-19.457S915.451,510.729,911.386,516.214ZM519.275,908.321c-5.628,4.066-5.665,10.108-.269,13.8s13.782,3.394,19.384-.656c5.537-4.013,5.892-10.158.615-13.818S524.854,904.285,519.275,908.321ZM910.965,472.79c-3.806,5.436-3.659,14.124.366,19.707s10.063,5.547,13.811.08c3.724-5.435,3.552-14.033-.355-19.5S914.722,467.413,910.965,472.79ZM475.8,907.934c-5.488,3.763-5.32,9.762.2,13.772s13.948,4.244,19.433.51c5.439-3.712,5.582-9.878.139-13.852S481.223,904.212,475.8,907.934Zm432.8-478.5c-3.582,5.026-3.156,13.615,1.049,19.366,4.257,5.838,10.253,6.223,13.7,1.064,3.421-5.125,2.787-13.683-1.334-19.212C918.008,425.286,912,424.659,908.6,429.43ZM433.023,905.179c-5.385,3.322-5.159,9.221.322,13.515,5.563,4.352,13.823,5.2,19.127,1.875,5.261-3.3,5.214-9.492-.286-13.713C446.852,902.756,438.127,902.026,433.023,905.179ZM186.2,764.382c-2.7,2.934-.724,9.143,4.215,14.25,5.158,5.318,11.316,7.459,14.246,4.623,2.808-2.72,1.212-9.386-3.778-14.646C195.844,763.294,188.906,761.428,186.2,764.382Zm581.212-581.2c-2.98,2.646-1.394,9.022,3.822,14.238,5.4,5.425,12.094,7.218,14.972,4.308,2.758-2.793.805-8.979-4.1-13.944C777.116,182.744,770.426,180.5,767.409,183.182ZM909.333,559.827c-4.112,5.545-4.711,14.058-1.415,18.935s9.189,4.333,13.322-1.065c4.082-5.334,4.955-13.795,1.855-18.78C919.957,553.863,913.5,554.209,909.333,559.827Zm-347.045,346.9c-5.314,4.27-5.355,10.2-.266,13.382,5.041,3.15,13.341,2.272,18.683-1.89,5.269-4.108,5.813-10.223,1.01-13.391C576.768,901.563,567.644,902.417,562.288,906.724ZM808.841,224.873c-2.534,3.061-.638,9.894,4.479,15.161,5.094,5.256,11.355,6.778,13.819,3.629,2.442-3.12.285-9.761-4.508-14.785C817.737,223.751,811.414,221.772,808.841,224.873ZM227.818,805.935c-2.985,2.558-1.092,8.586,3.942,13.486,5.065,4.923,11.606,7.149,14.789,4.733,3.141-2.384,1.616-8.819-3.545-13.845C237.883,805.315,230.787,803.394,227.818,805.935ZM664.434,112.041c3.96-2.637,2.7-8.535-2.541-13.017s-13.069-6.286-17.168-3.742c-4.128,2.558-3.175,8.609,2.3,13.245S660.461,114.684,664.434,112.041ZM115.07,661.4c2.563-4.031.962-12.16-3.642-17.489-4.615-5.348-10.766-6.2-13.23-2.038-2.5,4.21-.647,11.855,3.933,17.135S112.488,665.452,115.07,661.4Zm745.988,25.481c-4.826,5.306-6.525,13.1-3.886,16.88,2.661,3.807,8.555,2.5,13.3-2.7,4.693-5.143,6.7-12.655,4.21-16.619C872.236,680.526,865.885,681.556,861.058,686.876ZM689.8,858.121c-5.35,4.86-6.331,11.033-2.375,13.572s11.389,0.565,16.561-4.156,6.526-10.787,2.758-13.36C702.941,851.588,695.072,853.326,689.8,858.121ZM903.643,388c-2.784,4.521-1.773,12.8,2.334,18.149,4.238,5.53,10.292,6.146,13.215,1.528s1.705-12.876-2.539-18.222S906.5,383.356,903.643,388ZM390.913,900.669c-4.483,2.774-3.9,8.517,1.11,12.709,5.181,4.333,13.356,5.751,18.249,3.026,4.827-2.688,4.519-8.743-.853-13.107S395.567,897.791,390.913,900.669ZM163.64,741.157c2.505-3.021.627-10.192-4.308-15.449s-11.168-6.722-13.409-3.387c-2.195,3.262-.045,9.861,4.556,14.828C155.225,742.265,161.12,744.191,163.64,741.157ZM744.069,160.714c3.111-2.457,1.247-8.35-3.859-13.125-5.126-4.788-11.935-6.958-15.089-4.519s-1.527,8.692,3.813,13.541C734.11,161.322,741.055,163.091,744.069,160.714ZM112.3,322.015c4.564-5.369,6.016-12.8,3.441-16.655-2.585-3.874-8.007-2.725-12.563,2.425-4.571,5.173-6.433,12.878-3.85,16.78C101.84,328.361,107.835,327.275,112.3,322.015ZM324.853,109.436c5.379-4.525,6.426-10.337,2.531-12.9-3.954-2.6-10.915-1.066-16.287,3.383-5.349,4.436-6.826,10.389-2.992,12.988C311.821,115.423,319.551,113.9,324.853,109.436Zm580.78,492.712c-4.282,5.282-5.478,13.4-2.751,17.851,2.7,4.4,8.445,3.623,12.661-1.53,4.276-5.232,5.562-12.89,2.8-17.477C915.544,596.359,909.973,596.786,905.633,602.148ZM605.065,902.689c-5.29,4.279-5.809,10.138-1.3,12.8,4.534,2.678,12.456,1.325,17.6-2.873,5.242-4.284,5.942-9.719,1.421-12.562C618.3,897.228,610.435,898.338,605.065,902.689ZM270.624,846.52c-3.32,2.26-1.819,7.648,3.126,12.231,4.93,4.561,11.629,6.674,15.029,4.462,3.425-2.23,2.126-7.831-3.175-12.585C280.482,846.019,273.871,844.313,270.624,846.52ZM65.861,491.968c3.541-5.217,3.526-13.37-.037-18.43-3.545-5.042-9.008-4.692-12.5.631-3.336,5.09-3.35,13-.034,17.921C56.679,497.12,62.356,497.137,65.861,491.968ZM201.405,198.912c5.173-5.049,6.938-11.241,4.222-13.9-2.736-2.678-8.52-.762-13.473,4.169-4.9,4.89-6.963,10.923-4.368,13.6C190.308,205.39,196.463,203.747,201.405,198.912ZM494.937,62.88c5.05-3.465,5.094-8.819.257-12.27-5.04-3.592-12.92-3.674-18.18-.192-5.231,3.468-5.578,9.1-.611,12.579C481.342,66.463,489.8,66.408,494.937,62.88ZM849.63,267.5c-2.364,3.189-.652,10.15,4.019,15.311,4.649,5.151,10.431,6.394,12.6,2.956,2.191-3.475.074-9.954-4.616-15C857.083,265.891,851.947,264.377,849.63,267.5ZM537.672,64.381c4.817-3.171,4.545-8.451-.459-12.137-5.168-3.8-13.017-4.27-18.041-1.018-4.843,3.135-4.844,8.54.154,12.241C524.428,67.251,532.728,67.639,537.672,64.381ZM67.451,534.569c3.106-4.9,2.71-12.813-.95-17.936-3.76-5.274-9.243-5.289-12.438-.2-3.079,4.906-2.625,12.68.98,17.746C58.736,539.361,64.259,539.611,67.451,534.569ZM243.965,157.362c5.053-4.784,6.527-10.559,3.507-12.794s-9.183-.149-14.079,4.512c-4.911,4.688-6.68,10.1-3.8,12.494S238.869,162.2,243.965,157.362ZM451.936,63.655c5.214-3.733,5.46-9.188.716-12.273s-12.556-2.553-17.708,1.151c-5.192,3.739-5.675,9.08-.941,12.208S446.7,67.412,451.936,63.655ZM66.495,449.16c3.781-5.16,4.334-13.178,1.287-17.951s-8.461-4.417-12.194.662c-3.786,5.16-4.388,12.822-1.334,17.7S62.709,454.339,66.495,449.16Zm93.691-208.011c4.839-5.048,6.693-11.514,4.373-14.426s-7.786-1.205-12.451,3.639c-4.732,4.926-6.845,10.99-4.645,14.107S155.344,246.212,160.186,241.149ZM897.1,348.32c-2.43,4.115-1.022,11.586,3.328,16.748s9.657,5.727,12.045,1.448c2.354-4.215.716-11.477-3.535-16.483C904.7,345.043,899.531,344.2,897.1,348.32ZM351.116,894.2c-4.039,2.489-3.048,7.665,2.063,11.9,5.126,4.235,12.243,5.744,16.437,3.294,4.14-2.418,3.423-7.869-1.786-12.117S355.141,891.715,351.116,894.2ZM770.193,808.9c-5.091,4.9-6.7,10.743-3.894,13.194s8.69,0.5,13.593-4.238c4.874-4.723,6.834-10.357,4.219-12.913S775.205,804.067,770.193,808.9ZM811.905,767.2c-4.9,5.045-6.579,11.244-4.02,13.919s8.091,0.794,12.867-4.109c4.709-4.846,6.735-10.833,4.345-13.642S816.768,762.176,811.905,767.2ZM579.4,68.376c4.579-2.778,4.058-8.063-.991-11.915s-12.74-4.778-17.335-1.98-4.164,8.109,1.179,12.041C567.405,70.322,574.921,71.1,579.4,68.376ZM71.13,576.8c2.9-4.433,2.242-12.288-1.565-17.535-3.791-5.234-9.293-5.691-12.092-1.168-2.847,4.606-1.942,12.076,1.984,17.251C63.292,580.389,68.327,581.089,71.13,576.8ZM700.971,120.72c3.2-2.111,1.83-7.142-2.867-11.425-4.808-4.378-11.586-6.47-15.05-4.393-3.5,2.1-2.268,7.415,3.019,11.981C691.129,121.264,697.721,122.861,700.971,120.72ZM123.764,697.906c2.047-3.263.352-10.065-3.96-15.018-4.405-5.071-9.951-6.227-11.965-2.72-2.046,3.559.051,10.029,4.606,15.01C116.818,699.946,121.681,701.225,123.764,697.906ZM69.688,406.854c3.81-4.965,4.793-12.786,2.25-17.138-2.584-4.418-8.129-3.709-11.956,1.356-3.765,4.99-4.715,12.386-2.049,16.779S65.843,411.872,69.688,406.854ZM409.705,66.8c4.99-3.793,5.491-9.211,1.254-11.856-4.336-2.709-12.288-1.6-17.241,2.309-4.868,3.84-5.4,8.949-1.032,11.614C397.034,71.524,404.663,70.641,409.705,66.8ZM899.289,643.265c-4.11,5.065-5.4,12.344-3.007,16.037s7.6,2.511,11.65-2.409c4.023-4.893,5.6-12.169,3.287-15.864C908.892,637.307,903.341,638.266,899.289,643.265ZM646.105,896.407c-5.012,4.113-5.85,9.526-2,11.828,3.863,2.312,10.9.752,15.8-3.324,4.845-4.043,6.006-9.36,2.355-11.694C658.63,890.905,651.08,892.323,646.105,896.407ZM852.667,724.334c-4.482,4.7-6.385,11.429-4.288,14.38,2.112,2.969,7.365,1.389,11.723-3.278,4.327-4.635,6.427-11.063,4.362-14.062C862.463,718.468,857.052,719.726,852.667,724.334ZM727.423,849.577c-4.826,4.463-6.1,10-2.98,11.994s9.512-.189,14.083-4.56c4.467-4.273,6.017-9.4,3.252-11.518C738.947,843.331,732.21,845.148,727.423,849.577ZM619.715,74.522c3.854-2.227,3.064-7.117-1.594-10.968-4.813-3.974-12.113-5.5-16.168-3.218-3.927,2.2-3.4,7.313,1.309,11.161C608.1,75.457,615.771,76.8,619.715,74.522ZM286.739,117.748c4.887-4.3,6.068-9.689,2.765-11.613-3.211-1.874-9.442.095-14.041,4.215-4.689,4.205-6.2,9.4-3.087,11.393C275.4,123.675,282,121.928,286.739,117.748ZM77.5,616.765c2.216-3.856,1-11.156-2.811-16.054-3.925-5.056-9.176-5.735-11.409-1.646-2.17,3.977-.776,11.1,2.963,15.849C70.083,619.789,75.224,620.718,77.5,616.765Zm43.028-332.781c4.357-4.805,6.1-11.565,3.98-14.6-2.062-2.946-6.986-1.493-11.143,3.056-4.232,4.64-6.294,11.212-4.278,14.365C111.039,289.862,116.3,288.655,120.528,283.984Zm76.736,512.629c-1.991,2.125.164,7.3,4.529,11.569s9.738,6.416,11.87,4.461c2.162-1.987.35-7.334-4.284-11.862C204.77,796.264,199.257,794.488,197.264,796.613ZM799.558,194.33c-2.048,2.049-.2,7.722,4.246,12.224s9.957,6.286,11.863,4.1c1.931-2.217-.226-7.437-4.611-11.878C806.653,194.325,801.632,192.255,799.558,194.33Zm88.93,116.745c-1.784,3.366-.142,9.955,3.826,14.6,4.053,4.753,9.189,5.706,11.026,2.239,1.874-3.534-.055-9.859-4.228-14.583C894.943,308.625,890.359,307.551,888.488,311.075Zm-113.121-140.6c2.308-1.9.4-6.689-4.107-11.068-4.534-4.392-9.742-6.51-12.136-4.634-2.348,1.838-.618,7.183,3.978,11.492C767.591,170.483,773.164,172.284,775.367,170.475ZM313.823,885.6c-3.305,1.964-2.027,6.8,2.63,10.785,4.54,3.877,10.89,5.735,14.325,3.992,3.577-1.815,2.692-6.721-2.171-10.919C323.705,885.214,317.184,883.6,313.823,885.6ZM173.474,772.33c1.8-2.291-.02-7.684-4.373-12.225-4.519-4.731-9.556-6.346-11.376-3.91-1.79,2.4.449,7.864,4.707,12.211S171.653,774.642,173.474,772.33ZM75.054,365.67c4-4.963,5.214-11.887,2.887-15.706-2.252-3.7-6.805-2.812-10.662,1.9-3.906,4.776-5.381,11.79-3.132,15.573C66.34,371.127,71.243,370.4,75.054,365.67ZM368.31,72.339c4.925-3.828,5.8-8.614,2.138-10.916-3.839-2.414-10.481-1.178-15.42,2.721-4.878,3.858-5.938,8.779-2.186,11.007C356.479,77.307,363.49,76.091,368.31,72.339ZM839.5,235.085c-1.863,2.362,0,8.179,4.357,12.746,4.238,4.456,9.056,5.849,10.683,3.332,1.65-2.551-.429-7.753-4.58-12.166S841.307,232.792,839.5,235.085ZM238.223,836.372c-2.43,1.7-.837,6.126,3.427,10.3,4.349,4.247,9.917,6.535,12.5,4.844,2.524-1.655,1.118-6.388-3.419-10.675S240.65,834.676,238.223,836.372ZM477.615,938.684c-4.437,2.923-4.15,7.677.514,10.753,4.68,3.082,11.66,3.176,16.178.2,4.457-2.941,4.383-7.721-.3-10.792C489.338,935.78,482.114,935.72,477.615,938.684ZM941.53,474.9c-2.891,4.549-2.7,11.826.454,16.393s7.879,4.449,10.78-.138c2.891-4.572,2.668-11.655-.481-16.2S944.43,470.331,941.53,474.9ZM520.069,938.843c-4.754,3.167-4.927,7.874-.534,10.768s11.424,2.671,16.117-.493,5.1-7.9.765-10.76S524.777,935.7,520.069,938.843ZM942,516.878c-3.252,4.635-3.588,11.821-.792,16.329s7.5,4.353,10.721-.242c3.244-4.628,3.618-11.66.842-16.155S945.211,512.287,942,516.878ZM436.064,935.656c-4.332,2.588-3.847,7.169.972,10.594,4.634,3.287,11.312,3.912,15.572,1.386,4.189-2.485,4.105-7.152-.317-10.467C447.758,933.766,440.328,933.107,436.064,935.656ZM938.605,433.2c-2.569,4.362-1.863,11.447,1.674,16.144,3.388,4.506,7.9,4.556,10.4.242,2.454-4.23,1.785-11.149-1.442-15.668C945.92,429.278,941.138,428.888,938.605,433.2ZM134.127,731.144c1.485-2.506-.47-8.331-4.467-12.635-4.117-4.439-8.929-5.671-10.283-2.862-1.335,2.761.916,8.05,5.007,12.363C128.431,732.264,132.6,733.717,134.127,731.144ZM734.177,131.1c2.47-1.546.957-5.879-3.188-9.827-4.226-4.017-9.986-6.313-12.61-4.753-2.586,1.535-1.24,6.041,3.264,10.171S731.666,132.667,734.177,131.1Zm-76.95-48.3c3.55-1.7,2.657-6.227-1.78-10.046-4.273-3.676-10.7-5.514-14.157-3.87-3.538,1.68-2.9,6.133,1.6,10C647.457,82.817,653.755,84.465,657.227,82.807ZM85.6,654.619c1.818-3.208.411-9.681-3.27-14.291-3.731-4.679-8.643-5.587-10.4-2.1-1.746,3.452-.039,9.537,3.755,14.036C79.511,656.787,83.76,657.879,85.6,654.619ZM684.485,888.574c-4.484,4.017-5.279,8.545-1.991,10.28,3.262,1.722,9.1-.127,13.555-4.087,4.343-3.866,5.627-8.471,2.672-10.255C695.682,882.678,689.041,884.485,684.485,888.574Zm207.13-207.118c-4.077,4.468-5.881,10.678-4.208,13.888,1.72,3.3,5.95,2.448,9.929-1.8,4.094-4.379,6.247-10.65,4.616-14.044C900.406,676.279,895.575,677.113,891.615,681.456ZM210.693,167.022c4.2-4.169,5.839-9.28,3.687-10.843-2.18-1.587-7.359.646-11.416,4.673-4.145,4.118-5.938,8.674-3.86,10.477C201.164,173.117,206.413,171.275,210.693,167.022Zm-40.635,40.633c4.137-4.236,6.028-9.695,4.255-11.637s-6.639.052-10.644,4.132c-4.091,4.172-6.139,9.1-4.42,11.261S165.841,211.981,170.058,207.655Zm391.907,729.02c-4.61,3.293-4.923,7.962-.823,10.437s10.907,1.78,15.464-1.528c4.47-3.244,5.052-8.022,1.147-10.429C573.875,932.767,566.481,933.449,561.965,936.675ZM939.784,558.844c-3.358,4.488-4.087,11.576-1.683,15.695,2.424,4.159,6.94,3.805,10.307-.665,3.3-4.391,4.177-11.472,1.855-15.59C947.978,554.225,943.084,554.427,939.784,558.844ZM395.764,930.183c-3.692,1.906-3.237,6.371.858,9.739,4.245,3.493,11.118,4.853,15.062,2.865,3.789-1.908,3.548-6.427-.657-9.856C406.694,929.4,399.653,928.176,395.764,930.183ZM933.2,392.794c-1.955,3.684-.9,10.553,2.383,14.915,3.4,4.515,8.163,4.974,10.166,1.112,1.968-3.79.791-10.384-2.516-14.71C939.824,389.656,935.225,388.985,933.2,392.794ZM802.454,799.608c-4.026,4.052-5.768,9.106-3.965,10.918,1.869,1.875,6.818-.153,10.838-4.192,3.921-3.943,5.912-8.68,4.225-10.637C811.82,793.685,806.622,795.414,802.454,799.608ZM329.3,80.048c4.447-3.618,5.406-8.146,2.256-9.888-3.181-1.762-9.049-.173-13.414,3.46-4.24,3.534-5.492,8.012-2.559,9.769C318.5,85.132,324.879,83.649,329.3,80.048ZM82.834,326.558c3.683-4.37,5.177-10.584,3.454-13.683s-5.97-2.057-9.624,2.216c-3.59,4.2-5.371,10.4-3.726,13.546S79.206,330.869,82.834,326.558Zm795.322-49.672c-1.258,2.572.579,8.169,4.213,12.247,3.735,4.2,8.224,5.389,9.535,2.719,1.351-2.747-.741-8.018-4.619-12.229C883.415,275.433,879.491,274.156,878.156,276.886ZM279.711,875.212c-2.53,1.412-1.074,5.606,3,9.278,3.951,3.559,9.316,5.641,12,4.445,2.823-1.255,1.76-5.483-2.567-9.4C287.779,875.579,282.3,873.769,279.711,875.212Zm481.848-35.481c-4.01,3.9-5.494,8.445-3.448,9.954,2.106,1.556,7.267-.572,11.3-4.434,4.132-3.956,5.809-8.188,3.651-9.826S765.8,835.6,761.559,839.731ZM842.314,759c-3.814,4.116-5.587,9.269-4.074,11.273,1.562,2.066,6.1.234,9.953-3.794,3.957-4.14,5.915-8.95,4.3-11.175S846.351,754.636,842.314,759ZM251.492,127.778c4.254-3.89,5.689-8.132,3.467-9.662-2.33-1.605-7.217.3-11.443,4.222-4.149,3.855-5.874,8.177-3.625,9.641C242.07,133.4,247.355,131.568,251.492,127.778ZM130.731,248.547c3.988-4.366,5.613-9.5,3.915-11.656-1.617-2.054-5.611-.368-9.436,3.765-3.711,4.016-5.753,9.051-4.389,11.342C122.218,254.354,126.818,252.844,130.731,248.547ZM602.966,932.2c-4.248,3.32-4.785,7.672-1.313,9.622,3.579,2.011,10.126.744,14.436-2.68,4.374-3.484,4.908-7.624,1.08-9.59C613.514,927.673,607.322,928.783,602.966,932.2ZM935.141,600.055c-3.442,4.4-4.583,11.12-2.57,14.611,1.955,3.389,6.2,2.662,9.512-1.49,3.393-4.261,4.627-10.293,2.765-14.019C942.9,595.254,938.634,595.586,935.141,600.055ZM493.216,33.672c4.31-2.633,4.469-6.806.474-9.488s-10.5-2.695-14.7-.024c-4.253,2.708-4.427,6.853-.281,9.489A14.734,14.734,0,0,0,493.216,33.672ZM36.485,490.52c2.668-4.172,2.694-10.839.057-14.853s-6.836-3.74-9.491.506a14.179,14.179,0,0,0,.2,14.645C29.923,494.7,33.871,494.616,36.485,490.52ZM925.677,354.459c-1.69,3.288-.351,9.233,3.189,13.531,3.4,4.142,7.271,4.693,8.894,1.406,1.644-3.334.085-9.368-3.313-13.4C931.15,352.1,927.275,351.35,925.677,354.459ZM534.794,35.264c3.83-2.264,3.7-6.32-.179-9.15-4-2.916-10.6-3.42-14.587-1.069-4.072,2.4-3.928,6.491.451,9.4C524.682,37.246,530.875,37.582,534.794,35.264ZM38.251,531.826c2.249-3.842,1.909-10.307-.8-14.4-2.788-4.217-7.1-4.316-9.445-.325-2.4,4.074-1.883,10.316,1.145,14.5C32.06,535.622,35.947,535.764,38.251,531.826Zm319.238,390.8c-3.333,1.649-2.494,5.5,1.8,8.983,4.135,3.347,9.672,4.757,13,3.169,3.363-1.607,2.726-5.825-1.529-9.174C366.628,922.359,360.639,921.07,357.489,922.63ZM95.915,689.323c1.219-2.583-.5-8.045-3.96-12.046-3.566-4.127-7.684-5.117-8.9-2.318-1.239,2.853.787,8.04,4.514,12.106C91.138,690.949,94.658,691.984,95.915,689.323ZM692.257,92.935c2.721-1.249,1.559-5.094-2.412-8.637-3.834-3.417-9.13-5.407-11.86-4.266-2.813,1.174-2.044,4.917,1.924,8.527C684.085,92.367,689.5,94.2,692.257,92.935ZM451.979,34.518c4.072-2.806,4.334-6.941.688-9.227-3.755-2.357-10.335-1.858-14.511,1.06-4.259,2.981-4.5,7-.427,9.312C441.626,37.878,447.805,37.4,451.979,34.518ZM37.409,449.076c2.812-4.026,3.358-10.552,1.242-14.357-2.165-3.891-6.527-3.546-9.4.633-2.821,4.113-3.269,10.242-.986,14.082S34.555,453.173,37.409,449.076ZM170.737,786.4c-1.169,1.564.934,5.551,4.622,9.256s7.5,5.643,8.868,4.267c1.388-1.391-.6-6.032-4.422-9.769C176.054,786.487,171.886,784.863,170.737,786.4Zm618.616-618.62c-1.5,1.24.188,5.335,4,9.133,3.832,3.827,8.065,5.669,9.518,4.375,1.485-1.325-.6-5.466-4.3-9.11C794.961,168.641,790.834,166.56,789.353,167.782ZM575.309,39.76c3.525-1.913,3.015-6.07-.982-8.984-3.88-2.828-10.047-3.763-13.6-1.987-3.71,1.851-3.5,5.966.578,9C565.4,40.836,571.744,41.7,575.309,39.76ZM42.742,572.346c1.893-3.525,1.011-10.148-1.949-14.081-2.875-3.819-6.942-4.132-8.862-.781-2.006,3.5-1.119,9.756,1.881,13.825C36.834,575.4,40.822,575.921,42.742,572.346ZM827.976,206.565c-1.162,1.571.838,6.109,4.606,9.923,3.737,3.791,7.785,5.321,8.734,3.53,0.917-1.727-1.306-5.978-4.708-9.46C833.1,206.969,829.125,205.018,827.976,206.565Zm53.145,511.048c-3.6,4.008-5.282,9.216-3.883,11.42s5.351,0.632,8.848-3.3c3.353-3.77,5.282-8.75,4.093-11.024C888.959,712.371,884.649,713.676,881.121,717.613ZM720.649,878.08c-4.033,3.551-5.326,7.73-2.968,9.031,2.376,1.313,7.37-.645,11.235-4.2,3.815-3.51,5.282-7.548,3-8.792C729.716,872.922,724.512,874.673,720.649,878.08ZM209.593,825c-1.5,1.093.309,4.86,3.772,8.321,3.622,3.616,7.99,5.943,9.679,4.9,1.619-1,.1-4.958-3.49-8.566C215.915,825.992,211.145,823.871,209.593,825Zm-63.7-64.249c0.981-1.7-1.042-6.273-4.629-9.985s-7.442-5.17-8.308-3.35,1.423,6.245,4.848,9.759S144.922,762.42,145.89,760.751ZM642.359,924.9c-3.875,3.176-4.6,7.206-1.672,8.7,3.023,1.55,9.033-.091,12.822-3.361,3.756-3.247,4.475-6.961,1.492-8.429C652.036,920.347,646.242,921.707,642.359,924.9ZM763.837,142.833c1.56-1.117-.268-4.753-3.9-8.226-3.622-3.456-7.969-5.632-9.637-4.594s-0.057,5,3.644,8.479S762.315,143.922,763.837,142.833ZM410.676,38.531c4.075-2.715,4.752-6.815,1.558-8.819-3.359-2.108-9.427-1.347-13.56,1.626-3.889,2.8-4.6,6.82-1.447,8.734S406.512,41.308,410.676,38.531ZM41.291,408.023c2.856-4,3.632-10.1,1.779-13.452s-5.725-2.862-8.636.974c-2.879,3.793-3.885,9.909-2.122,13.358C34.125,412.455,38.391,412.09,41.291,408.023ZM927.912,639.35c-3.17,3.795-4.634,9.744-3.251,12.721s5.168,2.3,8.426-1.374c3.2-3.612,4.886-9.318,3.56-12.5C935.261,634.87,931.261,635.333,927.912,639.35ZM292.981,89.739c3.871-3.427,4.814-7.211,2.244-8.358s-7.55.827-11.234,4.253c-3.522,3.279-4.7,6.862-2.5,8.042C283.764,94.887,289.188,93.1,292.981,89.739ZM92.585,290.15c3.439-3.809,5.153-9.02,3.926-11.412-1.237-2.41-4.836-1.176-8.224,2.634-3.344,3.765-5.248,8.9-4,11.238C85.487,294.869,89.287,293.81,92.585,290.15ZM613.738,46.709c3.2-1.479,2.7-4.871-1.049-7.93-3.777-3.073-9.088-4.367-12.343-2.889s-2.932,5.071.822,8.089C604.886,46.972,610.592,48.162,613.738,46.709ZM49.684,610.817c1.481-3.169.328-8.647-2.736-12.5-3.047-3.845-6.568-4.2-8.06-.934-1.466,3.215-.158,8.732,2.831,12.395C44.731,613.464,48.213,613.974,49.684,610.817Zm816.578-364.4c-0.808,1.8,1.012,6.048,4.293,9.564,3.4,3.652,6.846,4.882,7.685,2.936s-1.282-6.114-4.63-9.593S867.12,244.512,866.262,246.414Zm-544.5,666.392c-2.424,1.161-1.494,4.389,2.013,7.5,3.637,3.214,8.579,4.96,11.288,3.82s1.927-4.644-1.906-7.865S324.319,911.583,321.762,912.806ZM915.776,318.9c-1.164,2.587.391,7.733,3.625,11.469,3.128,3.624,6.526,4.386,7.683,1.857,1.219-2.661-.412-7.5-3.608-11.222C920.264,317.274,916.949,316.3,915.776,318.9ZM249.212,863.334c-1.651.947-.222,4.059,3.153,7.3,3.5,3.35,7.65,5.431,9.563,4.564s0.634-4.333-3.027-7.716S250.944,862.343,249.212,863.334ZM181,177.851c3.439-3.47,5.071-7.267,3.8-8.411-1.315-1.189-5.07.838-8.543,4.38-3.323,3.4-5.006,6.82-3.731,8.034S177.493,181.4,181,177.851Zm190.284-133.2c3.71-2.886,4.354-6.558,1.5-7.974-2.832-1.412-8.3-.1-11.91,2.757-3.679,2.918-4.4,6.321-1.526,7.775C362.243,48.675,367.512,47.59,371.281,44.654ZM47.634,368.306c2.867-3.725,4.03-9.3,2.6-12.035s-5.021-1.912-7.879,1.7c-2.91,3.684-4.1,8.832-2.622,11.787S44.714,372.107,47.634,368.306ZM220.176,139.375c3.373-3.238,4.918-6.993,3.391-7.838s-5.682,1.335-8.872,4.483c-3.3,3.259-4.815,6.512-3.259,7.432C212.916,144.324,216.856,142.565,220.176,139.375Zm-77.995,78c3.261-3.342,5.195-7.653,4.24-9.053s-4.531.393-7.663,3.641c-3.1,3.218-5.04,6.956-4.231,8.521C135.374,222.125,138.848,220.8,142.181,217.376ZM792.424,827.917c-3.473,3.274-5.177,7.093-3.832,8.168,1.3,1.045,4.826-.7,8.1-3.829,3.29-3.146,5.3-6.879,4.113-8.035C799.684,823.132,795.732,824.8,792.424,827.917Zm38.413-38.41c-3.195,3.39-4.719,7.094-3.587,8.281,1.173,1.228,4.751-.691,7.963-4.054,3.056-3.2,4.921-6.949,3.888-8.168C838.025,784.292,834.039,786.1,830.837,789.507ZM723.915,104.922c1.605-.9.119-4.094-3.126-7.068s-7.553-5.02-9.353-4.261c-1.825.766-.643,4.07,2.715,7.153C717.64,103.955,722.265,105.85,723.915,104.922ZM108.032,720.688c0.627-1.908-1.344-6.406-4.4-9.659-3.069-3.271-6.4-4.377-7.062-2.493-0.68,1.919,1.385,6.133,4.419,9.388C104.144,721.305,107.378,722.658,108.032,720.688Zm810.217-44.232c-2.954,3.417-4.551,8.459-3.5,10.648s4.492,1.057,7.371-2.305c2.951-3.446,4.528-8.082,3.39-10.368C924.427,672.253,921.127,673.119,918.249,676.456Zm-238.922,238.9c-3.408,2.977-4.2,6.479-1.809,7.4,2.307,0.894,6.95-.794,10.212-3.591,3.407-2.927,4.464-6.233,2.194-7.3S682.754,912.352,679.327,915.351Zm290.16-438.139c-1.843,3.287-1.668,8.9.393,12.24,2.133,3.455,5.807,3.548,7.831.273,2.042-3.3,1.827-8.956-.46-12.405S971.411,473.78,969.487,477.212ZM480.2,966.459c-3.414,1.855-3.441,5.531-.135,7.791s9.1,2.521,12.463.55c3.382-1.986,3.352-5.553-.145-7.788A13.188,13.188,0,0,0,480.2,966.459ZM969.831,517.972c-2.207,3.473-2.4,9.346-.416,12.518,1.908,3.055,5.352,2.87,7.576-.333,2.322-3.347,2.605-8.952.6-12.335C975.572,514.423,972.066,514.457,969.831,517.972ZM520.9,966.85c-3.459,2.192-3.554,5.855-.28,7.809,3.151,1.882,8.6,1.7,12.063-.383,3.58-2.159,3.917-5.717.656-7.748C530.034,964.472,524.429,964.61,520.9,966.85ZM59.224,647.108c0.989-2.6-.534-7.454-3.562-10.939-2.875-3.315-5.883-3.779-6.837-1.163-0.93,2.547.637,7.289,3.354,10.509C54.986,648.839,58.262,649.636,59.224,647.108ZM650.14,56.193c2.443-1.011,1.721-3.943-1.552-6.8-3.466-3.014-8.09-4.592-10.737-3.528-2.474,1-1.93,4.169,1.3,6.952C642.448,55.667,647.673,57.214,650.14,56.193ZM966.348,436.88c-1.629,3.076-1.118,8.486,1.16,11.905,2.332,3.5,5.957,3.707,7.66.517,1.686-3.156,1.107-8.242-1.289-11.7C971.345,433.945,968.086,433.593,966.348,436.88Zm-526.577,526.5c-3.056,1.643-2.877,4.938.323,7.344,3.273,2.462,8.959,3.166,12.143,1.451,3.144-1.692,3.034-4.924-.329-7.361C448.353,962.229,443.034,961.621,439.771,963.375Zm313.241-97.151c-3.333,3.088-4.689,6.277-3.169,7.087,1.461,0.779,5.007-.971,8.086-3.827,3.31-3.077,4.881-6.043,3.529-6.986S756.33,863.14,753.012,866.224ZM869.285,749.956c-2.987,3.168-4.654,6.829-3.973,8.379,0.7,1.6,3.663.235,6.71-2.915,3.1-3.209,4.992-6.822,4.237-8.429S872.406,746.633,869.285,749.956Zm98.269-191.565c-2.561,3.419-3.3,8.607-1.71,11.746,1.517,3,4.634,2.8,7.061-.394,2.594-3.415,3.373-8.429,1.747-11.608C973.089,555.082,969.971,555.16,967.554,558.391ZM561.31,964.588c-3.215,2.405-3.3,5.566-.255,7.106,3.178,1.608,8.24.814,11.629-1.771,3.2-2.445,3.388-5.5.354-7.04C569.894,961.286,564.747,962.016,561.31,964.588Zm-456.633-707.9c2.892-3.154,4.586-7.074,3.869-8.625-0.748-1.614-3.762-.171-6.73,3.063-2.89,3.155-4.553,6.67-3.769,8.316S101.7,259.942,104.677,256.685ZM259.75,101.618c3.125-2.905,4.271-5.923,2.644-6.618-1.694-.724-5.643,1.281-8.777,4.291-3.05,2.935-4.158,5.567-2.473,6.267S256.529,104.618,259.75,101.618ZM903.743,286.5c-0.71,1.806.883,5.765,3.769,9,2.89,3.246,5.7,4.189,6.375,2.272,0.661-1.869-1.176-5.913-3.9-8.9C907.29,285.9,904.434,284.759,903.743,286.5Zm56.624,111.39c-1.357,2.74-.477,7.6,2.057,10.969s5.559,3.679,6.867.766c1.214-2.7.273-7.493-2.021-10.615C964.911,395.8,961.684,395.238,960.367,397.89ZM56.584,330.844c2.686-3.221,4.122-7.982,3.145-10.1s-4.1-1.147-6.742,2.034c-2.62,3.154-3.982,7.255-3.071,9.576C50.872,334.793,53.81,334.175,56.584,330.844Zm276.9-276.963c3.328-2.648,4.268-5.868,2.116-6.918-2.122-1.038-6.785.474-9.949,3.126-3.27,2.741-4.114,5.615-1.825,6.616C326.036,57.668,330.215,56.49,333.488,53.881ZM289.377,900.758c-1.636.76-.53,3.349,2.479,6.117,3.147,2.89,6.985,4.672,8.892,3.971,1.843-.676.793-3.76-2.329-6.478C295.271,901.625,291.027,900,289.377,900.758ZM400.767,957.4c-2.692,1.386-2.055,4.357,1.387,6.887,3.258,2.389,7.761,3.257,10.5,1.959,2.756-1.307,2.4-4.581-.839-6.947C408.56,956.917,403.374,956.055,400.767,957.4ZM815.891,182.215c-0.842.6,0.856,3.778,3.78,6.736,2.816,2.857,5.753,4.508,6.494,3.818,0.758-.707-1.17-3.771-3.943-6.575C819.589,183.533,816.7,181.637,815.891,182.215ZM185.234,812.854c-0.619.783,1.195,3.542,3.942,6.277s5.607,4.614,6.5,4.087-0.78-3.707-3.645-6.545S185.857,812.059,185.234,812.854ZM789.073,155.6c0.785-.633-1-3.414-3.738-6.094s-5.841-4.663-6.709-4.095,0.734,3.517,3.577,6.276S788.3,156.223,789.073,155.6ZM158.614,786.007c0.561-.843-1.257-4.1-4.03-6.919s-5.683-4.361-6.164-3.421,1.528,4.039,4.208,6.749S158.051,786.852,158.614,786.007ZM961.78,598.2c-2.353,3.061-3.316,8.1-2.078,10.531,1.192,2.33,4.144,1.807,6.42-1.064,2.421-3.059,3.4-7.724,2.086-10.342C966.959,594.827,964.1,595.185,961.78,598.2ZM601.016,958.912c-3.032,2.419-3.235,5.536-.5,6.584,2.629,1.01,7.368-.136,10.156-2.387,3.047-2.467,3.307-5.3.5-6.442C608.53,955.593,603.942,956.577,601.016,958.912ZM222.956,849.985c-1,.452.424,2.85,3.051,5.438,2.613,2.571,5.622,4.491,6.708,4.106,1.107-.392-0.117-2.86-2.937-5.6C226.95,851.177,223.968,849.527,222.956,849.985ZM853.024,219.946c-0.466.977,1.222,4.1,3.857,6.828,2.618,2.713,5.249,4.025,5.671,2.977,0.434-1.071-1.37-3.9-4.05-6.646S853.5,218.948,853.024,219.946ZM70.8,680.345c0.725-1.757-.643-5.467-3.246-8.468-2.489-2.876-4.968-3.7-5.645-1.968-0.718,1.832.808,5.488,3.37,8.382C67.719,681.045,70.122,681.986,70.8,680.345ZM683.253,67.823c1.7-.636.838-2.969-1.9-5.448s-6.273-4.065-8.191-3.568c-2.025.523-1.378,3.084,1.536,5.654S681.46,68.491,683.253,67.823ZM364.411,948.59c-2.339.826-1.978,3.179,0.774,5.578,2.913,2.535,6.955,3.811,9.368,2.863,2.272-.895,1.895-3.449-0.929-5.77S366.7,947.783,364.411,948.59Zm587.31-587.412c-0.963,2.171-.012,6.074,2.293,9.094,2.435,3.2,5.093,3.743,6.037,1.325,0.891-2.288-.253-6.22-2.56-9.068S952.66,359.058,951.721,361.178ZM9.416,488.562a10.794,10.794,0,0,0,.146-10.14C7.84,475.48,5,475.632,3.193,478.7a10.269,10.269,0,0,0,.08,10.024C5.048,491.516,7.667,491.468,9.416,488.562ZM491.456,6.475c3.025-1.807,2.984-4.646-.028-6.363a10.471,10.471,0,0,0-10.057.281c-2.822,1.794-2.856,4.454-.024,6.149A10.543,10.543,0,0,0,491.456,6.475ZM713.492,903.328c-2.874,2.582-3.814,5.064-2.268,5.708s4.8-.838,7.609-3.366c2.931-2.639,4.092-5.211,2.508-5.808C719.825,899.292,716.31,900.794,713.492,903.328Zm-181.928-895c2.683-1.468,2.581-4.159-.178-6.073s-7.192-2.317-9.963-.886c-2.844,1.469-2.938,4.071-.163,6.047C524.193,9.512,528.7,9.9,531.564,8.331ZM11.3,528.629c1.476-2.69,1.21-7.142-.623-10.029s-4.579-3.068-6.13-.478c-1.6,2.667-1.381,6.872.489,9.874C7.022,531.18,9.738,531.481,11.3,528.629ZM906.367,710.46c-2.709,2.976-4.165,6.5-3.428,8,0.7,1.424,3.061.321,5.636-2.516,2.5-2.757,4.091-6.146,3.492-7.689S908.914,707.661,906.367,710.46ZM451.306,7.8c2.9-1.89,3.124-4.726.531-6.16s-7.194-.975-9.988.964C439,4.587,438.9,7.226,441.681,8.65,444.315,10,448.488,9.64,451.306,7.8ZM750.953,118.561c1.216-.236.079-2.405-2.419-4.9-2.455-2.447-5.566-4.446-6.783-4.2-1.242.249-.164,2.571,2.541,5.173C746.889,117.139,749.783,118.785,750.953,118.561Zm-629.411,629.5c0.359-1.063-1.382-4.247-3.882-6.831s-4.922-3.69-5.175-2.491c-0.262,1.224,1.619,4.121,4.22,6.751C119.151,747.959,121.19,749.1,121.542,748.063ZM10.763,448.371c1.862-2.878,2.207-7.587.752-10.023-1.478-2.475-4.306-2.049-6.153.874-1.791,2.836-2.093,6.955-.679,9.53C6.171,451.459,8.861,451.317,10.763,448.371ZM570.632,13.334c2.3-1.123,1.873-3.839-.848-5.777s-7.2-2.63-9.37-1.4c-2.125,1.2-1.808,3.759.744,5.621C563.839,13.733,568.333,14.453,570.632,13.334ZM192.807,152.426c2.427-2.411,3.806-5.006,3-5.4s-3.6,1.461-5.9,3.8c-2.253,2.3-3.662,4.567-3.028,5.083C187.544,156.444,190.379,154.841,192.807,152.426ZM155.42,189.813c2.4-2.437,3.959-5.257,3.378-5.867s-3.161,1.078-5.455,3.445c-2.246,2.32-3.824,4.8-3.393,5.531C150.4,193.687,153.012,192.261,155.42,189.813ZM16.3,567.709c1.12-2.259.394-6.814-1.549-9.478s-4.727-2.855-5.776-.441c-1.022,2.347-.3,6.458,1.555,9.063C12.485,569.6,15.153,570.019,16.3,567.709ZM299.206,65.126c2.456-2.263,3.068-4.508,1.439-4.981s-4.871,1-7.347,3.256c-2.431,2.218-3.336,4.53-1.9,5.067C292.891,69.029,296.683,67.45,299.206,65.126ZM639.138,950.348c-2.585,2.085-3.178,4.624-1.332,5.449,1.921,0.861,6.059-.433,8.622-2.634,2.483-2.127,2.966-4.453,1.021-5.216C645.488,947.178,641.767,948.221,639.138,950.348ZM953.31,636.206c-2.206,2.726-3.33,6.864-2.409,8.649,0.88,1.7,3.4.926,5.438-1.628,2.089-2.617,3.152-6.258,2.328-8.2S955.441,633.576,953.31,636.206ZM68.208,296.114c2.237-2.521,3.6-5.9,3.108-7.445-0.5-1.566-2.637-.828-4.9,1.606-2.331,2.506-3.989,6.14-3.406,7.689C63.56,299.431,66.007,298.6,68.208,296.114ZM411.724,12.082c2.737-2,2.945-4.32.538-5.406-2.284-1.031-5.775-.389-8.408,1.5-2.689,1.939-3.18,4.422-1.031,5.492S409.074,14.016,411.724,12.082ZM15.085,408.723c1.984-2.763,2.572-6.54,1.409-8.784s-3.437-1.747-5.439,1.1c-1.8,2.567-2.48,6.372-1.481,8.489C10.619,411.75,13.167,411.4,15.085,408.723ZM818.379,815.876c-2.238,2.29-3.572,4.647-3.025,5.162,0.576,0.543,3-1.063,5.335-3.407,2.414-2.429,3.8-4.589,3.16-5.147S820.863,813.329,818.379,815.876Zm71.652-557.644c-0.292,1.062,1.113,3.756,3.306,6.124s4.244,3.346,4.564,2.282c0.355-1.175-1.2-3.787-3.551-6.23C892.111,258.094,890.329,257.146,890.031,258.232ZM261.339,886.97c-1.238.191-.246,2.132,2.127,4.406,2.267,2.169,4.895,3.746,6.044,3.511,1.18-.242.389-2.114-1.947-4.355S262.519,886.789,261.339,886.97ZM118.252,227.635c2.241-2.25,3.876-4.985,3.661-5.94s-2.251.218-4.42,2.415c-2.254,2.287-3.807,4.7-3.514,5.661C114.259,230.685,116.085,229.814,118.252,227.635ZM940.3,327.366c-0.473,1.593.611,4.562,2.63,7,2.162,2.616,4.236,3.293,4.8,1.636,0.553-1.61-.759-4.921-2.8-7.261S940.779,325.75,940.3,327.366ZM230.1,115.767c2.346-2.2,3.582-4.42,2.766-4.8s-3.415,1.254-5.646,3.415c-2.322,2.249-3.455,4.142-2.561,4.476C225.51,119.179,227.828,117.905,230.1,115.767ZM781.4,852.488c-2.288,2.161-3.537,4.236-2.987,4.79,0.6,0.605,2.76-.658,5.076-2.852,2.281-2.16,3.795-4.378,3.278-4.946S783.705,850.307,781.4,852.488Zm74.394-74.4c-2.314,2.335-3.724,4.757-3.334,5.531,0.37,0.738,2.158-.324,4.3-2.445,2.218-2.193,3.924-4.713,3.7-5.6S858.015,775.841,855.793,778.086ZM330.287,937.281c-1.556.5-1.006,2.316,1.254,4.38,2.419,2.206,5.482,3.543,7.254,3.081,1.7-.443,1.2-2.631-1.14-4.658S331.861,936.781,330.287,937.281ZM607.705,21.123c1.769-.76,1.332-3.024-0.875-4.79-2.338-1.871-6.306-2.864-8.094-1.976s-1.269,3.034,1.217,4.9C602.421,21.1,605.86,21.913,607.705,21.123ZM24.1,604.794c0.821-1.834-.155-5.849-2.031-8.162-1.783-2.2-4.086-2.479-4.807-.629-0.754,1.932.173,5.334,2.057,7.722C21.218,606.133,23.28,606.616,24.1,604.794ZM712.5,81.748c1.158-.123.383-1.792-1.673-3.788-2.1-2.035-4.591-3.543-5.8-3.421-1.15.114-.44,1.992,1.54,3.891C708.522,80.309,711.373,81.864,712.5,81.748ZM84.713,709.549c0.209-1.08-1.13-3.6-3.152-5.765-2.039-2.186-3.74-2.908-3.933-1.751-0.184,1.1,1.352,3.764,3.217,5.721S84.512,710.578,84.713,709.549Zm288.7-689.731c2.391-1.778,2.857-3.766,1.111-4.568-1.77-.814-4.778-0.054-7.117,1.747-2.232,1.72-2.839,3.851-1.274,4.608C367.672,22.346,371.134,21.513,373.414,19.818ZM22.458,370.868c1.851-2.213,2.738-5.369,2.088-7.251-0.66-1.909-2.489-1.662-4.346.537-1.773,2.1-2.824,5.48-2.228,7.3C18.557,373.24,20.694,372.981,22.458,370.868ZM674.466,939.1c-2.045,1.787-2.591,3.407-1.363,3.909,1.321,0.539,3.828-.473,6.015-2.36,2.122-1.837,2.832-3.644,1.545-4.079S676.564,937.263,674.466,939.1ZM942.012,671.581c-1.783,2.058-2.781,4.5-2.465,5.9,0.339,1.5,1.936,1.038,3.851-1.066,1.859-2.041,3.087-4.789,2.694-6.164S943.845,669.46,942.012,671.581ZM809.623,169.064c0.27-.17-0.964-1.7-2.628-3.383-1.75-1.768-3.57-3.276-3.829-3.063-0.243.2,0.943,1.824,2.73,3.6S809.349,169.237,809.623,169.064ZM165.636,800.136c-0.186.258,1.1,1.824,2.842,3.577,1.764,1.77,3.3,3.058,3.583,2.9s-1.051-2.021-2.863-3.827C167.513,801.111,165.814,799.886,165.636,800.136Zm726.492-59.357c-1.746,1.851-2.96,4.035-2.754,4.826s1.731-.032,3.49-1.828c1.721-1.763,3.15-4,3.059-4.9C895.831,737.935,893.956,738.84,892.128,740.779ZM743.536,889.355c-1.808,1.766-2.529,3.35-1.667,3.516s2.961-1.133,4.779-2.887c1.895-1.832,2.84-3.587,1.895-3.667C747.646,886.245,745.291,887.641,743.536,889.355ZM838.661,198.1c-0.145.244,1.089,1.953,2.639,3.559,1.677,1.739,3.416,3.047,3.643,2.819s-1.187-1.982-2.84-3.651S838.822,197.828,838.661,198.1ZM483.131,992.815c-1.835.989-1.76,3.02,0.135,4.213a7.653,7.653,0,0,0,7.006.229c1.757-1.092,1.578-3.121-.4-4.228A8.153,8.153,0,0,0,483.131,992.815ZM642.256,31.854c1.278-.429.683-2.241-1.213-3.813s-4.817-2.617-6-2.1c-1.216.534-.544,2.412,1.452,3.955C638.336,31.319,641.1,32.241,642.256,31.854ZM201.112,835.628c-0.232.17,0.931,1.616,2.476,3.175,1.659,1.671,3.467,3.177,3.852,3.117s-0.829-1.747-2.5-3.406C203.24,836.835,201.356,835.454,201.112,835.628ZM995.768,480.287a8.013,8.013,0,0,0,.3,6.722c1.15,1.956,3.155,2.064,4.218.255a7.831,7.831,0,0,0-.3-7.035C998.781,478.391,996.723,478.405,995.768,480.287Zm0.207,39.358a7.75,7.75,0,0,0-.2,7.06c1.011,1.614,2.911,1.468,4.037-.293a7.557,7.557,0,0,0,.21-7.017C998.991,517.777,997.075,517.885,995.975,519.645ZM34.828,639.306c0.452-1.248-.625-4.259-2.235-6.137-1.5-1.747-3.244-2.2-3.676-.994-0.461,1.283.68,4.252,2.3,6.1C32.728,640,34.4,640.489,34.828,639.306ZM522.65,992.938c-1.941,1.147-1.992,3.217-.123,4.24a7.682,7.682,0,0,0,6.7-.282c1.95-1.171,2.05-3.222.18-4.228A7.951,7.951,0,0,0,522.65,992.938ZM82.168,265.005c1.627-1.669,2.861-3.859,2.751-4.769s-1.483-.285-3.113,1.38c-1.548,1.582-2.956,3.874-2.877,4.775S80.574,266.641,82.168,265.005ZM267.9,79.284c1.674-1.615,2.25-3.078,1.313-3.181s-3.03,1.174-4.7,2.815c-1.644,1.614-2.344,3.087-1.46,3.176C263.913,82.179,266.31,80.817,267.9,79.284ZM136.412,770.891c0.142-.311-1.056-1.973-2.73-3.675-1.688-1.719-3.069-2.674-3.089-2.216s1.4,2.2,2.947,3.732C134.986,770.168,136.283,771.174,136.412,770.891Zm307.851,218.5c-1.665.812-1.516,2.683,0.294,3.916a7.678,7.678,0,0,0,6.223.865c1.829-.759,1.834-2.525-0.012-3.862C448.9,988.957,445.982,988.553,444.263,989.39ZM773.918,133.432c0.367-.059-0.572-1.289-2.069-2.807-1.641-1.66-3.346-3.077-3.846-3.1-0.479-.029.509,1.46,2.079,3.022S773.541,133.491,773.918,133.432ZM992.355,441.415a7.522,7.522,0,0,0,.934,6.575c1.259,1.675,3.178,1.6,3.887-.137a7.158,7.158,0,0,0-.951-6.171C994.889,439.776,993.156,439.644,992.355,441.415ZM300.106,923.726c-0.958.167-.419,1.458,1.192,2.967s3.639,2.605,4.644,2.443c1.025-.162.549-1.435-1.181-3.022S301.089,923.557,300.106,923.726ZM926.762,297.184c-0.118,1.011.958,3.116,2.475,4.728s2.83,2.048,2.951,1-0.948-2.98-2.542-4.651S926.884,296.141,926.762,297.184ZM562.03,989.866c-1.837,1.269-2.049,2.877-.5,3.656s4.171,0.381,6-.907c1.849-1.3,2.065-2.83.49-3.608S563.878,988.588,562.03,989.866ZM992.893,559.024c-1.281,1.814-1.7,4.47-.958,6.039s2.322,1.382,3.622-.422c1.314-1.824,1.718-4.347.945-5.96S994.182,557.2,992.893,559.024ZM33.019,334.914c1.546-1.69,2.519-4.056,2.216-5.3s-1.774-.781-3.278.967c-1.42,1.652-2.226,3.666-1.922,4.887S31.587,336.48,33.019,334.914ZM337.76,30.154c1.573-1.4,1.926-2.779.829-3.117-1.182-.365-3.554.613-5.237,2.126-1.584,1.421-1.929,2.684-.8,3.035C333.766,32.579,336.013,31.714,337.76,30.154ZM874.5,234.162a11.551,11.551,0,0,0,2.707,3.552c1.481,1.485,2.584,2.189,2.546,1.682-0.037-.534-1.455-2.293-2.9-3.7C875.5,234.376,874.426,233.651,874.5,234.162ZM985.651,403.879c-0.487,1.225,0,3.556,1.082,5.137,1.2,1.747,2.728,2.123,3.358.843,0.59-1.2.015-3.945-1.129-5.474C987.841,402.883,986.153,402.614,985.651,403.879ZM406.63,982.726c-1.2.646-.721,2.19,1.015,3.374,1.59,1.084,3.888,1.55,5.086,1.018,1.257-.556.956-2.253-0.613-3.355C410.52,982.643,407.743,982.123,406.63,982.726ZM237.18,871.5c-0.466-.039.4,1.15,1.818,2.563a12.481,12.481,0,0,0,3.292,2.594c0.549,0.133-.2-1.1-1.531-2.446A12.973,12.973,0,0,0,237.18,871.5ZM169.669,167.012a10.7,10.7,0,0,0,2.337-2.935c-0.015-.313-1.361.748-2.69,2.062a11.614,11.614,0,0,0-2.364,2.86C166.95,169.331,168.247,168.409,169.669,167.012Zm816.42,430.374c-0.99,1.405-1.516,3.684-1.1,4.707,0.455,1.114,2.032.725,3.105-.751s1.508-3.414,1.02-4.6C988.578,595.429,987.275,595.7,986.089,597.386ZM600.2,983.2c-1.492,1.106-1.769,2.644-.569,3.07,1.107,0.394,3.343-.182,4.709-1.2,1.6-1.2,1.819-2.481.481-2.969A5.415,5.415,0,0,0,600.2,983.2ZM205.212,131.453c1.367-1.338,2.11-2.322,1.884-2.435s-1.279.735-2.584,2.021c-1.25,1.235-2.127,2.307-1.952,2.433S203.933,132.7,205.212,131.453ZM737.525,97.317c0.568,0.1.105-.647-1.13-1.9a9.32,9.32,0,0,0-3.058-2.34c-0.549-.1-0.077.777,1.088,1.955A9.551,9.551,0,0,0,737.525,97.317ZM100.359,734.57a8.217,8.217,0,0,0-2.172-3.012c-1.233-1.251-2.119-1.775-2.078-1.272a8.778,8.778,0,0,0,2.215,2.994C99.486,734.443,100.394,735.037,100.359,734.57ZM673.32,45.129c0.92-.087.629-1.029-0.681-2.258s-2.91-2.051-3.789-1.9c-0.857.142-.5,1.236,0.907,2.414C671.129,44.535,672.4,45.215,673.32,45.129ZM48.141,670.407c0.119-.88-0.687-2.515-1.926-3.832s-2.187-1.543-2.244-.565a6.313,6.313,0,0,0,1.823,3.563C46.989,670.884,48.025,671.266,48.141,670.407Zm85.982-467.866a9.194,9.194,0,0,0,2.251-2.817c0.017-.347-0.858.326-2.149,1.6a11.1,11.1,0,0,0-2.324,2.82C131.856,204.5,132.864,203.789,134.123,202.541ZM706.279,925.156c-1.175,1.144-1.593,2.133-.973,2.259,0.685,0.138,2.307-.8,3.645-2.074,1.366-1.3,1.813-2.3,1.032-2.353S707.646,923.822,706.279,925.156Zm221.53-221.5c-1.268,1.4-2.124,3.032-1.831,3.539s1.029,0.175,2.323-1.2c1.314-1.39,2.181-2.9,2.037-3.609S929.105,702.225,927.809,703.659ZM804.8,837.646c-1.162,1.174-1.854,2.112-1.659,2.189s1.157-.711,2.359-1.9c1.332-1.321,2.207-2.37,2.006-2.458S806.075,836.352,804.8,837.646ZM769.164,873.1c-1.157,1.167-1.751,2.04-1.425,2.039a8.37,8.37,0,0,0,2.593-2.043c1.341-1.326,2.118-2.309,1.774-2.31A9.951,9.951,0,0,0,769.164,873.1Zm71.347-71.169c-1.3,1.289-2.189,2.443-2.055,2.608s1-.57,2.212-1.777c1.319-1.322,2.255-2.437,2.118-2.6S841.7,800.753,840.511,801.931Zm35.44-35.616c-1.291,1.287-2.247,2.548-2.2,2.855,0.039,0.283.855-.347,2.068-1.555,1.32-1.318,2.317-2.54,2.265-2.839C878.032,764.5,877.131,765.143,875.951,766.315Z" transform="translate(-1.906)"/>
</svg>