<svg xmlns="http://www.w3.org/2000/svg" width="999.969" height="999.938" viewBox="0 0 999.969 999.938">
  <defs>
    <style>
      .cls-1 {
        fill: #a6b4bf;
        fill-rule: evenodd;
      }
    </style>
  </defs>
  <path class="cls-1" d="M671.828,416.107c-3.466-.111-5.648,1.96-5.812,5.193-0.184,3.627,2.163,5.816,5.808,5.749,3.315-.061,5.309-2.023,5.609-5.65C677.032,418.232,675.24,416.216,671.828,416.107Zm93.854,295.805a8.4,8.4,0,0,0,8.578-8.33A8.506,8.506,0,1,0,765.682,711.912Zm-93.818-96.648c3.466-.125,5.5-2.4,5.607-6.147-0.483-3.582-2.592-5.434-6.234-5.178-3.365.236-5.354,2.323-5.289,5.635C666.019,613.174,668.37,615.389,671.864,615.264Zm-0.157-326.212c-4.145-.29-7.194,3.111-7.094,7.473,0.1,4.587,2.943,6.638,7.056,6.939,4.2,0.308,7.252-3.119,7.122-7.464C678.578,291.5,675.873,289.344,671.707,289.052Zm-0.376,190.087a4.758,4.758,0,0,0-4.858,5.308c0.117,2.924,2.049,4.9,5.314,4.953,3.235-.2,5.2-2.213,5.2-5.122C676.982,481.035,674.856,478.981,671.331,479.139ZM671.8,678.756c4.131-.351,6.466-2.785,6.4-6.747-0.065-4.06-2.6-6.292-6.8-6.185-4.045.1-6.056,2.57-6.084,6.284C665.287,676.137,667.58,678.5,671.8,678.756Zm-0.657-325.917c-3.38.1-5.586,2.075-5.585,6.084,0,3.992,2.313,6.2,6.142,6.2,3.81,0,6.323-2.212,6.282-6.142C677.944,355.16,675.75,352.931,671.145,352.839Zm32,485.321a9.553,9.553,0,0,0,9.273-9.284,9.307,9.307,0,0,0-9.158-9.322,9.021,9.021,0,0,0-9.455,8.9A9.316,9.316,0,0,0,703.141,838.16Zm-31.448-95.927c4.6-.134,7.327-2.746,7.413-7.247,0.086-4.461-2.435-7.16-6.95-7.579-4.719.063-7.4,2.37-7.79,6.943A7.069,7.069,0,0,0,671.693,742.233Zm31.812-612.491c-5.944.008-10.345,4.8-10.231,11.149,0.083,4.572,4.9,8.872,9.888,8.834a10.063,10.063,0,0,0,9.868-10.173A9.73,9.73,0,0,0,703.505,129.742Zm-0.339,63.487a9.29,9.29,0,0,0-9.157,9.3c0.11,4.563,4.488,8.952,8.987,9.011,4.705,0.062,9.289-4.662,9.155-9.435A9.242,9.242,0,0,0,703.166,193.229Zm0.007,708.393a9.942,9.942,0,0,0,10.291-10.271,10.361,10.361,0,0,0-20.721.142A9.984,9.984,0,0,0,703.173,901.622Zm-0.066-127.208a8.1,8.1,0,0,0,8.189-8.6,7.885,7.885,0,0,0-8.275-7.84c-4.8.027-8.034,3.191-8.125,7.943C694.8,770.965,698.148,774.432,703.107,774.414Zm0.687,191.051c5.269-.123,10.8-6.221,10.724-11.82-0.08-5.792-5.512-11.033-11.435-11.033-6.045,0-11.209,5.481-11.161,11.848C691.969,960.778,697.192,965.618,703.794,965.465ZM703.019,65.923a11.071,11.071,0,1,0,.171,22.142,10.567,10.567,0,0,0,10.366-10.885C713.506,70.263,709.412,65.888,703.019,65.923Zm0.018-63.509a11.7,11.7,0,0,0-11.865,12.361,11.515,11.515,0,0,0,11.98,11.564c7.1-.028,11.964-5.073,11.83-12.277A11.638,11.638,0,0,0,703.037,2.414ZM640.065,448.277c-2.787.157-4.722,1.91-4.52,4.9a4.476,4.476,0,0,0,5,4.472c2.619-.211,4.612-1.889,4.449-5.41C644.852,449.51,642.836,448.12,640.065,448.277Zm0.472,325.543a7.774,7.774,0,0,0,7.516-7.972c-0.13-4.172-3.921-7.827-8.088-7.351-4.352.5-7.072,2.95-7.111,7.616A7.526,7.526,0,0,0,640.537,773.82Zm0.038-253.871c2.065-.242,4.035-1.194,4.184-4.085,0.159-3.091-1.678-4.821-4.513-4.827a4.288,4.288,0,0,0-4.472,4.41C635.76,517.969,637.25,519.757,640.575,519.949Zm0.037,126.518c3.711-.193,5.431-2.564,5.267-6.184-0.164-3.643-2.566-4.838-5.925-4.963-3.381.228-5.269,2.259-5.228,5.546C634.771,644.451,636.9,646.66,640.612,646.467Zm-0.353,63.48c4.077,0.021,6.588-2.371,6.6-6.444,0.01-4.113-2.544-6.2-6.508-6.4-4.054.177-6.239,2.242-6.309,6.13C633.968,707.311,636.051,709.925,640.259,709.947ZM640.24,321.454c-3.975.087-5.821,2.536-6.122,6.073,0.307,4.262,2.707,6.47,6.435,6.353,3.708-.116,6.3-2.6,6.162-6.406C646.579,323.763,644.191,321.368,640.24,321.454Zm0.251-63.975a7.527,7.527,0,0,0-7.427,7.443c0.124,4.367,2.633,6.816,6.856,7.269a7.267,7.267,0,0,0,7.757-7.012A7.682,7.682,0,0,0,640.491,257.479Zm-0.014,325.414c2.765-.391,4.585-1.752,4.506-4.824-0.078-3.044-1.82-4.56-4.767-4.515a4.341,4.341,0,0,0-4.654,4.719C635.586,581.177,637.522,582.668,640.477,582.893ZM672,869.764a9.382,9.382,0,0,0,9.109-9.515A9.406,9.406,0,1,0,672,869.764ZM671.86,225.621a8.117,8.117,0,0,0-8.392,7.774,8.632,8.632,0,0,0,8.326,8.588,8.477,8.477,0,0,0,8.027-8.25A7.851,7.851,0,0,0,671.86,225.621Zm-0.318-63.951c-4.707.062-8.769,4.523-8.859,9.731a8.937,8.937,0,0,0,8.981,8.757,9.1,9.1,0,0,0,9.185-9.232A9.4,9.4,0,0,0,671.542,161.67Zm-0.013,644.183a8.082,8.082,0,0,0,8.522-8.234,8.366,8.366,0,1,0-16.727-.36A8.164,8.164,0,0,0,671.529,805.853Zm0.8-771.393a11.3,11.3,0,0,0-12.007,10.932,11.361,11.361,0,1,0,22.711.662A11.255,11.255,0,0,0,672.329,34.46Zm-0.048,962.469c5.51,0.142,10.735-5.479,10.716-11.528-0.021-6.884-4.1-11.193-10.564-11.161-7.157.035-12.308,4.361-12.315,10.341A12.318,12.318,0,0,0,672.281,996.929Zm-0.515-898.74a10.111,10.111,0,0,0-10.414,10.181c-0.031,5.777,4.309,9.813,10.533,9.8a10.208,10.208,0,0,0,10.147-10.26A10.068,10.068,0,0,0,671.766,98.189Zm-0.482,835.029A10.213,10.213,0,0,0,682.2,922.994a10.417,10.417,0,0,0-10.4-10.822,10.543,10.543,0,0,0-10.672,10.017A10.362,10.362,0,0,0,671.284,933.218ZM640.392,385.086c-3.346-.037-5.353,2.008-5.165,5.531,0.175,3.3,2.252,4.754,5.391,4.65,3.22-.107,4.807-2,5.064-4.964C645.374,386.92,643.343,385.12,640.392,385.086ZM734.694,288a8.378,8.378,0,0,0-8.3,8,8.1,8.1,0,0,0,7.738,8.5,8.674,8.674,0,0,0,8.508-7.938C742.782,292.51,738.729,288.137,734.694,288ZM734.431,616.66c4.131-.472,6.843-2.712,6.932-7,0.09-4.309-2.392-6.911-6.787-6.956-4.339-.044-6.943,2.3-6.968,6.729C727.585,613.755,730.041,616.118,734.431,616.66ZM703.1,256.974a7.686,7.686,0,0,0-8.077,7.938,8.09,8.09,0,1,0,16.179.01A7.792,7.792,0,0,0,703.1,256.974ZM765.708,1.811c-7.075.034-12.341,5.436-12.345,12.664a12.422,12.422,0,1,0,24.84-.091A12.367,12.367,0,0,0,765.708,1.811Zm-30.86,476.061c-4.177-.227-6.744,2.087-6.845,6.2s2.441,6.547,6.546,6.553c3.892,0.006,5.931-2.389,6.267-6.328C740.65,480.528,738.758,478.083,734.848,477.872Zm-0.24-63.043c-4.481-.04-6.637,2.465-7.026,6.762,0.34,4.343,2.77,7.036,6.986,6.931,4.18-.105,6.862-2.919,6.714-7.194C741.147,417.412,738.834,414.866,734.608,414.829Zm0.031-63.148c-4.632-.08-7.395,2.57-7.562,6.963-0.168,4.423,2.427,7.285,7.07,7.411,4.59,0.125,7.071-2.4,7.653-7.291C741.289,354.791,739.409,351.763,734.639,351.681Zm-7.816,320.71c0.47,4.3,2.876,7.155,7.5,7.324,4.395,0.161,7.585-3.247,7.473-8.622-0.356-3.655-2.733-6.243-7.333-6.4C730.235,664.546,726.376,668.3,726.823,672.391Zm38.81,293.455a11.748,11.748,0,0,0,12.1-11.5c0.216-6.745-5.123-12.052-12.111-12.036A11.766,11.766,0,1,0,765.633,965.846Zm0.3-190.545a8.99,8.99,0,0,0,8.887-9.483,9.059,9.059,0,0,0-18.112.361A9.042,9.042,0,0,0,765.938,775.3ZM766,192.527a9.943,9.943,0,0,0-10.045,9.29,9.819,9.819,0,0,0,19.608,1.06A9.933,9.933,0,0,0,766,192.527ZM765.81,65.586c-6.623-.007-11.412,4.662-11.468,11.183a11.5,11.5,0,1,0,22.982.585A11.136,11.136,0,0,0,765.81,65.586Zm0.148,190.468a8.569,8.569,0,0,0-9.091,8.522,8.711,8.711,0,0,0,8.977,9.214,8.479,8.479,0,0,0,8.75-8.834C774.626,259.739,771.105,256.11,765.958,256.054Zm-0.479,582.584c5.951,0.116,10.019-3.622,10.213-9.387s-3.673-10.12-9.277-10.45a9.853,9.853,0,0,0-10.6,9.81A9.532,9.532,0,0,0,765.479,838.638ZM765.4,902.464a10.831,10.831,0,0,0,11.271-10.807,10.544,10.544,0,0,0-10.852-11.035,10.918,10.918,0,0,0-11.13,10.9A11.314,11.314,0,0,0,765.4,902.464Zm0.351-773.5A10.8,10.8,0,0,0,755.1,139.846a11.066,11.066,0,0,0,10.463,10.567,10.907,10.907,0,0,0,10.854-10.7A10.562,10.562,0,0,0,765.746,128.965ZM728.008,546.436c0.151,4.131,2.7,6.672,6.545,6.609,3.875-.063,6.142-2.554,5.962-6.886-0.175-4.218-2.652-5.6-6.718-5.986C730.743,540.941,727.856,542.261,728.008,546.436Zm6.456,450.892c7.051,0.033,11.951-4.973,11.9-12.159a11.883,11.883,0,0,0-12.3-11.952,12.3,12.3,0,0,0-11.825,12.052A11.974,11.974,0,0,0,734.464,997.328ZM703.258,383.819c-4.128-.035-6.73,2.521-6.716,6.537,0.015,4.1,2.866,6.5,6.885,6.335,3.766-.149,5.9-2.647,6.173-6.512C709.09,386.456,707.175,383.853,703.258,383.819Zm-6.113,194.273c0.107,3.7,2.292,5.712,5.94,5.708,3.756,0,5.73-2.189,5.6-5.9-0.14-3.874-2.632-5.308-7.538-5.279C698.875,572.7,697.044,574.614,697.145,578.092Zm6.129-68.467c-3.544.354-5.908,1.994-5.971,5.8-0.065,3.961,2.584,5.466,6.008,5.69,3.593,0.235,5.386-1.984,5.569-5.322C709.088,512.032,706.835,510.184,703.274,509.625ZM703.205,447c-3.552.276-5.81,1.958-5.917,5.741-0.108,3.814,2.125,5.855,5.66,5.945,3.551,0.092,5.878-1.916,5.966-5.668S706.816,447.431,703.205,447Zm-1.587,200.323c5.471,0.2,7.946-2.268,8.156-6.1,0.208-3.777-1.871-6.681-6.139-6.955-4.5-.287-7.139,2.279-7.267,6.432C696.251,644.551,698.593,647.149,701.618,647.325ZM703.3,711.1c4.548-.374,6.856-3.17,7.245-7.849-0.493-4.273-2.689-7.033-7.442-7.027-4.69,0-7.218,2.581-7.451,7.141A7.286,7.286,0,0,0,703.3,711.1Zm0.357-390.56a6.84,6.84,0,0,0-7.689,6.807c-0.132,4.084,3.174,7.8,7.116,7.526,4.159-.287,6.748-2.595,7.2-6.885C710.1,323.627,708,320.991,703.66,320.535Zm30.623-159.342a9.917,9.917,0,0,0-9.9,10.1,10.458,10.458,0,0,0,9.847,9.735,9.783,9.783,0,0,0,9.888-9.972C744.116,165.165,740.067,161.1,734.283,161.193Zm0.268,645.552a9.486,9.486,0,0,0,9.2-9.413,9.027,9.027,0,0,0-9.411-9.028,8.754,8.754,0,0,0-9.043,9.245A9.1,9.1,0,0,0,734.551,806.745Zm0.018-582.056a9.021,9.021,0,0,0-9.044,8.653,8.912,8.912,0,0,0,8.963,9.295,8.749,8.749,0,0,0,8.695-8.909A8.889,8.889,0,0,0,734.569,224.689Zm-0.333,518.249c5,0.058,8.554-3.361,8.545-8.232a8.189,8.189,0,0,0-8.144-8.108,8.07,8.07,0,0,0-8.466,8.315A7.742,7.742,0,0,0,734.236,742.938ZM734.418,97.52c-5.46.009-10.778,5.338-10.831,10.854a11.057,11.057,0,0,0,11.268,10.879,10.84,10.84,0,0,0,10.366-11.105A10.664,10.664,0,0,0,734.418,97.52Zm-0.161,772.665a9.755,9.755,0,0,0,10.217-10.2,9.639,9.639,0,0,0-9.929-9.873c-6.056-.025-10.392,4.253-10.274,10.139A9.926,9.926,0,0,0,734.257,870.185Zm0.419-836.142c-6.829-.114-11.765,4.7-11.849,11.564-0.085,6.989,4.957,11.807,12.3,11.752,6.152-.046,10.969-5.277,10.934-11.874A11.255,11.255,0,0,0,734.676,34.043Zm0.244,899.869c5.184,0,10.086-5.15,10.185-10.69,0.124-6.982-3.446-11.086-9.658-11.1-7.4-.019-11.972,3.612-12.123,9.623C723.167,927.984,728.823,933.919,734.92,933.912ZM671,541.9c-2.926.02-4.408,2.194-4.394,5.04,0.015,3.206,1.892,4.838,5.014,5.1,3.276-.3,4.887-2.239,4.786-5.345C676.3,543.387,673.892,541.878,671,541.9ZM545.932,226.719c-4.368.318-6.53,2.886-6.685,6.518,0.142,4.586,3.317,7.837,7.142,7.507,4.119-.355,6.849-2.612,7.064-6.987A7,7,0,0,0,545.932,226.719Zm-7.15,570.955c0.174,4.371,2.686,7.154,7.391,7.241a7.273,7.273,0,0,0,7.594-7.657,7.447,7.447,0,0,0-8.019-7.306C541.267,790.443,538.6,793.2,538.782,797.674Zm7.628-120.51c2.759-.032,4.516-1.954,4.776-5.061-0.318-2.928-1.836-5.032-5.1-4.984-2.977.043-4.568,2.033-4.67,4.887A4.611,4.611,0,0,0,546.41,677.164Zm-0.1,255.564c5.8-.2,9.819-4.3,9.8-10.014a9.5,9.5,0,0,0-9.924-9.777c-5.386.025-10.106,4.686-10.027,9.9S541.21,932.9,546.307,932.728Zm0.1-191.67c3.833-.169,5.866-2.524,6.121-6.385-0.478-3.857-2.629-6.006-6.513-5.918-3.943.089-6.194,2.511-6.02,6.3C540.167,738.741,542.466,741.233,546.409,741.058ZM546.133,98.693c-4.913,0-9.646,4.819-9.6,9.783,0.04,4.822,5.071,9.755,9.847,9.658a10.067,10.067,0,0,0,9.447-9.92A9.679,9.679,0,0,0,546.133,98.693Zm0.326,64.056a8.123,8.123,0,0,0-8.494,8.328,7.983,7.983,0,0,0,8.147,8.044,8.1,8.1,0,0,0,8.506-8.278A8.285,8.285,0,0,0,546.459,162.749Zm93.665,31.221a8.228,8.228,0,0,0-8.153,8.126A8.411,8.411,0,1,0,640.124,193.97Zm-94.1,96.512c-3.562.126-5.7,2.406-5.543,6.035,0.157,3.6,2.382,5.688,6.007,5.553s5.375-2.494,5.714-5.834C551.642,292.518,549.567,290.357,546.023,290.482ZM577.354,66.937a9.794,9.794,0,0,0-9.955,9.908,10.458,10.458,0,0,0,10.144,10.548,10.6,10.6,0,0,0,10.318-10.451C587.765,71.043,583.359,66.848,577.354,66.937Zm-0.167,833.745c5.593,0.172,9.85-3.739,9.952-9.139a9.683,9.683,0,0,0-9.629-9.643,9.507,9.507,0,0,0-9.278,9.344A8.945,8.945,0,0,0,577.187,900.682Zm0.068,63.888a10.47,10.47,0,1,0,.732-20.924c-5.929-.187-11.114,4.653-11.1,10.365A10.82,10.82,0,0,0,577.255,964.57ZM550.628,358.519c-0.242-2.5-2-4.03-4.9-4.251-2.116.8-4.081,1.93-3.91,4.768,0.183,3.033,1.983,4.526,4.957,4.276C549.6,363.075,550.872,361.028,550.628,358.519Zm-4.194,66.266c1.869-.425,3.28-1.5,3.019-3.515a3.047,3.047,0,0,0-3.644-2.842,2.813,2.813,0,0,0-2.687,3.126C543.12,423.718,544.451,424.553,546.434,424.785Zm0.023,188.27c2.221-.144,3.3-1.659,3.448-3.779-0.473-2.289-1.823-3.391-4.086-3.169a3.037,3.037,0,0,0-3.012,3.465C542.9,611.834,544.182,613.2,546.457,613.055ZM577.649,2.913A11.578,11.578,0,0,0,566.295,14.5,11.622,11.622,0,0,0,577.272,25.84a11.309,11.309,0,0,0,11.591-11.248A11.352,11.352,0,0,0,577.649,2.913ZM515.281,644.992a3.733,3.733,0,0,0,3.636-4.056c-0.015-2.6-1.241-4.354-4.205-4.267a3.832,3.832,0,0,0-4,4C510.624,643.289,512.3,644.819,515.281,644.992Zm-0.464-450.409c-4.011-.006-8,4.025-7.581,8.053,0.462,4.451,3.03,7.015,7.682,7.163,4.589-.278,7.222-2.837,7.7-7.253C523.028,198.74,518.723,194.588,514.817,194.583Zm0.068,706a9.125,9.125,0,0,0,9.327-9.046A9.687,9.687,0,0,0,515.127,882a9.547,9.547,0,0,0-9.565,9.546A9.135,9.135,0,0,0,514.885,900.578Zm-0.318-63.717c4.28,0.157,8.439-3.693,8.506-7.876a8.01,8.01,0,0,0-8.1-8.1,7.844,7.844,0,0,0-8.123,8A8.2,8.2,0,0,0,514.567,836.861Zm0.09-706.016a8.843,8.843,0,1,0,.418,17.678,8.912,8.912,0,0,0,8.764-9.025A9.089,9.089,0,0,0,514.657,130.845Zm31.33-95.834a10.833,10.833,0,0,0-10.569,10.967,10.983,10.983,0,0,0,11.14,10.42A10.7,10.7,0,1,0,545.987,35.011ZM515.823,67.072a10,10,0,1,0-1.661,19.919A9.994,9.994,0,0,0,515.823,67.072Zm-1.1,897.416a10.4,10.4,0,1,0,.4-20.787A10.4,10.4,0,1,0,514.724,964.488ZM514.573,3.043c-5.75.175-11.05,5.639-11.051,11.394,0,5.708,5.4,11.222,11.1,11.332A11.364,11.364,0,1,0,514.573,3.043Zm0.254,390.691c2.272,0,3.436-1.312,3.613-3.716-0.322-2.035-1.49-3.351-3.779-3.225-2.336.129-3.343,1.578-3.19,3.834A3.05,3.05,0,0,0,514.827,393.734Zm62.845-263.248a8.992,8.992,0,0,0-8.963,8.841,8.64,8.64,0,0,0,8.906,9.327,8.774,8.774,0,0,0,9.024-8.689A9.138,9.138,0,0,0,577.672,130.486ZM546.208,996.31c6.461,0,10.97-4.472,10.976-10.894a10.861,10.861,0,0,0-10.932-11.124,11.4,11.4,0,0,0-11.141,11.09A10.86,10.86,0,0,0,546.208,996.31ZM515.1,258.767c-3.713-.142-6.231,2.091-6.389,6-0.157,3.893,2.027,6.222,5.868,6.4,3.9,0.183,6.012-2.05,6.394-5.634C520.994,261.3,518.822,258.908,515.1,258.767Zm-0.713,63.987c-2.983.226-4.4,2.235-4.31,5.1,0.093,2.919,1.764,4.725,4.729,4.668,3.138-.061,4.944-1.793,4.951-5.742A4.646,4.646,0,0,0,514.391,322.754Zm0.179,450.139c4.389,0.167,7-2.64,7.034-6.741,0.032-4.128-2.56-6.873-6.982-6.733-4.1.131-6.113,2.72-6.547,6.8C508.537,770.028,510.505,772.738,514.57,772.893Zm0.344-63.95c3.559-.051,5.3-2.421,5.312-5.688,0.008-3.142-2.04-4.874-5.15-5.285-3.325.353-5.735,2.051-5.686,5.46C509.435,706.645,511.368,708.992,514.914,708.943Zm30.973,159.9a8.5,8.5,0,0,0,9-8.523,8.361,8.361,0,0,0-8.559-8.89,8.758,8.758,0,0,0-8.9,8.759A8.848,8.848,0,0,0,545.887,868.842Zm62.709-254.7c2.885,0.192,4.5-1.679,5.181-4.592-0.4-2.643-1.82-4.532-4.772-4.605a4.263,4.263,0,0,0-4.684,4.106A4.366,4.366,0,0,0,608.6,614.143Zm0.281,63.614c3.282,0.032,5.5-1.747,5.715-5.229,0.233-3.787-1.943-5.6-5.406-6.1-3.468.152-5.657,1.906-5.789,5.277C603.259,675.242,605.124,677.719,608.877,677.757Zm0.127-324c-3.3.322-5.079,1.93-5.141,5.2-0.064,3.392,2.088,5.164,4.994,5.141,3.1-.025,5.575-1.777,5.391-5.424C614.082,355.393,611.816,354.146,609,353.761ZM609,417.188c-3.011.243-4.353,1.884-4.257,4.56,0.1,2.7,1.7,4.373,4.4,4.189A4.094,4.094,0,0,0,613.3,421.4C613.167,418.7,611.446,417.369,609,417.188Zm-0.232-127.146c-3.877.054-5.875,2.369-6.264,6.7,0.588,3.056,2.181,5.8,6.13,5.867,4.041,0.074,6.654-2.063,6.709-6.254C615.4,292.145,612.852,289.985,608.764,290.042Zm7.8-56.6c-0.315-4.565-3.2-6.946-7.508-7.3-4.156-.34-7.762,3.539-7.486,7.789,0.294,4.519,2.891,6.906,6.856,7.253C613.281,241.131,616.849,237.622,616.561,233.442ZM608.37,543.167a3.4,3.4,0,0,0-3.326,3.84c0.039,2.694,2,3.386,4.094,3.853,2.354-.567,4.006-1.9,3.7-4.361C612.549,544.124,610.878,542.892,608.37,543.167Zm0.2,198.416c4.332,0.142,6.788-2.238,7.133-6.638-0.108-4.5-2.718-6.991-6.875-6.942-3.869.046-6.511,2.525-6.5,6.69C602.347,738.683,604.382,741.445,608.571,741.583ZM640.461,964.8c6.426-.066,11.146-4.872,10.917-11.117a10.8,10.8,0,0,0-11.117-10.388c-6.274,0-10.639,4.308-10.7,10.562C629.5,960.476,633.867,964.865,640.461,964.8Zm-0.119-834.639a9.789,9.789,0,0,0-9.548,9.735c0.155,5.27,3.908,8.688,9.553,8.7,5.672,0.011,9.35-3.375,9.455-8.7A9.531,9.531,0,0,0,640.342,130.159ZM640.183,901.3a9.807,9.807,0,0,0,10.015-9.976,9.546,9.546,0,0,0-9.64-9.6,9.448,9.448,0,0,0-9.954,9.825A9.732,9.732,0,0,0,640.183,901.3Zm-0.126-63.846a8.681,8.681,0,1,0,.384-17.35,8.282,8.282,0,0,0-8.63,8.183C631.6,833.429,635.078,837.3,640.057,837.452Zm-31.52-357.071a3.607,3.607,0,0,0-3.448,4.363,3.567,3.567,0,0,0,3.96,3.317c2.406-.1,3.734-1.638,3.866-4.522C612.257,481.737,611.1,480.055,608.537,480.381ZM639.856,2.805a11.473,11.473,0,0,0-11.17,11.777,11.7,11.7,0,0,0,12.165,11.458c6.426-.226,11.083-5.244,10.992-11.848C651.749,7.335,646.765,2.6,639.856,2.805Zm-31.151,802.53a7.579,7.579,0,0,0,8.139-7.858c0.042-4.713-3.284-7.94-8.089-7.847a7.513,7.513,0,0,0-7.59,7.8A7.676,7.676,0,0,0,608.705,805.335ZM640.191,66.369a10.723,10.723,0,0,0-10.469,10.955A11.04,11.04,0,0,0,640.181,87.8a10.528,10.528,0,0,0,10.57-10.754C650.739,70.854,646.2,66.265,640.191,66.369ZM608.652,98.551a9.644,9.644,0,0,0-9.415,9.736,9.937,9.937,0,0,0,9.843,10,10.2,10.2,0,0,0,9.8-10.117A9.927,9.927,0,0,0,608.652,98.551Zm-31.1,223.606c-3.245.52-5.442,2.132-5.321,5.67,0.109,3.17,2,5.056,5.12,5.133,3.374,0.084,5.535-1.772,5.626-5.23C583.072,324.215,580.8,322.625,577.554,322.157Zm-4.547,319.094c0.3,2.781,1.989,4.746,4.951,4.463,2.864-.274,4.042-2.53,4.53-5.258-0.791-2.59-2.247-4.432-5.269-4.207S572.7,638.334,573.007,641.251ZM608.9,162.4a8.651,8.651,0,0,0-8.6,8.4,8.791,8.791,0,0,0,8.176,8.868A8.645,8.645,0,1,0,608.9,162.4Zm-31.5,31.933c-4.738.3-7.4,2.972-7.6,7.75a7.812,7.812,0,0,0,7.778,8.293,8.343,8.343,0,0,0,8.091-8.168A8.044,8.044,0,0,0,577.4,194.331Zm0.026,64.065c-4.169.08-6.415,2.623-6.314,6.741,0.1,4.166,2.528,6.446,6.713,6.279,4.118-.164,6.294-2.537,6.467-6.788C583.845,260.609,581.5,258.318,577.426,258.4Zm0.941,323.334A3.443,3.443,0,0,0,581.1,577.8a3.376,3.376,0,0,0-4.11-3.057,3.121,3.121,0,0,0-2.965,3.544C574.165,580.393,575.466,581.784,578.367,581.73ZM577.94,773.073c4.38-.222,6.789-2.963,6.68-7.2-0.113-4.352-2.85-6.559-7.59-6.673-4.069.38-6.411,2.808-6.193,7.207C571.05,770.727,573.46,773.3,577.94,773.073Zm-0.127-386.967c-2.6-.059-4.36,1.385-4.347,4.2,0.012,2.832,1.864,4.255,4.407,4.126,2.287-.117,3.785-1.669,3.806-4.858A3.8,3.8,0,0,0,577.813,386.106Zm-0.637,451.063a8.4,8.4,0,1,0,.37-16.786A8.4,8.4,0,0,0,577.176,837.169Zm31.873,31.836a8.559,8.559,0,0,0,8.844-8.827c0.054-5.448-3.712-9.1-9.232-8.944a8.494,8.494,0,0,0-8.561,9.046A8.633,8.633,0,0,0,609.049,869.005Zm-0.014,64.033a10.087,10.087,0,0,0,9.993-10.011,10.234,10.234,0,0,0-10.036-10.6c-5.262-.1-9.953,4.575-10.064,10.036A10.261,10.261,0,0,0,609.035,933.038Zm0.135-898.3a11.152,11.152,0,0,0-11.146,11.07,10.954,10.954,0,0,0,21.891.353A11.062,11.062,0,0,0,609.17,34.74ZM577.376,449.79a2.753,2.753,0,0,0-2.893,2.9c-0.119,2.106,1,3.166,3.014,3.412,2.032-.135,3.273-1.2,3.231-3.25S579.445,449.718,577.376,449.79ZM609.4,996.533c6.329-.174,10.789-4.847,10.74-11.252A10.861,10.861,0,0,0,608.6,974.147a10.992,10.992,0,0,0-10.8,11.337C597.874,992.054,602.767,996.715,609.4,996.533ZM577.774,512.9c-1.739-.054-3.038.779-3.019,2.656,0.017,1.776,1.269,2.638,2.908,2.986,1.669-.419,2.742-1.323,2.685-3.168A2.376,2.376,0,0,0,577.774,512.9ZM922.409,935.857a13.128,13.128,0,1,0-13.092-13.441A13.067,13.067,0,0,0,922.409,935.857Zm31.537-872.48c-8.113,0-13.816,5.919-13.626,14.152a13.678,13.678,0,1,0,27.349-.642C967.577,69,961.87,63.379,953.946,63.377Zm-0.11,63.175A13.131,13.131,0,1,0,967.1,139.808,13.1,13.1,0,0,0,953.836,126.551Zm0.189,778.255a13.366,13.366,0,0,0,13.2-13.494,12.99,12.99,0,0,0-13.352-13.147,13.134,13.134,0,0,0-13.29,13.286A13.532,13.532,0,0,0,954.025,904.806Zm0.128-63.5A12.613,12.613,0,0,0,966.7,828.677c-0.044-7.281-5.768-12.667-13.224-12.442-7.2.216-12.259,5.569-12.129,12.829A12.371,12.371,0,0,0,954.153,841.309ZM954-.01a14.607,14.607,0,0,0-14.644,14.256,14.587,14.587,0,0,0,14.881,14.588A14.254,14.254,0,0,0,968.452,14.3,14.237,14.237,0,0,0,954-.01Zm-31.767,474.1a9.845,9.845,0,0,0-9.808,10.1,10.038,10.038,0,0,0,10.306,10.258,10.562,10.562,0,0,0,10.3-10.471C932.911,478.522,927.868,473.906,922.229,474.094ZM953.75,189.737a12.4,12.4,0,0,0-12.213,12.923,12.122,12.122,0,0,0,12.269,12.187,12.372,12.372,0,0,0,12.587-12.557A12.581,12.581,0,0,0,953.75,189.737Zm0,778.345a14.2,14.2,0,0,0,14.377-13.763c0.193-7.548-6.2-14.071-13.939-14.217A13.992,13.992,0,0,0,953.748,968.082ZM954.239,778A11.82,11.82,0,0,0,966.053,766.1a12.092,12.092,0,0,0-12.365-12.023,12.394,12.394,0,0,0-11.935,12.008A12.059,12.059,0,0,0,954.239,778ZM912.394,546.771a10.229,10.229,0,0,0,10.225,10.451,10.9,10.9,0,0,0,10.4-9.895c0.3-5.269-4.74-10.583-10.154-10.711A10.135,10.135,0,0,0,912.394,546.771ZM953.754,589c6.468,0.086,11.1-4.394,11.129-10.758a10.678,10.678,0,0,0-10.439-10.955,10.947,10.947,0,0,0-11.5,10.549A10.631,10.631,0,0,0,953.754,589ZM954,651.858A10.7,10.7,0,0,0,965.039,640.9a10.85,10.85,0,0,0-10.85-11.2,10.966,10.966,0,0,0-11.369,11.317A10.752,10.752,0,0,0,954,651.858ZM953.65,379a11.271,11.271,0,0,0-10.812,11.529,11.146,11.146,0,0,0,11.378,10.885,10.975,10.975,0,0,0,10.756-11.447A11.221,11.221,0,0,0,953.65,379Zm0.33-126.057a12.305,12.305,0,0,0-12.064,12.429c0.266,6.071,6.043,11.779,11.765,11.627a12.415,12.415,0,0,0,12.292-12.782C965.857,258.224,960.262,252.965,953.98,252.943ZM891.636,587.865c5.5-.149,9.268-4.208,9.181-9.9a9.755,9.755,0,0,0-9.665-9.63,9.9,9.9,0,0,0-9.557,9.839C881.56,583.933,885.8,588.023,891.636,587.865Zm62.805,126.989a11.233,11.233,0,0,0,11.135-11.117c0-6.367-5.589-12.1-11.693-12.01a11.541,11.541,0,0,0-11.337,11.693C942.552,710.271,947.443,714.973,954.441,714.854Zm-0.257-398.746a11.166,11.166,0,0,0-11.51,11.268c-0.113,6.65,4.482,11.457,11.054,11.565a11,11,0,0,0,11.579-11.111A11.274,11.274,0,0,0,954.184,316.108ZM923.021,95.388a13.005,13.005,0,1,0-.5,26A13.005,13.005,0,0,0,923.021,95.388ZM483.208,612.441c1.914,0.109,3.335-.7,3.67-3.082-0.388-1.59-1.191-3-3.306-3.057a2.982,2.982,0,0,0-3.278,3.193A2.811,2.811,0,0,0,483.208,612.441ZM922.656,872.486a12.364,12.364,0,1,0-.378-24.716A12.359,12.359,0,0,0,922.656,872.486ZM922.579,32.028A13.391,13.391,0,0,0,908.8,46.036,14.084,14.084,0,0,0,922.639,59.65c7.569-.022,14.128-6.761,13.866-14.247A13.6,13.6,0,0,0,922.579,32.028Zm-0.134,126.7a12.2,12.2,0,0,0-12.162,12.313A12.293,12.293,0,1,0,922.445,158.732Zm0.4,252.545a9.959,9.959,0,0,0-10.516,10.041c-0.109,6.04,4.021,10.444,9.973,10.632a10.772,10.772,0,0,0,10.83-10.068C933.33,416.54,928.322,411.377,922.849,411.277ZM891.3,525.266c5.445,0.012,9.37-3.987,9.418-9.594a9.262,9.262,0,0,0-9.288-9.723A9.659,9.659,0,1,0,891.3,525.266ZM765.863,319.323a8.333,8.333,0,0,0-8.349,7.929,8.5,8.5,0,0,0,8.165,8.716A8.323,8.323,0,0,0,765.863,319.323ZM900.714,452.731a9.311,9.311,0,0,0-9.652-9.513,9.675,9.675,0,0,0,.325,19.347C896.87,462.45,900.754,458.354,900.714,452.731Zm22.215-104.475a10.577,10.577,0,0,0-10.989,10.376,10.294,10.294,0,0,0,10.4,10.849c6.22,0.1,10.864-4.246,10.983-10.269A10.616,10.616,0,0,0,922.929,348.256Zm-0.374,461.062a11.821,11.821,0,1,0,.062-23.642A11.821,11.821,0,0,0,922.555,809.318Zm0.254-189.2a11.062,11.062,0,0,0,10.419-10.465c0.083-5.667-5.033-10.616-10.862-10.508A10.06,10.06,0,0,0,912.2,609.5,10.279,10.279,0,0,0,922.809,620.113Zm-0.142,62.953a10.921,10.921,0,0,0-.1-21.842A10.921,10.921,0,1,0,922.667,683.066ZM922.41,285.185a11.225,11.225,0,0,0-11.043,11.178c0.094,6.058,5.336,11.235,11.191,11.054,5.477-.17,10.993-5.837,11.047-11.35A10.969,10.969,0,0,0,922.41,285.185Zm0.3-63.167a11.5,11.5,0,0,0-11.739,11.7,11.653,11.653,0,0,0,11.85,11.666,11.964,11.964,0,0,0,11.548-11.506A11.689,11.689,0,0,0,922.706,222.018ZM922.5,746.152a11.471,11.471,0,0,0,11.366-10.993,11.315,11.315,0,0,0-22.62-.687A11.421,11.421,0,0,0,922.5,746.152ZM954.1,504.71a10.872,10.872,0,1,0,10.734,10.642A10.777,10.777,0,0,0,954.1,504.71Zm30.9,53.563a11.084,11.084,0,0,0,11.721-11.053,11.38,11.38,0,1,0-22.745-.672C973.836,553.21,978.4,558.064,984.993,558.273Zm0.643,62.9a11.622,11.622,0,1,0-11.9-11.631A11.648,11.648,0,0,0,985.636,621.175Zm-0.2-526.512c-7.922-.009-13.77,5.658-13.876,13.446-0.109,8.114,5.748,13.977,13.92,13.933A13.69,13.69,0,0,0,985.432,94.663ZM985.28,873.451a13.36,13.36,0,1,0-13.334-13.306A13.2,13.2,0,0,0,985.28,873.451Zm0.31-715.483A12.99,12.99,0,0,0,972.019,170.9a13.311,13.311,0,0,0,26.613.553A13.1,13.1,0,0,0,985.59,157.968ZM985.12,31.047c-8.285.1-14.472,6.639-14.3,15.109,0.16,8.089,6.419,14.089,14.663,14.06A14.586,14.586,0,1,0,985.12,31.047Zm0.07,968.872c8.364,0.027,14.539-5.825,14.777-14a14.633,14.633,0,1,0-29.25-.828C970.618,993.709,976.649,999.891,985.19,999.919Zm-0.087-189.6a12.728,12.728,0,0,0,12.991-12.784A12.451,12.451,0,0,0,985.3,784.685a12.832,12.832,0,0,0-12.834,12.955A13.041,13.041,0,0,0,985.1,810.321Zm0.511,126.3a13.649,13.649,0,0,0,13.806-14.169,14.054,14.054,0,0,0-14.342-13.8,14.234,14.234,0,0,0-13.894,14.31A13.969,13.969,0,0,0,985.614,936.622Zm11.054-452.374A11.2,11.2,0,0,0,985.175,472.9a11.09,11.09,0,0,0-11.167,11.637c0.131,6.371,4.741,10.875,11.18,10.927C991.824,495.519,996.7,490.758,996.668,484.248Zm-42.6-42.345c-5.724-.061-11.119,5.428-11.035,11.226a11.13,11.13,0,0,0,10.816,10.715,10.871,10.871,0,0,0,10.967-11.079C964.739,447.128,959.628,441.963,954.073,441.9Zm31.336-31.758a11.051,11.051,0,0,0-11.522,11.2,11.417,11.417,0,1,0,22.824.178C996.677,414.865,992.039,410.2,985.409,410.145ZM985.43,347.2a11.713,11.713,0,1,0-.19,23.421A11.711,11.711,0,1,0,985.43,347.2Zm0.309-62.985c-7.036-.141-12.315,4.777-12.545,11.686a11.92,11.92,0,0,0,11.711,12.537A12.119,12.119,0,1,0,985.739,284.216Zm-0.15,462.931a12.042,12.042,0,0,0,11.975-12.418,12.24,12.24,0,1,0-24.479-.068A12,12,0,0,0,985.589,747.147Zm0.689-526.008c-7.4-.436-13.309,4.833-13.538,12.062-0.218,6.844,4.908,12.742,11.392,13.112,7.881,0.449,13.246-4.451,13.618-12.437A11.875,11.875,0,0,0,986.278,221.139ZM985.3,684.078a11.952,11.952,0,0,0,.1-23.9,12.2,12.2,0,0,0-12.03,11.7A11.914,11.914,0,0,0,985.3,684.078ZM922.9,999.353a13.975,13.975,0,0,0-.3-27.948A13.975,13.975,0,1,0,922.9,999.353ZM828.743,1.43c-7.891-.073-13.335,5.18-13.358,12.891a12.8,12.8,0,0,0,13.168,13.215A13.377,13.377,0,0,0,841.868,14.22,13.042,13.042,0,0,0,828.743,1.43ZM828.63,966.588a12.521,12.521,0,0,0-.218-25.041,12.071,12.071,0,0,0-12.251,12.626C816.262,961.412,821.608,966.735,828.63,966.588ZM797.017,554.86a7.994,7.994,0,0,0,7.833-7.7,7.7,7.7,0,0,0-7.321-8.134,7.86,7.86,0,0,0-8.2,7.345A8.1,8.1,0,0,0,797.017,554.86Zm30.554,348.034c6.949,0.379,12.143-4.17,12.434-10.888a11.69,11.69,0,0,0-11.227-12.349A12.03,12.03,0,0,0,816.8,890.8,11.429,11.429,0,0,0,827.571,902.894Zm0.89-838.145a12.074,12.074,0,0,0-12.148,12.237c-0.007,7.075,5,12.19,11.977,12.231a12.186,12.186,0,0,0,12.6-12.361A12.462,12.462,0,0,0,828.461,64.749ZM797,492.022a7.367,7.367,0,0,0,7.835-7.494c0.183-4.8-3.028-8.04-7.882-7.965a7.5,7.5,0,0,0-7.654,7.728A7.632,7.632,0,0,0,797,492.022Zm0.105,125.76a8.048,8.048,0,0,0,8.1-8.2,7.691,7.691,0,0,0-8.042-8.064,7.988,7.988,0,0,0-8.216,8.02A8.357,8.357,0,0,0,797.1,617.782Zm-0.113-204.028c-4.86.162-7.412,3.017-7.822,7.613-0.389,4.364,3.4,8.138,7.844,8.261A7.7,7.7,0,0,0,805,421.613C804.989,416.814,801.778,413.593,796.991,413.754ZM828.47,776.32a10.189,10.189,0,0,0,10.164-10.4,10.306,10.306,0,0,0-10.029-9.994,10.1,10.1,0,0,0-10.091,10.416A9.963,9.963,0,0,0,828.47,776.32ZM828.2,712.71c5.472,0.137,9.248-3.305,9.524-8.682a9.258,9.258,0,0,0-8.969-10,9.777,9.777,0,0,0-9.71,8.895A9.165,9.165,0,0,0,828.2,712.71Zm0.054-584.379A11.078,11.078,0,0,0,817.067,139.9a11.646,11.646,0,0,0,11.678,11.239,11.248,11.248,0,0,0,11.072-11.7A10.965,10.965,0,0,0,828.253,128.331Zm0.238,126.657a9.782,9.782,0,0,0-9.75,9.579c-0.2,5.8,3.828,10.132,9.518,10.232a9.989,9.989,0,0,0,10.231-9.73A10.208,10.208,0,0,0,828.491,254.988Zm0.182,63.191a9.749,9.749,0,0,0-9.5,9.086,9.115,9.115,0,0,0,9.392,9.543c5.317-.025,9.031-3.787,9.056-9.171A9.164,9.164,0,0,0,828.673,318.179Zm0.09,521.5a10.757,10.757,0,0,0,10.509-10.407,10.8,10.8,0,1,0-21.577-.627A10.772,10.772,0,0,0,828.763,839.68ZM796.978,350.556a8.388,8.388,0,1,0,.291,16.773A8.389,8.389,0,1,0,796.978,350.556Zm31.168-158.743a10.49,10.49,0,0,0-10.359,10.416,10.657,10.657,0,0,0,10.724,10.649c6.182-.023,10.488-4.476,10.408-10.765S834.48,191.643,828.146,191.813ZM765.687,445.562c-3.965.029-7.6,3.615-7.258,7.558,0.362,4.218,2.9,6.74,7.136,7.087,3.882,0.318,7.553-3.345,7.606-7.249A7.594,7.594,0,0,0,765.687,445.562Zm-7.26,132.878c0.4,4.433,2.869,7.026,7.758,7.107,4.422-.4,6.97-3.071,6.907-7.518-0.066-4.574-2.943-6.986-7.522-7.036A6.936,6.936,0,0,0,758.427,578.44Zm39.061,419.672A12.665,12.665,0,1,0,784.565,985.9,12.518,12.518,0,0,0,797.488,998.112Zm-0.612-964.9a12.223,12.223,0,0,0-12.028,12.412,12.285,12.285,0,1,0,24.569.126A12.4,12.4,0,0,0,796.876,33.217ZM765.3,522.778c3.931,0.265,7.8-2.961,7.76-6.853-0.043-4.16-2.264-6.906-6.48-7.552a7.363,7.363,0,0,0-8.065,6.533A7.439,7.439,0,0,0,765.3,522.778Zm63.278-141.532a8.9,8.9,0,0,0-8.759,8.929,8.515,8.515,0,0,0,8.584,8.973,9.063,9.063,0,0,0,8.967-8.792A9.413,9.413,0,0,0,828.573,381.246ZM765.967,648.583a7.335,7.335,0,0,0,7.506-7.742,7.244,7.244,0,0,0-7.559-7.635c-4.6-.046-7.667,2.868-7.792,7.395C757.99,645.372,761.247,648.686,765.967,648.583Zm31.03,32.3a8.851,8.851,0,0,0,8.79-8.861,8.628,8.628,0,0,0-17.253.315A8.7,8.7,0,0,0,797,680.887Zm0.219,253.489A11.361,11.361,0,0,0,808.9,922.547,11.792,11.792,0,1,0,797.216,934.376Zm-31.77-551.717c-4.376.5-7.234,2.988-7.2,7.667,0.039,4.653,2.847,7.157,7.278,7.537a7.434,7.434,0,0,0,7.812-7.622C773.316,386,769.575,382.186,765.446,382.659Zm32.11,361.406a9.068,9.068,0,0,0,8.763-9.543,9.291,9.291,0,0,0-9.361-9.033,9.161,9.161,0,0,0-9.033,9.327A9.016,9.016,0,0,0,797.556,744.065Zm-0.381-520.258a9.98,9.98,0,0,0-9.832,9.525,9.568,9.568,0,0,0,9.768,10.04,9.684,9.684,0,0,0,9.846-9.98A9.9,9.9,0,0,0,797.175,223.807Zm0.224,63.5a8.721,8.721,0,0,0-9.135,9.045,8.915,8.915,0,1,0,17.828-.149A8.739,8.739,0,0,0,797.4,287.305ZM797.058,97.018a11.363,11.363,0,0,0,.123,22.727A11.363,11.363,0,1,0,797.058,97.018Zm0.048,773.97a10.9,10.9,0,1,0,.051-21.8A10.9,10.9,0,0,0,797.106,870.988Zm0.306-710.553a10.541,10.541,0,1,0,10.3,11.006A10.47,10.47,0,0,0,797.412,160.435Zm-0.6,646.937a9.7,9.7,0,0,0,10.255-10.08,9.944,9.944,0,0,0-19.887-.007C787.149,803.1,791.1,807.229,796.812,807.372ZM859.39,32.77c-7.312.176-12.624,5.86-12.449,13.321a12.972,12.972,0,0,0,25.94-.443C872.821,38.023,867.123,32.584,859.39,32.77Zm32.127,31.263a12.676,12.676,0,0,0-13.16,12.589c-0.165,7.685,5.354,13.509,12.826,13.538A13.068,13.068,0,0,0,891.517,64.033ZM891.2,127.619c-7.059.061-12.254,5.193-12.245,12.1a12.219,12.219,0,1,0,24.437-.024A11.828,11.828,0,0,0,891.2,127.619Zm-0.371,776.245a12.634,12.634,0,0,0,12.941-12.247c0.11-6.758-5.791-12.829-12.471-12.828-6.772,0-12.759,5.972-12.69,12.657A12.708,12.708,0,0,0,890.831,903.864Zm0.85-903.317a13.707,13.707,0,0,0-14.236,13.7,13.608,13.608,0,0,0,13.9,13.98A14.161,14.161,0,0,0,905.2,14.569,14.234,14.234,0,0,0,891.681.547Zm-0.166,966.539c7.744-.079,13.027-5.629,12.83-13.477a12.743,12.743,0,0,0-13.124-12.719c-7.754.03-13.186,5.551-13.09,13.305C878.229,962.062,883.531,967.168,891.515,967.086ZM860.147,412.393a9.33,9.33,0,0,0-9.646,8.928,9.834,9.834,0,0,0,9.058,9.666,9.4,9.4,0,0,0,9.5-9.065A9.1,9.1,0,0,0,860.147,412.393Zm-0.227,80.715a8.92,8.92,0,0,0,9.058-9.25,9.3,9.3,0,0,0-9.213-8.627c-5.1.084-9.357,4.477-9.084,9.366A9.144,9.144,0,0,0,859.92,493.108Zm-0.247,62.852a9.047,9.047,0,0,0,9.337-9.029,9.357,9.357,0,0,0-8.673-9.189,9.678,9.678,0,0,0-9.705,8.842A9.193,9.193,0,0,0,859.673,555.96ZM891.51,254.037a10.909,10.909,0,1,0-.082,21.817,10.766,10.766,0,0,0,10.561-10.842A10.889,10.889,0,0,0,891.51,254.037Zm-0.287,63.15a10.523,10.523,0,0,0-10.39,10.371,10.2,10.2,0,0,0,10.247,10.368c5.052,0.033,10.514-5.35,10.525-10.373A10.5,10.5,0,0,0,891.223,317.187Zm-0.114,523.324A11.8,11.8,0,0,0,903,828.8a11.557,11.557,0,0,0-11.3-11.628,11.438,11.438,0,0,0-12.114,11.355A11.568,11.568,0,0,0,891.109,840.511Zm0.014-126.7a10.128,10.128,0,0,0,10.613-10.481,10.68,10.68,0,0,0-10.4-10.371A10.446,10.446,0,0,0,880.794,703.1C880.587,709.294,884.849,713.715,891.123,713.808Zm-0.019-63a9.752,9.752,0,0,0,10.173-9.671,9.983,9.983,0,0,0-9.716-10.218,10.1,10.1,0,0,0-10.52,10.032A9.942,9.942,0,0,0,891.1,650.811Zm0.35-459.977a11.332,11.332,0,0,0-11.737,11.144A11.612,11.612,0,0,0,891.3,213.965,12.109,12.109,0,0,0,902.9,202.43,11.787,11.787,0,0,0,891.454,190.834ZM859.8,618.856a9.2,9.2,0,0,0,9.295-9.1,8.824,8.824,0,0,0-8.889-9.338c-5.308-.121-9.489,3.6-9.711,8.644A9.436,9.436,0,0,0,859.8,618.856Zm-31.223,30.689a8.4,8.4,0,0,0,8.768-8.808,8.658,8.658,0,0,0-8.942-8.758,8.509,8.509,0,0,0-8.728,8.924C819.718,646.178,823.211,649.569,828.578,649.545Zm51.631,117.712c0.593,5.368,3.714,8.5,8.445,8.462,4.249,2.952,7.884,1.047,10.659-2.061,2.483-2.783,5.051-6.187,1.538-10.163-0.2-5.034-5.07-9.127-10.291-8.646A11.514,11.514,0,0,0,880.209,767.257Zm-20.3,231.352a13.308,13.308,0,0,0,13.4-13.134c-0.01-7.387-6.49-13.791-13.754-13.6a13.2,13.2,0,0,0-12.871,13.649A12.764,12.764,0,0,0,859.908,998.609Zm31.326-618.4A10.364,10.364,0,0,0,881.146,390.3a9.855,9.855,0,0,0,9.628,9.741,9.522,9.522,0,0,0,10.241-9.572C901.117,384.989,896.519,380.163,891.234,380.2Zm-31.485,555.1a12.561,12.561,0,1,0,.253-25.12A12.561,12.561,0,0,0,859.749,935.308Zm-30.94-348.66a8.4,8.4,0,0,0,8.3-8.625,8.616,8.616,0,0,0-8.635-8.41,8.445,8.445,0,0,0-8.523,8.452C819.913,583.249,823.548,586.771,828.809,586.648Zm30.939-490.44a12.193,12.193,0,0,0,.272,24.383c6.555-.05,12.323-5.887,12.2-12.349A12.449,12.449,0,0,0,859.748,96.208Zm-31.5,410.972a8.368,8.368,0,0,0-8.221,8.619,8.584,8.584,0,0,0,8.709,8.28,8.333,8.333,0,0,0,8.125-8.749A8.08,8.08,0,0,0,828.247,507.18Zm0.42-62.805a8.563,8.563,0,1,0-.075,17.125A8.563,8.563,0,0,0,828.667,444.375Zm31.164,427.26A11.174,11.174,0,0,0,871.5,860a11.672,11.672,0,0,0-23.344-.023C848.1,866.717,852.971,871.586,859.831,871.635Zm0.332-126.6a10.225,10.225,0,1,0-10.644-10A10.1,10.1,0,0,0,860.163,745.04Zm0.44-458.658c-5.741-.335-10.312,3.517-10.741,9.05A10.068,10.068,0,1,0,860.6,286.382Zm-0.448,63.083c-5.627-.13-9.71,3.721-9.806,9.248a9.336,9.336,0,0,0,9.426,9.711,9.489,9.489,0,0,0,9.512-9.058A9.074,9.074,0,0,0,860.155,349.465Zm-0.483,332.456a9.7,9.7,0,0,0,9.775-10.04,9.6,9.6,0,0,0-9.764-9.439A9.745,9.745,0,0,0,859.672,681.921Zm0.311-522.5a11.962,11.962,0,0,0-11.658,11.46,11.691,11.691,0,0,0,11.408,11.576,11.546,11.546,0,0,0,11.589-11.312C871.387,164.979,866.007,159.416,859.983,159.417Zm-0.3,63.483c-6.11.115-10.455,4.647-10.425,10.873a10.548,10.548,0,1,0,21.09-.274C870.266,227.275,865.748,222.786,859.683,222.9Zm0.41,585.316a10.3,10.3,0,0,0,10.516-10.175,10.958,10.958,0,0,0-10.426-11.628c-6.143-.23-11.021,4.586-11.1,10.958C849.007,803.83,853.421,808.178,860.093,808.216ZM576.461,709.234c4.438,0.345,6.629-1.845,7.07-5.229,0.475-3.639-1.952-5.964-5.371-6.378a5.379,5.379,0,0,0-6.388,5.283C571.513,706.334,573.244,708.855,576.461,709.234Zm-437.855,67.1a10.2,10.2,0,1,0-10.223-9.821A10.21,10.21,0,0,0,138.606,776.333ZM107.242,32.78c-7.66-.02-13.157,5.6-13.034,13.338,0.117,7.342,5.735,12.712,13.19,12.609,7.427-.1,12.757-5.587,12.712-13.084C120.066,38.088,114.776,32.8,107.242,32.78Zm31.167,31.967A12.676,12.676,0,0,0,126.03,77a12.364,12.364,0,0,0,12.248,12.236c7.2,0.081,12.269-4.737,12.416-11.791C150.845,70.2,145.493,64.672,138.409,64.748ZM138.426,191.8c-6.095.006-10.427,4.533-10.317,10.781a10.08,10.08,0,0,0,10.833,10.3A10.543,10.543,0,0,0,138.426,191.8Zm-0.243,520.928c5.609,0.138,9.734-3.745,9.777-9.2a9.448,9.448,0,0,0-9.065-9.482,9.259,9.259,0,0,0-9.673,9.349A8.832,8.832,0,0,0,138.183,712.729Zm0.244,190.2a11.5,11.5,0,0,0,11.82-11.706,11.9,11.9,0,0,0-11.584-11.56,11.763,11.763,0,0,0-11.728,11.906A11.335,11.335,0,0,0,138.427,902.926Zm0.655-774.641a11.243,11.243,0,0,0-12,10.818,11.483,11.483,0,0,0,10.867,11.987,11.712,11.712,0,0,0,12.084-10.884A11.358,11.358,0,0,0,139.082,128.285Zm-0.209,711.4a10.6,10.6,0,0,0,10.386-11.042,10.752,10.752,0,0,0-10.768-10.746,10.913,10.913,0,0,0-10.714,10.843A10.67,10.67,0,0,0,138.873,839.68Zm30.9,94.693a11.509,11.509,0,0,0,11.867-11.657,11.371,11.371,0,0,0-11.267-11.649c-6.866-.229-11.926,4.528-12.063,11.342C158.17,929.276,162.974,934.29,169.771,934.373ZM138.252,444.455a8.41,8.41,0,0,0-8.3,8.743,8.688,8.688,0,0,0,8.811,8.3,8.3,8.3,0,0,0,8.114-8.819A8.049,8.049,0,0,0,138.252,444.455ZM170,998.124a12.728,12.728,0,0,0,12.577-12.712A12.539,12.539,0,0,0,170.02,972.8a12.329,12.329,0,0,0-12.726,12.311A12.48,12.48,0,0,0,170,998.124Zm-0.538-964.9a12.724,12.724,0,0,0-12,12.611A12.408,12.408,0,0,0,170.31,58.013a11.873,11.873,0,0,0,11.819-12.425A12.244,12.244,0,0,0,169.466,33.225Zm-31.2,473.957a8.1,8.1,0,0,0-8.115,8.649A8.376,8.376,0,1,0,146.9,515.3,8.078,8.078,0,0,0,138.268,507.181Zm-0.044-125.972c-4.535.206-8.79,4.832-8.625,9.376a9.135,9.135,0,0,0,9.264,8.546,8.954,8.954,0,0,0,8.571-9.2C147.287,385.3,142.75,381,138.224,381.209Zm0.305,268.463a8.88,8.88,0,0,0,9.111-8.666,9.085,9.085,0,0,0-18.169-.063A8.847,8.847,0,0,0,138.529,649.672Zm-0.149-63.01c5.334,0.038,8.7-3.4,8.567-8.746-0.124-4.98-3.545-8.228-8.6-8.161A8.454,8.454,0,1,0,138.38,586.662ZM138.5,318.18a9.434,9.434,0,0,0-9.193,9.886,8.953,8.953,0,0,0,9.566,8.728,9.2,9.2,0,0,0,9.033-9.393A9.757,9.757,0,0,0,138.5,318.18ZM106.944,159.411a12.156,12.156,0,0,0-11.376,11.8,11.759,11.759,0,0,0,11.77,11.231,11.435,11.435,0,0,0,11.271-11.627A11.81,11.81,0,0,0,106.944,159.411Zm0.068,63.458a10.757,10.757,0,0,0,.379,21.51A10.758,10.758,0,0,0,107.012,222.869Zm0.079,585.345c6.579-.013,11.03-4.481,10.926-10.97a10.884,10.884,0,0,0-10.76-10.809A11.125,11.125,0,0,0,96.24,797.66,10.542,10.542,0,0,0,107.091,808.214Zm0.152-521.92a10.009,10.009,0,1,0-.072,20.011,10.12,10.12,0,0,0,10.257-9.7A9.97,9.97,0,0,0,107.243,286.294ZM107.2,745.035a10.238,10.238,0,1,0-.325-20.467,10.43,10.43,0,0,0-10.066,10.156A10.179,10.179,0,0,0,107.2,745.035Zm-0.077,190.254a12.55,12.55,0,1,0,.1-25.1A12.55,12.55,0,1,0,107.119,935.289ZM107.1,871.635c6.971-.016,11.683-4.723,11.646-11.631a11.426,11.426,0,0,0-11.863-11.591,11.762,11.762,0,0,0-11.454,11.524A11.285,11.285,0,0,0,107.1,871.635ZM107.387,96.2a12.2,12.2,0,1,0-.465,24.388A12.2,12.2,0,0,0,107.387,96.2Zm-0.244,585.76a9.626,9.626,0,0,0,9.692-9.566,9.724,9.724,0,0,0-9.3-10,9.544,9.544,0,0,0-9.908,9.3C97.406,677.51,101.447,681.869,107.143,681.955Zm-0.095-125.98a9.035,9.035,0,0,0,9.231-9.1,9.179,9.179,0,0,0-9.248-9.152,9.353,9.353,0,0,0-8.995,8.885A9.086,9.086,0,0,0,107.048,555.975Zm9.214-71.856a9.087,9.087,0,1,0-9.275,9.025A9.067,9.067,0,0,0,116.262,484.119ZM138.272,1.434a12.527,12.527,0,0,0-12.9,12.773A12.812,12.812,0,0,0,138.44,27.53c7.707,0,13.116-5.457,13.07-13.188C151.463,6.437,146.286,1.389,138.272,1.434Zm0.364,965.177a12.538,12.538,0,1,0-.243-25.074A12.538,12.538,0,1,0,138.636,966.611ZM107.242,349.469a9.458,9.458,0,1,0,9.39,9.658A9.128,9.128,0,0,0,107.242,349.469Zm0.137,62.944a9.2,9.2,0,0,0-9.454,9.026,9.658,9.658,0,0,0,9.082,9.55,9.329,9.329,0,0,0,9.365-9.195A8.962,8.962,0,0,0,107.379,412.413Zm-0.062,206.446a9.03,9.03,0,0,0,9.1-9.83c-0.223-5.274-4.1-8.745-9.605-8.605a8.91,8.91,0,0,0-8.874,9.395A9.182,9.182,0,0,0,107.317,618.859ZM138.471,255a9.93,9.93,0,0,0-9.8,10.15A9.835,9.835,0,1,0,138.471,255Zm62.694,456.957a8.466,8.466,0,0,0,.2-16.931A8.467,8.467,0,1,0,201.165,711.959Zm0.349-63.352a7.463,7.463,0,0,0,7.459-7.984A7.692,7.692,0,1,0,201.514,648.607Zm-0.08,126.79a9.3,9.3,0,0,0,9.067-9.41A9.122,9.122,0,0,0,201.1,757a8.981,8.981,0,0,0-8.986,9.335A9.106,9.106,0,0,0,201.434,775.4Zm-0.755-456.061a8.4,8.4,0,0,0-7.711,8.568,8.244,8.244,0,0,0,8.836,7.909,8.333,8.333,0,0,0,7.746-8.456A8.526,8.526,0,0,0,200.679,319.336Zm0.986-63.274a8.619,8.619,0,0,0-9.352,8.86,8.76,8.76,0,0,0,8.8,8.885,8.492,8.492,0,0,0,8.947-8.617C210.183,259.924,206.818,256.263,201.665,256.062Zm-0.393-127.156a10.886,10.886,0,0,0-10.833,10.713c-0.03,5.648,5.181,10.89,10.8,10.864a11.235,11.235,0,0,0,10.816-10.841A10.923,10.923,0,0,0,201.272,128.906Zm-0.2,63.589a9.962,9.962,0,0,0-9.637,9.729,9.819,9.819,0,0,0,19.635.238A10,10,0,0,0,201.075,192.5ZM201.3,838.656c5.949-.016,9.866-3.857,9.925-9.731a9.958,9.958,0,1,0-19.912.024C191.384,834.764,195.4,838.672,201.3,838.656Zm0.093,63.814a10.984,10.984,0,0,0,10.793-11.325,10.459,10.459,0,0,0-10.755-10.515c-6.316-.039-11.317,4.773-11.222,10.8A11.27,11.27,0,0,0,201.394,902.47Zm31-868.409a11.833,11.833,0,0,0-11.692,12.033A12.259,12.259,0,0,0,232.5,57.564a11.6,11.6,0,0,0,11.753-11.872C244.2,38.823,239.219,33.939,232.4,34.061Zm-0.182,899.83c5.647,0.262,11.416-5.036,11.631-10.68a11,11,0,0,0-11.1-11.567,10.714,10.714,0,0,0-11.14,10.8A10.945,10.945,0,0,0,232.217,933.891Zm0.521,63.418a11.848,11.848,0,0,0,12-12.236,12.164,12.164,0,0,0-12.557-11.835c-6.7.233-11.756,5.755-11.645,12.708A11.722,11.722,0,0,0,232.738,997.309Zm-31.114-551.7a7.31,7.31,0,0,0-7.737,7.067,7.562,7.562,0,0,0,7.319,7.571c3.906,0.035,7.648-3.569,7.426-7.454C208.386,448.5,205.852,446.015,201.624,445.61Zm-0.277-62.97c-4.262.275-7.267,2.5-7.64,7.131a7.566,7.566,0,1,0,15.105.745C208.921,386.248,205.513,382.372,201.347,382.64Zm-0.084,202.842c3.96,0.254,7.728-3.335,7.38-7.224-0.386-4.324-2.683-7.124-7.453-7.313-4.5.3-7.256,2.7-7.274,7.259C193.9,582.811,196.792,585.194,201.263,585.482Zm-0.05-77.193a7.223,7.223,0,0,0-7.166,7.476c0.306,4.178,2.625,6.762,6.975,7A7.244,7.244,0,1,0,201.213,508.289ZM170.181,744.044a9.2,9.2,0,0,0,9.037-9.343,9.419,9.419,0,0,0-9.267-9.209,9.074,9.074,0,0,0-9.187,9.156C160.669,740.272,164.585,744.178,170.181,744.044Zm-0.209-520.2a10.14,10.14,0,0,0-10,9.439,9.841,9.841,0,0,0,9.82,10.073,9.184,9.184,0,0,0,9.774-9.285A9.6,9.6,0,0,0,169.972,223.844ZM170.19,97.018A10.985,10.985,0,0,0,158.562,108.1c-0.122,6.637,4.523,11.512,11.061,11.607a11.231,11.231,0,0,0,11.731-11.047A11.1,11.1,0,0,0,170.19,97.018Zm-0.116,190.209a9.009,9.009,0,0,0-9.155,9.168,8.716,8.716,0,0,0,8.757,8.858A8.891,8.891,0,0,0,178.9,296.2,9.132,9.132,0,0,0,170.074,287.227Zm0.236-126.79A10.534,10.534,0,1,0,169.8,181.5,10.534,10.534,0,0,0,170.31,160.437Zm0.135,646.9c5.647-.2,9.521-4.481,9.331-10.325a9.585,9.585,0,0,0-10.156-9.593,10.034,10.034,0,0,0-9.808,10.118C159.935,803.357,164.482,807.548,170.445,807.341Zm-0.473,63.646a10.9,10.9,0,1,0-10.94-10.565A10.71,10.71,0,0,0,169.972,870.987Zm0.069-190.1a8.643,8.643,0,1,0-8.793-8.877A8.888,8.888,0,0,0,170.041,680.887Zm-0.2-126.025a8.39,8.39,0,0,0,8.009-7.759c0.178-4.218-3.875-8.223-8.229-8.131a7.951,7.951,0,0,0-7.556,8.021A8.164,8.164,0,0,0,169.845,554.862ZM201.292,1.805A12.319,12.319,0,0,0,188.863,14.39c-0.008,7.184,5.347,12.687,12.331,12.67a12.4,12.4,0,0,0,12.52-12.57A12.454,12.454,0,0,0,201.292,1.805Zm0.383,63.783c-7.007-.152-11.869,4.491-11.9,11.367a11.562,11.562,0,1,0,23.121.22A11.178,11.178,0,0,0,201.675,65.588Zm-0.649,900.271A11.973,11.973,0,0,0,213.3,954.448a11.769,11.769,0,0,0-12.067-12.132,11.564,11.564,0,0,0-11.866,11.656A11.683,11.683,0,0,0,201.026,965.859Zm-23.09-544.486c-0.484-4.485-2.93-7.489-7.85-7.625a7.582,7.582,0,0,0-8.1,7.842,7.858,7.858,0,0,0,8.039,8C174.343,429.575,178.4,425.636,177.936,421.373ZM169.718,492a7.878,7.878,0,0,0,8.1-7.413,7.7,7.7,0,0,0-7.456-8c-4.9-.212-8.341,2.951-8.309,7.634A7.657,7.657,0,0,0,169.718,492Zm0.535,125.758a8.416,8.416,0,0,0,7.924-8.379,8.2,8.2,0,0,0-8.364-7.865,7.6,7.6,0,0,0-7.965,7.979A7.923,7.923,0,0,0,170.253,617.756Zm-0.148-267.179a8.177,8.177,0,0,0-8.59,8.182,8.364,8.364,0,0,0,8.251,8.621,8.454,8.454,0,0,0,8.594-8.29A8.27,8.27,0,0,0,170.105,350.577ZM44.039,222.063a11.787,11.787,0,0,0-11.517,11.5,11.938,11.938,0,0,0,11.911,11.766,11.365,11.365,0,0,0,11.592-11.841C55.928,226.788,50.842,221.941,44.039,222.063ZM12.7,126.567A13.254,13.254,0,0,0-.184,139.751a13.39,13.39,0,0,0,13.655,13.043A13.119,13.119,0,1,0,12.7,126.567Zm0.382,714.72A12.265,12.265,0,0,0,25.645,828.3c-0.252-7.171-5.619-12.2-12.885-12.075A12.153,12.153,0,0,0,.452,828.886,12.282,12.282,0,0,0,13.078,841.287Zm-0.42-651.544c-7.061.213-12.162,5.8-11.969,13.1a12.115,12.115,0,0,0,12.436,12.017,12.237,12.237,0,0,0,12.317-12.755A12.47,12.47,0,0,0,12.658,189.743Zm0.563,715.049a13.547,13.547,0,0,0,13.2-13.577,13.155,13.155,0,0,0-13.534-13.046A13.165,13.165,0,0,0-.312,891.54,13.588,13.588,0,0,0,13.222,904.792ZM12.952,778.011a11.764,11.764,0,0,0,12.186-12.08A12.161,12.161,0,0,0,13.206,754.05,12.326,12.326,0,0,0,.947,766.264,11.947,11.947,0,0,0,12.952,778.011ZM13.454-.008A14.287,14.287,0,0,0-1.423,14.483a14.259,14.259,0,0,0,14.4,14.358A14.176,14.176,0,0,0,27.542,14.653,14.229,14.229,0,0,0,13.454-.008Zm-0.577,968.1a14,14,0,1,0,.363-28A14,14,0,1,0,12.878,968.09ZM13.521,63.38C5.58,63.207-.392,68.751-0.609,76.5c-0.229,8.128,5.566,14.295,13.55,14.42A13.409,13.409,0,0,0,26.718,77.354C26.834,69.307,21.4,63.552,13.521,63.38Zm-0.926,525.6a10.719,10.719,0,0,0,11.5-10.492A10.98,10.98,0,0,0,13.211,567.3,10.909,10.909,0,0,0,2.037,577.575,10.619,10.619,0,0,0,12.595,588.978Zm-30.938-30.691A11.342,11.342,0,0,0-6.82,546.926c-0.034-6.2-5.372-11.637-11.422-11.638A11.621,11.621,0,0,0-29.658,546.85,11.033,11.033,0,0,0-18.343,558.287ZM12.844,504.71a10.846,10.846,0,1,0,11.169,10.317A11.094,11.094,0,0,0,12.844,504.71Zm0.719-251.746A12.174,12.174,0,0,0,1.046,264.872,12.378,12.378,0,0,0,12.848,277c6.254,0.157,11.95-5.322,12.19-11.724A12.035,12.035,0,0,0,13.563,252.964ZM13.158,379A11.216,11.216,0,0,0,1.968,390.58a10.9,10.9,0,0,0,11.267,10.777,11.033,11.033,0,0,0,10.92-11.142A11.373,11.373,0,0,0,13.158,379ZM13.068,714.922a11.106,11.106,0,0,0,11.571-11.745,11.717,11.717,0,0,0-11.526-11.456,11.682,11.682,0,0,0-11.547,12C1.684,710.3,6.415,714.911,13.068,714.922Zm0.133-398.8A11.344,11.344,0,0,0,1.7,327.479,11.041,11.041,0,0,0,12.941,338.94a10.916,10.916,0,0,0,11.428-11.22A11.1,11.1,0,0,0,13.2,316.121ZM13.026,651.874a10.771,10.771,0,0,0,11.215-10.9,10.94,10.94,0,0,0-10.877-11.291,10.934,10.934,0,0,0-11.5,11.254A10.78,10.78,0,0,0,13.026,651.874ZM-18.56,747.157A12.064,12.064,0,0,0-6.025,734.841a12.45,12.45,0,0,0-12.021-12.415,12.684,12.684,0,0,0-12.636,12.466A12.272,12.272,0,0,0-18.56,747.157Zm0,126.308a13.168,13.168,0,0,0,13.541-12.98,13.112,13.112,0,0,0-13.351-13.756,13.2,13.2,0,0,0-13.311,13.257A13.272,13.272,0,0,0-18.564,873.465Zm0.1-63.176a12.917,12.917,0,0,0,13.05-12.834,12.854,12.854,0,0,0-13.042-12.8A12.341,12.341,0,0,0-31,797.15C-31.055,804.687-25.849,810.145-18.467,810.289Zm0.177,126.343A14.094,14.094,0,0,0-4.1,922.68a14.249,14.249,0,0,0-14.164-14.029,13.812,13.812,0,0,0-13.995,14.024A13.547,13.547,0,0,0-18.29,936.632Zm-0.316-778.656A12.913,12.913,0,0,0-31.557,170.9a13.261,13.261,0,0,0,13.244,13.349A13.209,13.209,0,0,0-5.1,170.893,12.873,12.873,0,0,0-18.606,157.976ZM-18.081,94.6a13.406,13.406,0,0,0-13.965,13.861,13.281,13.281,0,0,0,13.568,13.611,13.709,13.709,0,0,0,14.18-13.8A13.828,13.828,0,0,0-18.081,94.6Zm-0.563-63.549a14.892,14.892,0,0,0-14.373,14.7A14.821,14.821,0,0,0-17.943,60.189,14.125,14.125,0,0,0-3.8,45.65,14.419,14.419,0,0,0-18.644,31.054Zm0.2,968.883a14.272,14.272,0,0,0,14.834-14.6A14.749,14.749,0,0,0-18.45,970.59a14.934,14.934,0,0,0-14.617,14.469A14.451,14.451,0,0,0-18.442,999.937Zm0.069-715.753A12.3,12.3,0,0,0-30.6,296.4,12.283,12.283,0,0,0-18.22,308.457,12.046,12.046,0,0,0-6.135,296.221,11.956,11.956,0,0,0-18.373,284.184ZM-18.36,621.1A11.835,11.835,0,0,0-6.572,609.869a11.735,11.735,0,0,0-11.62-11.911,11.229,11.229,0,0,0-11.593,11.153A11.3,11.3,0,0,0-18.36,621.1Zm-0.03-210.969a10.989,10.989,0,0,0-11.349,11.4,11.387,11.387,0,0,0,11.274,11.688A12.021,12.021,0,0,0-6.613,421.914,11.57,11.57,0,0,0-18.391,410.135Zm0.271-62.925a11.358,11.358,0,0,0-11.839,11.568,11.4,11.4,0,0,0,11.55,11.876A12.049,12.049,0,0,0-6.356,359.048,11.833,11.833,0,0,0-18.12,347.21Zm31.184,94.7A11.458,11.458,0,0,0,2.07,453.229a11.109,11.109,0,0,0,11.606,10.6A11.089,11.089,0,0,0,24.038,452.6,11.249,11.249,0,0,0,13.064,441.908Zm93.978,556.7a13.044,13.044,0,0,0,13.45-13.01,13.508,13.508,0,0,0-13.548-13.7,13.644,13.644,0,0,0-13.182,13.5A13.113,13.113,0,0,0,107.042,998.61ZM-6.844,483.95a11.377,11.377,0,0,0-11.892-11.068,11.2,11.2,0,0,0-10.89,11.372c-0.012,6.638,4.75,11.294,11.47,11.215A11.1,11.1,0,0,0-6.844,483.95ZM-18.68,684.117A12.1,12.1,0,0,0-6.328,672.075a12.1,12.1,0,0,0-11.895-11.892,11.958,11.958,0,0,0-12.052,11.751A11.891,11.891,0,0,0-18.68,684.117Zm0.31-463.008a12.129,12.129,0,0,0-12.513,12.449,12.516,12.516,0,0,0,12.3,12.851,12.788,12.788,0,0,0,12.9-12.92A12.442,12.442,0,0,0-18.37,221.109ZM75.752,840.536A11.7,11.7,0,0,0,87.447,828.7a11.351,11.351,0,0,0-11.889-11.529A11.756,11.756,0,0,0,63.978,828.6,12.007,12.007,0,0,0,75.752,840.536Zm-0.209-586.5a11.03,11.03,0,0,0-10.579,11.487,10.859,10.859,0,0,0,21.707-.5A10.953,10.953,0,0,0,75.543,254.039ZM75.511,0.536A14.055,14.055,0,0,0,61.895,14.4a13.865,13.865,0,0,0,13.6,13.82,13.711,13.711,0,0,0,14.116-13.8A13.82,13.82,0,0,0,75.511.536Zm0.4,127.089c-7.087-.064-12.144,4.8-12.282,11.806a12.381,12.381,0,0,0,11.807,12.553,12.513,12.513,0,0,0,12.72-12.346A11.964,11.964,0,0,0,75.912,127.625Zm0.107,63.206a11.747,11.747,0,0,0-11.842,11.162,12.024,12.024,0,0,0,11.7,11.99A11.541,11.541,0,0,0,87.28,202.434,11.318,11.318,0,0,0,76.02,190.831Zm-0.483,712.99a12.351,12.351,0,0,0,12.76-12.3,12.767,12.767,0,0,0-12.544-12.71c-6.311-.023-12.3,5.827-12.508,12.225A12.471,12.471,0,0,0,75.536,903.821ZM75.528,967.1c7.846,0.069,13.4-5.245,13.529-12.934,0.121-7.5-5.638-13.223-13.3-13.212a12.771,12.771,0,0,0-13.14,12.709C62.484,961.461,67.831,967.028,75.528,967.1ZM44.605,999.422a13.9,13.9,0,0,0,13.824-14.285,13.759,13.759,0,0,0-14.2-13.81A14.049,14.049,0,1,0,44.605,999.422ZM75.517,777.113a10.992,10.992,0,0,0,11.467-10.707c0.164-5.8-5.008-11.3-10.9-11.59-5.8-.282-11.165,4.953-11.278,11A10.685,10.685,0,0,0,75.517,777.113ZM66.181,515.192a9.626,9.626,0,1,0,9.9-9.242A9.538,9.538,0,0,0,66.181,515.192Zm9.632,198.7c6.1-.018,10.23-4.086,10.314-10.156,0.085-6.175-4.473-10.906-10.434-10.83a10.949,10.949,0,0,0-10.551,10.363A10.468,10.468,0,0,0,75.814,713.894ZM76.2,587.84a9.463,9.463,0,0,0,9.468-9.715c-0.076-5.3-5.048-10.069-10.236-9.822a9.964,9.964,0,0,0-9.362,9.99A9.4,9.4,0,0,0,76.2,587.84Zm0-144.61a9.68,9.68,0,1,0,9.273,9.92A9.557,9.557,0,0,0,76.2,443.23Zm-0.564-63.019c-5.162-.01-9.875,4.909-9.786,10.213a9.979,9.979,0,0,0,19.952-.371A10.173,10.173,0,0,0,75.632,380.211Zm0.274-62.995a10.806,10.806,0,0,0-10.65,10.249,10.462,10.462,0,0,0,10.332,10.447,10.023,10.023,0,0,0,10.463-10.131A10.26,10.26,0,0,0,75.906,317.216ZM75.285,650.793a9.858,9.858,0,0,0,10.638-9.821,10.118,10.118,0,0,0-20.224-.458A9.843,9.843,0,0,0,75.285,650.793ZM75.751,64.042a13.061,13.061,0,1,0,.321,26.118c7.325-.214,12.575-5.75,12.543-13.225A12.648,12.648,0,0,0,75.751,64.042ZM44.457,872.5a12.1,12.1,0,0,0,12.448-12.567c-0.029-7.2-5.4-12.3-12.786-12.151A12.36,12.36,0,0,0,44.457,872.5ZM44.326,158.742a11.937,11.937,0,0,0-12.121,12.091,12.272,12.272,0,0,0,12.3,12.656A12.738,12.738,0,0,0,56.8,171.251,12.3,12.3,0,0,0,44.326,158.742ZM44.221,809.367a11.96,11.96,0,0,0,12.241-12.116,12.31,12.31,0,0,0-12.109-11.779,12.439,12.439,0,0,0-11.931,11.956A11.963,11.963,0,0,0,44.221,809.367ZM232.95,97.542A10.661,10.661,0,0,0,221.783,108.4a10.824,10.824,0,0,0,10.687,10.83c6.32,0.075,10.72-4.553,10.693-11.242A10.134,10.134,0,0,0,232.95,97.542ZM44.759,32.011c-8.088-.151-14.278,5.837-14.243,13.776A14.134,14.134,0,0,0,44.3,59.658a13.874,13.874,0,0,0,13.8-13.718C58.16,37.938,52.62,32.157,44.759,32.011ZM44.542,935.874a13.126,13.126,0,1,0,.059-26.252A13.128,13.128,0,1,0,44.542,935.874ZM44.262,95.3a13.067,13.067,0,1,0,13.17,12.808A13.059,13.059,0,0,0,44.262,95.3Zm0.5,587.792a10.94,10.94,0,0,0-.682-21.87,10.835,10.835,0,0,0-10.489,10.947A10.952,10.952,0,0,0,44.758,683.1ZM44.874,411.26a10.55,10.55,0,0,0-10.908,9.773,10.412,10.412,0,0,0,10.3,10.989A10.387,10.387,0,0,0,44.874,411.26Zm-0.29,208.871a10.508,10.508,0,0,0,10.335-10.407,10.294,10.294,0,0,0-10.632-10.577A10.451,10.451,0,0,0,33.9,609.422,10.794,10.794,0,0,0,44.584,620.131Zm10-135.87a9.946,9.946,0,0,0-10.3-10.28,10.432,10.432,0,0,0-10.185,9.96,10.1,10.1,0,0,0,10.164,10.445C50.359,494.441,54.589,490.29,54.588,484.261ZM44.421,285.18a11.123,11.123,0,0,0-.232,22.239A11.121,11.121,0,1,0,44.421,285.18Zm0.342,460.962a11.168,11.168,0,0,0,10.906-11.326A11.2,11.2,0,1,0,44.763,746.142ZM484.07,424.18c1.587-.257,2.151-1.386,2.267-2.87-0.476-1.672-1.529-2.679-3.331-2.384a2.369,2.369,0,0,0-2.14,2.865A2.507,2.507,0,0,0,484.07,424.18ZM44.518,557.236a10.244,10.244,0,0,0,10.127-10.577,10.13,10.13,0,0,0-10.014-10.065A10.322,10.322,0,1,0,44.518,557.236ZM44.474,348.282a10.6,10.6,0,1,0-.123,21.194,10.35,10.35,0,0,0,10.822-10.5A10.591,10.591,0,0,0,44.474,348.282ZM389.192,645.711c2.973,0.192,4.406-1.9,5.055-4.52-0.246-2.916-1.519-4.924-4.587-4.99-2.917-.063-5.022,1.6-5.061,4.441A4.784,4.784,0,0,0,389.192,645.711Zm0.206-195.9a2.665,2.665,0,0,0-3,2.695c-0.167,2.008.772,3.35,2.825,3.488,2,0.136,3.171-.972,3.411-3C392.413,451.071,391.506,449.833,389.4,449.812Zm-0.036,131.96c2.325-.179,3.719-1.551,3.661-3.684s-1.452-3.422-3.83-3.347A3.131,3.131,0,0,0,385.888,578,3.465,3.465,0,0,0,389.362,581.772Zm0.171-68.925c-1.8.049-3,.934-2.878,2.756a2.749,2.749,0,0,0,2.948,2.82,2.579,2.579,0,0,0,2.552-2.574A2.546,2.546,0,0,0,389.533,512.847Zm-0.28-126.731a3.872,3.872,0,0,0-3.993,4.041,3.951,3.951,0,0,0,4.335,4.284c2.194-.047,3.912-1.473,4.01-4.3A3.927,3.927,0,0,0,389.253,386.116Zm0.209-64.016c-2.974.607-5.491,1.761-5.44,5.5,0.049,3.609,2.181,5.321,5.506,5.368,3.181,0.045,5.045-1.854,5.213-5.037C394.926,324.4,392.87,322.664,389.462,322.1Zm-0.378-63.689c-4.183.184-6.346,2.752-6.237,6.836,0.115,4.269,2.891,6.019,6.942,6.287,4.032-.513,6.328-2.749,6.12-6.919S393.23,258.229,389.084,258.411Zm0.347,450.917c3.931-.018,5.8-2.561,5.859-5.914a5.46,5.46,0,0,0-5.949-5.834c-3.5.087-5.965,2.309-5.892,5.945C383.52,707.068,385.656,709.227,389.431,709.328Zm31.171,287a10.929,10.929,0,0,0,11.345-10.741,11.316,11.316,0,0,0-10.961-11.277,10.885,10.885,0,0,0-11.214,10.88A10.624,10.624,0,0,0,420.6,996.327Zm0.382-127.493a8.716,8.716,0,1,0-8.941-8.665A8.62,8.62,0,0,0,420.984,868.834Zm-31.233-95.691c4.483-.258,6.288-3.139,6.809-7.162-0.629-4.2-2.688-6.81-7.19-6.769s-6.731,2.633-7,6.827A6.862,6.862,0,0,0,389.751,773.143Zm23.609,24.644c0.262,4.63,2.889,7.021,7.448,7.127a7.339,7.339,0,0,0,7.537-7.771c-0.435-4.446-3.177-6.814-7.088-7.264C416.336,789.942,413.108,793.33,413.36,797.787Zm7.7-635.047a8.384,8.384,0,0,0-8.762,8.2,8.241,8.241,0,0,0,8.711,8.18,7.992,7.992,0,0,0,8.085-8.135A8.164,8.164,0,0,0,421.059,162.74ZM420.825,34.969a10.726,10.726,0,1,0-.111,21.451c5.73,0.059,11-5.063,10.966-10.666A11.073,11.073,0,0,0,420.825,34.969ZM420.781,98.7a9.852,9.852,0,0,0-9.625,9.628,10.211,10.211,0,0,0,9.6,9.811c4.8,0.1,9.659-4.827,9.64-9.767A9.854,9.854,0,0,0,420.781,98.7Zm-0.226,834.013c5.277,0.231,10.082-4.433,10.183-9.882a9.932,9.932,0,0,0-10.073-9.894,9.417,9.417,0,0,0-9.7,9.484A9.6,9.6,0,0,0,420.555,932.711ZM357.831,226.156c-4.4.377-7.093,2.954-7.375,7.445-0.258,4.111,3.555,7.664,8.382,7.559,3.75-.572,6.539-2.732,6.637-7.393A7.233,7.233,0,0,0,357.831,226.156Zm31.547-31.906a7.823,7.823,0,0,0-7.826,8.193c0.078,4.949,3.041,7.359,7.552,7.869,4.315,0.488,8.134-3.41,8.181-7.886A7.908,7.908,0,0,0,389.378,194.25Zm-31,159.64c-3.445-.129-5.588,1.646-5.583,5.152,0,3.237,2.236,4.68,5.311,5.166,2.89-.413,5.064-1.731,5.116-5.066C363.272,355.94,361.618,354.011,358.379,353.89Zm-0.338,63.273c-2.983.179-4.629,1.857-4.42,4.893,0.2,2.871,2.235,3.973,4.79,3.922,2.833-.057,3.847-2.131,4.3-4.535C362.044,418.968,360.927,416.99,358.041,417.163ZM358,677.86c3.339-.216,5.467-2.022,5.634-5.333,0.181-3.565-1.747-5.948-5.472-6-3.291-.043-5.423,1.7-5.638,5.206C352.287,675.567,354.465,677.284,358,677.86Zm-0.075-63.637c2.919,0.145,4.459-1.763,5.048-4.465-0.281-2.946-1.825-4.77-4.727-4.862-2.871-.093-4.822,1.453-4.9,4.456A4.433,4.433,0,0,0,357.922,614.223Zm62.739-387.518c-4.007.252-6.741,2.262-7.077,6.675a7.079,7.079,0,0,0,7.263,7.4c4.334-.25,6.947-2.854,6.964-7.071S425.4,226.9,420.661,226.705ZM358.2,290.022c-4.107.014-6.686,2.383-6.6,6.413,0.09,4.007,2.745,6.32,6.842,6.183,3.945-.132,5.715-2.657,5.971-6.491C364.021,292.438,362.149,290.01,358.2,290.022ZM357.976,741.7c4.779-.313,6.976-3.236,6.823-7.3a6.306,6.306,0,0,0-6.882-6.437c-3.821.177-6.59,2.4-6.592,6.678C351.322,739.1,353.873,741.275,357.976,741.7ZM357.711,543.14a3.606,3.606,0,0,0-3.678,3.628c-0.064,2.526,1.725,3.89,4.014,3.915,2.365,0.027,3.891-1.368,3.785-4.657C361.655,544.14,360.219,542.94,357.711,543.14Zm31.4-412.615a8.854,8.854,0,0,0-8.675,9.1,8.959,8.959,0,1,0,17.918.014A8.837,8.837,0,0,0,389.112,130.525ZM357.974,480.344a3.723,3.723,0,0,0-3.908,4.052,3.663,3.663,0,0,0,3.711,3.668c2.379,0.119,3.952-1.181,4.112-3.775C361.776,481.789,360.468,480.255,357.974,480.344Zm30.869,420.333c5.555,0.258,9.9-3.646,10.032-9.017a9.707,9.707,0,0,0-9.5-9.756,9.587,9.587,0,0,0-9.409,9.236A9.019,9.019,0,0,0,388.843,900.677Zm-0.022-63.518c3.775,0.318,8.492-3.719,8.923-7.634a8.359,8.359,0,0,0-7.268-9,8.5,8.5,0,0,0-9.41,7.421A8.653,8.653,0,0,0,388.821,837.159ZM389.947,2.926a11.326,11.326,0,0,0-11.757,11.1,11.092,11.092,0,0,0,10.945,11.813,11.5,11.5,0,0,0,11.571-10.72A11.652,11.652,0,0,0,389.947,2.926Zm-0.691,961.656a10.487,10.487,0,0,0,10.688-10.66,10.287,10.287,0,0,0-10.4-10.291,10.412,10.412,0,0,0-10.726,10.591A10.553,10.553,0,0,0,389.256,964.582Zm0.389-897.646c-6.093-.091-10.325,3.969-10.41,9.989a10.127,10.127,0,1,0,20.246.516C399.656,71.332,395.623,67.025,389.645,66.936Zm93.878,673.882c3.445-.153,5.731-1.8,5.881-5.559,0.154-3.894-1.7-6.274-5.733-6.394-3.679-.111-5.814,1.885-6.021,5.522C477.429,738.284,479.358,740.543,483.523,740.818ZM232.2,870.173c6.04,0.208,10.357-3.892,10.456-9.932,0.1-5.819-3.8-9.917-9.64-10.127-6.121-.22-10.385,3.829-10.423,9.9C222.553,865.85,226.453,869.975,232.2,870.173ZM483.482,996.212A10.781,10.781,0,0,0,494.6,985.276a11.426,11.426,0,0,0-10.753-10.961,11.034,11.034,0,0,0-11.271,10.9C472.449,991.6,477,996.182,483.482,996.212Zm-0.2-960.991A10.158,10.158,0,0,0,472.9,46.044a10.8,10.8,0,0,0,10.528,10.35A10.637,10.637,0,0,0,494.015,45.63C493.954,39.326,489.63,35.133,483.284,35.221Zm-0.335,833.5a8.764,8.764,0,0,0,9.177-7.81,8.585,8.585,0,0,0-8.069-9.4A8.258,8.258,0,0,0,475,859.23,8.521,8.521,0,0,0,482.949,868.721Zm0.437-769.983a9.629,9.629,0,0,0-.053,19.242,9.748,9.748,0,0,0,9.574-9.595A9.648,9.648,0,0,0,483.386,98.738ZM452.148,644.952c2.581-.163,4.272-1.555,4.208-4.265a3.822,3.822,0,0,0-3.979-4c-2.873-.117-4.227,1.56-4.23,4.223C448.144,643.337,449.5,644.776,452.148,644.952Zm-0.212-69.545c-1.585.038-2.392,1.118-2.432,2.7a2.3,2.3,0,0,0,2.358,2.685,2.738,2.738,0,0,0,3.193-2.561A2.91,2.91,0,0,0,451.936,575.407Zm0.344-188.655c-2.143.106-3.671,1.089-3.727,3.414-0.056,2.307,1.347,3.488,3.589,3.568a2.992,2.992,0,0,0,3.4-3.071C455.679,388.473,454.736,386.975,452.28,386.752Zm31.57-32.026a4.084,4.084,0,0,0-4.561,4.168,3.923,3.923,0,0,0,3.89,4.2c2.7,0.147,4.221-1.451,4.6-4.122C487.6,356.5,486.071,354.846,483.85,354.726Zm-0.362-63.973c-3.318-.019-5.521,1.9-5.585,5.311-0.067,3.613,1.889,5.678,6,5.767,3.07-.143,5.107-1.89,5.235-5.288C489.278,292.81,487.082,290.774,483.488,290.753ZM420.54,741.1c3.732,0.185,6.069-2.143,6.562-6.111-0.308-3.71-2.063-6.227-6.119-6.242-3.827-.015-6.34,1.877-6.5,5.9C414.332,738.7,416.918,740.92,420.54,741.1Zm63.419-578.317a8.151,8.151,0,0,0-8.717,8.129,8.014,8.014,0,0,0,8.071,8.141,7.863,7.863,0,0,0,8.333-7.773A7.965,7.965,0,0,0,483.959,162.782ZM452.417,322.765c-3.241-.14-5.053,1.682-5.109,4.907-0.051,2.995,1.772,4.483,4.727,4.966,2.674-.255,4.79-1.468,4.985-4.46C457.221,325.08,455.718,322.908,452.417,322.765ZM358.381,805.413a8.017,8.017,0,0,0,7.572-8,7.645,7.645,0,0,0-8.235-7.787,7.564,7.564,0,0,0-7.533,7.894A7.746,7.746,0,0,0,358.381,805.413Zm117.892-7.777c0.179,4.428,2.659,7.189,7.364,7.112,4.75-.077,7.07-3,7.025-7.414-0.047-4.5-2.737-6.98-7.458-7.24C478.869,790.662,476.088,793.035,476.273,797.636Zm7.292-570.713c-4.5,0-6.887,2.626-6.933,6.872-0.044,4.075,2.649,6.624,6.541,6.772,4.189,0.158,6.812-2.3,7.265-6.652C490.119,229.584,488.116,226.923,483.565,226.923ZM483.6,676.729c2.851-.032,4.6-1.649,4.528-5.557-0.121-2.177-1.907-3.861-4.7-3.8a4.376,4.376,0,0,0-4.593,4.794C478.863,675.213,480.778,676.76,483.6,676.729ZM420.87,613.1c2.153-.118,3.381-1.615,3.569-3.818a3.459,3.459,0,0,0-3.991-3.206,3.091,3.091,0,0,0-3.162,3.374C417.3,611.591,418.583,613.223,420.87,613.1Zm-0.356-188.426c1.927,0.1,3.317-.81,3.378-2.945,0.059-2.039-1.021-3.151-3.055-3.34a3,3,0,0,0-3.106,3.309A2.743,2.743,0,0,0,420.514,424.671Zm31.893,539.841a10.312,10.312,0,0,0,10.109-10.433,10.156,10.156,0,0,0-10.106-10.392A10.422,10.422,0,1,0,452.407,964.512ZM451.951,3.084A11.162,11.162,0,0,0,441,14.888,11.377,11.377,0,0,0,452.34,25.766a11.609,11.609,0,0,0,11.039-11.861C463.133,7.954,457.784,2.888,451.951,3.084ZM420.644,290.5c-3.549.09-5.929,2.391-5.826,5.918,0.1,3.476,2.463,5.737,6.078,5.662s5.532-2.324,5.815-5.832C426.334,292.5,424.2,290.409,420.644,290.5ZM420.9,354.29c-2.664.291-4.237,1.815-4.332,4.485-0.1,2.69,1.247,4.5,4.117,4.55,2.771,0.044,4.285-1.469,4.421-4.268C425.244,356.15,423.4,354.976,420.9,354.29ZM420.59,677.141c3.061,0.1,4.8-1.967,5.4-4.982-0.659-2.832-1.985-5.162-5.261-5.028a4.737,4.737,0,0,0-4.911,5.217A4.675,4.675,0,0,0,420.59,677.141Zm31.324,95.769c4.382,0.066,6.614-2.58,7.047-6.8-0.382-4.123-2.52-6.63-6.627-6.684-4.353-.058-7.113,2.532-7.036,6.777C445.367,770.016,447.774,772.847,451.914,772.91Zm0.218-578.35a7.879,7.879,0,0,0-7.576,8.039c0.291,4.693,3.214,6.782,7.426,7.207,4.823-.239,7.432-2.711,7.772-7.244C460.063,198.452,456.16,194.528,452.132,194.56Zm-0.045,514.393c3.552,0.035,5.04-2.321,5.618-5.63-0.527-3.221-2.34-5.316-5.765-5.248a4.887,4.887,0,0,0-5.118,5.219C446.81,706.541,448.515,708.918,452.087,708.953Zm0.331-450.208c-3.78-.148-6.271,2.1-6.44,5.974s2.028,6.226,5.9,6.459c4.006,0.24,5.824-2.357,6.665-5.82C458.146,261.524,456.242,258.894,452.418,258.745Zm-0.083,641.847a8.916,8.916,0,0,0,9.026-9.25A9.338,9.338,0,0,0,452.236,882a9.756,9.756,0,0,0-9.49,9.739A9.28,9.28,0,0,0,452.335,900.592Zm0.1-63.79c4.529-.517,7.511-2.969,7.586-7.928a7.562,7.562,0,0,0-7.97-8.011,7.916,7.916,0,0,0-8.028,8.109C444.15,833.222,448.25,837.279,452.434,836.8ZM452.125,67.035c-5.91.011-10.107,4.452-9.922,10.5A9.625,9.625,0,0,0,452.51,87.02a10.09,10.09,0,0,0,9.823-10.154A10.319,10.319,0,0,0,452.125,67.035Zm-0.161,63.855a8.821,8.821,0,1,0,9.061,8.646A8.955,8.955,0,0,0,451.964,130.89Zm31.829,801.388a9.442,9.442,0,0,0,9.6-9.533,9.6,9.6,0,0,0-10.124-9.636c-5.586.129-9.486,4.057-9.5,9.565C473.764,928.412,477.922,932.4,483.793,932.278ZM263.611,711.157c4.544-.343,7.291-2.718,7.873-7.151,0.522-3.968-2.784-7.53-6.889-7.818-4.629-.326-7.946,2.633-7.966,7.177C256.608,708.06,259.3,710.357,263.611,711.157Zm0.13-390.643c-4.382.225-6.512,2.831-6.908,6.356-0.057,4.717,3.384,8.391,7.328,8.028,4.165-.384,6.723-2.813,6.887-7.168A6.859,6.859,0,0,0,263.741,320.514Zm0.452,326.872c3.85-.057,6.253-2.309,6.355-6.42,0.1-4.144-2.31-6.548-6.471-6.683-4.241-.137-6.685,2.288-6.725,6.384C257.313,644.672,259.455,647.244,264.193,647.386Zm0.036-390.415a8.076,8.076,0,0,0-8.49,7.642,8.321,8.321,0,0,0,7.9,8.414,8.021,8.021,0,0,0,8.344-7.823A7.674,7.674,0,0,0,264.229,256.971Zm-0.275,581.2a9.172,9.172,0,0,0,9.191-9.221,8.967,8.967,0,0,0-9.455-9.422,9.333,9.333,0,0,0-9.059,9.43A9.5,9.5,0,0,0,263.954,838.171Zm-0.063-454.344c-3.755.035-6.056,2.3-6.325,6.232-0.017,4,2.268,6.393,5.945,6.615,3.957,0.24,6.836-2,6.909-6.217C270.491,386.344,268,383.79,263.891,383.827Zm0.041-253.659c-6.119.021-9.969,3.842-9.86,9.785a10.193,10.193,0,0,0,10.231,9.811c4.823-.175,10.017-5.765,9.83-10.582C273.927,133.841,269.747,130.148,263.932,130.168Zm-0.185,63.069a9.027,9.027,0,0,0-8.73,9,9.224,9.224,0,0,0,8.54,9.263c4.821,0.2,9.34-4.162,9.41-9.088A9.238,9.238,0,0,0,263.747,193.237Zm0.291,581.216c4.981-.055,8.242-3.463,8.175-8.544-0.064-4.955-3.534-8.179-8.623-8.014a8.1,8.1,0,0,0-8.048,8.2A8.2,8.2,0,0,0,264.038,774.453Zm31.154,221.99c6.673,0,11.5-4.687,11.481-11.15a11.61,11.61,0,0,0-11.5-11.353,11.169,11.169,0,0,0-11.512,11.24A11.45,11.45,0,0,0,295.192,996.443Zm0.525-63.213a10.656,10.656,0,0,0,10.04-10.629,10.316,10.316,0,0,0-10.8-10.421c-5.825.18-10.191,5.051-10.122,11.294C284.9,928.933,289.847,933.37,295.717,933.23Zm-0.3-835.051c-5.839-.023-10.015,3.918-10.238,9.664-0.232,5.939,4.115,10.78,9.731,10.836a10.6,10.6,0,0,0,10.7-10.1A9.989,9.989,0,0,0,295.421,98.179ZM263.815,509.731c-3.555.085-5.864,2.267-5.785,5.945,0.071,3.317,1.856,5.423,5.8,5.282,3.641,0.22,5.555-2.062,5.8-5.544C269.886,511.584,267.368,509.647,263.815,509.731Zm-0.28,74.393c3.945,0.223,6.039-2.006,6.62-5.915-0.449-3.721-2.348-5.989-6.4-5.9-3.713.078-5.829,2.027-5.847,5.74C257.891,581.67,259.881,583.918,263.535,584.124Zm0.214-137.22c-3.441.082-5.618,2.241-5.891,6.027,0.286,3.822,2.544,5.956,6.326,5.947a5.51,5.51,0,0,0,5.843-5.885C270.047,449.157,267.517,446.816,263.749,446.9Zm31.87-412.458a11.48,11.48,0,0,0-11.74,11.119c-0.112,5.956,5.419,11.561,11.445,11.6,5.8,0.035,11.116-5.093,11.4-11.006A11.356,11.356,0,0,0,295.619,34.446ZM263.731,65.925a11.089,11.089,0,0,0,.519,22.169A11.088,11.088,0,0,0,263.731,65.925Zm-30.962,222.06c-4.062-.082-8.24,4-8.328,8.14a8.56,8.56,0,0,0,8.015,8.366,8.267,8.267,0,0,0,8.207-8.053A8.468,8.468,0,0,0,232.769,287.985Zm0.383,391.7c4.6-.455,6.584-3.456,7.1-7.7-0.72-4.435-3.062-7.137-7.63-7.306A7.51,7.51,0,1,0,233.152,679.689Zm-0.532,63.293a8.058,8.058,0,0,0,8.346-8.5,8.152,8.152,0,0,0-8.379-7.9A8.2,8.2,0,1,0,232.62,742.982Zm-0.2,63.787a9.214,9.214,0,0,0,9.327-9.162,8.78,8.78,0,0,0-9-9.292,8.959,8.959,0,0,0-9.444,8.941A9.523,9.523,0,0,0,232.417,806.769Zm-0.382-645.584c-5.189.065-9.23,4.38-9.231,9.857a10.035,10.035,0,0,0,9.887,10c4.887,0.015,9.851-4.816,9.855-9.593A10.676,10.676,0,0,0,232.035,161.185Zm0.818,63.465a8.851,8.851,0,0,0-8.961,8.69c-0.165,5.161,3.279,9.024,8.254,9.259a8.8,8.8,0,0,0,9.355-8.841A9.165,9.165,0,0,0,232.853,224.65Zm125.624-62.243a8.823,8.823,0,0,0-9.209,8.425,8.935,8.935,0,0,0,8.912,8.824,8.492,8.492,0,0,0,8.447-8.517A8.338,8.338,0,0,0,358.477,162.407ZM232.58,616.5c4.314-.022,6.84-2.647,6.862-6.967,0.023-4.4-2.634-6.577-6.755-6.913-4.6.206-7.138,2.643-7.056,6.919C225.71,613.707,228.221,616.519,232.58,616.5Zm31.075,348.441a10.909,10.909,0,0,0,11.376-10.663,11.223,11.223,0,0,0-11.073-11.662c-6.2,0-10.662,4.606-10.728,11.082C253.163,960.412,257.233,964.8,263.655,964.937Zm0.178-63.319c6.067,0.036,10.341-4.1,10.423-10.08a10.306,10.306,0,0,0-10.19-10.5A10.505,10.505,0,0,0,253.541,891.3,10.1,10.1,0,0,0,263.833,901.618ZM295.172,869.8a9.562,9.562,0,0,0,9.583-9.575,9.444,9.444,0,1,0-18.885-.237A9.465,9.465,0,0,0,295.172,869.8ZM263.931,2.413a11.49,11.49,0,0,0-11.866,11.574c-0.194,7.223,4.542,12.265,11.589,12.336,6.871,0.069,12.458-5.221,12.432-11.773A12.012,12.012,0,0,0,263.931,2.413Zm-30.695,412.33c-4.881.1-7.346,2.605-7.375,6.819s2.6,7.056,6.834,7c3.839-.052,6.457-2.5,6.626-6.612C239.5,417.56,237.1,415.25,233.236,414.743ZM233.1,477.854c-4.13-.25-6.445,1.92-6.943,5.946,0.178,4.158,2.151,6.769,6.306,6.848,4.076,0.077,6.571-2.3,6.626-6.384C239.14,480.494,236.959,478.089,233.1,477.854ZM232.44,540.3c-3.685.081-6.123,2.163-6.262,6.207-0.147,4.289,2.244,6.781,6.182,6.9a6.036,6.036,0,0,0,6.49-5.418C239,542.364,236.478,540.212,232.44,540.3Zm-0.031-188.6c-4.675.178-7.2,2.945-7.087,7.4,0.116,4.485,2.813,6.974,7.516,6.914,4.852-.061,6.705-3.036,7.317-7.543C239.246,354.437,237.171,351.513,232.409,351.7Zm93.816,294.783c3.76,0.333,5.629-1.93,6.386-5.709-0.488-2.884-1.815-5.244-5.412-5.393-3.65-.152-6.058,1.4-6.154,5.278C320.961,644.065,322.859,646.18,326.225,646.478Zm-31-484.8c-4.751.047-9.215,4.628-9.177,9.418a9.419,9.419,0,0,0,9.4,9.07,9.142,9.142,0,0,0,9.09-9.267A9.6,9.6,0,0,0,295.227,161.674Zm31.361,223.313c-3.082.593-5.3,2.143-5.2,5.306,0.1,3.425,2.339,5.162,5.734,4.982,3.278-.174,4.766-2.23,4.627-5.382C331.6,386.6,329.443,385.309,326.588,384.987Zm0.1,325.086c4.326,0.1,6.508-2.6,6.59-6.514,0.084-4.064-2.424-6.312-6.69-6.593-3.927.331-6.5,2.4-6.477,6.555C320.126,707.621,322.521,709.98,326.685,710.073Zm0.2-261.853c-3.174.291-4.97,1.652-4.854,4.764,0.112,2.993,1.924,4.759,4.713,4.684a4.476,4.476,0,0,0,4.648-4.829C331.362,449.808,329.437,448.471,326.885,448.22Zm-0.163-190.686c-4.507.33-7.187,2.878-7.17,7.551,0.016,4.441,2.63,6.768,6.889,7.106,4.242,0.338,7.413-2.838,7.439-7.131C333.906,260.8,330.718,257.241,326.722,257.534ZM326.771,194a7.956,7.956,0,0,0-8.376,8.374,7.835,7.835,0,0,0,7.9,8.243A8.314,8.314,0,1,0,326.771,194ZM326.6,773.8a7.476,7.476,0,0,0,7.576-7.789c-0.03-4.345-3.59-7.963-7.8-7.528-4.359.449-7.136,2.991-7.453,7.462C318.636,769.994,322.5,773.744,326.6,773.8Zm31.3,222.765A10.709,10.709,0,0,0,369.177,985.8a10.956,10.956,0,0,0-11.068-11.655A11.209,11.209,0,1,0,357.9,996.564ZM357.87,98.522a9.9,9.9,0,0,0-9.69,10.173,10.1,10.1,0,0,0,9.744,9.583A9.878,9.878,0,1,0,357.87,98.522ZM331.209,515.847a4.277,4.277,0,0,0-4.606-4.82,4.078,4.078,0,0,0-4.346,4.417c0.024,2.749,1.5,4.245,3.8,4.456C329.335,520.013,331.042,518.374,331.209,515.847Zm26.879,417.185a10.281,10.281,0,1,0-10.138-9.91A10.209,10.209,0,0,0,358.088,933.032Zm-0.635-64.071c4.657,0.141,9.361-4.37,9.446-9.057,0.091-5.035-3.616-8.671-8.841-8.673s-8.893,3.485-9.022,8.551A8.618,8.618,0,0,0,357.453,868.961ZM326.424,582.8c2.958,0.183,4.748-1.483,4.913-4.4s-1.37-4.641-3.672-4.837c-3.749-.151-5.44,1.384-5.622,4.321C321.858,580.861,323.505,582.622,326.424,582.8Zm0.335,254.663c5.053-.013,8.577-3.717,8.5-8.926a8.417,8.417,0,0,0-8.994-8.434A8.684,8.684,0,0,0,326.759,837.467ZM357.8,34.685c-5.88.165-11.054,5.717-10.753,11.537A10.991,10.991,0,0,0,358.272,56.55a10.707,10.707,0,0,0,10.583-11.381A10.974,10.974,0,0,0,357.8,34.685ZM326.815,321.449c-3.957-.092-6.291,2.178-6.431,6-0.143,3.9,2.409,6.332,6.092,6.429,3.658,0.1,6.19-2.027,6.419-6.4C332.687,323.934,330.808,321.541,326.815,321.449ZM289.639,610.027c0.27,3.33,2.59,5.025,6.108,5.451,3.05-.965,5.606-2.617,5.248-6.441-0.315-3.373-2.373-5.322-5.863-5.122C291.408,604.129,289.342,606.35,289.639,610.027Zm5.726-257.178c-4.049,0-5.967,2.19-6.265,6.021,0.253,3.955,2.376,6.2,6.236,6.251,3.944,0.055,6.233-2.436,6.243-6.16S299.441,352.853,295.365,352.849Zm-0.13-63.791c-4.165.308-6.9,2.459-7.031,6.993-0.125,4.267,3.034,7.717,7.176,7.435,4.221-.286,6.758-2.648,7.109-6.619C302.6,292.291,299.335,288.756,295.235,289.058Zm0.007,389.688c4.243-.157,6.5-2.73,6.578-6.582,0.077-3.661-2.119-6.143-6.092-6.341-4.246-.212-6.772,2.126-6.879,6.112C288.745,675.83,291.048,678.369,295.242,678.746Zm0.434,63.5c4.562-.373,6.924-3.033,7.086-7.555-0.435-4.6-2.789-7.284-7.466-7.212-4.594.071-7.188,2.616-7.349,7.234A7.109,7.109,0,0,0,295.676,742.243Zm-0.348,63.622a8.431,8.431,0,1,0-8.279-8.441A8.071,8.071,0,0,0,295.328,805.865Zm-0.212-580.257a7.954,7.954,0,0,0-7.913,8.3,8.114,8.114,0,1,0,16.22-.38A8,8,0,0,0,295.116,225.608Zm31.705,675.619A9.423,9.423,0,0,0,336.34,891a9.281,9.281,0,0,0-9.815-9.3,9.585,9.585,0,0,0-9.675,9.585A9.722,9.722,0,0,0,326.821,901.227Zm-31.3-485.1c-3.651-.034-5.927,1.925-5.8,5.682,0.113,3.435,2.345,5.1,5.831,5.328,3.153-.414,5.419-2.043,5.4-5.521C300.924,418.239,298.958,416.159,295.518,416.126Zm31.749-349.8A10.494,10.494,0,0,0,316.221,76.64c-0.235,5.871,4.517,11.07,10.195,11.154a11.007,11.007,0,0,0,10.876-10.035A10.84,10.84,0,0,0,327.267,66.326Zm-0.8,63.838a9.334,9.334,0,0,0-9.159,9.828c0.125,5.276,3.91,8.889,9.326,8.9,5.656,0.013,9.517-3.819,9.45-9.38A9.233,9.233,0,0,0,326.465,130.164Zm-0.852,834.56c7.256,0.138,11.808-3.917,11.84-10.549,0.031-6.463-4.5-11.013-10.906-10.94-5.635.064-10.781,5.175-10.8,10.727C315.721,959.942,320.009,964.617,325.613,964.724Zm0.7-961.916c-6.524.152-11.176,5.033-11.125,11.671,0.054,6.919,4.944,11.686,11.856,11.557A11.554,11.554,0,0,0,338.3,14.347,11.429,11.429,0,0,0,326.311,2.808ZM300.178,484.157c-0.027-3.522-1.77-4.955-4.727-5.013-3.252-.063-5.271,1.733-5.312,4.847-0.044,3.341,1.977,5.483,5.47,5.384C299.078,489.277,299.881,486.629,300.178,484.157ZM294.84,552.1c3.2-.194,5.492-1.513,5.7-4.766,0.221-3.44-1.657-5.532-5.161-5.608-3.2-.07-5.2,1.778-5.291,4.93C290,549.761,291.847,551.626,294.84,552.1Z"/>
</svg>
