<svg xmlns="http://www.w3.org/2000/svg" width="1000" height="608" viewBox="0 0 1000 608">
  <defs>
    <style>
      .cls-1 {
        fill: #a6b4bf;
        fill-rule: evenodd;
      }
    </style>
  </defs>
  <path class="cls-1" d="M952.572,410.376a98.828,98.828,0,0,0-9.908,7.7c-1.579,1.406-3.109,2.875-4.572,4.409-1.5,1.524-2.965,3.1-4.328,4.757a56.107,56.107,0,0,0-5.98,8.775c6.066-18.465,10.646-35.64,14.25-50.77l3.359-15.234c0.543-2.418,1.007-4.778,1.441-7.068-0.057.6-.134,1.188-0.169,1.795,0,0-.461,2.537-1.331,6.309-0.84,3.778-1.961,8.815-3.081,13.852l-3.462,13.77-1.146,4.538-0.481,1.709c0.888-3.051,8.8-7.852,18.207-14.388a148.432,148.432,0,0,0,14.065-11.088,80.346,80.346,0,0,0,6.378-6.383,52.145,52.145,0,0,0,5.034-6.842c11.485-18.7,18.679-44.043,20.142-65a76.289,76.289,0,0,0-12.108,6.456,138.777,138.777,0,0,0-17.709,13.322,95.53,95.53,0,0,0-8.744,8.875,79.32,79.32,0,0,0-7.617,10.227,61.133,61.133,0,0,0-5.5,11.6c-0.292.824-.547,1.665-0.795,2.508,1.471-7.572,2.434-14.206,3.371-19.676,0.516-3,.917-5.664,1.214-7.983,0.321-2.315.591-4.273,0.81-5.854,0.038-.277.073-0.528,0.108-0.782,4.067-7.137,8.77-15.121,13.159-23.443a209.066,209.066,0,0,0,9.983-21.707c2.569-7.115,4.408-13.935,4.816-19.92,0.311-5.987-.979-12.756-3.122-19.467a130.14,130.14,0,0,0-8.49-19.212A175.4,175.4,0,0,0,957.374,196a221.913,221.913,0,0,0-13.41,19.617,136.064,136.064,0,0,0-9.633,17.944c-2.79,6.19-4.775,12.381-5.065,18.022-0.387,5.63.405,12.2,1.934,19.279,1.344,7.052,3.483,14.631,5.585,22.2,2.418,8.691,4.927,17.419,6.822,25.28-0.042.271-.084,0.544-0.131,0.843-0.241,1.558-.54,3.488-0.894,5.769-0.332,2.285-.772,4.912-1.33,7.861-1.017,5.407-2.082,11.971-3.667,19.452,0.1-.915.19-1.83,0.237-2.741a46.7,46.7,0,0,0-1.178-12.542,58.893,58.893,0,0,0-3.92-11.739,80.415,80.415,0,0,0-5.9-10.566,91.9,91.9,0,0,0-13.756-16.311,66.548,66.548,0,0,0-10.319-8.272c-2.745,18.387-3.241,41.037.407,60.5a47.866,47.866,0,0,0,2.161,7.513c0.908,2.547,1.971,5.126,3.177,7.714,2.379,5.166,5.325,10.377,7.948,15.168,5.2,9.558,9.886,17.706,9.013,20.7l0.493-1.67c0.285-1.071.692-2.6,1.18-4.437,0.973-3.673,2.27-8.571,3.568-13.469l3.2-13.569c0.9-3.694,1.386-6.185,1.386-6.185,0.212-.6.378-1.2,0.562-1.8-0.476,2.31-.982,4.688-1.576,7.127q-1.681,7.072-3.551,14.94c-3.778,14.78-8.548,31.519-14.769,49.45a52.147,52.147,0,0,0,.238-10.385,55.908,55.908,0,0,0-.809-6.135c-0.424-2.033-.944-4.035-1.543-5.994a77.96,77.96,0,0,0-4.415-11.171,92.381,92.381,0,0,0-11.617-17.8,63.269,63.269,0,0,0-9.213-9.384c-5.04,17.6-8.314,39.627-7.418,59.164,0.59,9.8,4.846,21.429,8.775,31.756,2.985,8.229,5.693,15.516,5.961,19.513-4.209,9.092-8.8,18.3-13.813,27.531a52.862,52.862,0,0,0,1.166-7.1,51.683,51.683,0,0,0-.355-12.312A75.9,75.9,0,0,0,880.35,478.1c-4.779-15-13.066-26.372-16.5-29.831q-1.351,3.079-2.771,6.317-1.382,3.238-2.639,6.67c-1.6,4.61-3.329,9.262-4.743,14.094-0.728,2.4-1.331,4.882-1.992,7.306s-1.283,4.854-1.821,7.3-1,4.907-1.389,7.365c-0.43,2.429-.844,4.816-1.135,7.214a46.165,46.165,0,0,0-.246,7.626c0.052,1.333.164,2.705,0.28,4.077q0.144,2.037.383,4.126c0.629,5.559,1.683,11.326,2.69,16.727,1.288,7.745,2.479,14.733,2.341,18.942-0.55.791-1.1,1.576-1.65,2.372-5.162,6.717-10.157,13.672-15.777,20.219-0.173.216-.357,0.426-0.531,0.642,0.575-1.451,1.1-2.914,1.544-4.392a46.888,46.888,0,0,0,1.4-5.99c0.309-2.045.514-4.09,0.629-6.12a74.408,74.408,0,0,0-.307-11.883c-1.9-15.568-8.02-28.143-10.8-32.14-1.222,1.838-2.519,3.69-3.819,5.593q-1.926,2.872-3.763,5.956c-2.367,4.169-4.941,8.314-7.2,12.732-1.16,2.182-2.173,4.491-3.3,6.686s-2.17,4.452-3.158,6.722-1.908,4.568-2.752,6.881q-1.383,3.365-2.529,6.767c-2.884,9.163-3.261,21.353-3.507,32.366-0.322,7.075-.592,13.549-1.394,17.747-5.275,4.841-10.8,9.427-16.239,14.127q-2.66,2.058-5.3,4.144c0.426-.693.849-1.388,1.241-2.1a48.9,48.9,0,0,0,4.553-11.4,73.772,73.772,0,0,0,2.208-11.663,86.239,86.239,0,0,0-.724-20.974,74.947,74.947,0,0,0-1.569-7.656,42.749,42.749,0,0,0-1.621-4.948c-1.549,1.536-3.213,3.039-4.859,4.625s-3.272,3.259-4.881,5c-3.146,3.558-6.539,7.036-9.655,10.862-1.585,1.883-3.059,3.9-4.615,5.819s-3.065,3.874-4.513,5.876-2.835,4.044-4.152,6.119c-1.34,2.047-2.691,4.024-3.912,6.085a45.71,45.71,0,0,0-3.287,6.819c-0.969,2.478-1.824,5.135-2.7,7.752-1.7,5.3-3.106,10.968-4.409,16.29-0.645,2.7-1.285,5.143-1.922,7.457s-1.267,4.45-1.9,6.32c-0.26.766-.52,1.474-0.78,2.142-0.568.335-1.139,0.667-1.706,1-1.888,1.1-3.727,2.226-5.647,3.309l-5.935,3.159-5.92,3.153-2.954,1.573-1.476.786-0.436.207c0.1-.112.21-0.22,0.31-0.332a73.657,73.657,0,0,0,11.828-21.466,83.322,83.322,0,0,0,3.5-20.486c0.118-2.883.1-5.606,0-7.839a42.449,42.449,0,0,0-.515-5.171c-3.806,2.406-7.462,4.525-11.134,7.107q-2.753,1.923-5.474,4.07c-2.1,1.5-4.485,3.145-6.671,4.8q-3.339,2.5-6.562,5.156l-1.6,1.335-0.791.674-0.1.085-0.025.021-0.012.01c1.732-.915.475-0.248,0.859-0.451l-0.04.035-0.156.135-0.312.272q-1.248,1.094-2.467,2.236c-3.2,3.142-6.436,6.155-9.411,9.47a50.017,50.017,0,0,0-4.413,5.5c-0.713,1.027-1.417,2.1-2.113,3.225-0.711,1.092-1.431,2.19-2.136,3.337-1.417,2.279-2.8,4.7-4.184,7.108L657,689.94a130.887,130.887,0,0,1-8.424,12.846c-8.675,1.859-17.373,3.3-26.048,4.438a59.484,59.484,0,0,0,16.555-15.54,72.329,72.329,0,0,0,9.619-18.251,55.881,55.881,0,0,0,3.022-12.428c-1.96.415-3.878,1-5.957,1.5q-3.1.768-6.262,1.762c-2.171.593-4.37,1.247-6.57,1.98s-4.535,1.419-6.8,2.239A202.1,202.1,0,0,0,598.276,680.2c-8.93,4.709-18.3,14-25.936,22.328-3.831,4.152-7.234,8.058-10.062,11.006l-0.02.021a313.31,313.31,0,0,0-37.132,6.469,211.24,211.24,0,0,0-25.128,7.8,211.24,211.24,0,0,0-25.128-7.8,313.31,313.31,0,0,0-37.132-6.469l-0.02-.021c-2.829-2.948-6.232-6.854-10.062-11.006C420.017,694.2,410.65,684.91,401.72,680.2a202.16,202.16,0,0,0-27.864-11.716c-2.26-.82-4.6-1.5-6.8-2.239s-4.4-1.387-6.57-1.98q-3.16-.995-6.263-1.762c-2.078-.494-4-1.084-5.956-1.5a55.863,55.863,0,0,0,3.021,12.428,72.368,72.368,0,0,0,9.62,18.251,59.47,59.47,0,0,0,16.555,15.54c-8.675-1.139-17.373-2.579-26.048-4.438A130.875,130.875,0,0,1,343,689.94l-4.166-7.027c-1.385-2.406-2.767-4.829-4.184-7.108-0.7-1.147-1.425-2.245-2.136-3.337-0.7-1.12-1.4-2.2-2.114-3.225a49.9,49.9,0,0,0-4.412-5.5c-2.975-3.315-6.207-6.328-9.412-9.47q-1.218-1.143-2.466-2.236l-0.312-.272-0.157-.135L313.6,651.6c0.384,0.2-.874-0.464.859,0.451l-0.012-.01-0.025-.021-0.1-.085-0.791-.674-1.6-1.335q-3.216-2.654-6.562-5.156c-2.186-1.656-4.573-3.3-6.671-4.8q-2.718-2.145-5.474-4.07c-3.672-2.582-7.328-4.7-11.134-7.107a42.247,42.247,0,0,0-.515,5.171c-0.107,2.233-.123,4.956,0,7.839a83.275,83.275,0,0,0,3.5,20.486A73.634,73.634,0,0,0,296.9,683.752c0.1,0.112.209,0.221,0.31,0.332l-0.436-.207-1.476-.786-2.954-1.573-5.92-3.153-5.935-3.159c-1.921-1.083-3.76-2.207-5.647-3.309-0.567-.338-1.138-0.67-1.706-1-0.26-.668-0.52-1.376-0.78-2.142-0.634-1.87-1.264-4.01-1.9-6.32s-1.278-4.757-1.923-7.457c-1.3-5.322-2.708-10.99-4.408-16.29-0.877-2.617-1.732-5.274-2.7-7.752a45.809,45.809,0,0,0-3.287-6.819c-1.221-2.061-2.573-4.038-3.912-6.085q-1.975-3.113-4.152-6.119t-4.513-5.876c-1.556-1.917-3.03-3.936-4.615-5.819-3.117-3.826-6.509-7.3-9.655-10.862q-2.413-2.61-4.881-5c-1.647-1.586-3.31-3.089-4.859-4.625a42.715,42.715,0,0,0-1.622,4.948,75.493,75.493,0,0,0-1.569,7.656,86.243,86.243,0,0,0-.723,20.974,73.772,73.772,0,0,0,2.208,11.663,48.9,48.9,0,0,0,4.553,11.4c0.392,0.708.815,1.4,1.241,2.1q-2.644-2.079-5.3-4.144c-5.434-4.7-10.965-9.286-16.24-14.128-0.8-4.2-1.071-10.671-1.393-17.746-0.247-11.013-.624-23.2-3.507-32.366-0.759-2.267-1.608-4.524-2.53-6.767q-1.266-3.47-2.752-6.881t-3.157-6.722c-1.13-2.2-2.144-4.5-3.3-6.686-2.255-4.418-4.828-8.563-7.2-12.732q-1.833-3.078-3.763-5.956c-1.3-1.9-2.6-3.755-3.818-5.593-2.779,4-8.9,16.572-10.8,32.14a74.291,74.291,0,0,0-.307,11.883c0.114,2.03.32,4.075,0.628,6.12a46.892,46.892,0,0,0,1.4,5.99c0.441,1.478.969,2.941,1.543,4.392-0.173-.216-0.358-0.426-0.53-0.642-5.621-6.547-10.616-13.5-15.777-20.219-0.547-.8-1.1-1.581-1.651-2.372-0.138-4.209,1.054-11.2,2.341-18.942,1.008-5.4,2.062-11.168,2.691-16.727,0.157-1.391.287-2.768,0.382-4.126,0.117-1.372.228-2.744,0.281-4.077a46.275,46.275,0,0,0-.246-7.626c-0.291-2.4-.705-4.785-1.135-7.214q-0.581-3.687-1.39-7.365t-1.82-7.3c-0.661-2.424-1.264-4.9-1.992-7.306-1.414-4.832-3.144-9.484-4.743-14.094q-1.254-3.426-2.639-6.67l-2.771-6.317c-3.437,3.459-11.725,14.832-16.5,29.831a76.017,76.017,0,0,0-2.557,11.658,51.578,51.578,0,0,0-.355,12.312,52.7,52.7,0,0,0,1.166,7.1c-5.015-9.237-9.6-18.439-13.813-27.531,0.268-4,2.975-11.284,5.96-19.513,3.93-10.327,8.185-21.955,8.775-31.756,0.9-19.537-2.377-41.563-7.417-59.164a63.269,63.269,0,0,0-9.213,9.384,92.367,92.367,0,0,0-11.617,17.8,78.007,78.007,0,0,0-4.415,11.171c-0.6,1.959-1.119,3.961-1.543,5.994a56.127,56.127,0,0,0-.809,6.135,52.14,52.14,0,0,0,.239,10.385c-6.221-17.931-10.991-34.67-14.769-49.45q-1.868-7.859-3.552-14.94c-0.594-2.439-1.1-4.817-1.576-7.127,0.184,0.6.35,1.2,0.562,1.8,0,0,.483,2.491,1.386,6.185,0.872,3.7,2.035,8.634,3.2,13.569l3.568,13.469,1.18,4.437,0.492,1.67c-0.873-2.994,3.818-11.142,9.014-20.7,2.623-4.791,5.569-10,7.948-15.168,1.206-2.588,2.269-5.167,3.177-7.714a47.82,47.82,0,0,0,2.16-7.513c3.649-19.465,3.152-42.115.408-60.5a66.568,66.568,0,0,0-10.32,8.272,91.923,91.923,0,0,0-13.756,16.311,80.447,80.447,0,0,0-5.894,10.566,58.834,58.834,0,0,0-3.919,11.739,46.671,46.671,0,0,0-1.179,12.542c0.048,0.911.135,1.825,0.238,2.741-1.585-7.481-2.65-14.045-3.667-19.452-0.558-2.949-1-5.576-1.33-7.861-0.354-2.281-.653-4.211-0.895-5.769-0.046-.3-0.089-0.572-0.131-0.843,1.9-7.861,4.4-16.589,6.823-25.28,2.1-7.569,4.241-15.148,5.584-22.2,1.529-7.08,2.321-13.649,1.934-19.279-0.29-5.641-2.275-11.832-5.065-18.022a135.982,135.982,0,0,0-9.633-17.944A221.964,221.964,0,0,0,42.621,196a175.475,175.475,0,0,0-12.989,20.162,130.088,130.088,0,0,0-8.49,19.212c-2.143,6.711-3.433,13.48-3.122,19.467,0.408,5.985,2.246,12.8,4.816,19.92a209.068,209.068,0,0,0,9.983,21.707c4.389,8.322,9.092,16.306,13.159,23.443l0.108,0.782c0.219,1.581.49,3.539,0.81,5.854,0.3,2.319.7,4.987,1.215,7.983,0.937,5.47,1.9,12.1,3.371,19.676-0.248-.843-0.5-1.684-0.794-2.508a61.206,61.206,0,0,0-5.5-11.6,79.492,79.492,0,0,0-7.618-10.227,95.519,95.519,0,0,0-8.744-8.875,138.783,138.783,0,0,0-17.709-13.322A76.234,76.234,0,0,0-1,301.216c1.464,20.957,8.658,46.3,20.143,65a52.18,52.18,0,0,0,5.035,6.842,80.305,80.305,0,0,0,6.378,6.383,148.409,148.409,0,0,0,14.065,11.088c9.411,6.536,17.319,11.337,18.207,14.388,0,0-.175-0.622-0.481-1.709L61.2,398.67c-0.944-3.755-2.2-8.762-3.462-13.77-1.121-5.037-2.241-10.074-3.081-13.852-0.87-3.772-1.331-6.309-1.331-6.309-0.035-.608-0.112-1.2-0.169-1.8,0.434,2.29.9,4.651,1.442,7.069l3.359,15.234c3.6,15.13,8.184,32.305,14.25,50.77a56.132,56.132,0,0,0-5.98-8.775c-1.363-1.653-2.826-3.233-4.329-4.757-1.463-1.534-2.993-3-4.572-4.409a98.749,98.749,0,0,0-9.908-7.7,137.394,137.394,0,0,0-19.277-11.1,81.161,81.161,0,0,0-12.863-5,159.326,159.326,0,0,0,10.7,32.706A134.113,134.113,0,0,0,34.279,442.8c1.519,2.52,3.084,4.972,4.7,7.332,1.69,2.343,3.421,4.6,5.186,6.736,6.937,8.632,18.814,15.44,28.868,20.586,8.564,4.216,15.958,7.321,18.97,9.922,4.125,9.3,8.634,18.731,13.58,28.21a58.891,58.891,0,0,0-5.251-5.133,96.676,96.676,0,0,0-10.3-7.635,101.969,101.969,0,0,0-11.077-6.06c-14.641-7.2-29.5-10.714-34.324-11.221,0.881,2.554,1.944,5.13,3.126,7.722,1.163,2.6,2.407,5.222,3.725,7.853a140.239,140.239,0,0,0,9.07,15.56c1.685,2.529,3.353,5.05,5.2,7.46q2.795,3.607,5.718,7.017t5.933,6.544c2.055,2.068,4.2,4,6.326,5.842a53.9,53.9,0,0,0,7.06,5.072c1.275,0.774,2.572,1.522,3.928,2.221,1.379,0.687,2.785,1.341,4.205,1.963a154.434,154.434,0,0,0,17.04,6.125c8.146,2.3,15.2,3.885,19.127,5.6,0.478,0.712.958,1.418,1.435,2.132l7.792,10.655c2.557,3.611,5.363,7.06,8.154,10.544,0.269,0.348.553,0.686,0.824,1.033-1.343-.908-2.712-1.778-4.125-2.577-1.868-1.073-3.846-2.013-5.765-2.948s-3.873-1.793-5.857-2.575a104.7,104.7,0,0,0-12.07-3.886C109.692,572.51,94.355,571.66,89.5,572a83.776,83.776,0,0,0,4.567,7.126c1.652,2.372,3.389,4.757,5.2,7.134a137.642,137.642,0,0,0,12.023,13.765c2.172,2.187,4.29,4.4,6.629,6.408q3.484,3.035,7.053,5.846t7.167,5.327c2.48,1.612,4.968,3.117,7.441,4.5,9.782,5.693,23.541,7.623,34.832,8.63,7.677,0.509,14.326.634,18.635,1.288,5.28,4.994,10.8,9.761,16.255,14.61q2.946,2.375,5.874,4.779c-0.813-.289-1.627-0.572-2.452-0.827a107.2,107.2,0,0,0-12.539-2.951,105.539,105.539,0,0,0-12.64-1.267,150.188,150.188,0,0,0-22.525.435c-3.219.305-6.1,0.705-8.441,1.085a45.653,45.653,0,0,0-5.339,1.094,83.9,83.9,0,0,0,6.01,6.066q3.191,2.988,6.626,5.941a135.418,135.418,0,0,0,14.743,11c2.6,1.69,5.158,3.408,7.865,4.9s5.438,2.9,8.165,4.218,5.454,2.557,8.162,3.687c2.729,1.1,5.517,1.994,8.225,2.83a54.626,54.626,0,0,0,8.582,1.807,59.783,59.783,0,0,0,9.164.559,153.4,153.4,0,0,0,18.131-1.379c2.792-.337,5.585-0.8,8.115-1.2s4.847-.78,6.879-1.05c0.836-.112,1.612-0.2,2.35-0.272,0.423,0.259.85,0.515,1.271,0.775l5.925,3.613,5.879,3.257,5.863,3.245,2.926,1.619,1.462,0.809,0.73,0.4,0.639,0.321c-0.176-.016-0.35-0.045-0.527-0.059-8.8-1.222-16.945-.083-25.042,1.272a156.295,156.295,0,0,0-22.2,5.055c-3.192.965-5.847,1.89-8.038,2.743a45.959,45.959,0,0,0-4.985,2.214,128.993,128.993,0,0,0,15.322,9.324c2.776,1.486,5.617,2.931,8.5,4.319,2.67,1.189,5.157,2.118,7.8,3.106q3.916,1.44,7.906,2.7l1.992,0.614,1,0.3,0.125,0.037,0.031,0.009,0.015,0c1.743,0.92.494,0.258,0.888,0.465l0.075,0.021,0.3,0.086,0.6,0.171q2.4,0.677,4.79,1.282a106.972,106.972,0,0,0,18.707,3.139,51.173,51.173,0,0,0,9.314-.286c1.575-.174,3.153-0.4,4.724-0.679,1.577-.306,3.155-0.7,4.714-1.1,3.122-.827,6.178-1.777,9.116-2.844,2.948-1.133,5.777-2.334,8.436-3.524,5.875-2.657,10.918-5.365,14.8-7.162,9.254,2.133,18.451,3.788,27.481,5.128a109.657,109.657,0,0,0-22.55,9.015,205.455,205.455,0,0,0-19.664,11.744,95.041,95.041,0,0,0-11.348,8.54c2.835,0.864,5.791,1.805,8.789,2.478,3,0.695,6.079,1.338,9.207,1.921,3.1,0.493,6.244.911,9.414,1.271s6.29,0.5,9.45.657a127.267,127.267,0,0,0,35.123-3.376c10.511-2.623,21.059-10.013,30.012-16.483,4.468-3.249,8.533-6.273,11.875-8.4l0.058-.037a291.934,291.934,0,0,1,33.907,6.4c1.055,0.271,2.068.568,3.094,0.858a216.155,216.155,0,0,0-25.1,17.239l-5.646,4.492-4.926,4.3L431.97,771l-4.036,3.853q-1.943,1.848-3.72,3.536-0.9.849-1.752,1.663l-1.477,1.5-5.37,5.473c-3.919,4.01,7.756,9.7,20.635,13.21,3.219,0.877,6.514,1.617,9.659,2.16s6.176,0.81,8.658,1.251c5.031,0.691,8.384.524,8.685-1.526a32.292,32.292,0,0,1,1.43-5.8c0.688-2.139,1.515-4.544,2.613-7.089,1.156-2.455,2.537-5.124,4.184-8.012,1.718-2.777,3.774-5.668,6.147-8.765a91.633,91.633,0,0,1,20.126-18.033c0.724-.479,1.489-0.944,2.246-1.412,0.756,0.468,1.521.933,2.246,1.412a91.633,91.633,0,0,1,20.126,18.033c2.372,3.1,4.429,5.988,6.147,8.765,1.647,2.888,3.027,5.557,4.184,8.012,1.1,2.545,1.924,4.95,2.613,7.089a32.282,32.282,0,0,1,1.429,5.8c0.3,2.05,3.655,2.217,8.686,1.526,2.482-.441,5.517-0.7,8.658-1.251s6.439-1.283,9.659-2.16c12.878-3.507,24.554-9.2,20.635-13.21l-5.371-5.473-1.476-1.5-1.752-1.663q-1.78-1.692-3.72-3.536L568.025,771l-4.518-3.925-4.926-4.3-5.647-4.492a216.221,216.221,0,0,0-25.1-17.239c1.025-.29,2.039-0.587,3.093-0.858a291.912,291.912,0,0,1,33.908-6.4l0.058,0.037c3.341,2.13,7.407,5.154,11.875,8.4,8.953,6.47,19.5,13.86,30.012,16.483a127.256,127.256,0,0,0,35.122,3.376c3.16-.156,6.277-0.291,9.45-0.657s6.315-.778,9.415-1.271c3.127-.583,6.2-1.226,9.207-1.921,3-.673,5.954-1.614,8.788-2.478a94.92,94.92,0,0,0-11.347-8.54,205.356,205.356,0,0,0-19.665-11.744,109.626,109.626,0,0,0-22.549-9.015c9.03-1.34,18.227-3,27.481-5.128,3.878,1.8,8.921,4.5,14.795,7.162,2.66,1.19,5.488,2.391,8.437,3.524,2.938,1.067,5.994,2.017,9.115,2.844,1.559,0.4,3.138.8,4.715,1.1,1.571,0.275,3.148.5,4.723,0.679a51.184,51.184,0,0,0,9.315.286,106.988,106.988,0,0,0,18.707-3.139q2.385-.6,4.79-1.282l0.6-.171,0.3-.086,0.075-.021c0.394-.207-0.855.455,0.887-0.465l0.016,0,0.031-.009,0.125-.037,1-.3,1.992-.614q3.981-1.253,7.906-2.7c2.641-.988,5.129-1.917,7.8-3.106,2.883-1.388,5.724-2.833,8.5-4.319a129.074,129.074,0,0,0,15.322-9.324,45.959,45.959,0,0,0-4.985-2.214c-2.191-.853-4.847-1.778-8.038-2.743a156.326,156.326,0,0,0-22.2-5.055c-8.1-1.355-16.246-2.494-25.043-1.272-0.177.014-.35,0.043-0.527,0.059l0.639-.321,0.731-.4,1.461-.809,2.926-1.619,5.864-3.245,5.879-3.257,5.925-3.613c0.42-.26.847-0.516,1.27-0.775,0.738,0.072,1.514.16,2.351,0.272,2.031,0.27,4.343.643,6.878,1.05s5.323,0.864,8.116,1.2a153.387,153.387,0,0,0,18.131,1.379,59.791,59.791,0,0,0,9.164-.559,54.65,54.65,0,0,0,8.582-1.807c2.707-.836,5.5-1.728,8.225-2.83q4.062-1.695,8.162-3.687t8.164-4.218c2.707-1.488,5.27-3.206,7.866-4.9a135.418,135.418,0,0,0,14.743-11q3.426-2.944,6.625-5.941a83.708,83.708,0,0,0,6.011-6.066,45.7,45.7,0,0,0-5.339-1.094c-2.342-.38-5.222-0.78-8.442-1.085a150.171,150.171,0,0,0-22.524-.435,105.534,105.534,0,0,0-12.641,1.267,107.247,107.247,0,0,0-12.539,2.951c-0.825.255-1.639,0.538-2.452,0.827q2.934-2.4,5.875-4.779c5.458-4.849,10.975-9.616,16.255-14.61,4.309-.654,10.958-0.779,18.634-1.288,11.292-1.007,25.051-2.937,34.833-8.63,2.473-1.388,4.961-2.893,7.441-4.5q3.6-2.515,7.166-5.327t7.053-5.846c2.34-2.011,4.457-4.221,6.63-6.408a137.628,137.628,0,0,0,12.023-13.765c1.81-2.377,3.548-4.762,5.2-7.134A83.9,83.9,0,0,0,910.491,572c-4.85-.337-20.187.513-35.971,4.891a104.637,104.637,0,0,0-12.07,3.886q-2.976,1.173-5.857,2.575c-1.92.935-3.9,1.875-5.765,2.948-1.413.8-2.782,1.669-4.125,2.577,0.27-.347.555-0.685,0.823-1.033,2.792-3.484,5.6-6.933,8.155-10.544l7.792-10.655c0.477-.714.956-1.42,1.435-2.132,3.927-1.71,10.98-3.3,19.127-5.6a154.472,154.472,0,0,0,17.04-6.125c1.421-.622,2.827-1.276,4.206-1.963,1.355-.7,2.653-1.447,3.928-2.221a53.832,53.832,0,0,0,7.06-5.072c2.123-1.837,4.271-3.774,6.326-5.842q3.01-3.132,5.933-6.544t5.718-7.017c1.848-2.41,3.516-4.931,5.2-7.46a140.3,140.3,0,0,0,9.071-15.56c1.317-2.631,2.561-5.256,3.724-7.853,1.181-2.592,2.244-5.168,3.125-7.722-4.828.507-19.683,4.023-34.323,11.221a101.992,101.992,0,0,0-11.078,6.06,96.618,96.618,0,0,0-10.3,7.635,58.776,58.776,0,0,0-5.252,5.134c4.946-9.48,9.455-18.914,13.581-28.21,3.011-2.6,10.406-5.707,18.969-9.923,10.054-5.146,21.931-11.954,28.868-20.586,1.765-2.141,3.5-4.393,5.186-6.736,1.614-2.36,3.179-4.812,4.7-7.332a134.157,134.157,0,0,0,8.293-15.818,159.274,159.274,0,0,0,10.7-32.706,81.172,81.172,0,0,0-12.863,5A137.43,137.43,0,0,0,952.572,410.376Zm-3.536-36.048a107.341,107.341,0,0,1,6.588-14.351,50.98,50.98,0,0,1,8.194-9.865,49.866,49.866,0,0,1,8.735-7.053,36.989,36.989,0,0,1-4.931,21.652c-3.5,5.926-7.857,10.056-11.877,13.844-4.055,3.784-7.66,7.257-10.439,11.765C945.42,385.894,946.885,379.959,949.036,374.328Zm-3.5-106.6a38.76,38.76,0,0,1,5.72-17.2,32.834,32.834,0,0,1,4.833-6.285,31.823,31.823,0,0,1,4.149,6.816,36.4,36.4,0,0,1,3.236,18.1,64.115,64.115,0,0,1-2.34,12.314c-1.2,4.347-2.591,8.827-4.156,13.067-3.189,8.479-6.246,16.066-7.513,20.135,0.118-4.233-1.288-12.4-2.294-21.224-0.533-4.419-1.172-9.034-1.478-13.439A92.46,92.46,0,0,1,945.536,267.73ZM929.137,369.9c-0.536,5.8-1.541,11.709-3.708,15.48-0.168-5.074-2.171-9.733-4.161-14.64a78.4,78.4,0,0,1-5.307-16.5,34.611,34.611,0,0,1,.809-14.3,30.9,30.9,0,0,1,2.158-6.068,44.334,44.334,0,0,1,5.942,9.111,41.344,41.344,0,0,1,3.958,11.652A66.2,66.2,0,0,1,929.137,369.9ZM71.168,354.634a41.376,41.376,0,0,1,3.957-11.652,44.376,44.376,0,0,1,5.942-9.111,30.9,30.9,0,0,1,2.158,6.068,34.616,34.616,0,0,1,.809,14.3,78.451,78.451,0,0,1-5.306,16.5c-1.99,4.907-3.993,9.566-4.162,14.64-2.167-3.771-3.172-9.677-3.708-15.48A66.238,66.238,0,0,1,71.168,354.634ZM54.689,390.32c-2.778-4.508-6.383-7.981-10.439-11.765-4.02-3.788-8.375-7.918-11.877-13.844a36.994,36.994,0,0,1-4.931-21.652,49.83,49.83,0,0,1,8.735,7.053,50.989,50.989,0,0,1,8.195,9.865,107.358,107.358,0,0,1,6.588,14.351C53.11,379.959,54.576,385.894,54.689,390.32ZM43.017,294.541c-1.565-4.24-2.954-8.72-4.155-13.067a64.15,64.15,0,0,1-2.341-12.314,36.409,36.409,0,0,1,3.236-18.1,31.82,31.82,0,0,1,4.149-6.816,32.819,32.819,0,0,1,4.833,6.285,38.747,38.747,0,0,1,5.72,17.2,92.19,92.19,0,0,1-.157,12.283c-0.306,4.405-.945,9.02-1.477,13.439-1.007,8.826-2.412,16.991-2.294,21.224C49.264,310.607,46.207,303.02,43.017,294.541Zm57.915,121.672a30.443,30.443,0,0,1,2.985,5.648,37.505,37.505,0,0,1,1.932,6.215,29.807,29.807,0,0,1,.826,7.71,51.313,51.313,0,0,1-1.078,8.988c-0.552,2.809-1.17,5.43-1.813,8-1.238,5.115-2.481,9.988-1.946,15.043-2.649-3.411-4.565-9.068-5.97-14.7a59.193,59.193,0,0,1-1.45-8.286,60.579,60.579,0,0,1-.425-6.809C93.908,430.649,97.952,420.561,100.932,416.213ZM70.849,465.594c-2.272-1.592-4.682-3.243-7-5.2a53.929,53.929,0,0,1-6.8-6.891,35.789,35.789,0,0,1-4.556-7.228,38.618,38.618,0,0,1-2.337-6.782,36.116,36.116,0,0,1-1.1-6.917c5.2,2.165,14.2,8.563,19.172,14.528a67.684,67.684,0,0,1,4.119,5.8c1.465,2.3,2.973,4.881,4.491,7.506,2.993,5.264,5.381,10.914,6.111,15.31C79.58,471.652,75.443,468.758,70.849,465.594Zm58.933,38.564a42.53,42.53,0,0,1,2.925-10.328,29.894,29.894,0,0,1,3.872,5,34.046,34.046,0,0,1,2.91,5.748,29.227,29.227,0,0,1,2.128,7.374,51.038,51.038,0,0,1,.481,8.976c-0.073,2.856-.2,5.516-0.379,8.149-0.3,5.225-.664,10.239.791,15.092-3.234-2.85-6.119-8.067-8.514-13.33a56.45,56.45,0,0,1-2.877-7.874,60.192,60.192,0,0,1-1.6-6.6,32.6,32.6,0,0,1-.4-5.888A49.95,49.95,0,0,1,129.781,504.158Zm-18.157,43.42c-2.524-1.173-5.224-2.37-7.846-3.911a54.429,54.429,0,0,1-7.942-5.662,36.448,36.448,0,0,1-5.794-6.4,42.189,42.189,0,0,1-3.471-6.359,36.715,36.715,0,0,1-2.286-6.69,52.211,52.211,0,0,1,10.571,4.2c1.967,1,3.919,2.13,5.764,3.317a38.992,38.992,0,0,1,5.1,3.685,69.023,69.023,0,0,1,5.091,5.025c1.857,2.012,3.782,4.314,5.764,6.627,3.913,4.657,7.28,9.808,8.827,14C121.324,552.013,116.738,549.888,111.624,547.578Zm66.023,16.1a29.489,29.489,0,0,1,4.749,4.111,36.549,36.549,0,0,1,3.966,5.011,28.868,28.868,0,0,1,3.534,6.757,50.838,50.838,0,0,1,2.25,8.666c0.531,2.775.933,5.415,1.3,8.018,0.775,5.157,1.424,10.159,3.876,14.575-3.775-2.089-7.641-6.622-11.067-11.268-0.842-1.176-1.678-2.34-2.411-3.54s-1.394-2.41-2.008-3.562a59.753,59.753,0,0,1-2.884-6.133,32.315,32.315,0,0,1-1.566-5.672,44.163,44.163,0,0,1-.6-6.3A42.011,42.011,0,0,1,177.647,563.676ZM167.8,620.5c-2.723-.634-5.6-1.277-8.519-2.24a54.4,54.4,0,0,1-8.95-3.99,36.869,36.869,0,0,1-7-5.147,39.607,39.607,0,0,1-4.71-5.585,37.221,37.221,0,0,1-3.591-6.154,52.8,52.8,0,0,1,11.222,2.085c2.139,0.6,4.252,1.348,6.334,2.124a39.314,39.314,0,0,1,5.758,2.605,69.386,69.386,0,0,1,6.013,3.919c1.115,0.8,2.266,1.666,3.426,2.578s2.409,1.795,3.594,2.749c4.8,3.76,9.142,8.146,11.56,11.908C178.207,622.888,173.3,621.717,167.8,620.5Zm67.924,1.952a29.459,29.459,0,0,1,5.517,3,33.121,33.121,0,0,1,4.928,4.061,29.539,29.539,0,0,1,4.91,5.839c6.646,10.783,7.465,21.058,13.928,29.016-4.043-1.392-8.884-4.859-13.219-8.688a67.729,67.729,0,0,1-9.962-11.395,32.2,32.2,0,0,1-2.755-5.2,51.871,51.871,0,0,1-1.913-6.048A41.783,41.783,0,0,1,235.725,622.449Zm-15.862,55.22a36.193,36.193,0,0,1-7.95-3.528,43.448,43.448,0,0,1-5.794-4.477,37.366,37.366,0,0,1-4.839-5.25,53.183,53.183,0,0,1,11.427-.346,63.724,63.724,0,0,1,6.63.755,39.527,39.527,0,0,1,6.192,1.308,105.116,105.116,0,0,1,14.7,6.275c5.486,2.667,10.752,5.887,13.819,9.2C244,678.449,233.345,681.935,219.863,677.669Zm85.772-9.5-0.006-.031-0.012-.063,0.031,0.006,0.018,0,0.01,0,0,0h0l-0.555-.293,0.036,0.019h0l0.049,0.006,0.321,0.05c0.28,0.047.688,0.122,1.2,0.236a29.314,29.314,0,0,1,4.069,1.24,31.537,31.537,0,0,1,11.082,7.027,48.211,48.211,0,0,1,5.639,6.413c1.632,2.241,3.19,4.292,4.676,6.416,2.969,4.258,6.016,7.979,10.233,10.719a28.379,28.379,0,0,1-7.135-1.229,50.818,50.818,0,0,1-7.767-3.158,52.765,52.765,0,0,1-7.063-4.163,37.023,37.023,0,0,1-5.208-4.067,30.863,30.863,0,0,1-3.729-4.4c-0.582-.821-1.14-1.673-1.667-2.54-0.51-.9-0.987-1.829-1.428-2.747a46.809,46.809,0,0,1-2.185-5.338c-0.282-.839-0.52-1.642-0.712-2.393q-0.134-.573-0.253-1.085c-0.034-.176-0.068-0.346-0.1-0.51l-0.043-.246-0.02-.121,0-.015v0c0.23,0.121-.517-0.276.517,0.27Zm15.721,54.564a74.952,74.952,0,0,1-8.807,1.907,56.848,56.848,0,0,1-10.225.508,38.379,38.379,0,0,1-16.015-4.963,47,47,0,0,1-4.587-2.956c-0.531-.39-0.94-0.71-1.216-0.933l-0.312-.258L280.148,716l-0.522-.277,0,0,0,0-0.007-.007L279.6,715.7l-0.022-.023,0.059-.024,0.03-.012,0.008,0c1.035,0.547.289,0.151,0.521,0.272h0l0.017-.006,0.13-.048,0.268-.1,0.561-.19,1.219-.372c0.852-.245,1.779-0.482,2.763-0.708,1.966-.452,4.152-0.858,6.4-1.177,1.126-.159,2.265-0.294,3.4-0.407,1.157-.15,2.312-0.272,3.448-0.361a41.9,41.9,0,0,1,6.453-.058c1.973,0.2,4.529.416,7.319,0.809,2.8,0.375,5.808,1,8.878,1.506,3.06,0.538,6.074,1.335,8.869,2.08a33.375,33.375,0,0,1,7.32,2.79C331.88,719.712,326.872,721.374,321.356,722.732Zm61.4-32.768a34.539,34.539,0,0,1,4.615-.069,40.33,40.33,0,0,1,6.51.885,33.563,33.563,0,0,1,7.482,2.674c11.784,5.914,17.729,14.918,27.389,19.023-8.839,1.136-24.2-3.393-30.929-6.676A46.22,46.22,0,0,1,381,690.168S381.631,690.063,382.757,689.964Zm12.988,55.715a32.774,32.774,0,0,1-8.35.917,37.048,37.048,0,0,1-7.117-.755,42,42,0,0,1-4.932-1.294c-1.17-.383-1.836-0.684-1.836-0.684a52.759,52.759,0,0,1,9.481-6.213,50.769,50.769,0,0,1,11.88-4.782c7.487-1.726,23.446-3.207,31.563-.112C416.3,734.608,408.976,742.417,395.745,745.679Zm202.886-52.225a33.581,33.581,0,0,1,7.482-2.674,40.355,40.355,0,0,1,6.511-.885,34.519,34.519,0,0,1,4.614.069c1.127,0.1,1.761.2,1.761,0.2A46.227,46.227,0,0,1,602.172,705.8c-6.732,3.283-22.091,7.812-30.929,6.676C580.9,708.372,586.848,699.368,598.631,693.454Zm27.855,50.409s-0.666.3-1.836,0.684a41.972,41.972,0,0,1-4.933,1.294,37.031,37.031,0,0,1-7.117.755,32.767,32.767,0,0,1-8.349-.917c-13.232-3.262-20.551-11.071-30.689-12.923,8.117-3.1,24.076-1.614,31.563.112a50.769,50.769,0,0,1,11.88,4.782A52.832,52.832,0,0,1,626.486,743.863ZM667.8,689.2c1.486-2.124,3.044-4.175,4.677-6.416a48.14,48.14,0,0,1,5.639-6.413,31.537,31.537,0,0,1,11.082-7.027,29.314,29.314,0,0,1,4.069-1.24c0.509-.114.917-0.189,1.2-0.236l0.321-.05,0.048-.006h0l0.036-.019-0.555.293h0l0.006,0,0.01,0,0.017,0,0.031-.006-0.011.063-0.007.031v0.008c1.034-.546.286-0.149,0.517-0.27v0l0,0.015-0.02.121-0.044.246q-0.048.246-.1,0.51-0.118.511-.253,1.085c-0.191.751-.43,1.554-0.711,2.393a46.809,46.809,0,0,1-2.185,5.338c-0.442.918-.918,1.842-1.428,2.747-0.527.867-1.085,1.719-1.667,2.54a30.863,30.863,0,0,1-3.729,4.4,37.141,37.141,0,0,1-5.208,4.067,52.778,52.778,0,0,1-7.064,4.163,50.767,50.767,0,0,1-7.766,3.158,28.387,28.387,0,0,1-7.135,1.229C661.78,697.181,664.827,693.46,667.8,689.2Zm47.043,25.284c0.983,0.226,1.911.463,2.763,0.708l1.218,0.372,0.562,0.19,0.268,0.1,0.13,0.048,0.016,0.006h0a5.457,5.457,0,1,0,.522-0.272l0.007,0,0.031,0.012,0.059,0.024-0.023.023-0.012.012-0.007.007,0,0,0,0-0.522.277-0.046.039-0.313.258c-0.276.223-.684,0.543-1.216,0.933a46.841,46.841,0,0,1-4.586,2.956,38.379,38.379,0,0,1-16.015,4.963,56.865,56.865,0,0,1-10.226-.508,75,75,0,0,1-8.807-1.907c-5.515-1.358-10.523-3.02-15.894-3.064a33.335,33.335,0,0,1,7.32-2.79c2.795-.745,5.808-1.542,8.869-2.08,3.069-.509,6.08-1.131,8.877-1.506,2.791-.393,5.346-0.61,7.319-0.809a41.912,41.912,0,0,1,6.454.058c1.136,0.089,2.291.211,3.448,0.361,1.139,0.113,2.279.248,3.4,0.407C710.685,713.628,712.871,714.034,714.838,714.486Zm34.078-79.142a29.5,29.5,0,0,1,4.91-5.839,33.121,33.121,0,0,1,4.928-4.061,29.471,29.471,0,0,1,5.516-3,41.73,41.73,0,0,1-1.433,10.585,51.871,51.871,0,0,1-1.913,6.048,32.2,32.2,0,0,1-2.755,5.2,67.821,67.821,0,0,1-9.962,11.395c-4.335,3.829-9.176,7.3-13.22,8.688C741.45,656.4,742.27,646.127,748.916,635.344Zm38.373,28.724a53.171,53.171,0,0,1,11.426.346,37.313,37.313,0,0,1-4.838,5.25,43.448,43.448,0,0,1-5.794,4.477,36.193,36.193,0,0,1-7.95,3.528c-13.483,4.266-24.141.78-34.186,3.936,3.066-3.312,8.333-6.532,13.818-9.2a105.071,105.071,0,0,1,14.7-6.275,39.479,39.479,0,0,1,6.192-1.308A63.693,63.693,0,0,1,787.289,664.068Zm19.265-67.829c0.363-2.6.765-5.243,1.3-8.018a50.931,50.931,0,0,1,2.25-8.666,28.87,28.87,0,0,1,3.535-6.757,36.549,36.549,0,0,1,3.966-5.011,29.511,29.511,0,0,1,4.748-4.111,41.959,41.959,0,0,1,.866,10.663,44.163,44.163,0,0,1-.6,6.3,32.4,32.4,0,0,1-1.566,5.672,59.785,59.785,0,0,1-2.885,6.133c-0.614,1.152-1.287,2.349-2.007,3.562s-1.569,2.364-2.411,3.54c-3.427,4.646-7.292,9.179-11.068,11.268C805.129,606.4,805.778,601.4,806.554,596.239Zm40.855,5.351c2.083-.776,4.2-1.528,6.335-2.124a52.8,52.8,0,0,1,11.222-2.085,37.19,37.19,0,0,1-3.592,6.154,39.528,39.528,0,0,1-4.709,5.585,36.869,36.869,0,0,1-7,5.147,54.437,54.437,0,0,1-8.95,3.99c-2.919.963-5.8,1.606-8.519,2.24-5.5,1.22-10.406,2.391-15.136,4.852,2.417-3.762,6.756-8.148,11.56-11.908,1.185-.954,2.422-1.85,3.594-2.749s2.311-1.776,3.426-2.578a69.234,69.234,0,0,1,6.013-3.919A39.3,39.3,0,0,1,847.409,601.59Zm10.869-72.508c-0.182-2.633-.307-5.293-0.379-8.149a51.034,51.034,0,0,1,.48-8.976,29.268,29.268,0,0,1,2.129-7.374,34.046,34.046,0,0,1,2.91-5.748,29.832,29.832,0,0,1,3.872-5,42.53,42.53,0,0,1,2.925,10.328,49.95,49.95,0,0,1,.664,6.322,32.6,32.6,0,0,1-.4,5.888,59.735,59.735,0,0,1-1.6,6.6A56.441,56.441,0,0,1,866,530.844c-2.395,5.263-5.281,10.48-8.515,13.33C858.942,539.321,858.58,534.307,858.278,529.082Zm41.1-3.01c1.845-1.187,3.8-2.315,5.763-3.317a52.227,52.227,0,0,1,10.571-4.2,36.66,36.66,0,0,1-2.285,6.69,42.24,42.24,0,0,1-3.471,6.359,36.495,36.495,0,0,1-5.794,6.4,54.424,54.424,0,0,1-7.942,5.662c-2.622,1.541-5.322,2.738-7.847,3.911-5.113,2.31-9.7,4.435-13.782,7.832,1.547-4.193,4.913-9.344,8.826-14,1.983-2.313,3.907-4.615,5.764-6.627a69.22,69.22,0,0,1,5.091-5.025A38.938,38.938,0,0,1,899.376,526.072Zm-4.978-81.3a51.408,51.408,0,0,1-1.078-8.988,29.849,29.849,0,0,1,.827-7.71,37.505,37.505,0,0,1,1.932-6.215,30.481,30.481,0,0,1,2.984-5.648c2.98,4.348,7.024,14.436,6.941,21.81a60.5,60.5,0,0,1-.426,6.809,59.234,59.234,0,0,1-1.45,8.286c-1.405,5.631-3.321,11.288-5.97,14.7,0.534-5.055-.708-9.928-1.946-15.043C895.568,450.2,894.951,447.583,894.4,444.774Zm55.443-5.278a38.522,38.522,0,0,1-2.337,6.782,35.788,35.788,0,0,1-4.555,7.228,53.943,53.943,0,0,1-6.8,6.891c-2.32,1.954-4.73,3.605-7,5.2-4.594,3.164-8.731,6.058-12.1,10.134,0.731-4.4,3.119-10.046,6.111-15.31,1.518-2.625,3.026-5.209,4.491-7.506a67.662,67.662,0,0,1,4.119-5.8c4.972-5.965,13.968-12.363,19.172-14.528A36.119,36.119,0,0,1,949.841,439.5Z" transform="translate(0 -196)"/>
</svg>
