<svg xmlns="http://www.w3.org/2000/svg" width="993" height="626.969" viewBox="0 0 993 626.969">
  <defs>
    <style>
      .cls-1 {
        fill: #a6b4bf;
        fill-rule: evenodd;
      }
    </style>
  </defs>
  <path class="cls-1" d="M996.618,263.136c-0.353-3.54-.805-5.7-0.805-5.7-1.952-.192-6.492.945-12.289,3.644a81.855,81.855,0,0,0-9.47,5.23,97.963,97.963,0,0,0-10.666,7.662A104.626,104.626,0,0,0,942.733,297.3c-1.565,2.423-3.052,4.977-4.44,7.671-0.919,1.76-1.764,3.607-2.61,5.487q0.3-1.835.58-3.488c0.89-5.35,1.535-9.235,1.91-11.492,3.166-10.148,8.221-16.648,13.649-24.035,1.453-1.991,2.919-4.047,4.348-6.258a64.386,64.386,0,0,0,3.89-7.21,70.724,70.724,0,0,0,5.744-19.316,52.068,52.068,0,0,0-1.183-19.135q-0.546-2.208-1.241-4.3c-0.5-1.392-1.059-2.743-1.64-4.046a63.458,63.458,0,0,0-3.816-7.214c-5.393-8.78-11.58-13.964-13.512-13.964s-8.225,5.205-13.892,13.374a64.579,64.579,0,0,0-4.055,6.667c-0.633,1.195-1.223,2.431-1.8,3.7q-0.918,1.905-1.712,3.919a47.18,47.18,0,0,0-3.409,17.616,70.446,70.446,0,0,0,2.068,19.538,107.062,107.062,0,0,0,5.059,14.2c3.383,7.981,7.049,15.25,6.552,25.784-0.4,2.261-1.071,6.073-1.99,11.284q-0.291,1.656-.616,3.5c-0.1.451-.205,0.953-0.306,1.421a68.929,68.929,0,0,0-.67-7.6,83.084,83.084,0,0,0-1.658-8.577A71.053,71.053,0,0,0,914.743,267.8a74.475,74.475,0,0,0-8.443-9.17,71.64,71.64,0,0,0-8.368-6.459c-5.219-3.426-9.489-5.145-11.441-5.337a44.085,44.085,0,0,0-1.773,4.547c-0.482,1.419-.975,3.122-1.46,5.033a55.662,55.662,0,0,0-1.405,6.281,42.765,42.765,0,0,0,.051,14.853,33.227,33.227,0,0,0,6.742,15.511c9.438,12.013,18.612,16.445,26.007,20.5,5.743,3.2,10.25,6.229,12.309,12.961-0.393,1.82-.8,3.69-1.218,5.637-0.842,3.538-1.845,7.256-2.837,11.179q-1.511,5.88-3.164,12.322-1.887,6.333-3.928,13.178a69.283,69.283,0,0,0-4.778-30.565,66.762,66.762,0,0,0-6.4-12.709c-9.84-15.163-22.253-22.787-26.1-23.56a56.333,56.333,0,0,0-6.166,15.293c-0.27,1.109-.493,2.264-0.707,3.442-0.245,1.17-.449,2.374-0.6,3.6a38.455,38.455,0,0,0-.207,7.654A35.652,35.652,0,0,0,876.2,348.09c7.961,12.772,16.878,18.171,23.854,22.95,5.315,3.665,9.4,7.023,10.8,13.494-1.491,4.389-3.054,8.868-4.622,13.486-3.138,8.509-6.577,17.362-10.34,26.422a73.024,73.024,0,0,0,.537-13.465,72.066,72.066,0,0,0-2.414-15.733,77.093,77.093,0,0,0-5.226-13.327c-7.94-15.936-19.93-24.86-23.618-25.993a43.609,43.609,0,0,0-2.592,4.091,74.733,74.733,0,0,0-5.04,10.428,46.179,46.179,0,0,0-1.969,6.854,52.092,52.092,0,0,0-.886,7.585,32.859,32.859,0,0,0,3.6,16.446,67.341,67.341,0,0,0,10.77,15.65,121.645,121.645,0,0,0,10.533,9.6c3.192,2.751,5.9,5.337,7.621,8.681a17.407,17.407,0,0,1,1.693,5.322c-3.348,7.411-6.918,14.912-10.79,22.463q-3.966,7.674-8.291,15.4a83.3,83.3,0,0,0,1.979-12.57q0.162-2.1.209-4.131-0.021-2.07-.148-4.077a77.7,77.7,0,0,0-.873-7.741,74.741,74.741,0,0,0-3.605-13.706c-6.5-16.8-17.247-26.78-20.827-28.309a56.151,56.151,0,0,0-9,13.562,40.985,40.985,0,0,0-4.489,13.861,38.874,38.874,0,0,0-.1,8.085,32.59,32.59,0,0,0,1.93,8.567,64.554,64.554,0,0,0,9.032,16.743c1.631,2.173,3.283,4.093,4.889,5.858l4.535,4.882c4.059,4.412,7.173,8.374,7.5,14.388-7.055,11.689-14.7,23.32-22.957,34.707,0.326-.887.669-1.777,0.959-2.655q0.7-2.122,1.271-4.206c0.338-1.417.612-2.835,0.857-4.228,1.9-11.2,1.413-21.171-.974-29.949a71.612,71.612,0,0,0-9.062-20.928c-3.308-5.129-6.665-8.475-8.342-9.416l-0.939.88-2.494,2.448a55.063,55.063,0,0,0-7.1,8.889,47.765,47.765,0,0,0-3.312,6.176,36.3,36.3,0,0,0-2.624,6.976,33.741,33.741,0,0,0-.009,16.709c3.34,14.454,9.914,22.546,14.88,29.377,2.47,3.435,4.511,6.6,5.417,10.275a16,16,0,0,1,.385,4.328c-8.386,10.659-17.3,21-26.658,30.9,0.209-.451.419-0.9,0.627-1.35a82.152,82.152,0,0,0,3.15-8.139,76.9,76.9,0,0,0,2.122-7.884,50.687,50.687,0,0,0,1.114-7.625,74.642,74.642,0,0,0-.345-14.225,71.574,71.574,0,0,0-2.527-12.091,67.487,67.487,0,0,0-3.911-9.752c-2.765-5.572-5.58-9.2-7.157-10.367a41.7,41.7,0,0,0-3.75,2.867c-1.121.918-2.338,2.117-3.742,3.4a51.05,51.05,0,0,0-4.317,4.426,42.3,42.3,0,0,0-7.392,12.212,31.983,31.983,0,0,0-2.214,16.329,70.615,70.615,0,0,0,4.538,18.314,128.579,128.579,0,0,0,6.338,12.742c1.97,3.724,3.549,7.122,3.922,10.864a17.684,17.684,0,0,1-.094,4.049c-1.468,1.416-2.926,2.845-4.413,4.236-8.466,7.977-17.268,15.483-26.268,22.539a83.6,83.6,0,0,0,5.014-8.443,53.2,53.2,0,0,0,3.237-7.466,76.138,76.138,0,0,0,2.082-7.487A72.194,72.194,0,0,0,767.9,577.32a62.567,62.567,0,0,0-.978-12.416,68.407,68.407,0,0,0-2.538-10.128c-1.97-5.845-4.266-9.792-5.671-11.163a41.116,41.116,0,0,0-4.112,2.233,62.164,62.164,0,0,0-8.865,6.652,38.048,38.048,0,0,0-8.988,10.814,32.646,32.646,0,0,0-1.648,3.513,35.79,35.79,0,0,0-1.389,3.707,32.375,32.375,0,0,0-1.376,8.526,67.708,67.708,0,0,0,1.967,18.862,129.835,129.835,0,0,0,4.365,13.467c1.827,5.224,3.061,9.781,1.6,14.9-7.233,5.1-14.549,9.926-21.911,14.389-3.86,2.35-7.73,4.576-11.6,6.747a77.727,77.727,0,0,0,5.394-6.47,75.908,75.908,0,0,0,7.469-14.052,58.776,58.776,0,0,0,3.79-13.538c2.727-17.711-1.748-31.377-4.1-34.517a50.054,50.054,0,0,0-14.1,6.608c-0.888.6-1.779,1.256-2.661,1.961-0.9.674-1.828,1.341-2.717,2.094a33.993,33.993,0,0,0-5.027,5.175,35.824,35.824,0,0,0-6.641,14.908c-2.824,14.44-.329,24.6,1.272,32.917,0.976,5.273,1.471,9.76-.492,14.3-12.246,6.053-24.37,11.289-36.083,15.738a74.237,74.237,0,0,0,16.57-19.856,72.093,72.093,0,0,0,6.99-20.265,67.125,67.125,0,0,0,1.02-8.763,56.788,56.788,0,0,0-.167-7.492c-0.389-4.432-1.207-7.608-1.955-9a38.708,38.708,0,0,0-4.459.971,55.454,55.454,0,0,0-10.394,3.326c-7.693,3.756-16.493,9.246-20.538,21.191-0.966,2.921-1.8,5.443-2.407,7.968a62.827,62.827,0,0,0-1.325,7.143,80.2,80.2,0,0,0-.5,12.338c0.17,7.451.805,13.456-2.4,19.007-1.652.6-3.345,1.02-5.01,1.471l-4.946,1.332-9.59,2.585-4.639,1.25-4.6.943-8.855,1.818a77.506,77.506,0,0,0,10.86-7.827,64.658,64.658,0,0,0,8.249-9.122,67.055,67.055,0,0,0,10-18.5c4.046-12.13,3.842-21.988,2.835-24.959a39.275,39.275,0,0,0-4.588.15,86.634,86.634,0,0,0-10.747,1.809,37.168,37.168,0,0,0-12.743,5.573,44.935,44.935,0,0,0-5.965,4.961,32.426,32.426,0,0,0-5.1,6.959A69.178,69.178,0,0,0,582.451,662,84.514,84.514,0,0,0,580,673.984c-1.018,7.278-1.312,13.251-5.155,18.112l-12.514,1.794-10.6.879c-6.408.5-11.383,1.032-14.894,1.178a71.259,71.259,0,0,0,21.039-13.982,59.2,59.2,0,0,0,7.171-8.364,72.715,72.715,0,0,0,5.281-8.488c5.845-11.05,7.218-20.623,6.692-23.693a50.577,50.577,0,0,0-15.638-.611c-1.071.128-2.168,0.3-3.28,0.519l-3.276.7a29.4,29.4,0,0,0-12.664,6.3,33.458,33.458,0,0,0-2.992,2.869q-0.731.792-1.445,1.664a19.765,19.765,0,0,1-1.525,1.786c-6.557,7.132-16.655,29.562-21.119,40.652a16.053,16.053,0,0,0-29.144-.021c-4.418-11.452-14.443-33.359-21.129-40.631a19.782,19.782,0,0,1-1.526-1.786q-0.713-.873-1.445-1.664a33.585,33.585,0,0,0-2.991-2.869,29.437,29.437,0,0,0-12.665-6.3l-3.276-.7c-1.112-.22-2.209-0.39-3.28-0.518a50.572,50.572,0,0,0-15.637.611c-0.522,3.041.818,12.461,6.519,23.38a72.632,72.632,0,0,0,5.15,8.394,60.48,60.48,0,0,0,7,8.324,72.9,72.9,0,0,0,20.5,14.044l-14.863-1.234c-3.138-.281-6.594-0.5-10.343-0.9l-12.105-1.738c-3.6-4.854-3.861-10.8-4.883-18.009a83.281,83.281,0,0,0-2.464-11.868,69.2,69.2,0,0,0-5.96-14.25,32.46,32.46,0,0,0-5.1-6.959,44.808,44.808,0,0,0-5.965-4.961,37.16,37.16,0,0,0-12.743-5.573,86.6,86.6,0,0,0-10.747-1.809,39.257,39.257,0,0,0-4.587-.15c-1,2.943-1.208,12.644,2.72,24.617a56.813,56.813,0,0,0,3.887,9.045,71.329,71.329,0,0,0,5.827,9.267,69.724,69.724,0,0,0,8.017,9.105,77.161,77.161,0,0,0,10.58,7.823c-11.392-2.067-23.726-5.486-36.973-9.306-2.953-5.5-2.294-11.469-2.14-18.857a78.907,78.907,0,0,0-.53-12.217,63.1,63.1,0,0,0-1.326-7.06c-0.6-2.492-1.431-4.985-2.382-7.865-4.046-11.945-12.846-17.435-20.539-21.191a55.4,55.4,0,0,0-10.393-3.326,38.744,38.744,0,0,0-4.46-.971c-0.741,1.379-1.55,4.508-1.943,8.876a57.24,57.24,0,0,0-.186,7.389,66.667,66.667,0,0,0,.969,8.64,72.048,72.048,0,0,0,6.749,20.017,73.252,73.252,0,0,0,16.061,19.76c-11.536-4.376-23.445-9.556-35.468-15.529-1.727-4.377-1.24-8.731-.3-13.816,1.6-8.314,4.1-18.477,1.272-32.918a35.826,35.826,0,0,0-6.641-14.907,33.993,33.993,0,0,0-5.027-5.175c-0.888-.753-1.816-1.42-2.717-2.094-0.882-.705-1.773-1.358-2.661-1.961a50.007,50.007,0,0,0-14.1-6.608c-2.352,3.14-6.826,16.806-4.1,34.517a58.776,58.776,0,0,0,3.79,13.538,75.908,75.908,0,0,0,7.469,14.052c1.407,1.894,2.977,3.771,4.654,5.631-3.84-2.17-7.68-4.395-11.51-6.738-7.192-4.406-14.346-9.145-21.425-14.145-1.213-4.887,0-9.293,1.76-14.317a129.78,129.78,0,0,0,4.365-13.468,67.734,67.734,0,0,0,1.968-18.862,32.408,32.408,0,0,0-1.377-8.525,36.122,36.122,0,0,0-1.388-3.708,32.918,32.918,0,0,0-1.649-3.512,38.016,38.016,0,0,0-8.988-10.814,62.108,62.108,0,0,0-8.865-6.652,40.983,40.983,0,0,0-4.112-2.233c-1.4,1.371-3.7,5.317-5.67,11.163a68.127,68.127,0,0,0-2.538,10.128,62.629,62.629,0,0,0-.979,12.415,72.121,72.121,0,0,0,1.727,13.98,75.938,75.938,0,0,0,2.082,7.487,53.082,53.082,0,0,0,3.237,7.466,83.828,83.828,0,0,0,4.322,7.443c-8.911-7.01-17.626-14.463-26-22.393-1.365-1.284-2.7-2.6-4.051-3.907a17.725,17.725,0,0,1-.035-3.524c0.373-3.742,1.952-7.14,3.922-10.864a128.47,128.47,0,0,0,6.338-12.742,70.624,70.624,0,0,0,4.538-18.315,31.98,31.98,0,0,0-2.214-16.328,42.257,42.257,0,0,0-7.392-12.212,51.049,51.049,0,0,0-4.316-4.426c-1.4-1.286-2.622-2.485-3.743-3.4a41.466,41.466,0,0,0-3.75-2.867c-1.577,1.167-4.392,4.8-7.156,10.367a67.37,67.37,0,0,0-3.912,9.752,71.672,71.672,0,0,0-2.527,12.091,74.724,74.724,0,0,0-.345,14.225,50.691,50.691,0,0,0,1.115,7.625,76.891,76.891,0,0,0,2.121,7.884A81.918,81.918,0,0,0,200.2,572.8l0.173,0.373c-9.2-9.775-17.958-19.981-26.205-30.491a15.954,15.954,0,0,1,.385-3.762c0.906-3.677,2.947-6.84,5.418-10.275,4.965-6.831,11.539-14.923,14.879-29.377a33.729,33.729,0,0,0-.009-16.709,36.368,36.368,0,0,0-2.623-6.976,47.89,47.89,0,0,0-3.313-6.176,55.063,55.063,0,0,0-7.1-8.889c-1.051-1.032-1.9-1.868-2.494-2.449l-0.939-.879c-1.677.941-5.034,4.287-8.342,9.416a71.612,71.612,0,0,0-9.062,20.928c-2.387,8.778-2.869,18.747-.973,29.949,0.245,1.393.518,2.811,0.857,4.228q0.567,2.084,1.27,4.206c0.157,0.476.352,0.961,0.521,1.44-8.079-11.208-15.57-22.646-22.487-34.139,0.51-5.66,3.559-9.487,7.473-13.741l4.535-4.882c1.607-1.765,3.259-3.685,4.889-5.858a64.524,64.524,0,0,0,9.032-16.743,32.55,32.55,0,0,0,1.93-8.567,38.805,38.805,0,0,0-.1-8.085,41.006,41.006,0,0,0-4.488-13.861,56.17,56.17,0,0,0-9-13.562c-3.58,1.529-14.326,11.506-20.827,28.309A74.72,74.72,0,0,0,130,449.931c-0.408,2.485-.7,5.068-0.873,7.741-0.082,1.337-.134,2.7-0.148,4.077q0.049,2.034.21,4.131a82.838,82.838,0,0,0,1.716,11.34q-4.125-7.43-7.949-14.826c-3.869-7.534-7.428-15.022-10.762-22.421a17.237,17.237,0,0,1,1.586-4.713c1.717-3.344,4.428-5.93,7.62-8.682a121.606,121.606,0,0,0,10.534-9.6,67.341,67.341,0,0,0,10.769-15.65,32.859,32.859,0,0,0,3.6-16.446,52.122,52.122,0,0,0-.886-7.586,46.2,46.2,0,0,0-1.969-6.853,74.742,74.742,0,0,0-5.039-10.428,43.462,43.462,0,0,0-2.593-4.091c-3.688,1.133-15.678,10.057-23.618,25.993a77.093,77.093,0,0,0-5.226,13.327,72.067,72.067,0,0,0-2.413,15.733,74.673,74.673,0,0,0,.375,12.154c-3.612-8.762-6.919-17.324-9.954-25.56-1.6-4.686-3.181-9.234-4.688-13.686,1.529-6.047,5.511-9.306,10.644-12.845,6.977-4.779,15.892-10.178,23.855-22.95A35.65,35.65,0,0,0,130.13,332a38.532,38.532,0,0,0-.206-7.654c-0.154-1.23-.358-2.434-0.6-3.6-0.214-1.178-.437-2.333-0.707-3.442a56.314,56.314,0,0,0-6.165-15.293c-3.846.773-16.259,8.4-26.1,23.56a66.769,66.769,0,0,0-6.4,12.709,78.932,78.932,0,0,0-4.185,15.465,77.119,77.119,0,0,0-.677,13.56c-1.223-4.111-2.411-8.107-3.551-11.938L78.39,343.087c-0.986-3.909-1.993-7.611-2.822-11.138l-1.323-6.129c2.151-6.25,6.551-9.171,12.093-12.255,7.4-4.06,16.57-8.492,26.008-20.5a33.235,33.235,0,0,0,6.741-15.511,42.765,42.765,0,0,0,.051-14.853,55.82,55.82,0,0,0-1.4-6.28c-0.486-1.912-.978-3.615-1.461-5.034a44.254,44.254,0,0,0-1.772-4.547c-1.952.192-6.223,1.911-11.442,5.337a71.706,71.706,0,0,0-8.368,6.459,74.471,74.471,0,0,0-8.444,9.17,71.063,71.063,0,0,0-13.24,27.023A82.978,82.978,0,0,0,71.35,303.4c-0.268,1.991-.5,4.046-0.615,6.139-0.006-.026-0.012-0.055-0.018-0.082q-0.324-1.833-.614-3.485c-0.973-5.517-1.67-9.472-2.056-11.657-0.4-10.361,3.092-17.958,6.363-26.034,0.9-2.2,1.795-4.441,2.62-6.792,0.853-2.355,1.742-4.833,2.445-7.488a69.229,69.229,0,0,0,2.27-18.745,45.671,45.671,0,0,0-3.258-17.6c-0.522-1.341-1.094-2.648-1.7-3.917-0.575-1.271-1.166-2.506-1.8-3.7a63.28,63.28,0,0,0-4.077-6.662C65.193,195.209,58.81,190,56.879,190s-8.029,5.176-13.378,13.946a64.4,64.4,0,0,0-3.793,7.208c-0.579,1.3-1.142,2.651-1.639,4.043-0.461,1.39-.881,2.823-1.248,4.295a53.589,53.589,0,0,0-1.332,19.144,72.367,72.367,0,0,0,5.7,20.166,65.57,65.57,0,0,0,8.271,13.357c5.5,7.242,10.637,13.352,13.789,23.677L65.09,306.95l0.587,3.531c0.094,0.462.2,0.975,0.3,1.453-1.078-2.4-2.117-4.747-3.276-6.965q-2.083-4.041-4.441-7.671A104.624,104.624,0,0,0,37.6,273.969a97.953,97.953,0,0,0-10.666-7.662,81.855,81.855,0,0,0-9.47-5.23c-5.8-2.7-10.337-3.836-12.289-3.644,0,0-.453,2.163-0.806,5.7C4.2,264.9,4.033,267.022,4,269.377c0.023,2.351.149,4.944,0.443,7.675a59.972,59.972,0,0,0,4.292,17.156,38.367,38.367,0,0,0,11.921,15c12.984,9.632,23.573,10.121,31.977,11.189,6.585,0.8,11.958,1.874,16.557,7.189l1.172,5.7c0.814,3.575,1.788,7.333,2.749,11.3q1.466,5.945,3.07,12.459l3.827,13.317a99.983,99.983,0,0,0-8.678-12.707A91.378,91.378,0,0,0,60.225,345.6a115.436,115.436,0,0,0-11.694-9.179c-15.259-10.536-30.039-14.14-33.884-13.367a78.366,78.366,0,0,0,1.2,19.638c0.258,1.353.542,2.739,0.91,4.135,0.4,1.39.851,2.8,1.361,4.2a54.222,54.222,0,0,0,3.817,8.339c3.121,5.4,7.19,10.384,13.205,13.839,14.14,8.269,24.493,7.764,32.942,8,6.365,0.159,11.71.654,16.788,5.079,1.459,4.438,2.989,8.968,4.526,13.639,3.16,8.837,6.638,18.046,10.461,27.478A111.91,111.91,0,0,0,90.6,416.36a101.861,101.861,0,0,0-12.461-10.806,95.265,95.265,0,0,0-12.426-8.014c-16.588-8.869-31.267-11.126-35.078-9.954,0,0-.028,2.223.308,5.787a67.011,67.011,0,0,0,2.868,13.709,68.487,68.487,0,0,0,3.081,8.114,43.1,43.1,0,0,0,4.573,7.973,38.806,38.806,0,0,0,14.676,12.453A51.371,51.371,0,0,0,75.36,440.7a92.441,92.441,0,0,0,14.442-.544c4.228-.352,7.988-0.509,11.6.551a17.725,17.725,0,0,1,5.112,2.464c3.3,7.5,6.829,15.1,10.661,22.755q3.921,7.776,8.207,15.615a92.7,92.7,0,0,0-9.472-8.768q-1.7-1.362-3.419-2.616-1.65-1.29-3.316-2.478c-2.222-1.584-4.467-3.033-6.716-4.359a98.583,98.583,0,0,0-13.4-6.576c-17.152-7.2-32.269-7.836-35.9-6.282a77.859,77.859,0,0,0,5.189,19.192,61.7,61.7,0,0,0,9.55,15.214,37.466,37.466,0,0,0,7.053,6.4,36.615,36.615,0,0,0,8.936,4.462,53.251,53.251,0,0,0,19.636,2.977,61.04,61.04,0,0,0,7.59-.835c2.374-.411,4.576-0.891,6.667-1.309,5.986-1.206,11.075-1.874,16.574.768,7.065,11.968,14.742,23.893,23.054,35.583-0.818-.647-1.635-1.3-2.461-1.912q-1.843-1.362-3.708-2.6c-1.2-.856-2.389-1.688-3.593-2.474-9.553-6.326-19.7-10.151-28.531-12.83a94.153,94.153,0,0,0-23.778-3.731c-6.532-.112-11.028.583-12.772,1.562l0.361,1.538a39.241,39.241,0,0,0,1.29,4.083,84.615,84.615,0,0,0,5.915,12.923,65.766,65.766,0,0,0,4.81,7.37,56.3,56.3,0,0,0,6.469,6.781,38.014,38.014,0,0,0,17.155,9.037c16.282,3.245,25.866-.731,33.917-3.343,4.012-1.325,7.615-2.353,11.353-2.158a18.728,18.728,0,0,1,4.721.8c8.516,11.032,17.586,21.753,27.144,32.019l-1.928-1.173q-3.911-2.31-7.845-4.137t-7.844-3.245c-2.6-.95-5.234-1.731-7.68-2.528a98.827,98.827,0,0,0-14.507-3.284,102.533,102.533,0,0,0-13.2-1.106,88.888,88.888,0,0,0-10.887.311c-6.4.607-10.9,1.92-12.48,3.086,0,0,.754,2.139,2.326,5.443a59.832,59.832,0,0,0,3.022,5.679c1.29,2.053,2.8,4.268,4.534,6.516a59.255,59.255,0,0,0,13.037,12.781,39.755,39.755,0,0,0,18.429,6.722,50.028,50.028,0,0,0,19.915-2.053,89.038,89.038,0,0,0,13.289-5.745c3.811-1.87,7.254-3.391,11.007-3.731a16.723,16.723,0,0,1,4.109.126c1.469,1.444,2.927,2.9,4.415,4.32,8.417,8.085,17.176,15.715,26.145,22.908a90.565,90.565,0,0,0-8.987-3.106c-2.77-.836-5.629-1.4-8.255-2.071-2.658-.634-5.289-1.137-7.88-1.528a102.7,102.7,0,0,0-14.97-1.129,129.809,129.809,0,0,0-13.141.584,86.769,86.769,0,0,0-10.812,1.8c-6.3,1.483-10.621,3.395-12.025,4.765,0,0,1.073,2.014,3.141,5.07a75.446,75.446,0,0,0,9.16,11.235,64.735,64.735,0,0,0,14.948,10.846,46.71,46.71,0,0,0,4.419,1.977,38.56,38.56,0,0,0,14.893,2.125,51.76,51.76,0,0,0,19.362-4.771,88.89,88.89,0,0,0,12.356-7.688c4.556-3.161,8.607-5.623,13.865-5.878,7.388,5.326,14.871,10.364,22.409,15.034,3.965,2.467,7.943,4.806,11.922,7.085-2.972-.617-5.9-1.079-8.792-1.411a95.448,95.448,0,0,0-16.455-1.2,144.577,144.577,0,0,0-14.991,1.133c-18.57,2.352-32.349,9.309-34.7,12.448a84.132,84.132,0,0,0,14.845,14.269c1.154,0.868,2.363,1.73,3.622,2.569,1.281,0.809,2.653,1.541,4.047,2.263a58.668,58.668,0,0,0,8.874,3.687c6.209,1.956,12.83,2.888,19.752,1.218,16.319-3.759,23.266-11.437,29.429-17.205,3.909-3.714,7.489-6.784,12.549-7.979,12.432,6.287,24.755,11.746,36.674,16.4a99.056,99.056,0,0,0-26.97,1.962,103.6,103.6,0,0,0-21.856,6.347c-3.172,1.31-6.081,2.695-8.683,4.08s-4.83,2.646-6.754,3.921c-3.83,2.512-6.274,4.78-7.022,6.172,0,0,1.63,1.656,4.527,4.044a81.6,81.6,0,0,0,12.438,7.788c10.192,5.557,24.539,8.842,37.421,3.98a49.029,49.029,0,0,0,8.275-4.083,50.877,50.877,0,0,0,6.331-4.531,58.843,58.843,0,0,0,8.671-9.21c4.609-5.937,7.755-11.085,13.612-13.545,1.69,0.633,3.421,1.077,5.122,1.557l5.059,1.415,9.812,2.743,4.749,1.323,4.705,1.014,9.063,1.95A95.794,95.794,0,0,0,389.629,701a120.807,120.807,0,0,0-12.263,3.667,114.15,114.15,0,0,0-20.344,9.971c-11.44,6.846-18.593,14.333-19.6,17.3,0,0,1.888,1.338,5.152,3.173a62.926,62.926,0,0,0,13.445,5.875,65.573,65.573,0,0,0,18.379,2.975,34.92,34.92,0,0,0,9.759-1.3,37.005,37.005,0,0,0,9.372-3.915,53.172,53.172,0,0,0,12.888-10.459,55.613,55.613,0,0,0,7.092-10.386c3.62-6.591,5.9-12.184,11.13-15.7l12.821,1.95,10.991,1.013c6.624,0.575,11.859,1.155,15.4,1.328a104.061,104.061,0,0,0-24.4,10.15c-3.646,2.138-6.913,4.1-9.956,6.225a101.631,101.631,0,0,0-8.352,6.469c-10.1,8.689-15.888,17.2-16.414,20.272a83.554,83.554,0,0,0,19.66,5.838c1.419,0.24,2.883.449,4.382,0.615l2.27,0.216c0.784,0.045,1.621.043,2.438,0.046a62.924,62.924,0,0,0,10.02-.786,46.86,46.86,0,0,0,9.823-2.67,37.7,37.7,0,0,0,4.608-2.2q1.114-.631,2.187-1.346a10.837,10.837,0,0,0,1.978-1.563c7-6.784,18.479-28.819,23.531-39.564a16.108,16.108,0,0,0,4.058,5.759c-0.236.584-.48,1.187-0.733,1.815-0.463,1.161-.955,2.4-1.475,3.7-0.477,1.3-1.286,2.67-1.955,4.091q-1.054,2.129-2.2,4.427l-2.719,4.553c-1.749,3.171-4.107,6.233-6.353,9.465-1.113,1.624-2.5,3.113-3.755,4.7-1.294,1.564-2.538,3.187-4.013,4.656l-4.274,4.54c-1.5,1.454-3.064,2.856-4.585,4.285-0.772.7-1.51,1.439-2.305,2.113l-2.426,1.967c-1.633,1.282-3.16,2.667-4.833,3.84l-4.938,3.5a26.745,26.745,0,0,1-2.477,1.617l-2.483,1.515c-3.214,2.118-6.574,3.642-9.622,5.286-1.555.758-3.118,1.352-4.59,2.007a42.076,42.076,0,0,1-4.3,1.717,73.106,73.106,0,0,1-7.58,2.353l-3.151.768-1.391.343-1.266.171-4.986.724,5.069,28.877,7.022-2.017,1.751-.517,1.837-.712,4.112-1.622a99.818,99.818,0,0,0,9.442-4.43c1.73-.8,3.364-1.868,5.1-2.894,1.719-1.056,3.541-2.079,5.309-3.261,3.451-2.477,7.206-4.908,10.672-7.9q1.326-1.086,2.675-2.189c0.9-.725,1.8-1.47,2.64-2.289l5.174-4.843c1.737-1.622,3.3-3.448,4.963-5.175l2.455-2.628c0.8-.894,1.539-1.848,2.309-2.768,1.516-1.863,3.06-3.693,4.527-5.569l4.136-5.787c1.413-1.872,2.59-3.9,3.8-5.856,1.175-1.984,2.464-3.843,3.481-5.842,2.052-3.983,4.164-7.722,5.664-11.549,0.8-1.882,1.6-3.694,2.321-5.469q0.927-2.731,1.787-5.27c0.54-1.712,1.175-3.238,1.556-4.885q0.6-2.429,1.14-4.6c0.063-.263.122-0.506,0.184-0.762,0.026,0,.051,0,0.078,0s0.051,0,.077,0l0.185,0.762q0.537,2.164,1.139,4.6c0.381,1.647,1.017,3.173,1.556,4.885q0.86,2.534,1.787,5.27c0.719,1.775,1.521,3.587,2.321,5.469,1.5,3.827,3.612,7.566,5.664,11.549,1.017,2,2.306,3.858,3.481,5.842,1.214,1.955,2.392,3.984,3.8,5.856l4.137,5.787c1.466,1.876,3.01,3.706,4.526,5.569,0.77,0.92,1.509,1.874,2.309,2.768l2.455,2.628c1.661,1.727,3.226,3.553,4.963,5.175l5.174,4.843c0.84,0.819,1.736,1.564,2.64,2.289l2.676,2.189c3.465,3,7.22,5.427,10.672,7.9,1.768,1.182,3.59,2.205,5.308,3.261,1.741,1.026,3.376,2.093,5.106,2.894a99.7,99.7,0,0,0,9.442,4.43l4.111,1.622,1.838,0.712,1.751,0.517,7.022,2.017,5.068-28.877-4.986-.724-1.266-.171-1.391-.343-3.151-.768a73.094,73.094,0,0,1-7.579-2.353,41.894,41.894,0,0,1-4.3-1.717c-1.473-.655-3.036-1.249-4.59-2.007-3.049-1.644-6.409-3.168-9.623-5.286l-2.482-1.515a26.76,26.76,0,0,1-2.478-1.617l-4.937-3.5c-1.674-1.173-3.2-2.558-4.833-3.84l-2.427-1.967c-0.8-.674-1.532-1.41-2.305-2.113-1.52-1.429-3.085-2.831-4.585-4.285l-4.273-4.54c-1.475-1.469-2.719-3.092-4.014-4.656-1.254-1.591-2.642-3.08-3.755-4.7-2.246-3.232-4.6-6.294-6.352-9.465q-1.4-2.343-2.72-4.553l-2.2-4.427c-0.669-1.421-1.478-2.8-1.955-4.091l-1.474-3.7L511.3,713.95a16.1,16.1,0,0,0,4.05-5.74c5.03,11.123,16.4,32.628,23.537,39.545a10.844,10.844,0,0,0,1.979,1.563q1.073,0.716,2.188,1.346a37.682,37.682,0,0,0,4.607,2.2,46.852,46.852,0,0,0,9.824,2.67,62.9,62.9,0,0,0,10.019.786c0.817,0,1.654,0,2.438-.046l2.271-.216c1.5-.166,2.962-0.375,4.381-0.615a83.553,83.553,0,0,0,19.661-5.838c-0.523-3.041-6.2-11.423-16.12-20.028a102,102,0,0,0-8.205-6.416c-3-2.134-6.18-4.035-9.768-6.173a100.668,100.668,0,0,0-23.993-10.173l15.449-1.394c3.259-.318,6.862-0.588,10.74-1.034l12.422-1.894c5,3.58,7.244,9.152,10.852,15.679a50.409,50.409,0,0,0,19.827,20.571,36.975,36.975,0,0,0,9.372,3.915,34.871,34.871,0,0,0,9.758,1.3,65.573,65.573,0,0,0,18.379-2.975,62.9,62.9,0,0,0,13.445-5.875c3.264-1.835,5.152-3.173,5.152-3.173-1-2.943-8.025-10.318-19.278-17.111-2.792-1.638-5.932-3.538-9.272-5.207a104.88,104.88,0,0,0-10.74-4.718,106.836,106.836,0,0,0-12.058-3.672,96.285,96.285,0,0,0-13.469-2.765c11.68-2.238,24.331-5.86,37.9-9.92,5.636,2.569,8.742,7.7,13.333,13.577a58.025,58.025,0,0,0,8.633,9.091,51.188,51.188,0,0,0,6.28,4.464,48.84,48.84,0,0,0,8.177,4.022c12.881,4.862,27.228,1.577,37.42-3.98a81.521,81.521,0,0,0,12.438-7.788c2.9-2.388,4.528-4.044,4.528-4.044-0.741-1.379-3.147-3.617-6.917-6.1-1.891-1.257-4.088-2.512-6.643-3.873s-5.425-2.744-8.548-4.048a103.884,103.884,0,0,0-21.531-6.371,100.56,100.56,0,0,0-26.569-2.136c11.769-4.589,23.9-10,36.138-16.222,4.779,1.281,8.238,4.267,12.007,7.848,6.164,5.768,13.111,13.446,29.43,17.205,6.921,1.67,13.543.738,19.751-1.218a58.668,58.668,0,0,0,8.874-3.687c1.394-.722,2.766-1.454,4.047-2.263,1.259-.839,2.468-1.7,3.622-2.569a84.088,84.088,0,0,0,14.845-14.269c-2.352-3.139-16.13-10.095-34.7-12.448a144.9,144.9,0,0,0-14.992-1.133,95.441,95.441,0,0,0-16.455,1.2c-2.558.294-5.157,0.71-7.782,1.226,3.989-2.3,7.976-4.661,11.951-7.146,7.359-4.607,14.671-9.553,21.9-14.767,5.006,0.388,8.932,2.8,13.336,5.857a88.89,88.89,0,0,0,12.356,7.688,51.746,51.746,0,0,0,19.362,4.771,38.573,38.573,0,0,0,14.894-2.125,46.806,46.806,0,0,0,4.418-1.977A64.714,64.714,0,0,0,825.2,636.482a75.383,75.383,0,0,0,9.16-11.235c2.069-3.056,3.142-5.07,3.142-5.07-1.405-1.37-5.722-3.282-12.026-4.765a86.769,86.769,0,0,0-10.812-1.8,129.8,129.8,0,0,0-13.141-.584,102.672,102.672,0,0,0-14.969,1.129c-2.592.391-5.222,0.894-7.88,1.528-2.627.669-5.486,1.235-8.255,2.071-2.618.745-5.243,1.645-7.882,2.669,8.909-7.166,17.608-14.766,25.956-22.826,1.384-1.328,2.74-2.691,4.107-4.039a16.575,16.575,0,0,1,3.5-.052c3.753,0.34,7.2,1.861,11.007,3.731a89.053,89.053,0,0,0,13.29,5.745,50.02,50.02,0,0,0,19.914,2.053,39.744,39.744,0,0,0,18.429-6.722,59.26,59.26,0,0,0,13.038-12.781c1.732-2.248,3.243-4.463,4.534-6.516a59.681,59.681,0,0,0,3.021-5.679c1.573-3.3,2.326-5.442,2.326-5.442-1.577-1.167-6.085-2.48-12.48-3.087a88.687,88.687,0,0,0-10.886-.31,102.524,102.524,0,0,0-13.2,1.105,98.827,98.827,0,0,0-14.507,3.284c-2.446.8-5.081,1.578-7.68,2.529s-5.225,2.02-7.844,3.244-5.237,2.6-7.844,4.137l-0.769.467c9.35-10.105,18.23-20.645,26.574-31.481a18.576,18.576,0,0,1,4.132-.628c3.737-.2,7.34.833,11.353,2.159,8.05,2.611,17.634,6.587,33.916,3.342a38,38,0,0,0,17.155-9.037,56.267,56.267,0,0,0,6.469-6.781,65.787,65.787,0,0,0,4.811-7.37,84.779,84.779,0,0,0,5.915-12.923,39.363,39.363,0,0,0,1.289-4.083l0.361-1.538c-1.743-.979-6.239-1.674-12.772-1.562a94.153,94.153,0,0,0-23.778,3.731c-8.828,2.679-18.977,6.5-28.531,12.83-1.2.786-2.39,1.618-3.592,2.474q-1.865,1.244-3.709,2.6c-0.5.368-.989,0.772-1.485,1.154,8.16-11.541,15.7-23.3,22.652-35.1,5.282-2.33,10.223-1.654,16-.49,2.091,0.418,4.294.9,6.667,1.309a61.056,61.056,0,0,0,7.591.835,53.25,53.25,0,0,0,19.635-2.977,36.619,36.619,0,0,0,8.936-4.462,37.471,37.471,0,0,0,7.053-6.4,61.732,61.732,0,0,0,9.551-15.213,77.866,77.866,0,0,0,5.188-19.193c-3.635-1.554-18.75-.916-35.9,6.282a98.6,98.6,0,0,0-13.4,6.576q-3.374,1.989-6.716,4.359-1.668,1.188-3.316,2.478-1.719,1.255-3.418,2.616a92.921,92.921,0,0,0-8.585,7.859q4.091-7.542,7.876-15.042c3.84-7.662,7.367-15.271,10.665-22.784a17.607,17.607,0,0,1,4.551-2.1c3.617-1.059,7.377-.9,11.605-0.551a92.448,92.448,0,0,0,14.442.544,51.368,51.368,0,0,0,19.217-5.081,38.82,38.82,0,0,0,14.676-12.453A43.061,43.061,0,0,0,964.1,415.2a68.444,68.444,0,0,0,3.082-8.114,67.018,67.018,0,0,0,2.868-13.709c0.336-3.564.308-5.787,0.308-5.787-3.811-1.172-18.491,1.085-35.079,9.955a95.219,95.219,0,0,0-12.426,8.013,101.917,101.917,0,0,0-12.461,10.806,107.524,107.524,0,0,0-8.408,9.917c3.667-9.118,7.011-18.021,10.065-26.57,1.566-4.746,3.12-9.35,4.6-13.857,4.923-4.02,10.12-4.493,16.269-4.647,8.448-.236,18.8.269,32.941-8,6.015-3.455,10.085-8.439,13.206-13.84a54.232,54.232,0,0,0,3.816-8.338c0.51-1.407.962-2.813,1.361-4.2,0.368-1.4.653-2.782,0.91-4.135a78.379,78.379,0,0,0,1.2-19.638c-3.846-.773-18.626,2.83-33.884,13.367a115.28,115.28,0,0,0-11.7,9.18,91.313,91.313,0,0,0-11.108,12.057,101.332,101.332,0,0,0-7.919,11.364c1.194-4.163,2.354-8.209,3.466-12.089q1.6-6.49,3.063-12.426c0.957-3.957,1.935-7.7,2.737-11.271l1.276-6.2c4.491-4.848,9.72-5.862,16.075-6.632,8.4-1.068,18.994-1.557,31.977-11.189a38.371,38.371,0,0,0,11.922-15,60,60,0,0,0,4.292-17.156c0.293-2.731.42-5.324,0.443-7.675C996.959,267.022,996.789,264.9,996.618,263.136Z" transform="translate(-4 -190)"/>
</svg>
