<svg xmlns="http://www.w3.org/2000/svg" width="920.75" height="509.407" viewBox="0 0 920.75 509.407">
  <defs>
    <style>
      .cls-1 {
        fill: #a6b4bf;
        fill-rule: evenodd;
      }
    </style>
  </defs>
  <path class="cls-1" d="M935.2,384.63a135.436,135.436,0,0,0-13.279,10.8c-4.228,3.869-8.023,8.046-11.937,12.377a137,137,0,0,0-10.661,13.752,166.263,166.263,0,0,0-9.38,14.977c-1.439,2.6-2.723,5.27-4.062,7.955q-0.937,1.839-1.818,3.713c0.674-2,1.364-4.025,2.011-6q3.15-10.582,6.117-20.545l5.016-19.368c1.268-5.153,2.324-10.154,3.384-14.956A56.012,56.012,0,0,0,921.4,379.4a66.127,66.127,0,0,0,17.088-16,73.724,73.724,0,0,0,10.875-22.131,77.268,77.268,0,0,0,2.708-25.871,76.652,76.652,0,0,0-18.934,11.811,81.1,81.1,0,0,0-8.023,7.8,89.831,89.831,0,0,0-7.237,8.822,106.417,106.417,0,0,0-11.162,20.325,91.307,91.307,0,0,0-3.218,9.26c0.334-1.8.659-3.582,0.98-5.31,0.912-5.116,1.9-9.879,2.57-14.322s1.271-8.524,1.821-12.209c0.525-3.687,1.094-6.964,1.411-9.839,0.288-2.513.535-4.676,0.744-6.509a58.2,58.2,0,0,0,10.841-15.6,67.883,67.883,0,0,0,5.83-22.5,71.157,71.157,0,0,0-2.564-23.737,69.614,69.614,0,0,0-11.253-21.865,74.116,74.116,0,0,0-11.983,21.13,70.841,70.841,0,0,0-4.807,22.46,67.211,67.211,0,0,0,2.127,22.268,66.227,66.227,0,0,0,7.049,17.266c-0.225,1.815-.49,3.954-0.8,6.44-0.342,2.849-.939,6.1-1.5,9.752-0.58,3.651-1.224,7.695-1.924,12.1s-1.735,9.118-2.688,14.184c-0.315,1.605-.633,3.255-0.958,4.925a88.679,88.679,0,0,0,.313-9.372,73.248,73.248,0,0,0-8.374-32.4,69.3,69.3,0,0,0-6.013-9.075,63.692,63.692,0,0,0-15.808-14.417,65.841,65.841,0,0,0-3.246,22.692,67.811,67.811,0,0,0,3.969,21.817,68.893,68.893,0,0,0,10.339,19.582,67.436,67.436,0,0,0,15.738,15.271c-1.1,4.751-2.191,9.7-3.5,14.794q-2.48,9.2-5.158,19.142-3.03,9.821-6.257,20.285c-0.632,1.874-1.308,3.788-1.966,5.684,0.278-1.246.546-2.493,0.786-3.738,0.534-2.91.83-5.858,1.1-8.766a107.132,107.132,0,0,0,.227-17.244,114.628,114.628,0,0,0-2.641-16.6,87.261,87.261,0,0,0-5.3-15.541,95.1,95.1,0,0,0-7.665-14.105,92.608,92.608,0,0,0-22.272-22.946,104.8,104.8,0,0,0-4.5,64.5,103.441,103.441,0,0,0,4.97,15.558,119.364,119.364,0,0,0,7.105,14.842,108.713,108.713,0,0,0,9.44,13.878,105.365,105.365,0,0,0,10.927,11.819c-2.021,5.167-4.068,10.379-6.216,15.657-4.424,10.511-9.323,21.137-14.649,31.743,0.348-1.2.679-2.4,0.984-3.6a82.586,82.586,0,0,0,1.985-11.3,78.276,78.276,0,0,0-.039-11.258,71.036,71.036,0,0,0-1.656-10.8,60.66,60.66,0,0,0-3.515-10.244,62.8,62.8,0,0,0-11.755-17.805,61.718,61.718,0,0,0-5.343,10.212c-0.047.116-.086,0.234-0.133,0.35-0.007.018-.016,0.036-0.024,0.054q-1.069,2.62-1.883,5.3c-0.531,1.792-1.12,3.53-1.549,5.323a62.2,62.2,0,0,0-1.707,10.86c-0.129,1.829-.165,3.675-0.152,5.511q-0.053,2.712.125,5.437a73.173,73.173,0,0,0,4.855,21.472,67.358,67.358,0,0,0,10.42,18.246c-7.173,12.984-14.973,25.829-23.461,38.259-2.159,3.406-4.639,6.587-7.011,9.842,1.094-2.129,2.14-4.269,3.1-6.421,4.336-10.867,7.1-21.877,7.421-32.961a86.313,86.313,0,0,0-19.834-59.507c-1.02,1.3-1.979,2.622-2.905,3.956-12.5,17.2-18.5,36.452-19.765,56.522-0.152,2.64-.089,5.406-0.123,8.021q-0.009,3.96.294,7.993a120.943,120.943,0,0,0,2.393,16.259,112.775,112.775,0,0,0,10.67,30.112l-1.323,1.623-4.237,4.69-8.425,9.332c-2.884,3.014-5.881,5.892-8.792,8.823-2.911,3.043-5.965,5.9-9.05,8.679a68.493,68.493,0,0,0,9.558-20.023,52.94,52.94,0,0,0,1.973-10.718,63.908,63.908,0,0,0,.1-10.673A57.459,57.459,0,0,0,765.41,576.2c-5.771,4.94-10.873,10.11-14.615,16.224a94.886,94.886,0,0,0-5.106,9.3,63.717,63.717,0,0,0-3.594,10.074,73.521,73.521,0,0,0-3.026,21.4c0.009,1.85.105,3.735,0.238,5.583q0.167,2.731.552,5.482a68.437,68.437,0,0,0,1.875,8.909c-0.19.152-.384,0.3-0.573,0.456-3.11,2.444-6.148,4.928-9.236,7.277l-9.44,6.612c-3.118,2.172-6.145,4.407-9.363,6.262l-9.367,5.742c-1.553.922-3.039,1.934-4.616,2.763l-0.863.456c0.694-.573,1.4-1.139,2.07-1.729a119.47,119.47,0,0,0,11.483-12.663l1.263-1.649c0.4-.576.78-1.172,1.161-1.76q1.135-1.772,2.193-3.562,2.112-3.582,3.889-7.228a67.652,67.652,0,0,0,3.161-7.384q1.3-3.856,2.253-7.725a79.554,79.554,0,0,0,2.3-15.473,82.786,82.786,0,0,0-4.875-30.865c-18.235,10.836-30.737,25.572-39.708,43.812A139.394,139.394,0,0,0,673.1,666.231l-0.827,4.048q-0.418,1.969-.773,3.977-0.71,4.016-1.156,8.164a117.966,117.966,0,0,0-.64,14.4c-3.643,1.632-7.225,3.177-10.808,4.394l-8.252,3.079-3.97,1.483-3.95,1.186-14.652,4.386c-0.325.078-.637,0.15-0.959,0.227a61.3,61.3,0,0,0,6.406-4.256,73.125,73.125,0,0,0,8.33-7.266c9.974-10.83,15.521-24.117,15.5-38.587-7.082,1.748-13.761,3.883-19.674,7.494-2.928,1.889-5.854,3.607-8.573,5.737a62.089,62.089,0,0,0-7.7,7.115c-1.191,1.355-2.393,2.594-3.545,3.913s-2.262,2.7-3.326,4.136a74.461,74.461,0,0,0-5.824,9.209q-1.309,2.445-2.458,5.016c-0.764,1.718-1.5,3.341-2.157,5.079a68.916,68.916,0,0,0-2.473,7.8c-2.068.317-3.952,0.592-5.6,0.881-4.766.734-7.792,1.274-8.831,1.344-5.391.451-11.758,0.811-17.88,1.416-0.57.076-1.154,0.122-1.741,0.154a41.258,41.258,0,0,0,4.576-2.611,38.947,38.947,0,0,0,9.262-8.4,34.056,34.056,0,0,0,5.74-10.819c-2.28-.013-4.36-0.193-6.455,0a31.806,31.806,0,0,0-6.095,1.077c-4.029,1.058-7.521,3.1-11.64,5.184a37.688,37.688,0,0,0-15.288,15.961,14.115,14.115,0,0,0-24.13-1.1,20.592,20.592,0,0,0-38.082,0,14.114,14.114,0,0,0-24.129,1.1A37.682,37.682,0,0,0,446.037,705.2c-4.119-2.087-7.611-4.126-11.64-5.184a31.806,31.806,0,0,0-6.095-1.077c-2.1-.2-4.176-0.017-6.455,0a34.085,34.085,0,0,0,5.739,10.819,38.952,38.952,0,0,0,9.263,8.4,41.418,41.418,0,0,0,4.581,2.614c-0.654-.035-1.3-0.087-1.933-0.171-6.064-.6-12.357-0.956-17.693-1.4-1.039-.07-4.065-0.61-8.831-1.344-1.651-.289-3.534-0.564-5.6-0.881a68.92,68.92,0,0,0-2.474-7.8c-0.656-1.738-1.392-3.361-2.156-5.079s-1.586-3.387-2.458-5.016a74.58,74.58,0,0,0-5.824-9.209q-1.6-2.149-3.326-4.136c-1.152-1.319-2.354-2.558-3.545-3.913a62.089,62.089,0,0,0-7.7-7.115c-2.719-2.13-5.645-3.848-8.573-5.737-5.913-3.611-12.592-5.746-19.675-7.494-0.022,14.47,5.525,27.757,15.5,38.587a73.125,73.125,0,0,0,8.33,7.266,61.29,61.29,0,0,0,6.4,4.256c-0.322-.077-0.634-0.149-0.959-0.227l-14.651-4.386-3.951-1.186-3.969-1.483-8.253-3.079c-3.583-1.217-7.164-2.762-10.807-4.394a117.966,117.966,0,0,0-.64-14.4q-0.444-4.144-1.156-8.164-0.354-2.007-.773-3.977l-0.827-4.048a139.321,139.321,0,0,0-10.368-29.716c-8.97-18.24-21.473-32.976-39.707-43.813a82.792,82.792,0,0,0-4.876,30.866,79.632,79.632,0,0,0,2.306,15.473q0.95,3.865,2.253,7.725a67.729,67.729,0,0,0,3.16,7.384q1.776,3.644,3.89,7.228,1.056,1.791,2.193,3.562c0.381,0.588.762,1.184,1.161,1.76l1.263,1.649a119.362,119.362,0,0,0,11.483,12.663c0.672,0.59,1.375,1.156,2.069,1.728l-0.863-.456c-1.576-.828-3.063-1.841-4.616-2.762l-9.367-5.742c-3.218-1.855-6.244-4.09-9.362-6.262l-9.44-6.612c-3.089-2.349-6.126-4.834-9.236-7.277-0.189-.154-0.383-0.3-0.573-0.456a68.433,68.433,0,0,0,1.874-8.909q0.389-2.748.553-5.482c0.133-1.848.229-3.733,0.237-5.583a73.487,73.487,0,0,0-3.025-21.4,63.717,63.717,0,0,0-3.594-10.074,94.9,94.9,0,0,0-5.107-9.3c-3.742-6.114-8.843-11.284-14.615-16.224a57.458,57.458,0,0,0-5.533,20.487,63.8,63.8,0,0,0,.1,10.673,52.871,52.871,0,0,0,1.973,10.718,68.445,68.445,0,0,0,9.559,20.023c-3.086-2.781-6.14-5.636-9.051-8.68-2.911-2.93-5.909-5.808-8.792-8.823l-8.425-9.331-4.237-4.691-1.324-1.622a112.737,112.737,0,0,0,10.671-30.113,121.065,121.065,0,0,0,2.393-16.258q0.3-4.029.294-7.993c-0.034-2.615.029-5.381-.123-8.021-1.268-20.068-7.266-39.322-19.761-56.517-0.928-1.335-1.887-2.659-2.909-3.961A86.308,86.308,0,0,0,188.577,541.6c0.325,11.084,3.085,22.094,7.421,32.961,0.959,2.152,2,4.291,3.1,6.421-2.372-3.255-4.851-6.437-7.01-9.843-8.488-12.429-16.288-25.274-23.461-38.259a67.349,67.349,0,0,0,10.419-18.245,73.143,73.143,0,0,0,4.856-21.472q0.175-2.722.124-5.438c0.014-1.835-.023-3.681-0.152-5.51a62.2,62.2,0,0,0-1.706-10.86c-0.429-1.793-1.018-3.531-1.549-5.323s-1.17-3.555-1.883-5.3c-0.008-.017-0.016-0.033-0.023-0.05-0.047-.118-0.086-0.237-0.134-0.354a61.648,61.648,0,0,0-5.344-10.212,62.821,62.821,0,0,0-11.754,17.805,60.571,60.571,0,0,0-3.515,10.244,70.912,70.912,0,0,0-1.656,10.8,78.276,78.276,0,0,0-.039,11.258,82.434,82.434,0,0,0,1.985,11.3c0.305,1.2.636,2.4,0.983,3.6-5.326-10.606-10.224-21.233-14.648-31.744-2.148-5.277-4.195-10.489-6.215-15.656A105.537,105.537,0,0,0,149.3,455.89a108.6,108.6,0,0,0,9.439-13.878,119.513,119.513,0,0,0,7.106-14.842,103.556,103.556,0,0,0,4.97-15.558,104.8,104.8,0,0,0-4.5-64.495,92.608,92.608,0,0,0-22.272,22.946,95.009,95.009,0,0,0-7.665,14.105,87.261,87.261,0,0,0-5.3,15.541,114.774,114.774,0,0,0-2.642,16.6,107.259,107.259,0,0,0,.228,17.245c0.271,2.908.567,5.856,1.1,8.766,0.24,1.245.508,2.491,0.785,3.737-0.658-1.9-1.333-3.809-1.966-5.683q-3.222-10.449-6.256-20.285-2.674-9.928-5.158-19.142c-1.307-5.1-2.4-10.043-3.5-14.794a67.413,67.413,0,0,0,15.737-15.271,68.871,68.871,0,0,0,10.34-19.582,67.811,67.811,0,0,0,3.969-21.817,65.818,65.818,0,0,0-3.247-22.692,63.705,63.705,0,0,0-15.807,14.417,69.3,69.3,0,0,0-6.013,9.075,73.248,73.248,0,0,0-8.374,32.4,88.679,88.679,0,0,0,.313,9.372c-0.325-1.67-.643-3.32-0.958-4.925-0.953-5.066-1.98-9.782-2.688-14.184s-1.344-8.447-1.924-12.1c-0.557-3.654-1.154-6.9-1.5-9.752-0.309-2.486-.574-4.625-0.8-6.44a66.2,66.2,0,0,0,7.05-17.266,67.237,67.237,0,0,0,2.127-22.268,70.816,70.816,0,0,0-4.808-22.46,74.09,74.09,0,0,0-11.982-21.13A69.62,69.62,0,0,0,83.861,263.4,71.167,71.167,0,0,0,81.3,287.134a67.871,67.871,0,0,0,5.83,22.5,58.213,58.213,0,0,0,10.841,15.6l0.744,6.509c0.318,2.875.886,6.152,1.411,9.839,0.55,3.685,1.158,7.765,1.821,12.209s1.659,9.206,2.57,14.322c0.321,1.728.646,3.508,0.98,5.31a91.552,91.552,0,0,0-3.218-9.26,106.44,106.44,0,0,0-11.162-20.325,89.912,89.912,0,0,0-7.237-8.822,81.172,81.172,0,0,0-8.024-7.8,76.627,76.627,0,0,0-18.933-11.811,77.273,77.273,0,0,0,2.708,25.871A73.722,73.722,0,0,0,70.5,363.409a66.134,66.134,0,0,0,17.089,16,56.028,56.028,0,0,0,20.809,7.928c1.06,4.8,2.116,9.8,3.384,14.956l5.016,19.368q2.961,9.946,6.117,20.545c0.647,1.979,1.337,4,2.011,6q-0.885-1.87-1.818-3.713c-1.339-2.685-2.624-5.359-4.063-7.955a166.03,166.03,0,0,0-9.379-14.977,137.137,137.137,0,0,0-10.661-13.752c-3.914-4.331-7.709-8.508-11.937-12.377a135.342,135.342,0,0,0-13.278-10.8,119.538,119.538,0,0,0-29.671-16.051A108.451,108.451,0,0,0,71.508,440.72,103.607,103.607,0,0,0,84.94,453.03a86.368,86.368,0,0,0,15.184,9.125,83.6,83.6,0,0,0,16.2,5.729,78.573,78.573,0,0,0,16.212,2.037c1.991,5.243,4.01,10.535,6.131,15.895,4.383,10.709,9.251,21.549,14.559,32.38-0.742-1.063-1.5-2.114-2.294-3.132a91.79,91.79,0,0,0-7.759-8.845A88.624,88.624,0,0,0,125.542,491.6a96.744,96.744,0,0,0-9.779-5.546,77.76,77.76,0,0,0-21.316-6.817,82.48,82.48,0,0,0,3.626,12.886c0.054,0.144.114,0.283,0.168,0.427,0.005,0.015.01,0.03,0.016,0.045,0.245,0.659.51,1.305,0.77,1.954,0.087,0.217.168,0.437,0.257,0.653,0.478,1.164.973,2.317,1.5,3.449a58.555,58.555,0,0,0,3.134,5.686,80.024,80.024,0,0,0,7.475,10.272c1.361,1.58,2.758,3.1,4.229,4.528q2.285,2.12,4.7,4.011a62.994,62.994,0,0,0,20.791,11.042,56.285,56.285,0,0,0,21.431,2.054c7.14,13.231,14.925,26.34,23.423,39.054,2.164,3.484,4.653,6.75,7.035,10.087-1.718-1.735-3.467-3.433-5.266-5.071A184.268,184.268,0,0,0,160.143,558.5c-19.635-12.467-41.253-21.179-63.9-23.384,0.545,1.894,1.142,3.765,1.768,5.622,8.262,25.889,25.727,47.483,46.8,59.848a78.674,78.674,0,0,0,8.284,4.48q4.3,1.962,8.648,3.485a87.078,87.078,0,0,0,17.416,4.239,79.1,79.1,0,0,0,32.687-2.806l1.335,1.67q2.14,2.418,4.274,4.83l8.506,9.611c2.915,3.108,5.947,6.083,8.893,9.108,2.934,3.125,6.014,6.066,9.129,8.933a110.256,110.256,0,0,0-20.808-9.844c-3.737-1.2-7.267-2.424-10.984-3.3A89.073,89.073,0,0,0,200.968,629a87.884,87.884,0,0,0-22.506.26c4.368,8.249,10.673,15.062,17.363,20.79a60.755,60.755,0,0,0,10.844,7.315A76.65,76.65,0,0,0,218.2,662.5a63.325,63.325,0,0,0,23.766,2.952,51.375,51.375,0,0,0,5.689-.715,55.983,55.983,0,0,0,5.619-1.422,53.515,53.515,0,0,0,8.607-3.516c0.194,0.159.392,0.315,0.585,0.476,3.163,2.538,6.255,5.116,9.4,7.557l9.622,6.891c3.181,2.264,6.269,4.587,9.556,6.533l9.574,6c1.589,0.964,3.11,2.019,4.723,2.889l0.686,0.373c-0.813-.267-1.626-0.54-2.442-0.8a145.24,145.24,0,0,0-17.093-5.06l-2.184-.487-2.127-.554q-2.128-.541-4.277-1.021-4.3-.959-8.669-1.669c-2.9-.5-5.9-0.812-8.763-1.234s-5.754-.763-8.657-1.019a173.9,173.9,0,0,0-17.532-.6,137.642,137.642,0,0,0-34.292,4.221,130.927,130.927,0,0,0,14.951,16.148l2.018,1.821,2.139,1.689q2.154,1.663,4.355,3.232,4.4,3.138,8.947,5.886c1.52,0.907,3.018,1.812,4.579,2.624q2.383,1.175,4.785,2.245,4.8,2.142,9.635,3.859,2.413,0.856,4.824,1.6a45.329,45.329,0,0,0,4.879,1.3q4.954,1.083,9.835,1.724a85.178,85.178,0,0,0,36.958-2.905c1.409-.437,2.782-0.881,4.158-1.411q2.082-.829,4.09-1.76a77.716,77.716,0,0,0,7.721-4.115,73.166,73.166,0,0,0,11.636-8.806c3.744,1.723,7.426,3.355,11.111,4.654l8.484,3.267,4.084,1.572,4.063,1.271,15.086,4.69c0.323,0.082.633,0.157,0.954,0.237-2.647-.042-5.262-0.087-7.879.015a95.853,95.853,0,0,0-11.653,1.168,100.591,100.591,0,0,0-42.627,15.736c7.86,5.585,16.834,8.821,25.644,10.888a57.892,57.892,0,0,0,13.29,1.5,77.883,77.883,0,0,0,12.815-.853,40.461,40.461,0,0,0,6.1-1.39q3-.88,5.83-2a60.648,60.648,0,0,0,10.565-5.378,54.249,54.249,0,0,0,4.659-3.351,46.568,46.568,0,0,0,4.234-3.945,53.494,53.494,0,0,0,5.322-6.508c2.133,0.354,4.077.663,5.781,0.982,4.92,0.821,8.029,1.418,9.119,1.522,5.63,0.623,12.282,1.531,18.731,2.15,0.6,0.075,1.191.13,1.78,0.179-1.693.51-3.382,1.021-5.014,1.686a51.61,51.61,0,0,0-11.56,6.375,49.32,49.32,0,0,0-9.465,9.058,33.775,33.775,0,0,0,7.806,1.665,50.8,50.8,0,0,0,7.839.28c5.084-.265,10.248-1.083,14.063-3.171a37.788,37.788,0,0,0,16-14.489,14.109,14.109,0,0,0,24.788,2.5,20.593,20.593,0,0,0,38.082,0,14.11,14.11,0,0,0,24.789-2.5,37.788,37.788,0,0,0,16,14.489c3.815,2.088,8.979,2.907,14.062,3.171a50.8,50.8,0,0,0,7.839-.28,33.72,33.72,0,0,0,7.807-1.665,49.32,49.32,0,0,0-9.465-9.058,51.632,51.632,0,0,0-11.56-6.375c-1.633-.665-3.323-1.177-5.016-1.687,0.654-.054,1.313-0.118,1.977-0.2,6.389-.613,12.963-1.511,18.536-2.127,1.09-.1,4.2-0.7,9.118-1.522,1.7-.319,3.649-0.628,5.782-0.982a53.494,53.494,0,0,0,5.322,6.508,46.556,46.556,0,0,0,4.233,3.945,54.422,54.422,0,0,0,4.66,3.351,60.613,60.613,0,0,0,10.565,5.378q2.831,1.116,5.83,2a40.461,40.461,0,0,0,6.1,1.39,77.875,77.875,0,0,0,12.815.853,57.892,57.892,0,0,0,13.29-1.5c8.81-2.067,17.784-5.3,25.643-10.888a100.586,100.586,0,0,0-42.627-15.736,95.816,95.816,0,0,0-11.652-1.168c-2.617-.1-5.233-0.057-7.879-0.015,0.32-.08.63-0.155,0.954-0.237l15.085-4.69,4.063-1.271,4.085-1.572,8.484-3.267c3.684-1.3,7.366-2.931,11.11-4.654a73.22,73.22,0,0,0,11.637,8.806,77.4,77.4,0,0,0,7.721,4.115q2.009,0.93,4.09,1.76c1.376,0.53,2.748.974,4.158,1.411a85.178,85.178,0,0,0,36.958,2.905q4.872-.641,9.834-1.724a45.284,45.284,0,0,0,4.88-1.3q2.409-.747,4.823-1.6,4.827-1.716,9.636-3.858,2.4-1.071,4.785-2.246c1.561-.812,3.059-1.717,4.579-2.624q4.538-2.743,8.947-5.886,2.2-1.569,4.355-3.232l2.139-1.689,2.018-1.821A130.856,130.856,0,0,0,809,682.3a137.689,137.689,0,0,0-34.292-4.221,173.9,173.9,0,0,0-17.532.6q-4.356.384-8.657,1.019c-2.868.422-5.869,0.735-8.763,1.234q-4.371.711-8.669,1.669-2.148.478-4.277,1.021l-2.128.554-2.183.487a145.374,145.374,0,0,0-17.093,5.06c-0.816.258-1.628,0.531-2.442,0.8l0.686-.373c1.613-.87,3.134-1.924,4.723-2.889l9.574-6c3.286-1.946,6.375-4.269,9.555-6.533l9.623-6.89c3.146-2.442,6.237-5.019,9.4-7.558,0.193-.161.39-0.317,0.585-0.476a53.477,53.477,0,0,0,8.607,3.516,55.915,55.915,0,0,0,5.619,1.422,51.375,51.375,0,0,0,5.689.715,63.318,63.318,0,0,0,23.765-2.952,76.661,76.661,0,0,0,11.531-5.136,60.791,60.791,0,0,0,10.844-7.315c6.689-5.728,12.995-12.541,17.363-20.79a87.884,87.884,0,0,0-22.506-.26A89.041,89.041,0,0,0,796.8,630.99c-3.717.88-7.247,2.107-10.985,3.3A110.247,110.247,0,0,0,765,644.138c3.115-2.867,6.195-5.808,9.129-8.933,2.946-3.025,5.978-6,8.893-9.108l8.506-9.611q2.133-2.412,4.274-4.83l1.335-1.67a79.1,79.1,0,0,0,32.686,2.806,87.045,87.045,0,0,0,17.416-4.239q4.342-1.521,8.649-3.485a78.949,78.949,0,0,0,8.284-4.479c21.076-12.366,38.541-33.96,46.8-59.849,0.627-1.857,1.223-3.728,1.769-5.622-22.646,2.2-44.264,10.917-63.9,23.385A184.146,184.146,0,0,0,821.26,580.31c-1.8,1.638-3.548,3.336-5.266,5.071,2.382-3.338,4.871-6.6,7.034-10.087,8.5-12.714,16.284-25.823,23.424-39.054a56.287,56.287,0,0,0,21.431-2.054,62.994,62.994,0,0,0,20.791-11.042q2.408-1.89,4.7-4.011c1.471-1.432,2.868-2.948,4.229-4.528a79.922,79.922,0,0,0,7.474-10.272,58.132,58.132,0,0,0,3.134-5.686c0.526-1.131,1.021-2.283,1.5-3.447,0.1-.253.2-0.51,0.3-0.764,0.245-.614.5-1.223,0.727-1.845,0.006-.014.01-0.029,0.016-0.044,0.054-.144.114-0.283,0.167-0.428a82.438,82.438,0,0,0,3.627-12.886,77.751,77.751,0,0,0-21.316,6.817,96.868,96.868,0,0,0-9.78,5.546,88.656,88.656,0,0,0-17.631,14.623,91.79,91.79,0,0,0-7.759,8.845c-0.8,1.018-1.552,2.069-2.295,3.131,5.309-10.83,10.177-21.67,14.56-32.379,2.121-5.36,4.14-10.652,6.131-15.895a78.573,78.573,0,0,0,16.212-2.037,83.6,83.6,0,0,0,16.2-5.729,86.359,86.359,0,0,0,15.184-9.125,103.6,103.6,0,0,0,13.431-12.31,108.447,108.447,0,0,0,27.387-72.141A119.522,119.522,0,0,0,935.2,384.63Zm-31.7-84.941a53.139,53.139,0,0,1,.214-7.9,58.241,58.241,0,0,1,1.462-7.957,34.156,34.156,0,0,1,8.079-14.774,33.686,33.686,0,0,1,6.531,15.695,35.564,35.564,0,0,1,.3,8.267,55.7,55.7,0,0,1-1.135,8.009c-2.084,10.37-7.233,18.893-10.112,22.208C906.761,319.3,904.1,310.021,903.5,299.689Zm0.524,78.726c0.453-1.824,1.063-3.848,1.822-5.979a73.939,73.939,0,0,1,6.275-13.3c5.119-8.718,12.143-16.256,21.1-16a24.327,24.327,0,0,1-1.313,14.715,39.475,39.475,0,0,1-8.582,12.447,58.033,58.033,0,0,1-11.071,8.781,34.027,34.027,0,0,1-9.275,4.079A35.151,35.151,0,0,1,904.026,378.415Zm-9.083,3.008a38.337,38.337,0,0,1-6.776-7.31,64.82,64.82,0,0,1-7.161-11.828,40.809,40.809,0,0,1-3.791-13.639,20.716,20.716,0,0,1,3-13.266c8.591,2.18,13.309,11.085,15.267,20.839a68.982,68.982,0,0,1,1.026,14.369c-0.069,2.234-.239,4.321-0.482,6.165A32.8,32.8,0,0,1,894.943,381.423ZM90.034,301.034a55.7,55.7,0,0,1-1.135-8.009,35.547,35.547,0,0,1,.3-8.267,33.675,33.675,0,0,1,6.531-15.695,34.159,34.159,0,0,1,8.079,14.774,58.241,58.241,0,0,1,1.462,7.957,53.139,53.139,0,0,1,.214,7.9c-0.6,10.332-3.259,19.607-5.343,23.553C97.267,319.927,92.118,311.4,90.034,301.034Zm6.7,78.045A58.015,58.015,0,0,1,85.662,370.3a39.473,39.473,0,0,1-8.582-12.447,24.33,24.33,0,0,1-1.313-14.715c8.957-.255,15.982,7.283,21.1,16a73.866,73.866,0,0,1,6.275,13.3c0.759,2.13,1.369,4.155,1.822,5.979a35.151,35.151,0,0,1,1.043,4.743A34.024,34.024,0,0,1,96.733,379.079Zm16.778-22.86c1.958-9.754,6.676-18.659,15.267-20.839a20.722,20.722,0,0,1,3,13.266,40.809,40.809,0,0,1-3.791,13.639,64.767,64.767,0,0,1-7.162,11.828,38.305,38.305,0,0,1-6.775,7.31,32.791,32.791,0,0,1-1.082-4.67c-0.242-1.844-.412-3.931-0.481-6.165A68.982,68.982,0,0,1,113.511,356.219Zm18.94,67.143c0.143-1.841.346-3.668,0.618-5.464,0.293-1.8.718-3.592,1.181-5.322a45.721,45.721,0,0,1,3.759-9.664c3.159-5.872,7.7-10.394,13.987-12.64a29.672,29.672,0,0,1,6.457,18.878,57.807,57.807,0,0,1-3.5,20.615c-1.21,3.423-2.455,6.71-3.867,9.854s-2.938,6.126-4.49,8.846a59.2,59.2,0,0,1-8.788,12.253,71.347,71.347,0,0,1-4.417-15.805c-0.284-1.646-.564-3.341-0.758-5.092-0.159-1.762-.28-3.564-0.354-5.389A95.011,95.011,0,0,1,132.451,423.362ZM113.72,459.9a85.712,85.712,0,0,1-9.172-4.735,68.83,68.83,0,0,1-9.23-6.44,62.465,62.465,0,0,1-15.013-17.548,38.054,38.054,0,0,1-4.41-22.254c6.665-.823,12.985,1.4,18.73,5.313a52.34,52.34,0,0,1,8.167,7.022c1.29,1.332,2.5,2.745,3.736,4.193,1.255,1.442,2.466,2.935,3.632,4.463a106.27,106.27,0,0,1,6.4,9.442c0.965,1.6,1.876,3.193,2.731,4.773,0.89,1.57,1.769,3.108,2.561,4.621a74.056,74.056,0,0,1,6.365,15.463C124.786,463.923,119.591,462.489,113.72,459.9Zm61.666,46.909a76.885,76.885,0,0,1-3.695,13.232,37.762,37.762,0,0,1-4.529,8.866,42.836,42.836,0,0,1-4.528-9.937,68.783,68.783,0,0,1-2.743-14.133,40.536,40.536,0,0,1,0-7.274,31.261,31.261,0,0,1,1.474-6.8,17.387,17.387,0,0,1,7.853-9.908,20.82,20.82,0,0,1,6.259,11.919A38.013,38.013,0,0,1,175.386,506.811Zm-25.525,24.567a51.2,51.2,0,0,1-13.1-5.51,42.07,42.07,0,0,1-11.64-9.841,24.148,24.148,0,0,1-5.119-14c4.275-1.276,8.627-.522,12.778,1.425a33.845,33.845,0,0,1,6.05,3.732,62.765,62.765,0,0,1,5.788,4.875,74.025,74.025,0,0,1,9.524,11.218,55.28,55.28,0,0,1,5.771,9.511A34.485,34.485,0,0,1,149.861,531.378Zm46.8,32.3c-1.521-7.235-2.134-14.428-.6-21.009,1.424-6.519,4.552-12.109,9.961-16.033a26.866,26.866,0,0,1,7.056,7.1,39.712,39.712,0,0,1,2.414,4.227,33.1,33.1,0,0,1,1.9,4.5,45.5,45.5,0,0,1,2.091,9.912c0.195,1.718.257,3.514,0.357,5.242s0.132,3.477.108,5.23A107.476,107.476,0,0,1,217.55,583.1a59.37,59.37,0,0,1-4.325,14.232,54.145,54.145,0,0,1-9.193-13.507A78.226,78.226,0,0,1,196.656,563.679Zm-38.9,2.313a76.408,76.408,0,0,1,19.567,10.579,165.523,165.523,0,0,1,16.934,14.482c4.727,4.923,8.78,9.316,11.011,12.669-3.372.839-8.814,1.168-15.321,0.586a81.533,81.533,0,0,1-21-5.193c-1.821-.715-3.635-1.5-5.427-2.373a52.4,52.4,0,0,1-5.113-2.932,57.292,57.292,0,0,1-9.242-7.314,47.334,47.334,0,0,1-3.928-4.36,32.564,32.564,0,0,1-3.128-4.9,36.491,36.491,0,0,1-3.808-11.166C144.468,563.406,151.159,563.809,157.76,565.992Zm90.867,65.289c-4-9.1-5.341-18.817.492-25.5a19.386,19.386,0,0,1,9.925,8.631,37.725,37.725,0,0,1,2.815,6.248,44.883,44.883,0,0,1,1.906,6.731,67.792,67.792,0,0,1,1.293,13.6c0,1.049-.034,2.066-0.08,3.026-0.028.938-.08,1.83-0.152,2.664a24.707,24.707,0,0,1-.678,4.2,25.038,25.038,0,0,1-3.7-3c-1.3-1.315-2.694-2.867-4.091-4.594A60.959,60.959,0,0,1,248.627,631.281Zm6.131,27.358c-0.841.218-1.752,0.421-2.723,0.6-0.953.161-1.955,0.291-3.01,0.4a56.273,56.273,0,0,1-14.3-.435,48.924,48.924,0,0,1-7.611-1.837,31.915,31.915,0,0,1-6.944-3.393,25.692,25.692,0,0,1-10.036-11.444c7.214-5.3,17.581-3.241,26.794.947a85.262,85.262,0,0,1,13.107,6.939c1.9,1.244,3.622,2.492,5.095,3.676s2.809,2.17,3.758,3.114A23.313,23.313,0,0,1,254.758,658.639Zm50,12.218a64.215,64.215,0,0,1-5.685-9.047,43.571,43.571,0,0,1-3.181-9.737,25.33,25.33,0,0,1,2.955-18.429,25.078,25.078,0,0,1,9.031,3.4,38.818,38.818,0,0,1,7.115,6.07,42.49,42.49,0,0,1,5.734,7.9c0.842,1.463,1.631,2.989,2.373,4.561,0.725,1.6,1.511,3.047,2.192,4.636a110.128,110.128,0,0,1,6.3,19.137c1.529,5.906,2.391,11.149,2.354,14.607a49.49,49.49,0,0,1-6.506-2.921,66.031,66.031,0,0,1-7.607-5.15,104.025,104.025,0,0,1-7.952-6.707A73.593,73.593,0,0,1,304.76,670.857ZM316.1,710.514a81.127,81.127,0,0,1-21.477,4.239,49.72,49.72,0,0,1-6.028.075c-1.988-.121-3.99-0.326-5.987-0.625a59.831,59.831,0,0,1-11.79-2.966,36.7,36.7,0,0,1-10.489-5.889,38.4,38.4,0,0,1-8.312-8.886c4.657-4.852,11.082-7.088,18.107-7.7a55.4,55.4,0,0,1,10.906.236,87.734,87.734,0,0,1,11.5,1.614c3.824,0.753,7.514,1.842,11.165,2.849,3.69,0.94,7.21,2.018,10.454,3.163,3.258,1.115,6.177,2.423,8.827,3.493a52.849,52.849,0,0,1,6.689,3.1C327.024,705.463,322.257,708.208,316.1,710.514Zm64.683-2.867c-7.8-6.13-13.469-14.014-11.4-22.649A18.794,18.794,0,0,1,382,687.853a35.856,35.856,0,0,1,5.336,4.165,44.393,44.393,0,0,1,4.837,4.954c6,7.132,10.439,16.118,11.579,20.4-2.631-.083-6.361-1.25-10.469-2.91-2.052-.838-4.191-1.826-6.313-2.949-1.061-.561-2.118-1.157-3.157-1.784A22.849,22.849,0,0,1,380.785,707.647Zm1.155,31.168a49.391,49.391,0,0,1-7.632,2.039,33.257,33.257,0,0,1-7.813.255,26.3,26.3,0,0,1-14.464-5.424c3.935-8.032,14.152-11.093,24.273-11.745,1.264-.053,2.55-0.152,3.839-0.253,1.284-.084,2.559-0.134,3.815-0.154,2.512-.04,4.947.041,7.22,0.214a77.727,77.727,0,0,1,11.042,1.7C399.517,729.413,391.773,735.349,381.94,738.815ZM438.8,716.073a10.547,10.547,0,0,1-2.988-6.79,10.2,10.2,0,0,1,3.813-.558,20.012,20.012,0,0,1,3.858.694,23.224,23.224,0,0,1,7.57,3.836c4.6,3.395,8.1,7.932,9.13,10.4a37.666,37.666,0,0,1-14.455-2.978,28.751,28.751,0,0,1-3.841-1.937A18.368,18.368,0,0,1,438.8,716.073Zm11.389,23.944a23.259,23.259,0,0,1-7.8,3.344,12.088,12.088,0,0,1-4.327.072,14.232,14.232,0,0,1-4.348-1.353,9.854,9.854,0,0,1,4.142-6.1,19.315,19.315,0,0,1,3.54-2.026,28.64,28.64,0,0,1,3.958-1.688,37.945,37.945,0,0,1,14.461-2.059c0.013,0.074.021,0.149,0.035,0.223C458.559,732.863,454.874,737.006,450.19,740.017Zm107.747-26.762a23.249,23.249,0,0,1,7.569-3.836,20.112,20.112,0,0,1,3.859-.694,10.22,10.22,0,0,1,3.813.558,10.543,10.543,0,0,1-2.988,6.79,18.368,18.368,0,0,1-3.087,2.666,28.633,28.633,0,0,1-3.841,1.937,37.647,37.647,0,0,1-14.455,2.978C549.839,721.187,553.333,716.65,557.937,713.255Zm13.2,22.729a9.854,9.854,0,0,1,4.142,6.1,14.24,14.24,0,0,1-4.348,1.353,12.065,12.065,0,0,1-4.327-.072,23.252,23.252,0,0,1-7.8-3.344c-4.683-3.011-8.368-7.154-9.66-9.583,0.013-.074.022-0.149,0.034-0.223a37.95,37.95,0,0,1,14.462,2.059,28.762,28.762,0,0,1,3.958,1.688A19.349,19.349,0,0,1,571.134,735.984Zm45.689-39.012a44.375,44.375,0,0,1,4.836-4.953A35.783,35.783,0,0,1,627,687.854,18.787,18.787,0,0,1,639.6,685c2.071,8.635-3.6,16.519-11.4,22.649a22.914,22.914,0,0,1-3.023,2.079c-1.039.627-2.1,1.223-3.157,1.784-2.122,1.123-4.262,2.111-6.313,2.949-4.109,1.66-7.839,2.827-10.469,2.911C606.384,713.09,610.824,704.105,616.823,696.972Zm15.863,26.968c10.122,0.652,20.339,3.713,24.274,11.745a26.29,26.29,0,0,1-14.465,5.424,33.25,33.25,0,0,1-7.812-.254,49.394,49.394,0,0,1-7.632-2.04c-9.833-3.466-17.578-9.4-20.28-13.364a77.581,77.581,0,0,1,11.042-1.7c2.273-.174,4.708-0.255,7.22-0.215,1.255,0.02,2.531.07,3.815,0.154C630.136,723.789,631.423,723.887,632.686,723.94Zm44.708-44.591a110.155,110.155,0,0,1,6.3-19.137c0.681-1.589,1.467-3.034,2.192-4.636,0.742-1.572,1.531-3.1,2.373-4.56a42.527,42.527,0,0,1,5.733-7.9,38.824,38.824,0,0,1,7.116-6.07,25.071,25.071,0,0,1,9.031-3.4,25.327,25.327,0,0,1,2.954,18.43,43.478,43.478,0,0,1-3.181,9.736,64.033,64.033,0,0,1-5.685,9.047,73.482,73.482,0,0,1-7.125,8.321,104.025,104.025,0,0,1-7.952,6.707,65.824,65.824,0,0,1-7.608,5.15,49.578,49.578,0,0,1-6.5,2.922C675,690.5,675.865,685.256,677.394,679.349Zm27.895,14.116c3.65-1.007,7.34-2.1,11.165-2.849a87.734,87.734,0,0,1,11.5-1.614,55.317,55.317,0,0,1,10.905-.235c7.026,0.607,13.451,2.843,18.108,7.7a38.393,38.393,0,0,1-8.312,8.885,36.714,36.714,0,0,1-10.489,5.889,59.831,59.831,0,0,1-11.79,2.966c-2,.3-4,0.5-5.987.625a49.924,49.924,0,0,1-6.028-.074,81.126,81.126,0,0,1-21.477-4.24c-6.155-2.306-10.922-5.051-13.571-7.3a52.786,52.786,0,0,1,6.69-3.1c2.65-1.07,5.569-2.378,8.827-3.493C698.079,695.484,701.6,694.405,705.289,693.465Zm39.937-66.078a44.883,44.883,0,0,1,1.906-6.731,37.725,37.725,0,0,1,2.815-6.248,19.386,19.386,0,0,1,9.925-8.631c5.833,6.687,4.5,16.4.492,25.5a60.959,60.959,0,0,1-7.726,12c-1.4,1.727-2.788,3.279-4.091,4.594a25.038,25.038,0,0,1-3.7,3,24.707,24.707,0,0,1-.678-4.2c-0.073-.834-0.124-1.726-0.152-2.664-0.046-.96-0.078-1.977-0.08-3.026A67.719,67.719,0,0,1,745.226,627.387Zm26.832,16.091c9.212-4.188,19.58-6.244,26.794-.947a25.694,25.694,0,0,1-10.037,11.444,31.942,31.942,0,0,1-6.944,3.394,48.994,48.994,0,0,1-7.61,1.836,56.273,56.273,0,0,1-14.295.435c-1.055-.107-2.058-0.237-3.01-0.4-0.971-.182-1.882-0.385-2.723-0.6a23.284,23.284,0,0,1-4.135-1.432c0.949-.944,2.284-1.934,3.758-3.114s3.191-2.432,5.1-3.676A85.216,85.216,0,0,1,772.058,643.478Zm30.917-116.841c5.41,3.924,8.537,9.514,9.962,16.033,1.532,6.582.919,13.774-.6,21.009a78.188,78.188,0,0,1-7.375,20.147,54.153,54.153,0,0,1-9.193,13.507,59.37,59.37,0,0,1-4.325-14.232,107.466,107.466,0,0,1-2.394-20.251c-0.024-1.752.009-3.5,0.108-5.23s0.162-3.524.357-5.242a45.442,45.442,0,0,1,2.091-9.912,33.227,33.227,0,0,1,1.9-4.5,39.548,39.548,0,0,1,2.415-4.227A26.891,26.891,0,0,1,802.975,526.637Zm28.689,49.934a76.408,76.408,0,0,1,19.567-10.579c6.6-2.183,13.292-2.585,19.454.073a36.483,36.483,0,0,1-3.809,11.166,32.485,32.485,0,0,1-3.128,4.9,47.468,47.468,0,0,1-3.927,4.36,57.292,57.292,0,0,1-9.242,7.314,51.89,51.89,0,0,1-5.114,2.932c-1.791.868-3.606,1.658-5.426,2.374a81.576,81.576,0,0,1-21,5.192c-6.506.582-11.948,0.253-15.32-.586,2.23-3.353,6.284-7.746,11.01-12.669A165.538,165.538,0,0,1,831.664,576.571Zm5.636-56.528a76.885,76.885,0,0,1-3.695-13.232,38.014,38.014,0,0,1-.087-14.036,20.828,20.828,0,0,1,6.26-11.919,17.391,17.391,0,0,1,7.853,9.908,31.261,31.261,0,0,1,1.474,6.8,40.445,40.445,0,0,1-.006,7.274,68.783,68.783,0,0,1-2.742,14.133,42.878,42.878,0,0,1-4.528,9.937A37.724,37.724,0,0,1,837.3,520.043Zm46.575-4.016a42.07,42.07,0,0,1-11.64,9.841,51.193,51.193,0,0,1-13.106,5.51,34.475,34.475,0,0,1-10.046,1.407,55.216,55.216,0,0,1,5.771-9.511,74.073,74.073,0,0,1,9.524-11.218,62.886,62.886,0,0,1,5.787-4.875,33.888,33.888,0,0,1,6.051-3.732c4.151-1.947,8.5-2.7,12.777-1.425A24.14,24.14,0,0,1,883.875,516.027ZM862.4,448.465c-1.552-2.72-3.082-5.7-4.49-8.846s-2.657-6.431-3.867-9.854a57.807,57.807,0,0,1-3.5-20.615A29.666,29.666,0,0,1,857,390.272c6.289,2.246,10.828,6.768,13.987,12.64a45.665,45.665,0,0,1,3.758,9.664c0.463,1.73.888,3.52,1.181,5.322,0.273,1.8.476,3.623,0.618,5.464a94.572,94.572,0,0,1,.176,11.07c-0.073,1.825-.194,3.627-0.353,5.389-0.194,1.751-.474,3.446-0.758,5.092a71.285,71.285,0,0,1-4.418,15.805A59.239,59.239,0,0,1,862.4,448.465Zm66.286-17.286a62.468,62.468,0,0,1-15.012,17.548,68.885,68.885,0,0,1-9.23,6.44,85.628,85.628,0,0,1-9.173,4.735c-5.87,2.587-11.065,4.021-14.5,4.313a74.056,74.056,0,0,1,6.365-15.463c0.791-1.513,1.671-3.051,2.561-4.621,0.854-1.58,1.766-3.176,2.731-4.773a106.27,106.27,0,0,1,6.4-9.442c1.165-1.528,2.377-3.021,3.632-4.463,1.234-1.448,2.446-2.861,3.736-4.193a52.349,52.349,0,0,1,8.167-7.022c5.745-3.917,12.065-6.136,18.73-5.313A38.054,38.054,0,0,1,928.685,431.179Z" transform="translate(-44.125 -241.531)"/>
</svg>
