<svg xmlns="http://www.w3.org/2000/svg" width="884.312" height="523.656" viewBox="0 0 884.312 523.656">
  <defs>
    <style>
      .cls-1 {
        fill: #a6b4bf;
        fill-rule: evenodd;
      }
    </style>
  </defs>
  <path class="cls-1" d="M919.414,410.3a93.331,93.331,0,0,0-7.392,7.206c-1.052,1.147-2,2.275-2.913,3.373-0.94,1.09-1.807,2.16-2.615,3.213a92.52,92.52,0,0,0-7.628,11.979c-1.08,1.9-2.039,3.8-3.208,5.621s-2.38,3.626-3.757,5.408a50.359,50.359,0,0,1-10.924,10.461c-4.337,3.033-10.187,8.639-15.894,16.657-0.331.483-.7,0.984-1.051,1.475L865.191,473q1.359-3.168,2.695-6.278c1.757-4.156,3.579-8.192,5.183-12.218q2.313-6.075,4.528-11.89c1.46-3.879,2.983-7.634,4.168-11.4,0.119-.354.234-0.7,0.352-1.05,0.769-1.246,1.528-2.431,2.287-3.485a43.219,43.219,0,0,1,6.623-7.574c4.377-3.807,8.368-5.656,13.184-7.967A69.451,69.451,0,0,0,915,404.779a39.422,39.422,0,0,0,8.585-8.31,48.42,48.42,0,0,0,6.285-11.393,69.366,69.366,0,0,0,2.382-7.165c0.614-2.592,1.139-5.376,1.572-8.374a76.746,76.746,0,0,1,3.473-14.72,44.585,44.585,0,0,1,3.953-9.051c2.659-4.537,5.076-6.485,5.381-8.227,0.615-3.507-10.984-1.594-19.321,8.747a97.942,97.942,0,0,0-9.285,13.654,91.89,91.89,0,0,0-5.135,11.514c-2.928,7.228-5.656,13.944-12.689,21.273a69.135,69.135,0,0,0-11.3,16.593c1.881-6.521,3.721-12.621,5.275-18.3l4.03-16.2c0.28-1.055.528-2.08,0.767-3.092l0.043-.09,7.13-15.508c1.207-2.632,2.47-5.236,3.574-7.787,1.059-2.569,2.083-5.051,3.045-7.383,1.9-4.691,3.476-8.836,4.438-11.936,1.736-5.893,3.074-11.818,4.33-17.534,0.59-2.862,1.227-5.666,1.625-8.418s0.745-5.43,1.031-8.013c0.565-5.167.914-9.947,0.943-14.157a57.413,57.413,0,0,0-1.1-10.747c-1.166-5.125-2.159-9.916-3.318-14.228-1.189-4.314-2.3-8.14-3.332-11.325-2.058-6.368-3.772-10.17-5.057-10.171s-3.144,3.809-5.439,10c-1.148,3.095-2.405,6.783-3.753,10.888-1.377,4.1-3.086,8.612-4.755,13.366A52.867,52.867,0,0,0,896.1,278.74c-0.695,3.963-1.265,8.488-1.646,13.423-0.193,2.467-.345,5.036-0.456,7.688s-0.361,5.364-.476,8.152c-0.308,5.565-.336,11.4-0.447,17.3-0.106,3.1.029,7.35,0.274,12.253,0.137,2.458.284,5.074,0.435,7.782,0.127,2.708.148,5.5,0.227,8.328,0.106,5.654.285,11.472,0.167,16.848l0,0.074c-0.238.973-.483,1.955-0.76,2.967-1.239,4.819-2.61,10.156-4.1,15.969-1.584,5.673-3.483,11.753-5.411,18.268,0.836-8.6.466-15.387-.7-19.639-2.8-9.664-1.92-16.359-1.453-23.757a80.98,80.98,0,0,0-.165-11.94,53.574,53.574,0,0,0-3.668-15.051c-4.538-11.723-15.007-16.383-15.512-13.383-0.254,1.512,1.433,3.8,2.522,8.388a34.068,34.068,0,0,1,.861,8.775,60.042,60.042,0,0,1-2.434,13.148c-6.152,20.5-2.488,32.131,6.734,46.571,2.769,4.363,5.393,8.129,6.5,13.554a39.655,39.655,0,0,1,.726,9.809c-0.058,1.275-.162,2.673-0.3,4.127l-0.249.726c-1.2,3.706-2.705,7.409-4.187,11.222s-3,7.71-4.557,11.694c-1.58,3.972-3.432,7.929-5.188,12.017q-1.341,3.057-2.705,6.17c-0.443,1.031-.895,2.064-1.365,3.094,0.14-.593.266-1.183,0.371-1.773,1.885-9.621,2.029-17.38.914-22.4a49.812,49.812,0,0,1-1.328-14.447c0.121-2.106.369-4.113,0.674-6.092s0.538-3.981.83-6a76.96,76.96,0,0,0,.886-13.123q-0.055-1.825-.243-3.78c-0.155-1.315-.4-2.69-0.68-4.112a72.85,72.85,0,0,0-2.538-9.24c-4.546-13.492-17.767-20.251-18.5-17.062-0.356,1.619,1.549,4.348,2.5,9.475a32.7,32.7,0,0,1,.289,9.627,34.772,34.772,0,0,1-1.243,6.393,64.627,64.627,0,0,1-2.785,7.478c-9.315,21.163-5.711,34.413,4.636,52.345,1.565,2.711,3.049,5.24,4.281,7.884a33.1,33.1,0,0,1,2.577,8.513,40.515,40.515,0,0,1,.061,11.141,45.417,45.417,0,0,1-1.126,6.281c-1.3,2.5-2.627,5-4.045,7.483l-3.549,6.5c-1.18,2.189-2.373,4.388-3.716,6.521l-7.917,13.081c-1.293,2.231-2.751,4.375-4.208,6.535-0.272.406-.547,0.818-0.82,1.224,0.06-.151.131-0.309,0.189-0.459a62.6,62.6,0,0,0,2.221-6.53c0.543-2.116.968-4.117,1.283-5.985a42.392,42.392,0,0,0,.658-9.487,61.067,61.067,0,0,1,.013-7.753,47.834,47.834,0,0,1,.776-6.667,100.963,100.963,0,0,1,3.207-11.7,55.09,55.09,0,0,0,1.557-6.07,61.754,61.754,0,0,0,1.036-6.8,54.823,54.823,0,0,0-1.064-17.338c-2.938-14.031-14.861-22.283-16.138-19.312-0.645,1.5.933,4.463,1.263,9.664a29.832,29.832,0,0,1-.925,9.538,54.028,54.028,0,0,1-5.853,13.077q-1.105,1.85-2.039,3.634-1.014,1.739-1.864,3.422a48.443,48.443,0,0,0-2.749,6.582,44.82,44.82,0,0,0-2.127,12.528,46,46,0,0,0,1.52,12.467c0.536,2.146,1.2,4.339,1.976,6.6q0.582,1.7,1.243,3.442l1.3,3.5c2.213,5.75,4.2,10.717,4.314,17.17,0.158,4.514-.861,9.613-3.425,16.1a389.805,389.805,0,0,1-30.238,36.756,79.377,79.377,0,0,0,5.21-11.045A31.608,31.608,0,0,0,786.9,576.1a33.939,33.939,0,0,0,.664-4.276A48.961,48.961,0,0,1,790.69,557.8c1.456-3.928,3.1-7.476,4.841-11.111,0.859-1.828,1.716-3.7,2.521-5.686a38.361,38.361,0,0,0,2.1-6.492,63.245,63.245,0,0,0,1.475-17.236,29.021,29.021,0,0,0-2.2-9.731,31.622,31.622,0,0,0-4.159-7.35c-3.007-3.909-6.071-5.708-6.892-4.322s0.349,4.546.007,9.742a29.952,29.952,0,0,1-2.43,9.092A45.054,45.054,0,0,1,783,520.375a38.4,38.4,0,0,1-4.647,6.3,55.267,55.267,0,0,0-8.515,12.359,38.514,38.514,0,0,0-4.125,11.813,51.6,51.6,0,0,0-.359,12.556,101.425,101.425,0,0,0,2.16,13.931c2.1,10.059,4.178,17.986-4.132,32a373.338,373.338,0,0,1-35.946,30.689c0.314-.364.65-0.734,0.951-1.094,0.7-.926,1.353-1.843,1.973-2.74,1.238-1.795,2.323-3.523,3.258-5.163a41.45,41.45,0,0,0,3.848-8.633c0.393-1.359.824-2.613,1.251-3.825,0.4-1.241.828-2.407,1.276-3.511a47.4,47.4,0,0,1,2.929-5.977c2.077-3.642,4.507-6.6,6.811-9.9a75.243,75.243,0,0,0,6.485-11.27,46.974,46.974,0,0,0,2.645-7.33,70.207,70.207,0,0,0,1.615-9.337,30.845,30.845,0,0,0-3.409-17.661c-2.377-4.353-5.11-6.62-6.1-5.379s-0.428,4.424-1.665,9.357a31.075,31.075,0,0,1-3.7,8.6,27.742,27.742,0,0,1-3.848,4.981,61.374,61.374,0,0,1-5.619,5.3c-2.164,1.783-4.024,3.625-5.76,5.36a45.64,45.64,0,0,0-4.667,5.144,38.491,38.491,0,0,0-5.917,10.97c-2.872,7.423-3.3,15.94-2.937,26.278,0.1,6.1.237,11.413-1.924,17.463a35.056,35.056,0,0,1-2.1,4.706,31.464,31.464,0,0,1-3.258,5.057c-0.609.772-1.271,1.563-1.978,2.372a379.816,379.816,0,0,1-41.562,23.369,76,76,0,0,0,7.357-6.885,39.575,39.575,0,0,0,5.384-7.868,48.88,48.88,0,0,1,8.04-11.793,100.258,100.258,0,0,1,8.431-8.6c5.882-5.3,11.61-12.166,15.823-25.11,3.85-13.683-2.969-26.451-5.355-24.5-1.216.991-1.141,4.3-3.153,8.973a24.52,24.52,0,0,1-5.219,7.579,43.206,43.206,0,0,1-4.636,4.16q-1.359,1.06-2.936,2.135a25.04,25.04,0,0,1-3.448,2.054,52.364,52.364,0,0,0-12.127,8.224c-1.579,1.55-3.1,2.935-4.425,4.485a35.185,35.185,0,0,0-3.53,4.88,48.28,48.28,0,0,0-4.836,11.491A103.764,103.764,0,0,0,658.218,660c-1.091,6.055-1.941,11.451-5.268,16.954a39.3,39.3,0,0,1-7.308,8.277c-0.465.41-.955,0.824-1.46,1.241q-2.414,1.038-5.257,2.195a396.693,396.693,0,0,1-39.869,12.461c6.724-3.89,11.551-7.85,14.278-11.129A51.973,51.973,0,0,1,623.521,679.8c1.671-1.246,3.344-2.329,5.031-3.35l2.538-1.506,2.5-1.647c6.627-4.489,13.99-9.195,20.421-21.588,6.673-12.189,2.291-26.39-.332-24.822-1.325.823-1.94,3.967-4.879,7.991-2.951,3.94-8.15,9.2-19,12.267a61.027,61.027,0,0,0-7.267,2.7,64.412,64.412,0,0,0-6.226,2.918,36.33,36.33,0,0,0-9.64,7.729c-1.332,1.567-2.625,3.042-3.812,4.7a52.732,52.732,0,0,0-3.346,5.329,107.848,107.848,0,0,0-5.846,12.911c-2.251,5.916-4.272,10.675-8.658,15.355a40.379,40.379,0,0,1-8.8,6.849c-0.394.236-.806,0.472-1.222,0.707l-2.115.433-3.951.566-7.847,1.125c-10.4,1.766-20.635,2.305-30.6,3.2-0.486.035-.967,0.08-1.449,0.124l-0.524.028c0.5-.187.983-0.38,1.463-0.56,2.041-.8,3.915-1.631,5.613-2.472a41.326,41.326,0,0,0,8.027-5.02,61.526,61.526,0,0,1,6.172-4.515,48.348,48.348,0,0,1,5.788-3.36,99.827,99.827,0,0,1,11.207-4.412l2.853-1.037c0.956-.379,1.9-0.854,2.873-1.319a60.792,60.792,0,0,0,5.943-3.321,56.343,56.343,0,0,0,6.264-4.636,45.075,45.075,0,0,0,6.53-6.692c8.926-11,7.668-25.335,4.718-24.524-1.5.417-2.729,3.462-6.409,6.923a23.915,23.915,0,0,1-7.742,5.029,51.272,51.272,0,0,1-13.458,3.274c-2.738.4-5.346,0.606-7.755,1.047a45.733,45.733,0,0,0-6.736,1.708,42.069,42.069,0,0,0-10.9,5.678c-6.252,4.518-11.166,11.4-16.914,20.134-3.727,5.121-6.8,9.6-12.124,13.407a42.474,42.474,0,0,1-9.412,4.934,42.442,42.442,0,0,1-9.411-4.934c-5.325-3.8-8.4-8.286-12.125-13.407-5.747-8.733-10.661-15.616-16.913-20.134a42.085,42.085,0,0,0-10.9-5.678,45.747,45.747,0,0,0-6.737-1.708c-2.408-.441-5.017-0.644-7.754-1.047a51.291,51.291,0,0,1-13.459-3.274,23.9,23.9,0,0,1-7.741-5.029c-3.681-3.461-4.907-6.506-6.409-6.923-2.951-.811-4.208,13.521,4.717,24.524a45.075,45.075,0,0,0,6.53,6.692,56.35,56.35,0,0,0,6.265,4.636,60.792,60.792,0,0,0,5.943,3.321c0.968,0.465,1.917.94,2.872,1.319q1.449,0.526,2.853,1.037a99.766,99.766,0,0,1,11.208,4.412,48.339,48.339,0,0,1,5.787,3.36,61.647,61.647,0,0,1,6.173,4.515,41.3,41.3,0,0,0,8.027,5.02c1.7,0.841,3.571,1.67,5.613,2.472,0.483,0.182.972,0.376,1.471,0.563-0.17-.01-0.342-0.017-0.511-0.027l-0.207-.017-15.134-1.268-3.839-.318c-0.422-.032-0.845-0.072-1.268-0.11-0.533-.057-1.055-0.119-1.585-0.178-0.335-.043-0.67-0.077-1.006-0.133l-7.769-1.116-7.848-1.125c-2.432-.365-4.89-0.652-7.314-1.176-0.422-.238-0.838-0.477-1.238-0.716A40.37,40.37,0,0,1,424,698.8c-4.387-4.68-6.408-9.439-8.659-15.355a107.533,107.533,0,0,0-5.846-12.911,52.379,52.379,0,0,0-3.346-5.329c-1.187-1.662-2.479-3.137-3.812-4.7a36.314,36.314,0,0,0-9.64-7.729,64.279,64.279,0,0,0-6.225-2.918,61.157,61.157,0,0,0-7.267-2.7c-10.856-3.063-16.054-8.327-19.006-12.267-2.939-4.024-3.554-7.168-4.878-7.991-2.623-1.568-7.006,12.633-.333,24.822,6.431,12.393,13.794,17.1,20.422,21.588l2.5,1.647,2.538,1.506c1.687,1.021,3.36,2.1,5.031,3.35A51.975,51.975,0,0,1,395.665,690c2.718,3.27,7.528,7.217,14.222,11.1a389.789,389.789,0,0,1-38.612-11.949c-2.365-.945-4.521-1.844-6.469-2.681-0.5-.415-0.988-0.826-1.449-1.233a39.335,39.335,0,0,1-7.309-8.277c-3.326-5.5-4.177-10.9-5.268-16.954a103.6,103.6,0,0,0-3.181-13.619,48.32,48.32,0,0,0-4.835-11.491,35.267,35.267,0,0,0-3.53-4.88c-1.321-1.55-2.847-2.935-4.426-4.485a52.378,52.378,0,0,0-12.126-8.224,25.053,25.053,0,0,1-3.449-2.054q-1.579-1.073-2.936-2.135a43.206,43.206,0,0,1-4.636-4.16,24.537,24.537,0,0,1-5.219-7.579c-2.012-4.675-1.937-7.982-3.152-8.973-2.387-1.95-9.206,10.818-5.356,24.5,4.213,12.944,9.941,19.814,15.823,25.11a100.258,100.258,0,0,1,8.431,8.6,48.88,48.88,0,0,1,8.04,11.793,39.543,39.543,0,0,0,5.385,7.868,75.837,75.837,0,0,0,7.258,6.806,378.719,378.719,0,0,1-41.4-23.218q-1.1-1.251-2.04-2.444a31.533,31.533,0,0,1-3.258-5.057,35.171,35.171,0,0,1-2.1-4.706c-2.162-6.05-2.021-11.363-1.924-17.463,0.366-10.338-.066-18.855-2.938-26.278a38.488,38.488,0,0,0-5.916-10.97,45.832,45.832,0,0,0-4.667-5.144c-1.737-1.735-3.6-3.577-5.76-5.36a61.264,61.264,0,0,1-5.62-5.3,27.835,27.835,0,0,1-3.848-4.981,31.106,31.106,0,0,1-3.7-8.6c-1.237-4.933-.661-8.115-1.665-9.357s-3.724,1.026-6.1,5.379a30.845,30.845,0,0,0-3.41,17.661,70.2,70.2,0,0,0,1.616,9.337,46.874,46.874,0,0,0,2.644,7.33,75.417,75.417,0,0,0,6.485,11.27c2.305,3.295,4.735,6.256,6.812,9.9a47.394,47.394,0,0,1,2.928,5.977c0.448,1.1.874,2.27,1.277,3.511,0.427,1.212.858,2.466,1.25,3.825a41.461,41.461,0,0,0,3.849,8.633c0.935,1.64,2.02,3.368,3.258,5.163,0.619,0.9,1.275,1.814,1.973,2.74,0.308,0.369.653,0.749,0.975,1.122-0.568-.41-1.143-0.814-1.709-1.227l-13.446-10.751c-2.281-1.737-4.372-3.692-6.507-5.589l-6.382-5.7c-2.1-1.926-4.308-3.726-6.3-5.748l-1.5-1.492c-8.455-14.14-6.367-22.1-4.256-32.2a101.59,101.59,0,0,0,2.161-13.931,51.651,51.651,0,0,0-.36-12.556,38.488,38.488,0,0,0-4.125-11.813,55.26,55.26,0,0,0-8.514-12.359,38.286,38.286,0,0,1-4.647-6.3,45.07,45.07,0,0,1-2.949-5.669,29.982,29.982,0,0,1-2.43-9.092c-0.342-5.2.832-8.35,0.008-9.742s-3.886.413-6.893,4.322a31.658,31.658,0,0,0-4.159,7.35,29,29,0,0,0-2.2,9.731,63.245,63.245,0,0,0,1.475,17.236A38.362,38.362,0,0,0,210.946,541c0.805,1.99,1.663,3.858,2.522,5.686,1.743,3.635,3.385,7.183,4.84,11.111a48.959,48.959,0,0,1,3.125,14.019,33.923,33.923,0,0,0,.663,4.276,31.82,31.82,0,0,0,1.462,5.008,79.509,79.509,0,0,0,5.209,11.042c-3.512-3.9-7.1-7.708-10.461-11.662L207.847,567.72c-1.777-2.077-3.351-4.3-4.97-6.471l-4.354-5.876c-2.558-6.474-3.575-11.568-3.417-16.077,0.109-6.453,2.1-11.42,4.313-17.17l1.3-3.5q0.66-1.747,1.243-3.442c0.775-2.259,1.441-4.452,1.977-6.6a46.04,46.04,0,0,0,1.519-12.467,44.784,44.784,0,0,0-2.127-12.528,48.443,48.443,0,0,0-2.749-6.582q-0.847-1.687-1.864-3.422-0.933-1.785-2.039-3.634a54.067,54.067,0,0,1-5.853-13.077,29.857,29.857,0,0,1-.924-9.538c0.329-5.2,1.908-8.16,1.263-9.664-1.278-2.971-13.2,5.281-16.139,19.312a54.882,54.882,0,0,0-1.064,17.338,61.994,61.994,0,0,0,1.036,6.8,55.315,55.315,0,0,0,1.557,6.07,100.763,100.763,0,0,1,3.207,11.7,47.829,47.829,0,0,1,.777,6.667,61.253,61.253,0,0,1,.013,7.753,42.274,42.274,0,0,0,.658,9.487c0.315,1.868.739,3.869,1.283,5.985a62.354,62.354,0,0,0,2.22,6.53c0.061,0.155.133,0.318,0.195,0.473l-0.442-.66c-1.437-2.182-2.955-4.3-4.247-6.538q-4.015-6.636-7.94-13.12l-1.955-3.232-1.8-3.294-3.559-6.524c-1.52-2.667-2.942-5.344-4.328-8.02a45.575,45.575,0,0,1-1.12-6.255,40.594,40.594,0,0,1,.061-11.141,33.175,33.175,0,0,1,2.577-8.513c1.232-2.644,2.716-5.173,4.282-7.884,10.346-17.932,13.95-31.182,4.636-52.345a64.259,64.259,0,0,1-2.785-7.478,34.606,34.606,0,0,1-1.243-6.393,32.7,32.7,0,0,1,.289-9.627c0.955-5.127,2.86-7.856,2.5-9.475-0.735-3.189-13.957,3.57-18.5,17.062a72.865,72.865,0,0,0-2.539,9.24c-0.283,1.422-.525,2.8-0.679,4.112-0.128,1.305-.206,2.563-0.244,3.78a76.954,76.954,0,0,0,.887,13.123c0.292,2.015.515,4.02,0.829,6s0.553,3.986.674,6.092a49.777,49.777,0,0,1-1.328,14.447c-1.115,5.018-.971,12.777.914,22.4,0.107,0.6.235,1.2,0.378,1.808l-1.184-2.7-2.714-6.189c-1.768-4.1-3.6-8.078-5.221-12.05q-2.337-6-4.572-11.733c-1.475-3.83-3.012-7.536-4.213-11.256-0.119-.347-0.235-0.682-0.353-1.027-0.135-1.456-.238-2.855-0.3-4.132a39.6,39.6,0,0,1,.727-9.809c1.109-5.425,3.732-9.191,6.5-13.554,9.222-14.44,12.887-26.073,6.735-46.571a59.923,59.923,0,0,1-2.434-13.148,33.98,33.98,0,0,1,.861-8.775c1.089-4.584,2.775-6.876,2.522-8.388-0.506-3-10.974,1.66-15.512,13.383a53.614,53.614,0,0,0-3.669,15.051,80.834,80.834,0,0,0-.164,11.94c0.466,7.4,1.349,14.093-1.454,23.757-1.163,4.253-1.533,11.041-.7,19.643-1.913-6.448-3.784-12.478-5.368-18.1l-4.118-16.027c-0.288-1.05-.543-2.07-0.789-3.077,0-.027,0-0.053,0-0.08-0.118-5.375.062-11.193,0.167-16.847,0.079-2.833.1-5.62,0.228-8.328,0.151-2.708.3-5.324,0.434-7.782,0.245-4.9.38-9.152,0.274-12.253-0.111-5.9-.139-11.736-0.446-17.3-0.115-2.788-.367-5.5-0.476-8.153s-0.264-5.22-.457-7.687c-0.381-4.935-.95-9.46-1.646-13.423a52.8,52.8,0,0,0-2.277-10.057c-1.67-4.754-3.378-9.263-4.756-13.366-1.348-4.105-2.605-7.793-3.753-10.888-2.3-6.189-4.153-10-5.438-10s-3,3.8-5.057,10.171c-1.029,3.185-2.144,7.011-3.332,11.325-1.159,4.312-2.152,9.1-3.318,14.228a57.493,57.493,0,0,0-1.1,10.747c0.029,4.21.378,8.99,0.943,14.157,0.285,2.583.631,5.262,1.031,8.013s1.034,5.556,1.624,8.418c1.257,5.716,2.595,11.641,4.331,17.534,0.962,3.1,2.541,7.245,4.438,11.936l3.045,7.383c1.1,2.551,2.367,5.155,3.573,7.787,2.41,5.239,4.861,10.572,7.131,15.508,0.015,0.031.028,0.06,0.043,0.09,0.231,0.976.467,1.96,0.737,2.976l4.016,16.138c1.553,5.734,3.42,11.885,5.317,18.474a69.14,69.14,0,0,0-11.3-16.589c-7.033-7.329-9.76-14.045-12.688-21.273a92.055,92.055,0,0,0-5.135-11.514,97.9,97.9,0,0,0-9.285-13.654c-8.336-10.341-19.935-12.254-19.321-8.747,0.306,1.742,2.723,3.69,5.382,8.227a44.587,44.587,0,0,1,3.952,9.051,76.74,76.74,0,0,1,3.473,14.72c0.434,3,.958,5.782,1.573,8.374a69.27,69.27,0,0,0,2.382,7.165,48.405,48.405,0,0,0,6.285,11.393A39.429,39.429,0,0,0,94,404.779a69.49,69.49,0,0,0,10.786,6.358c4.815,2.311,8.806,4.16,13.184,7.967a43.259,43.259,0,0,1,6.622,7.574c0.759,1.053,1.517,2.236,2.285,3.48,0.084,0.251.165,0.494,0.25,0.746,1.183,3.752,2.673,7.5,4.14,11.366s2.976,7.814,4.514,11.85c1.565,4.026,3.405,8.04,5.149,12.185q1.331,3.1,2.687,6.258c0.441,1.048.89,2.1,1.358,3.144-0.355-.5-0.727-1-1.061-1.49-5.708-8.018-11.558-13.624-15.9-16.657A50.359,50.359,0,0,1,117.1,447.1c-1.377-1.782-2.6-3.583-3.757-5.408s-2.127-3.718-3.208-5.621a92.507,92.507,0,0,0-7.627-11.979c-0.808-1.053-1.676-2.123-2.616-3.213-0.914-1.1-1.861-2.226-2.912-3.373a93.223,93.223,0,0,0-7.392-7.206C77.848,400.1,63.26,399.592,64.223,403.5c0.462,1.941,3.761,3.761,7.612,8.449a44.969,44.969,0,0,1,5.951,9.557c1.008,2.07,1.858,4.449,2.885,7.093a89.792,89.792,0,0,1,2.8,8.989c6.858,26.546,20.727,36.031,41.221,41.481,3.105,0.828,5.982,1.538,8.785,2.476a39.741,39.741,0,0,1,8.527,3.745,44.9,44.9,0,0,1,8.924,7.118c1.388,1.452,2.894,3.063,4.488,4.861,1.271,2.493,2.577,4.987,3.968,7.472q1.76,3.284,3.542,6.611c1.178,2.225,2.371,4.46,3.712,6.631l7.918,13.312c1.294,2.27,2.755,4.455,4.214,6.656l0.821,1.246c-0.118-.116-0.237-0.244-0.355-0.359-1.755-1.747-3.565-3.3-5.188-4.795s-3.207-2.842-4.731-4.039a48.38,48.38,0,0,0-8.252-5.365,47.818,47.818,0,0,1-7.051-4.171,49.737,49.737,0,0,1-5.333-4.634,112.835,112.835,0,0,1-8.508-9.972c-1.411-1.708-2.707-3.518-4.191-5.338s-3.1-3.674-4.965-5.562a102.132,102.132,0,0,0-14.777-11.961c-12.793-8.685-27.653-7.2-26.023-3.472,0.808,1.846,4.281,3.251,8.685,7.442a49.975,49.975,0,0,1,7.158,8.765,77.776,77.776,0,0,1,7.906,15.268q0.957,2.4,1.959,4.6,1.089,2.168,2.223,4.143a69.978,69.978,0,0,0,4.7,7.2,43.528,43.528,0,0,0,10.656,10.46,49.269,49.269,0,0,0,12.655,6.094,66.962,66.962,0,0,0,7.038,1.839q1.826,0.376,3.716.68,1.941,0.276,3.951.489c6.487,0.684,12.01,1.032,18.114,3.6a62.216,62.216,0,0,1,14.217,8.994,396.4,396.4,0,0,0,30.456,37.614,89.806,89.806,0,0,0-10.649-6.588c-1.766-.882-3.353-1.706-4.836-2.393a37.475,37.475,0,0,0-4.137-1.629,51.205,51.205,0,0,1-13.738-6.719,93.563,93.563,0,0,1-9.87-8.665c-1.6-1.521-3.253-3.065-5.051-4.616s-3.77-3.1-5.835-4.738a84.618,84.618,0,0,0-16.443-9.731,43.165,43.165,0,0,0-10.306-3.315,33.717,33.717,0,0,0-8.838-.448c-5.079.455-8.153,2.238-7.095,3.984s4.679,2.669,9.606,6.256a49.363,49.363,0,0,1,8.61,7.611,67.338,67.338,0,0,1,4.866,6.092c1.661,2.348,3.353,5.034,5.277,8a83.224,83.224,0,0,0,11.293,14.588,49.173,49.173,0,0,0,12.411,8.672,45.063,45.063,0,0,0,13.438,4.135,80.382,80.382,0,0,0,15.172.522c10.67-.6,18.563-1.383,33.077,6.533a380.373,380.373,0,0,0,36.66,31.77c-0.536-.224-1.082-0.464-1.608-0.674q-1.6-.729-3.133-1.37c-2.047-.851-4.006-1.577-5.859-2.184a49.717,49.717,0,0,0-9.659-2.251c-1.489-.172-2.921-0.374-4.261-0.649-1.315-.3-2.566-0.649-3.765-1.027a50.481,50.481,0,0,1-6.634-2.632,95.582,95.582,0,0,1-11.434-6.707,96.3,96.3,0,0,0-12.281-7.522c-2.391-1.222-5.1-2.339-8.037-3.514a97.81,97.81,0,0,0-9.877-3.43,38.679,38.679,0,0,0-19.739-.568c-4.92,1.225-7.665,3.478-6.35,5.073s5.173,1.864,10.766,4.572a47.773,47.773,0,0,1,9.7,6.29c1.786,1.53,3.806,3.212,5.937,5.21a96.51,96.51,0,0,1,6.691,7.03,82.344,82.344,0,0,0,6.864,7.155,73.155,73.155,0,0,0,7,5.355,49.382,49.382,0,0,0,13.72,6.6c9.389,2.445,18.765,1.875,29.111-.481,6.384-1.589,11.719-3.177,18.373-2.9a39.988,39.988,0,0,1,5.266.576c1.875,0.3,3.8.855,6.019,1.352q1.632,0.4,3.386.926a387.446,387.446,0,0,0,41.549,23.791,88.243,88.243,0,0,0-9.794-1.487,52.925,52.925,0,0,0-9.834-.481,51.484,51.484,0,0,1-15.366-1.209,113.886,113.886,0,0,1-12.424-4.626c-8.436-3.246-16.983-7.218-32.688-8.457-15.523-1.82-28.06,6.261-24.76,8.918,1.633,1.3,5.421.99,11.4,2.752a64.6,64.6,0,0,1,10.893,4.354,70.852,70.852,0,0,1,6.857,4.086q1.835,1.23,3.792,2.691c1.3,0.985,2.648,2.047,4.118,3.1a86.569,86.569,0,0,0,16.167,9.716,38.894,38.894,0,0,0,7.6,2.519,49.255,49.255,0,0,0,7.355,1.161,48,48,0,0,0,14.152-.992,79.607,79.607,0,0,0,14.38-5.189c5.915-2.759,10.752-5.21,17.323-6.259a43.887,43.887,0,0,1,8.161-.689q1,0.442,2.1.922c6.069,2.624,14.516,6.042,25.2,9.483,5.358,1.714,11.275,3.459,17.709,5.142a55.082,55.082,0,0,0-12.292,1.959,49.05,49.05,0,0,1-15.2,1.649c-2.289-.1-4.494-0.331-6.681-0.626-1.092-.152-2.187-0.3-3.273-0.492l-3.239-.7c-8.725-1.973-18.3-3.286-33.711-1.961-15.853,1.694-26.385,11.694-22.67,13.8,1.821,1.063,5.544-.083,11.861.339,6.374,0.351,15.059,2.64,28.146,8.834q4.809,2.372,9.22,4.027a57.033,57.033,0,0,0,8.609,2.27,52.339,52.339,0,0,0,15.351.753,34.48,34.48,0,0,0,7-1.5,53.667,53.667,0,0,0,6.711-2.582,77.291,77.291,0,0,0,12.957-7.774c5.178-3.687,9.491-7.42,15.723-9.809a43.432,43.432,0,0,1,8.5-2.279,417.383,417.383,0,0,0,43.066,5.245q3.667,0.26,7.42.454c-0.067.014-.137,0.024-0.2,0.039-2.168.434-4.2,0.924-6.073,1.452a50.3,50.3,0,0,0-9.287,3.511,48.265,48.265,0,0,1-7.675,3.228,50.3,50.3,0,0,1-6.968,1.481,114.908,114.908,0,0,1-13.254.809l-3.4.115-3.5.032c-2.382.047-4.878,0.186-7.557,0.5a78.136,78.136,0,0,0-8.67,1.512c-3.129.725-6.53,1.736-10.227,2.762-15.049,4.453-23.449,16.835-19.329,17.954,2.034,0.549,5.415-1.237,11.645-1.991a68.836,68.836,0,0,1,11.732-.147,84.484,84.484,0,0,1,17.5,3.2,57.98,57.98,0,0,0,9.8,1.935,73.571,73.571,0,0,0,8.821.584,45.568,45.568,0,0,0,15.274-2.266c9.459-3.188,17.135-8.844,24.154-16.643,4.02-4.9,7.348-9.2,12.886-12.691a42.7,42.7,0,0,1,9.975-4.487,42.69,42.69,0,0,1,9.976,4.487C520.012,730,523.34,734.3,527.36,739.2c7.019,7.8,14.695,13.455,24.154,16.643a45.576,45.576,0,0,0,15.274,2.266,73.558,73.558,0,0,0,8.821-.584,58.01,58.01,0,0,0,9.8-1.935,84.465,84.465,0,0,1,17.5-3.2,68.834,68.834,0,0,1,11.732.147c6.231,0.754,9.612,2.54,11.645,1.991,4.12-1.119-4.28-13.5-19.329-17.954-3.7-1.026-7.1-2.037-10.226-2.762a78.216,78.216,0,0,0-8.67-1.512c-2.68-.31-5.175-0.449-7.557-0.5l-3.5-.032-3.4-.115a114.891,114.891,0,0,1-13.253-.809,50.266,50.266,0,0,1-6.968-1.481,48.274,48.274,0,0,1-7.676-3.228,50.3,50.3,0,0,0-9.287-3.511c-1.876-.528-3.9-1.018-6.073-1.452-0.061-.013-0.126-0.023-0.188-0.036,2.071-.11,4.13-0.23,6.165-0.369a417.83,417.83,0,0,0,44.329-5.329,43.378,43.378,0,0,1,8.474,2.275c6.232,2.389,10.546,6.122,15.723,9.809a77.331,77.331,0,0,0,12.957,7.774,53.667,53.667,0,0,0,6.711,2.582,34.48,34.48,0,0,0,7,1.5,52.346,52.346,0,0,0,15.352-.753,57.053,57.053,0,0,0,8.608-2.27q4.416-1.662,9.221-4.027c13.086-6.194,21.771-8.483,28.145-8.834,6.317-.422,10.041.724,11.861-0.339,3.716-2.111-6.817-12.111-22.669-13.8-15.414-1.325-24.986-.012-33.712,1.961l-3.239.7c-1.085.193-2.181,0.34-3.273,0.492-2.187.295-4.392,0.528-6.681,0.626a49.05,49.05,0,0,1-15.2-1.649,55.079,55.079,0,0,0-12.285-1.959c6.1-1.6,11.75-3.249,16.893-4.878,10.791-3.44,19.358-6.884,25.561-9.552,0.908-.39,1.75-0.76,2.557-1.117a43.921,43.921,0,0,1,8.157.689c6.572,1.049,11.408,3.5,17.323,6.259A79.589,79.589,0,0,0,692.52,706.1a47.991,47.991,0,0,0,14.152.992,49.222,49.222,0,0,0,7.354-1.161,38.925,38.925,0,0,0,7.6-2.519A86.6,86.6,0,0,0,737.8,693.7c1.469-1.049,2.816-2.111,4.117-3.1s2.57-1.871,3.793-2.691a70.852,70.852,0,0,1,6.857-4.086,64.53,64.53,0,0,1,10.893-4.354c5.975-1.762,9.763-1.447,11.4-2.752,3.3-2.657-9.238-10.738-24.761-8.918-15.7,1.239-24.252,5.211-32.688,8.457a113.809,113.809,0,0,1-12.424,4.626,51.484,51.484,0,0,1-15.366,1.209,52.925,52.925,0,0,0-9.834.481,88.556,88.556,0,0,0-9.941,1.52,386.679,386.679,0,0,0,41.756-23.84q1.722-.513,3.327-0.91c2.224-.5,4.143-1.048,6.019-1.352a39.951,39.951,0,0,1,5.266-.576c6.653-.275,11.988,1.313,18.372,2.9,10.346,2.356,19.722,2.926,29.112.481a49.39,49.39,0,0,0,13.719-6.6,73.038,73.038,0,0,0,7-5.355,82.488,82.488,0,0,0,6.863-7.155,96.509,96.509,0,0,1,6.692-7.03c2.13-2,4.15-3.68,5.937-5.21a47.743,47.743,0,0,1,9.7-6.29c5.594-2.708,9.447-2.991,10.766-4.572s-1.43-3.848-6.349-5.073a38.679,38.679,0,0,0-19.739.568,97.637,97.637,0,0,0-9.877,3.43c-2.933,1.175-5.647,2.292-8.038,3.514a96.288,96.288,0,0,0-12.28,7.522,95.661,95.661,0,0,1-11.434,6.707,50.5,50.5,0,0,1-6.635,2.632c-1.2.378-2.45,0.723-3.764,1.027-1.34.275-2.772,0.477-4.262,0.649a49.749,49.749,0,0,0-9.659,2.251c-1.853.607-3.812,1.333-5.858,2.184q-1.536.637-3.134,1.37c-0.53.211-1.079,0.453-1.618,0.678,0.632-.465,1.272-0.922,1.9-1.389L747.249,633.6c2.31-1.789,4.427-3.8,6.587-5.743L760.291,622c2.121-1.978,4.355-3.83,6.37-5.9q0.951-.96,1.9-1.917c14.41-7.821,22.28-7.034,32.909-6.439a80.379,80.379,0,0,0,15.172-.522,45.045,45.045,0,0,0,13.438-4.135,49.177,49.177,0,0,0,12.412-8.672,83.319,83.319,0,0,0,11.293-14.588c1.923-2.966,3.616-5.652,5.277-8a67.164,67.164,0,0,1,4.866-6.092,49.29,49.29,0,0,1,8.61-7.611c4.926-3.587,8.55-4.516,9.605-6.256s-2.016-3.529-7.1-3.984a33.708,33.708,0,0,0-8.837.448,43.158,43.158,0,0,0-10.307,3.315,84.618,84.618,0,0,0-16.443,9.731c-2.065,1.643-4.032,3.189-5.834,4.738s-3.449,3.1-5.051,4.616A93.575,93.575,0,0,1,818.7,579.4a51.213,51.213,0,0,1-13.737,6.719,37.485,37.485,0,0,0-4.138,1.629c-1.482.687-3.069,1.511-4.835,2.393a89.767,89.767,0,0,0-10.685,6.612c3.542-3.993,7.155-7.89,10.542-11.932l10.524-13.043c1.787-2.123,3.368-4.389,5-6.606q2.207-3.027,4.4-6.029a62.264,62.264,0,0,1,14.251-9.022c6.1-2.568,11.626-2.916,18.114-3.6q2.01-.213,3.95-0.489,1.893-.306,3.717-0.68a66.962,66.962,0,0,0,7.038-1.839,49.3,49.3,0,0,0,12.655-6.094,43.528,43.528,0,0,0,10.656-10.46,70.142,70.142,0,0,0,4.7-7.2q1.133-1.979,2.223-4.143,1-2.2,1.959-4.6a77.831,77.831,0,0,1,7.906-15.268,50.047,50.047,0,0,1,7.158-8.765c4.4-4.191,7.877-5.6,8.685-7.442,1.629-3.728-13.23-5.213-26.024,3.472a102.243,102.243,0,0,0-14.777,11.961c-1.866,1.888-3.487,3.74-4.965,5.562s-2.779,3.63-4.191,5.338a112.835,112.835,0,0,1-8.508,9.972,49.821,49.821,0,0,1-5.332,4.634,47.779,47.779,0,0,1-7.052,4.171,48.419,48.419,0,0,0-8.252,5.365c-1.524,1.2-3.108,2.543-4.731,4.039s-3.432,3.048-5.188,4.795c-0.12.117-.243,0.249-0.363,0.367,0.146-.222.295-0.446,0.441-0.669,1.44-2.222,2.96-4.378,4.252-6.658q4.017-6.753,7.942-13.351,0.979-1.65,1.954-3.289l1.794-3.349,3.552-6.631c1.481-2.649,2.869-5.305,4.221-7.959,1.605-1.81,3.12-3.431,4.516-4.891a44.9,44.9,0,0,1,8.923-7.118,39.726,39.726,0,0,1,8.528-3.745c2.8-.938,5.679-1.648,8.784-2.476,20.494-5.45,34.364-14.935,41.222-41.481a89.639,89.639,0,0,1,2.8-8.989c1.027-2.644,1.877-5.023,2.886-7.093a44.929,44.929,0,0,1,5.951-9.557c3.851-4.688,7.15-6.508,7.612-8.449C945.739,399.592,931.15,400.1,919.414,410.3Z" transform="translate(-62.344 -234.438)"/>
</svg>
