<svg xmlns="http://www.w3.org/2000/svg" width="999.969" height="961.906" viewBox="0 0 999.969 961.906">
  <defs>
    <style>
      .cls-1 {
        fill: #a6b4bf;
        fill-rule: evenodd;
      }
    </style>
  </defs>
  <path class="cls-1" d="M144.209,0.974L99.651,91.333,0.009,105.825l138.469,38.586ZM288.4,105.825L188.767,91.333,144.209,0.974l5.725,143.437Zm-288.4,0,72.1,70.333L55.093,275.472l79.843-120.143ZM55.093,275.472l89.117-46.895,89.116,46.895L144.209,162.077ZM288.4,105.825l-134.92,49.5,79.84,120.143L216.3,176.158ZM625.8,364.7l93.544,91.252L697.265,584.8,800.851,428.923Zm374.162,0L824.912,428.923,928.505,584.8,906.42,455.95Zm-187.08-136.03L755.078,345.9,625.8,364.7l179.646,50.06ZM697.265,584.8l115.62-60.839L928.505,584.8,812.885,437.679Zm302.7-220.1L870.7,345.9l-57.813-117.23,7.429,186.09ZM545.892,83.2l-33.234,67.4-74.315,10.808,103.276,28.778Zm-107.549,78.2,53.775,52.46-12.693,74.074,59.55-89.61Zm215.1,0L552.808,198.331l59.555,89.61-12.7-74.074ZM479.425,287.941l66.467-34.978,66.471,34.978-66.471-84.578Zm174.02-126.534L579.13,150.6,545.892,83.2l4.274,106.982ZM330.794,287.941L302.242,345.83l-63.833,9.283,88.71,24.724Zm92.381,67.172-63.836-9.283-28.545-57.889,3.667,91.9Zm-184.766,0L284.6,400.176,273.7,463.8l51.149-76.972ZM273.7,463.8l57.1-30.046L387.887,463.8l-57.093-72.651ZM423.175,355.113l-86.443,31.719L387.887,463.8l-10.9-63.628Zm211.73,472.3L527.17,866.937l63.755,95.927-13.592-79.3Zm0,0-79.557-11.568-35.577-72.148,4.57,114.525Zm-230.27,0,57.568,56.16-13.589,79.3,63.746-95.927Zm115.136-83.716-35.579,72.148-79.557,11.568,110.558,30.809ZM448.614,962.864l71.157-37.441,71.154,37.441-71.154-90.539ZM58.133,684.611l57.574,56.159-13.594,79.3,63.751-95.931Zm230.272,0L208.852,673.04l-35.579-72.146,4.572,114.527ZM173.273,600.894L137.7,673.04,58.133,684.611l110.56,30.81ZM288.4,684.611L180.674,724.136l63.751,95.931-13.594-79.3ZM102.113,820.067l71.16-37.445,71.152,37.445-71.152-90.541Zm436.2-298.816-22.226,45.07-49.7,7.227,69.065,19.247Zm-71.922,52.3,35.959,35.081-8.488,49.536,39.823-59.925Zm143.842,0-49.7-7.227-22.224-45.07,2.855,71.544ZM493.86,658.165l44.451-23.39,44.449,23.39-44.449-56.559Zm116.371-84.617-67.3,24.692,39.829,59.925-8.492-49.536Z" transform="translate(0 -0.969)"/>
</svg>
