<svg xmlns="http://www.w3.org/2000/svg" width="1002.061" height="915.719" viewBox="0 0 1002.061 915.719">
  <defs>
    <style>
      .cls-1 {
        fill: #a6b4bf;
        fill-rule: evenodd;
      }
    </style>
  </defs>
  <path class="cls-1" d="M170.661,318.342A361.964,361.964,0,0,0,179.9,280.67c3.043-15.592,5.713-33.774,7.5-53.255,0.919-9.758,1.648-19.825,2.064-30.054,0.12-2.311.153-4.641,0.232-6.955,2.295-.092,4.61-0.119,6.9-0.243,10.141-.417,20.123-1.153,29.781-2.077a524.909,524.909,0,0,0,52.8-7.559,359.323,359.323,0,0,0,37.36-9.326c9.012-2.726,14.165-4.87,14.165-4.87s-5.151-2.12-14.17-4.857a356.377,356.377,0,0,0-37.346-9.325,526.587,526.587,0,0,0-52.814-7.549c-9.664-.932-19.644-1.668-29.78-2.079-2.275-.126-4.583-0.162-6.867-0.243-0.093-2.321-.115-4.652-0.239-6.956-0.349-10.232-1.16-20.294-2.028-30.043a535.151,535.151,0,0,0-7.481-53.266,360.09,360.09,0,0,0-9.293-37.677c-2.714-9.094-4.849-14.293-4.849-14.293s-2.127,5.2-4.838,14.288a359.962,359.962,0,0,0-9.292,37.679,532.228,532.228,0,0,0-7.492,53.271c-0.873,9.75-1.67,19.812-2.021,30.045-0.124,2.293-.16,4.62-0.231,6.921-2.3.079-4.6,0.108-6.878,0.238-10.138.359-20.125,1.165-29.787,2.044a523.355,523.355,0,0,0-52.809,7.553,354.884,354.884,0,0,0-37.335,9.365c-9.015,2.747-14.18,4.9-14.18,4.9s5.16,2.149,14.175,4.9A352.487,352.487,0,0,0,52.5,180.6a522.618,522.618,0,0,0,52.8,7.56c9.665,0.876,19.64,1.682,29.79,2.042,2.282,0.126,4.6.15,6.9,0.229,0.083,2.311.11,4.637,0.236,6.938,0.414,10.225,1.136,20.3,2.061,30.043,1.788,19.484,4.456,37.67,7.5,53.262a362.8,362.8,0,0,0,9.239,37.677c2.706,9.106,4.819,14.292,4.819,14.292S167.956,327.445,170.661,318.342Zm-21.2-152a16.378,16.378,0,1,1,16.38,16.523A16.439,16.439,0,0,1,149.459,166.34ZM815.671,555.462a424.423,424.423,0,0,0,10.82-44.1c3.561-18.251,6.687-39.536,8.775-62.341,1.077-11.421,1.93-23.206,2.415-35.178,0.143-2.706.18-5.434,0.273-8.142,2.687-.108,5.4-0.14,8.076-0.286,11.873-.488,23.556-1.348,34.863-2.429a614.821,614.821,0,0,0,61.811-8.85,420.846,420.846,0,0,0,43.734-10.917c10.549-3.191,16.582-5.7,16.582-5.7s-6.031-2.482-16.588-5.687a418.09,418.09,0,0,0-43.718-10.916,616.653,616.653,0,0,0-61.824-8.835c-11.31-1.092-22.994-1.952-34.86-2.433-2.663-.149-5.365-0.19-8.037-0.286-0.11-2.717-.136-5.446-0.28-8.142-0.41-11.979-1.358-23.757-2.374-35.169a626.9,626.9,0,0,0-8.758-62.353,421.187,421.187,0,0,0-10.879-44.1c-3.175-10.645-5.676-16.731-5.676-16.731s-2.491,6.089-5.663,16.726a421.527,421.527,0,0,0-10.876,44.1,622.56,622.56,0,0,0-8.769,62.36c-1.023,11.412-1.958,23.191-2.368,35.169-0.146,2.684-.187,5.408-0.272,8.1-2.688.093-5.383,0.127-8.05,0.279-11.868.421-23.558,1.364-34.868,2.392a613.16,613.16,0,0,0-61.818,8.842,415.775,415.775,0,0,0-43.7,10.963c-10.555,3.216-16.6,5.731-16.6,5.731s6.041,2.516,16.594,5.732a412.167,412.167,0,0,0,43.719,10.952,611.57,611.57,0,0,0,61.808,8.853c11.313,1.024,22.99,1.967,34.872,2.388,2.67,0.149,5.383.178,8.072,0.269,0.1,2.706.129,5.427,0.276,8.122,0.484,11.968,1.33,23.76,2.412,35.169,2.093,22.807,5.214,44.095,8.776,62.346a424.5,424.5,0,0,0,10.815,44.107c3.169,10.657,5.64,16.728,5.64,16.728S812.505,566.118,815.671,555.462Zm-24.82-177.934a19.173,19.173,0,1,1,19.175,19.342A19.249,19.249,0,0,1,790.851,377.528ZM368.214,473.441a269.666,269.666,0,0,0,6.873-28.012c2.261-11.591,4.247-25.113,5.574-39.6,0.683-7.255,1.226-14.74,1.535-22.345,0.09-1.718.113-3.451,0.173-5.173,1.706-.068,3.428-0.087,5.129-0.179,7.541-.31,14.962-0.858,22.144-1.545a390.048,390.048,0,0,0,39.263-5.621,267.552,267.552,0,0,0,27.78-6.934c6.7-2.026,10.532-3.621,10.532-3.621s-3.83-1.576-10.537-3.612a265.3,265.3,0,0,0-27.77-6.934,391.016,391.016,0,0,0-39.27-5.612c-7.183-.693-14.606-1.241-22.142-1.545-1.693-.094-3.408-0.122-5.106-0.182-0.069-1.726-.086-3.459-0.178-5.172-0.259-7.608-.861-15.091-1.508-22.338a398.036,398.036,0,0,0-5.561-39.607,267.629,267.629,0,0,0-6.912-28.014c-2.017-6.764-3.605-10.629-3.605-10.629s-1.582,3.867-3.6,10.624a267.768,267.768,0,0,0-6.909,28.017,395.632,395.632,0,0,0-5.57,39.611c-0.65,7.247-1.243,14.729-1.5,22.338-0.091,1.706-.117,3.436-0.171,5.146-1.708.059-3.419,0.081-5.114,0.177-7.538.268-14.964,0.867-22.147,1.521a389.019,389.019,0,0,0-39.267,5.615,263.721,263.721,0,0,0-27.76,6.964c-6.7,2.043-10.545,3.641-10.545,3.641s3.837,1.6,10.54,3.639a262.07,262.07,0,0,0,27.77,6.959,389.036,389.036,0,0,0,39.262,5.622c7.185,0.65,14.6,1.25,22.15,1.517,1.695,0.094,3.42.113,5.128,0.171,0.061,1.718.081,3.448,0.175,5.157,0.307,7.6.844,15.094,1.531,22.34,1.33,14.487,3.313,28.011,5.576,39.6a269.9,269.9,0,0,0,6.868,28.018c2.013,6.77,3.584,10.625,3.584,10.625S366.2,480.21,368.214,473.441ZM352.448,360.418a12.179,12.179,0,1,1,12.18,12.287A12.227,12.227,0,0,1,352.448,360.418Zm227.6-109.993a161.153,161.153,0,0,0,4.108-16.745,238.922,238.922,0,0,0,3.331-23.671c0.409-4.337.733-8.812,0.918-13.358,0.054-1.026.068-2.063,0.1-3.091,1.021-.041,2.049-0.053,3.066-0.108,4.509-.185,8.944-0.512,13.237-0.924a233.546,233.546,0,0,0,23.472-3.359,160.352,160.352,0,0,0,16.606-4.145c4-1.212,6.3-2.165,6.3-2.165s-2.29-.943-6.3-2.159a158.622,158.622,0,0,0-16.6-4.146,233.905,233.905,0,0,0-23.476-3.353c-4.294-.416-8.732-0.743-13.237-0.926-1.011-.056-2.037-0.072-3.051-0.108-0.043-1.031-.051-2.066-0.107-3.091-0.156-4.548-.516-9.021-0.9-13.354a238.258,238.258,0,0,0-3.326-23.677,159.821,159.821,0,0,0-4.13-16.745c-1.206-4.043-2.156-6.353-2.156-6.353s-0.945,2.312-2.149,6.35a159.722,159.722,0,0,0-4.13,16.748,235.668,235.668,0,0,0-3.33,23.678c-0.388,4.332-.745,8.807-0.9,13.354-0.054,1.018-.069,2.054-0.1,3.077-1.021.034-2.044,0.048-3.057,0.106-4.507.159-8.946,0.516-13.24,0.908a232.807,232.807,0,0,0-23.472,3.357,157.187,157.187,0,0,0-16.6,4.163c-4.006,1.22-6.3,2.176-6.3,2.176s2.294,0.955,6.3,2.175a156.264,156.264,0,0,0,16.6,4.159,232.33,232.33,0,0,0,23.469,3.362c4.3,0.389,8.73.746,13.242,0.907,1.012,0.057,2.044.067,3.065,0.1,0.035,1.026.047,2.06,0.1,3.083,0.185,4.544.506,9.022,0.916,13.354,0.8,8.659,1.981,16.744,3.333,23.673a161.121,161.121,0,0,0,4.107,16.747c1.2,4.048,2.142,6.353,2.142,6.353S578.841,254.472,580.044,250.425Zm-9.424-67.562a7.279,7.279,0,1,1,7.28,7.343A7.307,7.307,0,0,1,570.62,182.863ZM562.638,656a161.278,161.278,0,0,0,4.11-16.743c1.351-6.931,2.537-15.014,3.331-23.673,0.409-4.336.733-8.812,0.917-13.356,0.053-1.028.068-2.063,0.1-3.093,1.019-.04,2.049-0.052,3.067-0.108,4.506-.185,8.944-0.512,13.237-0.922a232.977,232.977,0,0,0,23.47-3.361A159.771,159.771,0,0,0,627.48,590.6c4.006-1.212,6.3-2.165,6.3-2.165s-2.29-.941-6.3-2.159a158.652,158.652,0,0,0-16.6-4.144,233.849,233.849,0,0,0-23.475-3.355c-4.3-.414-8.73-0.741-13.235-0.924-1.013-.057-2.037-0.072-3.053-0.108-0.041-1.033-.051-2.068-0.106-3.092-0.156-4.549-.515-9.022-0.9-13.354a237.245,237.245,0,0,0-3.325-23.676,159.97,159.97,0,0,0-4.131-16.747c-1.2-4.041-2.155-6.353-2.155-6.353s-0.946,2.312-2.15,6.351a159.909,159.909,0,0,0-4.131,16.747,236.929,236.929,0,0,0-3.329,23.678c-0.389,4.334-.743,8.807-0.9,13.354-0.054,1.02-.071,2.055-0.1,3.077-1.021.036-2.046,0.048-3.058,0.106-4.5.159-8.944,0.518-13.239,0.908a232.746,232.746,0,0,0-23.473,3.357,158.13,158.13,0,0,0-16.594,4.163c-4.008,1.222-6.3,2.176-6.3,2.176s2.293,0.955,6.3,2.177a156.609,156.609,0,0,0,16.6,4.159,232.344,232.344,0,0,0,23.47,3.36c4.295,0.39,8.729.748,13.241,0.907,1.014,0.057,2.043.069,3.065,0.1,0.037,1.026.049,2.06,0.105,3.083,0.183,4.544.5,9.022,0.916,13.354,0.795,8.661,1.979,16.744,3.331,23.673A161.474,161.474,0,0,0,558.351,656c1.205,4.046,2.143,6.351,2.143,6.351S561.437,660.045,562.638,656Zm-9.424-67.562a7.28,7.28,0,1,1,7.281,7.345A7.308,7.308,0,0,1,553.214,588.436Zm-365,315.341a303.086,303.086,0,0,0,7.742-31.55c2.548-13.056,4.783-28.284,6.277-44.6,0.771-8.17,1.381-16.6,1.729-25.166,0.1-1.936.129-3.888,0.195-5.826,1.922-.077,3.86-0.1,5.777-0.2,8.5-.347,16.852-0.965,24.941-1.738a439.557,439.557,0,0,0,44.221-6.331,301.261,301.261,0,0,0,31.288-7.81c7.546-2.283,11.863-4.078,11.863-4.078s-4.315-1.776-11.868-4.068a298.674,298.674,0,0,0-31.276-7.809,440.28,440.28,0,0,0-44.23-6.32c-8.091-.782-16.449-1.4-24.939-1.742-1.905-.106-3.837-0.137-5.75-0.2-0.078-1.945-.1-3.9-0.2-5.826-0.294-8.568-.972-17-1.7-25.159a448.08,448.08,0,0,0-6.266-44.609,301.107,301.107,0,0,0-7.783-31.552c-2.272-7.617-4.059-11.97-4.059-11.97s-1.783,4.356-4.053,11.965a301.664,301.664,0,0,0-7.78,31.554,445.2,445.2,0,0,0-6.274,44.613c-0.731,8.165-1.4,16.591-1.7,25.16-0.1,1.921-.132,3.87-0.193,5.8-1.924.065-3.852,0.09-5.759,0.2-8.491.3-16.853,0.977-24.945,1.713a438.331,438.331,0,0,0-44.225,6.325,297.371,297.371,0,0,0-31.266,7.843c-7.551,2.3-11.877,4.1-11.877,4.1s4.322,1.8,11.872,4.1a294.971,294.971,0,0,0,31.278,7.837,436.855,436.855,0,0,0,44.218,6.332c8.094,0.734,16.447,1.408,24.947,1.711,1.91,0.106,3.852.125,5.776,0.192,0.069,1.935.091,3.882,0.2,5.808,0.346,8.564.952,17,1.727,25.162,1.5,16.316,3.73,31.547,6.278,44.6a303.944,303.944,0,0,0,7.736,31.554c2.268,7.625,4.035,11.968,4.035,11.968S185.952,911.4,188.216,903.777Zm-17.755-127.3a13.717,13.717,0,1,1,13.719,13.837A13.77,13.77,0,0,1,170.461,776.481Zm335.794,107.1a122.812,122.812,0,0,0,3.133-12.768c1.031-5.283,1.935-11.446,2.541-18.049,0.312-3.3.558-6.719,0.7-10.183,0.041-.784.053-1.574,0.08-2.358,0.777-.031,1.562-0.041,2.337-0.082,3.439-.142,6.821-0.392,10.094-0.705a178.059,178.059,0,0,0,17.895-2.561,121.774,121.774,0,0,0,12.662-3.162c3.055-.922,4.8-1.65,4.8-1.65s-1.747-.718-4.8-1.645a120.787,120.787,0,0,0-12.657-3.161,178.637,178.637,0,0,0-17.9-2.558c-3.274-.316-6.656-0.566-10.093-0.7-0.77-.043-1.552-0.055-2.327-0.083-0.03-.787-0.039-1.577-0.079-2.357-0.119-3.468-.394-6.878-0.689-10.182a181.7,181.7,0,0,0-2.534-18.053,122.333,122.333,0,0,0-3.15-12.769c-0.919-3.083-1.644-4.845-1.644-4.845s-0.721,1.764-1.64,4.844a122.028,122.028,0,0,0-3.148,12.769,179.674,179.674,0,0,0-2.539,18.054c-0.3,3.3-.567,6.714-0.685,10.182-0.043.776-.055,1.565-0.078,2.345-0.779.028-1.559,0.038-2.333,0.081-3.434.123-6.82,0.4-10.094,0.693a177.92,177.92,0,0,0-17.9,2.559,120.543,120.543,0,0,0-12.652,3.174c-3.056.931-4.807,1.66-4.807,1.66s1.749,0.729,4.8,1.66a120.008,120.008,0,0,0,12.659,3.17,176.5,176.5,0,0,0,17.894,2.563c3.276,0.3,6.656.57,10.1,0.691,0.773,0.045,1.559.052,2.337,0.079,0.027,0.784.038,1.571,0.08,2.351,0.139,3.464.385,6.88,0.7,10.182,0.605,6.6,1.51,12.767,2.541,18.05a123.245,123.245,0,0,0,3.129,12.771c0.918,3.085,1.634,4.842,1.634,4.842S505.339,886.669,506.255,883.583Zm-7.185-51.514a5.551,5.551,0,1,1,5.551,5.6A5.57,5.57,0,0,1,499.07,832.069Z" transform="translate(-0.969 -0.031)"/>
</svg>
