<svg xmlns="http://www.w3.org/2000/svg" width="1003" height="956" viewBox="0 0 1003 956">
  <defs>
    <style>
      .cls-1 {
        fill: #a6b4bf;
        fill-rule: evenodd;
      }
    </style>
  </defs>
  <path class="cls-1" d="M501.491,95.308L618.727,333.376l9.8,19.882,21.888,3.187L912.56,394.623,722.868,579.93l-15.836,15.476,3.733,21.85,44.78,261.664L521.072,755.374l-19.581-10.321L481.91,755.374,247.437,878.92l44.781-261.664,3.744-21.85L280.114,579.93,90.422,394.623l262.149-38.178,21.9-3.187,9.785-19.882L501.491,95.308m0-95.3L346.52,314.708-0.006,365.176,250.737,610.134l-59.2,345.88,309.954-163.3,309.944,163.3-59.189-345.88L1003,365.176,656.463,314.708,501.491,0.008h0Zm0,697.4-198.164,104.4L341.176,580.68,180.862,424.071l221.547-32.257,99.082-201.2,99.082,201.2,221.548,32.257L661.806,580.68l37.838,221.133Z"/>
</svg>
